<?xml version="1.0" encoding="utf-8"?>
<!-- Generator: Adobe Illustrator 23.0.0, SVG Export Plug-In . SVG Version: 6.00 Build 0)  -->
<svg version="1.1" id="Layer_1" xmlns="http://www.w3.org/2000/svg" xmlns:xlink="http://www.w3.org/1999/xlink" x="0px" y="0px"
	 width="129.6px" height="129.8px" viewBox="0 0 129.6 129.8" style="enable-background:new 0 0 129.6 129.8;" xml:space="preserve"
	>
<style type="text/css">
	.st0{fill:#5990FF;}
	.st1{fill:#FFFFFF;}
	.st2{opacity:0.2;fill:#FA526B;}
	.st3{opacity:0.3;fill:#FFFFFF;}
</style>
<g>
	<g>
		
			<image style="overflow:visible;opacity:0.3;" width="540" height="541" xlink:href="3349C0BF.png"  transform="matrix(0.24 0 0 0.24 0 0)">
		</image>
		<g>
			<ellipse transform="matrix(0.1566 -0.9877 0.9877 0.1566 -9.1426 115.2998)" class="st0" cx="62.9" cy="63" rx="59" ry="59"/>
		</g>
	</g>
	<g>
		<rect x="35.6" y="50.7" class="st1" width="17" height="36.1"/>
		<path class="st1" d="M85.9,50.7H71.5c6.8-14.9,1.4-18.9-1.2-18.9c-2.6,0-4.7,1.9-4.7,8.8c0,6.9-10.1,10.1-10.1,10.1v36.9h19
			c9.9,0,17.9-8,17.9-17.9V57.3C92.4,53.7,89.5,50.7,85.9,50.7z"/>
	</g>
	<path class="st2" d="M115.5,36.3c-2.2,11.6-8,23.2-15.3,31.4c-10.3,11.4-28,20.8-43.7,20.8c-17.4,0-32.2-5.2-45.6-16.1
		C8.3,70.3,6.1,68,4,65.5C5.3,96.9,31.2,122,62.9,122c32.6,0,59-26.4,59-59C121.9,53.4,119.5,44.3,115.5,36.3z"/>
	<ellipse transform="matrix(0.7887 -0.6148 0.6148 0.7887 -9.7237 27.8396)" class="st3" cx="35.6" cy="28.1" rx="17.8" ry="9.5"/>
</g>
</svg>
