<?xml version="1.0" encoding="utf-8"?>
<!-- Generator: Adobe Illustrator 23.0.0, SVG Export Plug-In . SVG Version: 6.00 Build 0)  -->
<svg version="1.1" id="Layer_1" xmlns="http://www.w3.org/2000/svg" xmlns:xlink="http://www.w3.org/1999/xlink" x="0px" y="0px"
	 width="115px" height="115.2px" viewBox="0 0 115 115.2" style="enable-background:new 0 0 115 115.2;" xml:space="preserve">
<style type="text/css">
	.st0{fill:#FEDA6C;}
	.st1{opacity:0.2;fill:#FA526B;}
	.st2{fill:#1A222F;}
	.st3{fill:#FA526B;}
	.st4{opacity:0.3;fill:#FA526B;}
	.st5{fill:none;stroke:#1A222F;stroke-width:2.8593;stroke-linecap:round;stroke-linejoin:round;stroke-miterlimit:10;}
	.st6{opacity:0.3;fill:#FFFFFF;}
</style>
<g>
	<g>
		
			<image style="overflow:visible;opacity:0.3;" width="479" height="480" xlink:href="A7666951.png"  transform="matrix(0.24 0 0 0.24 0 0)">
		</image>
		<g>
			
				<ellipse transform="matrix(0.7071 -0.7071 0.7071 0.7071 -23.1169 55.5875)" class="st0" cx="55.5" cy="55.7" rx="51.7" ry="51.7"/>
		</g>
	</g>
	<path class="st1" d="M101.6,32.3c-1.9,10.2-7,20.4-13.4,27.5c-9,10-24.5,18.2-38.3,18.2c-15.2,0-28.3-4.5-40-14.1
		c-2.2-1.8-4.2-3.9-6-6.1c1.1,27.5,23.8,49.5,51.6,49.5c28.5,0,51.7-23.1,51.7-51.7C107.2,47.3,105.2,39.3,101.6,32.3z"/>
	<g>
		<path class="st2" d="M86.6,52.7c0,3-0.4,5.9-1.2,8.6c-3.7,13-15.7,22.4-29.8,22.4c-14.2,0-26.1-9.5-29.8-22.4
			c-0.8-2.7-1.2-5.6-1.2-8.6c0-0.1,0-0.2,0-0.3h62C86.6,52.5,86.6,52.6,86.6,52.7z"/>
		<path class="st3" d="M85.4,61.3c-3.7,13-15.7,22.4-29.8,22.4c-14.2,0-26.1-9.5-29.8-22.4c8.6-2.9,18.8-4.6,29.8-4.6
			C66.5,56.7,76.8,58.4,85.4,61.3z"/>
		<path class="st4" d="M52,66.6c10,0,19.2,1.8,27.7,5.6c2.6-3.2,4.5-6.9,5.7-10.9c-8.6-2.9-18.8-4.6-29.8-4.6
			c-11,0-21.2,1.7-29.8,4.6c1.1,3.8,2.9,7.3,5.3,10.4C37.8,68.5,45.1,66.6,52,66.6z"/>
		<polyline class="st5" points="30.5,27.7 46.3,40.3 30.5,45.8 		"/>
		<line class="st5" x1="46.3" y1="40.3" x2="30.5" y2="36.7"/>
		<polyline class="st5" points="80.5,27.7 64.7,40.3 80.5,45.8 		"/>
		<line class="st5" x1="64.7" y1="40.3" x2="80.5" y2="36.7"/>
	</g>
	<ellipse transform="matrix(0.7887 -0.6148 0.6148 0.7887 -8.9639 24.0736)" class="st6" cx="30.5" cy="25.1" rx="15.6" ry="8.4"/>
</g>
</svg>
