<?xml version="1.0" encoding="utf-8"?>
<!-- Generator: Adobe Illustrator 23.0.0, SVG Export Plug-In . SVG Version: 6.00 Build 0)  -->
<svg version="1.1" id="Layer_1" xmlns="http://www.w3.org/2000/svg" xmlns:xlink="http://www.w3.org/1999/xlink" x="0px" y="0px"
	 width="414.2px" height="406.2px" viewBox="0 0 414.2 406.2" style="enable-background:new 0 0 414.2 406.2;" xml:space="preserve"
	>
<style type="text/css">
	.st0{fill:#B9D4E4;}
	.st1{fill:#61AEF5;}
	.st2{fill:#3999E9;}
	.st3{fill:#CBDEEC;}
	.st4{fill:#3D6687;}
	.st5{fill:#FEFEFE;}
</style>
<g>
	<path class="st0" d="M72,311.1c-0.4-2.8-3.1-3.6-4.9-5c-19.4-14.8-39-29.5-58.5-44.1c-1.5-1.1-2.7-2.4-4-3.8c0-1.3,0-2.7,0-4
		c1.7-2,3.3-4.2,5.6-5.6c1.8-1.1,3.1,0.3,4.3,1.2c20.7,15.5,41.3,31,61.9,46.6c1,0.7,1.9,1.5,2.3,2.7
		C77.8,303.8,75.6,307.8,72,311.1z"/>
	<path class="st1" d="M72,311.1c2-4,4.8-7.7,6.3-12c0.1-2.7,1.9-4.6,3.2-6.8c4.7-8.2,9.9-16.1,15.2-23.9c0.8-1.2,1.9-2.2,3.1-3
		c26.4-35.3,56.7-67.2,85.1-100.8c1.5-1.8,3-3.7,4.5-5.6c2.6-5.3,7.2-8.8,10.7-13.3c9.3-11.1,18.9-21.9,28.3-32.9
		c9.5-11.1,19.1-22.1,28.7-33.1c1.1-1.2,2.1-2.4,3.6-3c8.3-9.2,16-18.9,24.8-27.5c21-20.7,46.2-33.3,75.5-37.4
		c2.2-0.3,4.5-0.5,6.7-0.8c1.5,4.5-0.1,8.9-0.9,13.3c-2.1,11.2-5.8,21.8-10.6,32.2c-0.3,0.3-0.6,0.5-1.1,0.6c-1.8-0.4-3-1.7-4.3-2.8
		c-7-5.8-15.2-8.6-24.1-9.6c-4-0.4-6.3,1-6.7,3.9c-0.4,3.1,1.3,5.2,5.1,5.9c5.9,1,11.7,2.3,16.8,5.8c2.8,1.9,5.3,4,7,7
		c0.1,0.4,0.1,0.8,0.1,1.2c-2.8,6.4-7.2,11.8-11.7,17.1c-10.8,12.8-23.5,23.5-35.6,34.9c-6.4,6-12.6,12.2-18.9,18.3
		c-9.1,8.8-18.3,17.5-27.4,26.2c-19,18.3-38.1,36.4-57.1,54.7c-10.7,10.3-21.6,20.5-32.4,30.8c-19,18.3-38.2,36.3-57.1,54.7
		c-11.4,11-23.1,21.7-34.4,32.8c-1.2,1.2-2.1,3.3-4.5,2.7c-5.4-5.4-6.3-11.7-3.3-18.5C68.3,318.4,70.2,314.7,72,311.1z"/>
	<path class="st2" d="M355.7,56.7c0.5-4.7,3.1-8.7,4.6-13c3.8-10.6,6.1-21.6,7.4-32.7c7.2-1.2,14.4-2.6,21.4,1.1
		c7.3,3.9,11.7,9.9,11.6,18.2c-0.3,22.4-5.6,43.6-16,63.6c-9.8,18.6-23.9,33.5-39.9,46.8c-3.7,3.1-7.2,6.4-10.7,9.5
		c-3,4.7-7.7,7.7-11.8,11.2c-15.7,13.6-31.4,27.2-47.1,40.8c-3.3,2.9-6.6,5.8-10,8.6c-4.5,3.5-8.2,8.1-13.4,10.7
		c-13.3,11.4-26.7,22.8-40,34.2c-21.9,18.8-43.1,38.4-66.5,55.4c-3.1,3.9-7.5,6.2-11.6,8.9c-7.1,4.7-14.4,9-21.7,13.3
		c-4,1.4-7,4.8-11.4,5.2c-4,1.9-8,4-12.1,5.8c-6.8,3-13.2,1.8-18.5-3.5c0.6-0.5,1.3-0.9,1.9-1.4c9.2-8.9,18.3-17.8,27.5-26.7
		c13.6-13.1,27.1-26.3,40.9-39.2c11.7-11,23.3-22.2,35-33.3c12.1-11.6,24.2-23.2,36.4-34.8c11.4-10.8,22.8-21.6,34.1-32.5
		c12.4-11.9,24.9-23.6,37.2-35.6c9.6-9.4,19.5-18.5,29.2-27.7c3.8-3.6,7.6-7.1,11.4-10.6c9.7-9,17.9-19.3,25.1-30.3
		c1.9-0.1,2.4,1.4,3.1,2.7c1.7,3.2,2.9,6.5,3.4,10.1c0.2,1.7,0.5,3.4,1,5.1c1,3.3,3.2,4.8,6.2,4.1c2.7-0.6,4.3-2.8,3.9-6
		c-1-8.1-3.2-15.9-8.1-22.6C357.2,60.3,355.5,59,355.7,56.7z"/>
	<path class="st3" d="M260.7,76.7c-20,23.2-40.1,46.3-60.1,69.5c-2.4,1.3-3.7-0.7-5.2-1.8c-21.7-16.2-43.2-32.5-64.9-48.6
		c-26.6-19.7-53.1-39.7-79.6-59.6c-1.6-1.2-4-1.8-3.9-4.5c6.8-7.1,13.1-14.8,21.1-20.5c8.2-5.9,17.4-6.5,26.9-2.6
		c9.6,3.9,19.1,7.9,28.7,11.9c1.2,0.5,2.2,0.8,3.3,0c8.8,3.8,17.6,7.5,26.5,11.1c1.1,0.4,2.3,0.7,3.1,1.7c5.9,4,12.9,5.8,19.3,8.7
		c2.9,1.3,5.6,2.9,8.8,3.4c4.9,0.3,9,3,13.4,4.8c5.7,2.3,11.4,4.3,16.9,7.1c2.8,3.3,7.2,3.7,10.8,5.3c10.9,4.8,21.9,9.2,32.9,13.7
		C259.3,76.6,260,76.6,260.7,76.7z"/>
	<path class="st3" d="M264.6,210.1c10.3-9,20.5-18,30.8-27c11.8-10.3,23.7-20.5,35.5-30.7c1-0.9,2.1-1.6,3.2-2.4
		c6.2,14.7,12.3,29.5,18.4,44.2c0.5,1.3,0.6,2.9,2.5,3.1c3.1,8.8,7,17.3,10.6,26c0.6,1.5,1,2.9,1.4,4.4c1.2,6.8,4.8,12.8,7.3,19.2
		c1.6,4,2.7,8.3,5.3,11.9c1.9,1.5,2.3,3.8,3.1,5.8c2.4,6.3,5.8,12.2,7.2,18.8c-0.6,6.3-3.1,11.8-7.6,16.3
		c-6.4,6.4-12.7,12.9-19.3,19.2c-6.2,6-15.5,5.2-20.7-1.7c-25.4-34.1-50.8-68.2-76.3-102.3C265,213.7,263.4,212.3,264.6,210.1z"/>
	<path class="st0" d="M264.6,210.1c1.7,5.2,5.7,8.9,8.8,13.1c21.6,29.2,43.3,58.4,65.2,87.4c3.2,4.3,5.6,9.7,12,11.1
		c4.3,0.9,8,0.4,11.1-2.6c7.3-7,14.4-14.2,21.5-21.5c3.6-3.7,4.7-8.8,6.2-13.6c2.2,0.9,2.4,1.2,2.4,4.5c3.6,8.7,6.9,17.6,10.7,26.2
		c5.5,12.4,3.4,24.8-6.2,34.5c-5.3,5.4-10.7,10.8-16.1,16.1c-7.4,7.3-15.9,6.9-22.2-1.5c-25.3-33.8-50.5-67.7-75.8-101.6
		c-10.2-13.6-20.3-27.3-30.4-40.9C255.7,217.2,260.2,213.8,264.6,210.1z"/>
	<path class="st0" d="M47,31.7c7.5,6.7,15.9,12.3,23.9,18.4c30.2,22.7,60.5,45.3,90.8,68c11.9,8.9,23.7,17.8,35.6,26.8
		c1,0.7,2,1.3,3.3,1.4c-3.6,4.4-7.2,8.8-11.3,12.8c-33.8-25.2-67.6-50.3-101.4-75.5C74.7,73.7,61.5,63.8,48.3,54
		C39.3,47.3,38.7,38.4,47,31.7z"/>
	<path class="st3" d="M99.8,265.4c-7.2,11.2-14.3,22.4-21.5,33.7c-21.3-16.1-42.6-32.2-64-48.2c-1.2-0.9-2.4-2.1-4.1-2.2
		c5.7-6.9,12.2-12.3,21.9-12c4.1,0.1,7.7,1.8,11.4,3.4c18.3,8.3,36.6,16.6,54.8,24.9C98.7,265.2,99.2,265.2,99.8,265.4z"/>
	<path class="st0" d="M100.6,338.3c3.6-2.1,7.1-4.4,11-5.8c1.9-0.4,2.5,1.3,3.3,2.3c2.7,3.4,5.3,7,7.9,10.5
		c6.6,8.7,17.7,9.7,25.8,2.3c2.1-1.9,3.9-4,6-5.9c1-1,1.9-2.3,3.7-1.9c4.9,10.9,10.1,21.7,14.7,32.7c2.9,6.9,1.5,13.6-2.7,19.6
		c-3.1,4.4-7,8-10.9,11.6c-3.8,3.5-7.1,3.1-10.1-0.9c-9.8-13-19.5-26.1-29.3-39.2C113.4,355.2,107,346.8,100.6,338.3z"/>
	<path class="st3" d="M158.1,339.8c-4.4,3.2-7.4,8-12.1,11c-7.4,4.8-18.4,2.9-23.6-4.1c-3.6-4.8-7.2-9.4-10.9-14.2
		c6.6-4.1,13.3-8.2,19.8-12.4c4.7-3,9.3-6.1,13.9-9.1C149.6,320.6,153.9,330.2,158.1,339.8z"/>
	<path class="st4" d="M391.8,288.6c-1-1.4-1-3.4-2.4-4.5c-3.3-8.4-6.5-16.7-9.8-25.1c3.5-3.5,6.9-7,10.4-10.4
		c4.3-4.1,8.2-4.1,12.6,0.1c3,2.9,5.9,5.7,8.7,8.7c3.7,3.9,3.9,7.9,0.3,11.7C405.1,275.7,398.4,282.1,391.8,288.6z"/>
	<path class="st4" d="M156.6,33.4c-2.3,0.4-4.1-1-6-1.8c-7-2.8-14-5.7-20.9-8.7c-1.1-0.5-2.8-0.4-2.7-2.3c5.7-5.6,11.3-11.2,17-16.8
		c5.1-5.1,8.8-5,13.9,0.1c2.6,2.6,5.3,5.2,7.9,7.9c4,4.2,4,8.1,0,12.3C162.7,27.1,159.6,30.2,156.6,33.4z"/>
	<path class="st4" d="M215,57.4c-0.8,0-1.7,0.2-2.3-0.1c-9.3-3.9-18.6-7.9-28-11.9c5.2-5.2,10.3-10.4,15.5-15.6
		c4.8-4.7,8.5-4.6,13.4,0.1c2.6,2.5,5.1,5,7.6,7.6c4.6,4.7,4.6,8.5,0.1,13.2C219.3,53,217.1,55.2,215,57.4z"/>
	<path class="st4" d="M367,227.8c-2.3-2.3-2.9-5.6-4.1-8.4c-2.6-6-5-12-7.5-18c-0.5-1.3-1.5-2.6-0.4-4c1.9-1.8,3.8-3.7,5.7-5.5
		c3.6-3.2,7.2-3.4,10.7-0.3c3.7,3.2,7.2,6.7,10.4,10.4c3.2,3.6,2.9,7.6-0.7,11.3C376.6,218.3,371.8,223,367,227.8z"/>
	<path class="st5" d="M348.7,67.7c-5.7-7.2-13.2-10.8-22.2-11.9c-1-0.1-2.1-0.4-3.1-0.7c-3.7-0.9-4.9-3.5-4.4-6.9
		c0.5-3.5,3.1-5.2,6.2-4.9c11.3,1.2,21.8,4.7,29.8,13.3C354.4,61.2,352.5,64.9,348.7,67.7z"/>
	<path class="st3" d="M348.7,67.7c2.1-3.7,4.2-7.4,6.3-11.1c0.2,0,0.5,0.1,0.7,0.1c6.8,7.8,10.4,17,11.7,27.3
		c0.5,3.9-1.4,7.2-4.8,7.8c-4,0.7-6.9-1.4-7.6-5.7c-0.9-5.5-1.9-10.9-4.9-15.8c-0.4-0.7-1-1.2-1.4-1.8
		C348.7,68.2,348.7,68,348.7,67.7z"/>
</g>
</svg>
