<?xml version="1.0" encoding="utf-8"?>
<!-- Generator: Adobe Illustrator 23.0.0, SVG Export Plug-In . SVG Version: 6.00 Build 0)  -->
<svg version="1.1" id="Layer_1" xmlns="http://www.w3.org/2000/svg" xmlns:xlink="http://www.w3.org/1999/xlink" x="0px" y="0px"
	 width="410px" height="410px" viewBox="0 0 410 410" style="enable-background:new 0 0 410 410;" xml:space="preserve">
<style type="text/css">
	.st0{fill:#A31616;}
</style>
<g>
	<path class="st0" d="M254.4,0c1.6,0,3.2,0,4.8,0c5.1,0.5,8.5,3.5,11.7,7.4c8.1,10.1,16.4,20,24.3,30.2c2.5,3.2,5.6,4.6,9.4,5.2
		c13.5,2.1,27.1,4.2,40.6,6.4c9.1,1.5,13.6,5.9,15.1,15.1c2.2,13.5,4.5,27.1,6.4,40.6c0.6,4.2,2.5,7.3,5.9,9.9
		c10.5,8.1,20.6,16.8,31.2,25c5.4,4.2,6.7,9.6,6.1,15.9c-0.7,9-4.8,16.8-7.9,25.1c-2.4,6.6-4.9,13.3-7.5,19.8
		c-1.1,2.8-1.1,5.3-0.1,8.1c4.3,11.5,8.8,22.9,13.1,34.3c1.5,3.9,2.1,8,2.4,12.1c0.5,6-1.4,10.8-6.4,14.6
		c-10.4,8.1-20.4,16.7-30.8,24.8c-3.5,2.7-5.4,5.9-6,10.3c-2,13.4-4.2,26.8-6.4,40.3c-1.5,9.5-5.8,13.7-15.3,15.3
		c-13.4,2.2-26.8,4.3-40.3,6.4c-4.4,0.7-7.5,2.5-10.2,6.1c-8,10.5-16.7,20.4-24.8,30.8c-4.3,5.5-9.7,6.8-16.2,6.2
		c-9.1-0.8-17-5.1-25.4-8c-6.5-2.3-12.9-5-19.4-7.4c-2.6-1-5.1-1-7.7,0c-11.7,4.4-23.3,9.1-35.1,13.4c-3.9,1.4-8,1.9-12.1,2.2
		c-5.7,0.5-10.2-1.7-13.9-6.2c-8.3-10.4-16.8-20.7-25-31.1c-2.6-3.3-5.7-5.2-9.9-5.9c-13.6-2.1-27.1-4.2-40.6-6.4
		c-9.1-1.5-13.6-6-15-15.1c-2.1-13.8-4.5-27.6-6.5-41.4c-0.5-3.4-1.9-6-4.6-8.1c-10.2-8.1-20.3-16.5-30.5-24.6
		c-3.8-3-6.9-6.2-7.7-11.1c0-2.1,0-4.3,0-6.4c1.9-13.9,8.2-26.3,13.2-39.1c2.4-6.3,3.4-11.8,0.4-18.3c-3.8-8.3-6.6-17.1-10-25.6
		c-1.9-4.7-2.5-9.7-3.5-14.6c0-2.1,0-4.3,0-6.4c0.8-4.9,4-8.1,7.7-11.1c10.1-8.2,20.3-16.4,30.4-24.6c2.6-2.1,4.2-4.7,4.7-8
		c2-14,4.4-27.8,6.5-41.8c1.3-8.7,6.1-13.5,14.8-14.8c13.9-2.1,27.8-4.6,41.8-6.5c3.4-0.5,5.9-2,8-4.7c8.2-10.1,16.4-20.3,24.6-30.4
		c3-3.7,6.2-6.9,11.1-7.7c2.1,0,4.3,0,6.4,0c14.1,2,26.8,8.4,39.8,13.5c6.2,2.4,11.8,2.8,17.9,0c8.6-3.9,17.6-6.8,26.4-10.3
		C244.7,1.3,249.6,0.8,254.4,0z"/>
</g>
</svg>
