<?xml version="1.0" encoding="utf-8"?>
<!-- Generator: Adobe Illustrator 23.0.0, SVG Export Plug-In . SVG Version: 6.00 Build 0)  -->
<svg version="1.1" id="Layer_1" xmlns="http://www.w3.org/2000/svg" xmlns:xlink="http://www.w3.org/1999/xlink" x="0px" y="0px"
	 width="112.3px" height="124.6px" viewBox="0 0 112.3 124.6" style="enable-background:new 0 0 112.3 124.6;" xml:space="preserve"
	>
<style type="text/css">
	.st0{fill:#E9F5FE;}
	.st1{fill:#FECDBE;}
	.st2{fill:#EF7280;}
	.st3{fill:#EA5569;}
	.st4{fill:#FEAF9D;}
	.st5{fill:#87B3F4;}
	.st6{fill:#88B3F4;}
	.st7{fill:#6EA1F1;}
	.st8{fill:#6EA2F1;}
	.st9{fill:#88B4F4;}
	.st10{fill:#89B4F4;}
</style>
<g>
	<path class="st0" d="M76,0C78,0.4,80,0.6,81.9,1.2C88.4,3,93.8,6.5,98.1,11.7c3.6,4.3,5.9,9.3,6.8,14.8c1.5,9.4-0.6,17.9-6.7,25.4
		c-4.8,6-11,9.8-18.6,11.2c-9.7,1.9-18.5-0.4-26.2-6.6c-5.7-4.6-9.4-10.5-11-17.7c-1.4-6.6-1-13.1,1.7-19.3
		C48.7,9.1,56.8,2.8,68,0.5c1-0.2,2,0,2.9-0.5C72.6,0,74.3,0,76,0z"/>
	<path class="st1" d="M110.9,65.2c1.9,1.5,1.8,4.9,0.2,6.5c-1.8,1.7-3.8,3.1-5.7,4.6c-5.8,4.6-11.7,9.2-17.6,13.8
		c-3.3,2.6-6.6,5.2-10,7.7c-1.9,1.4-4.1,2.1-6.4,2.1c-8.5,0.1-17,0-25.5,0c-0.5-0.2-0.9-0.6-1.3-1c-3.6-3.6-7.2-7.2-10.7-10.7
		c-0.4-0.4-0.8-0.9-1.2-1.4c-0.4-0.7-0.5-1.4-0.1-2.1C36.4,78.1,41.4,72.6,49,70c0.7-0.2,1.3-0.2,2-0.4c3.4,0.4,6.5,1.9,9.7,3.1
		c0.8,0.3,1.7,0.5,2.6,0.5c3.4,0,6.8,0,10.2,0c2.7,0,4.4,1.5,5,4.2c-1,0.6-1.7,1.4-2.3,2.4c-0.8,1.3-2.2,1.6-3.7,1.6
		c-6.7,0-13.5,0-20.2,0c-0.4,0-0.9,0-1.3,0c-0.8,0.1-1.3,0.5-1.4,1.3c0,0.9,0.5,1.3,1.3,1.5c0.5,0.1,1,0.1,1.6,0.1
		c6.9,0,13.8,0,20.7,0c2.6,0,5-0.6,7.3-2c9.4-5.5,19-10.9,28.4-16.4C109.3,65.6,109.9,64.9,110.9,65.2z"/>
	<path class="st2" d="M40.5,112.2c0.2,0.2,0.3,0.4,0.5,0.6c1.9,2,1.9,2.3-0.1,4.3c-1.5,1.5-3,2.9-4.5,4.4c-0.6,0.2-0.8-0.3-1.1-0.6
		c-8.9-8.9-17.8-17.8-26.7-26.7c-1.4-1.4-1.4-2.4,0-3.7c1.7-1.6,3.2-3.4,5.1-4.9c0.6,0,0.9,0.4,1.2,0.7c8.3,8.3,16.6,16.5,24.8,24.8
		C40.1,111.5,40.4,111.8,40.5,112.2z"/>
	<path class="st3" d="M13.8,85.6c-1.6,1.9-3.4,3.5-5.1,5.2c-1.1,1.1-1.1,1.9,0,3c9,9.1,18.1,18.1,27.1,27.1c0.2,0.2,0.4,0.3,0.6,0.4
		c-0.7,1-1.7,1.8-2.6,2.7c-0.7,0.7-1.5,0.6-2.3,0c-0.3-0.2-0.5-0.4-0.7-0.7C21,113.8,11.3,104,1.5,94.3c-1.6-1.6-1.6-2.2,0-3.8
		C3.8,88.2,6,86,8.2,83.7c1.5-1.5,2.2-1.5,3.7,0c0.3,0.3,0.5,0.5,0.8,0.7C13.3,84.7,13.8,84.9,13.8,85.6z"/>
	<path class="st0" d="M13.8,85.6c-0.3-0.4-0.7-0.8-1-1.2c1.2-1.2,2.4-2.3,3.6-3.5c1.2-1.2,2-1.2,3.2,0c1.7,1.7,3.4,3.3,5.1,5
		c0.5,0.2,0.8,0.5,1.2,0.9c4,4,8.1,8.1,12.1,12.1c0.3,0.3,0.8,0.6,0.8,1.2c1.7,1.7,3.4,3.5,5.1,5.2c1.4,1.4,1.4,2.1,0,3.4
		c-1.2,1.2-2.3,2.4-3.4,3.6c-0.3-0.3-0.7-0.6-1-0.9c-8.3-8.3-16.5-16.5-24.8-24.8C14.4,86.2,14.1,85.9,13.8,85.6z"/>
	<path class="st4" d="M110.9,65.2c-2.7,1.3-5.3,3-7.9,4.5c-5.1,2.9-10.1,5.9-15.2,8.8c-2.9,1.7-5.8,3.4-8.8,5
		c-1.6,0.9-3.4,1.3-5.2,1.2c-7.3,0-14.7,0-22,0c-0.2,0-0.5,0-0.7,0c-1.2-0.1-2-0.9-2-2c0-1,0.8-1.6,2-1.6c7.1,0,14.3,0,21.4,0
		c1.9,0,3.2-0.6,3.9-2.4c0.4-0.9,1.1-1.2,2-1.2c0,0.6,0.1,1.2,0.1,2c2.3-1.3,4.5-2.6,6.7-3.8c6.5-3.8,13-7.5,19.5-11.3
		C107,63,109.4,63.4,110.9,65.2z"/>
	<path class="st4" d="M38.8,100.1c-3-3-6.1-5.9-9-8.9c-1.7-1.7-3.5-3.3-5.1-5.2c1.8-3.1,3.7-6,6.2-8.6C36,72,42,68.8,49.5,69.4
		c0.5,0,1,0.2,1.4,0.2c-2.9,0.9-5.7,2-8.2,3.8c-4.2,3-7.3,7-10,11.4c-0.7,1.2,0,2.1,0.8,2.9c3.8,3.8,7.6,7.6,11.3,11.3
		c0.3,0.3,0.6,0.7,0.9,1C43.5,100,41.1,100,38.8,100.1z"/>
	<path class="st5" d="M96.2,33.8c1.5,0,3,0,4.5,0c0.7,0,0.9,0.2,0.9,0.9c-0.7,5.6-2.7,10.6-6.2,15c-0.5,0.6-0.9,0.6-1.5,0.1
		c-1.2-1.1-2.6-2.1-4-2.9c-0.7-0.4-0.8-0.8-0.6-1.5c0.9-3.4,1.4-6.9,1.5-10.4c0-0.9,0.3-1.2,1.2-1.2C93.3,33.8,94.8,33.8,96.2,33.8z
		"/>
	<path class="st5" d="M96.2,30c-1.5,0-2.9,0-4.4,0c-0.8,0-1.2-0.3-1.2-1.1c0-3.1-0.5-6.2-1.2-9.2c-0.1-0.6,0-0.9,0.5-1.2
		c1.7-1,3.4-2.3,4.9-3.6c0.5-0.5,0.8-0.3,1.1,0.1c2.9,3.8,4.7,8.1,5.3,12.8c0.3,2.2,0.2,2.2-2,2.2C98.3,30,97.2,30,96.2,30z"/>
	<path class="st6" d="M81.2,33.8c1.6,0,3.2,0,4.7,0c0.8,0,1.1,0.2,1.1,1c-0.1,3.1-0.7,6.2-1.3,9.2c-0.1,0.6-0.5,0.6-1,0.4
		c-2.8-1.1-5.6-1.7-8.6-1.9c-0.6,0-0.8-0.3-0.8-0.9c0-2.4,0-4.7,0-7.1c0-0.7,0.3-0.8,0.9-0.8C77.9,33.8,79.5,33.8,81.2,33.8z"/>
	<path class="st5" d="M65.9,33.8c1.6,0,3.2,0,4.9,0c0.7,0,0.9,0.2,0.9,0.9c0,2.3,0,4.7,0,7c0,0.6-0.2,0.8-0.9,0.9
		c-2.9,0.1-5.7,0.8-8.5,1.9c-0.7,0.2-0.9,0.1-1.1-0.6C60.6,41,60.3,38,60,35c-0.1-0.9,0.1-1.3,1.2-1.3
		C62.7,33.9,64.3,33.8,65.9,33.8z"/>
	<path class="st6" d="M75.3,11.5c0-2.1,0-4.2,0-6.3c0-1.2,0.1-1.3,1.2-0.7c2.7,1.3,4.3,3.6,5.7,6.1c1,1.7,1.7,3.5,2.3,5.3
		c0.2,0.7,0.2,1-0.5,1.3c-2.5,1-5.2,1.6-7.9,2c-0.7,0.1-0.9-0.1-0.9-0.9C75.3,16.1,75.3,13.8,75.3,11.5z"/>
	<path class="st5" d="M71.7,11.7c0,2.2,0,4.4,0,6.6c0,0.7-0.2,1.1-0.9,1c-2.7-0.4-5.3-1-7.8-2c-0.6-0.3-0.7-0.5-0.5-1.2
		c1.1-3.2,2.5-6.1,4.6-8.7c1-1.2,2.2-2.2,3.7-2.9c0.7-0.4,1-0.2,1,0.6C71.6,7.2,71.7,9.5,71.7,11.7z"/>
	<path class="st6" d="M81,30c-1.6,0-3.2,0-4.7,0c-0.7,0-1-0.2-1-1c0-1.7,0-3.4,0-5.1c0-0.6,0.2-1,0.9-1c3-0.2,5.9-0.9,8.7-2
		c0.8-0.3,1-0.2,1.2,0.7c0.4,2.3,0.7,4.7,0.9,7.1c0.1,1.1-0.3,1.4-1.4,1.3C84.1,29.9,82.6,30,81,30z"/>
	<path class="st5" d="M65.8,30c-1.6,0-3.2,0-4.7,0c-0.8,0-1.1-0.2-1-1c0.3-2.5,0.5-5.1,1-7.6c0.1-0.6,0.4-0.8,1-0.5
		c2.9,1.2,5.8,1.9,8.9,2c0.5,0,0.7,0.2,0.7,0.7c0,1.9,0,3.7,0,5.6c0,0.7-0.4,0.8-0.9,0.8C69.1,29.9,67.4,30,65.8,30z"/>
	<path class="st7" d="M55.6,47.9c-0.7,0.5-1.4,1.1-2.1,1.6c-1.2,0.9-1.2,0.9-2.1-0.3c-3.4-4.3-5.2-9.2-5.9-14.5
		c-0.1-0.5-0.1-1.1,0.6-1c1.6,0,3.3-0.2,4.9,0.1c0.3,0.4,0.5,0.8,0.5,1.3c0.4,4.1,1.7,8,3.7,11.6C55.5,47.1,55.8,47.4,55.6,47.9z"/>
	<path class="st6" d="M75.3,53.1c0-1.9,0-3.9,0-5.8c0-0.7,0.1-1.1,0.9-1c2.6,0.3,5.1,0.9,7.5,1.8c0.4,0.1,0.6,0.3,0.5,0.8
		c-1.6,4.1-3.5,8-7.6,10.3c-1.2,0.7-1.3,0.6-1.3-0.8C75.3,56.6,75.3,54.8,75.3,53.1z"/>
	<path class="st7" d="M51,30c-1.6,0.4-3.3,0.1-4.9,0.2c-0.6,0-0.7-0.4-0.6-0.9C46,24,47.8,19.2,51,15c0.4-0.6,0.8-0.7,1.3-0.1
		c0.8,0.8,1.7,1.5,2.6,2.2c0.2,0.6-0.2,1-0.4,1.5c-1.6,3.2-2.7,6.6-3,10.1C51.5,29.1,51.3,29.6,51,30z"/>
	<path class="st6" d="M71.7,53.1c0,1.9,0,3.8,0,5.7c0,0.9-0.3,1-1,0.6c-2.6-1.2-4.2-3.3-5.6-5.7c-0.8-1.4-1.5-2.9-2.1-4.4
		c-0.3-0.7-0.3-1,0.5-1.3c2.4-0.9,4.8-1.4,7.3-1.7c0.7-0.1,0.9,0.1,0.9,0.9C71.6,49.1,71.7,51.1,71.7,53.1z"/>
	<path class="st5" d="M55.6,47.9c-2.7-4.3-4.2-9.1-4.6-14.1c1.5,0,2.9,0,4.4,0c0.7,0,1,0.2,1,1c0,3.6,0.6,7.2,1.5,10.7
		c0.2,0.8,0,1.1-0.6,1.4C56.6,47.2,56.1,47.6,55.6,47.9z"/>
	<path class="st5" d="M51,30c0.4-4.6,1.6-8.9,3.9-12.9c2.1,0.9,3.1,2.2,2.3,4.8c-0.7,2.3-0.9,4.8-0.8,7.3c0,0.7-0.3,0.9-1,0.9
		C53.9,29.9,52.4,30,51,30z"/>
	<path class="st6" d="M83.4,5.6c2.7,1,4.8,2.2,6.8,3.7c0.7,0.5,1.4,1.2,2.1,1.8c0.5,0.4,0.4,0.6,0,0.9c-1.1,1-2.3,1.9-3.5,2.7
		c-0.4,0.3-0.6,0.3-0.8-0.2C87,11.4,85.6,8.5,83.4,5.6z"/>
	<path class="st8" d="M57.1,13.9c-1-0.5-1.7-1.2-2.5-1.9c-0.3-0.3-0.4-0.5,0-0.9c2.4-2.3,5.2-4,8.2-5.3c0.1-0.1,0.3,0,0.6,0
		c-0.9,1.4-1.8,2.8-2.6,4.1c-1.1,1-1.9,2.1-2.9,3.2C57.6,13.5,57.5,13.8,57.1,13.9z"/>
	<path class="st9" d="M83.7,58c1.6-2.2,2.8-4.6,3.8-7.2c0.2-0.5,0.4-0.8,1-0.3c0.9,0.7,1.8,1.3,2.8,2c0.6,0.4,0.7,0.7,0.1,1.2
		C89.1,55.5,86.6,57,83.7,58z"/>
	<path class="st8" d="M60.9,54c0.8,1.3,1.6,2.6,2.7,4.2c-3.2-1.3-5.7-2.8-8.1-4.7c-0.5-0.4-0.4-0.7,0.1-1c0.7-0.5,1.3-1,1.9-1.4
		c0.7-0.3,1,0.3,1.4,0.7C59.6,52.5,60.2,53.3,60.9,54z"/>
	<path class="st9" d="M57.1,13.9c0.8-1.2,1.7-2.2,2.7-3.3c0.3-0.3,0.5-0.6,1-0.6c-0.6,1.5-1.2,3-1.8,4.5c-0.2,0.4-0.3,0.6-0.8,0.3
		C57.8,14.4,57.3,14.3,57.1,13.9z"/>
	<path class="st10" d="M60.9,54C60,53.7,59.5,53,59,52.3c-0.4-0.5-0.7-1.1-1.4-1.2c1.6-1.1,1.6-1.1,2.4,0.6
		C60.2,52.5,60.6,53.3,60.9,54z"/>
</g>
</svg>
