<?xml version="1.0" encoding="utf-8"?>
<!-- Generator: Adobe Illustrator 23.0.0, SVG Export Plug-In . SVG Version: 6.00 Build 0)  -->
<svg version="1.1" id="Layer_1" xmlns="http://www.w3.org/2000/svg" xmlns:xlink="http://www.w3.org/1999/xlink" x="0px" y="0px"
	 width="119.9px" height="117.7px" viewBox="0 0 119.9 117.7" style="enable-background:new 0 0 119.9 117.7;" xml:space="preserve"
	>
<style type="text/css">
	.st0{fill:#FEC35C;}
	.st1{fill:#FEB33F;}
	.st2{fill:#E30C5B;}
	.st3{fill:#354E5B;}
	.st4{fill:#2A3F4A;}
</style>
<g>
	<path class="st0" d="M21.4,79.1c0-21.3,17.3-38.6,38.6-38.5c22.2,0.1,38.6,18.2,38.5,38.7c-0.1,21.3-17.3,38.5-38.7,38.5
		C38.6,117.7,21.4,100.4,21.4,79.1z"/>
	<path class="st1" d="M36.7,39.1c-0.2,2-1.2,3.6-3.2,4.4c-1.8,0.7-3.7,1.3-5.6,1.9c-0.8,0.2-1.2,0.7-1.5,1.4
		c-0.6,1.8-1.2,3.6-1.8,5.4c-1.4,4-5.9,4.7-8.6,1.5c-1.2-1.5-2.4-3.1-3.5-4.6c-0.4-0.6-0.9-0.9-1.7-0.9c-2,0-4-0.1-6.1-0.2
		c-3.9-0.2-6-4.2-3.9-7.5c1.1-1.7,2.3-3.3,3.5-5c0.5-0.6,0.5-1.2,0.3-1.9C4,31.9,3.5,30.1,3,28.4c-0.6-2-0.4-3.8,1.1-5.2
		c1.5-1.5,3.3-1.8,5.2-1.1c1.8,0.6,3.5,1.1,5.3,1.7c0.7,0.2,1.3,0.2,1.9-0.3c1.5-1.1,3-2.1,4.5-3.2c1.6-1.2,3.4-1.5,5.2-0.6
		c1.9,0.9,2.8,2.5,2.8,4.6c0,1.9,0.1,3.8,0.1,5.7c0,0.8,0.2,1.3,0.9,1.7c1.5,1.1,3,2.2,4.4,3.3C35.8,35.9,36.6,37.2,36.7,39.1z"/>
	<path class="st1" d="M100.3,55.7c-2.4,0-4.2-1.3-5-3.3c-0.6-1.7-1.3-3.5-1.8-5.2c-0.3-1-0.8-1.5-1.7-1.8c-1.8-0.5-3.5-1.1-5.2-1.8
		c-3.7-1.4-4.6-5.8-1.6-8.4c1.5-1.3,3.2-2.5,4.8-3.7c0.6-0.4,0.9-0.9,0.9-1.7c0-2,0.1-4,0.1-5.9c0.2-4,4.3-6.1,7.6-3.9
		c1.6,1,3.1,2.1,4.6,3.3c0.8,0.6,1.5,0.7,2.4,0.4c1.7-0.6,3.4-1.1,5.2-1.6c1.9-0.6,3.7-0.2,5.1,1.2c1.4,1.4,1.8,3.1,1.2,5
		c-0.6,1.8-1.1,3.6-1.7,5.4c-0.3,0.8-0.1,1.4,0.4,2.1c1.1,1.5,2.1,3,3.2,4.5c1.2,1.7,1.4,3.4,0.4,5.2c-0.9,1.7-2.4,2.6-4.4,2.6
		c-1.9,0-3.9,0.1-5.8,0.1c-0.7,0-1.2,0.2-1.6,0.8c-1.1,1.5-2.2,3-3.3,4.5C103.1,54.9,101.7,55.7,100.3,55.7z"/>
	<path class="st1" d="M73.2,29.9c0.1,4.4-3.5,6.8-6.9,5.2c-1.8-0.8-3.6-1.7-5.3-2.6c-0.7-0.4-1.3-0.4-2.1,0
		c-1.6,0.8-3.2,1.6-4.8,2.4c-4.1,1.9-7.7-0.7-7.3-5.1c0.2-1.7,0.4-3.4,0.7-5.1c0.2-1,0-1.9-0.8-2.6c-1.3-1.2-2.5-2.5-3.7-3.8
		c-1.4-1.4-1.9-3.1-1.3-5c0.6-1.9,1.9-3,3.9-3.4c1.9-0.3,3.8-0.7,5.7-1c0.8-0.1,1.3-0.5,1.7-1.2c0.8-1.7,1.8-3.4,2.6-5
		C56.4,1,57.9,0,59.9,0c2,0,3.5,1,4.5,2.8c0.9,1.6,1.8,3.3,2.6,4.9c0.4,0.8,1,1.2,1.9,1.3c1.9,0.3,3.8,0.6,5.7,1
		c3.9,0.9,5.2,5.2,2.6,8.1c-1.3,1.4-2.6,2.8-3.9,4.1c-0.8,0.7-0.9,1.5-0.7,2.4C72.7,26.6,73,28.6,73.2,29.9z"/>
	<path class="st2" d="M72.6,100.9c-2.8,2.2-6.1,3.4-9.6,3.8c-5.4,0.7-10.4-0.3-15-3.3c-0.3-0.2-0.5-0.4-0.7-0.6
		c-1.1-1.1-0.5-2.3,0.1-3.3c1.3-2.4,3.3-4.2,5.7-5.4c6-3,13.4-1.7,17.9,3.2c0.9,1,1.6,2,2,3.3C73.3,99.5,73.3,100.2,72.6,100.9z"/>
	<path class="st3" d="M72.6,100.9c0.6-1.2,0.2-2.2-0.4-3.3c-2.9-5.1-8.7-7.2-13.8-6.6c-4.5,0.5-8.2,2.6-10.6,6.6
		c-0.6,1-1,2.1-0.4,3.3c-3.6-2.5-6.2-5.7-7.8-9.7c0.3-1.9,1.9-2.7,3.4-3.4c0.8-0.4,1.7-0.4,2.7-0.4c9.7,0,19.4,0,29,0
		c2.9,0,5,1.4,5.9,3.7C78.8,95.1,76.2,98.4,72.6,100.9z"/>
	<path class="st4" d="M80.5,91.1c-1.1-1.1-1.9-2.5-3.5-2.9c-0.8-0.2-1.6-0.4-2.4-0.4c-9.4,0-18.8,0.1-28.2,0c-3,0-5.4,0.8-7,3.4
		c-2-4.5,1.7-8.6,5.4-8.6c9.9,0,19.8-0.1,29.7-0.1C79.3,82.5,82.2,86.8,80.5,91.1z"/>
	<path class="st3" d="M47,64.3c3.8,0,7.2,2.7,7.6,5.9c0.1,0.4,0,0.9,0,1.3c0,0.5-0.3,0.8-0.8,0.8c-0.5,0.1-1-0.1-1.1-0.7
		c-0.5-2.1-2.1-2.8-4-3.2c-2.1-0.4-4.1-0.2-5.8,1.3c-0.5,0.4-0.9,1-1.1,1.7c-0.1,0.6-0.5,0.9-1.1,0.8c-0.6,0-0.9-0.4-0.9-1
		c-0.3-2.3,0.9-4,2.6-5.3C43.7,64.8,45.4,64.3,47,64.3z"/>
	<path class="st3" d="M72.7,68.4c-0.9,0-1.7,0.1-2.5,0.4c-1.3,0.5-2.5,1.2-2.8,2.7c-0.1,0.6-0.5,0.9-1.1,0.8
		c-0.6-0.1-0.8-0.4-0.9-0.9c-0.2-1.3,0.1-2.5,0.8-3.5c3-4.6,10-4.7,13.1-0.1c0.8,1.1,1.1,2.3,0.9,3.7c-0.1,0.5-0.3,0.9-0.9,0.9
		c-0.5,0-0.9-0.1-1-0.6C77.4,68.9,75.1,68.6,72.7,68.4z"/>
</g>
</svg>
