<?xml version="1.0" encoding="utf-8"?>
<!-- Generator: Adobe Illustrator 23.0.0, SVG Export Plug-In . SVG Version: 6.00 Build 0)  -->
<svg version="1.1" id="Layer_1" xmlns="http://www.w3.org/2000/svg" xmlns:xlink="http://www.w3.org/1999/xlink" x="0px" y="0px"
	 width="96.4px" height="94.1px" viewBox="0 0 96.4 94.1" style="enable-background:new 0 0 96.4 94.1;" xml:space="preserve">
<style type="text/css">
	.st0{fill:#F04E4E;}
	.st1{fill:#EE3431;}
	.st2{fill:#E1E1EA;}
	.st3{fill:#F4F4F6;}
	.st4{fill:#DF1F26;}
</style>
<path class="st0" d="M48.2,94.3c-11.7-0.2-22.1-4.2-31.1-11.7C-1.8,65.4-3.3,39.3,9,21.2C18.3,7.4,31.7,0.6,48.3,0
	c0.8,0,1.7,0.2,2.5,0.3c-0.9,2-1.4,4.2-1.3,6.4c0.1,1.3-0.1,2.5-0.9,3.6c-1.3,0.9-2.9,1.2-4.4,1.6c-17.4,1.7-30.8,16.8-31.4,34.1
	c-0.6,17.1,12.3,34.5,32.5,36.5c1.2,0.1,2.3,0.3,3.4,0.8c0.3,0.2,0.5,0.5,0.7,0.9C49.3,87.7,50.7,91.2,48.2,94.3L48.2,94.3z"/>
<path class="st1" d="M48.2,10.1c0-2.2,0.1-4.5,0-6.7c-0.1-2,0.6-3,2.7-3c14.3,0.6,25.6,7.1,34.6,17.9c0.6,0.7,1.2,1.5,1.8,2.2
	c3.2,5.9,6.2,11.9,7.2,18.7c2.4,15.8-2,29.5-12.8,41.2c-0.7,0.8-1.4,1.6-2,2.4c-3.6,1.9-6.5,4.7-10.2,6.5
	c-6.7,3.3-13.8,4.9-21.3,5.1c0.3-3.4-0.7-6.9,0.7-10.2c1.3-2.1,3.6-1.7,5.5-2c7.5-1.4,13.9-4.7,19.2-10.2c9.6-10,12.3-21.9,8.5-35
	c-3.7-12.7-12.5-20.6-25.2-24.1c-2-0.5-4-0.6-6-1.2C49.8,11.3,48.7,11.2,48.2,10.1z"/>
<path class="st2" d="M48.2,10.1c11.9,0.7,22.1,5,29.3,14.8c8.7,11.7,10.2,24.6,4.1,37.8C75.4,75.9,64.6,82.8,50.1,84
	c-0.4,0-0.9,0.1-1.3,0.1c-0.2-0.1-0.5-0.1-0.7-0.2c-1.3-0.9-1.4-2.3-1.4-3.7c0.1-2.8-0.4-5.7,0.4-8.4c0.1-0.4,0.3-0.7,0.5-1
	c1.9-1.2,3.7-2.5,4.8-4.5c0.9-1.7,2.5-2.3,4.3-2.3c2.1-0.1,4.3,0.1,6.4-0.1c2.3-0.2,2.8-1,1.4-2.8c-1.5-1.9-1.8-4-1.8-6.3
	c0-3.8,0.1-7.7,0-11.5c-0.2-6.4-2.9-11.3-9-14c-2.3-1-3.7-2.4-3.9-5c-0.1-1.1-0.1-2.5-1.7-2.6c-1.9-0.1-1.7,1.5-2,2.6
	c-0.3,1.3-0.2,2.9-2.3,2.5c-1.7-3.2-1.4-6.1,0.8-8c2.8-2.5,2.7-4.8-0.4-7.1c-0.4-0.3-0.6-0.6-0.8-1C45,9.9,46.7,10.4,48.2,10.1z"/>
<path class="st3" d="M48.2,71.3c0,4.2,0,8.4,0,12.6c-19.7,1-37.4-16.9-36.9-37.4c0.4-17.4,11.9-31.5,28.8-35.4
	c1.1-0.3,2.3-0.3,3.5-0.4c1.4,0.4,3.6-0.8,4.3,1.1c0.7,2.2,0.5,4.6,0,7c0,0.2-0.2,0.5-0.4,0.5c-5.2,0.7-2.7,4.8-3.2,7.5
	c0.2,1.7-1.1,2.1-2.2,2.7c-5.9,2.9-8.5,7.8-8.6,14.2c-0.1,3.3,0,6.6,0,9.9c0,2.8,0,5.5-2,7.8c-1.2,1.4-0.4,2.4,1.3,2.5
	c2.2,0.2,4.5,0.1,6.7,0.1c2,0,3.6,0.7,4.4,2.6C44.9,68.6,47.2,69.4,48.2,71.3z"/>
<path class="st1" d="M48.2,71.3c-2.8-0.3-4.9-1.7-5.6-4.5c-0.4-1.5-1.2-1.5-2.3-1.4c-2.9,0-5.8,0-8.7,0c-0.9,0-2.2,0.5-2.6-0.5
	c-0.4-1.1-0.7-2.7,0.6-3.6c2.8-1.9,2.6-4.6,2.5-7.4c-0.1-2.5,0.1-4.9,0-7.4c-0.7-9.6,3-16.3,12.2-19.7c1-1,0.6-2.2,0.5-3.3
	c-0.3-2.7,0.6-3.8,3.4-3.1c1.3,1.1,1.4,2.6,1.4,4.1c0.1,14.2,0.1,28.4,0,42.6c0,1.5,0,3-1.4,4L48.2,71.3z"/>
<path class="st4" d="M48.1,71.1c0-16.9,0-33.8,0-50.7c2.7-0.7,3.8,0.3,3.3,3c-0.4,2.4,0.5,3.6,2.9,4.6c6.2,2.5,9.4,7.5,9.7,14.1
	c0.2,4.5,0.1,9,0,13.4c-0.1,2,0.2,3.8,2,5c1.5,1,1.6,2.6,1.2,4c-0.5,1.5-2,0.6-3,0.7c-1.8,0.1-3.6,0.1-5.4,0c-2.6,0-5.1-0.6-6,3.2
	C52.5,70.3,50.3,71.4,48.1,71.1z"/>
</svg>
