<?xml version="1.0" encoding="utf-8"?>
<!-- Generator: Adobe Illustrator 23.0.0, SVG Export Plug-In . SVG Version: 6.00 Build 0)  -->
<svg version="1.1" id="Layer_1" xmlns="http://www.w3.org/2000/svg" xmlns:xlink="http://www.w3.org/1999/xlink" x="0px" y="0px"
	 width="178.6px" height="202.9px" viewBox="0 0 178.6 202.9" style="enable-background:new 0 0 178.6 202.9;" xml:space="preserve"
	>
<style type="text/css">
	.st0{fill-rule:evenodd;clip-rule:evenodd;fill:#E5845B;}
	.st1{fill-rule:evenodd;clip-rule:evenodd;fill:#7A9EEC;}
	.st2{fill:#808080;}
	.st3{fill-rule:evenodd;clip-rule:evenodd;fill:#FE9365;}
	.st4{fill-rule:evenodd;clip-rule:evenodd;fill:#D9DDE8;}
	.st5{fill-rule:evenodd;clip-rule:evenodd;fill:#C8CBD4;}
	.st6{fill-rule:evenodd;clip-rule:evenodd;fill:#C3C7D1;}
	.st7{fill-rule:evenodd;clip-rule:evenodd;fill:#FFFFFF;}
	.st8{fill:#B3B3B3;}
	.st9{fill-rule:evenodd;clip-rule:evenodd;fill:#2D2B4B;}
	.st10{fill-rule:evenodd;clip-rule:evenodd;fill:#37355C;}
	.st11{fill-rule:evenodd;clip-rule:evenodd;fill:#CE7752;}
	.st12{fill-rule:evenodd;clip-rule:evenodd;}
	.st13{fill:#37355C;}
	.st14{fill:#FFFFFF;}
	.st15{fill-rule:evenodd;clip-rule:evenodd;fill:#E6E6E6;}
	.st16{fill-rule:evenodd;clip-rule:evenodd;fill:#CCCCCC;}
	.st17{fill:#28597E;}
	.st18{font-family:'LuckiestGuy-Regular';}
	.st19{font-size:9.5087px;}
</style>
<g>
	<path class="st0" d="M144.4,63.5c0,0-3.7-6.5-4.6-10c-0.9-3.6-0.6-4.9-1-4.9c-0.3,0-3.5,0-4,3.5c-0.5,3.5,2.2,8.8,3.7,10.3
		C140.1,63.8,144.4,63.5,144.4,63.5L144.4,63.5z"/>
	<path class="st0" d="M41.2,71.6c0,0,3.6-6.3,4.5-9.8c0.8-3.5,0.6-4.8,0.9-4.8c0.3,0,3.4,0,3.9,3.4c0.5,3.4-2.1,8.6-3.6,10.1
		C45.4,71.9,41.2,71.6,41.2,71.6L41.2,71.6z"/>
	<path class="st1" d="M59.3,280.6c0,0,0-67.4,2.7-70.3c2.7-2.9,77.1-2.7,77.1-2.7l7.4,74.2l-38.4-0.1c0,0-4.3-42-5.1-43.2
		c-0.8-1.2-2.7-2.7-2.7-2.7l-2.2,45.8L59.3,280.6z"/>
	<path class="st2" d="M98.7,217.2c0,0.1,0.4,16.2,2.2,18.1c1.1,1.2,2.3,1.9,3.1,2.2l-0.7-16.5l1.3-0.1l0.8,18.4l-0.9-0.3
		c0,0-2.6-0.7-4.6-2.9c-2.1-2.2-2.5-18.9-2.5-18.9L98.7,217.2z M61.7,240.4c0,0,7.7-0.5,10.6-7.7c3-7.4,2.4-14.7,2.4-14.7l1.3-0.1
		c0,0,0.6,7.6-2.5,15.3c-3.2,8-11.7,8.5-11.7,8.5L61.7,240.4z M129.4,217.4c0,0,0.6,11.1,3.2,15.9c2.5,4.6,8.3,5.1,8.3,5.1l-0.1,1.3
		c0,0-6.5-0.6-9.3-5.8c-2.7-5-3.3-16.4-3.3-16.4L129.4,217.4z"/>
	<path class="st3" d="M29.3,91.9c0,0,9-18.1,12.4-20.8c3.4-2.7,13.9-5.3,17.1-4.3c3.2,1,1.4,6.6,1.4,6.6s1.6,1.7,1.2,3.7
		c-0.4,1.9-1.1,2.6-1.1,2.6s1.3,1.1,0.7,3c-0.6,1.9-1.1,2.2-1.1,2.2s1.6,2.8-0.5,4.2c-2.1,1.4-10.1,0.7-12.9,1.9
		c-2.9,1.2-5.3,5.9-5.3,5.9S33.8,96.9,29.3,91.9L29.3,91.9z"/>
	<path class="st4" d="M36.7,103.2c0,0,14.6-7.1,19.4-10.1c4.8-2.9,18.4-6.5,21-7.1c2.5-0.6,25.9-6.6,30.4-5.4
		C112,81.8,147,92,153.3,96.5c6.3,4.5,13.9,34.1,12.9,40.7c-1,6.7-26.8-6.1-27-3.9c-0.2,2.2,0,47.6,0.8,54.8
		c0.8,7.2,3.5,13.7,2.9,17.4c-0.6,3.7-14.7,14.7-37.2,13.5c-22.5-1.2-18.2-2.9-31.3-2.7c-13.1,0.2-17.6,1-19-4.5
		c-1.4-5.5,1.8-23.9,3.7-36.8c2-12.9-1.6-34.8-1.6-34.8s-27.6,13.3-35.4,12.5C14.3,151.9,22.1,117.9,36.7,103.2L36.7,103.2z"/>
	<path class="st5" d="M149,135.9c-5.3-1.8-9.8-3.4-9.8-2.5l-2.5-34.1c0,0,3.9,9.2,5.6,16.8c1.7,7.5,2.4,14.4,4.7,16.9
		C147.7,133.6,148.4,134.7,149,135.9L149,135.9z"/>
	<path class="st6" d="M40.3,147.7c-7.2,2.9-14.7,5.4-18.3,5c-4.6-0.5-3.8-12.3,0.5-25c8.7-10,17.2-19.3,17.2-19.3s2.5,2.1,3.9,14.9
		C44.7,131.9,42.4,141.6,40.3,147.7L40.3,147.7z"/>
	<path class="st3" d="M81.2,78.5c0,0-1.7,5.4,0.3,9c2,3.5,6.7,6.8,12,5.9c2.4-0.4,6.5-1.6,8.4-4.7c2.5-3.8,3.3-9.1,2.1-11.4
		c-0.3-0.6-0.9-7.9-1.7-8.3C97.8,66.2,86.4,73.3,81.2,78.5L81.2,78.5z"/>
	<path class="st0" d="M79.4,75.8c0,0,0.7,4.1,1.2,8.6c2.6,0.4,9.6,1.7,14.9-0.1c11-3.8,7.4-12.8,6.1-21.5L79.4,75.8z"/>
	<path class="st7" d="M109.9,81.5c0,0-6.1-6.2-5.9-4.6c0.4,2.8,0.9,12.2-9.7,16.1c0,0,2.4,1.5,3.3,4.7c0.9,3.3,0.9,3.6,0.9,3.6
		S110.1,98.6,109.9,81.5L109.9,81.5z"/>
	<path class="st7" d="M80.3,82.1c0.2,2,0.5,5.7,3.1,8.1c2.6,2.4,5.5,3,5.5,3s-2.6,2.9-3.4,5.6c-0.8,2.7-0.7,2.9-0.7,2.9
		s-5.9-2.1-8.4-9.9C74.2,85.6,80.1,80.6,80.3,82.1L80.3,82.1z"/>
	<path class="st3" d="M156.6,84.3c0,0-9.2-18.5-12.7-21.3c-3.5-2.8-14.2-5.4-17.5-4.4c-3.2,1-1.4,6.8-1.4,6.8s-1.7,1.8-1.2,3.8
		c0.4,2,1.1,2.7,1.1,2.7s-1.3,1.1-0.7,3c0.6,1.9,1.1,2.2,1.1,2.2s-1.6,2.9,0.5,4.3c2.2,1.4,10.3,0.7,13.2,1.9c2.9,1.2,5.4,6,5.4,6
		S152,89.4,156.6,84.3L156.6,84.3z"/>
	<path class="st4" d="M24.8,98.9c0,0,3.4-8.2,4.8-8.2c1.4,0,10.4,5.6,12,5.6c1.6,0-2.4,7.7-1.8,8.6c0.5,0.9,3.1,11.9,0.3,20.2
		c-2.8,8.3-11.3,28.6-18.9,29.1c-7.6,0.6-14.2-3.1-15.6-17.5c-1.4-14.4,10.3-29.3,13.3-32.9C21.7,100.2,24.8,98.9,24.8,98.9
		L24.8,98.9z"/>
	<path class="st4" d="M159.7,89.5c0,0-3.3-7.5-4.7-7.5c-1.4,0-10.2,5.2-11.7,5.1c-1.5,0,2.3,7.1,1.8,7.9c-0.5,0.8-3.1,10.9-0.3,18.6
		c2.7,7.6,11,26.3,18.5,26.8c7.5,0.5,13.9-2.9,15.2-16.1c1.4-13.2-10.1-26.9-13-30.2C162.7,90.7,159.7,89.5,159.7,89.5L159.7,89.5z"
		/>
	<path class="st8" d="M56.4,104c0,0-0.9,12.9,0,20.6c0.9,7.7,1.9,13.7,1.9,13.8l-1.3,0.2c0,0-0.9-6.1-1.9-13.8
		c-0.9-7.7,0-20.8,0-20.8L56.4,104z"/>
	<path class="st8" d="M25.8,150.6c0,0,11-16.3,13.2-27.3c2.2-10.9,0.3-14.7,0.3-14.7l1.2-0.6c0,0,2.1,4.2-0.2,15.5
		c-2.2,11.2-13.4,27.7-13.4,27.8L25.8,150.6z"/>
	<path class="st8" d="M137.3,99.1c0,0.1,2,26.7,2,29.5H138c0-2.8-2-29.3-2-29.4L137.3,99.1z"/>
	<path class="st8" d="M144.3,98.4c-1,5.4,0,11.3,2.1,17.1c2.8,7.7,7.3,15.2,11.5,20.8l-1.1,0.8c-4.2-5.7-8.9-13.3-11.7-21.2
		c-2.1-6-3.2-12.2-2.1-17.8L144.3,98.4z"/>
	<path class="st8" d="M160.5,88.5c0,0-3.7,3.6-8.6,4.9c-4.8,1.3-6.5,1-6.5,1l0.2-1.3c0,0,1.4,0.2,6-1c4.5-1.2,8-4.6,8-4.6
		L160.5,88.5z"/>
	<path class="st8" d="M23.2,98.2c0,0,3.5,3.4,8,4.6c4.6,1.2,6,1,6,1l0.2,1.3c0,0-1.7,0.3-6.5-1c-4.9-1.3-8.6-4.9-8.6-4.9L23.2,98.2z
		"/>
	<path class="st9" d="M65.1,28.4c0,0-3.8,5.8-2,12.5c1.8,6.7,4.3,11.6,6.5,10.8c2.3-0.9,3.3-10.9,3.3-11.4c0-0.6-3.2-6.9-3.2-6.9
		L65.1,28.4z"/>
	<path class="st3" d="M69.3,41.6c0,0-2.1,9.8-1.1,11.5c1,1.8,2.1,2.1,1.7,4.1c-0.4,2-1,6.7,1.6,12.2c2.6,5.5,5.4,11.4,8.6,12.3
		c3.2,0.9,11.7-0.6,13-2c1.4-1.4,8.3-16.7,9.3-20.8c1-4.1-3.7-21.4-3.7-21.4s-3.4-4.4-4-4.5c-0.7-0.2-15.3-1.9-15.3-1.9L69.3,41.6z"
		/>
	<path class="st10" d="M83.4,40.9c7.4-0.5,10.5-4.2,10.5-4.2s-1,6.8,1.7,11c2.8,4.2,4.3,7.2,5.5,7.1c0.5-0.1-1.2,8-0.2,10.9
		c0.4,1.4,3.3,0.1,3.8-0.8c0.9-1.5,2.5-19,3-20c1.4-2.9,0.7-13.5-1.6-16.3c-2.3-2.8-6.4-1.1-7.6-1.9c-1.2-0.8-2.2-2.9-5.5-3.3
		c-1.2-0.1-3.2,1.3-5,1.4c-3.1,0.1-6.3-1.2-7.8-1c-2.5,0.3-4.9,2.4-7.1,2.8c-2.2,0.4-6.1,0-8.1,1.8c-0.8,0.7-1.8,4.8-1.3,7.3
		C65.4,45.2,74.2,41.5,83.4,40.9L83.4,40.9z"/>
	<path class="st0" d="M81.1,53.1c0,0-0.5,5.4-1,6.9c-0.5,1.4,0,2.2,0.5,2.6c0.6,0.4,2.3,0,2.4,0c0.1,0-1.3-1.4-1.2-2.1
		C81.9,59.8,81.8,54.1,81.1,53.1L81.1,53.1z"/>
	<path class="st11" d="M71,68.2c0,0,1.5,0.8,2.6,0.3c1.1-0.5,1.7-3.5,2.9-4c1.2-0.4,8.6-1.7,11.1-1.2c2.5,0.5,4.7,3.2,6.5,3.1
		c1.8-0.1,5.6-5,6.5-6.7c0.9-1.6,1.4-3.2,2-2.9c2.7,1,0.8,18.9-5.1,23.2c-1,0.7-2.1,1.3-3.4,1.9c-6.9,2.9-16.7,2.5-20.2-3.4
		C71.9,75.1,70.7,69.9,71,68.2L71,68.2z"/>
	<path class="st3" d="M75.9,69.6c0,0,1.1-2.6,1.9-3.1c0.8-0.5,7.3-1,8.8-0.7c1.5,0.3,4.1,3.7,4.3,4.7c0.2,1-1.7,3.5-2.8,3.8
		c-1.2,0.2-2.6-1.1-2.8-1.2c-0.2-0.1-3.1,0.4-3.1,0.4s-1.5,1.9-2.7,1.8C78.1,75.1,76.3,73.2,75.9,69.6L75.9,69.6z"/>
	<path class="st3" d="M97.6,56.8c0,0,1.9-5.7,4.6-5c2.8,0.8,2.8,6.7,2.1,8.8c-0.7,2.1-4.1,5.2-5.5,5C97.4,65.5,97.6,56.8,97.6,56.8
		L97.6,56.8z"/>
	<path class="st0" d="M93.5,53c0,0-2.2-2.2-5.9-1.9c-3.7,0.3-3.8,2.9-3.5,3.4c0.3,0.5,5.2-0.4,7.1,0.2C93,55.3,94.1,54.6,93.5,53
		L93.5,53z"/>
	<path class="st0" d="M77.9,54.1c0,0-1.5-2.1-4.2-1.6c-2.7,0.4-2.3,3.1-2.1,3.6c0.2,0.5,3.2-0.8,4.5-0.2
		C77.4,56.4,78.3,55.7,77.9,54.1L77.9,54.1z"/>
	<path class="st12" d="M73.7,54.5c0,0,0.3,1,0.4,1.5c0.1,0.5,0.1,2.2,1.2,2.2c1,0,1.7-1.7,1.3-3.1C76,53.8,73.7,54.5,73.7,54.5
		L73.7,54.5z"/>
	<path class="st12" d="M88,53.4c0,0,0.3,1,0.4,1.5c0.1,0.5,0.1,2.2,1.2,2.2c1,0,1.7-1.7,1.3-3.1C90.3,52.7,88,53.4,88,53.4L88,53.4z
		"/>
	<path class="st13" d="M77.5,48.1c0.6,0,1.1,0.5,1.1,1.1c0,0.6-0.4,1.1-1,1.1c-0.9,0-2.2,0-3.4,0.3c-0.9,0.2-1.9,0.5-2.6,0.9
		c-0.5,0.3-1.1,0.1-1.5-0.4c-0.3-0.5-0.2-1.2,0.3-1.5c1-0.6,2.1-0.9,3.2-1.2C75.1,48.2,76.5,48.1,77.5,48.1L77.5,48.1z"/>
	<path class="st13" d="M92.1,47.5c0.7,0.2,1.1,0.8,1,1.4c-0.1,0.6-0.7,1-1.3,0.8c-1.1-0.2-2.5-0.5-3.9-0.5c-1.1,0-2.2,0.1-3.1,0.3
		c-0.6,0.2-1.3-0.2-1.6-0.8c-0.3-0.6,0-1.2,0.7-1.4c1.2-0.3,2.5-0.4,3.8-0.4C89.2,47,90.9,47.2,92.1,47.5L92.1,47.5z"/>
	<path class="st7" d="M88.1,67.7c-0.6-0.2-2.1,0.1-5.3,0.4c-3.2,0.3-4.1-0.2-4.6,0.1c-0.2,0.1,1.6,2.9,3.5,3.3
		C85.9,72.4,89,67.7,88.1,67.7L88.1,67.7z"/>
	<path class="st14" d="M91.9,62.1c0,0,0.1-0.2,0.3-0.5c0.9-1.3,4.5-7.5,7.3-9.4c1-0.6,1.5,0.3,0.6,0.9c-2.5,1.7-6,7.7-6.8,9
		c-0.2,0.4-0.4,0.6-0.5,0.7L91.9,62.1z"/>
	<path class="st7" d="M69,62.3c3.6-1.5,6.4-3.4,11-4c4.4-0.5,8.8,1.3,14.5,1.8c0.1,1.2,0.3,2.4,0.6,4.7c0.3,2.3,2.2,5.3,2.9,6.3
		C93.6,84.3,69.8,92.2,68,62.5L69,62.3z"/>
	<path class="st15" d="M69,63.6c0.4,8.8,4.1,18.6,15.7,16.9c3.9-0.6,9.5-3.9,11.2-9c-0.9-1.5-2.4-4.8-2.6-6.5
		c-0.2-1.3-0.6-2.1-0.7-3.4c-4.6-0.2-9.3-1.8-12.9-1.3C76,60.8,72.4,62.2,69,63.6L69,63.6z"/>
	<path class="st16" d="M72.2,71.3c0,0,5-0.1,9.9-0.5c4.8-0.5,9.5-1.3,9.9-1.1c0.2,0.1-4.6,1.4-9.8,1.8
		C78.1,71.8,73.6,71.4,72.2,71.3L72.2,71.3z M72.5,74.6c0,0,5,1.8,9.8,1.3c4.8-0.5,9.3-2.7,9.7-2.4c0.2,0.2-4.4,3-9.5,3.5
		c-2.1,0.2-4.8,0-6.6-0.6C74.1,75.7,73,75,72.5,74.6L72.5,74.6z M71.5,65.6c0,0,4.8-0.7,9.6-1.2c4.8-0.5,9.8-0.6,10.2-0.4
		C91.7,64.2,74.5,65.9,71.5,65.6L71.5,65.6z"/>
	<path class="st7" d="M99.6,65.2c0,0-2.6,6.3-3.7,7.5l0.9,0.7c1.3-1.3,3.9-7.8,3.9-7.9L99.6,65.2z"/>
</g>
<g>
	<path class="st17" d="M51.1,0.1L6,7.8c-3.9,0.7-6.6,4.4-5.9,8.4l3.3,19.3c0.7,3.9,4.4,6.6,8.4,5.9l20.6-3.5L54,46.8l-7.8-11.3
		l10.7-1.8c3.9-0.7,6.6-4.4,5.9-8.4L59.5,6C58.8,2.1,55.1-0.6,51.1,0.1z"/>
	<g>
		<text transform="matrix(0.985 -0.1727 0.1727 0.985 16.1223 22.454)"><tspan x="0" y="0" class="st14 st18 st19">SOCIAL</tspan><tspan x="-10.5" y="8.6" class="st14 st18 st19">DISTANCING</tspan></text>
	</g>
</g>
</svg>
