<?xml version="1.0" encoding="utf-8"?>
<!-- Generator: Adobe Illustrator 23.0.0, SVG Export Plug-In . SVG Version: 6.00 Build 0)  -->
<svg version="1.1" id="Layer_1" xmlns="http://www.w3.org/2000/svg" xmlns:xlink="http://www.w3.org/1999/xlink" x="0px" y="0px"
	 width="134.5px" height="202.9px" viewBox="0 0 134.5 202.9" style="enable-background:new 0 0 134.5 202.9;" xml:space="preserve"
	>
<style type="text/css">
	.st0{fill-rule:evenodd;clip-rule:evenodd;fill:#BA3333;}
	.st1{fill-rule:evenodd;clip-rule:evenodd;fill:#FF5959;}
	.st2{fill-rule:evenodd;clip-rule:evenodd;fill:#9A99C7;}
	.st3{fill-rule:evenodd;clip-rule:evenodd;fill:#632E25;}
	.st4{fill-rule:evenodd;clip-rule:evenodd;fill:#50251E;}
	.st5{fill-rule:evenodd;clip-rule:evenodd;fill:#FE9365;}
	.st6{fill-rule:evenodd;clip-rule:evenodd;fill:#E7EDFB;}
	.st7{fill-rule:evenodd;clip-rule:evenodd;fill:#6463A9;}
	.st8{fill-rule:evenodd;clip-rule:evenodd;fill:#49487B;}
	.st9{fill-rule:evenodd;clip-rule:evenodd;fill:#E5845B;}
	.st10{fill-rule:evenodd;clip-rule:evenodd;fill:#FEC754;}
	.st11{fill-rule:evenodd;clip-rule:evenodd;fill:#E5A144;}
	.st12{fill-rule:evenodd;clip-rule:evenodd;fill:#411E18;}
	.st13{fill-rule:evenodd;clip-rule:evenodd;fill:#FFFFFF;}
	.st14{fill-rule:evenodd;clip-rule:evenodd;}
	.st15{fill-rule:evenodd;clip-rule:evenodd;fill:#4D4D4D;}
	.st16{fill:#333333;}
	.st17{fill-rule:evenodd;clip-rule:evenodd;fill:#B96B4A;}
	.st18{fill:#FFFFFF;}
	.st19{fill-rule:evenodd;clip-rule:evenodd;fill:#E6E6E6;}
	.st20{fill-rule:evenodd;clip-rule:evenodd;fill:#CCCCCC;}
	.st21{fill:#F59221;}
	.st22{font-family:'LuckiestGuy-Regular';}
	.st23{font-size:9.1558px;}
</style>
<g>
	<path class="st0" d="M112.8,71.9c-1.6,8.2-6.8,34.8-6.8,35.7c0.1,1.2,1.1,3,3.1,3.5c1.9,0.5,12.9-2,14.2-2.3
		c1.3-0.3,8.7-37.4,8.7-37.4s2.1-0.6,1.9-1.6c-0.1-0.4-2.1-1.5-2.5-1.6c-1.3-0.4-2-0.3-2-0.3s-5.1,0-9.5,0
		C115.8,67.9,113.7,67.6,112.8,71.9L112.8,71.9z"/>
	<path class="st1" d="M115.2,73.1c-1.6,8.2-6.8,34.8-6.8,35.7c0.1,1.2,0,2.1,1.9,2.6c1.9,0.5,14.1-1.1,15.3-1.4
		c1.3-0.3,8.7-37.5,8.7-37.5s0.7-2.8-0.6-3.3c-1.3-0.4-2-0.3-2-0.3s-5.1,0-9.5,0C118.2,69,116,68.7,115.2,73.1L115.2,73.1z"/>
	<path class="st0" d="M118.8,71.3h4.6c0.9,0,1.6,0.8,1.4,1.7l-1,5.2c-0.2,1-1.1,1.7-2,1.7h-4.6c-1,0-1.6-0.8-1.4-1.7l1-5.2
		C116.9,72.1,117.9,71.3,118.8,71.3L118.8,71.3z"/>
	<path class="st2" d="M30.4,279.3l-7-68.8h53.3l21.8-4l13.8,72.8H79.6c-3.7-11.1-11-32.9-11.8-37.3c-0.8,7-1.9,27.8-2.5,37.3H30.4z"
		/>
	<path class="st3" d="M83.7,43c0,0,0.2,11.5-1.3,19c-0.4,1.9-0.8,4-1.2,6.2c-1.1,6.5,3.2,11.6,3.9,16.3c0.9,6.3-0.7,10.3-0.7,10.3
		l-16.7-1.7c0,0-9.3-4.8-9.3-6.2c0-1.3-3-17.2-3-17.2l3.6-10.4l8.6-12.7l5.3-6.1L83.7,43z"/>
	<path class="st4" d="M72.8,93.7l-5-0.5c0,0-9.3-4.8-9.3-6.2c0-0.9-1.4-8.8-2.3-13.6c3.5-6.1,8.6-14.5,8.6-14.5l9.6,0.8
		c0,0-4.7,22.3-2.7,29.9C72.1,91.3,72.5,92.6,72.8,93.7L72.8,93.7z"/>
	<path class="st5" d="M63.1,72.5c0,0-0.4,9,0.4,11.5c0.9,2.5,6,4.2,6.9,4.4c1,0.2-12.5,10.3-12.5,10.3l-12.8-0.4l-7.7-10.6l7.7-24.5
		l0.9-5.6L63.1,72.5z"/>
	<path class="st6" d="M42.2,213.9c0,0,12.2,3.2,26.8,2.2c14.6-1,22.3-8.8,22.3-8.8L91,116.6L71.7,87.2c0,0-6.2,4.2-19.7,4
		c-13.5-0.2-14.2-3.8-14.2-3.8l-5.7,2.7l4.6,106.5L42.2,213.9z"/>
	<path class="st7" d="M35.1,86.4l12.8,49.4l-0.2,11.5l4.2,2.8l-1.3,5.4l-0.5,66.4c0,0-31.9-3.9-31.6-6.7c0.2-2.2,0-22.6-0.3-29.3
		c-0.1-1.7-4.1-0.4-4.1-0.4s-13.4-4.6-14.2-15.7c-0.7-11.2,6.1-13,4.4-17.5c-1.7-4.5,3.6-1.9,2.4-9.1c-1.1-7.3-2.3-11-3.5-16.2
		c-1.2-5.2,0-22.5,2.5-25C8.3,99.4,32.7,85.4,35.1,86.4L35.1,86.4z"/>
	<path class="st8" d="M38.4,85.8l12,50.5l0.1,12.8l-3.1-2.1c-3.7-2.4-10.2-13.6-10.2-13.6L31.3,118l3.6-5.7l-5.7-1.9l2-22.4
		C33.2,86.8,37.9,85.6,38.4,85.8L38.4,85.8z M50.8,151.8l-1.3,44.9l-6.2-36L50.8,151.8z"/>
	<path class="st7" d="M69.7,86.6c0,0,12,29.1,12.2,42c0.2,12.9,3.7,91.8,3.7,91.8l18.1-11.7l-2.2-61.8l7.9-12.8c0,0-7.1-17-9-30.4
		c-1.9-13.4-6-9-8.2-10.6C89.9,91.5,69.7,86.6,69.7,86.6L69.7,86.6z"/>
	<path class="st8" d="M69.7,86.6c0,0,12,29.1,12.2,42c0.2,8.6,1.8,46.4,2.8,70.8l6.5-86l-4.6-3.1l1.4-6.5L76.3,88.2
		C72.6,87.3,69.7,86.6,69.7,86.6L69.7,86.6z"/>
	<path class="st9" d="M63.1,72.5c0,0-0.2,3.7-0.1,7c-1.1,0-2.3-0.1-3.6-0.2c-9.7-0.8-12.5-3.9-12.5-3.9s-2.2-4.5-3.4-7.3l1.5-4.9
		l0.9-5.6L63.1,72.5z"/>
	<path class="st10" d="M29.4,38.6c0,0,1.5-15.6,4.4-18.3c2.9-2.7,10.8-6.5,17-7.5c6.2-1,9.4-0.4,13.5,3.4c4.2,3.8,9.3,9.8,9.5,11.3
		C74.1,29,29.4,38.6,29.4,38.6L29.4,38.6z"/>
	<path class="st11" d="M21.3,53.5c-1.7-1.7-2.5-5.6-1.3-8.9c3-8.2,29-26.3,55.6-20.3c15.5,3.5,14.8,13.3,9.7,17.8
		c-3.6,3.2-10.2,1.7-11.5,2.1c-6.4,1.9-33,11.9-45.9,12C25,56.2,22.4,54.6,21.3,53.5L21.3,53.5z"/>
	<path class="st5" d="M48.7,64.7c0,0,2.7,7.6,9.9,9.4c3.6,0.9,6.4,0.9,8.5,0.5c6.9-1.3,7-11.5,8.5-17.9c1-4.4-2.1-6.3-2.1-8
		c0-1.7,1-4.4-1.1-9.2c-2-4.7-5.2-7.6-7.8-8.1c-2.6-0.4-14.7,6.6-15.1,7c-0.4,0.4-4.3,4.5-4.3,5.2c-0.1,0.7-0.6,13-0.4,13.7
		C44.9,58,48,63.3,48.7,64.7L48.7,64.7z"/>
	<path d="M63.9,48.9c0.3-0.5,1.1-0.7,2-0.8c0.9-0.1,2.1,0,3.1,0.2c0.2,0,0.3,0.1,0.4,0.1c0.2,0,0.3,0.1,0.4,0.1l-0.3,1.1
		c-0.1,0-0.2-0.1-0.4-0.1c-0.1,0-0.3-0.1-0.4-0.1c-0.9-0.2-1.9-0.2-2.7-0.1c-0.6,0-1.1,0.1-1.1,0.3L63.9,48.9z"/>
	<path d="M58,49.1c0,0-14.1,2.8-14.1,2.8l-0.7-1.2c0.2-0.9,14.6-3,14.6-3L58,49.1z"/>
	<path class="st3" d="M64.9,30c0,0,0.8,7.1-6,11.4c-6.7,4.3-13.4,5.9-14.2,8.3c-0.7,2.4,2.4,12.1,3.9,18.2
		c1.2,5.2,2.8,14.2-2.9,19.5c-1.1,1-3.8,1.1-5.4,2.1C30.2,95.3,20,93.1,20,93.1s6.3-6.3,8.1-17.5c1.1-7.1,0.3-22.5,3.5-28.6
		C34.2,42,42.7,30.8,64.9,30L64.9,30z"/>
	<path class="st12" d="M44.7,50.9c0.1,3.5,2.7,11.6,4,17c0.8,3.4,5.4,12,5,18.2c-0.2,3.2-1.1,6.7-5.8,6.8c-1.5,0-7.6-2.2-9.3-1.2
		c-0.3,0.2-2.4-0.2-2.7-0.1c1.7-2.6,8.2-9.1,9-16.3c0.7-7.2-1.7-21.6-0.9-23.7C44.2,51.2,44.4,51,44.7,50.9L44.7,50.9z"/>
	<path class="st3" d="M62.2,31.8c0,0,1.9,3.2,6.6,5.6c4.8,2.4,4.4,5.8,4.9,8.5c0.4,2.7,2.3,4.7,2.3,4.7s5.2,1.8,7,0.6
		C84.7,50,87.3,30.6,64.7,30c-0.1,0-1.6-0.1-1.9,0.1C62.1,30.7,62.4,31.8,62.2,31.8L62.2,31.8z"/>
	<path class="st9" d="M67,53.2c0,0,0.2,5.8,0.5,7.1c0.3,1.2,0.4,1.4,0.4,1.4s-1.9,0.9-1.4,1c1.6,0.2,2.9-0.1,3.2-0.8
		c0.2-0.5-0.2-1.3-0.4-2C68.7,57.5,67.4,53.1,67,53.2L67,53.2z"/>
	<path class="st13" d="M62.1,65.8c0.4-0.2,1.1,0.3,2.8,0.4c1.5,0.1,3.8-0.1,5.1-0.5c1.1-0.4,1.4-0.8,1.8-0.7c0.2,0-0.5,2-2.1,2.8
		c-1.1,0.6-3.1,0.8-4.7,0.4C63,67.6,62,66.5,62.1,65.8L62.1,65.8z"/>
	<path class="st1" d="M72.4,105.2l-2.2,33.5c0,0-3.3,1.1-7.9,0.9c-0.3,0-0.6,0-0.9,0c-0.3,0-0.6,0-0.9,0c-4.7,0.1-8-0.9-8-0.9
		l-3.2-33.5l7.4-0.9v-1l4.1,0.5l4.1-0.5l0,1L72.4,105.2z"/>
	<path class="st5" d="M45.7,114.5c0.3-0.6,2.9-2.1,7.6-3.1c4.8-1,13.8-3.4,13.8-3.4s0.2,2.4-2.4,3.6c-2.5,1.2-9.4,3.2-9.4,3.2
		s7.1,0.6,8.7,0.9c1.7,0.4,7.8,4.1,7.8,4.1s-0.6,1.3-2.7,1c-2.1-0.2-7.1-1.3-7.1-1.3l7.8,4.5c0,0-0.7,1.4-3.2,0.9
		c-2.5-0.6-7.8-2.1-9.6-2.2c-1.8-0.1-3.7-0.1-3.7-0.1l13.1,3.8c0,0-0.1,1.4-2.7,1.4c-2.6,0-10.6-1.5-11-0.9
		c-0.4,0.7-2.4,8.1-4.4,9.2c-2,1.1-3.8,3-4.3,4c-0.3,0.6-1.7,3.4-2.9,5.9c-2.3-2.3-6.3-7.9-8-10.4C33.3,134.3,44.2,117.4,45.7,114.5
		L45.7,114.5z"/>
	<path class="st5" d="M107.1,138.5c0,0,13.3-25.4,13.3-27c0.1-1.6-2-3.9-1.4-7c0.6-3.1,1.3-5.9,1.3-5.9s-6.1-4.5-6.9-5.9
		c-0.7-1.4-0.7-2.4-0.7-2.4l8.5,5.1c0,0-1.6-1.9-3.1-3.1c-1.5-1.2-4.5-3.4-5.1-4.7c-0.6-1.3-0.3-2.4-0.3-2.4s6,4,7.4,4.8
		c1.4,0.8,3.2,2.4,3.2,2.4s-3.9-4.4-5.2-5.2c-1.2-0.8-2.2-1.6-2.6-2.9c-0.4-1.3-0.1-1.9-0.1-1.9s4.1,2.3,6.4,4
		c2.3,1.7,3.9,3.9,3.9,3.9s-1.1-3-2.1-4.4c-1-1.5-2.3-2.2-3-4.4c-0.8-2.2-0.1-2.8-0.1-2.8s3.5,3.2,5.9,6c2.4,2.8,4.3,5.1,4.6,5.5
		c0.3,0.3,1.9,13.8,0.8,16.9c-4.8,13.2-5.6,22.3-9.1,36C122.8,143.1,110.5,140.5,107.1,138.5L107.1,138.5z"/>
	<path class="st14" d="M60.1,45.9c2.9,0,5.3,2.4,5.3,5.5c0,3-2.4,5.5-5.3,5.5c-2.9,0-5.3-2.4-5.3-5.5C54.8,48.3,57.2,45.9,60.1,45.9
		L60.1,45.9z"/>
	<path class="st14" d="M73,45.9c2.4,0,4.4,2.4,4.4,5.3c0,2.9-2,5.3-4.4,5.3c-2.4,0-4.4-2.4-4.4-5.3C68.6,48.2,70.6,45.9,73,45.9
		L73,45.9z"/>
	<path class="st15" d="M48.1,101.4l-1.3,4.1c9.2,0,18.3,0,27.5,0l-1.3-4.1c0,0-1.4-0.2-1.6-0.3c-0.2-0.1-0.3-2.6-1.3-2.9
		c-2.7-0.8-16.8-0.8-19,0c-1,0.4-1.1,2.8-1.3,2.9C49.5,101.2,48.1,101.4,48.1,101.4L48.1,101.4z"/>
	<path class="st7" d="M117,118.2c0,0-17.7,31.7-21.3,39.4c-2.6,5.5,0.1,14.9,5.9,19.2c16.1,11.9,26.2-40.6,30.4-48.9
		C132,127.9,124.7,127,117,118.2L117,118.2z"/>
	<path class="st16" d="M26.6,112.7c0,0,3.3,4.5,3.2,10.8c-0.1,5.6,3.4,11.5,3.9,12.1v0c0,0,0,0,0.1,0.1L34,136l0,0
		c1.1,1.9,5,8.5,9.3,11.3c5,3.2,7.5,2.8,7.5,2.8l0.1,0.5c0.1-0.2,0.2-0.3,0.3-0.4l-6.8-4.5l0.6-0.9l7.8,5.2l-0.4,0.5
		c0,0-7.9,10.3-15.2,17.9c-6.6,6.9-12.7,11.4-14.5,12.7c-0.2,0.2-0.4,0.3-0.4,0.3l-0.7-0.9c0.2-0.1,0.3-0.2,0.4-0.3
		c1.8-1.3,7.8-5.8,14.3-12.6c5.5-5.8,11.5-13.1,13.9-16.2c-1.1,0-3.7-0.4-7.7-3c-4.4-2.8-8.4-9.4-9.6-11.5l-22,17.9l-0.7-0.9
		l22.2-18c-0.9-1.5-3.9-7.1-3.8-12.4c0.1-5.9-3-10.1-3-10.1L26.6,112.7z M97.6,119.4c0,0.1,1.6,24.6,1.2,32.5
		c1.9-4.3,4.6-9.1,7.5-14.2c3.5-6.2,7.3-12.9,10.2-19.7l1,0.4c-2.9,6.9-6.7,13.6-10.3,19.8c-5.3,9.4-10,17.7-10.2,23.8
		c-0.3,10.1,5.9,15.4,5.9,15.4l-0.7,0.8c0,0-6.6-5.6-6.3-16.3c0.1-2.4,0.8-5.2,2-8.1l-0.5-0.3c1.1-2.1-1-34-1-34.1L97.6,119.4z"/>
	<path class="st14" d="M41.2,146.2c0,0,2,2.2,5,3.5c2,0.9,5.2,1.1,5.5,0.9c0.9-0.6-9-7.3-9-7.3L41.2,146.2z"/>
	<path d="M67.4,242l0-23.3h0.7l0,23.3H67.4z M72.6,238.5l11.9,40.8l-0.7,0.2l-11.9-40.8L72.6,238.5z M34.8,230.2l3.6,49.1l-0.7,0.1
		l-3.6-48.7c-2.4,1.4-4.2,1.2-4.2,1.2l0.1-0.7c0,0,3.7,0.4,7.5-4.7c0.7-0.9,1.2-1.8,1.7-2.7c0.5-1,1-2,1.3-2.9l0.7,0.2
		c-0.3,0.9-0.7,1.9-1.3,3c-0.5,0.9-1.1,1.8-1.8,2.8C37,228.4,35.8,229.5,34.8,230.2L34.8,230.2z"/>
	<path class="st12" d="M34.7,69.5c0.2-0.7-1.7-6.4,0-14c1.8-7.7,4.2-11.1,8.8-13.9c4.6-2.8,8.4-4.7,8.4-4.7s-9.2,7.5-12.2,11.6
		c-2.9,4.1-2.1,21.4-4.2,26.1c-2.1,4.6-2.4,4.7-2.4,4.7S34.8,73.6,34.7,69.5L34.7,69.5z"/>
	<path class="st12" d="M77.7,62.1c0,0-2.6,5.3-1.8,13.4c0.5,6,1.1,10.8,1.3,12.9c1.5,0.4,3,0.8,4.5,1.2l0,0c0,0-1.4-6.1-2.7-11.7
		C77.8,72.4,77,66.8,77.7,62.1L77.7,62.1z"/>
	<path d="M77.7,62.2c-0.3,0.6-2.5,5.8-1.8,13.3c0.3,3,0.5,5.7,0.8,7.9c0.2,2.2,0.4,3.9,0.5,5c0.8,0.2,1.6,0.4,2.3,0.6
		c0.7,0.2,1.4,0.4,2.2,0.6c-0.1-0.3-1.5-6.3-2.7-11.7c-0.6-2.8-1.1-5.6-1.4-8.3C77.4,67,77.3,64.5,77.7,62.2L77.7,62.2z M75.9,75.5
		c-0.7-8.1,1.8-13.4,1.8-13.4l0-0.1l0,0.1c-0.4,2.3-0.3,4.9-0.1,7.6c0.3,2.7,0.8,5.5,1.4,8.3c1.2,5.6,2.7,11.7,2.7,11.7l0,0h0l0,0
		c-0.7-0.2-1.5-0.4-2.2-0.6c-0.8-0.2-1.6-0.4-2.3-0.6h0v0c-0.1-1-0.3-2.8-0.5-5C76.4,81.3,76.1,78.5,75.9,75.5L75.9,75.5z"/>
	<path class="st17" d="M53.4,119c0,0,7.6,0.5,9,0.5c0.9,0,3.1,0.4,4.8,0.8c0.9,0.2,1.7,0.3,1.9,0.4l0,0.6c-0.3,0-1-0.2-2-0.4
		c-1.6-0.3-3.8-0.8-4.7-0.8c-1.4,0-9-0.5-9-0.5L53.4,119z"/>
	<path class="st18" d="M51.9,60.9c0,0-0.1-0.2-0.4-0.4c-1-1.1-5.1-6.2-7.9-7.4c-1-0.4-1.2,0.6-0.4,1c2.4,1.1,6.5,6.1,7.4,7.1
		c0.3,0.3,0.4,0.5,0.6,0.6L51.9,60.9z"/>
	<path class="st13" d="M75.3,58.7c-3.7-1-3.6-2.3-8.1-2.3c-4.3,0-11.4,2-16.9,3.2c0,1.1,0,2.3,0,4.5c-0.1,2.2-1.5,5.3-2.1,6.2
		c2.6,5.3,9.4,9,15.2,9.4c5.2,0.4,13.7-5,12.8-20.9L75.3,58.7z"/>
	<path class="st19" d="M75.4,60c0.6,8.4-3.1,18.7-12.4,18.3c-3.8-0.1-10.5-3.2-12.7-7.8c0.7-1.5,1.7-4.8,1.8-6.4
		c0-1.2,0.3-2,0.3-3.2c4.5-0.7,8.8-2.7,12.3-2.7C68.3,58.1,71.9,59.1,75.4,60L75.4,60z"/>
	<path class="st20" d="M74.5,67.1c0,0-4.9,0.5-9.6,0.6c-4.7,0.1-9.3-0.2-9.7,0c-0.2,0.1,4.7,1.6,9.8,1.4
		C69,69.1,73.2,67.4,74.5,67.1L74.5,67.1z M73.3,70.7c0,0-4.7,2.2-9.3,2.3c-4.7,0.1-9.3-1.5-9.7-1.2c-0.2,0.2,4.3,3.6,9.3,3.4
		C65.4,75.2,72,72.1,73.3,70.7L73.3,70.7z M74.9,62.2c0,0-4.7-0.2-9.4-0.1c-4.7,0.1-9.5,0.5-9.9,0.7c-0.2,0.1,5.2,1,10.5,0.9
		C69.9,63.6,73.7,62.5,74.9,62.2L74.9,62.2z"/>
	<path class="st13" d="M45.7,63.2c1.5,2.4,4.7,8.4,5.8,8.9l-0.6,1c-1.2-0.7-4.5-7.1-6.2-9.3C43,61.4,44.4,60.9,45.7,63.2L45.7,63.2z
		"/>
</g>
<g>
	<path class="st21" d="M132,8.9c-3.4-7-13.4-9.2-22.4-4.9S96.1,17.6,99.5,24.6c2.1,4.5,7,7,12.5,7.1c0.2,2.1-0.5,4.7-4.5,6.4
		c0,0,7.9-1.6,9.8-7c1.5-0.4,3.1-0.9,4.6-1.6C130.9,25.1,135.4,15.9,132,8.9z"/>
	<g>
		<text transform="matrix(0.9392 -0.3434 0.3434 0.9392 106.3399 19.4588)"><tspan x="0" y="0" class="st18 st22 st23">STAY</tspan><tspan x="-0.8" y="8.1" class="st18 st22 st23">SAFE!</tspan></text>
	</g>
</g>
</svg>
