<svg xmlns="http://www.w3.org/2000/svg" width="226.88" height="257.81" viewBox="0 0 226.88 257.81">
  <defs>
    <style>
      .cls-1 {
        fill: #9c2020;
        fill-rule: evenodd;
      }
    </style>
  </defs>
  <path class="cls-1" d="M1265,3215.18s90.58,34.21,88.66,83.71h0.03v83.71s-90.58-34.21-88.66-83.71H1265v-83.71Zm169.35,147.83a123.887,123.887,0,0,1,57.53-21.21v-26.21A117.976,117.976,0,0,0,1434.35,3363.01Zm-10.29,7.89a123.042,123.042,0,0,1,67.82-60.81v-75.51s-128.98,48.72-126.25,119.21h-0.04v119.2s5.76-2.17,14.79-6.26c-0.03-3.82.09-7.67,0.41-11.53A123.83,123.83,0,0,1,1424.06,3370.9Zm-12.26,44.29a123.849,123.849,0,0,1,4.5-24.41,115.089,115.089,0,0,0-26.96,65.13c-0.19,2.27-.29,4.54-0.35,6.8,7.33-3.53,15.86-7.92,24.81-13.08A123.283,123.283,0,0,1,1411.8,3415.19Zm5.13,0.42a118.028,118.028,0,0,0,1.59,31.25c35.24-21.09,74.85-53.68,73.32-93.07h0.04v-3.36a115.62,115.62,0,0,0-67.05,31.33A117.575,117.575,0,0,0,1416.93,3415.61Z" transform="translate(-1265 -3215.19)"/>
</svg>
