<svg xmlns="http://www.w3.org/2000/svg" width="157" height="176" viewBox="0 0 157 176">
  <defs>
    <style>
      .cls-1 {
        fill: #e03333;
        fill-rule: evenodd;
      }
    </style>
  </defs>
  <path class="cls-1" d="M1826.84,2122.99q-60.255-34.755-120.49-69.51a18.211,18.211,0,0,0-27.35,15.78v140.29a18.206,18.206,0,0,0,27.33,14.96q29.13-16.8,58.25-33.6v-84.08l16.73,9.64v64.34l17.1-9.86v-44.61l17.1,9.86v24.89l11.33-6.54a18.189,18.189,0,0,0,0-31.56m-113.62,11.95,34.25,19.76v26.34q-25.7,14.8-51.37,29.63,0-23.8.02-47.6l17.13,9.88v8.08l17.11-9.88v-6.57q-17.115-9.885-34.24-19.76c-0.04-.02,0-70.97,0-77.49q25.665,14.8,51.35,29.62,0,19.77.01,39.51l-17.15-9.9v-19.74l-17.11-9.88v38Z" transform="translate(-1679 -2050.97)"/>
</svg>
