<?xml version="1.0" encoding="utf-8"?>
<!-- Generator: Adobe Illustrator 23.0.0, SVG Export Plug-In . SVG Version: 6.00 Build 0)  -->
<svg version="1.1" id="Layer_1" xmlns="http://www.w3.org/2000/svg" xmlns:xlink="http://www.w3.org/1999/xlink" x="0px" y="0px"
	 width="80.6px" height="76.1px" viewBox="0 0 80.6 76.1" style="enable-background:new 0 0 80.6 76.1;" xml:space="preserve">
<style type="text/css">
	.st0{fill:#5143D9;}
</style>
<path class="st0" d="M75.7,55.9h-18c-1.6,0-2.8-1.3-2.8-2.8V41c0-1.6,1.3-2.8,2.8-2.8h18c1.6,0,2.8,1.3,2.8,2.8v12.1
	C78.5,54.7,77.2,55.9,75.7,55.9z"/>
<g>
	<path d="M73.2,75.4H7.1c-3.4,0-6.1-2.7-6.1-6.1V24.7c0-3.4,2.7-6.1,6.1-6.1h66.1c3.4,0,6.1,2.7,6.1,6.1v44.6
		C79.3,72.7,76.5,75.4,73.2,75.4z M7.1,21.4c-1.8,0-3.3,1.5-3.3,3.3v44.6c0,1.8,1.5,3.3,3.3,3.3h66.1c1.8,0,3.3-1.5,3.3-3.3V24.7
		c0-1.8-1.5-3.3-3.3-3.3H7.1z"/>
	<path d="M77.9,58.2H63.1c-6.2,0-11.2-5-11.2-11.2c0-6.2,5-11.2,11.2-11.2h14.7c0.8,0,1.4,0.6,1.4,1.4v19.6
		C79.3,57.6,78.6,58.2,77.9,58.2z M63.1,38.6c-4.6,0-8.4,3.8-8.4,8.4s3.8,8.4,8.4,8.4h13.3V38.6H63.1z"/>
	<path d="M64,53.1c-3.4,0-6.1-2.7-6.1-6.1c0-3.4,2.7-6.1,6.1-6.1c3.4,0,6.1,2.7,6.1,6.1C70.1,50.4,67.3,53.1,64,53.1z M64,43.8
		c-1.8,0-3.3,1.5-3.3,3.3s1.5,3.3,3.3,3.3c1.8,0,3.3-1.5,3.3-3.3S65.8,43.8,64,43.8z"/>
	<path d="M64.3,21.4H11.8c-0.7,0-1.2-0.5-1.4-1.1c-0.1-0.6,0.2-1.3,0.8-1.6L46.6,1.9c4.8-2.3,10.5-0.2,12.8,4.5l6.2,13
		c0.2,0.4,0.2,0.9-0.1,1.4C65.2,21.2,64.8,21.4,64.3,21.4z M18.1,18.6h44L56.8,7.7c-1.6-3.4-5.7-4.8-9-3.2L18.1,18.6z"/>
	<path d="M56.2,21.4H26.9c-0.7,0-1.2-0.5-1.4-1.1c-0.1-0.7,0.2-1.3,0.8-1.6l20.5-9c2.6-1.1,5.7-0.1,7,2.5l3.6,7.2
		c0.2,0.4,0.2,1-0.1,1.4C57.1,21.2,56.6,21.4,56.2,21.4z M33.6,18.6h20.3l-2.6-5.1c-0.6-1.2-2.1-1.7-3.3-1.2L33.6,18.6z"/>
</g>
</svg>
