<?xml version="1.0" encoding="utf-8"?>
<!-- Generator: Adobe Illustrator 23.0.0, SVG Export Plug-In . SVG Version: 6.00 Build 0)  -->
<svg version="1.1" id="Layer_1" xmlns="http://www.w3.org/2000/svg" xmlns:xlink="http://www.w3.org/1999/xlink" x="0px" y="0px"
	 width="350.87px" height="362.84px" viewBox="0 0 350.87 362.84" style="enable-background:new 0 0 350.87 362.84;"
	 xml:space="preserve">
<g>
	<path style="fill:#4772A0;" d="M129.27,33.11c1.97,0.96,3.82,0.31,5.73-0.31c18.01-5.91,36.02-11.85,54.07-17.64
		c14.61-4.68,27.79-1.59,39.72,7.76c3.75,2.94,5.7,6.63,4.71,11.44c-0.91,4.43-4.16,6.49-8.21,7.81
		c-18.7,6.09-37.36,12.3-56.07,18.36c-2.05,0.66-3.42,1.64-4.48,3.53c-15,26.78-30.11,53.5-45.05,80.31
		c-1.77,3.17-3.89,5.12-7.43,6.06c-5.04,1.35-9.94,3.26-14.93,4.79c-0.97,0.3-2.15,1.47-3.08,0.38c-0.81-0.96,0.19-2.13,0.51-3.14
		c7.09-22.05,14.21-44.08,21.32-66.12c0.42-1.3,0.91-2.59,1.24-3.92c0.4-1.62,2.18-3.54,0.9-4.75c-1.15-1.09-3.24,0.36-4.88,0.78
		c-22.06,5.64-44.1,11.37-66.16,17c-13.75,3.51-25.96-3.08-30.49-16.48C13.05,68.22,9.55,57.42,6.05,46.62
		c-0.38-1.18-1.81-2.84-0.46-3.64c1.78-1.06,3.9-2.55,6.26-1.07c2.32,1.47,4.6,3,6.9,4.5c7.42,4.85,14.86,9.68,22.25,14.58
		c1.53,1.02,2.89,1.64,4.84,1c15.87-5.25,31.76-10.41,47.64-15.63c0.79-0.26,1.75-0.38,2.11-1.36c5.18-3.12,11.12-4.19,16.74-6.1
		C117.99,36.99,123.77,35.48,129.27,33.11z"/>
	<path style="fill:#4772A0;" d="M129.27,33.11c0.19,0.56,0.55,1.15-0.39,1.44c-11.1,3.48-22.19,6.96-33.28,10.45
		C81.68,34.79,67.76,24.57,53.34,13.99c5.97-1.94,11.25-3.65,16.52-5.4c1.03-0.34,1.9-0.17,2.86,0.25
		C91.56,16.95,110.41,25.03,129.27,33.11z"/>
	<path style="fill:#7D95B2;" d="M237.68,278.02c-7.71,0.02-15.43-0.26-23.12,0.16c-4.41,0.24-5.74-1.3-5.05-5.34
		c0.1-0.56,0-1.16-0.01-1.74c-1.22-1.45-1.38-3.21-1.38-4.99c0.02-21.88-0.19-43.77,0.09-65.65c-0.23-7.84-0.08-15.69-0.08-23.53
		c0-1.76,0.15-3.5,1.38-4.92c-0.03-7.03-0.06-14.05-0.09-21.08c1.62-1.69,3.76-1.47,5.78-1.48c29.19-0.04,58.38-0.04,87.58,0
		c2.02,0,4.16-0.21,5.78,1.48c-0.03,7.03-0.06,14.05-0.09,21.08c1.25,1.45,1.38,3.21,1.38,4.99c-0.01,7.8,0.16,15.6-0.08,23.4
		c0.27,21.9,0.08,43.8,0.1,65.71c0,1.78-0.16,3.54-1.38,4.99c-0.07,6.98-0.07,6.98-7.24,6.97c-6.98-0.01-13.96-0.03-20.94-0.05
		c-1.74-1.78-1.48-4.07-1.49-6.24c-0.05-9.7,0.02-19.39-0.03-29.09c-0.03-5.22-0.37-5.57-5.45-5.6c-9.55-0.05-19.1-0.05-28.65,0
		c-5.08,0.03-5.43,0.38-5.46,5.6c-0.05,9.7,0.01,19.39-0.03,29.09C239.17,273.96,239.42,276.24,237.68,278.02z"/>
	<path style="fill:#6B8098;" d="M308.56,150.94c-33.05,0-66.09,0-99.14,0c-5.17-1.04-6.89-2.96-6.95-7.9
		c-0.05-4.41-0.09-8.82,0.01-13.22c0.11-4.51,2.65-7.17,7.13-7.17c32.91-0.05,65.82-0.05,98.73,0c4.48,0.01,7.04,2.68,7.15,7.17
		c0.11,4.4,0.07,8.81,0.01,13.22C315.45,147.98,313.74,149.88,308.56,150.94z"/>
	<path style="fill:#738BA5;" d="M209.5,200.31c0,23.59,0,47.19,0,70.78c-10.42-0.03-20.85-0.21-31.27-0.01
		c-3.36,0.07-4.13-0.95-4.11-4.19c0.11-22.17,0.01-44.34-0.02-66.51c1.21-1.35,2.86-1.41,4.47-1.43c8.8-0.1,17.61-0.09,26.41-0.01
		C206.6,198.97,208.21,199.13,209.5,200.31z"/>
	<path style="fill:#738BA5;" d="M308.48,271.1c0-23.59,0-47.19,0-70.78c1.42-1.3,3.2-1.36,4.97-1.37
		c8.51-0.06,17.02-0.07,25.53,0.01c1.74,0.02,3.56-0.02,4.91,1.44c-0.03,22.02-0.15,44.04-0.01,66.07c0.02,3.62-0.83,4.73-4.56,4.64
		C329.04,270.86,318.76,271.07,308.48,271.1z"/>
	<path style="fill:#F1F1F1;" d="M237.68,278.02c0.04-12.64,0.17-25.28,0.04-37.92c-0.03-3.29,0.61-4.6,4.29-4.52
		c11.31,0.26,22.64,0.26,33.95,0c3.68-0.08,4.33,1.23,4.29,4.52c-0.13,12.64,0,25.28,0.04,37.92
		C266.09,278.02,251.89,278.02,237.68,278.02z"/>
	<path style="fill:#62758B;" d="M209.5,200.31c-11.8,0.03-23.6,0.05-35.41,0.08c-5.38-1.35-6.9-3.17-6.96-8.49
		c-0.04-3.97-0.08-7.95,0.01-11.92c0.11-5.23,2.68-7.84,7.94-7.88c11.47-0.09,22.95-0.07,34.42-0.09
		C209.51,181.45,209.51,190.88,209.5,200.31z"/>
	<path style="fill:#62758B;" d="M343.88,200.39c-11.8-0.03-23.6-0.05-35.41-0.08c0-9.43,0-18.87-0.01-28.3
		c11.18,0.02,22.36,0.03,33.53,0.07c6.37,0.03,8.79,2.44,8.84,8.78c0.03,3.68,0.04,7.35,0,11.03
		C350.78,197.22,349.26,199.04,343.88,200.39z"/>
	<path style="fill:#F1F1F1;" d="M245.21,179.14c-7.42,0-7.42,0-7.42-7.37c0-6.76,0-6.76,6.71-6.76c7.42,0,7.42,0,7.42,7.37
		C251.92,179.14,251.92,179.14,245.21,179.14z"/>
	<path style="fill:#F1F1F1;" d="M272.77,179.14c-6.71,0-6.71,0-6.71-8.08c0-6.05,0-6.05,8.3-6.05c5.83,0,5.83,0,5.83,8.52
		C280.19,179.15,280.19,179.15,272.77,179.14z"/>
	<path style="fill:#F1F1F1;" d="M245.24,200.34c6.68,0,6.68,0,6.68,8.11c0,6.03,0,6.03-8.33,6.02c-5.81,0-5.87,0-5.78-8.55
		C237.87,199.33,236.72,200.47,245.24,200.34z"/>
	<path style="fill:#F1F1F1;" d="M280.19,207.73c0,6.75,0,6.75-8.05,6.75c-6.09,0-6.09,0-6.09-8.27c0-5.87,0-5.87,8.49-5.87
		C280.19,200.35,280.19,200.35,280.19,207.73z"/>
	<path style="fill:#D8777B;" d="M22.2,345c-6.67-0.01-13.34-0.07-20,0.02c-1.71,0.02-2.2-0.48-2.19-2.19
		c0.07-11.95,0.07-23.89-0.01-35.84c-0.01-1.67,0.65-2.24,2.12-2.58c4.5-1.05,8.95-2.29,13.46-3.28c1.7-0.37,2.44-1.18,2.85-2.84
		c2.11-8.61,4.19-17.24,6.58-25.78c4.05-14.52,17.86-25.13,32.91-25.29c14.44-0.15,28.89-0.11,43.34-0.03
		c17.14,0.1,30.55,11.15,34.9,28.61c1.88,7.53,3.78,15.06,5.61,22.6c0.35,1.43,0.86,2.12,2.52,2.25c10.14,0.79,20.26,1.85,30.4,2.58
		c11.81,0.85,20.85,10.22,20.98,22.1c0.06,5.74-0.07,11.48,0.06,17.22c0.04,1.96-0.54,2.49-2.48,2.47
		c-9.54-0.09-19.08-0.03-28.61-0.02c-1.02-0.87-0.94-2.17-1.19-3.31c-1.74-8.03-8.5-13.69-16.54-13.76
		c-7.87-0.08-14.76,5.38-16.78,13.2c-0.34,1.3-0.07,2.82-1.21,3.88c-23.66,0-47.33,0-70.99,0c-1.02-0.87-0.94-2.17-1.19-3.31
		c-1.74-8.03-8.5-13.69-16.54-13.76c-7.87-0.08-14.76,5.38-16.78,13.2C23.08,342.43,23.34,343.94,22.2,345z"/>
	<path style="fill:#5A6C80;" d="M22.2,345c0.66-10.49,7.99-17.8,17.85-17.8c9.87,0,17.1,7.2,17.87,17.8
		c-0.5,7.52-3.84,13.22-10.9,16.27c-6.49,2.8-12.66,1.79-18.17-2.54C24.45,355.27,22.48,350.51,22.2,345z"/>
	<path style="fill:#5A6C80;" d="M128.91,345c0.66-10.49,7.99-17.8,17.85-17.8c9.87,0,17.1,7.2,17.87,17.8
		c-0.5,7.52-3.84,13.22-10.9,16.27c-6.49,2.8-12.66,1.79-18.17-2.54C131.15,355.27,129.19,350.51,128.91,345z"/>
	<path style="fill:#BCE2F6;" d="M57.74,300.52c-6.66,0-13.32-0.05-19.98,0.03c-1.73,0.02-2.05-0.43-1.44-2.01
		c2.91-7.59,5.57-15.28,8.7-22.77c2.96-7.11,8.72-10.57,16.32-10.79c5.45-0.16,10.92,0.03,16.37-0.07c1.73-0.03,2.42,0.37,2.41,2.27
		c-0.09,10.36-0.09,20.72,0,31.08c0.02,1.89-0.65,2.31-2.4,2.28C71.06,300.46,64.4,300.52,57.74,300.52z"/>
	<path style="fill:#BCE2F6;" d="M124.53,300.52c-4.16,0-7.92,0-11.68,0c-7.12,0-14.24-0.05-21.36,0.04
		c-1.83,0.02-2.59-0.34-2.57-2.4c0.1-10.26,0.1-20.53,0-30.79c-0.02-1.98,0.59-2.58,2.51-2.45c3.86,0.27,7.76-0.41,11.6,0.56
		c4.8,1.21,8.84,3.75,11.02,8.17C118.24,282.18,120.91,291.33,124.53,300.52z"/>
</g>
</svg>
