<?xml version="1.0" encoding="utf-8"?>
<!-- Generator: Adobe Illustrator 23.0.0, SVG Export Plug-In . SVG Version: 6.00 Build 0)  -->
<svg version="1.1" id="Layer_1" xmlns="http://www.w3.org/2000/svg" xmlns:xlink="http://www.w3.org/1999/xlink" x="0px" y="0px"
	 width="382.55px" height="371.98px" viewBox="0 0 382.55 371.98" style="enable-background:new 0 0 382.55 371.98;"
	 xml:space="preserve">
<g>
	<path style="fill:#FEA933;" d="M321.58,251.99c33.14,0.01,60.01,26.94,59.97,60.11c-0.04,33.11-27.03,59.95-60.21,59.89
		c-32.93-0.07-59.77-26.97-59.79-59.93C261.54,278.89,288.43,251.98,321.58,251.99z"/>
	<path style="fill:#D8575D;" d="M339.39,95.9c10.74,0.03,21.49,0.16,32.23,0.01c2.94-0.04,4.04,0.45,4.02,3.77
		c-0.16,25.61-0.13,51.22-0.02,76.83c0.01,2.77-0.64,3.55-3.49,3.53c-25.73-0.12-51.47-0.12-77.21,0c-2.93,0.01-3.44-0.91-3.43-3.59
		c0.1-25.74,0.1-51.47,0-77.21c-0.01-2.6,0.63-3.37,3.3-3.34c10.74,0.13,21.49,0.01,32.23-0.01
		C331.14,94.28,335.27,94.24,339.39,95.9z"/>
	<path style="fill:#1F9880;" d="M71.01,191.95c8.15-1.77,12.41,2.18,15.92,9.27c5.14,10.37,11.38,20.2,17.25,30.19
		c1.06,1.8,1.21,3.12,0.09,5.03c-7.2,12.25-14.27,24.58-21.32,36.93c-1.01,1.76-2.02,2.71-4.3,2.69
		c-14.36-0.13-28.71-0.11-43.07-0.01c-2.04,0.01-3.11-0.65-4.1-2.38c-7.1-12.46-14.26-24.88-21.51-37.25
		c-1.01-1.72-1.11-2.96-0.07-4.73c7.32-12.47,14.54-25,21.71-37.57c0.94-1.64,2.01-2.18,3.85-2.16c7.36,0.08,14.73,0,22.09-0.02
		C62.04,190.28,66.53,190.08,71.01,191.95z"/>
	<path style="fill:#2970CB;" d="M9.68,83.76C23.57,55.96,37.37,28.37,51.55,0c14.14,28.27,27.93,55.84,41.89,83.76
		C65.39,83.76,37.78,83.76,9.68,83.76z"/>
	<path style="fill:#7A8798;" d="M339.39,95.9c-4.12,0-8.25,0-12.37,0.01c3.98-20.98-12.19-43.66-33.62-47.18
		c-3.34-0.55-6.68-0.76-10.06-0.76c-57.84,0.02-115.68-0.01-173.52,0.09c-3.33,0.01-4.47-0.71-4.35-4.24
		c0.28-7.82,0.08-7.83,7.8-7.83c57.22,0,114.43-0.03,171.65,0.02c26.28,0.02,47.61,17.17,53.44,42.77
		C339.64,84.42,339.73,90.15,339.39,95.9z"/>
	<path style="fill:#7A8798;" d="M71.01,191.95c-4.49-0.01-8.97-0.02-13.46-0.02c12.08-29.62,33.46-48.81,64.4-57.15
		c6.64-1.79,13.46-2.74,20.35-2.75c42.61-0.04,85.23,0,127.84-0.11c2.89-0.01,3.51,0.85,3.48,3.58c-0.11,8.48,0.01,8.49-8.63,8.49
		c-39.86,0-79.73-0.23-119.59,0.07c-32.21,0.24-56.31,14.83-72.31,42.76C72.17,188.41,71,189.95,71.01,191.95z"/>
	<path style="fill:#7A8798;" d="M204.56,285.23c12.65,8.85,24.5,17.15,36.37,25.44c1.16,0.81,1.58,1.53,0.16,2.52
		c-11.95,8.35-23.88,16.71-36.53,25.57c0-6.05-0.26-11.36,0.09-16.63c0.24-3.61-1.11-4.24-4.38-4.21
		c-18.62,0.15-37.24,0.15-55.86,0.05c-21.46-0.12-40.63-6.96-57.63-20.03c-2.35-1.81-3.15-3-0.71-5.67
		c5.24-5.74,5.04-5.9,11.18-1.56c14.18,10.04,29.94,15.22,47.32,15.27c18.74,0.05,37.49-0.07,56.23,0.09c3.25,0.03,3.97-0.98,3.83-4
		C204.38,296.75,204.56,291.41,204.56,285.23z"/>
	<path style="fill:#475666;" d="M320.37,317.96c-2.37-0.13-5.6,0.27-8.82-0.61c-8-2.19-14.01-9.58-13.97-17.45
		c0.04-7.93,6.05-15.38,14.2-17.14c2.69-0.58,4.4-1.29,3.8-4.43c-0.33-1.75,0.47-2.5,2.29-2.37c1.62,0.12,3.26,0.15,4.87,0
		c3.27-0.31,5.67,0.03,4.88,4.38c-0.43,2.37,1.89,1.91,3.12,2.2c7.85,1.87,12.5,6.78,14.48,14.51c0.62,2.42-0.11,3.17-2.49,2.97
		c-1.86-0.15-3.76-0.18-5.62,0.01c-2.26,0.24-3.45-0.5-4.6-2.61c-2.42-4.44-18.48-5.2-21.59-1.22c-1.5,1.92-1.84,4.06-0.76,6.33
		c1.07,2.23,2.84,3.47,5.32,3.49c3.75,0.04,7.5-0.06,11.24-0.02c9.7,0.12,17.68,7.19,18.74,16.57c0.94,8.37-5.58,16.75-14.88,18.79
		c-2.4,0.53-3.48,1.44-3.05,3.92c0.37,2.1-0.55,2.96-2.68,2.74c-1.36-0.14-2.75-0.11-4.12-0.01c-3.2,0.25-6.09,0.38-5.24-4.38
		c0.42-2.37-1.9-1.9-3.13-2.2c-7.66-1.85-12.3-6.59-14.39-14.15c-0.81-2.91,0.18-3.54,2.8-3.32c1.74,0.14,3.51,0.18,5.24-0.01
		c2.27-0.25,3.44,0.52,4.59,2.62c2.43,4.43,18.5,5.18,21.59,1.2c1.4-1.8,1.8-3.82,0.9-5.99c-0.95-2.27-2.62-3.66-5.11-3.79
		C325.73,317.87,323.48,317.96,320.37,317.96z"/>
</g>
</svg>
