<?xml version="1.0" encoding="utf-8"?>
<!-- Generator: Adobe Illustrator 23.0.0, SVG Export Plug-In . SVG Version: 6.00 Build 0)  -->
<svg version="1.1" id="Layer_1" xmlns="http://www.w3.org/2000/svg" xmlns:xlink="http://www.w3.org/1999/xlink" x="0px" y="0px"
	 width="383.98px" height="385.33px" viewBox="0 0 383.98 385.33" style="enable-background:new 0 0 383.98 385.33;"
	 xml:space="preserve">
<g>
	<path style="fill:#F43759;" d="M36.23,1.92c4,3.45,5.94,14.84,3.25,19.56c-1.42,2.5-3.69,3.77-6.55,3.34
		c-3.17-0.48-5.33-2.46-5.57-5.67c-0.29-3.84-0.19-7.72-0.01-11.57c0.13-2.78,2.39-4.18,4.38-5.65C33.23,1.92,34.73,1.92,36.23,1.92
		z"/>
	<path style="fill:#1A76D1;" d="M384.98,355.17c-2.03,3.45-4.97,4.94-9.02,4.54c-2.47-0.24-4.99,0.05-7.47-0.08
		c-3.74-0.21-6.47-2.97-6.53-6.41c-0.06-3.3,2.34-6.09,5.96-6.54c3.71-0.46,7.45-0.28,11.19-0.04c2.83,0.18,4.18,2.31,5.88,4.03
		C384.98,352.17,384.98,353.67,384.98,355.17z"/>
	<path style="fill:#1FD3AE;" d="M324.38,273.45c-0.05,5.36-0.07,10.73-0.14,16.09c-0.13,9.72-7.06,16.79-16.82,16.8
		c-57.54,0.05-115.08,0.03-172.63,0.02c-1.41,0-3,0.48-3.22-1.93c-1.27-14.15-9.34-22.58-22.6-26.57c-1.2-2.52-0.2-5.15-0.3-7.72
		c-0.18-4.48-0.03-8.97-0.06-13.46c-0.01-1.37-0.1-2.74-0.47-4.07c-0.77-2.71-2.1-4.87-5.31-4.85c-2.79,0.02-5.15,2.38-5.35,5.71
		c-0.38,6.34-0.07,12.71-0.16,19.06c-0.03,1.84,0.28,3.78-1.06,5.37c-10.59,3.28-18.12,9.74-21.31,20.65
		c-0.07,0.24-0.19,0.47-0.24,0.71c-0.48,2.28-0.24,5.73-1.6,6.56c-1.93,1.18-5.04,0.5-7.65,0.52c-6.5,0.03-13,0.06-19.49,0
		c-9.98-0.09-17.11-7.02-17.12-16.96c-0.05-52.73-0.06-105.46,0-158.19c0.01-9.63,6.33-15.97,16.42-16.94
		c15.77-0.44,31.53-1.55,47.33-1.02c1.12,0.04,2.24,0.12,3.27,0.65c1.67,1.22,1.43,3.07,1.46,4.76c0.08,5.35,0.02,10.69,0.04,16.04
		c0.01,1.49-0.01,2.99,0.42,4.44c0.71,2.36,2.12,3.96,4.75,3.99c2.51,0.03,4.25-1.19,5.19-3.52c0.76-1.88,0.87-3.87,0.88-5.86
		c0.03-4.97-0.04-9.95,0.04-14.92c0.02-1.71-0.21-3.53,1.33-4.86c1.75-0.92,3.65-0.74,5.51-0.74c63.47-0.01,126.93-0.03,190.4,0.01
		c12.54,0.01,19.55,7.01,19.56,19.51c0.04,44.98,0.02,89.95,0,134.93C325.43,269.64,325.7,271.7,324.38,273.45z"/>
	<path style="fill:#E9E9E9;" d="M96.24,114.49c-15.37-0.02-30.74-0.05-46.12-0.08c-1.62,0-3.24-0.09-4.86-0.14
		c4.27-1.28,8.65-0.5,12.97-0.5c2.86,0,3.71-0.93,3.55-3.68c-0.21-3.61,0.11-7.25-0.08-10.87c-0.55-10.11,7.28-17.85,17.72-17.84
		c86.6,0.09,173.2,0.05,259.81,0.05c10.98,0,17.99,6.98,18,18.02c0.02,35.87,0.01,71.73,0.01,107.6c0,16.12-0.22,32.25,0.08,48.36
		c0.2,10.59-8.13,18.73-17.93,18.08c-4.98-0.33-9.99-0.05-14.99-0.04c-0.05-5.87-0.13-11.74-0.13-17.61
		c-0.01-40.99,0-81.98-0.01-122.97c0-12.05-6.44-18.48-18.49-18.49c-64.11-0.01-128.22,0-192.33,0c-1.25,0-2.49,0.09-3.74,0.14
		C105.2,116.18,100.72,116.21,96.24,114.49z"/>
	<path style="fill:#0EAE89;" d="M96.26,277.91c-0.01-7.87-0.04-15.74-0.02-23.61c0.01-4.29,2.4-7.41,5.92-7.85
		c3.69-0.46,6.89,1.77,7.21,6.43c0.56,8.3,1.07,16.68-0.38,24.98C104.74,277.53,100.5,277.61,96.26,277.91z"/>
	<path style="fill:#F43859;" d="M12.45,28.22c1.86,0,3.74-0.15,5.59,0.03c3.3,0.32,5.79,3,5.96,6.16c0.17,3.12-2.08,6.1-5.36,6.63
		c-4.06,0.66-8.19,0.65-12.25,0c-3.43-0.54-5.51-3.27-5.38-6.56c0.13-3.17,2.57-5.89,5.85-6.23C8.7,28.07,10.58,28.23,12.45,28.22z"
		/>
	<path style="fill:#1976D1;" d="M358.67,374.51c0,1.86,0.17,3.75-0.04,5.59c-0.36,3.28-3.12,5.7-6.28,5.8
		c-3.27,0.1-6.01-2.04-6.51-5.44c-0.58-3.94-0.54-7.95-0.04-11.9c0.43-3.36,3.2-5.66,6.37-5.67c3.28-0.01,6.15,2.56,6.48,6.02
		c0.18,1.85,0.03,3.73,0.03,5.59C358.68,374.51,358.67,374.51,358.67,374.51z"/>
	<path style="fill:#F43759;" d="M55.26,28.19c1.62,0,3.25-0.09,4.87,0.02c3.71,0.24,6.15,2.64,6.35,6.11
		c0.2,3.53-1.89,6.25-5.55,6.79c-3.84,0.56-7.74,0.56-11.57,0.01c-3.71-0.53-5.81-3.21-5.65-6.73c0.15-3.37,2.71-5.93,6.32-6.18
		C51.76,28.09,53.51,28.19,55.26,28.19z"/>
	<path style="fill:#F43759;" d="M27.28,56.08c0-1.87-0.16-3.76,0.03-5.62c0.35-3.34,3.03-5.74,6.26-5.83
		c3.37-0.1,6.03,1.96,6.54,5.41c0.58,3.96,0.59,7.98,0.02,11.95c-0.49,3.45-3.16,5.53-6.52,5.45c-3.46-0.08-6.05-2.51-6.34-6.13
		c-0.14-1.74-0.02-3.5-0.02-5.24C27.27,56.08,27.28,56.08,27.28,56.08z"/>
	<path style="fill:#1A76D1;" d="M330.68,359.63c-1.75,0-3.51,0.13-5.24-0.03c-3.46-0.32-5.78-2.78-5.97-6.1
		c-0.2-3.52,1.93-6.27,5.57-6.78c3.84-0.54,7.74-0.54,11.58-0.01c3.69,0.51,5.82,3.23,5.65,6.73c-0.17,3.37-2.73,5.92-6.33,6.18
		c-1.74,0.12-3.5,0.02-5.25,0.02C330.68,359.64,330.68,359.64,330.68,359.63z"/>
	<path style="fill:#1976D1;" d="M358.66,331.85c0,1.87,0.17,3.77-0.04,5.62c-0.38,3.32-3.11,5.68-6.35,5.74
		c-3.35,0.06-6-2.04-6.46-5.51c-0.53-3.97-0.57-7.99,0.01-11.95c0.5-3.41,3.23-5.48,6.6-5.35c3.32,0.12,5.88,2.42,6.22,5.84
		c0.19,1.85,0.03,3.74,0.03,5.62C358.67,331.85,358.67,331.85,358.66,331.85z"/>
	<path style="fill:#FEFEFE;" d="M214.41,157.87c-22.85,0-45.7,0-68.55-0.01c-1.49,0-2.98,0.11-4.44-0.42
		c-2.92-1.06-4.56-3.15-4.55-6.18c0.01-3.02,1.56-5.27,4.55-6.14c1.41-0.41,2.95-0.51,4.43-0.51c45.58-0.03,91.16-0.02,136.73-0.02
		c0.75,0,1.5-0.03,2.25,0.03c4.29,0.38,7.14,3.16,7.01,6.82c-0.13,3.71-3.04,6.37-7.37,6.41c-9.24,0.08-18.48,0.03-27.72,0.03
		C242.63,157.87,228.52,157.87,214.41,157.87z"/>
	<path style="fill:#FEFEFE;" d="M214.31,275.88c-22.62,0-45.24,0-67.86,0c-1.25,0-2.51,0.05-3.75-0.09
		c-3.37-0.36-5.77-2.93-5.89-6.2c-0.11-3.13,2.3-6.1,5.51-6.6c1.22-0.19,2.49-0.12,3.74-0.12c45.49,0,90.98,0,136.47,0
		c0.87,0,1.75-0.03,2.62,0.03c3.92,0.25,6.75,3.1,6.66,6.68c-0.09,3.42-2.86,6.21-6.65,6.25c-10.37,0.1-20.75,0.05-31.12,0.05
		C240.81,275.89,227.56,275.88,214.31,275.88z"/>
	<path style="fill:#FEFEFE;" d="M201.95,196.86c0.27,4.83-0.58,9.46-2.94,13.71c-3.44,6.2-8.8,9.57-15.87,9.44
		c-7.1-0.12-12.35-3.76-15.42-10.12c-3.23-6.69-3.38-13.77-1.46-20.83c2.63-9.69,10.48-15.4,19.55-14.53
		c8.87,0.86,15.17,7.8,16.12,17.84C202.07,193.85,201.95,195.36,201.95,196.86z"/>
	<path style="fill:#FEFEFE;" d="M226.63,223.76c-0.11-5.89,1.03-10.94,4.03-15.44c3.85-5.8,9.33-8.48,16.25-7.97
		c7.36,0.54,12.38,4.51,14.78,11.35c2.88,8.19,2.82,16.48-1.21,24.32c-3.36,6.54-8.89,10.01-16.39,9.67
		c-7.16-0.32-12.12-4.07-15.15-10.45C227.16,231.45,226.48,227.42,226.63,223.76z"/>
	<path style="fill:#FEFEFE;" d="M242.17,174.45c-4.57,7.99-8.76,15.33-12.95,22.66c-8.81,15.37-17.67,30.71-26.37,46.15
		c-1.28,2.27-2.65,3.29-5.25,3.04c-2.35-0.22-4.74-0.04-7.12-0.05c-3.99-0.02-4.02-0.04-2.11-3.4c6.05-10.62,12.12-21.24,18.2-31.85
		c6.45-11.26,12.99-22.47,19.32-33.8c1.22-2.18,2.58-2.96,5-2.81C234.38,174.6,237.88,174.45,242.17,174.45z"/>
	<path style="fill:#0EAE89;" d="M96.24,218.36c0-3.61-0.08-7.22,0.02-10.83c0.1-3.72,2.45-6.53,5.56-6.85
		c3.89-0.41,6.78,1.43,7.3,5.64c1.04,8.38,1.18,16.84-0.18,25.21c-0.51,3.12-3.85,5.39-6.8,5.1c-2.89-0.28-5.75-3.17-5.87-6.32
		C96.13,226.33,96.24,222.35,96.24,218.36z"/>
	<path style="fill:#0EAE89;" d="M109.78,172.52c-0.44,4.19,0.54,8.44-0.68,12.61c-0.99,3.4-4.02,5.99-6.88,5.64
		c-3.37-0.42-5.93-3.34-5.96-7.03c-0.06-7.47-0.06-14.94,0-22.4c0.03-3.77,2.03-6.03,5.4-6.41c4.02-0.46,6.32,1.18,7.43,4.99
		C110.3,164.08,109.34,168.33,109.78,172.52z"/>
	<path style="fill:#0EAE89;" d="M96.24,114.49c4.48-0.27,8.96-0.32,13.44,0.03c0.01,7.1,0.09,14.21,0,21.31
		c-0.07,5.47-2.51,8.46-6.71,8.6c-4.23,0.15-6.66-2.33-6.71-7.14C96.17,129.7,96.24,122.09,96.24,114.49z"/>
	<path style="fill:#20D3AF;" d="M187.93,197.18c-0.09,2.74,0,5.52-1.31,8.06c-1.55,3-4.3,3.12-6.1,0.3
		c-2.13-3.34-1.68-13.88,0.73-17.02c1.61-2.1,3.69-2,5.11,0.3C187.97,191.4,187.84,194.31,187.93,197.18z"/>
	<path style="fill:#20D3AF;" d="M249.37,223.14c-0.04,2.75-0.03,5.51-1.41,8c-1.56,2.82-4.32,2.98-5.67,0.07
		c-2.54-5.48-2.46-11.17,0.2-16.57c1.36-2.76,3.91-2.57,5.44,0.13C249.41,217.37,249.34,220.27,249.37,223.14z"/>
</g>
</svg>
