<?xml version="1.0" encoding="utf-8"?>
<!-- Generator: Adobe Illustrator 23.0.0, SVG Export Plug-In . SVG Version: 6.00 Build 0)  -->
<svg version="1.1" id="Layer_1" xmlns="http://www.w3.org/2000/svg" xmlns:xlink="http://www.w3.org/1999/xlink" x="0px" y="0px"
	 width="385.1px" height="392.66px" viewBox="0 0 385.1 392.66" style="enable-background:new 0 0 385.1 392.66;"
	 xml:space="preserve">
<g>
	<path style="fill:#ECF1F1;" d="M37.37,5.2c36.75,0,73.5,0,110.25,0c1.43,1.51,1.36,3.43,1.36,5.3c0.03,39.23,0.03,78.47,0,117.7
		c0,1.74,0.04,3.52-0.97,5.08c-1.93,1.92-4.41,1.47-6.74,1.47c-26.25,0.04-52.5,0.02-78.74,0.02c-1.87,0-3.76-0.08-5.62,0.16
		c-5.2,0.66-9.09,4.88-9.08,9.8c0.01,4.92,3.92,9.1,9.14,9.74c1.74,0.21,3.49,0.15,5.24,0.15c26.25,0,52.5-0.01,78.74,0.02
		c2.33,0,4.79-0.42,6.85,1.24c0.75,0.9,1.01,1.98,1.05,3.1c0.18,5.54,0.2,11.09-0.02,16.63c-0.04,0.99-0.3,1.95-0.92,2.77
		c-1.98,1.8-4.46,1.36-6.78,1.36c-25.98,0.04-51.96,0.02-77.94,0.02c-1.5,0-3-0.03-4.5,0.04c-6.57,0.28-10.93,4.29-10.87,10
		c0.06,5.56,4.35,9.49,10.7,9.78c1.5,0.07,3,0.04,4.5,0.04c25.98,0,51.96-0.01,77.94,0.02c2.33,0,4.79-0.42,6.85,1.24
		c0.75,0.9,1.01,1.98,1.04,3.1c0.18,5.54,0.2,11.09-0.02,16.63c-0.04,0.99-0.3,1.95-0.92,2.77c-1.98,1.8-4.46,1.36-6.78,1.36
		c-25.98,0.04-51.96,0.02-77.94,0.02c-1.5,0-3-0.03-4.5,0.04c-6.57,0.28-10.93,4.29-10.86,10c0.06,5.56,4.35,9.49,10.7,9.78
		c1.5,0.07,3,0.04,4.5,0.04c25.98,0,51.96-0.01,77.94,0.02c2.33,0,4.79-0.42,6.85,1.24c0.75,0.9,1.01,1.98,1.04,3.1
		c0.19,5.42,0.17,10.84,0.01,16.26c-0.03,1.12-0.26,2.21-0.96,3.13c-1.99,1.8-4.46,1.36-6.79,1.36
		c-26.24,0.04-52.49,0.02-78.73,0.02c-1.87,0-3.76-0.08-5.62,0.17c-5.18,0.71-9.03,5.01-8.94,9.92c0.09,4.76,3.89,8.89,8.9,9.59
		c1.86,0.26,3.74,0.17,5.62,0.17c26.24,0,52.49-0.01,78.73,0.02c2.33,0,4.8-0.43,6.81,1.34c1.18,1.64,1.08,3.55,1.08,5.4
		c0.03,29.18,0.03,58.35,0,87.53c0,1.73,0.11,3.51-0.95,5.06c-1.18,1.06-2.63,0.57-3.94,0.57c-34.48,0.03-68.97,0.04-103.45,0.02
		c-17.62-0.01-32.99-11.36-38.29-28.18c-1.18-3.74-1.32-7.63-1.32-11.48C0.99,248.07,1,146.25,1.01,44.42
		c0-17.63,9.24-29.18,24.36-36.82C29.14,5.7,33.36,5.98,37.37,5.2z"/>
	<path style="fill:#C8DBDB;" d="M147.64,268.28c0-7.39,0-14.78,0-22.17c0.1-0.16,0.21-0.32,0.31-0.49c1.95-1.2,4.13-0.71,6.21-0.79
		c6.64-0.24,11.07-4.32,11.02-10.23c-0.04-5.9-4.47-9.87-11.18-10.05c-1.86-0.05-3.75,0.22-5.56-0.46c-0.37-0.18-0.63-0.45-0.8-0.82
		c0-7.39,0-14.78,0-22.17c0.1-0.16,0.21-0.32,0.31-0.49c1.95-1.2,4.13-0.71,6.21-0.79c6.64-0.24,11.07-4.32,11.02-10.23
		c-0.04-5.9-4.47-9.87-11.18-10.05c-1.86-0.05-3.75,0.22-5.56-0.46c-0.37-0.18-0.63-0.45-0.8-0.82c0-7.39,0-14.78,0-22.17
		c0.13-0.18,0.26-0.35,0.39-0.53c1.69-1.1,3.61-0.86,5.46-0.86c9.36-0.03,18.73-0.01,28.09-0.02c1.25,0,2.5,0.02,3.74-0.09
		c5.74-0.51,9.7-4.59,9.69-9.96c-0.02-5.38-3.98-9.63-9.76-9.83c-10.23-0.35-20.47-0.07-30.71-0.14c-1.99-0.01-4,0.22-5.94-0.5
		c-0.42-0.2-0.74-0.5-0.96-0.9c-0.01-42.69-0.01-85.39-0.02-128.08c21.5,0,43,0,64.5,0c0.27,0.4,0.41,0.85,0.42,1.33
		c0.36,15.85,0.07,31.7,0.16,47.55c0.04,6.74-0.05,13.48,0.02,20.22c0.09,8.02,3.97,12,11.98,12.04
		c20.97,0.09,41.94,0.03,62.91,0.03c1.99,0,3.99-0.02,5.97,0.32c2.19,1.79,1.64,4.32,1.65,6.61c0.05,22.96,0.03,45.91,0.03,68.87
		c0,10.73,0.01,21.46-0.01,32.19c0,1.87,0.11,3.75-0.45,5.56c-0.79,2.07-2.63,2.1-4.37,2.11c-21.62,0.07-43.24,0.07-64.86,0
		c-1.34,0-3.06,0.15-3.61-1.36c-0.52-1.45,0.82-2.51,1.76-3.47c6.66-6.77,13.41-13.45,20.12-20.17c1.5-1.51,2.96-3.04,3.96-4.96
		c2.21-4.25,1.56-8.9-1.73-12.06c-3.22-3.1-7.63-3.64-11.79-1.48c-1.8,0.94-3.28,2.27-4.69,3.69
		c-13.43,13.43-26.88,26.84-40.28,40.3c-6.97,7-6.99,12.35-0.07,19.3c13.58,13.64,27.19,27.25,40.83,40.82
		c4.84,4.82,9.09,5.77,13.76,3.3c4.71-2.49,6.57-7.96,4.37-12.83c-0.94-2.09-2.4-3.78-4-5.38c-6.01-6.01-12.02-12.01-18.03-18.03
		c-0.8-0.8-1.62-1.57-2.37-2.4c-0.91-1.01-2.31-2.05-1.85-3.47c0.56-1.73,2.45-1.46,3.89-1.46c21.49-0.06,42.99-0.06,64.48,0
		c1.6,0,3.32-0.06,4.29,1.69c0.72,1.8,0.59,3.69,0.59,5.56c0.01,39.35,0.04,78.71,0,118.06c-0.02,17.86-10.64,33.33-27.17,39.95
		c-3.92,1.57-8.03,1.89-12.12,1.9c-35.11,0.08-70.21,0.05-105.32,0.03c-0.97,0-2.01,0.28-2.9-0.39
		c-0.01-32.68-0.01-65.37-0.02-98.05c0.13-0.18,0.26-0.35,0.39-0.53c1.69-1.1,3.61-0.86,5.46-0.86c9.36-0.03,18.73-0.01,28.09-0.02
		c1.25,0,2.5,0.02,3.74-0.09c5.74-0.51,9.7-4.59,9.69-9.96c-0.02-5.38-3.98-9.63-9.76-9.83c-10.23-0.35-20.47-0.07-30.71-0.14
		c-1.99-0.01-4,0.22-5.94-0.5C148.18,268.99,147.86,268.69,147.64,268.28z"/>
	<path style="fill:#176EDD;" d="M385.37,215.2c-2.98,6.48-8.11,8.42-15.07,8.36c-25.46-0.24-50.93-0.03-76.4,0.01
		c-23.83,0-47.66,0-71.7,0c0.28,1.5,1.43,2.14,2.24,2.96c7.4,7.44,14.92,14.76,22.21,22.31c6.52,6.75,4.11,16.54-4.55,19.13
		c-4.25,1.27-8.01,0.07-11.02-2.92c-14.99-14.87-29.94-29.77-44.79-44.79c-4.72-4.78-4.71-11.36,0-16.13
		c14.84-15.01,29.77-29.94,44.79-44.79c4.65-4.6,11.45-4.49,15.88-0.21c4.51,4.36,4.64,11.29-0.05,16.15
		c-7.2,7.46-14.61,14.72-21.97,22.02c-0.96,0.96-2.19,1.65-3.3,2.46c0.2,0.35,0.4,0.71,0.6,1.06c23.89,0,47.77,0,71.66,0
		c25.47,0.04,50.94,0.25,76.4,0.01c6.96-0.06,12.09,1.88,15.07,8.36C385.37,211.2,385.37,213.2,385.37,215.2z"/>
	<path style="fill:#646E6E;" d="M147.64,156.11c-7.61-0.06-15.22-0.15-22.83-0.16c-22.22-0.02-44.44,0.02-66.66-0.03
		c-6.27-0.01-11-4.13-11.71-9.92c-0.68-5.57,3.07-10.93,8.75-12.24c1.55-0.36,3.22-0.3,4.83-0.31c27.71-0.02,55.43-0.01,83.14-0.02
		c1.49,0,2.99-0.1,4.48-0.16l-0.04,0.32c0.24,0.27,0.62,0.49,0.68,0.86c1.11,6.82,1.11,13.65,0,20.48
		c-0.06,0.37-0.43,0.59-0.68,0.86L147.64,156.11z"/>
	<path style="fill:#646E6E;" d="M147.64,201.11c-7.61-0.06-15.22-0.15-22.83-0.16c-22.22-0.02-44.44,0.02-66.66-0.03
		c-6.27-0.01-11-4.13-11.71-9.92c-0.68-5.57,3.07-10.93,8.75-12.24c1.55-0.36,3.22-0.3,4.83-0.31c27.71-0.02,55.43-0.01,83.14-0.02
		c1.49,0,2.99-0.1,4.48-0.16l-0.04,0.32c0.24,0.27,0.62,0.49,0.68,0.86c1.11,6.82,1.11,13.65,0,20.48
		c-0.06,0.37-0.43,0.59-0.68,0.86L147.64,201.11z"/>
	<path style="fill:#646E6E;" d="M147.64,246.11c-7.61-0.06-15.22-0.15-22.83-0.16c-22.22-0.02-44.44,0.02-66.66-0.03
		c-6.27-0.01-11-4.13-11.71-9.92c-0.68-5.57,3.07-10.93,8.75-12.24c1.55-0.36,3.22-0.3,4.83-0.31c27.71-0.02,55.43-0.01,83.14-0.02
		c1.49,0,2.99-0.1,4.48-0.16l-0.04,0.32c0.24,0.27,0.62,0.49,0.68,0.86c1.11,6.82,1.11,13.65,0,20.48
		c-0.06,0.37-0.43,0.59-0.68,0.86C147.6,245.8,147.64,246.11,147.64,246.11z"/>
	<path style="fill:#646E6E;" d="M147.64,291.11c-7.61-0.06-15.22-0.15-22.83-0.16c-22.22-0.02-44.44,0.02-66.66-0.03
		c-6.27-0.01-11-4.13-11.71-9.92c-0.68-5.57,3.07-10.93,8.75-12.24c1.55-0.36,3.22-0.3,4.83-0.31c27.71-0.02,55.43-0.01,83.14-0.02
		c1.49,0,2.99-0.1,4.48-0.16l-0.04,0.32c0.24,0.27,0.62,0.49,0.68,0.86c1.11,6.82,1.11,13.65,0,20.48
		c-0.06,0.37-0.43,0.59-0.68,0.86L147.64,291.11z"/>
	<path style="fill:#A4BEBE;" d="M212.16,5.9c16.45,16.38,32.91,32.75,49.33,49.16c10.59,10.59,21.12,21.24,31.68,31.86
		c-1.1,1.23-2.57,0.76-3.88,0.76c-21.98,0.03-43.96,0.03-65.94,0.01c-7.04-0.01-11.96-4.93-11.97-11.97
		c-0.02-21.98-0.01-43.96,0.01-65.94C211.39,8.46,210.93,7,212.16,5.9z"/>
	<path style="fill:#3C4646;" d="M147.6,155.8c0-7.4,0-14.8,0-22.19c12.75-0.05,25.49-0.2,38.24-0.1
		c5.88,0.04,10.46,5.08,10.53,11.01c0.07,6.15-4.5,11.33-10.53,11.38C173.09,156,160.35,155.84,147.6,155.8z"/>
	<path style="fill:#3C4646;" d="M147.6,290.8c0-7.4,0-14.8,0-22.19c12.75-0.05,25.49-0.2,38.24-0.1
		c5.88,0.04,10.46,5.08,10.53,11.01c0.07,6.15-4.5,11.33-10.53,11.38C173.09,291,160.35,290.84,147.6,290.8z"/>
	<path style="fill:#3C4646;" d="M147.6,200.8c0-7.4,0-14.8,0-22.19c2.87-0.05,5.75-0.26,8.61-0.1c5.66,0.32,10.09,5.23,10.16,11
		c0.07,6-4.34,11.04-10.16,11.38C153.35,201.06,150.47,200.84,147.6,200.8z"/>
	<path style="fill:#3C4646;" d="M147.6,245.8c0-7.4,0-14.8,0-22.19c2.87-0.05,5.75-0.26,8.61-0.1c5.66,0.32,10.09,5.23,10.16,11
		c0.07,6-4.34,11.04-10.16,11.38C153.35,246.06,150.47,245.84,147.6,245.8z"/>
</g>
</svg>
