<?xml version="1.0" encoding="utf-8"?>
<!-- Generator: Adobe Illustrator 23.0.0, SVG Export Plug-In . SVG Version: 6.00 Build 0)  -->
<svg version="1.1" xmlns="http://www.w3.org/2000/svg" xmlns:xlink="http://www.w3.org/1999/xlink" x="0px" y="0px" width="3710px"
	 height="3434.15px" viewBox="0 0 3710 3434.15" style="enable-background:new 0 0 3710 3434.15;" xml:space="preserve">
<g id="Background">
	<g>
		<path style="fill-rule:evenodd;clip-rule:evenodd;fill:#C7DCF5;" d="M595.93,1587.45c-35.08-14.27-66.65-34.59-93.65-59.49
			l-38.46,27.07c-12.31,8.65-29.37,5.71-38.04-6.6l-11.1-15.82l-22.79-32.42l-11.1-15.82c-8.65-12.31-5.7-29.4,6.6-38.04l38.46-27
			c-14.27-33.83-22.71-70.46-24.26-108.29l-46.33-8.08c-14.78-2.53-24.76-16.73-22.15-31.5l3.3-19.05l6.83-39.09l3.31-19.05
			c2.59-14.78,16.79-24.76,31.57-22.23l46.25,8.09c14.27-35.09,34.59-66.66,59.51-93.66l-27.07-38.46
			c-8.6-12.22-5.64-29.39,6.58-37.97l15.9-11.11l32.43-22.86l15.81-11.1c12.24-8.64,29.32-5.62,37.96,6.6l27.08,38.46
			c33.84-14.26,70.38-22.7,108.28-24.25l8.04-46.28c2.57-14.76,16.79-24.75,31.55-22.21l19.05,3.37l39.1,6.82l19.05,3.31
			c14.76,2.53,24.77,16.72,22.15,31.5l-8.08,46.33c35.15,14.27,66.72,34.59,93.65,59.41l38.55-27c12.2-8.64,29.32-5.69,37.95,6.62
			l11.1,15.82l22.79,32.4l11.17,15.84c8.59,12.3,5.63,29.39-6.58,38.04l-38.55,27.01c14.27,33.81,22.71,70.38,24.26,108.27
			l46.33,8.09c14.78,2.53,24.76,16.73,22.15,31.5l-3.3,19.05l-6.83,39.1l-3.3,19.05c-2.6,14.75-16.78,24.74-31.58,22.14l-46.25-8.02
			c-14.27,35.08-34.59,66.66-59.49,93.66l27.04,38.45c8.68,12.31,5.64,29.33-6.58,37.97l-15.83,11.12L915.92,1620l-15.82,11.12
			c-12.23,8.65-29.32,5.63-37.96-6.61l-27.08-38.46c-33.82,14.28-70.38,22.72-108.19,24.27l-8.1,46.25
			c-2.6,14.78-16.81,24.76-31.56,22.23l-19.06-3.38l-39.03-6.82l-19.05-3.3c-14.83-2.53-24.75-16.75-22.22-31.5L595.93,1587.45z
			 M100.16,1124.93l-20.18-36.07c-7.31-13.01-2.64-29.6,10.34-36.85l22.93-12.86c-3.25-18.28-2.94-36.77,0.69-54.57L91.3,971.16
			c-12.81-7.6-17.01-24.26-9.42-37.06l21.09-35.57c7.6-12.79,24.34-17.08,37.13-9.43l22.57,13.37c6.91-5.77,14.43-10.97,22.58-15.54
			c8.08-4.57,16.52-8.23,25.03-11.1l0.35-26.31c0.14-14.91,12.51-26.93,27.35-26.71l41.35,0.49c14.92,0.2,26.93,12.52,26.79,27.41
			l-0.35,26.29c17.08,6.19,33.04,15.54,46.91,27.85l22.9-12.87c13.01-7.31,29.62-2.6,36.84,10.34l20.26,36.04
			c7.3,13.03,2.6,29.62-10.34,36.86l-22.92,12.86c3.24,18.29,2.89,36.78-0.69,54.57l22.57,13.42c12.79,7.6,17.08,24.27,9.49,37.13
			l-21.16,35.51c-7.61,12.79-24.27,17.09-37.06,9.49l-22.65-13.42c-6.9,5.75-14.42,10.97-22.5,15.54
			c-8.15,4.57-16.52,8.3-25.01,11.1l-0.38,26.29c-0.2,14.91-12.52,26.93-27.4,26.72l-41.35-0.49c-14.82-0.2-26.93-12.51-26.72-27.43
			l0.35-26.29c-17.06-6.19-33.04-15.54-46.97-27.84l-22.85,12.87C124.07,1142.57,107.46,1137.94,100.16,1124.93L100.16,1124.93z
			 M201.76,1051.95c-21.17-30.09-13.92-71.64,16.16-92.89c30.17-21.16,71.72-13.94,92.89,16.25c21.23,30.09,14.02,71.71-16.18,92.88
			C264.55,1089.36,222.94,1082.1,201.76,1051.95L201.76,1051.95z M470.71,919.2l-28.04-30.37c-10.14-10.9-9.5-28.13,1.48-38.26
			l19.24-17.85C456,815.77,452,797.7,451.37,779.48l-25.1-7.73c-14.28-4.42-22.3-19.69-17.87-33.88l12.23-39.51
			c4.43-14.23,19.71-22.23,33.91-17.8l25.08,7.75c5.34-7.25,11.46-14.07,18.28-20.39c6.83-6.34,14.14-11.89,21.73-16.67l-5.76-25.6
			c-3.3-14.55,5.91-29.11,20.39-32.41l40.35-9.15c14.49-3.3,29.05,5.91,32.34,20.46l5.84,25.58c18.09,2.06,35.72,7.47,52.1,16.2
			l19.29-17.87c10.96-10.12,28.18-9.43,38.25,1.48l28.11,30.38c10.13,10.89,9.41,28.12-1.48,38.24l-19.33,17.86
			c7.46,16.95,11.47,35.02,12.02,53.15l25.16,7.81c14.22,4.43,22.23,19.68,17.87,33.88l-12.31,39.53
			c-4.33,14.19-19.61,22.21-33.81,17.78l-25.11-7.72c-5.41,7.16-11.44,14.06-18.28,20.38c-6.9,6.33-14.19,11.88-21.81,16.6
			l5.84,25.66c3.3,14.55-5.91,29.11-20.46,32.42l-40.29,9.13c-14.55,3.31-29.12-5.91-32.41-20.46l-5.84-25.66
			c-18-1.97-35.71-7.39-52.1-16.1l-19.28,17.85C498.06,930.81,480.85,930.09,470.71,919.2L470.71,919.2z M542.07,812.89
			c-21.23-30.09-13.98-71.65,16.18-92.89c30.09-21.16,71.71-13.93,92.9,16.24c21.15,30.1,13.9,71.65-16.2,92.88
			C604.79,850.3,563.24,843.04,542.07,812.89L542.07,812.89z M529.07,1427.98c-35.86-51.04-47.68-111.8-37.76-168.75
			c9.92-56.94,41.55-110.12,92.6-145.96c50.98-35.87,111.73-47.69,168.68-37.77c56.95,9.92,110.13,41.63,146.05,92.6
			c35.86,51.06,47.66,111.81,37.68,168.76c-9.9,56.96-41.55,110.1-92.6,145.97c-50.98,35.85-111.74,47.66-168.68,37.75
			C618.08,1510.6,564.92,1478.95,529.07,1427.98L529.07,1427.98z M552.06,1269.85c-7.18,41.42,1.4,85.5,27.49,122.62
			c26.08,37.05,64.69,60.11,106.12,67.3c41.33,7.23,85.5-1.34,122.61-27.43c37.08-26.08,60.04-64.69,67.29-106.11
			c7.18-41.41-1.4-85.5-27.41-122.63c-26.09-37.05-64.77-60.11-106.11-67.28c-41.4-7.25-85.58,1.33-122.63,27.41
			C582.29,1189.84,559.3,1228.43,552.06,1269.85L552.06,1269.85z M552.06,1269.85"/>
		<path style="fill-rule:evenodd;clip-rule:evenodd;fill:#E7F1FB;" d="M2307.85,617.13c-402.91,0-461.84,639.42-784.7,834.24
			c-427.3,258-1163.8,347.93-1236.45,790.61c-127.53,777.17,780.39,841.15,1716.6,841.15c936.15,0,1805.71-431.01,1654.19-1206.21
			C3505.96,1101.8,3244.05,617.13,2307.85,617.13L2307.85,617.13z M2307.85,617.13"/>
		<path style="fill-rule:evenodd;clip-rule:evenodd;fill:#A8D29F;" d="M1071.23,2022.89c49.03-4.63,73.44,11.6-44.7,106.18
			c-57.02,45.64-197.93,144.64-269.86,167.06c-112.43,35-271.7,33.55-353.33,18.84c-64.97-11.6-25.45-84.02,39.73-112.63
			c194.14-85.14-235.69-30.81-218.61-184.01c4.5-40.15,85.72-45.56,139.86-59.62c60.32-15.61,28.48-67.66-1.27-92.46
			c-57.59-47.96-136.62-80.8-106.31-160.39c37.19-97.95,117,6.75,169.87-103.01c20.18-41.84-3.44-131.22-10.95-174.23
			c-15.91-90.92,29.23-207.49,108.4-212.7c82.89-5.42,57.51,125.51,97.52,171.77c80.53,93.24,99.49-89.23,174.02-67.57
			c132.21,38.38,2.68,225.7-9,265.78c-7.92,27.21-2.53,47.33,40.99,35.44c49.08-13.43,111.87-108.85,150.9-83.53
			c154.85,100.12-119.25,253.48-112.06,297.35c8.98,54.21,118.19-49.65,187.52-50.14c111.72-0.76-16.55,129.31-84.88,190.9
			C850.75,2082.66,1032.51,2026.62,1071.23,2022.89L1071.23,2022.89z M1071.23,2022.89"/>
		<path style="fill-rule:evenodd;clip-rule:evenodd;fill:#82B378;" d="M494.05,1286.08c-0.64-5.41,4.01-10.4,10.33-11.24
			c6.34-0.78,12.02,3.02,12.66,8.44c15.32,129.02,39.6,265.07,72.84,408.16c56.53-66.16,100.97-126.49,133.19-181.05
			c34.79-58.78,55.19-110.53,61.37-155.25c0.72-5.42,6.47-9.5,12.81-9.08c6.32,0.43,10.82,5.14,10.05,10.62
			c-6.47,47.18-27.71,101.25-63.71,162.15c-35.08,59.27-84.28,125.36-147.73,198.2c2.69,11.33,5.42,22.65,8.23,34.03
			c11.88,48.38,24.82,97.6,38.76,147.67c0.11,0.27,0.19,0.63,0.19,0.99c5.49,19.47,11.05,39.02,16.73,58.77
			c36.29-100.48,105.05-163.89,168.18-222.04c58.15-53.51,111.31-102.45,126.94-171.63c1.18-5.35,7.23-9.07,13.5-8.24
			c6.22,0.78,10.32,5.84,9.07,11.26c-16.96,75.02-72.37,126.07-132.9,181.82c-68.13,62.72-143.1,131.76-173.24,247.99
			c11.93,40.22,24.52,80.85,37.66,122.07c37.55-47.89,82.28-96.12,134.1-144.78c58.34-54.77,125.99-110.11,202.77-166.07
			c4.95-3.58,12.23-3.23,16.24,0.92c4.02,4.07,3.21,10.33-1.76,13.99c-75.79,55.19-142.66,109.97-200.53,164.24
			c-56.25,52.75-103.86,104.98-142.8,156.59c13.99,42.88,28.63,86.34,43.87,130.35c1.77,5.21-1.68,10.84-7.8,12.59
			c-6.12,1.76-12.52-0.99-14.34-6.19c-15.76-45.43-30.81-90.28-45.14-134.58c-0.15-0.29-0.28-0.64-0.35-0.92
			c-5.98-18.49-11.82-36.85-17.57-55.2c-90.15,2.4-168.96-1.47-236.46-11.45c-70.32-10.41-128.6-27.57-174.81-51.47
			c-5.34-2.82-6.9-8.87-3.45-13.58c3.51-4.71,10.63-6.26,15.98-3.52c43.79,22.65,99.47,39.02,167.12,49.01
			c64.55,9.57,139.71,13.43,225.49,11.46c-7.22-23.34-14.27-46.48-21.1-69.47c-0.13-0.41-0.26-0.84-0.34-1.33
			c-9.16-30.66-17.92-61.03-26.28-91.2c-113.57-42.54-227.76-108.77-342.52-198.49c-4.63-3.66-4.77-9.91-0.36-14.07
			c4.43-4.08,11.75-4.5,16.32-0.83c107.36,83.94,213.9,146.88,319.7,188.71c-11.88-43.39-22.99-86.27-33.39-128.53
			c-3.17-12.73-6.17-25.39-9.19-38.04c-0.16-0.28-0.16-0.56-0.22-0.92c-35.93-151.66-61.94-295.31-78.06-430.88H494.05z
			 M494.05,1286.08"/>
		<path style="fill-rule:evenodd;clip-rule:evenodd;fill:#82B378;" d="M383.47,2879.45c-39.96,28.05-46.28,58.78,110.65,66.02
			c75.8,3.51,252.93-0.21,322.88-27.36c109.35-42.47,226.89-148.57,277.03-215.51c39.94-53.23-42.26-92.38-111.66-75.24
			c-206.78,51.19,153.15-182.74,28.69-309.38c-32.55-33.11-97.03,15.47-147.66,38.46c-56.39,25.67-70.5-42.11-66.45-84.02
			c7.97-81.07,42.9-162.56-37.68-214.23c-99.12-63.57-82.2,83.11-201.73,19.19c-45.49-24.4-93.02-120.3-118.76-163.9
			c-54.49-92.24-173.04-167.42-235.84-120.02c-65.73,49.65,48.66,150.76,52.52,218.68c7.97,136.89-139.21-14.7-178.93,53.72
			C6,2187.42,239.1,2270.68,276.99,2299.01c25.75,19.28,36.36,40.99-4.68,58.86c-46.41,20.25-162.72-24.18-173.42,24.19
			c-42.32,192.02,273.66,149.49,300.33,193.71c32.82,54.71-124.27,33.11-176.27,78.32c-83.83,72.84,106.57,105.4,202.43,115.88
			C591.29,2788.04,415.01,2857.3,383.47,2879.45L383.47,2879.45z M383.47,2879.45"/>
		<path style="fill-rule:evenodd;clip-rule:evenodd;fill:#A8D29F;" d="M276.43,1836.85c-3.45-5.27-10.55-6.75-15.88-3.31
			c-5.27,3.51-6.75,10.62-3.3,15.9c82.61,126.14,163.75,264.51,243.28,415.05c-90.35-22.28-167.42-47.32-231.17-75.16
			c-68.79-30.02-121.8-63.13-158.91-99.29c-4.57-4.42-11.83-4.28-16.19,0.22c-4.43,4.57-4.3,11.81,0.2,16.16
			c39.26,38.18,94.5,72.85,165.66,103.93c69.39,30.3,154.27,57.3,254.61,81.13c6.25,11.95,12.45,23.91,18.65,36
			c26.42,51.34,52.71,104.14,78.81,158.28c0.13,0.35,0.27,0.69,0.49,1.05c10.19,21.09,20.31,42.4,30.44,63.84
			c-100.27-66.51-197.79-78.19-287.23-88.94c-82.33-9.92-157.63-18.98-219.65-70.88c-4.84-4.07-12.02-3.38-16.1,1.41
			c-4.02,4.85-3.38,12.09,1.48,16.1c67.28,56.4,145.75,65.82,231.6,76.14c96.47,11.61,202.63,24.34,309.87,109
			c20.37,44.02,40.63,88.94,60.83,134.64c-62.88-18.35-131.36-32.41-205.45-41.98c-83.4-10.82-174.09-16.16-272.13-15.96
			c-6.34,0.08-11.44,5.14-11.44,11.46c0,6.34,5.1,11.46,11.44,11.46c96.82-0.21,186.54,5.06,269.15,15.75
			c80.37,10.48,153.92,26.09,220.58,46.9c20.9,47.81,41.7,96.47,62.36,146.1c2.46,5.84,9.15,8.65,14.98,6.19
			c5.84-2.46,8.65-9.15,6.19-14.98c-21.37-51.19-42.82-101.46-64.4-150.75c-0.15-0.35-0.29-0.71-0.48-1.05
			c-9.01-20.61-18-40.99-27.07-61.24c68.89-57.17,124.78-112.5,167.81-165.94c44.8-55.62,75.74-109.4,92.66-161.29
			c2-6.04-1.25-12.51-7.3-14.48c-5.98-1.97-12.43,1.33-14.43,7.31c-16.09,49.22-45.68,100.62-88.77,154.13
			c-41.16,51.04-94.38,103.91-159.68,158.62c-11.62-25.66-23.28-51.11-34.97-76.35c-0.2-0.43-0.4-0.92-0.63-1.41
			c-15.6-33.6-31.2-66.73-46.97-99.28c53.65-113.06,90.49-247.71,110.53-404.01c0.78-6.26-3.65-12.02-9.91-12.81
			c-6.33-0.76-12.03,3.66-12.87,9.92c-18.77,146.18-52.31,272.89-100.61,380.18c-22.78-46.89-45.77-92.74-68.76-137.61
			c-6.96-13.5-13.93-26.92-20.89-40.21c-0.2-0.36-0.35-0.71-0.56-0.98C448.57,2115.72,363.27,1969.39,276.43,1836.85L276.43,1836.85
			z M276.43,1836.85"/>
		<path style="fill-rule:evenodd;clip-rule:evenodd;fill:#6BB7BF;" d="M937.74,286.31h1662.68c129.78,0,235.96,106.18,235.96,235.97
			v2285.45c0,129.8-106.18,236.04-235.96,236.04H937.74c-129.82,0-235.98-106.24-235.98-236.04V522.28
			C701.76,392.48,807.92,286.31,937.74,286.31L937.74,286.31z M937.74,286.31"/>
		<path style="fill-rule:evenodd;clip-rule:evenodd;fill:#C7DCF5;" d="M937.74,353.04h1662.68c93.08,0,169.23,76.15,169.23,169.24
			v2285.45c0,93.16-76.15,169.31-169.23,169.31H937.74c-93.1,0-169.33-76.15-169.33-169.31V522.28
			C768.41,429.19,844.64,353.04,937.74,353.04L937.74,353.04z M937.74,353.04"/>
		<path style="fill-rule:evenodd;clip-rule:evenodd;fill:#FFFFFF;" d="M807.24,469.76l1649.52-129.8l184.99,2350.41L992.29,2820.24
			L807.24,469.76z M807.24,469.76"/>
		<path style="fill-rule:evenodd;clip-rule:evenodd;fill:#C7DCF5;" d="M1643.73,553.99l739.76-58.22l15.07,190.9l-739.78,58.2
			L1643.73,553.99z M1643.73,553.99"/>
		<path style="fill-rule:evenodd;clip-rule:evenodd;fill:#C7DCF5;" d="M1677.7,907.67l656.08-51.82
			c17.23-1.41,33.83,11.6,33.83,28.82c0,17.29-11.66,32.41-28.9,33.82l-656.08,51.83c-17.24,1.33-33.85-11.61-33.85-28.9
			C1648.77,924.19,1660.47,909,1677.7,907.67L1677.7,907.67z M1686.48,1019.25l248.7-19.76c17.24-1.41,32.42,11.6,33.75,28.84
			c1.33,17.22-11.67,32.41-28.82,33.79l-248.69,19.78c-17.22,1.33-32.43-11.68-33.83-28.9
			C1656.25,1035.78,1669.26,1020.58,1686.48,1019.25L1686.48,1019.25z M1686.48,1019.25"/>
		<path style="fill-rule:evenodd;clip-rule:evenodd;fill:#C7DCF5;" d="M1001.57,1260.78l187.95-14.78l14.77,187.95l-187.86,14.76
			L1001.57,1260.78z M1001.57,1260.78"/>
		<path style="fill-rule:evenodd;clip-rule:evenodd;fill:#C7DCF5;" d="M1337.64,1241.23l1020.19-80.29
			c17.22-1.34,32.41,11.66,33.75,28.9c1.33,17.22-11.61,32.41-28.84,33.74l-1020.14,80.31c-17.25,1.33-32.43-11.6-33.75-28.84
			C1307.49,1257.83,1320.43,1242.56,1337.64,1241.23L1337.64,1241.23z M1346.45,1352.82l612.72-48.25
			c17.23-1.32,32.38,11.69,33.81,28.9c1.35,17.23-11.67,32.4-28.9,33.75l-612.7,48.23c-17.22,1.34-32.41-11.6-33.74-28.82
			C1316.29,1369.41,1329.25,1354.15,1346.45,1352.82L1346.45,1352.82z M1346.45,1352.82"/>
		<path style="fill-rule:evenodd;clip-rule:evenodd;fill:#C7DCF5;" d="M1025.62,1565.93l187.87-14.76l14.83,187.87l-187.95,14.84
			L1025.62,1565.93z M1025.62,1565.93"/>
		<path style="fill-rule:evenodd;clip-rule:evenodd;fill:#C7DCF5;" d="M1361.71,1546.39l1020.09-80.31
			c17.23-1.4,32.42,11.61,33.83,28.84c1.33,17.22-11.65,32.42-28.88,33.83l-1020.1,80.28c-17.25,1.34-32.43-11.66-33.75-28.89
			C1331.48,1562.91,1344.48,1547.72,1361.71,1546.39L1361.71,1546.39z M1370.5,1657.97l612.73-48.22
			c17.22-1.34,32.37,11.6,33.74,28.81c1.32,17.24-11.62,32.42-28.84,33.83l-612.72,48.23c-17.22,1.33-32.41-11.67-33.81-28.89
			C1340.26,1674.49,1353.25,1659.31,1370.5,1657.97L1370.5,1657.97z M1370.5,1657.97"/>
		<path style="fill-rule:evenodd;clip-rule:evenodd;fill:#C7DCF5;" d="M1049.59,1871.09l187.96-14.83l14.75,187.95l-187.88,14.75
			L1049.59,1871.09z M1049.59,1871.09"/>
		<path style="fill-rule:evenodd;clip-rule:evenodd;fill:#C7DCF5;" d="M1385.69,1851.47l1020.17-80.29
			c17.23-1.33,32.41,11.68,33.75,28.9c1.4,17.23-11.62,32.41-28.84,33.75l-1020.08,80.29c-17.24,1.33-32.5-11.61-33.82-28.82
			C1355.52,1868.06,1368.46,1852.88,1385.69,1851.47L1385.69,1851.47z M1394.48,1963.05l612.72-48.22
			c17.22-1.34,32.41,11.66,33.81,28.9c1.33,17.22-11.68,32.41-28.89,33.74l-612.72,48.25c-17.22,1.32-32.41-11.61-33.74-28.84
			C1364.33,1979.65,1377.25,1964.46,1394.48,1963.05L1394.48,1963.05z M1394.48,1963.05"/>
		<path style="fill-rule:evenodd;clip-rule:evenodd;fill:#C7DCF5;" d="M1073.64,2176.17l187.87-14.77l14.83,187.88l-187.93,14.83
			L1073.64,2176.17z M1073.64,2176.17"/>
		<path style="fill-rule:evenodd;clip-rule:evenodd;fill:#C7DCF5;" d="M1409.73,2156.63l1020.1-80.29
			c17.23-1.34,32.47,11.6,33.82,28.82c1.33,17.23-11.62,32.42-28.82,33.82l-1020.16,80.31c-17.23,1.33-32.43-11.68-33.75-28.9
			C1379.5,2173.15,1392.51,2157.96,1409.73,2156.63L1409.73,2156.63z M1418.52,2268.22l612.73-48.25
			c17.21-1.33,32.4,11.61,33.72,28.84c1.42,17.22-11.59,32.48-28.81,33.82l-612.71,48.23c-17.23,1.34-32.42-11.66-33.75-28.9
			C1388.31,2284.74,1401.29,2269.56,1418.52,2268.22L1418.52,2268.22z M1418.52,2268.22"/>
		<path style="fill-rule:evenodd;clip-rule:evenodd;fill:#C7DCF5;" d="M1097.6,2481.33l187.97-14.84l14.75,187.95l-187.86,14.78
			L1097.6,2481.33z M1097.6,2481.33"/>
		<path style="fill-rule:evenodd;clip-rule:evenodd;fill:#C7DCF5;" d="M1433.78,2461.72l1020.1-80.31
			c17.23-1.33,32.43,11.68,33.75,28.9c1.4,17.23-11.61,32.42-28.85,33.75l-1020.06,80.29c-17.25,1.41-32.42-11.6-33.85-28.82
			C1403.54,2478.31,1416.55,2463.12,1433.78,2461.72L1433.78,2461.72z M1442.49,2573.3l612.72-48.17
			c17.24-1.4,32.49,11.61,33.81,28.84c1.37,17.22-11.59,32.41-28.81,33.75l-612.71,48.22c-17.23,1.41-32.48-11.6-33.82-28.82
			C1412.35,2589.89,1425.34,2574.71,1442.49,2573.3L1442.49,2573.3z M1442.49,2573.3"/>
		<path style="fill-rule:evenodd;clip-rule:evenodd;fill:#599DAD;" d="M1356.1,182.17h292.34v-61.59
			c0-66.3,54.28-120.58,120.58-120.58c66.38,0,120.66,54.28,120.66,120.58v61.59h292.34c40.1,0,72.93,32.84,72.93,72.92v138.78
			c0,40.1-32.83,72.94-72.93,72.94H1356.1c-40.18,0-72.93-32.84-72.93-72.94V255.09C1283.17,215.02,1315.93,182.17,1356.1,182.17
			L1356.1,182.17z M1769.03,72c29.46,0,53.37,23.91,53.37,53.37c0,29.46-23.91,53.36-53.37,53.36c-29.45,0-53.38-23.9-53.38-53.36
			C1715.64,95.91,1739.58,72,1769.03,72L1769.03,72z M1769.03,72"/>
		<path style="fill-rule:evenodd;clip-rule:evenodd;fill:#ED6C50;" d="M998.82,1275.87c-6.67-8.91-4.9-21.56,4.01-28.24
			c8.93-6.68,21.66-4.92,28.34,4.01l71.78,95.76l169.53-171.77c7.89-7.95,20.69-8.03,28.62-0.21c7.94,7.8,8.08,20.66,0.2,28.61
			l-186.05,188.44c-0.69,0.71-1.48,1.34-2.25,1.97c-8.93,6.68-21.64,4.86-28.33-4.01L998.82,1275.87z M998.82,1275.87"/>
		<path style="fill-rule:evenodd;clip-rule:evenodd;fill:#ED6C50;" d="M1022.8,1581.04c-6.67-8.92-4.84-21.58,4.07-28.33
			c8.96-6.68,21.58-4.85,28.28,4.08l71.78,95.69l169.6-171.69c7.82-7.95,20.61-8.09,28.55-0.29c8.03,7.88,8.09,20.67,0.28,28.62
			l-186.04,188.43c-0.68,0.72-1.48,1.41-2.32,1.97c-8.92,6.76-21.57,4.92-28.27-4.01L1022.8,1581.04z M1022.8,1581.04"/>
		<path style="fill-rule:evenodd;clip-rule:evenodd;fill:#ED6C50;" d="M1046.85,1886.14c-6.67-8.92-4.85-21.59,4.03-28.27
			c8.91-6.68,21.64-4.92,28.32,4.01l71.79,95.76l169.52-171.77c7.89-7.95,20.68-8.02,28.62-0.21c7.93,7.8,8.08,20.61,0.27,28.62
			l-186.09,188.44c-0.71,0.69-1.48,1.32-2.27,1.96c-8.91,6.68-21.57,4.85-28.32-4.08L1046.85,1886.14z M1046.85,1886.14"/>
		<path style="fill-rule:evenodd;clip-rule:evenodd;fill:#ED6C50;" d="M1070.89,2191.3c-6.67-8.93-4.94-21.58,4.03-28.28
			c8.91-6.74,21.57-4.92,28.25,4.01l71.85,95.71l169.52-171.72c7.8-7.94,20.68-8.08,28.62-0.2c7.93,7.8,8.08,20.6,0.22,28.54
			l-186.04,188.51c-0.71,0.63-1.48,1.34-2.34,1.97c-8.91,6.67-21.57,4.86-28.27-4.07L1070.89,2191.3z M1070.89,2191.3"/>
		<path style="fill-rule:evenodd;clip-rule:evenodd;fill:#6BB7BF;" d="M1254.27,594.12c141.9-10.39,265.45,96.28,275.85,238.17
			c10.39,141.95-96.21,265.42-238.16,275.83c-141.96,10.47-265.43-96.19-275.83-238.09
			C1005.72,728.08,1112.31,604.61,1254.27,594.12L1254.27,594.12z M1254.27,594.12"/>
		<path style="fill-rule:evenodd;clip-rule:evenodd;fill:#6BB7BF;" d="M1256.24,621.71c126.77-9.35,237.02,85.85,246.36,212.63
			c9.29,126.69-85.9,237.02-212.69,246.3c-126.69,9.35-237.02-85.85-246.31-212.63C1034.35,741.24,1129.55,630.99,1256.24,621.71
			L1256.24,621.71z M1256.24,621.71"/>
		<path style="fill-rule:evenodd;clip-rule:evenodd;fill:#FFFFFF;" d="M1210.39,882.85l31.58-2.33
			c-32.49-10.68-56.96-40.07-59.58-76.29c-3.5-47.94,32.5-89.65,80.45-93.17c47.89-3.51,89.65,32.49,93.17,80.44
			c2.61,36.21-17.21,68.84-47.79,84.17l31.52-2.32c44.31-3.25,83.15,30.3,86.44,74.53l5.1,70.39
			c-37.16,35.22-86.26,58.34-141.38,62.36c-55.05,4.07-106.99-11.68-148.91-41.07l-5.23-70.38
			C1132.56,924.96,1166.1,886.07,1210.39,882.85L1210.39,882.85z M1210.39,882.85"/>
		<path style="fill-rule:evenodd;clip-rule:evenodd;fill:#CCE2FF;" d="M2574.06,3144.95c-608.43,0-1101.59,64.68-1101.59,144.56
			c0,79.87,493.16,144.64,1101.59,144.64c608.4,0,1101.57-64.77,1101.57-144.64C3675.63,3209.63,3182.45,3144.95,2574.06,3144.95
			L2574.06,3144.95z M2574.06,3144.95"/>
		<path style="fill-rule:evenodd;clip-rule:evenodd;fill:#1C468A;" d="M2073.48,3249.64c109.21-1.76,190.85-3.02,228.57-14.97
			c40.66-12.81,32.27-37.62,8.89-77.35c-102.95,47.32-75.55-9.71-123.64-2.46c-33.86,27.21-83.96,45.49-150.31,54.77
			C2008.94,3230.3,2020.32,3248.73,2073.48,3249.64L2073.48,3249.64z M2073.48,3249.64"/>
		<path style="fill-rule:evenodd;clip-rule:evenodd;fill:#F99746;" d="M2213.75,1585.54h674.8c13.35,0,27.07,10.9,30.6,24.2
			l120.02,457.23c3.49,13.3-4.5,24.12-17.83,24.12h-674.84c-13.29,0-27-10.82-30.52-24.12l-120.02-457.23
			C2192.48,1596.45,2200.47,1585.54,2213.75,1585.54L2213.75,1585.54z M2213.75,1585.54"/>
		<path style="fill-rule:evenodd;clip-rule:evenodd;fill:#699DEE;" d="M2933.55,1598.77l81.5,310.35
			c97.85-47.74,215.84-124.38,339.46-222.75c3.39-44.23,7.44-79.52,12.39-105.9c-9.94-19.68-20.76-40.7-32.64-63.07
			c114.11-0.71,183.73-25.24,208.85-73.61c-30.54-89.37-73.22-180.57-128.06-273.68c-38.33-56.72-113.47-90.06-225.28-100.04
			c-13.09,150.06-243.15,142.32-189.08,13.23c-83.46,22.35-154.21,63.76-212.11,124.16c-49.87,122.84-80.32,208.54-91.23,257.21
			c54.16,37.89,105.41,62.44,153.86,73.62c2.18,10.61,3.94,22.7,5.19,36.27h46.63C2916.3,1574.57,2930.04,1585.48,2933.55,1598.77
			L2933.55,1598.77z M2933.55,1598.77"/>
		<path style="fill-rule:evenodd;clip-rule:evenodd;fill:#ED6C50;" d="M3015.06,1909.13l-81.5-310.35
			c-3.51-13.3-17.25-24.2-30.51-24.2h-674.87c-13.29,0-36.98,17.17-33.04,30.31c-0.64-10.97,6.97-19.34,18.63-19.34h674.8
			c13.35,0,27.07,10.9,30.6,24.2l120.02,457.23c2.08,7.95,0,15.04-4.8,19.48c11.1-7.16,21.73-21.09,19.2-30.51L3015.06,1909.13z
			 M3015.06,1909.13"/>
		<path style="fill-rule:evenodd;clip-rule:evenodd;fill:#ED6C50;" d="M3021.35,2091.1h-674.84c-2.47,0-4.9-0.35-7.38-1.06
			c13.42,34.81,49.91,29.69,64.18,29.54h800.04c43.38-1.82,42.24-32.21,42.82-61.53h-192.23c0.64,9.29-9.21,21.74-19.55,28.41
			C3031.14,2089.41,3026.62,2091.1,3021.35,2091.1L3021.35,2091.1z M3021.35,2091.1"/>
		<path style="fill-rule:evenodd;clip-rule:evenodd;fill:#ED6C50;" d="M2926.85,1773.56c-72.34,36.64-157.84,47.82-245.87,52.32
			c0.99,3.16,1.76,6.47,2.25,9.71c5.89,37.13-20.25,68.7-57.98,68.7c-35.6,0-67.87-28.2-73.44-63.22
			c-0.55-3.78-0.84-7.52-0.75-11.17c-91.34,2.46-179.65,7.45-252.64,36l50.21,191.18h652.71L2926.85,1773.56z M2926.85,1773.56"/>
		<path style="fill-rule:evenodd;clip-rule:evenodd;fill:#ED6C50;" d="M2610.61,1794.59c24.2,0,46.88,19.55,50.76,43.74
			c3.8,24.18-12.75,43.8-36.9,43.8c-24.21,0-46.91-19.62-50.72-43.8C2569.89,1814.14,2586.39,1794.59,2610.61,1794.59
			L2610.61,1794.59z M2610.61,1794.59"/>
		<path style="fill-rule:evenodd;clip-rule:evenodd;fill:#699DEE;" d="M3387.07,1979.73c-13.5-40.99-23.12-83.61-29.06-127.7
			c-90.87,35.16-194.82,69.12-326.16,121.01l17.72,67.58C3248.13,2047.08,3360.63,2026.84,3387.07,1979.73L3387.07,1979.73z
			 M3387.07,1979.73"/>
		<path style="fill-rule:evenodd;clip-rule:evenodd;fill:#FFB27D;" d="M3031.85,1973.04c131.34-51.88,235.29-85.85,326.16-121.01
			c80.1-31.08,150.07-63,219.75-109.12c-2.9-89.02-16.18-175.07-52.95-274.93c-33.82,32.35-97.39,48.87-190.54,49.43
			c27,50.96,48.93,94.92,65.94,131.91c-140.19,116.22-275.27,206.22-385.15,259.8L3031.85,1973.04z M3031.85,1973.04"/>
		<path style="fill-rule:evenodd;clip-rule:evenodd;fill:#FFB27D;" d="M2714.81,1476.49c-10.07,35.37-19.48,68.06-28.11,98.08h169.7
			c-1.25-13.57-3.01-25.66-5.19-36.27C2808.05,1528.32,2762.53,1507.71,2714.81,1476.49L2714.81,1476.49z M2714.81,1476.49"/>
		<path style="fill-rule:evenodd;clip-rule:evenodd;fill:#163560;" d="M2302.77,3121.39c100.43-364.07,136.29-619.72,107.72-767.17
			c57.02,8.15,114.31,10.66,171.85,7.66c-8.72-39.38-17.51-78.82-26.51-118.82c1.06-54.28,28.82-94.58,127.12-123.47H2403.3
			c-9.55,0.14-28.95,2.38-44.78-6.4c-90.14,25.73-134.08,68.27-149.21,120.17c-10.95,142.8,18.71,305.44-6.51,889.11
			C2234.28,3125.75,2267.62,3125.33,2302.77,3121.39L2302.77,3121.39z M2302.77,3121.39"/>
		<path style="fill-rule:evenodd;clip-rule:evenodd;fill:#1C468A;" d="M2407.68,2119.58h-4.38c-9.55,0.14-28.95,2.38-44.78-6.4
			c-90.14,25.73-134.08,68.27-149.21,120.17c-10.95,142.8,18.71,305.44-6.51,889.11c18.77,1.96,38.23,2.6,58.34,1.96
			c51.82-202.85,175.22-700.52,36.21-915.04C2329.98,2174.78,2366.76,2144.89,2407.68,2119.58L2407.68,2119.58z M2407.68,2119.58"/>
		<path style="fill-rule:evenodd;clip-rule:evenodd;fill:#FFB27D;" d="M3189.56,1071.64c-17.87-22.71-33.62-43.88-38.25-58.85
			c3.57-10.34,7.38-23.28,11.32-38.96c67.03-45.49,76.15-79.18,27.47-100.97c-9.82,5.49-21.98,22.43-36.54,50.75
			c-11.61-0.41-20.41-6.39-26.37-17.78c13.87-47.89,22.78-86.78,27-116.73c-33.07-49.01-110.17-56.04-212.42-42.74
			c-4.69,27.2-8.64,55.97-11.66,86.42c-18.07,16.66-15.75,78.31,0.92,149.49c-8.31,40.42,16.66,62.51,74.94,66.22
			c0.86,14.35-4.87,32.62-5.27,34.81c0,0.13-0.13,0.27-0.13,0.41C2947.4,1211.91,3175.08,1219.79,3189.56,1071.64L3189.56,1071.64z
			 M3189.56,1071.64"/>
		<path style="fill-rule:evenodd;clip-rule:evenodd;fill:#B5453C;" d="M2941.77,746.37c102.25-13.3,179.35-6.27,212.42,42.74
			c-4.22,29.96-13.13,68.84-27,116.73c5.97,11.38,14.76,17.36,26.37,17.78c14.55-28.32,26.72-45.27,36.54-50.75
			c48.68,21.8,39.56,55.48-27.47,100.97c-3.94,15.67-7.75,28.61-11.32,38.96c60.26-13.58,110.66-67.43,117.77-90.78
			c70.31-138.51-8.08-197.02-50.06-218.39c-18.49-137.17-217.77-15.88-317.54-82.05C2861.83,676.41,2910.85,745.1,2941.77,746.37
			L2941.77,746.37z M2941.77,746.37"/>
		<path style="fill-rule:evenodd;clip-rule:evenodd;fill:#F08261;" d="M3081.63,1046.74c-28.18,2.25-53.44,2.81-75.66,1.76
			c0.57,9.85-1.97,21.58-3.73,28.69C3038.39,1076.28,3064.8,1066.07,3081.63,1046.74L3081.63,1046.74z M3081.63,1046.74"/>
		<path style="fill-rule:evenodd;clip-rule:evenodd;fill:#7A361F;" d="M2772.9,2336.07h608.9c21.73,0,39.58,17.79,39.58,39.58
			c0,21.73-17.85,39.59-39.58,39.59h-608.9c-21.72,0-39.53-17.87-39.53-39.59C2733.37,2353.86,2751.18,2336.07,2772.9,2336.07
			L2772.9,2336.07z M2772.9,2336.07"/>
		<path style="fill-rule:evenodd;clip-rule:evenodd;fill:#A34E3A;" d="M3345.44,3085.39c-29.1-29.1-69.23-47.17-113.53-47.17H2922.8
			c-44.22,0-84.45,18.07-113.56,47.17c-29.1,29.12-47.17,69.34-47.17,113.56v32.41h-12.36v40.09h91.18v-40.09h-12.38v-32.41
			c0-25.88,10.6-49.43,27.73-66.59c17.08-17.08,40.68-27.71,66.57-27.71h309.11c25.93,0,49.48,10.62,66.56,27.71
			c17.09,17.16,27.71,40.71,27.71,66.59v32.41h-12.37v40.09h91.2v-40.09h-12.4v-32.41
			C3392.6,3154.72,3374.55,3114.5,3345.44,3085.39L3345.44,3085.39z M3345.44,3085.39"/>
		<rect x="3044.08" y="2415.18" style="fill-rule:evenodd;clip-rule:evenodd;fill:#A34E3A;" width="66.51" height="623.01"/>
		<path style="fill-rule:evenodd;clip-rule:evenodd;fill:#1C468A;" d="M3290.33,2333.61c117.69-42.26,133.7-159.54,81.92-336.8
			c-42.56,34.87-150.13,49.43-322.68,43.8l4.01,15.33c0.21,0.71,0.28,1.41,0.35,2.1h192.23c-0.58,29.33,0.56,59.71-42.82,61.53
			h-520.39c-98.29,28.89-126.06,69.19-127.12,123.47c62.29,278.29,117.69,533.46,193.14,886.01c25.48,14.27,60.26,13.22,104.49-3.24
			c35.37-342,25.67-590.63-29.18-746.02C2969.9,2380.36,3125.22,2360.54,3290.33,2333.61L3290.33,2333.61z M3290.33,2333.61"/>
		<path style="fill-rule:evenodd;clip-rule:evenodd;fill:#163560;" d="M3290.33,2333.61c117.69-42.26,133.7-159.54,81.92-336.8
			c-9.02,7.46-21.04,13.93-35.97,19.48c42.91,182.1-3.71,281.89-142.09,291.45c-161.44,23.98-295.24,35.44-401.48,34.52
			c46.85,303.6,54.85,568.26,24.04,794.1c11.39-2.17,23.64-5.69,36.71-10.54c35.37-342,25.67-590.63-29.18-746.02
			C2969.9,2380.36,3125.22,2360.54,3290.33,2333.61L3290.33,2333.61z M3290.33,2333.61"/>
		<path style="fill-rule:evenodd;clip-rule:evenodd;fill:#FFB27D;" d="M2213.35,3123.43c-2.96,10.95-7.75,21.23-14.29,30.93
			c31.52,2.96,19.34,43.52,104.42,6.34c-3.58-10.76-5.62-23.7-6.11-38.74C2268.12,3124.98,2240.05,3125.47,2213.35,3123.43
			L2213.35,3123.43z M2213.35,3123.43"/>
		<path style="fill-rule:evenodd;clip-rule:evenodd;fill:#1C468A;" d="M2749.25,3313.55c58.01-23.92,66.73-62.85,98.6-77.76
			c32.12-14.98,35.78-41.7,4.41-70.67c-23.18,18.49-51.95,41.27-67.21,29.18c-10.2-8.02-44.72-7.52-51.55,4.22
			c-30.02,69.9-71.85,47.74-80.08,79.52C2652.44,3320.37,2712.76,3328.6,2749.25,3313.55L2749.25,3313.55z M2749.25,3313.55"/>
		<path style="fill-rule:evenodd;clip-rule:evenodd;fill:#FFB27D;" d="M2759.17,3133.77c0.49,18.56-2.02,37.2-7.67,55.9
			c12.45-1.9,27.43-0.21,33.55,4.64c14.13,11.18,39.86-7.52,62.02-25.1c-3.59-9.99-6.06-22.93-7.33-38.74
			C2807.41,3140.58,2780.55,3141.72,2759.17,3133.77L2759.17,3133.77z M2759.17,3133.77"/>
		<path style="fill-rule:evenodd;clip-rule:evenodd;fill:#4A75CB;" d="M3334.27,1517.42c-14.98-27.13-30.81-63.56-47.52-109.41
			c8.93,53.37,8.49,91.77,22.97,135.64c-11.66,62.09-16.52,125.36-15.32,189.21c19.82-14.91,39.94-30.38,60.12-46.48
			c3.39-44.23,7.44-79.52,12.39-105.9C3356.97,1560.81,3346.14,1539.78,3334.27,1517.42L3334.27,1517.42z M2816.35,1528.11
			c11.73,4.15,23.38,7.52,34.86,10.2c-4.35-67.92-7.15-124.03-8.57-168.4C2829.56,1435.36,2820.76,1488.17,2816.35,1528.11
			L2816.35,1528.11z M3387.07,1979.73c-13.5-40.99-23.12-83.61-29.06-127.7c-16.79,6.47-34.09,12.94-51.94,19.56
			c7.16,48.24,17.38,96.6,30.37,144.7C3361.8,2006.73,3378.69,1994.56,3387.07,1979.73L3387.07,1979.73z M3387.07,1979.73"/>
	</g>
</g>
<g id="Illustration">
</g>
</svg>
