<?xml version="1.0" encoding="utf-8"?>
<!-- Generator: Adobe Illustrator 23.0.0, SVG Export Plug-In . SVG Version: 6.00 Build 0)  -->
<svg version="1.1" id="Layer_1" xmlns="http://www.w3.org/2000/svg" xmlns:xlink="http://www.w3.org/1999/xlink" x="0px" y="0px"
	 width="300px" height="300px" viewBox="0 0 300 300" style="enable-background:new 0 0 300 300;" xml:space="preserve">
<style type="text/css">
	.st0{fill:#F19B1F;}
	.st1{fill:#FE5364;}
	.st2{fill:#FE6776;}
	.st3{fill:#FE808D;}
	.st4{fill:#F5B860;}
	.st5{fill:#F2A22E;}
	.st6{fill:#F3AB41;}
	.st7{fill:#F3AB42;}
	.st8{fill:#F5B962;}
	.st9{fill:#A46A43;}
	.st10{fill:#2980B9;}
	.st11{fill:#DE4D60;}
	.st12{fill:#3B96D2;}
	.st13{fill:#F2D45B;}
	.st14{fill:#EFC319;}
	.st15{fill:#CA8252;}
	.st16{fill:#F0C66B;}
	.st17{fill:#E2B178;}
	.st18{fill:#D15627;}
	.st19{fill:#E47E25;}
</style>
<g>
	<path class="st0" d="M111.9,203.4c19.4-1.7,38.8-1.5,58.2,0.6c22,2.4,43.5,6.7,63.7,16.3c7.9,3.7,15.4,8.2,21.2,14.9
		c9.8,11.3,9.4,23.2-1.1,33.9c-7.7,7.9-17.4,12.9-27.5,16.9c-18,7.2-36.8,10.9-55.9,12.9c-4.5,0.5-8.9,0.8-13.4,1.2
		c-0.5,0-1,0-1.2,0.6c-2.1,0-4.3,0-6.4,0c-1-0.6-2-0.2-3.1-0.3c-0.9,0-1.8,0-2.7,0c-1.2,0.2-2.4-0.3-3.6,0.3c-1.4,0-2.7,0-4.1,0
		c-1.1-0.6-2.4-0.1-3.6-0.3c-0.9,0-1.8,0-2.8,0c-1.2,0.2-2.4-0.3-3.6,0.3c-2.1,0-4.3,0-6.4,0c-2.7-1.2-5.6-0.9-8.5-1.2
		c-23.5-2.2-46.5-6.4-68.1-16.4c-9.4-4.3-18.1-9.6-24.4-18.1c-6.4-8.7-6.3-18.4,0.1-27.1c4.2-5.7,9.7-9.9,15.7-13.4
		c14.5-8.4,30.2-13.3,46.6-16.5c0.5,1.2-0.3,2-0.9,2.9c-6.9,9.6-13.7,19.2-20.6,28.8c-1.1,1.6-2.3,3.2-3.2,4.9
		c-2.5,4.7-1.4,9.9,2.8,12.6c4.4,2.9,9.7,2.2,13-2.2c5.5-7.2,10.7-14.7,15.9-22.1c6.4-9.1,12.9-18.1,19.3-27.1
		c0.6-0.9,1.2-1.8,2.3-2.2C110.2,203.4,111.1,203.9,111.9,203.4z"/>
	<path class="st1" d="M130.1,0.6c3.5,1.3,7.2,1.1,10.8,1.7c23.3,3.7,44.7,12.2,64.8,24.5c0.5,0.3,1,0.6,1.2,1.2c-1,1-2,0.3-3,0
		c-20.1-7.4-39.7-5.3-58.9,3c-18.2,7.9-32.9,20.3-44.9,35.9c-0.7,0.9-1.3,1.9-2.4,2.5c-1.5,0.5-2.4-0.5-3.4-1.2
		c-14.7-10.4-29.4-21-44.1-31.5c-1.2-0.9-2.5-1.5-3.8-2.2c-0.2-1.2,0.8-1.7,1.3-2.5C59.3,16.7,75.1,8,93.4,3.6
		c4.4-1.1,8.8-1.7,13.2-2.3c0.6-0.1,1.4,0.2,1.8-0.7c2,0,3.9,0,5.9,0c2.8,0.7,5.7,0.1,8.5,0.3c1.3-0.1,2.6,0.3,3.8-0.3
		C127.7,0.6,128.9,0.6,130.1,0.6z"/>
	<path class="st2" d="M123.1,1.1c-2.9-0.3-5.9,0.7-8.8-0.6c2.9,0,5.9,0,8.8,0c0.2,0.1,0.3,0.2,0.2,0.4
		C123.2,1.1,123.1,1.1,123.1,1.1z"/>
	<path class="st3" d="M123.1,1.1c0-0.2,0-0.4,0-0.6c1.2,0,2.3,0,3.5,0C125.5,1.7,124.2,1,123.1,1.1z"/>
	<path class="st4" d="M126,300.6c1-1.1,2.3-0.4,3.5-0.6c0.2,0.1,0.3,0.3,0.2,0.4c-0.1,0.1-0.1,0.2-0.2,0.2
		C128.3,300.6,127.1,300.6,126,300.6z"/>
	<path class="st5" d="M132.4,300c1.2,0.2,2.5-0.5,3.5,0.6c-1.2,0-2.3,0-3.5,0c-0.2-0.1-0.3-0.3-0.2-0.4
		C132.3,300.1,132.4,300,132.4,300z"/>
	<path class="st5" d="M140,300.6c1-1.1,2.3-0.4,3.5-0.6c0.2,0.1,0.2,0.3,0.2,0.4c-0.1,0.1-0.1,0.2-0.2,0.2
		C142.4,300.6,141.2,300.6,140,300.6z"/>
	<path class="st6" d="M132.4,300c0,0.2,0,0.4,0,0.6c-1,0-2,0-2.9,0c0-0.2,0-0.4,0-0.6C130.5,300,131.4,300,132.4,300z"/>
	<path class="st7" d="M143.6,300.6c0-0.2,0-0.4,0-0.6c1,0,2,0,2.9,0c0.2,0.1,0.2,0.3,0.2,0.4c-0.1,0.1-0.1,0.2-0.2,0.2
		C145.5,300.6,144.5,300.6,143.6,300.6z"/>
	<path class="st8" d="M146.5,300.6c0-0.2,0-0.4,0-0.6c1,0.1,2.1-0.5,2.9,0.6C148.4,300.6,147.5,300.6,146.5,300.6z"/>
	<path class="st9" d="M109.5,203.9C99.5,218,89.4,232,79.3,246.1c-2.2,3.1-4.4,6.2-6.7,9.2c-3.6,4.7-9.3,5.7-14.2,2.4
		c-4.4-2.9-5.8-9.2-2.7-14c3.8-5.8,7.9-11.3,11.9-16.9c4.4-6.3,8.8-12.6,13.2-18.9c6.6-9,13.2-17.9,19.7-26.9
		c12.8-17.7,25.6-35.4,38.4-53.2c0.5-0.7,0.9-1.5,1.4-2.2c0.9-0.3,1.5,0.2,2.1,0.6c4.4,3.2,8.9,6.3,13.3,9.5c0.7,0.5,1.6,0.9,1.4,2
		c-15.7,21.7-31.3,43.3-47,65C109.8,203.1,110,203.7,109.5,203.9z"/>
	<path class="st10" d="M157.2,137.8c-5.6-4.1-11.2-8.1-16.9-12.2c-14.4-10.2-28.7-20.5-43.1-30.6c-2.4-1.7-3.5-3.7-2.9-6.7
		c0.8-4.7,1.5-9.4,2.2-14.1c0.2-1.3,0.4-2.5,0.1-3.8c-0.1-0.5,0.2-0.8,0.7-0.8c3.3,1.2,5.8,3.6,8.5,5.5
		c27.2,19.5,54.5,38.8,81.7,58.3c11.3,8.1,22.7,16.2,34.1,24.3c0.7,0.5,1.6,0.7,1.9,1.7c0,0.3-0.1,0.5-0.4,0.7
		c-5.2,2.7-10.4,5.3-15.5,8.2c-3.1,1.7-5.7,1.5-8.6-0.6C185.1,157.6,171.1,147.7,157.2,137.8z"/>
	<path class="st11" d="M97.3,69.7c-0.2,0.2-0.4,0.4-0.7,0.6c-5.1,1.8-9.6,4.6-14.2,7.2c-4,2.3-7.1,2.1-10.8-0.8
		c-8-6.1-16.4-11.8-24.7-17.6c-2.8-1.9-3.9-4.2-3.1-7.7c1.2-5.6,1.8-11.3,2.7-16.9c1.1-0.9,1.8-0.1,2.5,0.5
		c14.2,10.1,28.3,20.3,42.5,30.4c1.9,1.3,3.6,3,5.8,3.8c0.2,0.1,0.2,0.3,0.1,0.4C97.4,69.7,97.3,69.7,97.3,69.7z"/>
	<path class="st12" d="M97.3,69.7c0-0.2,0-0.4,0-0.6c8.5-11.4,18.3-21.5,30.2-29.5c17-11.3,35.4-17.9,56.1-16.9
		c7,0.3,13.7,1.8,20.2,4.3c1,0.4,1.9,1,3,0.9c0.4,0.2,0.7,0.4,1.1,0.6c1.7-0.3,2.9,1,4.2,1.7c4.9,2.5,9.2,5.9,13,9.8
		c0.7,1.1,1.8,1.9,2.7,2.8c5.6,5.2,9.1,11.9,12.1,18.8c5.7,13.2,7.2,27,5.9,41.3c-1.7,19.3-8.5,36.7-19,52.9
		c-0.9,1.4-1.5,3.3-3.6,3.5c-7.5-5.3-15.1-10.5-22.6-15.8c-11.1-7.9-22.3-15.9-33.4-23.8c-19-13.6-38-27.2-57.1-40.7
		C106,75.9,101.6,72.8,97.3,69.7z"/>
	<path class="st13" d="M223.3,159.4c5-6,8.6-12.9,11.9-20c6-12.9,9.6-26.5,10.2-40.8c0.9-20.8-4.3-39.8-18.2-55.8
		c0.3-0.3,0.6-0.4,0.9-0.1c6,4.4,11.3,9.5,16.5,14.8c13,13.5,23.9,28.5,31.7,45.6c7.5,16.3,12,33.3,11.3,51.4
		c-0.5,14.3-4.4,27.6-12.4,39.6c-0.4,0.6-0.8,1.4-1.6,1.7c-4-1.9-7.2-4.9-10.8-7.3c-12.4-8.6-24.5-17.5-36.8-26.3
		c-0.9-0.6-1.9-1-2.8-1.6c-0.1-0.2-0.1-0.4-0.2-0.6C223.2,159.8,223.2,159.6,223.3,159.4z"/>
	<path class="st14" d="M223.3,160.6c1.2-0.8,2,0.2,2.8,0.8c6.6,4.7,13.3,9.5,19.9,14.2c7.6,5.4,15.1,10.8,22.7,16.2
		c1.7,1.2,3.5,2.4,4.9,4c-5.7,3.1-11.5,6.2-17.2,9.2c-1.9,1-3.8,0.8-5.5-0.5c-9.4-6.7-18.9-13.4-28.3-20.2c-2.1-1.5-2.6-3.7-2.2-6.2
		C221.5,172.3,222.4,166.4,223.3,160.6z"/>
	<path class="st15" d="M224.9,40.5c-5.1-4.7-10.9-8.5-17-11.9c4.6-5.2,8.4-11,12.6-16.4c4.1-5.3,10.1-6.5,15.1-2.8
		c4.8,3.5,5.4,9.9,1.5,15.3c-3.9,5.3-7.7,10.5-11.6,15.8C225.4,40.7,225.1,40.7,224.9,40.5z"/>
	<path class="st16" d="M224.9,40.5c0.2,0,0.4-0.1,0.7-0.1c0.9,0.8,1.7,1.5,2.6,2.3c-0.3,0-0.6,0.1-0.9,0.1
		C226.4,42.1,225.6,41.3,224.9,40.5z"/>
	<path class="st17" d="M109.5,203.9c0-0.5,0.2-0.9,0.6-1.1c0.4,0.8,1.2,0.4,1.8,0.6C111.2,204.1,110.4,203.9,109.5,203.9z"/>
	<path class="st18" d="M117.2,261.8c0-7.4,5.3-12.8,12.6-12.8c7.3,0,12.8,5.2,13.1,12.8c0.3,6.7-6.1,13-12.9,13
		C122.7,274.8,117.2,269.2,117.2,261.8z"/>
	<path class="st19" d="M184,248.9c-0.1,2.8-2.3,5.3-4.8,5.2c-3.1-0.1-5.2-2.4-5.1-5.5c0.1-3,2.2-5,5.3-4.8
		C182.3,243.9,184.1,245.8,184,248.9z"/>
	<path class="st19" d="M194.5,233.1c0.1,2.7-2.3,5.3-5,5.4c-2.7,0.1-5.4-2.4-5.5-5c0-2.2,2.8-5.2,5-5.3
		C191.8,227.9,194.5,230.4,194.5,233.1z"/>
	<path class="st19" d="M209.8,243.7c0,2.8-2.5,5.3-5.1,5.2c-2.6-0.1-4.9-2.6-4.9-5.3c0-2.6,2.5-5.2,4.9-5.2
		C207.7,238.5,209.8,240.6,209.8,243.7z"/>
</g>
</svg>
