<?xml version="1.0" encoding="utf-8"?>
<!-- Generator: Adobe Illustrator 23.0.0, SVG Export Plug-In . SVG Version: 6.00 Build 0)  -->
<svg version="1.1" id="Layer_1" xmlns="http://www.w3.org/2000/svg" xmlns:xlink="http://www.w3.org/1999/xlink" x="0px" y="0px"
	 width="300px" height="300px" viewBox="0 0 300 300" style="enable-background:new 0 0 300 300;" xml:space="preserve">
<style type="text/css">
	.st0{fill:#CA8152;}
	.st1{fill:#4FB96F;}
	.st2{fill:#F2F9F4;}
	.st3{fill:#A46A43;}
	.st4{fill:#805333;}
	.st5{fill:#CE966A;}
	.st6{fill:#BDDABB;}
	.st7{fill:#EACFBD;}
	.st8{fill:#603E26;}
	.st9{fill:#2C3E50;}
	.st10{fill:#5B402F;}
</style>
<g>
	<path class="st0" d="M0.6,113.7c0-2.9,0-5.9,0-8.8c0.4-7.6,5.1-12.1,11.1-16c27.9-18.6,55.5-37.7,83.3-56.5
		c12.8-8.6,25.5-17.2,38.2-26c4.3-3,8.7-5.5,14-5.7c2.3,0,4.7,0,7,0c5.3,0.3,9.7,2.8,14,5.7C195,24.7,221.9,43,248.9,61.3
		C262.5,70.5,276,80,289.8,89c6.1,4,10.5,8.8,10.8,16.5c0,2.5,0,5.1,0,7.6c-0.5,8.2-5.2,13.2-12.2,16.5c-1.9,0.9-3.9,1.3-5.9,1.2
		c-4.5,1.4-8.6-0.3-12.6-2c-1.4-0.6-2.7-1.6-4.1-2.2c-2.6-2.4-5.5-4.3-8.7-6c-1.2-2.1-3.5-2.6-5.3-3.8c-5.9-3.9-11.6-8.2-17.7-11.9
		c-0.7-1.6-2.4-1.9-3.7-2.7c-3.8-2.5-7.4-5.2-11.4-7.4c-1.1-1.8-3.1-2.6-4.8-3.6c-6.4-4-12.5-8.6-18.8-12.6
		c-0.3-0.5-0.5-1.1-1.1-1.3c-4.8-1.9-8.4-5.8-12.9-8.1c-2.7-3.1-6.6-4.5-9.9-6.8c-5.6-4.2-11.6-7.9-17.4-11.9
		c-3.3-2.3-3.9-2.3-7.3,0.1c-7.1,5-14.4,9.7-21.5,14.7c-1.9,1.3-4.3,1.8-5.6,3.9c-4.5,2.4-8.1,6.2-12.9,8.1
		c-0.5,0.2-0.8,0.9-1.1,1.3c-6.4,4.3-12.7,8.6-19.1,12.9c-1.5,1-3.5,1.5-4.5,3.4c-3.7,2-7.1,4.4-10.5,6.9c-1.5,1.1-3.7,1.2-4.6,3.2
		c-6.1,3.7-11.8,8.1-17.8,12c-1.8,1.2-4,1.7-5.2,3.7c-3,1.9-6.1,3.6-8.7,6c-3.6,2.2-7.3,3.9-11.6,4.6c-1.8,0.3-3.5,0.3-5.1-0.4
		c-7.4-0.4-12.7-4.3-16.5-10.4C1.1,118.4,1.3,115.9,0.6,113.7z"/>
	<path class="st1" d="M297.1,300.6c-97.7,0-195.3,0-293,0c-2-0.4-3.1-1.6-3.5-3.5c0-4.5,0-9,0-13.5c0.5-2.9,2-5,5.2-5.3
		c4.9-0.3,9.6,1.2,14.5,1c3.6-0.1,7.1-0.9,10.6-1.1c0.8,0,1.5,0,2.3,0c20.1,1.1,40.3,0.2,60.4,0.4c20.3,0.2,40.6,0,60.8,0
		c3.8,0,7.6,0,11.4,0.1c1.3-0.2,2.5-0.6,3.8-0.4c11.3,1.8,22.8,0.5,34.1,0.9c3.4,0.1,6.8,0,10.2,0c3,0,6,0,9-0.7
		c1.6-0.4,3.3-0.3,4.9,0c7.6,0.2,15.2,0.1,22.8,0c5.8-0.1,11.6,0.9,17.3-0.4c0.8,0,1.5,0,2.3,0c4.6,0.6,9.2,1.1,13.8,1.1
		c3.8,0,7.4-1.4,11.2-1c3.2,0.3,4.7,2.4,5.2,5.3c0,4.5,0,9,0,13.5C300.2,299,299,300.2,297.1,300.6z"/>
	<path class="st2" d="M0.6,297.1c1,1.4,2.1,2.5,3.5,3.5C1.1,301.2-0.1,300.1,0.6,297.1z"/>
	<path class="st2" d="M297.1,300.6c1.4-1,2.5-2.1,3.5-3.5C301.2,300.1,300.1,301.2,297.1,300.6z"/>
	<path class="st3" d="M165.9,279.8c-1.2,0.1-2.3,0.2-3.5,0.2c-41.9,0-83.9,0-125.8,0c-1.2,0-2.3-0.1-3.5-0.1c-0.1-1.4,1-1.4,1.9-1.8
		c9.9-3.7,13.2-12,8.5-21.4c-0.6-1.2-1.1-2.3,0.3-3.3c1.8-0.7,3.7-0.5,5.5-0.5c18.2,0,36.5,0,54.7,0c1.9,0,3.7,0.1,5.5-0.7
		c1.5-0.6,2.7-1.6,2.6-3.5c-0.1-1.8-1.4-2.7-3-3.2c-1.5-0.4-3.1-0.3-4.7-0.3c-18.3,0-36.6,0-55,0c-1.9,0-3.9,0.2-5.8-0.5
		c-1.4-1-1-2.1-0.4-3.3c2.8-5.5,3.1-10.9-0.2-16.3c-0.4-0.7-0.5-1.5-0.1-2.2c0.9-1.1,2.2-1,3.5-1c2.6-0.1,5.2,0,7.9-0.1
		c1.1,0,2.1-0.1,3.2-0.4c1.8-0.6,3.2-1.7,3-3.7c-0.1-2.1-1.6-3-3.5-3.3c-3.1-0.4-6.2-0.1-9.3-0.2c-1.5-0.1-3.1,0.2-4.5-0.7
		c-1.5-1.9,0.2-3.3,0.8-4.8c3-6.9,1.2-13.8-4.6-17.9c-1.1-0.8-2.4-1.3-3.7-1.7c-1-0.3-2.1-0.7-2.3-2c0-1.5,1.1-1.9,2.2-2.3
		c9.2-4,12.2-12.2,7.7-21.2c-0.5-1-1-1.9-0.2-2.9c1.1-1,2.5-0.8,3.9-0.9c2.9-0.1,5.8,0.1,8.7-0.1c3.1-0.3,5-1.9,4.8-4
		c-0.1-2.1-1.9-3.4-5-3.5c-2.7-0.1-5.4,0-8.2-0.1c-1.3,0-2.8,0.2-3.9-0.8c-0.9-1.1-0.6-2.1,0-3.2c2.8-5.1,2.8-10.1,0-15.2
		c-0.6-1.2-1-2.3,0.1-3.4c1.4-0.8,3-0.7,4.6-0.7c6.7-0.1,13.4,0,20.2,0c1.3,0,2.5,0,3.8-0.3c1.9-0.5,3.6-1.4,3.6-3.7
		c0-2.3-1.7-3.1-3.6-3.5c-1.2-0.2-2.5-0.2-3.8-0.2c-7,0-14,0.1-21-0.1c-1.5,0-3.2,0.4-4.1-1.5c7.7-5.2,15.3-10.5,23-15.7
		c4.2-1.2,8.5-0.9,12.8-0.9c47.6,0,95.3,0,142.9,0c4.3,0,8.6-0.3,12.8,0.9c7.7,5.2,15.3,10.5,23,15.7c-0.5,1.3-1.6,1.3-2.7,1.4
		c-1.6,0.1-3.1,0.1-4.7,0.1c-24.7,0-49.4,0-74.1,0c-1.7,0-3.3-0.1-4.9,0.4c-1.6,0.5-2.9,1.4-2.9,3.2c-0.1,1.8,1.1,2.8,2.7,3.5
		c1.8,0.7,3.6,0.6,5.5,0.6c24.7,0,49.4,0,74.1,0c2,0,4.1-0.2,6.1,0.5c1.5,0.9,1.4,2.2,0.6,3.5c-2.9,5.2-2.8,10.4,0,15.5
		c0.5,0.9,0.8,1.8,0.2,2.7c-1.1,1.5-2.8,1-4.3,1.1c-1.6,0.1-3.3-0.1-4.9,0.3c-1.7,0.5-2.9,1.6-2.9,3.5c0,1.8,1.2,2.8,2.7,3.4
		c1.7,0.6,3.5,0.4,5.2,0.5c1.5,0.1,3.1-0.3,4.4,0.9c0.9,1.2,0.1,2.2-0.4,3.2c-4.3,8.3-1.2,17,7.4,20.7c1.1,0.5,2.5,0.7,2.6,2.4
		c-0.3,1.5-1.7,1.8-2.8,2.2c-8.4,3.6-11.3,11.3-7.6,19.6c0.6,1.3,1.9,2.6,1,4.3c-1.2,1.3-2.9,0.9-4.4,1c-1.6,0.1-3.1-0.1-4.7,0.2
		c-1.9,0.4-3.3,1.4-3.4,3.5c-0.1,2,1.3,2.9,3,3.5c1.6,0.6,3.3,0.4,4.9,0.5c1.5,0.1,3.2-0.3,4.5,0.9c0.9,1.2,0.1,2.2-0.4,3.2
		c-4.3,8.3-1.2,17,7.4,20.7c1.1,0.5,2.5,0.6,2.7,2.3c-0.2,1.6-1.6,1.8-2.7,2.3c-6.4,2.6-9.3,7-9.2,13.7c0.1,6.1,3.5,10.5,9.7,12.8
		c1.1,0.4,2.7,0.2,2.7,2c-13.4,0.3-26.8,0.3-40.1,0c-0.3-0.2-0.6-0.4-0.8-0.7c-0.9-1.6-0.7-3.4-0.7-5.1c0-12.2,0-24.3,0-36.5
		c0-1.2,0-2.3-0.1-3.5c-0.2-2.4-1.5-3.7-3.9-3.9c-2.4-0.2-4.9,0-7.3-0.1c-1.3-0.1-2.8,0.1-3.3-1.7c0.4-1.7,1.8-1.5,3.1-1.6
		c2.4-0.2,4.9,0,7.3-0.1c3-0.2,4-1.1,4.2-4.1c0.1-1.6,0.2-3.1,0.2-4.7c-0.3-18.8-0.1-37.6-0.1-56.5c0-1.5,0.1-2.9-0.1-4.4
		c-0.4-2.8-1.7-4.1-4.5-4.6c-0.9-0.1-1.7-0.2-2.6-0.2c-15.4,0-30.8,0-46.2,0c-1.2,0-2.3,0.1-3.5,0.3c-7.6-0.7-15.1-0.2-22.7-0.1
		c-2.7,0-4.2,1.6-4.3,3.5c0,1.9,1.5,3.4,4.2,3.8c3.8,0.5,7.6,0.1,11.4,0.2c1.5,0,2.9,0,4.4,0.1c3.6,0.2,4.2,0.8,4.2,4.4
		c0,15.3,0,30.6,0,45.9c0,0.8,0,1.6-0.1,2.3c-0.1,0.3-0.3,0.6-0.6,0.9c-1.4,0.8-3,0.9-4.5,0.9c-3.9,0-7.8,0-11.7,0
		c-0.9,0-1.8,0-2.6,0c-3,0.2-4.6,1.4-4.7,3.4c-0.1,2.1,1.7,3.7,4.5,4.1c2.3,0.3,4.7,0.1,7,0.1c3.1,0,6.2-0.1,9.3,0.1
		c2.3,0.1,3.5,1.1,3.4,3.7c-0.2,6,0.2,12.1-0.2,18.1c-0.2,0.3-0.4,0.6-0.7,0.8c-1.5,0.8-3.2,0.8-4.9,0.8c-7.3,0-14.6,0-21.9,0
		c-1.3,0-2.5,0-3.8,0.3c-1.6,0.4-2.9,1.3-3,3.1c-0.1,1.8,1,2.9,2.5,3.6c1.6,0.7,3.2,0.7,4.9,0.7c7,0,14,0,21,0c1.3,0,2.5,0,3.8,0.3
		c1.4,0.3,2.2,1.1,2.2,2.6c0,7.4,0,14.8,0,22.2C166.7,278.7,166.5,279.3,165.9,279.8z"/>
	<path class="st3" d="M81.4,93.6c7.8-5.4,15.7-10.8,23.5-16.3c4.5-1.1,9.1-0.9,13.6-0.9c21.1,0,42.2,0,63.3,0
		c4.8,0,9.7-0.3,14.5,0.9c7.8,5.5,16,10.5,23.5,16.3c-0.5,1.3-1.6,1.3-2.6,1.5c-1.4,0.1-2.7,0.1-4.1,0.1c-41.7,0-83.3,0-125,0
		c-1.4,0-2.7,0-4.1-0.1C82.9,95,81.8,94.9,81.4,93.6z"/>
	<path class="st4" d="M81.4,93.6c1.1,0,2.1,0.1,3.2,0.1c44,0,88,0,132,0c1.1,0,2.1-0.1,3.2-0.1c5.3,3,10.1,6.6,15.1,10.1
		c-1.2,0.7-2.5,0.5-3.7,0.5c-53.7,0-107.5,0-161.2,0c-1.3,0-2.5,0.1-3.7-0.5C71.2,100.3,76.1,96.7,81.4,93.6z"/>
	<path class="st4" d="M257.3,130.2c-10.1,0-20.3-0.1-30.4-0.1c-17.5,0-34.9,0-52.4,0c-1.6,0-3.1,0.1-4.6-0.5c-2.5-1-3.7-2.7-3.5-5.4
		c0.2-2.6,1.8-4.1,4.3-4.4c1.3-0.2,2.7-0.2,4.1-0.2c27.7,0,55.4-0.1,83.1-0.1c2.9,1.7,5.8,3.2,8,5.8
		C263.6,127.9,261,129.9,257.3,130.2z"/>
	<path class="st4" d="M196.3,77.3c-1.1,0.8-2.4,0.6-3.7,0.6c-28,0-56,0-84,0c-1.3,0-2.6,0.2-3.7-0.6c4.7-3.1,9.3-6.3,14-9.4
		c2.7-1.1,5.6-1.4,8.6-1.4c15.4,0,30.8,0,46.2,0c3,0,5.8,0.4,8.6,1.4C186.9,71.1,191.6,74.2,196.3,77.3z"/>
	<path class="st5" d="M43.8,130.2c4.5,6.8,4.6,13.5,0,20.3c0.4,1.6-0.6,2.4-1.7,3.3c-2,1.7-4.7,1.9-6.9,3.2
		c-1.6,0.4-3.2,0.3-4.8,0.6c-1,0.2-1.9-0.1-2.4-1.1c0.4-1.4-0.8-1.1-1.4-1.3c-9.8-3.9-13.3-14.2-8-23.2c0.4-0.8,1.5-1.5,0-2.3
		c6.2,1.2,11.4-1.6,16.7-4.3C39.2,123.9,43.5,126.4,43.8,130.2z"/>
	<path class="st5" d="M257.3,130.2c2.6-2.1,5.1-4.4,8.6-4.9c2.1,1,4.1,2.1,6.2,3c3.3,1.4,6.8,1.9,10.4,1.3c-1.2,0.6-0.6,1.3-0.2,2.1
		c5.5,9.6,2.1,19.4-8.1,23.5c-0.6,0.2-1.5,0.1-1.1,1.2c-0.6,1.4-1.8,1.2-2.9,1.1c-1.4-0.2-2.9-0.1-4.3-0.5c-2.2-1.3-4.8-1.5-6.8-3.1
		c-1.1-0.9-2.2-1.7-1.8-3.3C252.8,143.7,252.8,136.9,257.3,130.2z"/>
	<path class="st3" d="M182.3,67.9c-21.1,0-42.2,0-63.3,0c10-6.8,20-13.6,29.9-20.5c1.2-0.8,2.2-0.9,3.4,0
		C162.3,54.3,172.3,61.1,182.3,67.9z"/>
	<path class="st4" d="M43.8,130.2c-2.5-2.2-5-4.4-8.5-4.9c2.2-2.6,5.2-4,8-5.8c9.4,0,18.9,0,28.3,0.1c4,0,6,1.6,6.3,4.6
		c0.3,3.5-1.9,5.7-6.1,5.8c-5.2,0.1-10.3,0-15.5,0.1C52.2,130.1,48,130.1,43.8,130.2z"/>
	<path class="st5" d="M268.1,279.8c-13.7-1.6-17.4-16.5-10.9-24.9c2.5-3.3,5.9-4.9,9.8-5.9c1.5-1.4,3.1-2.4,4.9-0.5
		c0.3,0.7,1.1,0.7,1.7,1c7.1,2.5,11.2,7.7,11.3,14.6c0.1,6.9-3.8,12.4-10.8,15.1c-1.2,1.2-2.8,0.3-4.1,0.8
		C269.5,279.9,268.8,279.8,268.1,279.8z"/>
	<path class="st5" d="M43.5,254.2c6,7.9,3.5,17.4-1.5,21.7c-2.6,2.2-5.6,3.5-8.9,3.9c-0.7,0-1.4,0.1-2,0.1c-1.3-0.4-2.9,0.4-4.1-0.8
		c-6.9-2.6-10.9-8.1-10.8-15c0.1-7.3,4.3-12.4,12.5-15.1c1.2-2.5,3.6-1.1,5.5-1.7c2.6,1.5,5.9,1.8,8.2,4
		C43.2,252.1,44.1,252.8,43.5,254.2z"/>
	<path class="st4" d="M227.9,279.5c0,0.1,0.1,0.2,0.1,0.3c-10.7,0.1-21.4,0.2-32.1,0.2c-10,0-20-0.1-30.1-0.2c0-7.1,0-14.2,0-21.4
		c0-4.1-0.1-4.2-4.1-4.2c-7.7,0-15.4,0-23.1,0c-1.5,0-2.9-0.1-4.4-0.4c-3-0.6-4.5-2.8-4.2-5.7c0.3-2.6,2-4.2,5-4.3
		c4.1-0.1,8.2,0,12.3,0c6.1,0,12.3,0,18.4,0c1.6,0.8,1.3,2.3,1.4,3.6c0.8,8,0.6,16,0.6,24c0,5.8,0.9,6.7,6.6,6.7c16,0,32,0,48,0
		C224.4,278.1,226.5,277.7,227.9,279.5z"/>
	<path class="st6" d="M26.9,279.2c1.4,0.3,2.7,0.5,4.1,0.8c-8.6,0.4-17.2,0.3-25.8,0.1c3.8-0.9,7.7-0.2,11.6-0.4
		C20.2,279.4,23.6,280,26.9,279.2z"/>
	<path class="st6" d="M270.2,279.9c1.4-0.3,2.7-0.5,4.1-0.8c5.6,0.9,11.2,0.2,16.8,0.4c1.6,0.1,3.3-0.3,4.9,0.4
		C287.3,280.2,278.7,280.3,270.2,279.9z"/>
	<path class="st0" d="M272,248.5c-1.6,0.2-3.3,0.3-4.9,0.5c-4.2-1.4-8.2-3.2-10.5-7.3c-3.6-6.4-3.2-12.6,1.2-18.5
		c-0.8-2.4,1.3-2.9,2.6-3.9c2-1.5,4.6-1.8,6.7-3.1c1.7,0.1,3.7-0.6,4.9,1.3c0.6,1.1,1.8,1,2.8,1.3c6.9,2.5,11,9.2,10.1,16.6
		C284.1,242.2,278.7,247.6,272,248.5z"/>
	<path class="st5" d="M272,217.4c-1.6,0.5-3.3-0.1-4.9,0.1c-3.2,1.1-5.8,0.1-8.1-2c-0.8-0.7-1.4-1.6-1.1-2.8
		c-7.3-9.2-3.7-23,9.3-25.8c0.9-1.5,2.3-1.9,3.9-1.7c1.2,0.3,1.4,1.9,2.6,2.2c6.8,2.2,10.9,7.3,11.3,14c0.4,6.4-3.2,12.4-9.1,15
		C274.7,217,273.4,217.5,272,217.4z"/>
	<path class="st0" d="M271.4,186.4c-1.4,0.2-2.8,0.3-4.3,0.5c-4.3-1.4-8.3-3.2-10.6-7.3c-3.6-6.4-3.3-12.6,1.2-18.6
		c0.1-2.3,2.9-4.8,5.8-5.2c0.8-0.1,1.7,0.1,2.4-0.5c2.4,0.3,4.8,0.7,7.2,1c6.5,1.4,11.1,6.8,11.7,13.5c0.6,6.8-3.1,13-9.4,15.7
		c-0.8,0.3-1.7,0.5-2.5,0.8C272.5,186.8,272,186.7,271.4,186.4z"/>
	<path class="st7" d="M271.4,186.4c0.6,0,1.1,0,1.7,0c0.2,0.3,0.4,0.7,0.6,1C272.8,187.4,272,187.1,271.4,186.4z"/>
	<path class="st0" d="M34.1,248.5c-1.7,1-3.6,0.2-5.4,0.6c-0.4-0.8-1.3-0.7-2-1c-6.5-2.4-10.5-8-10.6-14.6c0-6.6,4-12.4,10.4-14.7
		c0.8-0.3,1.8-0.2,2.1-1.3c1.5-1.8,3.5-1.1,5.4-1.3c2.7,1.4,5.8,2.1,8.2,4.1c0.9,0.8,1.8,1.5,1.2,2.9c4.9,7.5,4.9,13.3-0.1,20.5
		C42.8,247.7,38.9,249.7,34.1,248.5z"/>
	<path class="st5" d="M34.1,217.5c-1.8-0.1-3.7,0.7-5.5-0.1c-7.1-1.4-12-7-12.5-14.2c-0.4-7.3,3.9-13.3,11.3-15.8
		c1.2-0.3,1.4-1.9,2.6-2.2c1.6-0.2,3,0.2,4,1.7c3.5,1,6.8,2.2,9.2,5.1c5.1,6.1,5.1,13.3,0.1,20.6c-0.4,2.8-3.1,5.1-6.1,5.2
		C36.2,217.9,35.1,218,34.1,217.5z"/>
	<path class="st0" d="M34,186.9c-1.4-0.2-2.8-0.3-4.3-0.5c-0.6,0.3-1.1,0.4-1.7,0c-7.4-2.3-11.7-7.6-11.9-14.7
		C16,165,20,159.1,26.3,156.7c0.5-0.2,1.1-0.2,1.7-0.4c2.4-0.3,4.8-0.7,7.2-1c2.5,0.6,5.1,0.8,7.1,2.8c0.9,0.9,1.7,1.6,1.1,2.9
		c6.4,7.8,3.8,19.3-4.3,23.7C37.5,185.7,35.7,186.2,34,186.9z"/>
	<path class="st7" d="M28.1,186.4c0.6,0,1.1,0,1.7,0c-0.6,0.7-1.4,1-2.3,1C27.7,187.1,27.9,186.7,28.1,186.4z"/>
	<path class="st8" d="M227.9,279.5c-19,0-38.1,0-57.1,0c-4.4,0-4.5,0-4.4-4.4c0.2-10.4-0.4-20.9-0.6-31.3c0,0,0,0,0,0
		c0.6-6.5,0.7-13,0-19.4c-0.3-2.7-1.6-5.4-1.4-8.3c0.1-1.3,0.2-2.5,1.4-3.3l0,0c0.5-1,0.3-2.1,0.3-3.2c0-15.1,0-30.2,0-45.2
		c0-1.5-0.1-2.9-1.1-4.3c-2.1-3.3,0.3-8,4.3-9.3c17.7,0,35.3-0.1,53-0.1c3.8,0,5.7,1.9,5.7,5.6c0,20.6,0,41.2-0.1,61.7
		c-0.9,1.3-2.2,1.5-3.6,1.5c-3.1,0-6.2,0-9.3,0c-2.1,0-4.2,0-5.3,2.2c-1.1,2.2,0.3,3.7,1.7,5.1c0.4,0.4,0.5,0.8,0.5,1.3
		c4.3,0.9,8.7,0.3,13.1,0.4c1.9,0.1,2.9,0.5,2.9,2.6C228,247.2,227.9,263.4,227.9,279.5z"/>
	<path class="st8" d="M93.7,155.9c3.5,0,7,0,10.5,0c1.5,1,1.5,2.6,1.5,4.2c0.1,4.9,0,9.7,0,14.6c0.1,4.4,1.1,5.4,5.6,5.5
		c3.1,0,6.2,0,9.4,0.1c1.3,0,2.8-0.1,3.7,1.3c1.3,3,0.6,6.1,0.5,9.2c0,1.6-1.5,1.8-2.9,1.8c-4.1-0.2-8.1,0.3-12.2,0.9
		c-3.5,0.5-3.8,0.9-4.4,4.5c-1,5.5-0.9,11-0.8,16.6c0,2.3-0.6,3.5-3.2,3.2c-2.5-0.2-5.1,0-7.6-0.1c-1.7-0.8-1.5-2.4-1.5-3.8
		c-0.1-4.9,0-9.7-0.1-14.6c0-4.5-1-5.5-5.5-5.6c-2.6,0-5.3-0.1-7.9,0c-2.9,0.2-4,1.2-4.2,4.2c-0.2,3.8,0,7.6-0.1,11.4
		c-0.1,1.3,0.2,2.8-1.6,3.4c-0.7-5.4-0.2-10.9-0.3-16.4c-0.1-10.6,0-21.3,0-31.9c0-1.3,0.2-2.5,0.3-3.8c1.8,0.6,1.5,2.1,1.5,3.4
		c0.2,3.7,0,7.4,0.1,11.1c0.1,3.9,1.1,4.9,4.9,5c2.7,0.1,5.5,0.1,8.2,0c3.3-0.1,4.4-1.2,4.5-4.5c0.1-5.2,0-10.3,0.1-15.5
		C92.3,158.6,92.3,157,93.7,155.9z"/>
	<path class="st4" d="M34.1,248.5c3.8-0.2,6.6-2.4,9.3-4.8c21.1,0,42.1,0,63.2,0c1.2,0,2.4-0.1,3.5,0.1c2.3,0.4,3.8,1.9,4.1,4.3
		c0.3,2.4-0.6,4.2-2.9,5.2c-1.4,0.7-3,0.9-4.6,0.9c-21.1,0-42.1,0-63.2,0C41,251.2,37.3,250.2,34.1,248.5z"/>
	<path class="st9" d="M93.7,155.9c0,7.5-0.1,15,0,22.6c0,2.4-0.8,3.3-3.2,3.2c-4.6-0.1-9.2-0.1-13.8,0c-2.6,0.1-3.6-0.8-3.6-3.5
		c0.1-5.9,0-11.7-0.1-17.6c0.8-3.5,2.2-4.7,5.5-4.8C83.7,155.8,88.7,155.9,93.7,155.9z"/>
	<path class="st9" d="M124.2,181.7c-5.5,0-11.1-0.1-16.6,0c-2.5,0.1-3.4-0.8-3.4-3.4c0.1-7.5,0-15,0-22.4c4.9,0,9.7-0.1,14.6,0
		c4,0,5.9,2,5.9,6c0.1,6.6,0.1,13.2,0.1,19.8c-0.1,0.1-0.2,0.2-0.3,0.2C124.4,181.8,124.3,181.7,124.2,181.7z"/>
	<path class="st9" d="M73.1,212.6c0.1-5.6,0.2-11.3,0.1-16.9c0-2.6,0.7-3.7,3.5-3.6c4.7,0.2,9.3,0.1,14,0c2.3,0,3.1,0.8,3.1,3.1
		c-0.1,7.4,0,14.8,0,22.2c-0.1,0.2-0.3,0.4-0.5,0.4c-4.8,0-9.6,0.1-14.3,0C75.3,217.8,73.8,216.3,73.1,212.6z"/>
	<path class="st9" d="M124.8,192.2c0,6.3,0,12.6-0.1,19c0,4.9-1.9,6.7-6.7,6.7c-4.6,0-9.1,0-13.7-0.1c-0.7-2.5-0.3-5-0.3-7.5
		c-0.1-5.2,0.1-10.3-0.1-15.5c-0.1-2.2,0.4-3.1,2.8-3c5.8,0.2,11.7,0,17.5,0.1C124.5,192,124.6,192.1,124.8,192.2z"/>
	<path class="st4" d="M169.4,150.7c-2.9,1.8-3.8,4.7-3.4,7.8c0.8,6.1,0.4,12.2,0.5,18.4c0.1,10.7,0,21.4,0,32.1
		c0,1.3,0.2,2.5-0.6,3.7c0-15.9,0-31.8,0-47.7c0-3.8-0.1-3.9-4-3.9c-5,0-9.9,0-14.9,0c-2.2,0-4.4-0.4-5.7-2.4
		c-1.1-1.6-1.4-3.4-0.3-5.2c1.1-2,2.8-2.8,5-2.8C153.8,150.6,161.6,150.7,169.4,150.7z"/>
	<path class="st4" d="M165.8,212.7c0,9.1,0.9,18.2,0.6,27.3c-0.1,1.3,0.2,2.5-0.6,3.7c0-5.8-0.1-11.5,0-17.3c0-2.4-0.8-3.4-3.2-3.3
		c-4.8,0.1-9.6,0.1-14.4,0c-1.3,0-2.6-0.1-3.8-0.4c-2.7-0.7-4.5-3.2-4.2-5.6c0.3-2.5,2.4-4.4,5.3-4.5
		C152.4,212.7,159.1,212.7,165.8,212.7z"/>
	<path class="st4" d="M124.8,181.6c6.4,0,12.8,0,19.2,0c1.8,0,3.5,0.2,4.8,1.6c2.7,2.6,2,6.7-1.5,8.2c-1.5,0.7-3.2,0.8-4.9,0.8
		c-5.9,0-11.9,0-17.8,0c0,0-0.2,0-0.2,0c-0.2-3.6-0.2-7.1,0-10.7L124.8,181.6z"/>
	<path class="st4" d="M34.1,217.5c3.8-0.3,6.6-2.4,9.2-4.8c4.4,0,8.8,0,13.1,0c3.6,0,6.1,2.1,6.1,4.9c0.1,2.9-2.1,5.3-5.7,5.5
		c-4.5,0.2-9,0.1-13.4,0.1C41,220.2,37.3,219.2,34.1,217.5z"/>
	<path class="st4" d="M43.4,161.1c-1.9-1.9-4-3.4-6.5-4.3c-0.7-0.3-1.5-0.5-1.7-1.4c3.5-0.5,6-2.7,8.6-4.9c4.2,0,8.3,0.1,12.5,0.1
		c3.6,0.1,6.1,1.9,6.3,4.8c0.2,3.1-1.9,5.4-5.8,5.6C52.4,161.2,47.9,161.1,43.4,161.1z"/>
	<path class="st0" d="M212,228c-3.2-0.9-4.8-2.9-4.5-5.5c0.3-2.8,2.5-4.6,5.8-4.6c4.9,0,9.7,0,14.6,0c0,1.8,0,3.7,0,5.5
		c0,4.4,0,4.4-4.6,4.4C219.6,227.9,215.8,228,212,228z"/>
	<path class="st4" d="M99,119.6c1.8,0,3.5-0.2,5.3,0c3,0.3,4.5,2,4.7,4.7c0.2,2.8-1.3,4.9-4.2,5.4c-3.8,0.6-7.8,0.6-11.6,0.1
		c-3-0.4-4.8-2.9-4.5-5.6c0.2-2.6,2.5-4.5,5.5-4.7C95.7,119.5,97.4,119.6,99,119.6C99,119.6,99,119.6,99,119.6z"/>
	<path class="st4" d="M257.9,212.7c2.7,2.4,5.4,4.5,9.2,4.8c-3.2,1.7-6.9,2.8-9.3,5.7c-2.7,0-5.4,0.1-8.1-0.1
		c-3.7-0.3-5.9-2.4-5.8-5.3c0.1-3,2.5-5,6.2-5.1C252.6,212.7,255.2,212.7,257.9,212.7z"/>
	<path class="st4" d="M265.9,155.4c-2.4,2.3-6.1,3-8.2,5.7c-2.7,0-5.5,0.1-8.2,0c-3.6-0.2-5.8-2.4-5.8-5.3c0.1-2.9,2.4-5,6-5.1
		c2.5-0.1,5.1-0.1,7.6-0.1C259.9,152.6,262.4,154.8,265.9,155.4z"/>
	<path class="st10" d="M124.6,181.6c0.3,3.6,0.2,7.1,0,10.7c-5.8,0-11.7,0-17.5-0.1c-2.1,0-3,0.8-2.9,2.9c0.1,7.6,0.1,15.2,0.1,22.7
		c-3.7,0.3-7.4,0.2-11.1,0c0.2-0.1,0.4-0.3,0.5-0.4c2.2,0,4.5-0.1,6.7,0c2.4,0.1,3.3-0.9,3.3-3.3c-0.1-6.3,0.1-12.7-0.1-19
		c-0.1-2.6,0.9-3.7,3.5-3.6c4.7,0.1,9.3,0,14,0.1c2.1,0,3.1-0.8,3-2.9c-0.1-2.3,0-4.7,0-7C124.4,181.6,124.5,181.6,124.6,181.6z"/>
	<path class="st9" d="M197.2,196.9c-1.9,0-3.7,0.1-5.6,0c-2.8-0.2-4.5-1.8-4.6-4.7c-0.1-3.5-0.1-7,0-10.5c0.1-3.1,2.1-5.1,5.2-5.2
		c3.3-0.1,6.6-0.1,10,0c3.2,0.1,5.2,2.2,5.3,5.5c0.1,3.1,0.1,6.2,0,9.4c-0.1,3.9-1.7,5.5-5.6,5.6C200.3,197,198.7,196.9,197.2,196.9
		C197.2,196.9,197.2,196.9,197.2,196.9z"/>
</g>
</svg>
