<?xml version="1.0" encoding="utf-8"?>
<!-- Generator: Adobe Illustrator 23.0.0, SVG Export Plug-In . SVG Version: 6.00 Build 0)  -->
<svg version="1.1" id="Layer_1" xmlns="http://www.w3.org/2000/svg" xmlns:xlink="http://www.w3.org/1999/xlink" x="0px" y="0px"
	 width="300px" height="300px" viewBox="0 0 300 300" style="enable-background:new 0 0 300 300;" xml:space="preserve">
<style type="text/css">
	.st0{fill:#CA8252;}
	.st1{fill:#A4A4A3;}
	.st2{fill:#71C184;}
	.st3{fill:#4C8056;}
	.st4{fill:#CB4B4C;}
	.st5{fill:#8596CA;}
	.st6{fill:#F19B1F;}
	.st7{fill:#DB9A66;}
	.st8{fill:#D0D3D0;}
	.st9{fill:#F0F1F0;}
	.st10{fill:#4FB96F;}
</style>
<g>
	<path class="st0" d="M109.6,300.6c-1-0.6-1.9-1.2-2.9-1.8c-3.5-2.4-5-6.5-4.1-10.7c0.8-3.7,4-6.6,8-7.4c5.8-0.5,11.7-0.1,17.5-0.2
		c3.8-0.1,7.6-0.2,11.4,0c4.7,0.2,9.3-0.9,14-0.6c13.6,0.8,27.2,0.5,40.9,0.5c0.5,0,1,0,1.4,0.2c4.4,0.9,7.5,4.2,8.1,8.4
		c0.6,4.3-1.6,8.4-5.4,10.5c-0.7,0.4-1.8,0.3-2.2,1.1C167.4,300.6,138.5,300.6,109.6,300.6z"/>
	<path class="st1" d="M148.2,32.2c0-8.7,0-17.5-0.1-26.2c0-2.7,1.4-4.3,3.6-5.4c1,0,2,0,2.9,0c2.7,1.6,3.7,3.9,3.6,7.1
		c-0.2,8.2-0.1,16.4-0.2,24.6c-2.2-0.1-2.6-2.1-3.7-3.4c-1-1.3-1.6-1.2-2.6,0C150.8,30.1,150.4,32.1,148.2,32.2z"/>
	<path class="st2" d="M148.2,32.2c1.4-1.2,2.3-2.8,3.4-4.3c1-1.4,1.9-1.7,3,0c1,1.5,1.9,3.1,3.4,4.3c4.4,6.8,9.4,13.1,14.3,19.6
		c32,43.1,64.1,86.2,96.2,129.3c0.6,0.8,1.5,1.6,1.6,2.7c1.3,5.7,1.6,11.4,0,17.1c0,4.2,0,8.4-0.1,12.6c-0.1,6.3-4.3,10.7-10.6,10.8
		c-6.8,0.1-13.6,0-20.4,0c-0.2-0.3-0.3-0.5-0.3-0.9c0.2-11.8,0.2-23.6,0-35.4c-0.1-6.7-3.2-12.5-7.9-17.2
		c-16.7-16.9-33.5-33.6-50.3-50.3c-0.2-0.2-0.5-0.4-0.7-0.6c-3.8-5.2-6.6-11.1-9.8-16.6c-3.7-6.3-7.2-12.8-10.9-19.1
		c-1.4-2.4-1.9-4.8-1.9-7.5c0.1-5.9,0-11.7,0-17.6c0-1.3,0.1-2.6-0.4-3.8c-0.7-1.9-2.1-3.1-4.2-2.9c-2.1,0.2-3.3,1.5-3.6,3.6
		C149,57,149,58,149,59c0,6.2,0,12.3,0,18.5c0,2-0.3,3.9-1.3,5.6c-6.6,11.5-13.1,23.1-19.7,34.6c-0.4,0.8-0.9,1.5-1.5,2.1
		c-17.4,17.3-34.7,34.6-52,52c-4.7,4.8-7.1,10.6-7,17.5c0.1,10.2,0,20.3,0,30.5c0,1.3,0.1,2.5-0.2,3.8c-0.1,0.3-0.3,0.5-0.5,0.8
		c-6.8,0-13.6,0.2-20.4,0.1c-6-0.1-10.1-4.4-10.2-10.4c-0.1-4.3,0-8.5,0-12.8c-0.4-0.4-0.6-0.8-0.6-1.3c-0.1-5.5-1-11,0.7-16.4
		c7.4-10,14.7-19.9,22.1-29.9c13.8-18.6,27.5-37.1,41.3-55.7c0.8-3.2,3.2-5.3,5-7.8c6.9-9.4,14-18.7,20.8-28.2
		c0.1-0.2,0.3-0.2,0.5-0.3c0.3-0.2,0.8-0.2,1-0.5C134.1,51.5,141.2,41.9,148.2,32.2z"/>
	<path class="st3" d="M239.1,223.8c0,0.2,0,0.3-0.1,0.5c-18.4,0-36.8,0.1-55.2,0.1c-1.3-0.1-1.7-1.2-2.3-2.1
		c-4-6.3-9.1-11.7-14-17.2c-3.8-4.2-6.1-9-6-14.8c0-2.4,0.7-4.6,1.9-6.7c0.9-1.4,0.6-2.2-1-2.8c-12.2-4.3-26.4,1-26.9,17.7
		c-0.1,1.9,0,3.9,0.2,5.8c0.3,2.5-0.1,2.9-2.7,2.7c-3.4-0.2-6.8-0.3-10.1,1.2c-0.9,0.4-1.8,0.8-2.5,1.5c-0.7,0.6-1.7,1.3-1.5,2.4
		c0.2,1,1.3,1.1,2.1,1.4c4,1.3,7.7,3,9.1,7.5c0.4,1.2,1,2.4-0.3,3.5c-19.8,0-39.7,0-59.5-0.1c-1.2,0-2.3-0.1-3.5-0.1
		c0-0.1,0-0.3,0-0.4c1.8-5.3,5-9.9,7.7-14.7c13-23.1,26.1-46.2,39.3-69.2c3.9-6.9,7.2-14.1,12.1-20.4c5.6-9.9,11.3-19.8,16.9-29.7
		c0.5-0.8,0.9-1.7,1.5-2.5c2.8-4.1,4.3-8.5,3.9-13.7c-0.4-5.4-0.1-10.9-0.1-16.4c0-3.7,1.6-5.6,4.8-5.7c3.1-0.1,5.1,2.1,5.2,5.8
		c0,6.4,0.1,12.9,0,19.3c0,2.6,0.4,4.9,1.8,7.2c6.9,11.9,13.7,23.8,20.5,35.7c5.2,7.1,8.9,15.1,13.3,22.7
		c10.6,18.5,21.1,37.1,31.6,55.7c4.3,7.6,8.7,15.2,13,22.9C238.8,221.7,239.3,222.7,239.1,223.8z"/>
	<path class="st4" d="M129.9,224.4c0-4.3-1.9-7.3-5.7-8.9c-0.9-0.4-1.9-0.6-2.7-1.1c-1.3-0.7-3.5-0.1-3.7-2.2
		c-0.1-2.1,1.8-2.8,3.3-3.7c3.7-2.4,7.9-2.7,12.1-2.1c2.2,0.3,2.2-0.2,1.9-2c-0.9-5.6-0.5-11.1,2.3-16.2c4.2-7.9,13.9-11.5,23.6-8.7
		c0.1,0,0.2,0.1,0.3,0.1c1.4,0.6,3.5,0.7,4.2,1.8c0.8,1.2-1.3,2.3-1.9,3.5c-2.8,5.6-1,13.9,4.7,19.9c5.8,6.1,11.2,12.5,15.7,19.6
		c3.5,8.1,5.4,16.6,4.8,25.5c-0.8,12.3-7.2,20.8-17.9,26.3c-0.4,0.2-0.9,0.1-1.4,0.2c-0.2-1.5,1.1-2.2,1.8-3.2
		c5.1-6.5,5.6-14.2,1.2-20.5c-2.4,3.4-5.7,4.9-9.8,4.6c-1.1-0.1-2.1-0.3-3.1-0.8c-1.5-0.8-2-1.8-1.1-3.3c0.6-0.9,1.2-1.8,1.6-2.8
		c3.8-7.9,1.9-16.4-4.9-21.9c-0.4-0.4-0.9-1-1.5-0.8c-0.8,0.3-0.6,1.2-0.6,1.8c0.7,8.4-3.6,13.9-10.2,18c-1.2,0.7-2.2,1.6-3.3,2.4
		c-6.9,5.3-7.7,13.8-2,20.3c2.5,2.8,5.3,5.1,8.6,7c0.9,0.5,2.1,0.8,2.2,2.1c-0.5,0.7-1,1.1-1.9,0.6c-0.7-1-1.9-0.9-2.8-1.2
		c-11.5-3.4-20.2-10.1-23.7-22c-2.9-9.9-0.5-18.9,6.3-26.6C127.8,228.6,129.3,226.8,129.9,224.4z"/>
	<path class="st5" d="M230,9.3c15.7-7.2,38.6-4,52.3,12.7c14.2,17.4,14.3,41.3,0.7,58c-13.9,17.2-37,20.9-53,13.4
		c17.3-8.8,27.2-22.6,27.2-42.2C257.2,31.8,247.1,18.1,230,9.3z"/>
	<path class="st6" d="M148.3,279.4c-4.9-2.8-9.7-5.8-12.9-10.7c-4.1-6.3-2.6-14.5,3.4-19c1.5-1.1,3-2.2,4.5-3.2
		c6.3-4,9.7-9.4,9.1-17c-0.1-1-0.6-2.5,0.4-2.9c1.1-0.5,2,0.8,2.9,1.6c8.2,7.5,9.3,15.8,3.4,25.3c-1.1,1.7-0.4,2.1,1,2.7
		c4.5,1.9,9.8-0.2,12-5.3c2.9,3.7,4.3,7.6,4,12.1c-0.4,5.4-3,9.8-6.8,13.5c-2.5,2.1-5.5,2.7-8.6,3.1c-3.8,1.4-7.8,0.6-11.7,0.6
		C148.6,280.2,148.4,279.8,148.3,279.4z"/>
	<path class="st3" d="M260.5,259.1c1.9-2.5,3.5-4.8,5.3-7c2.1-2.7,5-3.1,7.4-1.3c2.2,1.7,2.6,4.7,0.7,7.3
		c-4.9,6.6-9.7,13.2-14.8,19.7c-2.6,3.4-6,3.4-8.6,0c-5.1-6.5-10-13.2-14.9-19.9c-1.9-2.6-1.3-5.6,1.1-7.2c2.4-1.7,5.1-1.2,7.2,1.4
		c0.9,1.1,1.8,2.3,2.7,3.5c0.9,1.2,1.8,2.3,3.2,4.2c0-4.3,0-7.8,0-11.3c0-1.4-0.1-2.7,0.1-4.1c0.3-2.8,2.4-4.7,5-4.8
		c2.7,0,4.9,1.7,5,4.6c0.3,4,0.1,8,0.2,12C260,257.1,259.7,258,260.5,259.1z"/>
	<path class="st1" d="M270.2,201c0-5.7,0-11.4,0-17.1c4.9,6.4,9.7,12.8,15.2,19.9c0-2.2-0.1-3.5,0-4.8c0.2-3,2.5-5.2,5.3-5.1
		c2.8,0.1,4.7,2.1,4.7,5.2c0.1,6.5,0,13.1,0,19.6c0,2.5-0.8,4.3-3.3,5.3c-2.5,1-4.4,0-5.9-1.9c-5-6.6-9.9-13.2-14.9-19.9
		C271,201.8,270.6,201.4,270.2,201z"/>
	<path class="st7" d="M148.3,279.4c3.5,1.3,7,0.7,10.5,0.4c0.7-0.1,1.3-0.1,2-0.2c0.9,0.9,2,0.5,3,0.5c9.5,0,19.1,0,28.6,0
		c1.1,0,2.4-0.3,3.4,0.5c-28.4,0-56.8,0-85.2,0c1.2-0.8,2.5-0.5,3.7-0.5c10.7,0,21.4,0,32.2-0.1
		C147.1,279.9,147.7,279.6,148.3,279.4z"/>
	<path class="st8" d="M126,61.6c-1.5,4.1-4.7,7.1-7.2,10.5c-6.2,8.7-12.8,17.2-19.2,25.8c-1-1-2.2-0.6-3.3-0.6
		c-24.9,0-49.8,0-74.7,0c-6.5,0-11.4-2.9-14.3-8.5C4.6,83.3,5,77.6,8.9,72.5c1.6-2.1,3.7-3.7,6.3-4.6c1.6-0.5,1.9-1.3,1.5-3.1
		c-3.2-13.3,4-25.3,17.2-28.1c10-2.2,20.8,1.8,25.9,13.7c0.4,0.4,0.7,1.4,1.1,0c1.5-16.3,15.7-29,32-29.4
		c16.2-0.4,31,11.2,33.5,28.4C127,53.4,126.8,57.6,126,61.6z"/>
	<path class="st3" d="M46.3,259.8c0-5.2,0-9.6,0-14c0-3.9,1.9-6.2,5.1-6.2c3.2,0,5,2.1,5,6.2c0,4.4,0,8.7,0.5,13.5
		c1.8-2.3,3.5-4.7,5.3-7c1.3-1.8,3-2.8,5.3-2.4c3.6,0.6,5.5,4.7,3.3,7.7c-5,7.1-10.3,14-15.6,20.8c-2.1,2.6-5.4,2.7-7.4,0.2
		c-5.5-6.9-10.8-14.1-16-21.2c-1.5-2.1-0.7-5,1.3-6.5c2.2-1.6,5-1.4,6.8,0.8C42,254,43.9,256.6,46.3,259.8z"/>
	<path class="st1" d="M36.3,183.4c0,5.9,0,11.8,0,17.7c-4,4-6.9,8.9-10.4,13.3c-1.9,2.4-3.7,5-5.6,7.5c-1.5,2-3.3,3.1-5.8,2.3
		c-2.6-0.8-3.8-2.7-3.8-5.3c-0.1-6.4-0.1-12.9,0-19.3c0-3.4,2.2-5.6,5.1-5.7c3-0.1,5.1,2.2,5.3,5.7c0,1,0,2.1,0,4.1
		C26.5,196.5,31.4,190,36.3,183.4z"/>
	<path class="st9" d="M60.9,50.4c0,0.6,0,1.2,0,2c-0.9-0.5-1.1-1.2-1.1-2C60.2,50.4,60.5,50.4,60.9,50.4z"/>
	<path class="st10" d="M239.1,223.8c-10.7-18.9-21.4-37.7-32.1-56.6c-8.5-15.1-17-30.2-25.6-45.2c-0.4-0.8-0.7-1.6-1-2.4
		c0.8,0.7,1.7,1.3,2.4,2.1c15.7,15.7,31.5,31.5,47.2,47.2c4.8,4.8,8.4,10.2,9.3,17.1c0.1,0.6,0.2,1.2,0.2,1.7c0,11.4,0,22.8,0,34.3
		C239.6,222.6,239.7,223.3,239.1,223.8z"/>
	<path class="st10" d="M126,119.5c-4.2,7.6-8.3,15.2-12.6,22.7c-6.3,11.1-12.6,22.2-18.9,33.2c-8,14-16,28.1-23.9,42.1
		c-1.2,2.1-2.1,4.4-3.7,6.3c0-12.5-0.3-25,0-37.5c0.1-5.4,2.4-10.3,6.2-14.2c17.3-17.5,34.7-34.8,52.1-52.2
		C125.4,119.8,125.7,119.7,126,119.5z"/>
</g>
</svg>
