<?xml version="1.0" encoding="utf-8"?>
<!-- Generator: Adobe Illustrator 23.0.0, SVG Export Plug-In . SVG Version: 6.00 Build 0)  -->
<svg version="1.1" id="Layer_1" xmlns="http://www.w3.org/2000/svg" xmlns:xlink="http://www.w3.org/1999/xlink" x="0px" y="0px"
	 width="300px" height="230.6px" viewBox="0 0 300 230.6" style="enable-background:new 0 0 300 230.6;" xml:space="preserve">
<style type="text/css">
	.st0{fill:#C7D1DB;}
	.st1{fill:#B8C2CC;}
	.st2{fill:#96D47E;}
	.st3{fill:#82CC64;}
	.st4{fill:#4E5A61;}
	.st5{fill:#5F6C75;}
	.st6{fill:#D09975;}
	.st7{fill:#A1AAB7;}
	.st8{fill:#8F9AA5;}
</style>
<g>
	<path class="st0" d="M0.6,222.5c3-6.7,4.6-13.8,7-20.7c2.5-7.1,5-14.2,6.9-21.4c1.5-5.7,5.6-9.2,9.1-13.3c5.9-6.8,12-13.3,18-19.9
		c3.3-3.6,3.9-8.4,5.2-12.8c5-16.7,9.9-33.4,14.8-50.1c0.9-3,2.5-4.8,5.4-6c9.4-3.8,18.7-7.8,28-11.7c2.8-1.2,4.6-3,5.8-5.8
		c6.9-17.1,14-34.2,21-51.4c1.3-3.2,3.7-4.8,7-4.8c7.7-0.1,15.4,0,23.1,0c1.4,0.6,1.7,2,2.2,3.3c4.3,11.6,8.6,23.2,12.9,34.8
		c1.1,2.9,2.8,5,5.5,6.5c9.7,5.5,19.1,11.4,28.9,16.6c4.8,2.5,7.1,6.1,7.3,11.3c0.4,6.6,1,13.2,1.7,19.8c0.2,2-0.4,3.3-2.1,4.4
		c-2.8,1.8-5.6,3.6-8.4,5.3c-2,1.2-3.1,2.8-3.5,5.1c-0.9,6.1-2.1,12.1-3.1,18.2c-0.1,0.8-0.3,1.5-0.2,2.3c0.1,1.7,0.9,3,2.6,3.5
		c1.7,0.5,3-0.3,4.1-1.6c0.7-0.9,0.9-1.9,1.1-3c0.8-4.8,1.6-9.6,2.4-14.4c0.6-3.8,5.6-8,9.5-8.1c0.6,0,1.3-0.1,1.7,0.2
		c4,2.8,7.8,5.7,9.8,10.4c-0.2,1.1-1,1.9-1.7,2.7c-11.3,12.8-13,30.2-4.1,44.7c5.4,8.9,13.4,14.5,23.6,16.8c1.6,0.4,3.4,0.4,4.1,2.3
		c0.3,1.2,0.3,2.5,0.3,3.8c0,12.2,0,24.4,0,36.6c0,1.5,0.2,3.1-0.7,4.5c-0.8,0.7-1.8,0.8-2.7,0.8c-10.4,0-20.9,0.2-31.3-0.1
		c-0.3,0-0.6-0.1-0.9-0.2c-1.4-0.4-1.3-1.2-0.4-2.1c1.8-1.7,3.4-3.5,2.4-6.1c-1.1-3.2-2.2-6.5-5.8-8c-0.2-0.1-0.3-0.2-0.5-0.3
		c-5.4-1.6-8.9-4.9-9.4-10.8c-0.1-1-0.6-2.2-1.5-2.8c-3.9-2.3-7.9-4.6-12.7-4c-1.4,0.6-2.5,1.6-3.3,2.8c-1.8,3.2-4.7,4.8-8.2,5.7
		c-1.7,0.4-3.4,0.9-5.1,1.5c-1.6,0.5-2.9,0.3-3.5-1.5c-1.4-6.7-2.4-13.4-3.2-20.2c-0.5-4.7-2.5-7.8-6.8-10.1
		c-8.7-4.6-8.9-5.3-8.5-15.1c0-0.8,0.1-1.6,0.4-2.3c3-3.5,6.9-5.9,10.7-8.5c1.3-0.9,3-0.6,4.6-0.3c2.4,0.5,4.8,0.9,7.2,1.3
		c2.5,0.3,4.3-0.8,4.6-2.9c0.4-2.1-0.8-3.8-3.2-4.5c-2.3-0.6-4.6-0.9-6.9-1.3c-2-0.4-3-1.4-3.3-3.5c-0.3-2.4-0.4-4.9-1-7.2
		c-0.7-2.7-2.1-4-4-3.9c-2.1,0.2-3.3,1.8-3.3,4.7c0,2.5,0.5,5,0.9,7.5c0.4,2.3-0.2,4-2.2,5.3c-1.9,1.2-3.3,3-5.6,3.6
		c-1.5,0-2.1-1.2-2.7-2.3c-2.1-3.6-4.1-7.2-6.5-10.7c-4-7-8.2-13.9-12.3-20.9c-2.2-3.8-3.6-4.4-8-3.7c-3.1,0.5-6.1,1.1-9.2,1.7
		c-3,0.5-4.8,2.2-5.8,5c-3.2,8.9-6.5,17.8-9.6,26.7c-1.6,4.7-4.1,8.6-7.5,12c-4.4,4.5-8.6,9.4-12.8,14c-1,1.1-1.6,2.4-2.3,3.7
		c-3.4,6.9-6.4,14-9.8,20.9c-0.9,1.8-1.5,3.6-2,5.5c-1.7,7-3.6,14-5.4,21c-0.8,3.2-0.5,5.8,2.4,7.7c0.7,0.5,2,1.1,0.3,2
		c-1.1,0.4-2.3,0.3-3.5,0.3c-13,0-26.1,0-39.1,0c-0.7,0-1.4,0-2-0.1c-4.1-0.3-5.7-1.7-6.7-5.5C0.6,224.8,0.6,223.6,0.6,222.5z"/>
	<path class="st1" d="M300.6,226.6c-2,3.1-4.7,4.5-8.6,4.2c-3.6-0.3-7.2-0.1-10.8-0.1c-1.5-0.7-1.3-2-1.3-3.3c-0.1-3.2,0-6.4,0-9.6
		c0-3.5-0.1-3.6-3.1-1.9c-0.9,0.5-1.9,1.1-2.9,1.3c-2.6,0.7-4.7-0.2-6-2.3c-1.3-2.1-0.9-4.5,1-6.4c1.4-1.4,3.2-2.3,4.9-3.2
		c2-1,2.1-2,0.3-3.3c-5.8-4.2-8.4-10.3-10.1-16.9c-0.2-0.7-0.3-1.3-0.1-2c0.4-1.1,1.4-1.6,2.3-2c4.6-2.3,8.8-5.2,12.2-9.2
		c0.4-0.5,0.9-1.1,1.7-0.8c2,6.3,4,12.6,6,18.9c1,3.3,2.9,6.1,5.3,8.6c3.2,3.2,7,5.9,9.2,10C300.6,214.5,300.6,220.5,300.6,226.6z"
		/>
	<path class="st2" d="M245.5,185c-6-1.1-11.6-3-16.7-6.5c-19.5-13.3-22.4-40.8-6-57.8c0.4-0.4,0.7-0.9,1.1-1.3
		c1.1-1.7,0.8-3.5,0.4-5.3c-1.4-5.6-0.6-11,1.7-16.2c0.7-1.7,1.4-3.5,3.2-4.3c4.5-5.4,9.9-9.1,17-10.3c9.7,3.3,15.9,9.9,18.4,19.8
		c0.8,3.3,0.8,6.6,0.2,9.9c-0.6,3.2,0.2,5.7,2.4,8c13.8,14.8,13.6,38.3-0.3,52.9c-2.7,2.8-5.9,5.1-9.3,7.1c-0.9,0.5-1.8,1.3-3,0.4
		c-0.7-1.1-0.5-2.3-0.5-3.4c0-7.9,0.1-15.8-0.1-23.7c0-3,1-5.2,3.4-7c2.1-1.6,4-3.4,6-5.1c2.3-2.1,2.6-4.1,1.2-5.8
		c-1.4-1.6-3.4-1.6-5.8,0c-1.2,0.8-2.3,2.5-3.7,1.8c-1.6-0.8-0.9-2.8-1-4.3c-0.1-1.1,0-2.2-0.3-3.2c-0.5-1.7-1.6-2.9-3.6-2.9
		c-1.9,0-3,1.2-3.6,2.9c-0.4,1.1-0.3,2.3-0.3,3.5c0,6.4,0,12.9,0,19.3c0,1,0.1,2-0.2,2.9c-0.3,1.5-1.2,1.9-2.6,1.1
		c-0.7-0.4-1.2-1-1.9-1.4c-2.5-1.9-4.4-1.8-5.9,0c-1.5,1.8-1.1,3.7,1.2,5.8c1.9,1.8,3.9,3.5,6,5.1c2.5,1.8,3.5,4,3.3,7
		c-0.1,2.6,0,5.3,0,7.9C246.3,182.8,246.5,184.1,245.5,185z"/>
	<path class="st1" d="M229.1,93.5c-3.1,4.9-5,10.2-4.7,16.2c0.1,2,0.3,3.9,1,5.7c0.7,2,0.1,3.1-1.5,4c-2.2-4-6-6.6-9.1-9.7
		c-0.3-0.3-0.9-0.2-1.4-0.2c-3.8-0.2-8.9,4-9.5,7.7c-0.8,5.2-1.5,10.3-2.4,15.5c-0.4,2.5-3.3,4.6-5.5,4.2c-2.4-0.4-4.1-2.6-3.7-5.5
		c1.1-7.2,2.3-14.3,3.6-21.5c0.3-1.5,1.3-2.6,2.6-3.4c3.1-2,6.2-4.1,9.4-5.8c1.9-1,2-2.4,1.8-4.1c-0.6-6.1-1.3-12.1-1.6-18.2
		c-0.3-5.4-2-9.3-7.3-12.1c-10.3-5.4-20.3-11.5-30.4-17.4c-2-1.2-3.1-3.1-3.9-5.3c-4.5-12.2-9-24.4-13.6-36.7
		c-0.3-0.8-0.7-1.6-1.1-2.4c4.5,0,9-0.1,13.5-0.1c4.9,0,7,1.5,8.8,6.1c2.8,7.4,5.8,14.7,8.4,22.1c1,2.7,2.6,4.4,5,5.8
		c11.6,6.6,23.2,13.2,34.8,19.8c3.3,1.9,5,4.5,5.2,8.5C227.8,75.6,228.5,84.5,229.1,93.5z"/>
	<path class="st3" d="M254.9,181.5c15-7.9,22.3-20.4,21.6-37.3c-0.4-8.7-3.8-16.4-9.9-22.8c-2.4-2.5-3.3-5.2-2.6-8.7
		c2.5-11.3-5.5-24.6-16.9-28.4c-0.6-0.2-1.5,0-1-1.1c15.9-2.3,27.5,8.8,29.5,20.8c0.7,4,0.7,8-0.6,11.8c-0.4,1.3-0.2,2.2,0.8,3.1
		c14.5,13,17,35.6,4.2,52.1c-4.3,5.3-9.7,8.9-15.8,11.8c-2.9,2-6,3.5-9.7,2.2C254,183.7,253.9,182.5,254.9,181.5z"/>
	<path class="st4" d="M158.1,230.6c-23.6,0-47.2,0-70.8,0c-4.1-0.8-6-3.5-5.3-7.9c0.5-3.4,1.7-6.6,2.4-10c2.6-13.8,9-26.1,14.8-38.6
		c1.5-3.1,3.6-5.8,5.9-8.3c4-4.2,7.9-8.6,11.9-12.9c2.3-2.5,3.9-5.3,4.9-8.5c0.7-2.2,1.6-4.4,2.4-6.6c1.9-4.6,6.5-5.8,10.4-2.6
		c2.7,4.3,5.4,8.6,8.1,13c3.1,2.6,4,6,2.6,9.9c-0.2,14.1-1.4,11.6,9.6,17.8c3,1.7,4.7,3.9,5.2,7.5c0.9,7.6,2.3,15.2,3.4,22.8
		c0.6,1.4,0.2,2.6-0.6,3.8c-2.3,3.4-4.3,6.9-6.3,10.5c-2.4,4-2.2,5.2,0.9,8.8C157.8,229.5,158.3,229.9,158.1,230.6z"/>
	<path class="st5" d="M134.7,135.2c-2.3-0.8-4.5-1.9-6.9-0.4c-1.3,0.8-2.3,1.7-2.8,3.2c-0.7,1.9-1.6,3.8-2,5.8
		c-1.2,5.1-4.3,8.9-7.7,12.5c-4.2,4.4-8.4,8.9-12.4,13.6c-0.8,1-1.6,2-2.1,3.1c-3.7,7.9-7.8,15.7-10.9,23.9
		c-3.2,8.5-5,17.5-7.1,26.4c-0.8,3.5,0.8,5.6,4.6,7.5c-11.5,0-23,0-34.5,0c-4.5-2.2-5.4-4.2-4.2-9.1c1.8-7.2,3.5-14.4,5.6-21.5
		c2.3-7.7,6.6-14.5,9.6-21.9c2.1-5.3,5.5-9.6,9.3-13.7c13.2-14,13.1-14.1,19.6-32.4c1.8-5.1,3.8-10.2,5.6-15.4
		c0.9-2.5,2.5-4.2,5.1-4.7c4-0.8,8-1.5,12.1-2.1c2.6-0.4,4.7,0.5,6,2.7C125.9,120,130.3,127.6,134.7,135.2z"/>
	<path class="st6" d="M254.9,181.5c0,1.2,0,2.3,0,3.5c0.9,1,0.9,2.3,0.9,3.6c0,12.8,0,25.7,0,38.5c0,1.3,0,2.6-1,3.5
		c-3.1,0-6.1,0-9.2,0c0-15.2-0.1-30.4-0.1-45.6c0-4.3,0-8.6,0.1-12.9c0-1.5-0.4-2.6-1.6-3.6c-2.6-2.1-5.1-4.2-7.7-6.3
		c-2.7-2.2-3.2-4.6-1.4-6.8c1.8-2.3,4.2-2.5,6.9-0.7c1.2,0.8,1.9,3,3.3,2.1c1-0.6,0.3-2.7,0.3-4.2c0-6.9,0-13.9,0-20.8
		c0-2.1,0.7-3.8,2.6-4.9c1.7-1,3.2-0.7,4.6,0.3c1.5,1,2.1,2.5,2.1,4.3c0,1.9,0,3.9,0,6.4c1.5-1.2,2.7-2.1,3.9-3
		c2.2-1.6,5-1.5,6.6,0.4c1.7,2,1.6,4.4-0.6,6.5c-2.1,2-4.4,3.9-6.7,5.7c-2.2,1.7-3.4,3.6-3.3,6.6C255,163.3,254.9,172.4,254.9,181.5
		z"/>
	<path class="st7" d="M158.1,230.6c-4.7-3.9-5.1-5.8-1.9-11.2c2.1-3.6,4.3-7.2,6.6-10.7c0.6-0.9,0.7-1.8,0.7-2.7
		c0.6,0.7,1,1.1,2.2,0.7c2.7-1,5.5-1.7,8.3-2.6c2.2-0.6,3.5-2.3,4.7-4.1c1-1.6,2.1-3.1,4.1-3.5c2,2.9,2.7,6.4,3.7,9.8
		c1.7,6.1,5,10.1,11.1,12.5c5,2,7.8,6.7,9.9,11.6C191,230.6,174.6,230.6,158.1,230.6z"/>
	<path class="st8" d="M207.4,230.6c-1.6-2.1-3.1-4.2-4.6-6.3c-1.8-2.5-4-4.4-7-5.4c-4.5-1.5-7.6-4.5-8.9-9.2
		c-1.3-4.4-3.2-8.5-4.1-13c1-0.9,2.2-0.7,3.3-0.3c2.7,0.9,5.3,1.8,8,2.8c3.2,1.2,4,4.1,4.4,7c0.4,3.4,2,5.4,5.2,6.6
		c3.7,1.4,7.2,3.1,8.9,7.4c2,5,1.7,7.2-2.9,10.3C208.9,230.6,208.2,230.6,207.4,230.6z"/>
	<path class="st1" d="M145.4,158c0.3-3.6-0.6-6.9-2.6-9.9c2.5-1.1,4.4-3.2,6.7-4.7c1.3-0.8,1.2-2.1,0.9-3.4c-0.5-3-1-5.9-1-8.9
		c0-2.8,1.5-4.1,3.9-4.7c2.1-0.5,4.3,1.1,4.9,3.6c0.6,2.7,1,5.5,1.2,8.3c0.1,1.6,0.5,2.5,2.3,2.7c2.3,0.2,4.6,0.7,6.9,1.2
		c3.3,0.6,5,3.1,4.3,6.1c-0.6,2.4-3.1,3.7-6.1,3.1c-2.5-0.5-4.9-1-7.4-1.5c-2.1-0.5-3.8,0.3-5.4,1.6
		C151.1,153.7,148.2,155.8,145.4,158z"/>
	<path class="st0" d="M254.8,230.6c0-15.2,0.1-30.4,0.1-45.6c3.2-0.3,6.2-1.5,9.3-2.3c1.6,7.8,4.4,14.9,11.5,19.5
		c1.9,1.2,1.4,2.2-0.4,3.1c-1.7,0.8-3.3,1.7-4.8,2.7c-2.6,1.6-3.4,4.2-2.1,6.5c1.4,2.4,3.7,2.9,6.6,1.5c0.1,0,0.2-0.1,0.3-0.1
		c5.4-2.7,5.3-2.7,5.4,3.5c0.1,3.8-0.7,7.6,0.5,11.3C272.4,230.6,263.6,230.6,254.8,230.6z"/>
</g>
</svg>
