<?xml version="1.0" encoding="utf-8"?>
<!-- Generator: Adobe Illustrator 23.0.0, SVG Export Plug-In . SVG Version: 6.00 Build 0)  -->
<svg version="1.1" id="Layer_1" xmlns="http://www.w3.org/2000/svg" xmlns:xlink="http://www.w3.org/1999/xlink" x="0px" y="0px"
	 width="937.8px" height="633.9px" viewBox="0 0 937.8 633.9" style="enable-background:new 0 0 937.8 633.9;" xml:space="preserve"
	>
<style type="text/css">
	.st0{fill:#EBEBEB;}
	.st1{fill:#F5F5F5;}
	.st2{fill:#E0E0E0;}
	.st3{fill:#263238;}
	.st4{fill:#455A64;}
	.st5{fill:#FF725E;}
	.st6{fill:#B78876;}
	.st7{fill:#AA6550;}
	.st8{opacity:0.2;}
	.st9{opacity:0.5;}
	.st10{opacity:0.3;}
	.st11{fill:#FFBE9D;}
	.st12{fill:#EB996E;}
	.st13{fill:#3742AA;}
	.st14{opacity:0.6;}
	.st15{fill:#FFFFFF;}
	.st16{fill:#5FA8FF;}
	.st17{opacity:0.7;}
	.st18{clip-path:url(#SVGID_2_);}
</style>
<g id="freepik--background-complete--inject-929">
	<path class="st0" d="M136.1,110.7c0,0-28.6,128.3-25.4,125c3.2-3.3,12.6-20.2,12.6-20.2s-23.6,92.5-20.4,88.6
		c3.3-3.9,9.8-12.4,9.8-12.4s-13,39.7-10.1,35.7s11.4-13.6,11.4-13.6L78.8,502h125.7l-38.4-168.6c0,0,13.7,22.8,13,17.6
		c-0.6-5.2-20.2-63.8-20.2-63.8s15.6,25.4,15,22.1c-0.7-3.3-23.5-88.6-23.5-88.6s7.8,26,10.4,23.4
		C163.4,241.5,136.1,110.7,136.1,110.7z"/>
	<path class="st1" d="M470.7,487.4c-13.7-9.9-26.8-21.4-34.6-36.3c-7.8-14.9-9.4-34.2-0.2-48.4c9.5-14.8,28.4-21.6,37.7-36.5
		c8.8-14.2,7.1-32.3,11.4-48.4c6.4-22.7,24.3-40.3,47-46.3c16-4,34.4-2.4,47.2-12.8c12.1-9.8,15.1-27.1,25-39.2
		c14.5-17.7,40.6-20.2,58.3-5.6c4.3,3.5,7.8,7.9,10.4,12.8c7.4,14.3,5.9,31.5,2.5,47.2c-3.4,15.7-8.6,31.3-8.1,47.4
		c0.4,12.9,4.6,25.5,6.6,38.3c2.1,12.8,1.6,26.9-5.9,37.4c-10.8,15-32.6,18-45.2,31.8c-15.1,16.4-12.8,43.6-27.5,60.4
		c-9,10.2-22.8,14.8-36.1,17.5c-13.4,2.7-27.2,4.2-39.5,10c-12.3,5.9-21.7,8.9-21.4,22.6"/>
	<path class="st0" d="M723.1,117c0,0-28.6,128.3-25.4,125c3.3-3.3,12.6-20.2,12.6-20.2s-23.6,92.5-20.4,88.5s9.8-12.4,9.8-12.4
		s-13,39.7-10.1,35.8c2.9-3.9,11.4-13.6,11.4-13.6l-35.2,188.1h125.7L753,339.6c0,0,13.7,22.8,13,17.6c-0.6-5.2-20.2-63.8-20.2-63.8
		s15.6,25.4,15,22.1c-0.6-3.2-23.4-88.6-23.4-88.6s7.8,26.1,10.4,23.4S723.1,117,723.1,117z"/>
	<path class="st0" d="M373.6,236.2c0,0-19.9,89.2-17.7,86.9c2.3-2.3,8.8-14,8.8-14s-16.4,64.3-14.2,61.6c2.3-2.7,6.8-8.6,6.8-8.6
		s-9,27.6-7,24.9s7.9-9.5,7.9-9.5l-24.5,130.8h87.4L394.4,391c0,0,9.5,15.9,9.1,12.2c-0.5-3.7-14-44.4-14-44.4s10.9,17.7,10.4,15.4
		c-0.5-2.3-16.3-61.6-16.3-61.6s5.4,18.1,7.2,16.3S373.6,236.2,373.6,236.2z"/>
	<path class="st2" d="M407.6,104.4c0-18.3,6.4-36,18.1-50.1c-33.2,27.6-37.7,77-10.1,110.2c27.6,33.2,77,37.7,110.2,10.1
		c3.7-3.1,7.1-6.4,10.1-10.1c-33.2,27.7-82.5,23.2-110.2-10C414,140.4,407.5,122.7,407.6,104.4L407.6,104.4z"/>
	<path class="st0" d="M682.9,80.5l1.2,2.2c0.5,0.8,1.2,1.5,2,2l2.2,1.2l-2.2,1.2c-0.8,0.5-1.5,1.1-2,2l-1.2,2.2l-1.2-2.2
		c-0.5-0.8-1.1-1.5-2-2l-2.2-1.2l2.2-1.2c0.8-0.5,1.5-1.2,2-2L682.9,80.5z"/>
	<path class="st0" d="M494.8,91.4l1.2,2.2c0.5,0.8,1.1,1.5,2,2l2.2,1.2L498,98c-0.8,0.5-1.5,1.1-2,2l-1.2,2.2l-1.2-2.2
		c-0.5-0.8-1.1-1.5-2-2l-2.2-1.2l2.2-1.2c0.8-0.5,1.5-1.2,2-2L494.8,91.4z"/>
	<path class="st0" d="M409.6,224.3l0.7,1.3c0.3,0.5,0.7,0.9,1.2,1.2l1.3,0.7l-1.3,0.8c-0.5,0.3-0.9,0.7-1.2,1.2l-0.7,1.3l-0.8-1.3
		c-0.3-0.5-0.7-0.9-1.2-1.2l-1.3-0.8l1.3-0.7c0.5-0.3,0.9-0.7,1.2-1.2L409.6,224.3z"/>
	<path class="st0" d="M719.1,25.5l0.7,1.3c0.3,0.5,0.7,0.9,1.2,1.2l1.3,0.7l-1.3,0.7c-0.5,0.3-0.9,0.7-1.2,1.2l-0.7,1.3l-0.7-1.3
		c-0.3-0.5-0.7-0.9-1.2-1.2l-1.3-0.7l1.3-0.7c0.5-0.3,0.9-0.7,1.2-1.2L719.1,25.5z"/>
</g>
<g id="freepik--Forest--inject-929">
	<path class="st3" d="M86.5,194.3c0,0-22.8,102.1-20.2,99.6c2.6-2.6,10-16.1,10-16.1S57.5,351.4,60,348.3c2.5-3.1,7.8-9.8,7.8-9.8
		s-10.3,31.6-8,28.5c2.3-3.1,9.1-10.8,9.1-10.8L40.9,506h100.1l-30.6-134.3c0,0,10.9,18.1,10.4,14s-16.1-50.8-16.1-50.8
		s12.4,20.2,11.9,17.6c-0.5-2.6-18.7-70.5-18.7-70.5s6.2,20.7,8.3,18.7C108.2,298.5,86.5,194.3,86.5,194.3z"/>
	<path class="st4" d="M186.7,103.2c0,0-28.6,128.3-25.4,125c3.3-3.3,12.6-20.2,12.6-20.2s-23.7,92.5-20.4,88.5
		c3.3-3.9,9.8-12.4,9.8-12.4s-13,39.7-10.1,35.7c2.9-4,11.4-13.6,11.4-13.6l-35.2,188.1h125.7l-38.4-168.6c0,0,13.7,22.8,13,17.6
		c-0.6-5.2-20.2-63.8-20.2-63.8s15.6,25.4,15,22.1c-0.6-3.3-23.4-88.5-23.4-88.5s7.8,26.1,10.4,23.4
		C214,234,186.7,103.2,186.7,103.2z"/>
	<path class="st4" d="M802.8,81.7c0,0-31.3,140-27.7,136.5s13.7-22,13.7-22s-25.8,100.9-22.3,96.6c3.5-4.3,10.7-13.5,10.7-13.5
		s-14.2,43.4-11,39.1c3.2-4.3,12.4-14.8,12.4-14.8l-38.4,205.3h137.2l-41.9-184c0,0,14.9,24.9,14.2,19.2c-0.7-5.7-22-69.7-22-69.7
		s17.1,27.7,16.3,24.2c-0.7-3.5-25.6-96.6-25.6-96.6s8.5,28.4,11.4,25.6C832.7,224.7,802.8,81.7,802.8,81.7z"/>
</g>
<g id="freepik--Floor--inject-929">
	<path class="st3" d="M923.6,509c0,0.2-42.1,0.4-94,0.4s-94-0.2-94-0.4c0-0.2,42.1-0.3,94-0.3S923.6,508.8,923.6,509z"/>
	<path class="st3" d="M125.7,506c0,0.2-28.4,0.4-63.4,0.4s-63.4-0.2-63.4-0.4s28.4-0.3,63.4-0.3S125.7,505.8,125.7,506z"/>
	<path class="st3" d="M915.9,443.8c0,0.2-0.1,0.4-0.2,0.6c-0.2,0.5-0.4,1.1-0.7,1.8c-0.7,1.5-1.6,3.8-2.7,6.6
		c-2.2,5.6-5.1,13.5-7.7,22.3c-2.6,8.9-4.4,17-5.5,23c-0.6,3-1,5.4-1.3,7.1c-0.1,0.8-0.3,1.4-0.3,1.9c0,0.2-0.1,0.5-0.2,0.7
		c0-0.2,0-0.5,0-0.7c0-0.5,0.1-1.2,0.2-1.9c0.2-1.7,0.5-4.1,1-7.1c1.3-7.8,3.1-15.5,5.3-23.1c2.2-7.6,4.9-15,7.9-22.3
		c1.2-2.8,2.2-5,2.9-6.6l0.9-1.7C915.7,444.1,915.8,443.9,915.9,443.8z"/>
	<path class="st3" d="M892.1,483.7c0,1.3,0,2.5-0.2,3.7c-0.3,6,0.6,12,2.6,17.7c0.5,1.2,0.9,2.3,1.3,3.5c-0.7-1-1.3-2.2-1.7-3.4
		c-2.3-5.7-3.2-11.8-2.6-17.9C891.5,486.2,891.7,484.9,892.1,483.7z"/>
	<path class="st3" d="M919.7,480.7c0.1,0.1-1.7,0.9-4.1,2.8c-1.4,1.1-2.8,2.3-4,3.6c-1.5,1.6-2.8,3.4-3.9,5.3c-1.1,1.9-2,3.9-2.6,6
		c-0.5,1.7-0.9,3.5-1.2,5.3c-0.4,3-0.2,5-0.4,5c-0.1-0.4-0.2-0.9-0.2-1.3c0-0.5,0-1.1,0-1.6c0-0.7,0-1.4,0.1-2.1
		c0.2-1.8,0.5-3.6,1-5.4c1.3-4.3,3.5-8.3,6.6-11.6c1.2-1.3,2.6-2.5,4.1-3.6c0.6-0.4,1.2-0.8,1.8-1.1c0.4-0.3,0.9-0.5,1.3-0.8
		C918.8,481,919.2,480.8,919.7,480.7z"/>
	<path class="st3" d="M25.9,505.4c-0.1-2.1-0.3-4.3-0.6-6.4c-0.1-0.5-0.2-1-0.3-1.5c-0.1-0.5-0.3-1.1-0.5-1.6
		c-0.4-1.2-0.8-2.4-1.3-3.5c-1.2-2.6-2.7-5-4.5-7.2c-1.9-2.2-4-4.1-6.3-5.8c-1-0.7-2.1-1.3-3.2-1.9c-0.5-0.3-1-0.6-1.5-0.8l-1.4-0.6
		c-2-0.7-4.1-1.3-6.2-1.8c0.6,0,1.2,0.1,1.7,0.2c0.7,0.1,1.4,0.2,2,0.4c0.9,0.2,1.8,0.5,2.6,0.8l1.5,0.6c0.5,0.2,1,0.5,1.5,0.7
		c1.1,0.5,2.2,1.2,3.3,1.8c2.4,1.7,4.5,3.6,6.4,5.8c1.8,2.3,3.4,4.7,4.6,7.4c0.5,1.2,1,2.4,1.3,3.6c0.2,0.6,0.4,1.1,0.5,1.7
		s0.2,1.1,0.3,1.6c0.2,0.9,0.3,1.8,0.3,2.6c0.1,0.7,0.1,1.4,0,2.1C26.1,504.2,26,504.8,25.9,505.4z"/>
	<path class="st3" d="M20.5,430.3c0.2,0.2,0.3,0.4,0.4,0.7l1,2c0.5,0.9,1,2,1.5,3.2c0.5,1.3,1.2,2.7,1.8,4.4c0.6,1.6,1.3,3.4,2,5.4
		c0.7,2,1.3,4.1,2,6.3c1.4,4.9,2.5,9.8,3.3,14.7c0.8,5,1.2,10,1.4,15c0,2.3,0.1,4.5,0,6.6c-0.1,2.1-0.1,4-0.2,5.7s-0.3,3.3-0.4,4.7
		c-0.1,1.4-0.3,2.6-0.5,3.5l-0.4,2.2c0,0.3-0.1,0.5-0.2,0.8c0-0.3,0-0.5,0-0.8c0-0.6,0.1-1.3,0.2-2.2c0.1-0.9,0.2-2.2,0.3-3.5
		c0.1-1.4,0.3-3,0.3-4.7c0.1-1.7,0.2-3.7,0.1-5.7c0-2.1,0-4.2-0.1-6.6c-0.2-5-0.7-10-1.5-14.9c-0.8-5-1.8-9.9-3.1-14.7
		c-0.6-2.2-1.2-4.3-1.9-6.3c-0.7-1.9-1.3-3.7-1.9-5.4s-1.2-3.1-1.7-4.4s-1-2.4-1.4-3.3s-0.7-1.5-0.9-2.1
		C20.6,430.8,20.5,430.5,20.5,430.3z"/>
</g>
<g id="freepik--character-2--inject-929">
	<path class="st5" d="M614.2,434.8c-0.4,0-0.8-0.1-1.1-0.3c-1-0.4-1.9-1-2.8-1.7c-1.1-0.8-2.3-1.9-3.5-3.2c-1.5-1.3-2.6-3-3.2-4.9
		c-0.3-1-0.3-2,0-3l0.4,0.4c-1.4,0.7-2.6,1.7-3.6,2.8c-1,0.9-2.3,1.4-3.7,1.2c-0.9-0.2-1.6-0.9-1.8-1.8c-0.1-0.6,0.1-0.9,0.2-0.9
		c0,0.3,0,0.6,0.1,0.9c0.2,0.8,0.9,1.3,1.7,1.4c1.2,0.1,2.4-0.4,3.2-1.3c1.1-1.2,2.3-2.2,3.8-3l0.6-0.2l-0.1,0.7
		c-0.2,0.9-0.2,1.8,0,2.6c0.6,1.8,1.6,3.4,3,4.7c1.3,1.2,2.4,2.3,3.4,3.2C611.7,433.3,612.9,434.1,614.2,434.8z"/>
	<path class="st6" d="M607.3,410.3c-2.1-0.2-4.1,0.2-6,1c-4.3,2-8.5,4.2-12.7,6.5c-1.1,0.6-2.4,1.7-2,2.9c0.4,0.7,1.1,1.2,2,1.1
		c0.8-0.1,1.6-0.4,2.3-0.8c-0.8,0.2-1.4,1-1.2,1.9c0,0.1,0.1,0.3,0.1,0.4c0.6,0.8,1.6,1.3,2.6,1c1-0.2,1.9-0.7,2.6-1.3
		c-0.5,0.9-0.2,1.9,0.6,2.4c0.1,0,0.1,0.1,0.2,0.1c1,0.3,2.1,0.2,2.9-0.4c0.8-0.6,1.6-1.2,2.4-1.9c0.9-0.6,1.9-1.1,2.9-1.5
		c0.3,3.5,1.8,6.8,4.3,9.3c2.6,2.3,5.4,4.3,8.5,5.8c4-4.4,7.5-9.2,10.5-14.3c-4.9-4.2-9.4-6.8-14.5-10.3
		C611.2,411.2,609.3,410.5,607.3,410.3L607.3,410.3z"/>
	<path class="st7" d="M621.1,420.9c-0.5-0.3-1-0.6-1.5-0.9l-4-2.6c-1.7-1.1-3.7-2.3-5.9-3.6c-1.1-0.7-2.3-1.3-3.6-1.8
		c-0.3-0.1-0.6-0.2-1-0.2c-0.3,0-0.5,0.1-0.8,0.2c-0.3,0.2,0.3,0.9,0.8,1.5l4.9,6.4l0.1,0.2l-0.1,0.2c-0.8,1.7-1,3.5-0.5,5.3
		c0.4,1.4,1.1,2.6,2.2,3.6c1,0.8,2.1,1.5,3.3,1.9c-0.4,0-0.7-0.1-1-0.2c-0.9-0.3-1.8-0.8-2.5-1.4c-1.2-1-2-2.3-2.4-3.7
		c-0.5-1.9-0.4-3.9,0.4-5.7v0.3l-5-6.4c-0.2-0.3-0.5-0.6-0.7-0.9c-0.1-0.2-0.2-0.4-0.3-0.6c0-0.3,0.1-0.6,0.2-0.8
		c0.7-0.5,1.6-0.6,2.4-0.2c1.3,0.5,2.6,1.1,3.7,1.9c2.3,1.3,4.2,2.6,5.9,3.8s2.9,2.1,3.8,2.8C620.2,420.1,620.6,420.5,621.1,420.9z"
		/>
	<path class="st7" d="M604,418.6c-1.4,1-2.9,1.8-4.5,2.5c-1.5,0.8-3.1,1.5-4.7,2.1c1.3-1.1,2.8-2,4.4-2.6
		C600.7,419.7,602.3,419.1,604,418.6z"/>
	<path class="st7" d="M607.4,417c-1.6-0.2-3.1-0.5-4.6-0.9h0.2l-4.2,1.8l-6,2.6c-0.8,0.4-1.7,0.8-2.5,1c-0.1-0.2,3.5-2.3,8.3-4.2
		c1.5-0.7,3-1.3,4.2-1.7h0.1h0C604.5,415.9,606,416.4,607.4,417z"/>
	<path class="st6" d="M807.8,548l4.1,15.9h41c0,0-9.5-7.3-28.4-7l-1.8-8.9L807.8,548z"/>
	<path class="st5" d="M693.5,477.5l23.1-24.2l-2.6,32.5l-9,20.2l64.3,36.3c0,0,7.6-37.4,11.6-63.2c3.3-20.9,5-66.5,5-66.5l-18.9-9.2
		l-28.1,2.6l-11.4,3.2c-4.9,1.4-9.3,3.9-13,7.5L677.7,452l-53-33.4L612.5,439l52.4,40.8c4.8,3.6,10.9,5,16.7,4l0,0
		C686.2,483,690.4,480.8,693.5,477.5z"/>
	<path class="st5" d="M784.3,411.9c0,0,14.2,5.3,17.6,16.4c3.1,9.9,13.2,65.4,13.2,65.4l10.1,58.8l-21.2,0.8l-24.3-100.2
		L784.3,411.9z"/>
	<path class="st3" d="M713.5,484.3c0-0.2,0.8-11.3,2.1-25.2c1.3-13.9,2.5-25.1,2.7-25.1c0.2,0-0.8,11.3-2.1,25.2
		C714.9,473.1,714.1,485.8,713.5,484.3z"/>
	<path class="st3" d="M760.3,456.7c0,0,0,0.2-0.2,0.6l-0.6,1.5c-0.3,0.8-0.7,1.6-1.1,2.4c-0.5,1-1.1,2.1-1.7,3
		c-0.3,0.6-0.7,1.1-1.1,1.7c-0.4,0.6-0.8,1.2-1.3,1.8c-0.8,1.3-1.9,2.5-3,3.8c-2.4,2.8-5.1,5.4-7.9,7.7c-2.9,2.3-6,4.3-9.3,6
		c-1.5,0.7-3,1.5-4.4,2c-0.7,0.3-1.3,0.6-2,0.8l-1.9,0.6c-1.2,0.4-2.4,0.7-3.3,1c-0.8,0.2-1.7,0.4-2.6,0.6l-1.6,0.3
		c-0.2,0-0.4,0-0.6,0c0.2-0.1,0.4-0.1,0.5-0.2l1.6-0.4c0.9-0.2,1.7-0.4,2.5-0.7c1-0.3,2.1-0.6,3.3-1l1.9-0.7c0.7-0.2,1.3-0.6,2-0.8
		c1.4-0.6,2.8-1.3,4.3-2.1c3.3-1.7,6.4-3.8,9.3-6c2.9-2.3,5.5-4.9,7.9-7.6c1.1-1.3,2.1-2.5,3-3.8c0.4-0.6,0.9-1.2,1.3-1.8l1.1-1.7
		c0.7-1.1,1.2-2.1,1.8-3c0.5-0.9,0.9-1.7,1.2-2.3l0.7-1.5C760.2,457,760.3,456.8,760.3,456.7z"/>
	<g class="st8">
		<path d="M721,490c-2.1-0.8-3.2-3-2.6-5.2c0.7-2.1,2.2-3.7,4.2-4.6c2-0.8,4-1.4,6.1-1.8c9-2.2,17.3-6.9,23.9-13.4
			c0.6-0.6,1.5-1.3,2.2-0.9c1,0.6,0.4,2.1-0.4,3c-9.1,10.6-20.9,18.5-34.1,22.9"/>
	</g>
	<path class="st3" d="M785.2,476.8c-0.2-0.4-0.3-0.8-0.4-1.2c-0.2-0.8-0.6-1.9-0.9-3.3c-0.8-2.8-1.7-6.7-2.6-11.1
		c-0.9-4.3-1.8-8.3-2.3-11.1c-0.3-1.4-0.5-2.6-0.6-3.4c-0.1-0.4-0.1-0.9-0.1-1.3c0.2,0.4,0.3,0.8,0.4,1.2c0.2,0.9,0.5,2,0.8,3.4
		c0.7,3,1.5,6.8,2.5,11.1s1.9,8.1,2.5,11.1c0.3,1.3,0.6,2.4,0.8,3.4C785.2,475.9,785.2,476.3,785.2,476.8z"/>
	<path class="st3" d="M676.9,460.4c-0.1-1.6-0.1-3.3,0.2-4.9c0.1-1.6,0.3-3.2,0.8-4.8c0.1,1.6,0.1,3.3-0.2,4.9
		C677.6,457.2,677.3,458.8,676.9,460.4z"/>
	<path class="st3" d="M807.6,547.1c0.5,0.9,0.7,1.9,0.8,2.9c0.3,1,0.3,2,0.2,3.1c-0.5-0.9-0.7-1.9-0.8-3
		C807.5,549.2,807.4,548.2,807.6,547.1z"/>
	<path class="st3" d="M814.5,547.1c0.4,0.8,0.7,1.7,0.8,2.6c0.2,0.9,0.3,1.8,0.2,2.8c-0.4-0.8-0.7-1.7-0.8-2.6
		C814.4,549,814.4,548.1,814.5,547.1z"/>
	<path class="st3" d="M821.1,546.5c0.4,1,0.6,2,0.7,3c0.3,1,0.4,2,0.3,3.1c-0.5-0.9-0.9-1.9-0.9-3
		C820.9,548.6,820.9,547.5,821.1,546.5z"/>
	<path class="st3" d="M795.6,418.7c0,0.1-1.5,0-3.8,0.5c-3,0.6-5.8,2-8.1,4c-2.3,2-4,4.6-5,7.5c-0.8,2.2-0.9,3.7-1,3.7
		c-0.1-0.3-0.1-0.7,0-1c0.1-0.9,0.3-1.9,0.6-2.8c1.9-6.1,7.1-10.7,13.4-11.7c0.9-0.2,1.9-0.2,2.8-0.2
		C795,418.6,795.3,418.6,795.6,418.7z"/>
	<path class="st5" d="M646.4,547c0,0-36.2,10-37.7,10.6c-2.2,0.8-1.8,8.8,1.6,8.6c1.6,0,27.8,1,31.1,0.8s13.3-4.1,13.3-4.1
		L646.4,547z"/>
	<path class="st3" d="M631.3,560.8c-0.5-1.3-1-2.6-1.6-3.9c-0.8-1.2-1.6-2.3-2.6-3.3C629.7,555.1,631.3,557.8,631.3,560.8
		L631.3,560.8z"/>
	<path class="st3" d="M635.1,559.1c-0.2,0-0.5-1.7-1.5-3.6c-1-1.9-2.1-3.2-2-3.3c1.1,0.8,2,1.8,2.5,3.1
		C634.8,556.4,635.1,557.8,635.1,559.1z"/>
	<path class="st3" d="M638.7,558.2c-0.2-1.3-0.5-2.6-0.8-3.8c-0.6-1.2-1.2-2.3-2-3.4c1.2,0.7,2.1,1.8,2.5,3.2
		C639,555.4,639.1,556.8,638.7,558.2z"/>
	<path class="st3" d="M638,553.5c-0.3-0.8-0.4-1.7-0.4-2.6c0-1,0.1-2,0.4-3c0.1-0.6,0.3-1.1,0.5-1.7c0.1-0.3,0.3-0.6,0.6-0.9
		c0.4-0.3,0.9-0.3,1.2,0.1c0.3,0.3,0.5,0.6,0.5,1c0,0.3,0,0.6,0,1c0,0.6-0.1,1.2-0.2,1.8c-0.2,1-0.6,1.9-1.1,2.8
		c-0.4,0.8-0.9,1.6-1.6,2.2c-0.1,0,0.5-0.9,1.2-2.4c0.4-0.8,0.7-1.7,1-2.6c0.1-0.5,0.2-1.1,0.2-1.7c0-0.6,0-1.2-0.3-1.5
		c-0.1-0.1-0.3-0.1-0.5,0c-0.2,0.2-0.3,0.4-0.4,0.6c-0.2,0.5-0.4,1.1-0.5,1.6c-0.3,0.9-0.4,1.9-0.5,2.8
		C637.9,552.5,638,553.5,638,553.5z"/>
	<path class="st3" d="M638,553.1c0.7-0.3,1.5-0.4,2.3-0.4c0.9,0,1.7,0.1,2.6,0.3c0.5,0.1,1,0.3,1.5,0.5c0.6,0.3,0.9,1,0.8,1.7
		c-0.2,0.7-0.7,1.2-1.3,1.3c-0.5,0.1-1.1,0.1-1.6,0c-0.9-0.2-1.7-0.6-2.4-1.2c-0.7-0.4-1.2-1-1.7-1.7c0.7,0.4,1.3,0.8,1.9,1.3
		c0.7,0.5,1.4,0.8,2.2,1c0.4,0.1,0.9,0.1,1.3,0c0.4-0.1,0.8-0.4,0.9-0.9c0.1-0.4-0.2-0.8-0.5-1c-0.4-0.2-0.9-0.4-1.3-0.5
		c-0.8-0.2-1.6-0.4-2.4-0.4C638.9,553.1,638,553.2,638,553.1z"/>
	<path class="st3" d="M625.7,561.2c-0.1-1.1-0.4-2.2-0.7-3.3c-0.5-1-1.1-1.9-1.8-2.8c0.1-0.2,1.6,0.7,2.3,2.6
		C626.1,558.8,626.2,560.1,625.7,561.2z"/>
	<path class="st3" d="M651,562.9c-0.4,0.3-0.9,0.5-1.4,0.6c-1.3,0.5-2.6,0.9-4,1.3c-4.5,1-9.2,1.4-13.8,1.3
		c-5.4-0.1-10.3-0.3-13.9-0.5l-4.2-0.2c-0.5,0-1-0.1-1.5-0.2c0.5-0.1,1-0.1,1.5-0.1h4.2l13.9,0.3c4.6,0.1,9.2-0.3,13.7-1.1
		C648.9,563.7,650.9,562.8,651,562.9z"/>
	<path class="st3" d="M652.1,563.7c-0.9-0.4-1.8-0.8-2.6-1.2c-2.1-1-4.5-1.4-6.9-1.1c-2.3,0.5-4.4,1.7-5.9,3.5
		c-0.6,0.8-1.3,1.5-2.1,2.1c0.5-0.9,1.1-1.7,1.8-2.4c0.7-0.8,1.5-1.6,2.4-2.2c1.1-0.8,2.4-1.4,3.7-1.6c2.5-0.3,5,0.2,7.1,1.3
		C650.5,562.5,651.3,563,652.1,563.7z"/>
	<path class="st5" d="M684.8,537c0,0,34.3,22.4,35.5,23.4c1.8,1.4-0.3,8-3.5,6.9c-1.5-0.5-30.3-8.5-33.4-9.7
		c-3.1-1.2-11.4-7.9-11.4-7.9L684.8,537z"/>
	<path class="st3" d="M695,554.8c0.9-2.9,3.2-5,6.2-5.6c-1.2,0.7-2.3,1.5-3.5,2.4C696.7,552.6,695.8,553.6,695,554.8z"/>
	<path class="st3" d="M691.9,552c0.9-2.6,2.9-4.6,5.4-5.5c0.1,0.2-1.4,1.1-2.9,2.6C692.9,550.6,692.1,552.1,691.9,552z"/>
	<path class="st3" d="M688.8,550c0.2-2.8,2.2-5.2,4.9-6c-1,0.8-2,1.7-2.9,2.6C690,547.7,689.4,548.8,688.8,550z"/>
	<path class="st3" d="M690.8,545.7c-0.1,0,0.4-1,0.8-2.6c0.2-0.9,0.4-1.9,0.4-2.8c0-0.6,0-1.1,0-1.7c0-0.3-0.1-0.5-0.2-0.7
		c-0.1-0.2-0.3-0.2-0.5-0.1c-0.4,0.2-0.6,0.8-0.8,1.3c-0.2,0.5-0.3,1.1-0.3,1.6c-0.1,1-0.1,2,0,2.9c0.3,1.6,0.6,2.6,0.5,2.6
		c-0.5-0.8-0.8-1.7-0.9-2.6c-0.2-1-0.3-2-0.2-3c0-0.6,0.2-1.2,0.3-1.8c0.1-0.3,0.2-0.6,0.3-0.9c0.1-0.4,0.4-0.7,0.8-0.8
		c0.4-0.2,0.9-0.1,1.2,0.3c0.2,0.3,0.3,0.7,0.3,1c0,0.6,0,1.2,0,1.8c-0.1,1-0.3,2-0.6,2.9C691.8,544.2,691.4,545,690.8,545.7z"/>
	<path class="st3" d="M690.9,545.4c0,0.1-0.8-0.3-2.2-0.7c-0.8-0.2-1.6-0.3-2.4-0.3c-0.5,0-0.9,0-1.4,0.1c-0.4,0-0.8,0.4-0.8,0.8
		c0,0.4,0.2,0.9,0.6,1.1c0.4,0.2,0.9,0.4,1.3,0.4c0.8,0.1,1.6,0,2.4-0.2c0.7-0.3,1.5-0.5,2.2-0.7c-1.4,1-3,1.5-4.7,1.5
		c-0.5,0-1.1-0.2-1.5-0.5c-0.6-0.3-0.9-1-0.8-1.6c0.1-0.7,0.6-1.2,1.3-1.3c0.5-0.1,1-0.1,1.6-0.1c0.9,0,1.7,0.2,2.5,0.5
		C689.6,544.5,690.3,544.9,690.9,545.4z"/>
	<path class="st3" d="M712.5,566c0,0-0.6-0.4-0.8-1.3c-0.3-1.3,0-2.6,0.6-3.7c0.3-0.6,0.7-1.2,1.2-1.7c0.3-0.5,0.7-0.9,1.2-1.2
		c0.3-0.3,0.7-0.4,1.1-0.5c0.3,0,0.4,0.1,0.4,0.1c-0.5,0.1-0.9,0.4-1.2,0.7c-0.4,0.4-0.7,0.8-1,1.2c-0.4,0.5-0.7,1.1-1.1,1.7
		c-0.6,1-0.9,2.2-0.8,3.3C712.2,565.5,712.5,566,712.5,566z"/>
	<path class="st3" d="M700.2,556.8c0-2.5,1.8-4.6,4.2-5.1c-0.9,0.6-1.8,1.4-2.6,2.2C701.2,554.8,700.6,555.8,700.2,556.8z"/>
	<path class="st3" d="M675.6,550.7c0.5,0.3,1,0.6,1.5,1c1.4,1,2.8,1.8,4.2,2.6c2.2,1.1,4.4,2.1,6.7,3c2.6,1,5.5,1.9,8.6,2.8
		c6.2,1.8,11.8,3.4,15.8,4.6l4.8,1.5c0.6,0.2,1.2,0.4,1.7,0.6c-0.6-0.1-1.2-0.2-1.8-0.4l-4.8-1.3c-4.1-1.1-9.7-2.6-15.9-4.4
		c-3.1-0.9-6-1.8-8.6-2.8c-2.3-0.9-4.6-1.9-6.7-3.1c-1.5-0.8-2.8-1.8-4.2-2.8C676.4,551.6,676,551.2,675.6,550.7z"/>
	<path class="st3" d="M674.3,551.2c0.9-0.4,1.9-0.7,2.9-0.8c2.4-0.5,4.9-0.1,7.2,0.9c1.2,0.6,2.3,1.5,3.1,2.6
		c0.6,0.9,1.2,1.8,1.6,2.9c0.4,0.9,0.8,1.9,1,2.8c-0.5-0.8-1-1.7-1.3-2.6c-0.9-2.2-2.5-4-4.6-5.1c-2.2-1-4.5-1.3-6.9-1
		C675.4,551,674.4,551.3,674.3,551.2z"/>
	<path class="st3" d="M621.6,439.5c-1.3-0.5-2.5-1.2-3.6-2c-1.2-0.7-2.3-1.5-3.2-2.6c1.3,0.5,2.5,1.2,3.6,2
		C619.6,437.6,620.6,438.5,621.6,439.5z"/>
	<path class="st3" d="M625.1,434c-2.5-1.1-4.8-2.7-6.8-4.6c1.3,0.5,2.5,1.1,3.6,2C623.1,432.1,624.2,433,625.1,434z"/>
	<path class="st3" d="M628.3,428.7c-1.3-0.5-2.5-1.2-3.6-2c-1.2-0.7-2.3-1.5-3.2-2.6c1.3,0.5,2.5,1.2,3.6,2
		C626.4,426.8,627.4,427.7,628.3,428.7z"/>
	<path class="st3" d="M642.2,546.6c0,0,84-55.1,87.5-56.3c3.4-1.2,11.8-6.6,20.1-4.3s15.8,9.8,19.5,20.7c3.7,10.9,4,35.3,4,35.3
		s-6.6,19.2-19.5,23.2c-1.1,0.3-2.2,0.6-3.4,0.8c-15.8,2.9-31.9-4-40.6-17.5l-1.9-2.9c0,0-55,20.2-55.8,19.9L642.2,546.6z"/>
	<path class="st3" d="M613.6,482.3c-6.2,2.5-10.3,8.5-10.3,15.2c-0.1,22.1,44.6,46.4,44.6,46.4l59.5-39.4v-4.1
		C707.4,500.4,630.8,472.8,613.6,482.3z"/>
	<path class="st4" d="M746.2,531.4l-0.5,0.2l-1.3,0.5l-5.3,2.1l-19.9,7.5c-8.4,3.1-18.5,6.9-29.8,11c-11.3,4.1-23.8,8.6-37.2,13.1
		l-0.2,0.1l-0.1-0.2l-6.6-12.5c-1.2-2.2-2.3-4.4-3.3-6.4l-0.1-0.2l0.2-0.1l64.1-40.7l19.3-12.2l5.3-3.3l1.3-0.8l0.5-0.3
		c0,0-0.1,0.1-0.5,0.3l-1.3,0.9l-5.2,3.4L706.4,506l-64,40.9l0.1-0.4c1.1,2,2.2,4.2,3.3,6.4l6.6,12.5l-0.4-0.1
		c13.4-4.5,25.9-9,37.2-13.1l29.8-10.9L739,534l5.4-2l1.3-0.5L746.2,531.4z"/>
	<path class="st4" d="M677.2,524.4c-0.5-0.3-1.1-0.7-1.5-1.1c-1-0.7-2.4-1.7-4.1-3.1c-3.4-2.6-8-6.4-13-10.6
		c-5-4.2-9.4-8.3-12.5-11.3c-1.6-1.5-2.8-2.6-3.7-3.6c-0.5-0.4-0.9-0.8-1.3-1.3c0.5,0.4,1,0.8,1.4,1.2l3.8,3.4
		c3.2,2.9,7.6,6.8,12.6,11.1c5,4.3,9.6,8,12.9,10.8l4,3.2C676.3,523.6,676.8,524,677.2,524.4z"/>
	<path class="st4" d="M630.4,490.6c1.9-0.3,3.9-0.1,5.7,0.5c1.9,0.5,3.6,1.4,5.1,2.6c-0.1,0.2-2.3-1.2-5.3-2.1
		C632.9,490.8,630.4,490.8,630.4,490.6z"/>
	<path class="st4" d="M635.5,487.1c2.8,1.2,4.8,3.7,5.4,6.6c-0.2,0.1-0.8-1.8-2.3-3.6C637,488.2,635.4,487.2,635.5,487.1z"/>
	<path class="st3" d="M610.3,557c0,0,0.7-0.2,1.5,0.5c1,0.9,1.6,2.1,1.7,3.4c0.2,1.3,0,2.6-0.5,3.8c-0.4,0.9-0.9,1.3-0.9,1.3
		c0.1-0.5,0.3-1,0.5-1.4c0.4-1.1,0.5-2.4,0.3-3.6c-0.1-1.2-0.6-2.3-1.4-3.2C610.9,557.1,610.3,557.1,610.3,557z"/>
	<path class="st5" d="M637.3,537.5c-0.3-0.2-0.6-0.3-0.9-0.6c-0.6-0.4-1.5-1-2.6-1.8c-2.2-1.6-5.4-4-9.2-7.1
		c-4.4-3.7-8.6-7.6-12.5-11.8c-2.4-2.4-4.5-5.1-6.4-7.9c-0.9-1.6-1.6-3.3-2-5c-0.2-0.9-0.4-1.8-0.4-2.8c-0.1-0.9-0.1-1.9,0-2.8
		c0.3-3.7,1.5-7.2,3.5-10.4c2.1-2.8,5-4.8,8.4-5.7c5.6-1.5,11.4-1.9,17.1-1.3c3.8,0.4,7.7,1,11.4,1.9c1.3,0.3,2.4,0.5,3.1,0.7
		c0.4,0.1,0.7,0.2,1,0.3c-0.4,0-0.7-0.1-1.1-0.2l-3.1-0.6c-3.8-0.8-7.6-1.3-11.4-1.7c-5.7-0.5-11.4-0.1-16.9,1.4
		c-3.2,0.8-6.1,2.8-8.1,5.4c-1.9,3-3.1,6.5-3.4,10.1c-0.1,0.9-0.1,1.8,0,2.7c0.1,0.9,0.2,1.8,0.4,2.6c0.4,1.7,1,3.4,1.9,4.9
		c1.8,2.9,3.9,5.5,6.2,7.9c3.9,4.2,8,8.1,12.4,11.8c3.7,3.2,6.8,5.6,9,7.2l2.5,1.9C636.8,537,637.1,537.2,637.3,537.5z"/>
	<path class="st5" d="M640.1,492c-2.5-1.6-5.2-2.7-8-3.3c-2.9-0.4-5.8-0.3-8.7,0.2c0.8-0.4,1.6-0.7,2.5-0.8c4.2-0.8,8.6,0,12.2,2.3
		C638.9,490.7,639.5,491.3,640.1,492z"/>
	<path class="st5" d="M705.3,505.8c0.1,0.2-13.6,9.4-30.7,20.6c-17,11.2-30.9,20.2-31,20.1c-0.1-0.2,13.6-9.4,30.7-20.6
		C691.4,514.6,705.2,505.6,705.3,505.8z"/>
	<path class="st3" d="M726.2,366.3c-8.9-9.7-0.4-21.8,3.8-25c4.2-3.2,9.7-5.3,14.7-3.5c3.2-3.9,9.1-4.5,13.9-3.2
		c5,1.4,8.7,5.5,9.6,10.6c0.6,3.4-0.1,7.2,1.4,10.3c1.1,2.2,3.2,3.7,5.1,5.3c1.9,1.6,3.7,3.7,3.8,6.2s-2.4,5.1-4.7,4.1
		c1.7,2,3,4.3,3.9,6.7c0.9,2.5,0.5,5.3-1,7.4c-1.7,2-5.1,2.5-6.9,0.7c0.7,1.8,0.8,3.7,0.3,5.5c-0.5,1.8-2.2,3.2-4.1,3.3
		c-1.8,0-3.2-1.4-3.2-3.2c0-0.2,0-0.3,0-0.5"/>
	<path class="st6" d="M765.1,359.3l2.2,45.3c0.4,7.4-5.4,13.8-12.8,14.1c-0.2,0-0.5,0-0.7,0l0,0c-7.2,0-13.1-5.7-13.5-12.8
		c-0.2-3.4-0.3-6.2-0.4-6.6c0,0-11.6-0.5-13-11.9c-0.7-5.5-1.1-16.9-1.4-27.3c-0.3-11.1,7.9-20.6,19-21.8l1.1-0.1
		C757.6,337.6,764.8,347.3,765.1,359.3z"/>
	<path class="st7" d="M740,399.1c5.3-0.5,10.3-2.5,14.4-5.9c0,0-2.6,8.6-14.1,8.8L740,399.1z"/>
	<path class="st3" d="M729.3,367.2c0.1,0.9,0.9,1.5,1.7,1.5c0.9,0,1.5-0.7,1.5-1.6c0,0,0,0,0,0c-0.1-0.9-0.9-1.5-1.7-1.5
		C729.9,365.6,729.2,366.3,729.3,367.2C729.3,367.2,729.3,367.2,729.3,367.2z"/>
	<path class="st3" d="M728.7,365.4c0.2,0.2,1.3-0.9,3.1-1c1.8-0.2,3.1,0.5,3.3,0.3c0.2-0.2-0.2-0.5-0.8-0.8
		c-0.8-0.4-1.7-0.6-2.6-0.5c-0.9,0.1-1.8,0.5-2.4,1.1C728.7,365,728.6,365.3,728.7,365.4z"/>
	<path class="st3" d="M746.4,365.7c0.1,0.9,0.9,1.5,1.7,1.5c0.9,0,1.6-0.8,1.5-1.7c0,0,0,0,0,0c-0.1-0.9-0.9-1.5-1.7-1.5
		C747.1,364.1,746.4,364.8,746.4,365.7C746.4,365.7,746.4,365.7,746.4,365.7z"/>
	<path class="st3" d="M745.9,363.9c0.2,0.2,1.3-0.9,3.1-1c1.8-0.2,3.1,0.5,3.3,0.3c0.2-0.2-0.2-0.5-0.8-0.8
		c-0.8-0.4-1.7-0.6-2.6-0.5c-0.9,0.1-1.8,0.5-2.4,1.1C746,363.4,745.9,363.8,745.9,363.9z"/>
	<path class="st3" d="M741,377.5c-1-0.2-1.9-0.2-2.9-0.2c-0.5,0-0.9,0-1-0.3c-0.1-0.4,0-0.9,0.2-1.3c0.3-1.1,0.6-2.3,0.9-3.5
		c0.9-3,1.6-6.1,2-9.3c-1.1,2.9-2.1,6-2.7,9c-0.3,1.2-0.6,2.4-0.9,3.6c-0.2,0.6-0.2,1.2,0,1.8c0.2,0.3,0.5,0.5,0.8,0.6
		c0.3,0,0.5,0,0.8,0C739.1,377.8,740.1,377.7,741,377.5z"/>
	<path class="st3" d="M746.3,378.2c-0.3,0-0.1,1.9-1.6,3.4c-1.5,1.5-3.5,1.5-3.5,1.8s0.5,0.3,1.3,0.3c1.1-0.1,2.2-0.6,2.9-1.4
		c0.8-0.8,1.2-1.8,1.2-2.9C746.7,378.6,746.4,378.1,746.3,378.2z"/>
	<path class="st3" d="M744.7,357.1c0.2,0.5,1.9,0,4,0.1c2,0.1,3.8,0.4,4-0.1c0.1-0.2-0.2-0.6-1-1c-1-0.5-2-0.7-3.1-0.7
		c-1.1,0-2.1,0.2-3.1,0.7C745,356.4,744.6,356.8,744.7,357.1z"/>
	<path class="st3" d="M728.8,360.3c0.3,0.4,1.5-0.2,3-0.4s2.6,0,2.9-0.5c0.1-0.2-0.1-0.6-0.7-0.9c-0.8-0.4-1.6-0.5-2.5-0.4
		c-0.8,0.1-1.6,0.5-2.3,1.1C728.8,359.7,728.7,360.1,728.8,360.3z"/>
	<path class="st6" d="M765.1,367.8c0.2-0.1,7.6-3.2,8.2,4.6c0.6,7.8-7.3,6.8-7.4,6.6C765.8,378.8,765.1,367.8,765.1,367.8z"/>
	<path class="st7" d="M768,375.9c0,0,0.1,0.1,0.4,0.2c0.3,0.1,0.7,0.1,1,0c1-0.7,1.5-1.9,1.3-3.1c0-0.7-0.2-1.3-0.5-1.9
		c-0.2-0.5-0.6-0.8-1.1-1c-0.3-0.1-0.7,0.1-0.8,0.4c-0.1,0.2,0,0.4-0.1,0.4c-0.1,0-0.2-0.1-0.1-0.5c0-0.2,0.1-0.4,0.3-0.5
		c0.2-0.2,0.5-0.3,0.7-0.3c0.7,0.1,1.2,0.5,1.5,1.1c0.4,0.7,0.6,1.4,0.6,2.1c0.2,1.4-0.5,2.8-1.7,3.5c-0.4,0.2-0.9,0.1-1.3-0.1
		C768.1,376.1,768,375.9,768,375.9z"/>
	<path class="st5" d="M738.3,398.5c0,0-0.1,0-0.4,0c-0.4,0-0.7-0.1-1.1-0.1c-1.3-0.3-2.6-0.8-3.7-1.5c-1.6-1.1-3-2.6-4.1-4.3
		c-0.6-1-1.1-2.1-1.5-3.2c-0.4-1.2-0.6-2.4-0.8-3.7c-0.6-4.3-0.9-8.7-1-13c0-1.7,0-3,0-4c0-0.5,0-1,0.1-1.5c0.1,0.5,0.2,1,0.2,1.4
		c0.1,1.1,0.2,2.4,0.3,4c0.2,3.3,0.4,7.9,1.2,12.9c0.4,4.3,2.5,8.3,5.9,10.9C734.9,397.4,736.6,398.1,738.3,398.5z"/>
	<path class="st3" d="M754.4,337.2c6.5-0.1,10.3,7.6,12,13.9s2.2,12.9-1.2,18.5c-1,1.1-2.2,1.8-3.5,2.3c-1.3,0.1-2.6-0.6-3.2-1.8
		c-2-3.3-1.8-7.5,0.6-10.5c-2.8-3.4-5-7.2-6.4-11.3c-1.9,2.5-4.4,4.3-7.4,5.2c-0.9,0.4-1.9,0.4-2.8,0.1c-0.9-0.4-1.4-1.4-1-2.3
		c0,0,0,0,0-0.1c-1.7,2.1-4.1,3.7-6.8,4.4c-2.7,0.7-5.6-0.2-7.5-2.3c-1.8-2.2-1.4-5.5,0.8-7.3C728,346.1,731.8,337.4,754.4,337.2z"
		/>
</g>
<g id="freepik--character-1--inject-929">
	<path class="st5" d="M137.9,477.9l259.7-48c0,0,42.9,12.7,42.9,54.1s-22.8,56.8-34.7,61.6l-259.5,53.9L137.9,477.9z"/>
	<path class="st5" d="M143,477.9c-15.9,0-30.1,8-39.7,20.8l9.8,16.2l-15.2-7.9c-9.6,18.5-10.3,40.4-1.9,59.5l26.6-10.8l-24.7,14.8
		c9.3,17.5,26,29.1,45.1,29.1c29.1,0,52.8-27.2,52.8-60.8S172.2,477.9,143,477.9z"/>
	<g class="st9">
		<path d="M143,477.9c-15.9,0-30.1,8-39.7,20.8l9.8,16.2l-15.2-7.9c-9.6,18.5-10.3,40.4-1.9,59.5l26.6-10.8l-24.7,14.8
			c9.3,17.5,26,29.1,45.1,29.1c29.1,0,52.8-27.2,52.8-60.8S172.2,477.9,143,477.9z"/>
	</g>
	<path class="st3" d="M194.8,534.6c0,0,0.1-0.2,0.4-0.6l1.2-1.6c1.5-2,3.3-3.9,5.3-5.5c3.2-2.5,6.7-4.4,10.6-5.5
		c5.1-1.4,10.4-2.2,15.7-2.3c2.9-0.1,6-0.3,9.3-0.3l10-0.3c6.9-0.2,14.3-0.2,22.1-0.6c3.9-0.2,7.8-0.6,11.9-1.2
		c4.1-0.6,8.1-1.4,12.1-2.6c4.1-1.3,8-3,11.8-5.1c3.8-2.2,7.5-4.6,11-7.3c7.2-5.4,13.9-11.1,21.2-15.4c3.6-2.1,7.4-3.9,11.3-5.3
		l2.9-1l2.9-0.9c1.9-0.6,3.8-1.1,5.7-1.6c13.4-3.4,27-5.7,40.7-7c9.2-1,18.5-1.4,27.8-1.2c3.3,0.2,5.9,0.3,7.6,0.6l2,0.3l0.7,0.1
		h-0.7l-2-0.2c-1.7-0.2-4.3-0.3-7.5-0.5c-9.3-0.1-18.6,0.3-27.8,1.3c-13.7,1.4-27.3,3.7-40.6,7.1c-1.9,0.5-3.8,1-5.7,1.6l-2.9,0.9
		l-2.9,1c-3.9,1.4-7.7,3.1-11.2,5.2c-7.3,4.3-14,10-21.2,15.4c-3.5,2.7-7.3,5.2-11.1,7.4c-3.8,2.1-7.8,3.8-11.9,5.1
		c-4,1.2-8.1,2.1-12.2,2.6c-4,0.6-8,0.9-11.9,1.1c-7.8,0.4-15.2,0.4-22.1,0.5l-10,0.3c-3.2,0.1-6.3,0.2-9.3,0.3
		c-5.3,0.2-10.5,0.9-15.6,2.3c-3.8,1.1-7.4,2.9-10.6,5.4c-2,1.6-3.7,3.4-5.3,5.4l-1.2,1.6L194.8,534.6z"/>
	<path class="st3" d="M338.9,516.8c0.1-0.1,0.2-0.2,0.3-0.3c0.2-0.2,0.5-0.5,0.9-0.8c1.2-1,2.5-1.9,4-2.6c2.3-1.1,4.8-1.8,7.4-1.9
		c3.5-0.2,6.9,0.4,10,2l0.2,0.1l-0.2,0.2c-4.1,4.3-8.9,7.7-14.3,10.1c-6.5,3-13.7,4.4-20.8,4.1c-1,0-1.9-0.1-2.9-0.2
		c-1-0.1-2-0.2-2.9-0.5c-1-0.3-1.9-0.7-2.8-1.3c-0.9-0.6-1.6-1.5-2-2.5c-0.3-1.1-0.2-2.2,0.2-3.2c0.5-1,1.1-1.9,1.8-2.6
		c1.4-1.6,2.9-3.1,4.5-4.5c6.7-5.9,14.6-10.4,23.1-13c3.7-1.2,7.6-2,11.5-2.4c3.8-0.4,7.6-0.5,11.4-0.3c1.9,0.2,3.7,0.3,5.5,0.7
		c1.8,0.3,3.6,0.8,5.3,1.6c1.7,0.7,3.2,1.8,4.3,3.2c1.1,1.4,1.9,3.1,2.1,4.8c0.2,3.4-0.7,6.8-2.6,9.6c-1.8,2.6-4,5-6.5,6.9
		c-4.5,3.4-9.6,6-15.1,7.6c-4.5,1.3-9,2.2-13.7,2.6c-4.1,0.4-7.6,0.5-10.5,0.6s-5.1,0-6.6,0h-1.7c-0.2,0-0.4,0-0.6,0h0.6h1.7
		l6.6-0.1c2.9-0.1,6.4-0.2,10.5-0.7c4.6-0.4,9.2-1.3,13.6-2.6c5.4-1.6,10.4-4.2,14.9-7.6c2.5-1.9,4.6-4.1,6.3-6.7
		c1.9-2.7,2.7-6,2.5-9.3c-0.2-1.7-0.9-3.3-1.9-4.5c-1.1-1.3-2.5-2.4-4.1-3c-1.6-0.7-3.3-1.2-5.1-1.5c-1.8-0.3-3.6-0.5-5.4-0.7
		c-3.8-0.2-7.5-0.1-11.3,0.3c-3.8,0.5-7.6,1.3-11.3,2.4c-10.5,3.2-20,9.1-27.4,17.2c-0.7,0.7-1.3,1.6-1.7,2.5
		c-0.4,0.9-0.5,1.9-0.2,2.8c0.3,0.9,0.9,1.7,1.7,2.2c0.8,0.5,1.7,0.9,2.6,1.2c0.9,0.3,1.9,0.4,2.8,0.5c1,0.1,1.9,0.2,2.9,0.2
		c7.1,0.3,14.1-1.1,20.6-4c5.3-2.4,10.1-5.7,14.2-9.9v0.3c-3-1.5-6.4-2.2-9.8-2c-2.5,0.1-5,0.8-7.3,1.8c-1.4,0.7-2.8,1.5-4,2.5
		l-0.9,0.8L338.9,516.8z"/>
	<path class="st3" d="M403.3,436h-0.6h-1.8c-0.8,0-1.8-0.1-2.9-0.1h-4c-8.4,0.3-16.7,1.6-24.8,4c-12,3.4-23.2,9.1-33.1,16.7
		c-5.7,4.6-11.2,9.6-16.4,14.8c-5.5,5.7-11.5,10.9-18,15.6c-6.5,4.7-14,7.7-21.9,8.8c-7.3,1-14.7,1.5-22.1,1.5
		c-14.1,0.2-26.8,0.1-37.4,0.6c-10.6,0.6-19.2,1.8-24.9,3.5c-2.2,0.6-4.3,1.4-6.4,2.4l-1.6,0.8c-0.4,0.2-0.6,0.3-0.6,0.3
		s0.2-0.1,0.5-0.3l1.6-0.9c2.1-1,4.2-1.9,6.4-2.5c5.7-1.8,14.3-3.1,25-3.7c10.6-0.6,23.4-0.5,37.4-0.8c7.4-0.1,14.7-0.6,22-1.5
		c7.8-1.1,15.3-4.1,21.7-8.7c6.4-4.7,12.4-9.8,17.9-15.5c5.2-5.3,10.7-10.2,16.4-14.8c16.8-12.8,37.2-20,58.2-20.5h4
		c1.2,0,2.1,0.1,2.9,0.1l1.8,0.1C402.9,436,403.1,436,403.3,436z"/>
	<path class="st3" d="M442.1,484.6c0,0-0.1,0.2-0.4,0.6l-1.2,1.8c-0.6,1-1.3,1.9-2.1,2.8c-1,1.2-2,2.4-3.1,3.5
		c-4.8,5.2-12.8,11.8-23.2,19c-5.2,3.7-11,7.5-17.1,11.7c-3.1,2.1-6.2,4.3-9.3,6.7c-3.2,2.4-6.5,4.8-10.1,7
		c-7.5,4.6-15.5,8.4-23.8,11c-9,2.9-18.4,4.3-27.9,4.3c-9.4-0.2-18.8-1.4-28.1-3.3c-8.9-1.7-17.5-3.8-25.7-5.3
		c-7.8-1.5-15.6-2.4-23.6-2.6c-6.9-0.2-13.8,0.4-20.5,1.9c-12.4,2.6-21.7,7.6-27.2,11.9c-1.2,1-2.4,2-3.5,3.1c-1,1-1.7,1.8-2.3,2.5
		c-0.6,0.7-1,1.3-1.3,1.7l-0.5,0.6c0.1-0.2,0.3-0.4,0.4-0.6l1.2-1.7c0.6-0.7,1.3-1.6,2.3-2.6c1.1-1.1,2.3-2.2,3.5-3.1
		c5.5-4.4,14.8-9.4,27.3-12.1c3.2-0.7,6.5-1.3,9.8-1.6c3.6-0.4,7.2-0.5,10.8-0.4c7.9,0.2,15.9,1.1,23.7,2.6
		c8.2,1.5,16.8,3.5,25.7,5.3c9.2,2,18.5,3.1,27.9,3.3c9.4,0,18.7-1.4,27.7-4.2c8.3-2.7,16.3-6.3,23.7-10.9c3.5-2.2,6.9-4.5,10-6.9
		c3.2-2.4,6.3-4.6,9.4-6.7c6.2-4.2,11.9-8,17.2-11.6c10.4-7.2,18.4-13.7,23.2-18.8c1.2-1.3,2.3-2.4,3.1-3.5c0.8-0.9,1.5-1.8,2.1-2.7
		l1.2-1.7C441.9,484.8,442.1,484.6,442.1,484.6z"/>
	<path class="st3" d="M287.4,449.9l-0.2,0.3l-0.6,0.8c-0.6,0.7-1.4,1.7-2.6,2.9c-3.3,3.5-6.9,6.6-10.8,9.4
		c-5.8,4.1-12.1,7.4-18.8,9.9c-8.2,3-16.6,5.3-25.2,6.7c-4.5,0.8-9,1.4-13.3,1.8s-8.5,0.6-12.5,0.8c-7.9,0.2-15.2,0-21.2-0.3
		c-6-0.3-10.9-0.6-14.3-0.9l-3.9-0.3l-1-0.1c-0.1,0-0.2,0-0.3,0h0.3h1l3.9,0.2c3.4,0.2,8.2,0.5,14.3,0.7c6,0.2,13.2,0.4,21.2,0.1
		c4-0.1,8.2-0.4,12.5-0.8s8.8-1,13.2-1.8c8.5-1.5,16.9-3.7,25-6.6c6.6-2.5,12.9-5.7,18.7-9.7c3.9-2.7,7.6-5.8,10.9-9.2
		c1.2-1.2,2-2.2,2.6-2.8l0.7-0.7C287.3,449.9,287.4,449.9,287.4,449.9z"/>
	<path class="st3" d="M312.3,565.4h-0.4h-1l-4.1-0.3c-3.5-0.3-8.6-0.7-14.9-0.9c-7.4-0.4-14.7-0.2-22.1,0.4
		c-9,0.7-17.8,2.8-26.2,6.2c-8.9,3.7-16.8,8.3-24.6,11.3c-3.7,1.5-7.5,2.6-11.4,3.4c-3.4,0.7-6.8,1.1-10.3,1.3c-5,0.2-10-0.1-14.9-1
		c-1.7-0.3-3.1-0.6-4-0.9l-1-0.3l-0.3-0.1c0.1,0,0.2,0,0.4,0l1,0.2c0.9,0.2,2.3,0.5,4,0.8c4.9,0.8,9.9,1.1,14.8,0.8
		c3.4-0.2,6.8-0.6,10.2-1.3c3.8-0.8,7.6-2,11.3-3.4c7.8-3,15.7-7.7,24.6-11.4c8.4-3.4,17.3-5.5,26.4-6.2c7.4-0.6,14.8-0.7,22.2-0.3
		c6.3,0.3,11.4,0.8,14.9,1.2l4.1,0.4l1,0.1C312,565.4,312.1,565.4,312.3,565.4z"/>
	<path class="st3" d="M133.3,512.1h0.4l1.2-0.1c1,0,2.6-0.1,4.6-0.1c2.4,0,4.8,0.4,7.2,1.1c3.1,1,5.9,2.8,8,5.2
		c2.4,3.1,4.1,6.7,4.9,10.6c1,4.4,1.3,8.9,1,13.3c-0.3,5-1.5,9.8-3.6,14.3c-1.1,2.4-2.6,4.6-4.4,6.5c-1.9,2-4.2,3.5-6.7,4.6
		c-1.3,0.5-2.6,0.9-4,1c-1.4,0.2-2.7,0.1-4.1-0.1c-2.6-0.5-5.1-1.8-7-3.6c-3.9-3.5-6.4-7.9-8.8-11.9c-1.2-2-2.2-4-3.1-6.2
		c-0.8-2.1-1.2-4.2-1.3-6.4c-0.1-2.1,0.2-4.1,1-6c0.8-1.7,1.9-3.3,3.2-4.6c1.2-1.2,2.3-2.5,3.3-3.8c0.9-1.2,1.6-2.6,2.1-4
		c0.8-2.3,1.8-4.5,3-6.6c0.8-1.3,2-2.4,3.4-3.1c0.4-0.1,0.8-0.2,1.2-0.3h0.4c-0.5,0-1,0.2-1.5,0.4c-1.3,0.7-2.5,1.8-3.2,3.1
		c-1.2,2.1-2.1,4.3-2.9,6.6c-0.5,1.4-1.3,2.8-2.1,4c-1,1.3-2.1,2.6-3.3,3.9c-1.3,1.3-2.3,2.8-3.1,4.5c-0.7,1.8-1.1,3.8-1,5.8
		c0.4,4.4,1.9,8.6,4.3,12.3c2.5,4,5,8.3,8.8,11.7c1.9,1.7,4.2,2.9,6.7,3.4c1.3,0.2,2.6,0.2,3.9,0.1c1.3-0.2,2.6-0.5,3.8-1
		c2.4-1,4.6-2.5,6.5-4.4c1.8-1.9,3.2-4,4.3-6.4c2.1-4.4,3.3-9.2,3.5-14.1c0.3-4.4,0-8.9-0.9-13.2c-0.7-3.8-2.3-7.3-4.7-10.4
		c-2.1-2.4-4.8-4.2-7.8-5.2c-2.3-0.7-4.7-1.1-7.1-1.2c-2-0.1-3.5,0-4.6,0L133.3,512.1L133.3,512.1z"/>
	<path class="st3" d="M139.8,526.1c0.2-0.2,0.4-0.3,0.6-0.5c0.6-0.4,1.3-0.6,2.1-0.7c1.2-0.1,2.3,0,3.4,0.4c1.4,0.6,2.7,1.6,3.5,2.9
		c1.1,1.6,1.7,3.4,1.9,5.3c0.2,2.1,0.1,4.3-0.3,6.4c-0.3,2.3-0.9,4.6-1.7,6.8c-0.9,2.4-2.7,4.4-5,5.6c-1.2,0.6-2.5,0.8-3.9,0.6
		c-1.3-0.2-2.5-0.8-3.5-1.6c-1.7-1.6-3.1-3.7-3.9-5.9c-1.6-3.7-2-7.8-1-11.7c0.7-2.6,2.3-5,4.4-6.6c0.6-0.4,1.2-0.8,1.9-1.1
		c0.2-0.1,0.5-0.2,0.7-0.2c-0.9,0.4-1.7,0.9-2.4,1.5c-2,1.7-3.5,3.9-4.1,6.5c-0.9,3.8-0.4,7.8,1.2,11.4c0.8,2.1,2.1,4.1,3.7,5.6
		c0.9,0.8,2,1.3,3.2,1.4c1.2,0.2,2.4,0,3.5-0.6c2.2-1.1,3.9-3,4.7-5.3c0.8-2.1,1.4-4.4,1.7-6.6c0.4-2,0.5-4.1,0.3-6.2
		c-0.2-1.8-0.8-3.5-1.7-5c-0.8-1.3-1.9-2.2-3.3-2.8c-1-0.4-2.2-0.6-3.3-0.5C141.5,525.3,140.6,525.6,139.8,526.1z"/>
	<path class="st3" d="M113.4,511.3c0-0.2,0-0.4,0-0.6c-0.1-0.6-0.1-1.2,0-1.7c0.1-2.2,0.6-4.4,1.6-6.5c1.5-3.2,3.8-6,6.6-8.1
		c1.8-1.3,3.7-2.4,5.8-3.2c2.3-0.8,4.8-1.4,7.3-1.5c5.7-0.3,11.4,0.8,16.6,3.2c6,2.6,11.4,6.4,16,10.9c5.1,5.1,9.2,11.1,12.1,17.7
		c3.1,7.1,4.5,14.8,4.4,22.5c-0.3,15.9-7.3,30.8-18.2,39.4c-5,4.2-11.2,6.9-17.7,7.8c-2.9,0.3-5.9,0.1-8.8-0.5
		c-2.7-0.6-5.2-1.6-7.7-2.9c-4.1-2.2-7.9-5.1-11.1-8.5c-2.4-2.5-4.7-5.2-6.8-8.1c-1.7-2.3-3-4.2-3.9-5.4l-1-1.4
		c-0.2-0.3-0.3-0.5-0.3-0.5l0.4,0.5l1,1.4c0.9,1.2,2.2,3.1,4,5.3c2.1,2.8,4.4,5.4,6.9,7.9c3.2,3.3,7,6.1,11.1,8.3
		c2.4,1.2,4.9,2.2,7.5,2.8c2.8,0.6,5.8,0.8,8.7,0.5c6.4-0.8,12.4-3.5,17.4-7.7c10.6-8.5,17.6-23.3,17.9-39
		c0.2-7.7-1.3-15.3-4.3-22.3c-2.8-6.5-6.9-12.5-11.9-17.5c-4.6-4.5-9.9-8.1-15.8-10.7c-5.1-2.3-10.7-3.4-16.3-3.2
		c-2.4,0.1-4.8,0.6-7.1,1.4c-2,0.8-4,1.8-5.7,3.1c-2.8,2.1-5.1,4.8-6.6,7.9c-1,2-1.6,4.1-1.7,6.4
		C113.3,510.5,113.4,511.3,113.4,511.3z"/>
	<path class="st3" d="M103.2,564.5c-0.1-0.1-0.3-0.3-0.4-0.5c-0.3-0.4-0.6-0.9-0.9-1.3c-1.1-1.7-2-3.6-2.6-5.5
		c-2.1-6.5-2.5-13.4-1.2-20c1.3-6.6,3.5-13,6.3-19.1c1.1-2.3,2-4.2,2.6-5.5l0.8-1.5c0.2-0.3,0.3-0.5,0.3-0.5
		c-0.2,0.7-0.5,1.4-0.8,2.1c-0.6,1.4-1.4,3.3-2.4,5.6c-2.7,6.1-4.8,12.5-6.1,19.1c-1.3,6.6-1,13.3,0.9,19.7
		C100.7,559.6,101.8,562.1,103.2,564.5z"/>
	<g class="st10">
		<path d="M228.9,461.2c-0.6,6.2,2.1,12.3,5.7,17.4c3.6,5.1,8,9.6,11.6,14.7c7.3,10.4,10.5,23,12.8,35.4c2.3,12.5,3.8,25.2,8,37.1
			c1,2.9,2.4,5.9,5.2,7.2c2.1,1,4.6,0.6,6.9,0.2l14.9-2.4c4.3-0.7,9-1.6,11.9-4.8c4-4.3,3.4-11,2.5-16.9l-4.8-32.2
			c-0.6-4.3-1.3-8.9,0.2-13c1.5-4.1,5.9-7.6,10.1-6.4c3,1,5.2,3.5,5.9,6.5c0.6,3,0.8,6.1,0.4,9.1l-2.9,40.7
			c-0.2,2.4-0.2,5.2,1.7,6.8c1.6,1.2,3.6,1.3,5.4,0.4c1.7-0.9,3-2.3,4-4c3.5-5.5,4.4-12.2,5.6-18.7c3.1-17,8.3-33.6,15.5-49.4
			c2-4.3,4.1-8.6,5-13.2s0.3-9.8-2.7-13.5c-3.2-3.9-8.3-5.3-13.2-6.6l-25.3-6.6c-8-2.1-16.2-4.2-24.5-4.1
			c-18.3,0.3-34.8,11.3-53,14.3"/>
	</g>
	<path class="st11" d="M281.6,263.8l-6.8,53.9l26.9,3.6c0.8-3.1,3.2-15.1,3.2-15.1s11.4,0.6,13.9-10.4c1.2-5.3,2.8-16.6,4.1-26.7
		c1.5-11.2-6.3-21.6-17.5-23.3l0,0c-11.4-1.8-22.1,6.1-23.8,17.5C281.7,263.4,281.6,263.6,281.6,263.8z"/>
	<path class="st12" d="M305.1,306c-5.1-1-9.8-3.5-13.5-7.2c0,0,1.7,8.7,12.9,10L305.1,306z"/>
	<path class="st3" d="M318.7,276.3c-0.1,0.9-1,1.5-1.9,1.3c-0.9-0.1-1.4-0.9-1.3-1.8c0,0,0,0,0,0c0.2-0.9,1-1.4,1.9-1.3
		C318.2,274.7,318.8,275.5,318.7,276.3z"/>
	<path class="st3" d="M319.5,274.1c-0.2,0.2-1.2-1-2.9-1.3c-1.7-0.3-3.1,0.2-3.3,0s0.2-0.4,0.8-0.7c0.8-0.3,1.8-0.4,2.6-0.2
		c0.9,0.2,1.7,0.6,2.3,1.3C319.5,273.7,319.6,274.1,319.5,274.1z"/>
	<path class="st3" d="M302,273.2c-0.1,0.9-1,1.5-1.9,1.3c-0.8-0.1-1.4-0.9-1.3-1.7c0,0,0,0,0,0c0.2-0.9,1-1.4,1.9-1.3
		C301.5,271.6,302.1,272.4,302,273.2z"/>
	<path class="st3" d="M302.7,270.9c-0.2,0.2-1.2-1-2.9-1.3s-3.1,0.2-3.3,0s0.2-0.5,0.8-0.7c0.8-0.3,1.8-0.4,2.6-0.2
		c0.9,0.2,1.7,0.7,2.3,1.3C302.8,270.4,302.9,270.8,302.7,270.9z"/>
	<path class="st3" d="M306.2,284.8c1-0.1,1.9-0.1,2.9,0.1c0.4,0,0.9,0,1-0.2c0.1-0.4,0.1-0.9,0-1.3c-0.2-1.1-0.4-2.3-0.6-3.6
		c-0.6-3.1-0.9-6.2-1-9.3c0.8,3,1.4,6,1.8,9.1c0.2,1.2,0.4,2.4,0.5,3.6c0.2,0.6,0.1,1.2-0.1,1.7c-0.2,0.3-0.5,0.5-0.8,0.5
		c-0.3,0-0.5,0-0.8,0C308,285.3,307.1,285.1,306.2,284.8z"/>
	<path class="st3" d="M301,284.9c0.3,0-0.1,1.9,1.2,3.5c1.3,1.6,3.3,1.9,3.3,2.1s-0.5,0.3-1.3,0.1c-1.1-0.2-2.1-0.8-2.7-1.7
		c-0.7-0.8-1-1.9-0.9-2.9C300.5,285.2,300.8,284.8,301,284.9z"/>
	<path class="st3" d="M304.6,264.4c-0.3,0.4-1.9-0.2-4-0.3s-3.8,0-4-0.5c-0.1-0.2,0.3-0.6,1-0.9c2-0.7,4.2-0.5,6,0.6
		C304.4,263.7,304.7,264.1,304.6,264.4z"/>
	<path class="st3" d="M319.9,269.1c-0.4,0.3-1.5-0.3-2.9-0.6s-2.6-0.3-2.8-0.8c-0.1-0.2,0.2-0.6,0.8-0.8c0.8-0.3,1.6-0.3,2.5-0.1
		c0.8,0.2,1.6,0.7,2.1,1.3C320,268.5,320.1,268.9,319.9,269.1z"/>
	<path class="st3" d="M296.2,254.2L296.2,254.2c-2.1,1-3.7,2.8-4.5,4.9l-0.1,0.2c-1.1,3.1-1.7,6.3-2.8,9.3c-1,3.1-3,5.8-5.7,7.7
		c-1.1,0.7-3,0.9-3.5-0.3c-0.2-0.5-0.2-1-0.1-1.5c1-7.7,0.4-14.9,2.1-22.8c0.5-2.2,1.9-4,4-4.8c1.9-0.8,4.2-1.6,5.9-0.4
		s3.3,5.3,4.4,7"/>
	<path class="st11" d="M284.3,269.5c-0.2-0.1-7.1-3.9-8.5,3.7c-1.4,7.6,6.5,7.4,6.6,7.2C282.5,280.2,284.3,269.5,284.3,269.5z"/>
	<path class="st12" d="M280.6,277.2c0,0-0.1,0-0.4,0.1c-0.3,0.1-0.7,0-1-0.2c-0.9-0.8-1.3-2-1-3.2c0.1-0.7,0.3-1.3,0.7-1.8
		c0.2-0.5,0.7-0.8,1.2-0.8c0.3,0,0.6,0.2,0.7,0.5c0.1,0.2,0,0.4,0,0.4s0.2-0.1,0.2-0.4c0-0.5-0.4-0.9-0.9-0.8
		c-0.7,0-1.3,0.4-1.6,0.9c-0.4,0.6-0.7,1.3-0.8,2c-0.3,1.4,0.2,2.8,1.3,3.6c0.4,0.2,0.9,0.2,1.2,0
		C280.5,277.3,280.6,277.2,280.6,277.2z"/>
	<path class="st3" d="M290.9,247.7c-1.2-3.4,4.8-6.6,8.8-7s8.5,2.5,11.9,4.5c2.2,1.3,4.3,2.8,6.8,3.3c1.7,0.2,3.4,0.1,5-0.2
		c1.7-0.3,3.4-0.3,5,0.1c1.7,0.4,3,1.7,3.4,3.4c0.3,1.6-0.8,3.1-2.4,3.4c-0.1,0-0.2,0-0.4,0c2-0.6,4.1,0.5,4.7,2.5
		c0.6,2-0.5,4.1-2.5,4.7c-0.9,0.3-1.8,0.2-2.7-0.2c1.2-0.6,2.6,1.1,2.2,2.4c-0.6,1.3-1.8,2.1-3.2,2.3c-3.4,0.7-7-0.5-10-2.3
		c-3-1.8-5.7-4.1-8.6-6c-3-1.9-7.9-5.1-11.4-4.7c-2.6,0.3-4.8,2.8-6,1.9c-1.1-1-1.8-2.4-1.7-3.9C290,250.4,290.3,249,290.9,247.7"/>
	<path class="st4" d="M330,255.1c0,0-0.5,0.5-1.5,1.2c-1.4,1-3.1,1.6-4.8,1.8c-2.5,0.3-5.1-0.3-7.1-1.8c-2.3-1.7-4-4.5-6.1-7.2
		c-1.9-2.7-4.5-4.7-7.6-5.9c-2.6-0.9-5.4-0.5-7.7,1c-1.5,1.1-2.5,2.7-2.8,4.5c-0.1,0.5-0.1,1,0,1.5c0.1,0.3,0.1,0.5,0.2,0.5
		c0-0.6,0-1.3,0.1-1.9c0.4-1.7,1.3-3.1,2.8-4.1c2.2-1.3,4.8-1.6,7.2-0.7c2.9,1.1,5.4,3.1,7.2,5.7c2,2.6,3.8,5.5,6.3,7.3
		c3.8,2.7,8.8,2.5,12.5-0.3c0.4-0.3,0.7-0.6,1-1C329.9,255.4,330,255.3,330,255.1z"/>
	<path class="st4" d="M282.4,268.8c0,0,0.4-0.1,0.8-0.7c0.6-0.8,0.9-1.7,1-2.6c0.4-2.5-1.2-5.5-0.8-8.9c0.2-1.6,0.8-3.1,1.8-4.3
		c0.9-1,2-1.6,3.3-1.8c0.9-0.2,1.8-0.1,2.6,0.2c0.6,0.2,0.9,0.4,0.9,0.4s-0.2-0.3-0.8-0.7c-0.9-0.4-1.8-0.6-2.8-0.5
		c-1.4,0.2-2.8,0.8-3.8,1.9c-1.2,1.3-1.9,3-2,4.7c-0.2,1.7,0,3.4,0.4,5.1c0.4,1.3,0.6,2.6,0.6,4
		C283.6,266.7,283.2,267.9,282.4,268.8z"/>
	<path class="st13" d="M307,576.3l6,30.3l11.7,22.6c0.8,1.5,0.2,3.4-1.3,4.3c-0.1,0-0.1,0.1-0.2,0.1l0,0c-0.9,0.4-2,0.3-2.9-0.2
		c-5.6-3.4-26.1-15.9-26.4-18.2c-0.4-2.6-9.8-35.6-9.8-35.6L307,576.3z"/>
	<g class="st14">
		<path class="st15" d="M323.2,633.6l-29.7-20.4l0.3,1.3c0.2,1.1,0.9,2.1,1.8,2.8c2.4,1.8,9.2,6.7,24.7,16.2
			C321.1,634,322.3,634.1,323.2,633.6L323.2,633.6z"/>
	</g>
	<g class="st14">
		<path class="st15" d="M297.5,602.1c0.9,0.4,1.4,1.4,1.1,2.3c-0.4,0.9-1.4,1.4-2.3,1.1c-0.9-0.4-1.4-1.5-1.1-2.5
			c0.5-0.9,1.6-1.3,2.5-0.8"/>
	</g>
	<path class="st3" d="M313.4,621.9c0.5-1.1,1.2-2.1,2.1-2.9c1-0.7,2.1-1.2,3.3-1.4c0-0.1-0.4-0.2-1.2-0.2c-1,0.1-1.9,0.5-2.6,1.1
		c-0.7,0.6-1.3,1.4-1.6,2.3C313.2,621.5,313.3,621.9,313.4,621.9z"/>
	<path class="st3" d="M316.4,625.5c0.2,0.1,0.9-1.1,2.4-1.9c0.9-0.4,1.9-0.8,2.9-1c-1.1-0.4-2.3-0.2-3.2,0.5
		C316.8,623.9,316.3,625.4,316.4,625.5z"/>
	<path class="st3" d="M308.2,617.7c2-2.5,4.7-4.3,7.7-5.2C312.6,612.5,309.6,614.6,308.2,617.7z"/>
	<path class="st3" d="M305.6,608.6c0.1,0.2,1.6-0.9,3.8-1.5s4-0.4,4-0.6C310.6,605.7,307.6,606.5,305.6,608.6L305.6,608.6z"/>
	<path class="st3" d="M303.6,599.8c1.2-0.7,2.5-1.3,3.9-1.6c1.4-0.2,2.8-0.1,4.2,0.1c0-0.1-0.4-0.4-1.2-0.6
		c-2.1-0.6-4.4-0.2-6.1,1.2C303.8,599.3,303.6,599.7,303.6,599.8z"/>
	<path class="st3" d="M307.1,596.5c0-0.4-0.1-0.8-0.2-1.2c-0.3-1-0.9-2-1.6-2.8c-0.5-0.6-1.1-1.1-1.9-1.3c-0.5-0.1-1,0.2-1.3,0.6
		c-0.2,0.5-0.3,1-0.2,1.5c0.6,2.1,2.6,3.4,4.7,3.2c2.1-0.2,3.8-1.7,4.4-3.7c0.1-0.5,0.1-1-0.2-1.5c-0.3-0.4-0.9-0.6-1.4-0.4
		c-0.7,0.3-1.3,0.8-1.8,1.5c-0.7,0.8-1.2,1.8-1.5,2.8c-0.2,0.4-0.2,0.8-0.2,1.2c0.5-1.3,1.2-2.5,2.1-3.6c0.4-0.5,0.9-1,1.6-1.2
		c0.3-0.1,0.6,0,0.8,0.2c0.2,0.3,0.2,0.7,0.1,1c-0.5,1.7-2,3-3.8,3.2c-1.8,0.2-3.5-0.9-4.1-2.6c-0.1-0.3-0.1-0.7,0.1-1
		c0.1-0.3,0.4-0.4,0.7-0.3c0.6,0.2,1.2,0.6,1.6,1.1C305.9,593.9,306.6,595.1,307.1,596.5z"/>
	<g class="st10">
		<polygon points="285.9,585.8 308.2,582.2 307.4,578 285.3,583.7 		"/>
	</g>
	<path class="st13" d="M350.3,566.2l-5.2,23.6c0,0,22.3,13.2,21.7,17.6l-46.1-8.4l6.5-37.1L350.3,566.2z"/>
	<g class="st14">
		<path class="st15" d="M331.2,585.2c-1,0.1-1.7,0.9-1.7,1.9c0.1,1,0.9,1.7,1.9,1.7c1-0.1,1.8-1,1.8-2c-0.2-1-1.1-1.7-2.2-1.5"/>
	</g>
	<g class="st14">
		<path class="st15" d="M320.7,599l0.8-3.7l43.9,9.4c0,0,1.9,1.3,1.3,2.6L320.7,599z"/>
	</g>
	<path class="st3" d="M345.9,589.7c0,0.2-1.2,0.1-2.4,0.6c-1.2,0.5-2,1.3-2.2,1.2s0.4-1.3,1.9-2S346,589.5,345.9,589.7z"/>
	<path class="st3" d="M350.4,592.5c0,0.2-1,0.4-2,1.2c-0.9,0.8-1.3,1.8-1.6,1.7c-0.2-0.1-0.1-1.3,1-2.3S350.4,592.3,350.4,592.5z"/>
	<path class="st3" d="M352.1,598.8c-0.2,0-0.3-1.2,0.5-2.3c0.8-1.1,1.9-1.4,2-1.2s-0.7,0.7-1.3,1.7
		C352.6,597.9,352.3,598.9,352.1,598.8z"/>
	<path class="st3" d="M346.5,584.2c-0.1,0.2-1.1-0.3-2.4-0.5c-1.3-0.1-2.4,0.1-2.4-0.1c-0.1-0.2,1-0.8,2.5-0.6
		C345.7,583.1,346.6,584,346.5,584.2z"/>
	<g class="st10">
		<polygon points="349.2,570.8 348.3,575 325.7,570.7 326.4,566.9 		"/>
	</g>
	<path class="st3" d="M347.4,579.4c-0.8,0.1-1.6-0.1-2.3-0.4c-1.3-0.5-2.5-1.2-3.5-2.1c-0.2-0.2-0.4-0.4-0.6-0.7
		c-0.2-0.4-0.2-0.9,0.1-1.2c0.3-0.3,0.7-0.4,1.1-0.3c0.3,0,0.6,0.1,0.8,0.3c0.5,0.2,0.9,0.5,1.3,0.8c0.7,0.5,1.3,1.1,1.9,1.8
		c0.5,0.6,0.9,1.3,1,2.1c-0.1,0-0.5-0.8-1.5-1.8c-0.5-0.6-1.2-1.1-1.8-1.5c-0.4-0.3-0.8-0.5-1.3-0.6c-0.5-0.2-0.9-0.3-1-0.1
		s-0.1,0.1,0,0.3c0.1,0.2,0.3,0.4,0.5,0.5c0.3,0.3,0.7,0.6,1.1,0.9c0.7,0.5,1.3,0.9,2.1,1.3C346,578.7,346.7,579,347.4,579.4z"/>
	<path class="st3" d="M347.1,579.6c-0.3-0.7-0.4-1.6-0.2-2.3c0.1-0.9,0.4-1.7,0.8-2.5c0.2-0.5,0.5-0.9,0.8-1.3
		c0.4-0.6,1-0.9,1.7-0.9c0.4,0.1,0.8,0.4,0.8,0.8c0.1,0.3,0.1,0.6,0.1,0.9c0,0.5-0.1,1.1-0.3,1.5c-0.3,0.8-0.8,1.6-1.4,2.2
		c-1.1,1-2.1,1.1-2.1,1c0-0.1,0.8-0.4,1.7-1.4c0.5-0.6,0.9-1.3,1.1-2c0.1-0.4,0.2-0.9,0.2-1.3c0-0.5-0.1-0.9-0.3-0.9
		c-0.2,0-0.7,0.3-0.9,0.6c-0.3,0.4-0.6,0.7-0.8,1.2c-0.4,0.7-0.7,1.4-0.9,2.2C347.1,578.7,347.2,579.6,347.1,579.6z"/>
	<path class="st3" d="M293,416l74.2,15c13.6,2.8,22.4,16.1,19.6,29.7c-0.2,1.1-0.5,2.1-0.8,3.1l-29.1,108.3l-37.2-3.5l22.5-101.9
		L263,448L293,416z"/>
	<path class="st3" d="M236.1,433c-5,7.4-6.3,16.7-3.5,25.2c0.1,0.3,0.2,0.6,0.3,0.9c0.8,1.6,24.7,17.5,24.7,17.5l20.8,108.8
		l33.7-8.6l-8.2-99.1c-1-12.6-6.3-24.6-14.9-33.9l-10.7-11.6l-39.1-4L236.1,433z"/>
	<path class="st4" d="M352.8,445c0.1,0.1-0.9,1.3-2.2,3.4c-1.8,2.7-3.4,5.5-4.8,8.5c-1.6,3.5-3,7.2-4,11l-0.3,1v-1.1
		c-0.1-0.7-0.1-1.4,0-2.1c0.2,0.7,0.3,1.4,0.3,2.1h-0.3c0.8-3.9,2-7.6,3.7-11.2c1.4-3,3.1-5.8,5-8.5c0.7-1,1.3-1.8,1.9-2.3
		C352.7,445.3,352.8,445,352.8,445z"/>
	<path class="st4" d="M343.5,446.8c-0.2,1.1-0.4,2.2-0.7,3.3c-0.6,2.6-1,5.3-1.2,7.9c-0.2,2.7-0.1,5.4,0.1,8
		c0.2,1.1,0.3,2.2,0.3,3.3c-0.4-1.1-0.7-2.2-0.8-3.3c-0.4-2.7-0.5-5.4-0.3-8.1c0.2-2.7,0.7-5.4,1.4-8
		C342.5,448.9,342.9,447.8,343.5,446.8z"/>
	<path class="st4" d="M306.2,504.7c-0.1-0.2-0.1-0.5-0.1-0.7c0-0.5-0.1-1.2-0.2-2.1l-0.7-7.7c-0.6-8.5-1.8-17-3.5-25.3
		c-1-4.6-2.6-9-4.8-13.1c-1.9-3.3-4.1-6.4-6.6-9.4c-2.1-2.5-3.8-4.5-5-6c-0.5-0.7-1-1.2-1.3-1.6c-0.2-0.2-0.3-0.4-0.4-0.6
		c0.2,0.2,0.4,0.3,0.5,0.5c0.4,0.4,0.8,0.9,1.4,1.5c1.2,1.3,3,3.3,5.1,5.8c2.6,2.9,4.8,6,6.8,9.3c2.3,4.2,3.9,8.6,4.9,13.2
		c1.7,8.4,2.8,16.9,3.3,25.4c0.3,3.3,0.4,5.9,0.5,7.8c0,0.9,0.1,1.6,0.1,2.1C306.2,504.2,306.2,504.4,306.2,504.7z"/>
	<path class="st4" d="M278.5,585.4c0-0.1-0.1-0.2-0.1-0.3l-0.2-1c-0.2-0.9-0.4-2.1-0.8-3.7c-0.6-3.3-1.6-7.9-2.7-13.8
		c-2.2-11.7-5.3-27.7-8.7-45.4c-3.4-17.7-6.4-33.8-8.6-45.4c-1.1-5.8-2-10.5-2.6-13.8c-0.3-1.6-0.6-2.8-0.7-3.7
		c-0.2-0.9-0.3-1.3-0.3-1.3c0.6,1.6,1,3.3,1.3,5c0.7,3.2,1.7,7.9,2.8,13.7c2.3,11.6,5.4,27.7,8.8,45.4s6.3,33.8,8.5,45.4
		c1,5.8,1.9,10.5,2.5,13.8c0.3,1.6,0.5,2.8,0.6,3.8l0.2,1C278.5,585.2,278.5,585.3,278.5,585.4z"/>
	<path class="st5" d="M370.8,504.4c0-0.3,0.1-0.5,0.1-0.8c0.1-0.6,0.3-1.3,0.5-2.1c0.5-1.9,1.2-4.6,2-7.8s1.9-7.2,3.1-11.6
		c1.2-4.3,2.5-9.1,3.7-14.2c1.1-4.7,1.8-9.6,1.9-14.5c0-2.1-0.3-4.2-0.8-6.2c-0.6-1.8-1.4-3.4-2.4-4.9c-1.6-2.2-3.4-4.1-5.4-5.9
		l-1.6-1.5c-0.2-0.2-0.4-0.3-0.5-0.5c0,0,0.2,0.1,0.6,0.5s1,0.8,1.7,1.4c2.1,1.7,4,3.7,5.6,5.9c1.1,1.5,2,3.3,2.6,5.1
		c0.6,2.1,0.9,4.2,0.9,6.4c-0.1,4.9-0.7,9.8-1.8,14.6c-1.1,5.1-2.5,9.9-3.7,14.2s-2.3,8.2-3.2,11.6c-0.9,3.3-1.7,5.9-2.3,7.8
		c-0.3,0.9-0.5,1.5-0.6,2.1C371,504,370.9,504.2,370.8,504.4z"/>
	<path class="st16" d="M311.3,357.9c0,1.3,8.2,59.1,14.9,63.1c6.7,4,55.8-1.9,55.8-1.9l-3.4-21.8L341,396l-4.5-48.5
		c-0.6-6.4-4.2-12.1-9.7-15.3l0,0L311.3,357.9z"/>
	<path class="st16" d="M243.9,308.1c10.2-2.5,21.4-2.7,33-2.1l25.5,6.9l26.1,20.6L304,399.3l1.6,19.3l-26.1,14.9l-40.2-5.2
		l-3.5-87.8L243.9,308.1z"/>
	<path class="st5" d="M273.3,308.1c0-0.3,0.1-0.5,0.1-0.8c0-0.3-0.1-0.7-0.2-1L273.3,308.1z"/>
	<path class="st16" d="M306.7,309.4c-0.6-0.9-1.7-1.2-2.6-0.9c-0.9,0.3-1.8,0.8-2.6,1.3c-4,2.1-8.8,2.4-13,0.7
		c-4.1-1.7-7.7-4.5-10.4-8c-0.4-0.5-0.8-1-1.3-1.3c-0.6-0.4-1.3-0.4-1.9,0c-0.3,0.4-0.6,0.8-0.6,1.3c-0.3,1.6-0.6,3.2-0.9,4.8
		c-0.8,4-3.5,8.1-1.9,11.9c0.9,2,3.1,3.1,5.2,4c7.1,2.7,14.7,3.6,22.1,2.6c1.6,0,3.2-0.6,4.4-1.7c1.3-1.4,1.2-3.5,1.3-5.3
		c0.2-2.3,0.7-4.5,1.7-6.6C306.7,311.3,307.2,310.3,306.7,309.4z"/>
	<path class="st3" d="M273.9,303.3c0.1,0.6,0.1,1.3,0,1.9c-0.1,1.5-0.6,3-1.4,4.3c-1.1,1.5-2.2,2.5-2.8,3.4
		c-0.6,0.9-0.8,1.6-0.9,1.6c-0.1,0-0.1-0.8,0.5-1.8c0.8-1.2,1.7-2.4,2.6-3.5c0.8-1.2,1.3-2.6,1.5-4
		C273.4,304.5,273.6,303.9,273.9,303.3z"/>
	<path class="st3" d="M301.8,315.4c-0.2,0.3-0.5,0.6-0.9,0.9c-0.9,0.7-1.8,1.3-2.8,1.8c-6.9,3.5-15.2,1.8-20.2-4.1
		c-0.7-0.8-1.4-1.8-1.9-2.8c-0.2-0.3-0.4-0.7-0.5-1.1c0.8,1.3,1.7,2.5,2.6,3.6c5,5.5,12.9,7.1,19.6,4
		C299.2,317,300.5,316.3,301.8,315.4z"/>
	<g class="st10">
		<path d="M276.4,311.5c0,0,0.7,8.4,9.1,9.7c5.2,0.7,10.5-0.9,14.4-4.4c0,0-6.9,4.3-14.3,2S276.4,311.5,276.4,311.5z"/>
		<path class="st3" d="M287.9,321.4c-0.8,0-1.7-0.1-2.5-0.2c-3.3-0.4-6.2-2.4-7.7-5.3c-0.7-1.4-1.2-2.8-1.4-4.4v-0.2l0.1,0.2
			c0.5,1,1.1,1.9,1.9,2.8c4.4,4.6,11.1,6.3,17.2,4.4c1.5-0.4,3-1.1,4.4-1.9l0,0C296.5,319.7,292.3,321.4,287.9,321.4L287.9,321.4z
			 M276.4,311.7c0.2,1.5,0.6,2.9,1.3,4.2c1.6,2.9,4.4,4.9,7.7,5.3c3.5,0.5,7.2-0.1,10.4-1.7c1.4-0.7,2.6-1.5,3.8-2.4
			c-1.3,0.7-2.7,1.3-4.1,1.7c-6.1,2-12.9,0.2-17.3-4.4C277.5,313.5,276.9,312.7,276.4,311.7z"/>
	</g>
	<path class="st3" d="M292.7,319.6c2.2-1.9,3.1-5,2.2-7.8c0.1,0,0.4,0.4,0.7,1.2c0.7,2.1,0,4.5-1.7,6
		C293.3,319.5,292.8,319.6,292.7,319.6z"/>
	<path class="st3" d="M301,310.2c1.6,1.6,1.6,4.2,0.1,5.8c0.2-1,0.4-1.9,0.5-2.9C301.4,312.1,301.2,311.2,301,310.2z"/>
	<path class="st3" d="M286.2,309.9c0.1,0.1-1,1.6-1.7,3.9c-0.7,2.2-0.7,4.1-0.9,4.1c-0.4-1.4-0.3-3,0.3-4.3
		C284.2,312.1,285,310.8,286.2,309.9z"/>
	<path class="st3" d="M319.9,351c0.2,0-2,7.8-4.8,17.3c-2.8,9.5-5.3,17.2-5.5,17.2c-0.2,0,2-7.8,4.8-17.3S319.7,350.9,319.9,351z"/>
	<path class="st3" d="M331.7,409.2c-0.3-0.8-0.4-1.7-0.3-2.6c0.2-4.3,2.8-8.2,6.8-9.9c0.8-0.4,1.6-0.6,2.5-0.6c0,0.1-0.9,0.3-2.3,1
		c-1.8,0.9-3.3,2.3-4.5,4c-1.1,1.7-1.8,3.6-2,5.6C331.7,408.2,331.8,409.2,331.7,409.2z"/>
	<path class="st3" d="M280.8,306.1c-1.8,1.5-2.9,3.7-3.2,6.1c-0.1,0-0.2-0.4-0.2-1.1c0-0.9,0.2-1.8,0.6-2.6c0.4-0.8,1-1.5,1.7-2
		C280.4,306.1,280.8,306,280.8,306.1z"/>
	<g class="st8">
		<path d="M327.5,422.6c5.9-1.2,10.9-5.2,13.5-10.7c0.5-1.4,1.2-2.7,2.2-3.9c1.5-1.3,3.4-2.1,5.4-2.3l25.7-5.2
			c-0.1-1.2-0.1-2.3-0.2-3.5l-24.3-0.8l-18.3,7.2l-3.9,17.9"/>
	</g>
	<g class="st10">
		<polygon points="236.1,347 244,342.5 236.8,365.6 		"/>
	</g>
	<path class="st3" d="M389.1,373.7c-0.4-2.2,1.8-4.2,4.1-4.7c2.2-0.5,4.6,0,6.8-0.2c6.3-0.6,11.2-6.1,17.5-7
		c5.4-0.6,10.7,2.2,13.2,7c2.4,4.9,1.8,10.7-1.5,15.1c-3.4,4.2-8.7,6.5-14,6c-2.5-0.2-5.1-1.1-7.6-0.3c-1.4,0.6-2.8,1.3-4.1,2.2
		c-1.7,1-3.6,1.3-5.6,1.1c-1.9-0.3-3.5-1.7-4.2-3.5"/>
	<path class="st3" d="M256.7,372.8c-9.6-4.5-18-6.5-28.6-5.7c-3.8,0.3-7.5,0.9-11.1,1.7c-17.6,4.3-36.8,21.8-33.8,44.8
		c2,15.2,15.2,44,44.3,46.1c8.2,0.5,16.5-1.2,23.8-5c5.3-2.6,10.4-5.6,15.4-8.8c5-3.2,10.8-4.8,16.8-4.6c8.8,0.4,21.4-1.3,30.7-6.3
		c17.2-9.1,20.2-22,16.5-36.3c-2.9-11.4-5.9-25.9-22.1-32.9c-8.8-3.9-20.8-4.2-36,5.7C267.8,374.5,261.9,374.9,256.7,372.8z"/>
	<path class="st4" d="M252.1,378.5c-3.9-0.4-7.7-1.6-11.1-3.4c-9-4.6-19.3-5.9-29.2-3.7c-17.6,4.2-32.7,22.5-29.7,45.2
		c1.9,14.6,8.4,41,36.4,43.9c8.8,0.8,17.6-0.9,25.5-4.8c5.4-2.7,10.6-5.6,15.7-8.9c4.8-3,10.4-4.6,16-4.3c8.8,0.4,22.3-0.2,31.1-6.2
		c13.8-9.5,18.5-21.5,14.2-35c-3.5-11.1-5.4-25.6-19.6-33c-8.5-4.4-20.6-2.4-35.7,7.4C261.5,378.2,256.7,379.1,252.1,378.5z"/>
	<circle class="st3" cx="261.7" cy="412.2" r="17.5"/>
	<path class="st4" d="M243.4,408.3l166.2-38.4c4.4-1,8.8,1.7,9.8,6.1c0,0,0,0,0,0.1l0,0c1,4.4-1.8,8.8-6.2,9.8l-165.7,37.3
		C243.9,418.4,242.3,413.5,243.4,408.3z"/>
	<path class="st3" d="M257.2,428.8c-0.4,0-0.9-0.1-1.3-0.2c-1.1-0.3-2.2-0.8-3.2-1.3c-7.1-3.8-10.4-12.2-7.7-19.8
		c0.4-1.1,0.9-2.2,1.5-3.1c0.2-0.4,0.5-0.7,0.8-1c-0.7,1.4-1.3,2.8-1.8,4.3c-2.3,7.4,0.9,15.4,7.5,19.2
		C254.3,427.6,255.8,428.2,257.2,428.8z"/>
	<path class="st3" d="M421.3,383.7c0,0.2-38.6,9-86.3,19.9s-86.4,19.4-86.4,19.2c0-0.2,38.6-9,86.3-19.9S421.2,383.5,421.3,383.7z"
		/>
	<path class="st3" d="M346.3,383.9c0,0.2-22.6,5.6-50.6,12.1c-28,6.5-50.7,11.7-50.8,11.5c0-0.2,22.6-5.6,50.6-12.1
		C323.5,388.9,346.3,383.7,346.3,383.9z"/>
	<path class="st3" d="M278.6,415.4c-1-2.3-1.7-4.7-2.3-7.2c-0.8-2.4-1.3-4.9-1.7-7.4c1,2.3,1.7,4.7,2.3,7.2
		C277.7,410.4,278.2,412.9,278.6,415.4z"/>
	<path class="st3" d="M266.8,418.2c-1-2.3-1.7-4.7-2.3-7.2c-0.8-2.4-1.3-4.9-1.6-7.4C264.7,408.3,266,413.2,266.8,418.2L266.8,418.2
		z"/>
	<path class="st3" d="M255.1,421c-1-2.3-1.7-4.7-2.3-7.2c-0.8-2.4-1.3-4.9-1.6-7.4c1,2.3,1.7,4.7,2.3,7.2
		C254.2,416,254.8,418.5,255.1,421z"/>
	<path class="st3" d="M290.1,413c-1-2.3-1.7-4.7-2.3-7.2c-0.8-2.4-1.3-4.9-1.6-7.4C288,403.2,289.3,408.1,290.1,413L290.1,413z"/>
	<path class="st3" d="M301.7,410.7c-1-2.3-1.7-4.7-2.3-7.2c-0.8-2.4-1.3-4.9-1.6-7.4c1,2.3,1.7,4.8,2.3,7.2
		C300.8,405.7,301.4,408.2,301.7,410.7z"/>
	<path class="st3" d="M313.2,407.8c-1-2.3-1.7-4.7-2.3-7.2c-0.8-2.4-1.3-4.9-1.6-7.4c1,2.3,1.7,4.7,2.3,7.2
		C312.3,402.9,312.9,405.3,313.2,407.8z"/>
	<path class="st3" d="M324.8,405c-1-2.3-1.7-4.7-2.3-7.2c-0.8-2.4-1.3-4.9-1.6-7.4c1,2.3,1.7,4.7,2.3,7.2
		C323.9,400.1,324.4,402.5,324.8,405z"/>
	<path class="st3" d="M336.3,402.3c-1.7-4.7-3.1-9.6-4-14.6c1,2.3,1.7,4.7,2.3,7.2C335.3,397.3,335.9,399.8,336.3,402.3z"/>
	<path class="st3" d="M348.8,399.4c-1-2.3-1.7-4.7-2.3-7.2c-0.8-2.4-1.4-4.9-1.7-7.4c1,2.3,1.7,4.7,2.3,7.2
		C347.8,394.5,348.4,396.9,348.8,399.4z"/>
	<path class="st3" d="M361.1,396.6c-1.7-4.7-3.1-9.6-4-14.6C358.9,386.7,360.2,391.6,361.1,396.6z"/>
	<path class="st3" d="M373.5,393.7c-1-2.3-1.7-4.7-2.3-7.2c-0.8-2.4-1.3-4.9-1.6-7.4c1,2.3,1.7,4.8,2.3,7.2
		C372.6,388.8,373.2,391.2,373.5,393.7z"/>
	<path class="st3" d="M385.9,390.9c-1-2.3-1.7-4.7-2.3-7.2c-0.8-2.4-1.3-4.9-1.6-7.4C383.8,381,385.1,385.9,385.9,390.9L385.9,390.9
		z"/>
	<path class="st3" d="M398.4,388c-1-2.3-1.7-4.7-2.3-7.2c-0.8-2.4-1.3-4.9-1.6-7.4c1,2.3,1.7,4.7,2.3,7.2
		C397.5,383,398,385.5,398.4,388z"/>
	<path class="st3" d="M410.8,385.1c-1.7-4.7-3.1-9.6-4-14.6c1,2.3,1.7,4.7,2.3,7.2C409.9,380.2,410.4,382.6,410.8,385.1z"/>
	<path class="st3" d="M399.3,365.6c0.1,0.9-0.5,1.8-1.5,1.9c-0.9,0.1-1.8-0.5-1.9-1.5c-0.1-0.9,0.5-1.8,1.5-1.9
		C398.4,364,399.2,364.6,399.3,365.6C399.3,365.6,399.3,365.6,399.3,365.6z"/>
	<path class="st3" d="M404.6,363.7c0,0.9-0.7,1.7-1.6,1.8c-0.8,0-1.5-0.5-1.7-1.3c-0.2-0.9,0.4-1.8,1.3-2c0.9-0.2,1.8,0.4,2,1.3
		C404.6,363.5,404.6,363.6,404.6,363.7z"/>
	<path class="st3" d="M410.4,361.7c0.1,0.9-0.5,1.8-1.5,1.9c-0.9,0.1-1.8-0.5-1.9-1.5c-0.1-0.9,0.5-1.8,1.5-1.9
		C409.4,360.2,410.3,360.8,410.4,361.7z"/>
	<path class="st3" d="M399.2,370.4c-0.2,0-0.7-0.9-1.1-2.2c-0.4-1.3-0.6-2.4-0.5-2.4s0.6,0.9,1.1,2.2
		C399.2,369.3,399.4,370.3,399.2,370.4z"/>
	<path class="st3" d="M404.7,369.2c-0.2,0-0.6-0.9-1.1-2.2c-0.4-1.3-0.6-2.4-0.5-2.4c0.2-0.1,0.6,0.9,1.1,2.2
		S404.9,369.1,404.7,369.2z"/>
	<path class="st3" d="M410.4,367c-0.2,0-0.6-0.9-1.1-2.2c-0.4-1.3-0.6-2.4-0.5-2.4c0.2-0.1,0.7,0.9,1.1,2.2S410.6,366.9,410.4,367z"
		/>
	<path class="st3" d="M414.8,392.8c0-0.9,0.8-1.7,1.8-1.6c0.9,0,1.6,0.8,1.6,1.8c0,0.9-0.8,1.6-1.8,1.6
		C415.5,394.5,414.8,393.7,414.8,392.8z"/>
	<path class="st3" d="M409.3,393.7c0.1-0.9,1-1.6,1.9-1.5c0.8,0.1,1.5,0.8,1.5,1.6c-0.1,0.9-1,1.6-1.9,1.5
		C410,395.2,409.4,394.5,409.3,393.7z"/>
	<path class="st3" d="M403.3,394.7c0-0.9,0.8-1.6,1.7-1.6c0.9,0,1.6,0.8,1.6,1.7c0,0.9-0.8,1.6-1.7,1.6
		C404,396.4,403.3,395.6,403.3,394.7C403.3,394.7,403.3,394.7,403.3,394.7z"/>
	<path class="st3" d="M415.8,388c0.2,0,0.5,1,0.7,2.4c0.2,1.3,0.2,2.4,0.1,2.5s-0.5-1-0.7-2.4S415.6,388,415.8,388z"/>
	<path class="st3" d="M410.1,388.3c0.2,0,0.5,1,0.7,2.4c0.2,1.3,0.2,2.4,0.1,2.5c-0.2,0-0.5-1-0.7-2.4
		C410,389.4,409.9,388.3,410.1,388.3z"/>
	<path class="st3" d="M404.1,389.5c0.2,0,0.5,1,0.7,2.4s0.2,2.4,0,2.5s-0.5-1-0.7-2.4C403.9,391.2,403.9,390.3,404.1,389.5z"/>
	<path class="st2" d="M258.9,378.3c0,0-0.2,0.3-0.5,0.8l-1.7,2.2l-6.1,7.9c-2.9,4-6.2,7.8-9.9,11.1c-4.7,3.9-10.1,6.9-15.9,8.8
		c-6.2,2.1-12.4,2.6-17.9,3.6c-2.6,0.4-5.2,1-7.7,1.8c-2.2,0.7-4.3,1.7-6.2,2.9c-2.9,1.7-5.2,4.1-6.9,7c-0.4,0.8-0.8,1.6-1.1,2.5
		c-0.2,0.6-0.3,0.9-0.3,0.9s0-0.3,0.2-0.9c0.3-0.9,0.6-1.7,1-2.5c1.6-3,4-5.4,6.9-7.2c2-1.2,4.1-2.2,6.3-3c2.5-0.8,5.1-1.4,7.7-1.9
		c5.5-1,11.7-1.5,17.8-3.6c5.8-1.8,11.2-4.8,15.9-8.7c3.6-3.3,7-7,9.9-11l6.2-7.9l1.7-2.1C258.7,378.6,258.9,378.3,258.9,378.3z"/>
	<path class="st2" d="M245.2,377.1c-0.2,0.1-0.4,0.2-0.7,0.3c-0.7,0.3-1.3,0.6-1.9,1c-2.2,1.4-4.3,3.1-6,5.1
		c-2.3,2.4-4.6,5.7-7.3,9.3c-1.4,1.8-3,3.6-4.6,5.2c-1.8,1.7-3.9,3.1-6.1,4.3c-4.3,2.2-9,3.6-13.8,4.2c-3.9,0.5-7.8,0.6-11.8,0.4
		c-3.3-0.1-6-0.4-7.9-0.6L183,406c-0.5,0-0.7-0.1-0.7-0.1h0.7l2.2,0.1c1.9,0.1,4.6,0.3,7.9,0.5c3.9,0.2,7.8,0,11.7-0.5
		c4.8-0.6,9.4-2,13.6-4.2c2.2-1.2,4.2-2.6,6-4.3c1.7-1.6,3.2-3.3,4.6-5.1c2.7-3.5,5-6.8,7.3-9.2c1.8-2,3.9-3.7,6.2-5
		C243.4,377.8,244.3,377.4,245.2,377.1z"/>
	<path class="st2" d="M211.1,385.1c-0.8,0.7-1.8,1.2-2.8,1.6c-2.7,1.2-5.8,1.4-8.7,0.7c-1-0.2-1.9-0.6-2.6-1.2
		c-0.5-0.4-0.6-1-0.4-1.6c0.3-0.5,0.7-0.9,1.2-1.2c1.9-1.4,4-2.4,6.2-3.1c2.5-0.8,5.1-1.1,7.6-1c1.4,0,2.7,0.3,4.1,0.7
		c1.4,0.4,2.6,1.2,3.5,2.2c1,1.1,1.5,2.5,1.5,4c-0.1,1.4-0.8,2.8-1.9,3.6c-2.2,1.4-4.6,2.4-7.2,2.8c-4.2,1-8.6,1.4-12.9,1.3
		c-2.9-0.1-5.8-0.6-8.7-1.4c-1-0.3-2-0.7-3-1.2c0,0,0.3,0.1,0.8,0.3s1.3,0.5,2.3,0.7c2.8,0.8,5.7,1.2,8.6,1.3
		c4.3,0.1,8.6-0.4,12.9-1.4c2.3-0.6,5-1.1,7-2.8c1-0.8,1.7-2,1.7-3.3c0-1.4-0.5-2.7-1.4-3.7c-0.9-1-2.1-1.7-3.4-2.1
		c-1.3-0.4-2.6-0.6-4-0.6c-4.9-0.2-9.7,1.2-13.7,4c-0.4,0.2-0.8,0.6-1.1,1c-0.2,0.4-0.1,0.9,0.3,1.2c0.7,0.6,1.6,1,2.5,1.2
		c2.8,0.7,5.8,0.5,8.5-0.5c0.7-0.3,1.5-0.7,2.1-1.1C210.8,385.2,211.1,385.1,211.1,385.1z"/>
	<path class="st2" d="M322.2,414.1h-1.4c-1.4,0.1-2.7,0.2-4.1,0.5c-2.1,0.4-4.2,1-6.2,1.9c-2.7,1.1-5.2,2.4-7.7,3.9
		c-2.8,1.6-5.6,3.6-8.8,5.7c-3.3,2.3-6.7,4.4-10.3,6.2c-4,2-8.3,3.3-12.7,3.8c-4.8,0.5-9.5,0.4-14.3-0.3c-9.7-1.3-18.7-4.1-27-5.4
		c-3.9-0.7-7.9-1-11.9-0.9c-3.5,0.1-6.9,0.6-10.3,1.6c-4.9,1.3-9.3,3.9-13,7.5c-1,1-1.8,2.1-2.6,3.2c-0.5,0.8-0.8,1.2-0.8,1.2
		s0.2-0.4,0.7-1.2c0.8-1.2,1.6-2.3,2.6-3.3c3.6-3.6,8.1-6.2,13-7.6c3.4-1,6.8-1.6,10.4-1.6c4-0.1,8,0.2,12,0.9
		c8.4,1.3,17.4,4,27,5.4c4.7,0.7,9.5,0.8,14.2,0.3c4.4-0.5,8.7-1.8,12.6-3.7c3.6-1.8,7-3.9,10.3-6.2c3.1-2.1,6-4.1,8.8-5.7
		c2.5-1.5,5.1-2.8,7.7-3.9c2-0.8,4.1-1.4,6.3-1.8c1.4-0.2,2.7-0.4,4.1-0.4L322.2,414.1z"/>
	<path class="st2" d="M209.3,453h0.6l1.9,0.1l6.8,0.5l4.7,0.4c1.8,0.2,3.6,0.3,5.4,0.3c1,0,1.9-0.3,2.8-0.7c0.9-0.4,1.5-1.2,1.8-2.2
		c0.4-2.1-0.7-4.2-2.6-5.2c-1.9-1-4-1.5-6.1-1.7c-7.7-0.8-15.4,0.6-22.3,4.1c-0.7,0.4-1.3,0.7-1.6,0.9l-0.6,0.3
		c0.2-0.1,0.3-0.3,0.5-0.4c0.4-0.2,0.9-0.6,1.6-0.9c2-1.1,4.1-2,6.3-2.6c3.2-1.1,6.6-1.7,10-1.8c2-0.1,4,0,6,0.2
		c2.2,0.1,4.3,0.7,6.3,1.7c2,1.1,3.1,3.4,2.7,5.6c-0.3,1-1,1.9-2,2.4c-0.9,0.4-1.9,0.7-2.9,0.7c-1.8,0-3.7-0.1-5.5-0.3l-4.7-0.4
		l-6.8-0.6l-1.9-0.2C209.7,453.1,209.5,453,209.3,453z"/>
	<path class="st2" d="M317.3,424.9c0,0-0.1,0.1-0.3,0.3l-0.8,0.9c-0.4,0.4-0.8,0.9-1.3,1.4c-0.5,0.5-1.2,1.1-1.9,1.8
		c-1.7,1.5-3.4,2.8-5.3,4.1c-2.3,1.5-4.7,2.8-7.2,4c-2.5,1.1-5.1,2-7.8,2.8c-2.2,0.6-4.4,1-6.6,1.3c-0.9,0.2-1.8,0.2-2.6,0.3
		c-0.7,0.1-1.3,0.1-2,0.1h-1.7c0.1,0,0.3-0.1,0.4-0.1l1.2-0.1c0.5,0,1.2-0.1,1.9-0.2c0.8-0.1,1.6-0.2,2.6-0.3
		c2.2-0.3,4.4-0.8,6.6-1.4c2.6-0.8,5.2-1.7,7.7-2.8c2.5-1.2,4.9-2.5,7.2-4c1.9-1.2,3.7-2.5,5.4-4c0.7-0.6,1.3-1.2,1.9-1.7
		c0.6-0.5,1-1,1.4-1.3l0.9-0.9C317.2,425.1,317.2,425,317.3,424.9z"/>
	<path class="st2" d="M314.5,383.6c0,0-0.2,0.2-0.5,0.5c-0.5,0.5-1,1-1.6,1.4c-2,1.6-4.3,2.8-6.8,3.7c-3.7,1.2-7.5,1.8-11.3,1.8
		c-4.7-0.1-9.4-0.4-14-1c-4.6-0.6-9.3-0.7-14-0.3c-3.8,0.4-7.5,1.5-10.8,3.3c-2.3,1.2-4.2,2.9-5.9,4.9c-1.1,1.4-1.5,2.4-1.6,2.3
		c0.1-0.2,0.2-0.4,0.3-0.6c0.3-0.6,0.7-1.2,1.1-1.8c1.6-2.1,3.6-3.8,5.9-5c3.4-1.9,7.1-3,10.9-3.5c4.7-0.4,9.4-0.3,14,0.3
		c4.6,0.6,9.3,0.9,14,1c3.8,0,7.6-0.6,11.2-1.7c2.4-0.8,4.7-2,6.8-3.5C313.8,384.3,314.4,383.5,314.5,383.6z"/>
	<path class="st2" d="M290.1,374.1c0.1,0.2,0.1,0.4,0.2,0.5c0.3,0.5,0.8,0.8,1.3,0.8c0.8,0.2,1.7-0.2,2.2-0.9c0.5-1,0.5-2.2-0.1-3.2
		c-0.8-1.1-1.9-2-3.2-2.4c-1.5-0.6-3-0.9-4.6-0.8c-0.8,0.1-1.6,0.4-2.3,0.9c-0.7,0.5-1.3,1.2-1.6,2.1c-0.7,1.7-0.5,3.7,0.5,5.3
		c1,1.6,2.6,2.7,4.4,3.3c1.7,0.5,3.4,0.8,5.2,0.6c3-0.2,5.9-1,8.6-2.3c1.8-0.9,3.5-2,5-3.4c0.5-0.5,0.9-0.9,1.2-1.1
		c0.1-0.1,0.3-0.3,0.4-0.4c-0.1,0.2-0.2,0.3-0.4,0.5c-0.2,0.3-0.6,0.7-1.2,1.2c-1.5,1.4-3.2,2.6-5,3.5c-2.7,1.4-5.7,2.2-8.7,2.4
		c-1.8,0.1-3.6-0.1-5.3-0.6c-1.9-0.6-3.5-1.8-4.6-3.5c-1.1-1.7-1.3-3.8-0.5-5.7c0.4-0.9,0.9-1.6,1.7-2.2c0.7-0.5,1.6-0.8,2.5-0.9
		c1.6-0.1,3.3,0.2,4.8,0.9c1.4,0.4,2.6,1.3,3.4,2.6c0.6,1.1,0.6,2.4,0,3.5c-0.5,0.8-1.5,1.2-2.4,0.9c-0.6-0.1-1-0.4-1.3-0.9
		C290.1,374.5,290.1,374.3,290.1,374.1z"/>
	<path class="st2" d="M245.7,421.2c-0.2,0-0.4,0-0.6,0l-1.8-0.1c-0.8-0.1-1.7-0.1-2.9-0.2c-1.1,0-2.4-0.1-3.8-0.1
		c-2.8,0-6.2,0.1-9.9,0.4c-4,0.4-8,1-11.9,1.8c-3.9,0.9-7.8,2-11.7,3.3c-3.5,1.2-6.6,2.5-9.2,3.7c-1.3,0.6-2.4,1.2-3.4,1.7
		c-1,0.5-1.9,1-2.5,1.3l-1.6,0.9c-0.2,0.1-0.4,0.2-0.6,0.3c0.2-0.1,0.3-0.2,0.5-0.3l1.6-0.9c0.7-0.4,1.5-0.9,2.5-1.4
		c1-0.5,2.1-1.1,3.4-1.7c3-1.4,6-2.7,9.2-3.8c3.8-1.3,7.7-2.4,11.7-3.3c4-0.8,8-1.4,12-1.8c3.3-0.3,6.6-0.4,9.9-0.3
		c1.4,0,2.6,0.1,3.8,0.2c1.2,0.1,2.1,0.1,2.9,0.2l1.8,0.2L245.7,421.2z"/>
	<path class="st2" d="M301.8,413c-0.3,0.2-0.5,0.3-0.8,0.4c-0.6,0.3-1.4,0.6-2.4,1c-5.4,2-10.9,3.4-16.6,4.1c-1.1,0.1-2,0.2-2.6,0.3
		c-0.3,0-0.6,0-1,0c0.3-0.1,0.6-0.1,0.9-0.2l2.6-0.4c2.2-0.3,5.1-0.9,8.4-1.7s6.1-1.7,8.2-2.4l2.4-0.8
		C301.2,413.2,301.5,413.1,301.8,413z"/>
	<path class="st5" d="M429.5,368.4c0.2,0.3,0.4,0.6,0.5,0.9c0.4,0.9,0.7,1.7,0.9,2.6c0.7,3.1,0.3,6.4-1,9.3
		c-1.3,2.9-3.5,5.3-6.3,6.8c-0.8,0.5-1.7,0.8-2.6,1.1c-0.3,0.1-0.7,0.2-1,0.2c0-0.1,1.4-0.5,3.4-1.7c5.3-3.2,8.1-9.4,7.1-15.5
		C430.1,369.8,429.4,368.4,429.5,368.4z"/>
	<path class="st5" d="M332.2,403.9c0,0,0,0.2,0.1,0.5c0.1,0.3,0.1,0.8,0.1,1.4c0.1,1.7,0,3.4-0.3,5.1c-1.6,11.5-9.4,21.3-20.2,25.5
		c-1.6,0.6-3.3,1.1-5,1.5c-0.6,0.1-1.1,0.2-1.4,0.2c-0.3,0.1-0.5,0-0.5,0c2.2-0.6,4.5-1.3,6.6-2.1c10.6-4.4,18.1-13.9,20-25.2
		C332,408.6,332.2,406.3,332.2,403.9z"/>
	<path class="st5" d="M496.6,379.6c2.2-1.7,5.3-1.4,7.1,0.8c1.7,2.2,1.4,5.3-0.8,7.1c-2.2,1.7-5.3,1.4-7.1-0.8c-1.6-2-1.4-5,0.5-6.8
		"/>
	<path class="st5" d="M488.8,419.4c1.6-1.3,4-1.1,5.3,0.5c1.3,1.6,1.1,4-0.5,5.3c-1.6,1.3-4,1.1-5.3-0.5c-1.2-1.5-1.1-3.7,0.3-5.1"
		/>
	<path class="st5" d="M469,395.5c1.2-1,3-0.7,4,0.5c1,1.2,0.7,3-0.5,4c-1.2,1-3,0.7-4-0.5c-0.9-1.2-0.8-2.8,0.3-3.8"/>
	<path class="st11" d="M248.6,397c0,0,7,3.7,9,3.9c1.9,0.2,8.8,0,8.8,0s0.9,1.9-3.3,3c-1.1,0.3-3.2,0.8-4.9,1.3
		c-0.8,0.2-1.3,1-1.1,1.8c0.1,0.2,0.2,0.4,0.3,0.6c2.3,2.6,6.3,7.1,6.8,7.2c0.8,0.2,4.3-3.4,5-4.2c1-1.1,4.1-0.4,1.8,3.1
		c-2,3-6.3,7.1-7.7,5.8l-5.2-4.5c0,0,6.7,8.1,7.2,10.6c0.5,2.5-2.3,2.9-4,1.1c-0.8-0.9-8-9.3-8-9.3s9.7,13.2,6.2,13.5
		c-2.1,0.1-8.2-9.6-8.2-9.6l3.2,7.4c0.3,0.8,0,1.6-0.7,2c-0.6,0.3-1.3,0.1-1.7-0.4c-1.4-1.8-2.7-3.6-3.8-5.6
		c-1.1-1.8-11.6-15.6-11.6-15.6L248.6,397z"/>
	<path class="st16" d="M192.8,387.5l41.8,23.8l16.2-16.6L209.6,362l34.4-19.5l-0.1-34.4l-50.4,27.1c-8.1,4.3-13.7,12.1-15.3,21.2
		l0,0C176,368.8,181.8,381.3,192.8,387.5z"/>
	<path class="st3" d="M200.5,355.1c1.9,0.7,3.7,1.7,5.3,2.9c1.7,1.1,3.3,2.4,4.6,4c-1.7-1-3.4-2.2-5-3.4
		C203.7,357.5,202.1,356.4,200.5,355.1z"/>
	<path class="st3" d="M206.8,349.3c3.2,3.4,4.6,8.1,3.8,12.7c-0.2-2.2-0.5-4.4-1-6.6C208.8,353.3,207.9,351.3,206.8,349.3z"/>
	<path class="st3" d="M382.5,419.5c-0.5-1-0.8-2.1-1-3.2c-0.5-2-1.2-4.7-1.7-7.8c-0.5-3.1-0.8-5.9-1-7.9c-0.2-1.1-0.2-2.2-0.1-3.3
		c0.3,1.1,0.5,2.1,0.5,3.2c0.3,2,0.7,4.8,1.2,7.9s1.1,5.8,1.5,7.8C382.2,417.3,382.4,418.4,382.5,419.5z"/>
	<path class="st11" d="M381.7,380.9c0,3.4,1.1,12.7,1.1,12.7l-4,5.3l2.7,17.7l17.9-19.2c1.2-1.3,2-2.9,2.3-4.7c1-5.9,3-19.2,2.4-20
		c-1-1.2-2.8,0.4-3.4,3.3c-0.3,1.5-3.2,10.3-3.2,10.3s-1.7-12.2-2.8-13.5c-1.8-2.2-2.6,1.5-2.5,4.1c0.2,3.3,0.2,7.1,0.2,9.4
		c0,0.1-0.1,0.3-0.3,0.3c-0.1,0-0.2-0.1-0.2-0.2c-1.2-4-4.1-13.1-5.8-12.3c-1.7,0.8-0.9,4.7-0.5,6.6c1.8,7.6,0.6,7.7,0.6,7.7
		l-2.7-8.8c-0.1-0.4-0.6-0.7-1-0.6C381.6,379.2,381.7,380.1,381.7,380.9z"/>
	<path class="st12" d="M391.9,385.6c0.1,0,0.4,0.5,0.7,1.5c0.4,1.3,0.6,2.7,0.5,4.1c-0.1,1.4-0.7,2.7-1.7,3.7
		c-0.8,0.8-1.5,0.9-1.5,0.9c0-0.1,0.5-0.4,1.1-1.2c0.8-1,1.3-2.2,1.4-3.5c0.1-1.3,0-2.6-0.3-3.9
		C391.9,386.7,391.8,386.2,391.9,385.6z"/>
	<path class="st12" d="M397.2,384.3c0.1,0,0.4,0.6,0.7,1.5c0.4,1.3,0.6,2.7,0.5,4.1c-0.1,1.4-0.7,2.7-1.7,3.8
		c-0.8,0.8-1.5,0.9-1.5,0.8c0-0.1,0.5-0.4,1.2-1.2c0.8-1,1.3-2.2,1.4-3.5c0.1-1.3,0-2.6-0.3-3.9
		C397.3,385.4,397.2,384.9,397.2,384.3z"/>
	<path class="st5" d="M401.9,395c0.1,0.1-3.9,4.6-8.9,9.9c-3,3.3-6.1,6.5-9.4,9.5c-0.1-0.1,3.9-4.6,8.9-9.9
		C397.5,399.1,401.7,394.9,401.9,395z"/>
	<path class="st5" d="M403.9,377.4c0.1,0.9,0.1,1.8,0,2.6c-0.1,1.7-0.3,4-0.6,6.4s-0.7,4.8-1,6.4c-0.1,0.9-0.3,1.8-0.7,2.6
		c-0.2,0,0.4-4.1,1-9.1C403.3,381.4,403.7,377.4,403.9,377.4z"/>
	<path class="st3" d="M223.1,460.3c-0.3,0-0.7,0-1,0c-1,0-2-0.1-2.9-0.2c-3.6-0.4-7.1-1.3-10.4-2.6c-5-2.1-9.5-5-13.3-8.7
		c-7.3-6.9-12-16.1-13.4-26.1c-0.5-3.1-0.6-6.3-0.5-9.5c0.3-5.3,1.3-10.6,3.1-15.7c1.2-3.4,2.8-6.6,4.7-9.7c0.5-0.8,1.1-1.6,1.7-2.4
		c0.2-0.3,0.4-0.6,0.6-0.8c-0.1,0.3-0.3,0.6-0.5,0.9c-0.4,0.6-0.9,1.3-1.6,2.5c-1.8,3.1-3.4,6.3-4.5,9.7c-1.7,5-2.7,10.2-2.9,15.5
		c-0.1,3.1,0,6.2,0.5,9.3c0.5,3.3,1.4,6.6,2.6,9.7c2.4,6,6,11.5,10.7,16c3.8,3.7,8.2,6.7,13.1,8.8c3.3,1.4,6.7,2.4,10.3,2.8
		C221.7,460.2,223.1,460.2,223.1,460.3z"/>
</g>
<g id="freepik--Stars--inject-929">
	<path class="st3" d="M310.6,180.4l0.7,1.3c0.3,0.5,0.7,0.9,1.2,1.2l1.3,0.7l-1.3,0.7c-0.5,0.3-0.9,0.7-1.2,1.2l-0.7,1.3l-0.7-1.3
		c-0.3-0.5-0.7-0.9-1.2-1.2l-1.3-0.7l1.3-0.7c0.5-0.3,0.9-0.7,1.2-1.2L310.6,180.4z"/>
	<path class="st3" d="M506.1,78.3l0.8,1.3c0.3,0.5,0.7,0.9,1.2,1.2l1.3,0.7l-1.3,0.8c-0.5,0.3-0.9,0.7-1.2,1.2l-0.8,1.3l-0.7-1.3
		c-0.3-0.5-0.7-0.9-1.2-1.2l-1.3-0.8l1.3-0.7c0.5-0.3,0.9-0.7,1.2-1.2L506.1,78.3z"/>
	<path class="st3" d="M604.7,205.4l0.8,1.3c0.3,0.5,0.7,0.9,1.2,1.2l1.3,0.8l-1.3,0.7c-0.5,0.3-0.9,0.7-1.2,1.2l-0.8,1.3l-0.7-1.3
		c-0.3-0.5-0.7-0.9-1.2-1.2l-1.3-0.7l1.3-0.8c0.5-0.3,0.9-0.7,1.2-1.2L604.7,205.4z"/>
</g>
<g id="freepik--Fire--inject-929">
	<path class="st5" d="M457.3,545c-13.8-20.7-11.8-50.6,4.7-69.2c2.8-3.2,6.5-6.3,10.8-6.5s8.8,4.1,7.4,8.1c-1.1,2.9-4.6,4.5-5.2,7.5
		c-0.7,3.5,3.4,6.6,6.9,5.9c3.5-0.7,6-3.9,7.4-7.2c1.3-3.3,1.7-6.9,2.9-10.3c1.2-3.4,3.3-6.7,6.8-7.9c3-1,6.2-0.1,9.3-0.6
		c5.8-1,9.7-6.6,10.7-12.4c0.9-5.8-0.5-11.6-1.8-17.3s-2.4-11.6-1-17.3c2.2-8.4,10.2-14.6,18.8-15.7c8.6-1.2,17.4,2.2,24,7.8
		c6.6,5.6,11.1,13.4,14.1,21.5c11.6,31,2.2,65.9-23.3,86.9c-5,4.1-10.6,7.6-14.7,12.5c-4.1,4.9-6.9,11.7-4.9,17.9"/>
	<g class="st17">
		<path class="st15" d="M457.3,545c-13.8-20.7-11.8-50.6,4.7-69.2c2.8-3.2,6.5-6.3,10.8-6.5s8.8,4.1,7.4,8.1
			c-1.1,2.9-4.6,4.5-5.2,7.5c-0.7,3.5,3.4,6.6,6.9,5.9c3.5-0.7,6-3.9,7.4-7.2c1.3-3.3,1.7-6.9,2.9-10.3c1.2-3.4,3.3-6.7,6.8-7.9
			c3-1,6.2-0.1,9.3-0.6c5.8-1,9.7-6.6,10.7-12.4c0.9-5.8-0.5-11.6-1.8-17.3s-2.4-11.6-1-17.3c2.2-8.4,10.2-14.6,18.8-15.7
			c8.6-1.2,17.4,2.2,24,7.8c6.6,5.6,11.1,13.4,14.1,21.5c11.6,31,2.2,65.9-23.3,86.9c-5,4.1-10.6,7.6-14.7,12.5
			c-4.1,4.9-6.9,11.7-4.9,17.9"/>
	</g>
	<path class="st5" d="M472.9,547.2c-3-5-6-10.2-6.6-16s2.1-12.4,7.5-14.4c3.7-1.4,7.9-0.5,11.6-1.8c5.3-1.8,8.3-7.2,11.3-11.9
		c5.1-7.9,11.6-14.7,19.2-20.2c2.6-2.1,5.6-3.6,8.9-4.4c3.3-0.7,6.8,0.3,9.1,2.8c3.3,4,1.3,10.2-2,14.2c-3.3,4-7.7,7.2-10,11.9
		c-2.6,5.6-1.7,12.2-1.5,18.4c0.3,6.2-0.6,13.2-5.6,17c-2.1,1.5-4.6,2.3-6.7,3.7c-2.1,1.4-3.9,4-3.1,6.4"/>
	<path class="st5" d="M543.5,462c-2.1,2.5-1.8,6.3,0.7,8.4c2.5,2.1,6.3,1.8,8.4-0.7c2.1-2.5,1.8-6.3-0.7-8.4
		c-2.3-1.9-5.7-1.9-7.9,0.2"/>
	<g>
		<defs>
			<path id="SVGID_1_" d="M456.1,544.4L456.1,544.4c-5.2-0.1-10.1,2.5-12.8,6.9c-4.4,6.7-2.5,15.8,4.2,20.1c2.2,1.4,4.7,2.1,7.3,2.2
				l0,0l72,0.9l2.6-28.6L456.1,544.4z"/>
		</defs>
		<clipPath id="SVGID_2_">
			<use xlink:href="#SVGID_1_"  style="overflow:visible;"/>
		</clipPath>
		<g class="st18">
			<path class="st3" d="M456.1,544.4L456.1,544.4c-5.2-0.1-10.1,2.5-12.8,6.9c-4.4,6.7-2.5,15.8,4.2,20.1c2.2,1.4,4.7,2.1,7.3,2.2
				l0,0l72,0.9l4.5-28.3L456.1,544.4z"/>
			<path class="st4" d="M441.1,556.8c0.8-0.7,1.7-1.2,2.6-1.6c2.6-1,5.5-1.5,8.3-1.3c4.2,0.2,8.3,1,12.2,2.5c2.2,0.7,4.6,1.5,7,2.1
				c2.5,0.7,5.1,1,7.7,0.8c5.3-0.4,10-3,14.7-3.8c4.2-0.7,8.5-0.2,12.4,1.3c2.6,1,5.2,2.1,7.7,3.5c0.9,0.5,1.5,0.8,2,1.1
				c0.2,0.1,0.5,0.3,0.7,0.4c-0.3-0.1-0.5-0.2-0.7-0.3l-2.1-1c-2.5-1.2-5.1-2.3-7.7-3.2c-3.9-1.4-8.1-1.8-12.1-1.1
				c-2.4,0.5-4.7,1.2-7,2.1c-2.5,0.9-5.1,1.5-7.8,1.8c-2.7,0.1-5.4-0.2-7.9-0.9c-2.5-0.6-4.8-1.4-7.1-2.2c-3.9-1.5-7.9-2.4-12.1-2.6
				c-2.8-0.2-5.6,0.2-8.2,1.1C442.9,555.9,442,556.3,441.1,556.8z"/>
			<path class="st4" d="M491.1,564.4c0.1-0.1,0.3-0.2,0.5-0.3c0.5-0.2,1-0.3,1.5-0.4c2-0.3,4,0.4,5.4,1.8l0.2,0.2l-0.3,0.1
				c-3.8,2-8.3,2.2-12.4,0.7c-0.6-0.2-1.2-0.5-1.7-0.9c-0.7-0.4-1.1-1.1-1.2-1.8c0.1-0.8,0.6-1.4,1.3-1.8c0.6-0.3,1.2-0.6,1.9-0.9
				c5.1-2.1,10.8-2.1,15.9,0.1c1.1,0.4,2.2,1.1,3.1,1.9c1,0.8,1.4,2.1,1.2,3.3c-0.3,1.1-1,2.1-1.9,2.8c-0.8,0.6-1.8,1.1-2.8,1.4
				c-1.8,0.6-3.6,0.8-5.5,0.7c-2.6-0.2-5.3-0.8-7.7-1.7c-0.9-0.3-1.6-0.6-2-0.7c-0.2-0.1-0.5-0.2-0.7-0.3c0.2,0,0.5,0.1,0.7,0.2
				l2.1,0.6c2.5,0.8,5.1,1.3,7.7,1.4c1.8,0.1,3.6-0.2,5.3-0.7c0.9-0.3,1.8-0.7,2.6-1.3c0.8-0.6,1.4-1.5,1.7-2.4c0.2-1-0.2-2.1-1-2.8
				c-0.9-0.7-1.8-1.3-2.9-1.7c-4.9-2.1-10.4-2.1-15.3-0.1c-0.6,0.3-1.2,0.5-1.8,0.9c-0.6,0.3-1,0.7-1,1.2c0.1,0.6,0.4,1,0.9,1.3
				c0.5,0.3,1.1,0.6,1.6,0.8c3.9,1.5,8.2,1.3,11.9-0.5l-0.1,0.3c-1.3-1.4-3.2-2.1-5.1-1.9C492.4,564,491.8,564.1,491.1,564.4z"/>
			<path class="st4" d="M528.8,550c0,0-1.1-0.4-3-1c-2.8-0.9-5.6-1.6-8.5-2c-4.3-0.6-8.6-0.5-12.9,0.2c-4.8,0.8-9.7,3.2-15.1,4.9
				s-11.1,2.4-15.9,1c-4.8-1.5-8.7-3.6-12.1-5c-1.5-0.7-3.1-1.2-4.7-1.7c-1.2-0.3-2.4-0.5-3.7-0.6h-1.3c-0.4,0-0.7,0.1-1,0.1
				c-0.3,0-0.6,0-0.8,0c0.3-0.1,0.5-0.1,0.8-0.2c0.3,0,0.6-0.1,1-0.1h1.4c1.3,0,2.5,0.2,3.8,0.5c1.6,0.4,3.2,0.9,4.8,1.6
				c3.5,1.3,7.4,3.5,12.1,4.8s10.2,0.7,15.5-1c5.3-1.7,10.3-4,15.2-4.9c4.3-0.7,8.7-0.7,13.1,0c2.9,0.4,5.8,1.2,8.5,2.2
				c1,0.4,1.7,0.7,2.2,0.9C528.3,549.7,528.6,549.8,528.8,550z"/>
			<path class="st4" d="M520.5,564.6c-0.2,0.2-0.4,0.4-0.6,0.6c-0.4,0.4-1.1,0.9-1.9,1.6c-2.4,1.9-5,3.5-7.7,5
				c-4,2.2-8.3,3.7-12.8,4.4c-5.5,0.9-11.2,0.4-16.5-1.7c-5.5-2.3-10.1-5.6-14.6-8c-3.8-2.4-8.1-4-12.5-4.7c-3-0.4-6-0.1-8.9,1
				c-1,0.4-2,0.9-3,1.5c0.8-0.8,1.8-1.4,2.8-1.8c2.8-1.2,6-1.6,9-1.3c4.5,0.7,8.9,2.2,12.7,4.6c4.5,2.5,9.1,5.8,14.5,7.9
				c5.1,2,10.7,2.6,16.1,1.7c4.4-0.7,8.7-2.1,12.7-4.2c2.7-1.4,5.3-3,7.7-4.8l2-1.5C520,564.9,520.2,564.7,520.5,564.6z"/>
		</g>
	</g>
	<path class="st4" d="M535.7,548c6.8,4.1,8.9,13,4.8,19.8c-4.1,6.8-13,8.9-19.8,4.8c-6.8-4.1-8.9-13-4.8-19.8
		c0.1-0.1,0.1-0.2,0.2-0.3C520.2,545.9,529,543.9,535.7,548z"/>
	<path class="st3" d="M535.7,548c-1-0.5-2.1-0.9-3.2-1.3c-5.2-1.6-10.9,0-14.6,4c-1.7,1.8-2.9,4.1-3.4,6.5c-0.6,2.7-0.4,5.5,0.5,8
		c2.1,5.7,7.7,9.3,13.8,8.8c1.4-0.1,2.8-0.4,4.1-1c1.2-0.5,2.4-1.2,3.5-2c2-1.5,3.5-3.5,4.4-5.9c2.1-5,1.1-10.8-2.5-14.9
		C537.4,549.5,536.6,548.7,535.7,548c1,0.5,2,1.3,2.8,2.1c2.3,2.4,3.6,5.4,3.9,8.7c0.2,2.3-0.2,4.5-1,6.6c-1,2.4-2.6,4.5-4.6,6.1
		c-1.1,0.9-2.3,1.6-3.6,2.1c-1.4,0.6-2.8,0.9-4.2,1c-6.4,0.6-12.3-3.2-14.5-9.3c-0.5-1.4-0.8-2.8-0.9-4.3c-0.1-1.4,0-2.8,0.4-4.2
		c0.6-2.5,1.8-4.9,3.6-6.8c1.5-1.6,3.4-2.9,5.5-3.7c3-1.2,6.4-1.2,9.5-0.2C533.7,546.7,534.7,547.3,535.7,548z"/>
	<path class="st3" d="M528.2,548.8c0.2,0,0.4,0.1,0.6,0.2c0.4,0.1,1,0.4,1.8,0.7s1.7,0.8,2.6,1.4c1.2,0.7,2.2,1.5,3.1,2.6
		c1.1,1.3,1.7,2.9,1.9,4.6c0.2,1.9-0.1,3.8-0.7,5.6c-0.6,2-1.9,3.8-3.6,5.1c-1.9,1.3-4.2,1.9-6.5,1.5c-2.2-0.3-4.4-1.1-6.3-2.3
		c-1.8-1.1-3.2-3-3.6-5.1c-0.3-1.9-0.2-3.8,0.4-5.6c0.5-1.6,1.1-3.1,2-4.5c1.2-2.1,3.2-3.6,5.6-4.2c0.6-0.1,1.3-0.2,1.9-0.1
		C527.7,548.6,527.9,548.7,528.2,548.8c-0.9-0.1-1.7,0-2.6,0.2c-2.2,0.6-4.1,2.2-5.2,4.2c-0.8,1.4-1.4,2.9-1.8,4.4
		c-0.5,1.7-0.7,3.5-0.4,5.3c0.5,1.9,1.7,3.6,3.4,4.6c1.8,1.2,3.9,1.9,6,2.2c2.1,0.4,4.3-0.1,6-1.3c1.6-1.2,2.7-2.9,3.4-4.8
		c0.6-1.7,0.9-3.5,0.7-5.3c-0.1-1.6-0.7-3.1-1.7-4.3c-0.8-1-1.8-1.9-3-2.6c-1-0.6-1.9-1.1-2.6-1.5
		C529,549.2,528.2,548.8,528.2,548.8z"/>
	<path class="st3" d="M529.6,552.7c0,0,0.1-0.1,0.4-0.1c0.4,0.1,0.7,0.4,1,0.7c0.4,0.5,0.7,1,0.9,1.6l1,2.2c0.4,0.8,0.8,1.7,1.2,2.6
		c0.5,1.1,0.5,2.4,0.1,3.5c-0.6,1.2-1.7,2.1-3,2.5c-1.4,0.4-2.8,0.3-4.1-0.1c-1.3-0.4-2.6-1-3.6-1.9c-0.5-0.5-0.9-1.1-1.1-1.7
		c-0.2-0.6-0.2-1.3-0.1-1.9c0.2-1.1,0.5-2.2,0.8-3.3c0.3-0.9,0.7-1.8,1.3-2.6c0.8-1.2,2.2-2,3.7-2c0.4,0,0.8,0.1,1.2,0.3
		C529.4,552.5,529.5,552.5,529.6,552.7c-0.5-0.2-1-0.3-1.5-0.3c-1.4,0.1-2.6,0.8-3.3,2c-1,1.8-1.6,3.8-1.9,5.8
		c-0.2,1.1,0.2,2.3,1,3.1c1,0.8,2.2,1.4,3.4,1.7c1.2,0.4,2.5,0.5,3.7,0.1c1.1-0.3,2-1.1,2.6-2.1c0.4-1,0.4-2.1,0-3.1
		c-0.3-1-0.7-1.9-1-2.6c-0.3-0.8-0.6-1.5-0.9-2.2c-0.2-0.6-0.4-1.1-0.8-1.6c-0.2-0.3-0.5-0.6-0.8-0.7
		C529.7,552.7,529.6,552.7,529.6,552.7z"/>
</g>
</svg>
