<?xml version="1.0" encoding="utf-8"?>
<!-- Generator: Adobe Illustrator 23.0.0, SVG Export Plug-In . SVG Version: 6.00 Build 0)  -->
<svg version="1.1" id="Layer_1" xmlns="http://www.w3.org/2000/svg" xmlns:xlink="http://www.w3.org/1999/xlink" x="0px" y="0px"
	 width="870.94px" height="511.24px" viewBox="0 0 870.94 511.24" style="enable-background:new 0 0 870.94 511.24;"
	 xml:space="preserve">
<g>
	<g>
		<g>
			<g>
				<g>
					<g>
						<g>
							<g>
								<path style="fill:#FFFFFF;" d="M69.57,122.92c0.69-18.01,15.46-32.41,33.64-32.41c3.86,0,7.56,0.68,11.02,1.88
									c6.93-16.58,23.3-28.23,42.39-28.23c2.25,0,4.45,0.22,6.61,0.53c0-0.18-0.03-0.35-0.03-0.53
									c0-35.49,28.77-64.25,64.25-64.25c35.49,0,64.25,28.77,64.25,64.25c25.37,0,45.93,20.57,45.93,45.93
									c0,4.46-0.65,8.76-1.84,12.83H69.57z"/>
							</g>
						</g>
					</g>
				</g>
			</g>
		</g>
	</g>
	<g>
		<g>
			<g>
				<g>
					<g>
						<g>
							<path style="fill:#FFFFFF;" d="M609.63,131.5c-0.19-1.21-0.29-3.3-0.29-5.03c0-25.12,20.35-45.44,45.45-45.44
								c3.17,0,6.26,0.35,9.25,0.97c9.91-19.55,30.18-32.95,53.59-32.95c28.72,0,52.71,20.18,58.65,47.13
								c0.28-0.01,0.57-0.11,0.85-0.11c20.63,0,37.64,16.06,40.03,35.43H609.63z"/>
						</g>
					</g>
				</g>
			</g>
		</g>
	</g>
</g>
<g>
	<g>
		<g>
			<g>
				<path style="fill:#EBEBEB;" d="M870.83,451.74c-0.57-2.17-3.04-3.19-5.25-3.56c-8.94-1.51-19.14,3.5-23.71,11.32
					c7.91,2.95,16.85,2.15,24.45-1.5c1.26-0.61,2.51-1.32,3.42-2.38C870.65,454.56,871.18,453.09,870.83,451.74z"/>
			</g>
		</g>
		<g>
			<g>
				<path style="fill:#EBEBEB;" d="M835.96,454.04l0.13-0.1c0.95-4.63-1.21-11.1-3.63-15.16c-2.42-4.06-6.39-7.17-10.92-8.54
					c-1.59-0.48-3.68-0.58-4.55,0.84c-0.55,0.9-0.36,2.05-0.1,3.08C819.26,443.23,827.05,451.1,835.96,454.04z"/>
			</g>
		</g>
		<g>
			<g>
				<path style="fill:#EBEBEB;" d="M857.87,474.99c-1.14-0.98-2.63-1.48-4.12-1.7c-4.09-0.62-8.28,0.71-11.79,2.89
					s-7.58,6.88-10.42,9.88c6.16-2.19,12.53-2.25,19.07-2.53c1.83-0.08,3.7-0.09,5.42-0.72c1.72-0.63,3.29-2.03,3.53-3.85
					C859.77,477.48,859.02,475.97,857.87,474.99z"/>
			</g>
		</g>
		<g>
			<g>
				<path style="fill:#EBEBEB;" d="M819.01,456.24c-1.4-0.93-3.21-1.38-4.79-0.82c-1.92,0.67-3.14,2.72-3.22,4.75
					c-0.08,2.03,0.83,4,2.1,5.58c1.28,1.58,2.9,2.83,4.52,4.06c3.74,2.86,7.47,5.71,11.21,8.57c-0.66-6.07-3.05-13.36-6.43-18.45
					C821.46,458.54,820.41,457.18,819.01,456.24z"/>
			</g>
		</g>
		<g>
			<g>
				<path style="fill:#EBEBEB;" d="M849.98,440.01c4.48-5.6,6.46-10.01,8.56-16.03c0.42-1.2,0.81-2.43,0.82-3.71
					c0.01-1.27-0.42-2.6-1.39-3.42c-1.18-0.99-2.95-1.04-4.38-0.46c-1.43,0.58-2.58,1.69-3.6,2.84c-6.07,6.88-8.6,16.9-7.07,25.95
					C844.66,444.75,849.08,441.13,849.98,440.01z"/>
			</g>
		</g>
	</g>
	<g>
		<g>
			<g>
				<path style="fill:#263238;" d="M825.34,508.71c0.51-5.08,1.45-10.12,2.55-15.1c1.3-5.86,2.85-11.67,4.56-17.42
					c1.81-6.08,3.8-12.11,5.95-18.08c2.06-5.7,4.26-11.35,6.66-16.91c2.08-4.83,4.29-9.61,6.79-14.24c0.27-0.5,0.54-1,0.82-1.49
					c0.3-0.54-0.56-0.96-0.86-0.42c-2.51,4.49-4.72,9.15-6.79,13.85c-2.42,5.51-4.65,11.1-6.73,16.75
					c-2.19,5.96-4.23,11.98-6.08,18.06c-1.78,5.81-3.4,11.67-4.77,17.59c-1.19,5.13-2.23,10.32-2.85,15.56
					c-0.07,0.56-0.13,1.13-0.19,1.69C824.34,509.14,825.28,509.32,825.34,508.71L825.34,508.71z"/>
			</g>
		</g>
	</g>
	<g>
		<g>
			<g>
				<path style="fill:#263238;" d="M836.77,463.12c5.71-3.83,12.04-6.69,18.68-8.49c1.73-0.47,3.48-0.86,5.25-1.18
					c0.6-0.11,0.53-1.06-0.08-0.95c-6.66,1.2-13.1,3.43-19.07,6.62c-1.83,0.98-3.6,2.05-5.32,3.2
					C835.72,462.67,836.26,463.46,836.77,463.12L836.77,463.12z"/>
			</g>
		</g>
	</g>
	<g>
		<g>
			<g>
				<path style="fill:#263238;" d="M838.53,456.73c-3.41-5.55-7.23-10.9-11.3-15.98c-0.38-0.48-1.18,0.06-0.79,0.54
					c4.07,5.08,7.9,10.43,11.3,15.98C838.06,457.8,838.85,457.25,838.53,456.73L838.53,456.73z"/>
			</g>
		</g>
	</g>
	<g>
		<g>
			<g>
				<path style="fill:#263238;" d="M830.68,481.13c-2.24-5.82-5.55-11.24-9.14-16.32c-0.91-1.29-1.86-2.56-2.84-3.81
					c-0.38-0.48-1.17,0.05-0.79,0.54c3.71,4.73,7.07,9.82,9.77,15.2c0.77,1.54,1.48,3.11,2.1,4.71
					C830,482.02,830.91,481.7,830.68,481.13L830.68,481.13z"/>
			</g>
		</g>
	</g>
	<g>
		<g>
			<g>
				<path style="fill:#263238;" d="M829.03,488.86c5.53-4.52,12.13-7.91,18.95-10.01c0.59-0.18,0.27-1.08-0.32-0.9
					c-6.89,2.12-13.58,5.56-19.17,10.12C828.02,488.45,828.55,489.25,829.03,488.86L829.03,488.86z"/>
			</g>
		</g>
	</g>
</g>
<g>
</g>
<g>
	<g>
		<rect x="611.46" y="300.77" style="fill:#BECCFF;" width="207.56" height="207.56"/>
	</g>
	<g>
		<g>
			<g>
				<path style="fill:#5C80FF;" d="M711.85,439.76c-12.08,0.8-22.91,10.88-22.32,23.44c0.55,11.61,10.5,21.65,23.58,20.78
					c12.68-0.84,21.26-11.72,20.66-24.48C733.15,446.18,722.93,439.02,711.85,439.76z"/>
			</g>
		</g>
		<g>
			<g>
				<path style="fill:#5C80FF;" d="M766.29,381.48c-1.38-29.51-21.91-49.53-52.71-47.49c-23.96,1.59-44.9,19.79-45.89,41.81
					l27.05,8.52c0.18-9.18,7.5-16.73,16.96-17.36c8.86-0.59,15.79,5.06,16.19,13.63c0.43,9.14-7.54,15.78-20.42,16.63
					c-4.03,0.27-8.89-0.17-14.4-1.34l1.77,37.89l31.92,0.36l-0.92-11.01C747.18,421.71,767.23,401.47,766.29,381.48z"/>
			</g>
		</g>
	</g>
</g>
<g>
</g>
<g>
	<g>
		<rect x="71.78" y="300.77" style="fill:#BECCFF;" width="207.56" height="207.56"/>
	</g>
	<g>
		<g>
			<g>
				<path style="fill:#5C80FF;" d="M172.18,439.76c-12.08,0.8-22.91,10.88-22.32,23.44c0.55,11.61,10.5,21.65,23.58,20.78
					c12.68-0.84,21.26-11.72,20.66-24.48C193.47,446.18,183.25,439.02,172.18,439.76z"/>
			</g>
		</g>
		<g>
			<g>
				<path style="fill:#5C80FF;" d="M226.61,381.48c-1.38-29.51-21.91-49.53-52.71-47.49c-23.96,1.59-44.9,19.79-45.89,41.81
					l27.05,8.52c0.18-9.18,7.5-16.73,16.96-17.36c8.86-0.59,15.79,5.06,16.19,13.63c0.43,9.14-7.54,15.78-20.42,16.63
					c-4.03,0.27-8.89-0.17-14.4-1.34l1.77,37.89l31.92,0.36l-0.92-11.01C207.5,421.71,227.55,401.47,226.61,381.48z"/>
			</g>
		</g>
	</g>
</g>
<g>
	<g>
		<g>
			<g>
				<path style="fill:#5C80FF;" d="M3.82,431.21c0.77-2.94,4.13-4.33,7.13-4.84c12.14-2.05,25.99,4.75,32.2,15.38
					c-10.74,4-22.88,2.92-33.21-2.04c-1.71-0.82-3.4-1.79-4.64-3.23C4.07,435.04,3.34,433.05,3.82,431.21z"/>
			</g>
		</g>
		<g>
			<g>
				<path style="fill:#5C80FF;" d="M51.18,434.33L51,434.2c-1.29-6.29,1.64-15.07,4.92-20.59c3.28-5.51,8.68-9.74,14.82-11.59
					c2.16-0.65,4.99-0.79,6.18,1.13c0.75,1.22,0.49,2.79,0.13,4.18C73.85,419.66,63.27,430.34,51.18,434.33z"/>
			</g>
		</g>
		<g>
			<g>
				<path style="fill:#5C80FF;" d="M21.41,462.78c1.55-1.33,3.57-2,5.59-2.31c5.55-0.84,11.24,0.97,16.01,3.93
					c4.77,2.96,10.29,9.35,14.15,13.42c-8.37-2.97-17.02-3.05-25.89-3.43c-2.48-0.11-5.03-0.12-7.36-0.97
					c-2.34-0.85-4.47-2.76-4.8-5.22C18.84,466.17,19.86,464.11,21.41,462.78z"/>
			</g>
		</g>
		<g>
			<g>
				<path style="fill:#5C80FF;" d="M74.19,437.33c1.9-1.26,4.35-1.87,6.51-1.12c2.6,0.91,4.26,3.69,4.37,6.45
					c0.11,2.76-1.12,5.43-2.85,7.58c-1.73,2.15-3.94,3.84-6.14,5.52c-5.07,3.88-10.15,7.76-15.22,11.64
					c0.89-8.24,4.14-18.15,8.74-25.05C70.87,440.44,72.29,438.59,74.19,437.33z"/>
			</g>
		</g>
		<g>
			<g>
				<path style="fill:#5C80FF;" d="M32.13,415.29c-6.08-7.61-8.77-13.59-11.63-21.76c-0.57-1.63-1.1-3.31-1.11-5.03
					c-0.01-1.73,0.57-3.53,1.89-4.64c1.6-1.35,4-1.41,5.94-0.62c1.94,0.79,3.5,2.29,4.88,3.86c8.25,9.34,11.69,22.95,9.6,35.24
					C39.36,421.71,33.35,416.81,32.13,415.29z"/>
			</g>
		</g>
	</g>
	<g>
		<g>
			<g>
				<path style="fill:#263238;" d="M65.59,508.57c-0.7-6.9-1.97-13.74-3.47-20.51c-1.76-7.96-3.87-15.84-6.2-23.66
					c-2.46-8.26-5.16-16.45-8.08-24.55c-2.79-7.74-5.78-15.41-9.04-22.97c-2.82-6.56-5.83-13.05-9.22-19.34
					c-0.37-0.68-0.74-1.35-1.11-2.02c-0.41-0.73,0.76-1.3,1.17-0.57c3.4,6.1,6.4,12.42,9.22,18.81c3.29,7.48,6.31,15.08,9.14,22.74
					c2.98,8.09,5.74,16.27,8.26,24.52c2.41,7.89,4.61,15.85,6.48,23.89c1.62,6.97,3.02,14.01,3.88,21.12
					c0.09,0.76,0.18,1.53,0.25,2.29C66.95,509.16,65.68,509.41,65.59,508.57L65.59,508.57z"/>
			</g>
		</g>
	</g>
	<g>
		<g>
			<g>
				<path style="fill:#263238;" d="M50.07,446.66c-7.76-5.2-16.35-9.09-25.37-11.52c-2.35-0.64-4.73-1.17-7.13-1.6
					c-0.81-0.15-0.72-1.44,0.11-1.3c9.04,1.63,17.79,4.66,25.89,9c2.48,1.33,4.89,2.78,7.23,4.35
					C51.49,446.05,50.76,447.13,50.07,446.66L50.07,446.66z"/>
			</g>
		</g>
	</g>
	<g>
		<g>
			<g>
				<path style="fill:#263238;" d="M47.68,437.99c4.62-7.54,9.82-14.8,15.35-21.7c0.52-0.65,1.6,0.08,1.07,0.73
					c-5.53,6.9-10.72,14.16-15.35,21.7C48.32,439.43,47.25,438.7,47.68,437.99L47.68,437.99z"/>
			</g>
		</g>
	</g>
	<g>
		<g>
			<g>
				<path style="fill:#263238;" d="M58.33,471.12c3.04-7.9,7.53-15.27,12.41-22.16c1.24-1.76,2.53-3.48,3.85-5.17
					c0.51-0.66,1.59,0.07,1.07,0.73c-5.04,6.43-9.61,13.33-13.26,20.64c-1.05,2.09-2.01,4.22-2.85,6.4
					C59.26,472.33,58.03,471.9,58.33,471.12L58.33,471.12z"/>
			</g>
		</g>
	</g>
	<g>
		<g>
			<g>
				<path style="fill:#263238;" d="M60.58,481.61c-7.52-6.13-16.48-10.74-25.74-13.59c-0.8-0.25-0.36-1.47,0.44-1.22
					c9.35,2.88,18.44,7.55,26.03,13.74C61.96,481.07,61.23,482.14,60.58,481.61L60.58,481.61z"/>
			</g>
		</g>
	</g>
</g>
<g>
	<g>
		<g>
			<g>
				<g>
					<g>
						<g>
							<g>
								<g>
									<g>
										<g>
											<path style="fill:#FBD0C4;" d="M370.94,340.39c0,0-31.29-116.48,40.32-138.52c89.92-27.68,96.7,109.84,96.7,109.84
												L370.94,340.39z"/>
										</g>
									</g>
								</g>
							</g>
						</g>
					</g>
				</g>
			</g>
			<g>
				<path style="fill:#263238;" d="M396.96,258.53c1.41-1.3,2.81-2.5,4.08-3.84c0.65-0.65,1.28-1.31,1.86-2.02
					c0.62-0.66,1.16-1.4,1.72-2.1c1.12-1.42,2.02-2.98,2.96-4.51c0.93-1.53,1.85-3.12,2.85-4.67l0.07-0.11
					c0.27-0.43,0.84-0.55,1.26-0.28c0.25,0.16,0.4,0.43,0.42,0.71c0.15,2.21-0.4,4.21-1.24,6.1c-0.85,1.88-2.06,3.57-3.35,5.14
					c-1.36,1.53-2.8,2.98-4.46,4.15c-1.62,1.21-3.4,2.19-5.23,2.96c-0.46,0.19-0.99-0.02-1.18-0.48c-0.15-0.36-0.05-0.76,0.22-1.01
					L396.96,258.53z"/>
			</g>
			<g>
				<path style="fill:#263238;" d="M483.28,234.37c-1.99,0.33-4.04,0.44-6.09,0.24c-2.06-0.14-4.08-0.69-6.05-1.37
					c-1.94-0.76-3.84-1.71-5.49-3.02c-1.64-1.33-3.05-2.91-3.86-5.01c-0.18-0.47,0.05-1,0.52-1.18c0.28-0.11,0.58-0.07,0.82,0.08
					l0.12,0.08l4.6,2.95c1.52,0.93,3.04,1.88,4.71,2.57c0.83,0.34,1.66,0.73,2.53,0.97l1.3,0.44l1.33,0.35
					c0.88,0.29,1.81,0.38,2.72,0.62c0.92,0.17,1.86,0.3,2.8,0.49l0.07,0.01c0.49,0.1,0.8,0.58,0.7,1.06
					C483.94,234.03,483.64,234.31,483.28,234.37z"/>
			</g>
			<g>
				<path style="fill:#263238;" d="M421.9,264.9c1.41,5.04,0.44,9.71-2.17,10.43c-2.6,0.73-5.85-2.77-7.26-7.8
					c-1.41-5.04-0.43-9.71,2.17-10.43C417.24,256.37,420.49,259.86,421.9,264.9z"/>
			</g>
			<g>
				<path style="fill:#263238;" d="M476.88,248.99c1.41,5.03,0.43,9.71-2.17,10.43c-2.6,0.73-5.85-2.77-7.26-7.8
					c-1.41-5.03-0.44-9.71,2.17-10.43C472.23,240.46,475.48,243.95,476.88,248.99z"/>
			</g>
			<g>
				<g>
					<g>
						<g>
							<g>
								<g>
									<g>
										<g>
											<g>
												<g>
													<path style="fill:#263238;" d="M487.28,143.35c0,0,40.85,87.34-99.81,98.29l2.58,30.29c0,0-13.97-9.1-14.89,4.8
														c-1.05,16,13.17,6.7,13.17,6.7s-6.66,37.75-18.34,53.27c-2.21-1.95-69.79-129.1-7.78-132.18
														c-0.11-3.68,3.21-29.03,37.09-40.67C450.53,146.25,458.82,187.95,487.28,143.35z"/>
												</g>
											</g>
										</g>
									</g>
								</g>
							</g>
						</g>
					</g>
				</g>
			</g>
		</g>
		<g>
			<g>
				<g>
					<g>
						<path style="fill:#263238;" d="M493.89,500.69l16.02-37.2c2-14.53,3.72-30.28,4.99-43.46c-49.63,3.43-93.46,6.23-129.16,4.42
							c1.32,12.94,2.1,24.96,2.11,37.67l-7.72,45.97c0,0,43.59,9.55,36.47-4.65c-9.97-19.89-28.57-3.41-28.57-3.41l14.09-35.31
							l4.72-26.55c59.21,2.33,88.77-2.75,88.77-2.75l0.03,27.61l-9.14,45.32c0,0,50.64,10.29,34.26-9.37
							C508.23,483.96,493.89,500.69,493.89,500.69z"/>
						<path style="fill:#5143D9;" d="M514.9,420.03c2.04-40.11,2.32-62.06-6.95-108.32L369.99,336.7
							c6.14,26.9,10.14,48.12,15.75,87.75C421.44,426.26,461.57,427.76,514.9,420.03z"/>
					</g>
				</g>
			</g>
		</g>
		<g>
			<path style="fill:#FBD0C4;" d="M369.99,336.7l5.03,15.45c-52.52,41.18,22.92,61.35,23.46,61.73c1.94,1.36,2.85,3.42,2.02,4.59
				c-0.54,0.76-1.67,0.96-2.94,0.63c0.74,1.08,0.94,2.21,0.4,2.98c-0.54,0.76-1.67,0.96-2.94,0.63c0.74,1.08,0.94,2.21,0.4,2.98
				c-0.54,0.76-1.67,0.96-2.94,0.63c0.74,1.08,0.94,2.21,0.4,2.98c-0.82,1.17-3.06,1.02-5-0.34l-0.01,0.02
				C292.41,388.82,369.99,336.7,369.99,336.7z"/>
			<g>
				<path style="fill:#5143D9;" d="M375.02,352.14l-5.03-15.45c0,0-6.84,4.59-13.96,12.11l10.89,10.51
					C369.19,357,371.87,354.61,375.02,352.14z"/>
			</g>
		</g>
		<g>
			<g>
				<g>
					<path style="fill:#FBD0C4;" d="M507.95,311.71l2.65,16.3c79.36-45.72,26.49-108.8-13.72-118.23
						c-10.66-2.5-22.25,0.61-21.24,5.58c0.66,3.26,9.9-4.22,17.82-1.52c-1.3,0.13-2.3,0.7-2.54,1.61c-0.24,0.9,0.34,1.9,1.4,2.66
						c-1.3,0.13-2.3,0.7-2.54,1.61s0.34,1.9,1.4,2.66c-1.3,0.13-2.3,0.7-2.54,1.61c-0.37,1.38-0.11,2.42,3.47,3.64
						C554.97,249.01,541.02,293.41,507.95,311.71z"/>
				</g>
			</g>
			<g>
				<path style="fill:#5143D9;" d="M507.95,311.71l2.65,16.3c4.84-2.79,9.19-5.65,13.08-8.55l-10.17-11.2
					C511.73,309.5,509.87,310.65,507.95,311.71z"/>
			</g>
		</g>
	</g>
	<path style="fill:#263238;" d="M442.46,297.71c0.31-0.61,0.6-1.09,0.95-1.61c0.34-0.5,0.7-0.98,1.08-1.45
		c0.76-0.93,1.6-1.81,2.5-2.61c1.8-1.61,3.86-2.94,6.08-3.92c1.1-0.51,2.25-0.9,3.42-1.21c1.16-0.32,2.36-0.53,3.55-0.67
		c2.39-0.26,4.79-0.17,7.11,0.27c0.44,0.08,0.73,0.51,0.64,0.95c-0.07,0.38-0.4,0.65-0.77,0.66H467c-2.25,0.06-4.45,0.25-6.59,0.66
		c-0.53,0.11-1.06,0.23-1.59,0.35c-0.52,0.14-1.05,0.28-1.56,0.45c-0.52,0.15-1.02,0.34-1.53,0.53c-0.5,0.21-1,0.4-1.49,0.63
		c-1.97,0.88-3.8,2.04-5.49,3.39c-0.84,0.68-1.65,1.4-2.41,2.18c-0.38,0.38-0.74,0.79-1.1,1.19c-0.18,0.2-0.35,0.41-0.52,0.62
		c-0.17,0.2-0.34,0.43-0.47,0.61l-0.05,0.06c-0.34,0.46-0.98,0.55-1.44,0.22C442.36,298.7,442.24,298.15,442.46,297.71z"/>
</g>
<g>
	<rect x="46.56" y="508.32" style="fill:#263238;" width="793.6" height="1.19"/>
</g>
</svg>
