<?xml version="1.0" encoding="utf-8"?>
<!-- Generator: Adobe Illustrator 23.0.0, SVG Export Plug-In . SVG Version: 6.00 Build 0)  -->
<svg version="1.1" id="Layer_1" xmlns="http://www.w3.org/2000/svg" xmlns:xlink="http://www.w3.org/1999/xlink" x="0px" y="0px"
	 width="582.4px" height="528px" viewBox="0 0 582.4 528" style="enable-background:new 0 0 582.4 528;" xml:space="preserve">
<style type="text/css">
	.st0{fill:#271651;}
	.st1{fill:#F7A491;}
	.st2{fill:#312066;}
	.st3{fill:#F79C8D;}
	.st4{fill:#EFC1BD;}
	.st5{fill:#A4E5FF;}
	.st6{fill:#EDB2AE;}
	.st7{fill:#E9FAFF;}
	.st8{fill:#F47458;}
	.st9{fill:#5858C6;}
	.st10{fill:#7473E8;}
	.st11{fill:#FCCAA7;}
	.st12{fill:#FF862D;}
	.st13{fill:#E27023;}
	.st14{fill:#416D50;}
	.st15{fill:#EFC7C5;}
</style>
<path class="st0" d="M658.9,510.6H-14.9c-1.5,0-2.7,1.2-2.7,2.7c0,1.5,1.2,2.7,2.7,2.7h673.8c1.5,0,2.7-1.2,2.7-2.7
	C661.5,511.8,660.4,510.6,658.9,510.6z"/>
<g>
	<g>
		<path class="st1" d="M56.4,476.6c0,0-1.3,12.9-4.6,15.3c-3.3,2.4-7.7,11.1-5.5,15.9c0.7,1.5,2.1,2.3,3.6,2.8
			c4.7,1.4,9.6-1,11.6-5.3c1.1-2.4,2.1-5.7,2.3-9.8c0.5-10.5,3.8-15.8,3.8-15.8L56.4,476.6z"/>
		<path class="st1" d="M107.3,481.8c0,0,1,13,0.2,17.2c-0.5,2.3-3,6.9-1.8,9.1c1.2,2.1,2.5,2.7,2.5,2.7l30,0.5c1.6,0,0.6-1-0.8-2
			c-2.2-1.6-3.9-2.6-10.8-5.9c-0.4-0.2-2.1-1.2-2.7-1.6c-1.5-0.9-3-2.3-4.3-3.7c-2.2-2.4-2.3-13.8-2.3-13.8L107.3,481.8z"/>
		<path class="st0" d="M130.8,308.9c0,0,3.8,21.1,1.3,35c-2.5,13.8-14.4,142.2-14.4,142.2l-13.3,0.7c0,0-2.8-53.6-2.3-61.1
			c0.5-7.5,4.4-19.9,4.4-19.9l-1.3-43.3l16.7-56.9L130.8,308.9z"/>
		<path class="st2" d="M99.1,297.3c0,0-16.6,20.6-19.1,33.4c-2.5,12.8,0.7,54.1-4.1,70.8c-2.6,9.1-12.4,23.1-13.9,34.8
			c-1.5,11.7-7.3,42.4-7.3,42.4l13.2,2.6l29.9-69.8l17-64.6l14.2-47.2L99.1,297.3z"/>
		<path class="st0" d="M62.4,502.8c-7.2,1.3-12-2.9-14.5-6c-1.8,3.5-3,7.9-1.6,10.8c1.2,2.5,4.4,3.2,7.2,3.3c2.9,0.1,5.6-1.4,7-3.9
			C61.2,506,61.9,504.6,62.4,502.8z"/>
		<path class="st0" d="M124,501.8c-7.9,2-13.8,0.6-17.1-0.7c-0.8,2.4-2,5.3-1.4,7c0.7,2.1,1.8,2.7,2.7,2.8
			c7.3,0.2,26.6,0.3,32.1,0.3c0.8,0,1.2-0.9,0.7-1.5C139.6,508.2,124.6,502.2,124,501.8z"/>
	</g>
	<path class="st0" d="M133.6,179.4c-2.3-15.3-16.2-26.3-30.7-18.9c-3.3,1.7-7.7,5.1-9.9,7.9c-6.2,7.9-7.7,17.8-14.2,25.4
		c-5.7,6.6-20.7,5.3-27.8,10.4c-7,5.1-12,14.1-12,25c0,12.1,2.7,25,12.1,32.7c9.4,7.7,22.8,9.6,34.5,6.3c11.7-3.3,21.7-11.2,29-21
		c7.2-9.8,12.3-20.5,15.9-32.1C134.5,202.4,135.1,189.3,133.6,179.4z"/>
	<path class="st3" d="M80.6,200.2c0,0-17.8-31.7-22.1-38.5c-4.3-6.7-15.6-33.5-16-34.6c-0.4-1.1,7.8-13.7,5.9-14.2
		c-1.8-0.4-3.8,6.7-5.8,5.8c-1.9-0.9-7.6-18-8.7-17.1c-2.1,1.6,3.1,10.6,2,11.2c-1.1,0.6-4.5-9.9-6.6-9.6c-2.2,0.3,4.1,9.6,3.5,10.5
		c-0.6,0.8-7.1-8-8.3-6.1c-0.6,1,6,7.7,4.7,8.3c-1.3,0.6-7.2-3.7-7.8-2.4c-0.6,1.2,5.5,2.9,7.3,6.3c1.8,3.3,4.9,4.8,6.2,11
		c1.3,6.2,3.2,28.6,9.8,39.7c6.6,11.2,21.1,35.9,21.1,35.9L80.6,200.2z"/>
	<g>
		<path class="st4" d="M130.6,237.9l-14.2,8.2c0,0,27,35.6,28.6,37.2l11.4-10.1L130.6,237.9z"/>
		<path class="st5" d="M118.8,216.6c0,0,11.1,2.1,24.8,36.2L124.7,263l-13.5-21L118.8,216.6z"/>
		<path class="st6" d="M154.3,218.8c0,0-2.5-0.7-6.6,2.8c-5.1,4.4-5.4,38.1-4,49.8c1.3,11.8,1.3,11.8,1.3,11.8s10.4-3.6,12.8-16.3
			c2.4-12.6,3.4-45.5,3.4-45.5L154.3,218.8z"/>
	</g>
	<path class="st7" d="M101.1,213.1c0,0-13.9-0.9-19.4,5.1c-5.5,6,12.2,53.4,13.2,61c1,7.6-11.6,35.9-11.6,35.9s41.7,4.9,51-1.3
		c0,0-2-12.8-2.1-24.3c-0.3-20.4,1.1-45.3,0.5-48.8c-1-5.4-10.2-21.1-12.2-23.3C118.5,215.3,101.1,213.1,101.1,213.1z"/>
	<path class="st1" d="M105.7,194.5c0,0-0.1,0.4-0.2,1.1c-0.6,3.3-3,14.4-4.6,17.5c-2,3.7,6.7,15.4,15,14c2.5-0.4-2.1-10.8-1.9-11.9
		c0.4-2.1,1-5,1.6-7.9c0.3-1.7,0.7-3.3,1-4.9c0.9-4.5,1.6-8.2,1.6-8.2L105.7,194.5z"/>
	<path class="st8" d="M105.5,195.6c0.1-0.7,0.2-1.1,0.2-1.1l12.5-0.3c0,0-0.7,3.7-1.6,8.2c-0.3,1.6-0.6,3.2-1,4.9
		c-1.9-0.3-3.9-1.2-5.9-3c-2.2-1.9-3.6-4.2-4.5-6.7C105.3,196.8,105.4,196.1,105.5,195.6z"/>
	<path class="st1" d="M114.1,166.3c0,0-5.9-0.7-9.6,4.1c-3.7,4.7-7.6,19.4,1.5,27.4c9.1,8,18.2-1.1,19.5-10.6
		C126.9,177.5,127.4,165.9,114.1,166.3z"/>
	<path class="st1" d="M128.3,187c-1.1,2.1-2.9,3.3-4.1,2.6c-1.2-0.7-1.2-2.9-0.1-5c1.1-2.1,2.9-3.3,4.1-2.6
		C129.3,182.6,129.4,184.9,128.3,187z"/>
	<path class="st0" d="M114.8,164.7c0,0-7.8,14-13.5,14.6c-5.6,0.6-6.3,8.1-6.3,8.1s2-17.1,7.6-20.4
		C108.1,163.7,114.8,164.7,114.8,164.7z"/>
	<path class="st1" d="M102.8,182.8c0.5,2.5-0.5,4.8-2,5.1c-1.6,0.3-3.2-1.4-3.7-3.9c-0.5-2.5,0.5-4.8,2-5.1
		C100.7,178.6,102.3,180.3,102.8,182.8z"/>
	<path class="st7" d="M75.7,189.9c0,0,19.7,21.1,22.6,29.6c2.9,8.5-2.8,20.7-10.8,21.2c-8,0.5-25.7-37.4-25.7-37.4L75.7,189.9z"/>
	<g>
		<path class="st9" d="M172.6,221.7H159c-7.6,0-13.8,6.2-13.8,13.8v195.4h41.2V235.5C186.4,227.8,180.2,221.7,172.6,221.7z"/>
		<rect x="157.8" y="221.7" class="st10" width="16" height="209.2"/>
		<polygon class="st9" points="160.5,503.5 165.5,510.6 170.1,503.5 175.8,478.2 155.2,478.1 		"/>
		<polygon class="st11" points="155.2,478.1 175.8,478.2 186.4,430.8 145.2,430.8 		"/>
		<path class="st12" d="M178.4,221.7h-25.1c-4.4,0-8,3.6-8,8v28.6h41.2v-28.6C186.4,225.3,182.8,221.7,178.4,221.7z"/>
		<path class="st10" d="M143.1,267h45.4c0.2,0,0.4-0.2,0.4-0.4v-7.9c0-0.2-0.2-0.4-0.4-0.4h-45.4c-0.2,0-0.4,0.2-0.4,0.4v7.9
			C142.7,266.8,142.9,267,143.1,267z"/>
	</g>
</g>
<path class="st7" d="M571,206.8c0.1,0.7,0.6,1.3,1.3,1.5c3.4,1,8,5.4,10,7.9l-5.7,15.8c-3.2,0.6-9.5,1.1-12.7-0.4
	c-0.7-0.3-1.4-0.2-2,0.3l-10.1,8.5c-0.6,0.5-0.8,1.2-0.6,1.9c0.8,3.4-0.7,9.6-1.8,12.6l-16.6,3c-2.1-2.4-5.7-7.7-6.1-11.2
	c-0.1-0.7-0.6-1.3-1.2-1.6l-12.4-4.5c-0.7-0.2-1.4-0.1-2,0.4c-2.5,2.5-8.6,4.2-11.8,4.7L488.5,233c1.1-3.1,3.8-8.8,6.7-10.9
	c0.6-0.4,0.9-1.1,0.7-1.9l-2.3-13c-0.1-0.7-0.6-1.3-1.3-1.5c-3.4-1-8-5.4-10-7.9l5.7-15.8c3.2-0.6,9.5-1.1,12.7,0.4
	c0.7,0.3,1.4,0.2,2-0.3l10.1-8.5c0.6-0.5,0.8-1.2,0.6-1.9c-0.8-3.4,0.7-9.6,1.8-12.6l16.6-3c2.1,2.4,5.7,7.7,6.1,11.2
	c0.1,0.7,0.6,1.3,1.2,1.6l12.4,4.5c0.7,0.2,1.4,0.1,2-0.4c2.5-2.5,8.6-4.2,11.8-4.7l10.8,12.9c-1.1,3.1-3.8,8.8-6.7,10.9
	c-0.6,0.4-0.9,1.1-0.7,1.9L571,206.8z M545,196.4c-5.9-7-16.3-7.9-23.3-2c-7,5.9-7.9,16.3-2,23.3c5.9,7,16.3,7.9,23.3,2
	C550,213.8,550.9,203.3,545,196.4z M553.1,189.5c-9.7-11.5-26.8-12.9-38.3-3.3c-11.5,9.7-12.9,26.8-3.3,38.3
	c9.7,11.5,26.8,12.9,38.3,3.3C561.3,218.1,562.8,201,553.1,189.5z"/>
<path class="st9" d="M498.5,47.2c0.5,0.5,1.3,0.6,2,0.3c3.3-1.3,9.8-0.7,13,0l5.4,16.3c-2.2,2.5-6.9,6.8-10.4,7.7
	c-0.7,0.2-1.3,0.8-1.4,1.5l-2.7,13.2c-0.1,0.7,0.1,1.5,0.7,1.9c2.8,2.2,5.5,8.1,6.5,11.2l-11.4,12.8c-3.2-0.6-9.4-2.6-11.9-5.2
	c-0.5-0.5-1.3-0.7-2-0.5l-12.8,4.2c-0.7,0.2-1.2,0.8-1.3,1.6c-0.5,3.6-4.3,8.8-6.5,11.2l-16.8-3.5c-1.1-3.1-2.4-9.4-1.5-12.9
	c0.2-0.7,0-1.5-0.6-2l-10-9c-0.5-0.5-1.3-0.6-2-0.3c-3.3,1.3-9.8,0.7-13,0l-5.4-16.3c2.2-2.5,6.9-6.8,10.4-7.7
	c0.7-0.2,1.3-0.8,1.4-1.5l2.7-13.2c0.1-0.7-0.1-1.5-0.7-1.9c-2.8-2.2-5.5-8.1-6.5-11.2l11.4-12.8c3.2,0.6,9.4,2.6,11.9,5.2
	c0.5,0.5,1.3,0.7,2,0.5l12.8-4.2c0.7-0.2,1.2-0.8,1.3-1.6c0.5-3.6,4.3-8.8,6.5-11.2l16.8,3.5c1.1,3.1,2.4,9.4,1.5,12.9
	c-0.2,0.7,0,1.5,0.6,2L498.5,47.2z M471.1,55.2c-9.1-1.9-18,4-19.9,13.1c-1.9,9.1,4,18,13.1,19.9c9.1,1.9,18-4,19.9-13.1
	C486.1,66,480.2,57.1,471.1,55.2z M473.3,44.6c-15-3.1-29.6,6.5-32.7,21.5c-3.1,15,6.5,29.6,21.5,32.7c15,3.1,29.6-6.5,32.7-21.5
	C497.9,62.4,488.2,47.7,473.3,44.6z"/>
<g>
	<polygon class="st12" points="213.1,92 210.4,85.8 203.6,85.7 201,78.5 193.6,80.6 190.4,72.7 183.4,73.8 179,66.6 181.7,65 
		185,70.3 192.4,69.2 195.5,76.8 203,74.7 205.8,82.5 212.5,82.7 215,88.4 219.5,87.6 220,90.7 	"/>
	<polygon class="st7" points="532.6,373 529.9,366.8 523,366.6 520.5,359.5 513.1,361.6 509.9,353.7 502.9,354.8 498.5,347.6 
		501.2,346 504.5,351.3 511.9,350.2 515,357.8 522.5,355.7 525.3,363.5 532,363.7 534.5,369.4 538.9,368.6 539.5,371.7 	"/>
	<path class="st12" d="M177.3,164.2l-2.8-2.4l-3.6,0.9c-0.4,0.1-0.8-0.3-0.6-0.7l1.4-3.4l-2-3.1c-0.2-0.4,0.1-0.8,0.5-0.8l3.6,0.3
		l2.3-2.8c0.3-0.3,0.8-0.2,0.9,0.2l0.8,3.6l3.4,1.4c0.4,0.2,0.4,0.7,0.1,0.9l-3.1,1.9l-0.2,3.7C178.1,164.2,177.6,164.4,177.3,164.2
		z"/>
	<path class="st12" d="M386.1,67.4l-4.9-4.3l-6.3,1.6c-0.7,0.2-1.3-0.5-1-1.2l2.6-6l-3.5-5.5c-0.4-0.6,0.1-1.4,0.8-1.4l6.5,0.6
		l4.2-5c0.5-0.6,1.4-0.4,1.6,0.4l1.4,6.4l6.1,2.4c0.7,0.3,0.8,1.2,0.1,1.6l-5.6,3.3l-0.4,6.5C387.5,67.5,386.6,67.9,386.1,67.4z"/>
	<path class="st10" d="M314,78.3l-4.9-4.3l-6.3,1.6c-0.7,0.2-1.3-0.5-1-1.2l2.6-6l-3.5-5.5c-0.4-0.6,0.1-1.4,0.8-1.4l6.5,0.6l4.2-5
		c0.5-0.6,1.4-0.3,1.6,0.4l1.4,6.4l6.1,2.4c0.7,0.3,0.8,1.2,0.1,1.6l-5.6,3.3l-0.4,6.5C315.5,78.4,314.6,78.8,314,78.3z"/>
	<path class="st7" d="M191.6,204.9l-4.9-4.3l-6.3,1.6c-0.7,0.2-1.3-0.5-1-1.2l2.6-6l-3.5-5.5c-0.4-0.6,0.1-1.4,0.8-1.4l6.5,0.6
		l4.2-5c0.5-0.6,1.4-0.3,1.6,0.4l1.4,6.4l6.1,2.4c0.7,0.3,0.8,1.2,0.1,1.6l-5.6,3.3l-0.4,6.5C193,205,192.1,205.4,191.6,204.9z"/>
	<polygon class="st10" points="159,111.9 147.1,112.2 146.1,121 134.4,121.7 132.2,130 123.5,131.7 124.3,135.1 136,132.9 
		138.1,125 150.3,124.3 151.2,115.6 162,115.4 	"/>
</g>
<path class="st12" d="M532.3,126.9v359.2c0,14.4-11.7,26.1-26.1,26.1H233.9c-14.4,0-26.1-11.7-26.1-26.1V126.9
	c0-14.4,11.7-26.1,26.1-26.1h272.3C520.6,100.8,532.3,112.5,532.3,126.9z"/>
<path class="st7" d="M510.3,155.1v312c0,14.6-11.8,26.4-26.4,26.4H256.3c-14.6,0-26.4-11.8-26.4-26.4v-312
	c0-14.6,11.8-26.4,26.4-26.4h227.6C498.5,128.7,510.3,140.6,510.3,155.1z"/>
<g>
	<g>
		<g>
			
				<rect x="263.3" y="203.8" transform="matrix(-1 -1.224647e-16 1.224647e-16 -1 554.4619 443.6712)" class="st5" width="27.8" height="36.1"/>
			
				<rect x="262.5" y="210.8" transform="matrix(-1.836970e-16 1 -1 -1.836970e-16 499.0668 -55.3951)" class="st7" width="29.5" height="22"/>
		</g>
		<path class="st12" d="M254.9,190c0.9-0.6,2-0.2,2.5,0.8l20.1,40.8l5.9-16.5c0.4-1.1,1.4-1.6,2.4-1.1c0.9,0.4,1.4,1.6,1,2.7
			l-8.8,24.6l-23.9-48.4C253.7,191.8,254,190.6,254.9,190z"/>
	</g>
	<g>
		<g>
			
				<rect x="263.3" y="263.1" transform="matrix(-1 -1.224647e-16 1.224647e-16 -1 554.4619 562.2848)" class="st5" width="27.8" height="36.1"/>
			
				<rect x="262.5" y="270.1" transform="matrix(-1.836970e-16 1 -1 -1.836970e-16 558.3734 3.9114)" class="st7" width="29.5" height="22"/>
		</g>
		<path class="st12" d="M254.9,245.9c0.9-0.6,2-0.2,2.5,0.8l20.1,40.8l5.9-16.5c0.4-1.1,1.4-1.6,2.4-1.1c0.9,0.4,1.4,1.6,1,2.7
			l-8.8,24.6l-23.9-48.4C253.7,247.7,254,246.4,254.9,245.9z"/>
	</g>
	<g>
		<g>
			
				<rect x="263.3" y="320" transform="matrix(-1 -1.224647e-16 1.224647e-16 -1 554.4619 676.1433)" class="st5" width="27.8" height="36.1"/>
			
				<rect x="262.5" y="327.1" transform="matrix(-1.836970e-16 1 -1 -1.836970e-16 615.3026 60.8407)" class="st7" width="29.5" height="22"/>
		</g>
		<path class="st12" d="M254.9,302.8c0.9-0.6,2-0.2,2.5,0.8l20.1,40.8l5.9-16.5c0.4-1.1,1.4-1.6,2.4-1.1c0.9,0.4,1.4,1.6,1,2.7
			L278,354l-23.9-48.4C253.7,304.6,254,303.4,254.9,302.8z"/>
	</g>
	<g>
		<g>
			
				<rect x="263.3" y="377" transform="matrix(-1 -1.224647e-16 1.224647e-16 -1 554.4619 790.001)" class="st5" width="27.8" height="36.1"/>
			
				<rect x="262.5" y="384" transform="matrix(-1.836970e-16 1 -1 -1.836970e-16 672.2317 117.7698)" class="st7" width="29.5" height="22"/>
		</g>
		<path class="st12" d="M254.9,359.7c0.9-0.6,2-0.2,2.5,0.8l20.1,40.8l5.9-16.5c0.4-1.1,1.4-1.6,2.4-1.1c0.9,0.4,1.4,1.6,1,2.7
			L278,411l-23.9-48.4C253.7,361.6,254,360.3,254.9,359.7z"/>
	</g>
</g>
<g>
	<path class="st5" d="M470.7,214.5H306.5c-1,0-1.8-0.8-1.8-1.8l0,0c0-1,0.8-1.8,1.8-1.8h164.2c1,0,1.8,0.8,1.8,1.8l0,0
		C472.5,213.7,471.7,214.5,470.7,214.5z"/>
	<path class="st5" d="M470.7,224.8H306.5c-1,0-1.8-0.8-1.8-1.8l0,0c0-1,0.8-1.8,1.8-1.8h164.2c1,0,1.8,0.8,1.8,1.8l0,0
		C472.5,224,471.7,224.8,470.7,224.8z"/>
	<path class="st5" d="M387.6,231.6h-81c-0.9,0-1.8,0.7-1.8,1.6c-0.1,1.1,0.7,2,1.8,2h81.1c1,0,1.8-0.8,1.8-1.8l0,0
		C389.3,232.3,388.5,231.6,387.6,231.6z"/>
</g>
<g>
	<path class="st5" d="M471.4,275.1H307.2c-1,0-1.8-0.8-1.8-1.8l0,0c0-1,0.8-1.8,1.8-1.8h164.2c1,0,1.8,0.8,1.8,1.8l0,0
		C473.2,274.3,472.4,275.1,471.4,275.1z"/>
	<path class="st5" d="M471.4,285.5H307.2c-1,0-1.8-0.8-1.8-1.8l0,0c0-1,0.8-1.8,1.8-1.8h164.2c1,0,1.8,0.8,1.8,1.8l0,0
		C473.2,284.7,472.4,285.5,471.4,285.5z"/>
	<path class="st5" d="M388.3,292.2h-81c-0.9,0-1.8,0.7-1.8,1.6c-0.1,1.1,0.7,2,1.8,2h81.1c1,0,1.8-0.8,1.8-1.8l0,0
		C390.1,293,389.3,292.2,388.3,292.2z"/>
</g>
<g>
	<path class="st5" d="M470.7,329.5H306.5c-1,0-1.8-0.8-1.8-1.8l0,0c0-1,0.8-1.8,1.8-1.8h164.2c1,0,1.8,0.8,1.8,1.8l0,0
		C472.5,328.7,471.7,329.5,470.7,329.5z"/>
	<path class="st5" d="M470.7,339.9H306.5c-1,0-1.8-0.8-1.8-1.8l0,0c0-1,0.8-1.8,1.8-1.8h164.2c1,0,1.8,0.8,1.8,1.8l0,0
		C472.5,339.1,471.7,339.9,470.7,339.9z"/>
	<path class="st5" d="M387.6,346.6h-81c-0.9,0-1.8,0.7-1.8,1.6c-0.1,1.1,0.7,2,1.8,2h81.1c1,0,1.8-0.8,1.8-1.8l0,0
		C389.3,347.4,388.5,346.6,387.6,346.6z"/>
</g>
<g>
	<path class="st5" d="M471.4,387.2H307.2c-1,0-1.8-0.8-1.8-1.8l0,0c0-1,0.8-1.8,1.8-1.8h164.2c1,0,1.8,0.8,1.8,1.8l0,0
		C473.2,386.4,472.4,387.2,471.4,387.2z"/>
	<path class="st5" d="M471.4,397.6H307.2c-1,0-1.8-0.8-1.8-1.8l0,0c0-1,0.8-1.8,1.8-1.8h164.2c1,0,1.8,0.8,1.8,1.8l0,0
		C473.2,396.8,472.4,397.6,471.4,397.6z"/>
	<path class="st5" d="M388.3,404.3h-81c-0.9,0-1.8,0.7-1.8,1.6c-0.1,1.1,0.7,2,1.8,2h81.1c1,0,1.8-0.8,1.8-1.8l0,0
		C390.1,405.1,389.3,404.3,388.3,404.3z"/>
</g>
<polygon class="st13" points="309.7,128.7 414.4,128.7 413.3,100.8 310.7,100.8 "/>
<polygon class="st10" points="425.1,128.7 320.4,128.7 322,97.8 423.5,97.8 "/>
<g>
	<g>
		<path class="st14" d="M519.7,295.5l5.7-3c0,0,4.5-9.1,3.7-11.1c-0.7-2-4-5.4-3.1-6.5c0.9-1.1,3-2.7,5.8-0.9c2,1.3,4.5,8.4,5.4,8.5
			c0.6,0.1,3.9-1.6,6.3-2.8c1.6-0.8,3.5-0.7,4.9,0.3l0,0c1,0.7,1.3,2,0.9,3.1l-0.7,1.7l1.7,0.8c1.3,0.6,1.8,2.1,1.2,3.4l-0.6,1.3
			l1.1,0.4c1.4,0.6,2,2.2,1.3,3.5l-0.6,1.1l0.3,0.2c1.1,0.7,1.4,2.2,0.8,3.3l-0.6,1.1l-15.1,8c-1.4,0.8-3,1.2-4.6,1.3l-5.8,1.9
			c-0.6,0.2-1.3-0.1-1.6-0.6l-6.8-13.3C518.8,296.6,519.1,295.8,519.7,295.5z"/>
	</g>
</g>
<path class="st15" d="M152.6,219.4l1.9-0.5c0,0,6.6,1,7.1,2.7c1.1,3-6,10.3-7.7,10.3c-1.7,0,2.4-6.7,2.4-6.7s-3.6,6.3-5,5.4
	c-1.5-0.9,1.6-5.9,1.6-5.9s-3.3,4.9-3.9,4.2c-0.6-0.6,1.5-7.2,1.5-7.2L152.6,219.4z"/>
</svg>
