<?xml version="1.0" encoding="utf-8"?>
<!-- Generator: Adobe Illustrator 23.0.0, SVG Export Plug-In . SVG Version: 6.00 Build 0)  -->
<svg version="1.1" id="Layer_1" xmlns="http://www.w3.org/2000/svg" xmlns:xlink="http://www.w3.org/1999/xlink" x="0px" y="0px"
	 width="300px" height="300px" viewBox="0 0 300 300" style="enable-background:new 0 0 300 300;" xml:space="preserve">
<style type="text/css">
	.st0{fill:#FECF64;}
	.st1{fill:#FEFEFE;}
	.st2{fill:#9ACF69;}
	.st3{fill:#6EC07D;}
	.st4{fill:#FEDF7D;}
	.st5{fill:#6EC07C;}
	.st6{fill:#8ACA70;}
	.st7{fill:#91CC6D;}
</style>
<g>
	<path class="st0" d="M250.3,289.4c14.7,0,29.4,0.1,44.1,0c2.7,0,4.7,0.7,6.2,3c0,1,0,2,0,2.9c-0.6,2.7-2.6,3.7-5.2,3.8
		c-1.4,0.1-2.7,0.1-4.1,0.1c-93.8,0-187.6,0-281.4,0c-1.4,0-2.7,0-4.1-0.1c-2.6-0.1-4.5-1.1-5.2-3.8c0-1,0-2,0-2.9
		c1.4-2.3,3.5-3,6.2-3c23,0.1,45.9,0,68.9,0c1.2,0,2.3-0.1,3.5-0.1c1-0.8,2.2-0.8,3.3-0.8c5.9,0,11.9-0.1,17.8,0.1
		c14-0.2,27.9-0.1,41.9-0.1c1.2,0,2.3,0.1,3.3,0.9c23.4,0,46.8,0,70.2,0c1.5-1.2,3.4-0.8,5.1-0.8c2.8,0,5.6-0.1,8.5,0
		c5.9-0.2,11.9-0.1,17.8-0.1C248.2,288.5,249.3,288.6,250.3,289.4z"/>
	<path class="st1" d="M0.6,295.3c1.4,2.3,3.5,3,6.2,3c95.9-0.1,191.8-0.1,287.6,0c2.7,0,4.7-0.7,6.2-3c0,1.8,0.7,4.2-0.2,5.1
		c-0.9,0.9-3.3,0.2-5.1,0.2c-97,0-194,0-290.9,0c-3.8,0-3.8,0-3.8-3.8C0.6,296.3,0.6,295.8,0.6,295.3z"/>
	<path class="st2" d="M145.5,289.4c-15.1,0-30.2,0-45.3,0c-1.2-1.5-0.8-3.4-0.8-5.1c0-39.9,0-79.8,0-119.7c0-11.5,0-23,0-34.5
		c0-1.2,0-2.3,0.1-3.5c0.2-1.4,0.9-2.1,2.4-1.6c0.5,0.2,0.9,0.3,1.4,0.4c1.5,0.3,2.7-0.2,3.5-1.5c0.7-1.2,0.7-2.4,0-3.6
		c-0.8-1.2-2-1.5-3.3-1.4c-4.1,0.4-4.5,0.2-4.1-4.1c1.1-13.1,7-23.2,18.9-29.3c1.3-0.7,2.7-1.2,4.2-1.1
		c12.6,3.6,22.5,16.1,22.9,29.2c0.2,7.9,0.2,15.8,0,23.7c0,2.5,0.6,3.7,3.2,3.3c1.8-0.3,3.7-0.3,5.5-0.4c3.4-0.4,6.8-0.3,10.2-0.3
		c7.6-0.1,11.8-4.3,11.8-11.8c0-8-0.1-16,0.1-23.9c0.2-7.3,3.3-13.1,9.3-17.3c1.3-0.9,2.7-1.5,4.3-1.6c8.9,3.6,13.2,10.4,13.4,19.8
		c0.1,9.8,0.3,19.7-0.3,29.6c-1.3,21.7-20,42.5-41.5,46c-4.2,0.7-8.5,1.3-12.8,1c-2.4-0.1-3.2,0.5-3.2,3c0.1,10.7,0.1,21.5,0.1,32.2
		C145.4,241,145.5,265.2,145.5,289.4z"/>
	<path class="st3" d="M122.4,84.4c-4.5,2.2-8.9,4.4-12.4,8c-6.8,6.9-10.5,16.8-9.7,26.8c2.4-1.7,5-2.4,7.1-0.1
		c1.4,1.6,1.6,3.8,0.1,5.6c-1.8,2.3-3.3,2.4-7.4,0.4c0,54.9,0,109.6,0,164.3c-7,0-14,0-21,0c0-14.4,0-28.8-0.1-43.2
		c-0.9-1.1-0.9-2.5-0.9-3.9c0-11.1,0-22.2,0-33.3c0-1.4,0-2.8,0.9-3.9c0-29.6,0-59.3,0.1-88.9c0-15.7,10.3-28.8,25.6-32.5
		C110.7,82.1,116.6,82.1,122.4,84.4z"/>
	<path class="st4" d="M266,5.3c15.9,5.6,25.8,16.7,29.2,32.9c4.5,21.9-6.9,42.2-27.6,50.4c-0.7,0.3-1.4,0.6-2.2,0.9
		c-16.9-6.8-26.9-19.3-29.2-37.4c-1.6-13,2.4-24.7,11-34.6c4.2-4.8,9.3-8.6,15.1-11.3C263.5,5.7,264.7,5.3,266,5.3z"/>
	<path class="st2" d="M79.1,205c0,13.7,0,27.4,0,41.1c-0.2,0-0.4-0.1-0.6-0.1c-1.2-0.4-2.4-0.1-3.5-0.2c-7.9,0.1-14.9-3-21.3-7.1
		c-15.5-10-23.6-24.4-24.5-42.8c0-7.7,0-15.4,0-23.1c0-0.8,0-1.6,0-2.3c0.1-0.8,0-1.7,0.8-2.1c0.9-0.4,1.3,0.6,1.8,1
		c1.2,1.1,2.5,1.5,4,1c1.2-0.5,1.8-1.5,1.9-2.7c0.1-1.3-0.2-2.6-1.5-3.3c-1.4-0.8-2.8-0.5-4.1,0.5c-0.7,0.5-1.2,1.9-2.3,1.3
		c-0.9-0.5-0.7-1.7-0.7-2.7c0-5.3,0-10.5,0-15.8c0.6-8,4.3-14.1,11.4-18c8.2,3.9,12.3,10.5,12.3,19.5c0,14.5,0,29.1,0,43.6
		c0,8,4.2,12.3,12.3,12.3C69.7,205.1,74.4,205,79.1,205z"/>
	<path class="st2" d="M250.3,289.4c-7.1,0-14.2,0-21.3,0c-1-1.1-0.9-2.5-0.9-3.9c0-24.5,0-48.9,0-73.4c0-6,2.5-10.7,7.2-14.3
		c1.1-0.9,2.3-1.5,3.7-1.6c7,2.7,11.1,8.5,11.1,15.9c0.1,10.8,0.1,21.6,0,32.4c0,2.1,0.4,3.1,2.7,2.8c2.6-0.3,5.3,0.4,7.8-0.5
		c2.1-0.4,4.2-0.4,6.4-0.5c3.3-0.2,4.9-1.9,5-5.2c0.2-4.8-0.5-9.7,0.8-14.5c0.9-3.3,2.4-6.1,6-7.2c3.8,1.6,6.2,4.5,6.5,8.6
		c0.5,6.7,0.8,13.4-0.7,20.1c-2.8,12-13.5,20.4-25.9,20.7c-1.8,0-3.5,0.2-5.3,0c-2.5-0.3-3.6,0.4-3.5,3.3
		C250.5,277.9,250.3,283.6,250.3,289.4z"/>
	<path class="st0" d="M266,5.3c-9.1,3.8-16.7,9.4-22.2,17.8c-10.8,16.3-9.2,38.5,3.7,53.1c4.6,5.2,9.8,9.4,16.3,11.8
		c0.7,0.3,1.5,0.5,1.6,1.5c-25.2,8.2-52.9-8.3-57.3-34.2c-4.1-24,10.7-46.2,34.6-51.5C250.5,2.1,258.4,2.3,266,5.3z"/>
	<path class="st3" d="M40.4,129.6c0,1.2-1.1,1.5-1.9,2c-5.4,3.7-8.1,9-8.7,15.4c-0.6,4.6-0.2,9.3-0.3,14c-0.1,10.7,0,21.4,0,32.1
		c0,1.1-0.3,2.1,0.3,3.2c0.6,11.8,4.6,22.2,12.2,31.4c8.2,9.7,18.7,15.2,30.9,17.8c0.7,0.1,1.4,0.1,2,0.1c0.2,0.1,0.3,0.2,0.2,0.3
		c-0.1,0.1-0.1,0.2-0.2,0.2c-11.2,0.3-22.4,0.7-32.9-4.5c-16.9-8.3-27-21.6-29.8-40.2c-0.4-2.7-0.5-5.4-0.5-8.2
		c0-14.9-0.1-29.9,0-44.8C11.8,133.5,27,123.7,40.4,129.6z"/>
	<path class="st5" d="M239.1,196.2c-2.3,1.9-5,3.2-6.8,5.8c-2,3-3.3,6.1-3.3,9.8c0,25.9,0,51.7,0,77.6c-4.5,0-9,0-13.4,0
		c0-11.9,0-23.8,0-35.6c0.8-0.9,1.9-0.8,2.9-1.1c4.7-1.5,7.4-5,7.5-9.7c0-4.6-2.7-8.1-7.5-9.6c-1-0.3-2.1-0.4-2.8-1.3
		c0-6.9-0.1-13.8,0-20.7C215.9,199.9,228.5,191.8,239.1,196.2z"/>
	<path class="st3" d="M189.8,85.2c-6.8,3.1-11.1,8.3-12.5,15.8c-0.3,1.3-0.3,2.7-0.3,4.1c0,7.8,0,15.6,0,23.4
		c0,6.6-3.2,10.9-9.6,11.9c-4.3,0.7-8.9,0.8-13.3-0.2c5.7-2.2,7.9-6.4,7.8-12.5c-0.1-8.7-0.6-17.5,0.3-26.2
		C163.7,88.6,177.9,80.2,189.8,85.2z"/>
	<path class="st2" d="M215.6,232c8.1,0.9,10.6,5.4,11.1,9.6c0.8,6.8-3.9,11.9-11.1,12.1c-1,0-2-0.1-2.9-0.1c-4.8-0.1-9-2-12.8-4.8
		c-0.9-0.7-2-1.3-2.1-2.6c0.1-0.5,0.3-0.8,0.7-1c0.9-0.4,1.9-0.2,2.8-0.6c1.7-0.7,2.6-2,2.4-3.9c-0.3-1.7-1.4-2.8-3.1-3
		c-1.8-0.3-2.9,0.7-3.7,2.2c-0.5,1-0.3,2.1-0.9,3.1c-0.3,0.4-0.7,0.6-1.2,0.4c-2.7-2.1-4-5.2-4.9-8.4c-2.2-7.6-1.7-15.4-1.1-23.1
		c0.4-4.6,3.1-7.4,6.4-7.9c3.8,1.8,5.7,4.9,5.8,9c0.1,4.2,0,8.4,0,12.6c0,4.5,2.1,6.6,6.6,6.6C210.4,232.1,213,232.1,215.6,232z"/>
	<path class="st3" d="M195.2,203.8c-3.8,1.7-5.7,5-5.8,8.8c-0.2,7-0.8,14,1,20.9c0.9,3.6,2.7,6.6,4.8,9.6c1.4,0.6,2.4,1.5,2.9,3
		c3.7,3.8,8.2,6,13.3,7c0.5,0.1,0.9,0.3,1.3,0.5c-5.7,0.3-11.3,0.4-16.6-2.1c-11-5.1-16.2-13.9-16.5-25.8c-0.1-4.9-0.4-9.8,0.4-14.6
		C180.9,204.8,188.6,200.1,195.2,203.8z"/>
	<path class="st3" d="M279,219.6c-4.8,3.2-6.1,8-6,13.4c0,2.9,0,5.8,0,8.7c0,3.2-2.1,5.5-5.4,5.5c-2.3,0-4.6,0.5-6.9-0.4
		c2.5-1.3,3.5-3.5,3.4-6.3c0-3.7,0-7.4,0-11.1C264.4,221.5,271.5,216.6,279,219.6z"/>
	<path class="st6" d="M75,246c0-0.2,0-0.3,0-0.5c1.2,0.1,2.4-0.4,3.5,0.5C77.3,246,76.2,246,75,246z"/>
	<path class="st5" d="M125.6,118.9c-2.4,0-4.3-2.1-4.3-4.6c0-2.6,1.8-4.6,4.3-4.7c2.5-0.1,4.6,2.2,4.5,4.8
		C130,116.9,128,119,125.6,118.9z"/>
	<path class="st5" d="M120.1,254.3c0.1-2.6,2.1-4.8,4.3-4.6c2.1,0.1,4.5,2.6,4.5,4.7c0,2.2-2.7,4.7-4.9,4.6
		C121.9,258.8,120,256.6,120.1,254.3z"/>
	<path class="st5" d="M182.2,110.6c0-2.4,1.9-4.5,4.3-4.5c2.3,0,4.4,2.1,4.4,4.6c0.1,2.1-2.4,4.5-4.5,4.6
		C184.1,115.3,182.3,113.3,182.2,110.6z"/>
	<path class="st5" d="M104.3,196.7c0-2.4,1.9-4.5,4-4.5c2.2-0.1,4.8,2.5,4.7,4.7c0,1.9-2.5,4.5-4.3,4.5
		C106.2,201.6,104.3,199.4,104.3,196.7z"/>
	<path class="st5" d="M133,221.2c0,2.3-2.1,4.4-4.2,4.4c-2.1,0-4.5-2.5-4.6-4.6c0-2.1,2.4-4.7,4.4-4.7
		C131.2,216.3,133,218.4,133,221.2z"/>
	<path class="st5" d="M105.9,268.9c2.8,0,4.4,1.6,4.3,4.3c-0.1,2.5-2.1,4.5-4.5,4.5c-2.4,0-4.3-2.1-4.3-4.6
		C101.4,270.5,103.1,268.9,105.9,268.9z"/>
	<path class="st5" d="M133.3,158.8c-2.3,0-4.4-2-4.4-4.1c0-2.6,2.1-4.8,4.5-4.7c2.4,0.1,4.3,2.2,4.2,4.6
		C137.6,157.4,136.2,158.8,133.3,158.8z"/>
	<path class="st5" d="M164.6,155.3c2.6-0.1,4.8,1.9,4.8,4.4c0,2.2-2,4.3-4.1,4.4c-2.5,0.1-4.5-1.7-4.6-4.1
		C160.4,157.5,162.2,155.3,164.6,155.3z"/>
	<path class="st5" d="M29.9,196.3c-0.9-0.8-0.5-1.8-0.6-2.7c0-14.6,0-29.1,0-43.7c0-0.9-0.3-2,0.6-2.7c0,6.2,0,12.4,0,19.2
		c1.5-2.9,3.5-4,6.2-3.2c2,0.6,2.6,2.1,2.7,4c0,2-0.6,3.7-2.7,4.3c-2.7,0.8-4.6-0.3-6.1-3.2C29.9,178,29.9,187.1,29.9,196.3z"/>
	<path class="st5" d="M51.3,213.6c-0.2,2.2-2.8,4.5-4.8,4.3c-2.4-0.3-4.1-2.8-3.8-5.6c0.2-2,2.6-3.9,4.5-3.7
		C49.4,208.9,51.6,211.6,51.3,213.6z"/>
	<path class="st5" d="M65.6,229.7c0,2.5-1.9,4.6-4.3,4.6c-2.5,0-4.5-2.1-4.5-4.8c0.1-2.3,2.1-4.1,4.5-4
		C63.7,225.6,65.6,227.5,65.6,229.7z"/>
	<path class="st5" d="M233.2,222.7c0.1-2.8,1.6-4.2,4.5-4.1c2.2,0,4.3,2.1,4.3,4.3c-0.1,2.7-2.1,4.6-4.7,4.5
		C234.9,227.3,233.1,225.2,233.2,222.7z"/>
	<path class="st5" d="M238.5,263.5c0,2.2-2.2,4.4-4.2,4.3c-2.1-0.1-4.5-2.5-4.5-4.6c0-2,2.6-4.7,4.5-4.6
		C236.8,258.6,238.5,260.6,238.5,263.5z"/>
	<path class="st5" d="M260.7,256.1c0-2.6,1.8-4.6,4.2-4.5c2.2,0,4.5,2.4,4.4,4.6c0,2.2-2.3,4.5-4.4,4.6
		C262.7,260.7,260.7,258.6,260.7,256.1z"/>
	<path class="st5" d="M195.7,242.6c-0.2-2.7,0.5-4.9,3.3-5.8c2.4-0.7,5.1,1.1,5.5,3.5c0.4,2.7-1.4,5-4.1,5.2c-0.6,0-1.2,0-1.7,0
		C197.1,245.1,196.1,244.2,195.7,242.6z"/>
	<path class="st7" d="M195.7,242.6c1,1,1.9,2,2.9,2.9c-0.2,0.2-0.4,0.4-0.6,0.6c-1.2-0.8-2.2-1.7-2.9-3
		C195.3,243,195.5,242.8,195.7,242.6z"/>
</g>
</svg>
