<?xml version="1.0" encoding="utf-8"?>
<!-- Generator: Adobe Illustrator 23.0.0, SVG Export Plug-In . SVG Version: 6.00 Build 0)  -->
<svg version="1.1" id="Layer_1" xmlns="http://www.w3.org/2000/svg" xmlns:xlink="http://www.w3.org/1999/xlink" x="0px" y="0px"
	 width="522.7px" height="382.7px" viewBox="0 0 522.7 382.7" style="enable-background:new 0 0 522.7 382.7;" xml:space="preserve"
	>
<style type="text/css">
	.st0{opacity:0.2;fill-rule:evenodd;clip-rule:evenodd;fill:#DBD5D5;}
	.st1{fill:#455A64;}
	.st2{opacity:0.3;}
	.st3{opacity:0.4;}
	.st4{fill:#7373F4;}
	.st5{fill:#5143D9;}
	.st6{opacity:0.2;}
	.st7{fill:#FFFFFF;}
	.st8{fill:#263238;}
	.st9{fill:#E0E0E0;}
	.st10{fill:#FAFAFA;}
	.st11{fill:#FFBF9D;}
	.st12{fill:#FF9A6C;}
</style>
<g id="freepik--background-complete--inject-61">
	<path class="st0" d="M19.1,190.3c4.9,29,22.1,40.6,47.9,50.8c18.5,7.3,39.8,5.8,59.7,6c22.8,0.2,35.3,15,51.4,26.6
		c17.3,12.5,24.8,24.5,43.6,34.6c32,17.2,65.8,15.4,89,3.6c25.9-13.1,45.6-41.5,74.6-42.2c17.4-0.4,33.3,9.6,50.5,12
		c26.2,3.5,52.8-12.2,65.6-35.2s12.8-51.8,3.6-76.5c-9.2-24.7-26.7-45.6-47-62.4l5.1,3.4c-41.3-33.9-98.4-47.5-150.5-35.9
		c-18.7,4.2-37.6,11.4-56.3,7.5C234.1,78,218.1,59,198.2,48c-16.9-9.3-36.5-12.6-55.6-9.5c-13,2.2-26.3,8.2-32.4,19.9
		c-7.8,15-1.4,34.9-10.4,49.2c-11.5,18.3-39.6,15.8-56.9,29C27.2,148.6,15.1,166.3,19.1,190.3z"/>
</g>
<g id="freepik--Planets--inject-61">
	<circle class="st1" cx="111" cy="58.7" r="28"/>
	<g class="st2">
		<path d="M123.2,72.9c-0.6,1.1-1,2.4-1.1,3.7c-0.1,1.3-0.6,2.5-1.5,3.5c-1,0.8-2.8,0.8-3.3-0.4c-0.2-0.7-0.3-1.4-0.3-2.1
			c-0.3-0.8-0.7-1.7-1.2-2.4c-0.2-0.8-0.3-1.5-0.3-2.3c-0.1-4.3-1.1-8.7-3.9-11.9c-0.3-0.4-0.7-0.7-1.2-0.9
			c-0.6-0.2-1.3,0.1-1.6,0.6c-0.2,0.4-0.4,0.7-0.6,1c-0.7,0.4-1.5,0.2-2-0.4c0-0.1-0.1-0.1-0.1-0.2c-0.3-0.8-0.4-1.6-0.3-2.5
			c0.1-1,0.2-2.1,0.3-3.1c0-0.5,0.2-1.1,0.5-1.5c0.5-0.6,1.4-0.6,2-1c0.8-0.6,0.9-1.8,1.4-2.6s2.1-1.2,2.3-0.2
			c1.7-3.6,5.3,1.8,7.5,1.5c0.6-0.2,1.3-0.3,1.9-0.3c1.1,0.2,1.7,1.5,2.1,2.5c0.6,1.8,1.2,3.7,1.9,5.5c0.1,0.7,0.6,1.4,1.2,1.8
			c0.5,0.2,1.1,0.1,1.6,0.3c1.4,0.5,0.9,2.7-0.2,3.7s-2.7,1.6-3.2,3c-0.4,1-0.1,2.3-0.6,3.3C124.1,71.8,123.7,72.4,123.2,72.9z"/>
	</g>
	<g class="st2">
		<path d="M93.6,80.6L93.6,80.6l0.9,0.7l0.7,0.5l0.7,0.5l0.5,0.3c0,0-0.1-0.1-0.1-0.1c-0.6-1.4-0.6-3.4,0.7-4
			c0.3-0.1,0.5-0.2,0.8-0.4c0.6-0.6,0.1-1.7,0.7-2.3c0.3-0.3,0.9-0.3,1.3-0.5c0.7-0.5,1.1-1.3,0.9-2.1c-0.1-0.8-0.2-1.6-0.2-2.5
			c0.2-1.3,1.1-2.5,0.6-3.7s-2.4-1.1-3.7-1.7c-1.8-0.8-2.3-3-3.4-4.6c-1-1.4-3.4-3-5.3-2.6c-1.1,0.1-1.9,1-2,2.1h-0.2
			c-0.5-0.1-1.1-0.1-1.3-0.5s0-1.2-0.3-1.7c-0.2-0.2-0.4-0.4-0.7-0.5C84,57.3,83.8,57,84,56.7s0.4-0.3,0.6-0.5
			c0.1-0.2,0.1-0.4,0-0.6c-0.5-0.6-1.1,0.6-1.4,0.9c-0.1,0.1-0.1,0.1-0.2,0.2l0,0c0,0.1,0,0.1,0,0.2c0,0.2,0,0.3,0,0.5s0,0.3,0,0.5
			v1c0.1,3.1,0.6,6.2,1.6,9.2c0.4,1.3,1,2.5,1.6,3.7c0.3,0.5,0.6,1,0.9,1.6s0.9,1.3,1.3,1.9s0.8,1.1,1.3,1.6c0.6,0.7,1.3,1.4,2,2.1
			C92.3,79.6,93,80.1,93.6,80.6"/>
	</g>
	<g class="st2">
		<path d="M137.3,49.1c-0.1-0.3-0.2-0.6-0.3-0.9c-1.1-3.1-3.8-4.5-5.5-7c-0.6-0.8-1-1.4-2-1.6c-1.5-0.2-2.2,0.6-3.2-0.8
			c-0.3-0.4-0.8-0.7-1.2-0.5c0.1,0.3,0.2,0.6,0.3,0.9c0,0.1,0,0.1,0,0.2c0,0.2-0.3,0.3-0.5,0.1c-0.2-0.1-0.3-0.3-0.4-0.5
			c-0.5-0.6-1.4-0.8-2-0.3c0,0-0.1,0.1-0.1,0.1c0-0.3-0.2-0.6-0.5-0.7c-0.1,0.5-0.6,0.9-1.2,0.8c0,0,0,0,0,0
			c-0.1-0.3,0.4-0.3,0.6-0.5s0-0.5-0.2-0.7c-0.5-0.5-1.2-0.8-1.9-0.8c-0.4,0.1-0.9,0-1.3-0.2c-0.2-0.1-0.4-0.4-0.6-0.5
			c-0.5-0.2-1.2-0.1-1.6,0.2c-0.7,0.3-1.3,0.9-1.6,1.6c-0.3,0.8,0.3,1.8,1,1.7c0.2-0.1,0.4-0.1,0.6-0.1c0.3,0.1,0.4,0.4,0.4,0.7
			c0,0.3,0,0.6,0.1,0.8c0.1,0.3,0.5,0.4,0.7,0.2c0.3-0.4,0.4-0.9,0.2-1.4c-0.2-0.5-0.1-1,0.1-1.5c0.3-0.4,1.1-0.3,1.1,0.2
			c0,0.3-0.4,0.5-0.4,0.8s0.4,0.5,0.7,0.5c0.3,0,0.6,0,0.9,0c0.3,0.1,0.5,0.5,0.3,0.7c-0.4,0.4-1.3-0.3-1.5,0.2c0,0.1,0,0.3,0,0.4
			c0,0.4-0.6,0.6-1,0.7c-0.4,0.1-0.9,0-1.3-0.1c-0.4-0.2-0.6-0.7-0.4-1.1c-0.2-0.1-0.5,0-0.7,0.2c0,0,0,0,0,0.1
			c-0.1,0.3-0.1,0.5-0.1,0.8c-0.5-0.1-0.9,0.3-1.1,0.7s-0.5,0.9-1,1s-1.1-0.1-1.3,0.3s0.6,1.2,0.3,1.8c-0.2,0.3-0.6,0.3-1,0.4
			c-0.8,0.3-1.1,1.2-0.8,1.9c0.1,0.1,0.1,0.2,0.2,0.3c0.7,0.7,1.8,0.7,2.4,0c0,0,0,0,0,0c0.4-0.5,0.7-1.1,1-1.7
			c0.3-0.6,0.9-1.1,1.6-0.9c0.2,0.1,0.5,0.2,0.6,0.4l0.9,0.8c0.2,0.1,0.3,0.4,0.4,0.6c-0.1,0.2-0.1,0.4-0.2,0.5
			c-0.2,0.5,0.6,1.1,1.1,0.8c0.5-0.4,0.6-1.1,0.2-1.5c-0.4-0.7-1.5-1-1.5-1.8c0.5-0.4,1.4,0,1.7,0.7s0.3,1.4,0.6,2s1,1.2,1.6,0.9
			c-0.2-0.6-0.3-1.1-0.5-1.7c0.4-0.3,0.8,0.6,1.3,0.4c0.3-0.1,0.3-0.5,0.2-0.8c-0.2-0.3-0.3-0.5-0.4-0.8c0-0.5,0.4-0.9,0.9-1
			c0.1,0,0.1,0,0.2,0c0.5,0.2,0.9,0.6,1,1.2c0,0.2,0.1,0.4,0.1,0.7c0.2,0.4,0.7,0.6,1.1,0.8s0.9,0.6,0.7,1.1
			c-0.1,0.2-0.3,0.4-0.2,0.6s0.3,0.3,0.3,0.5s-0.1,0.2-0.3,0.3c-0.3,0.1-0.6,0.2-0.9,0.3c-0.3,0.1-0.5,0.4-0.5,0.7
			c0,0.5,0.6,0.7,0.8,1c0.2,0.4,0.3,0.8,0.3,1.3c0.2,0.4,0.4,0.7,0.7,1c0.6,1.1,1,2.3,1.2,3.6c0.2,0.5,0.4,1.2,1,1.3
			c0.3,0,0.7,0,1-0.2c0.8-0.3,1.6-0.7,2.2-1.3c0.6-0.6,0.7-1.6,0.2-2.4c-0.1-0.1-0.2-0.1-0.3-0.2c-0.2,0-0.3,0.1-0.4,0.1
			c-0.4,0.2-0.9,0-1.2-0.3c-0.3-0.3-0.6-0.7-0.7-1.1c-0.2-0.5-0.4-0.9-0.6-1.4c0.3-0.2,0.7-0.2,0.9,0.1c0.2,0.2,0.5,0.5,0.6,0.8
			c0.7,0.8,1.7,1.3,2.8,1.4c0.3,0,0.5,0.1,0.8,0.2c0.8,0.4,1,1.6,1.8,1.8c0.2,0.1,0.5,0.1,0.7,0.2c0.3,0.2,0.5,0.5,0.6,0.9
			c0.1,0.7,0.3,1.3,0.5,2c0.2,0.7,0.8,1.1,1.5,1.2c0.4,0,0.7-0.1,1-0.4v-0.1c0-0.6,0.1-1.2,0.1-1.8c0-0.1,0-0.3,0-0.4
			c0-0.4,0-0.8,0-1.2s-0.1-0.9-0.1-1.3s-0.1-0.6-0.1-0.9s-0.1-0.7-0.2-1c-0.1-1-0.6-2.8-0.8-3.8"/>
	</g>
	<g class="st2">
		<path d="M128.4,74.2c-0.5,0.1-1-0.2-1.3,0.1c-0.2,0.2-0.3,0.5-0.3,0.7c-0.1,0.4-0.3,0.7-0.6,0.9c-0.3,0.2-0.7,0.2-1.1,0
			c-0.3-0.2-0.4-0.7-0.1-1c0.1-0.1,0.3-0.2,0.4-0.3c0.6-0.6,0.2-1.7,0.7-2.3c0.3-0.4,0.7-0.8,1-1.2s0.3-0.6,0.7-0.6
			C129.5,70.1,130.3,73.9,128.4,74.2z"/>
	</g>
	<g class="st2">
		<path d="M104.6,37.5c-0.5,0.4-0.9,0.9-1.3,1.5c-0.4,0.5-1.2,0.8-1.7,0.4c-0.2-0.2-0.4-0.5-0.4-0.8c0-0.4,0.1-0.9,0.3-1.3
			c0.3-0.4,0.6-0.7,0.8-1.1s0.2-1-0.2-1.2c-0.2-0.1-0.5-0.1-0.7-0.2c-0.4-0.3-0.1-0.9,0.3-1.1c0.4-0.1,0.9-0.1,1.3,0
			c1.6,0.1,2.8-1,4.1-1.8c1-0.7,3-1.5,4.1-0.8c0.4,0.3,0.5,0.8,0.3,1.2c0,0-0.1,0.1-0.1,0.1c-0.2,0.1-0.4,0.2-0.6,0.3
			s-0.2,0.5-0.4,0.8c-0.3,0.7-1.2,0.9-1.5,1.6c-0.2,0.4-0.1,0.9-0.4,1.3c-0.2,0.2-0.6,0.4-0.9,0.5l-2.1,0.5
			C105.2,37.3,104.9,37.4,104.6,37.5z"/>
	</g>
	<g class="st2">
		<path d="M84.8,50.1c0.5-0.5,1.3-0.5,1.8,0c0,0,0,0,0,0c0.2,0.5,0.3,1,0.1,1.5l-0.3,2c-0.1,0.2-0.1,0.4,0,0.6
			c0.2,0.4,0.9,0.4,1.1,0c0.2-0.4,0.3-0.9,0.2-1.4c-0.1-0.5-0.1-0.9,0-1.4c0.5-1.1,2-0.9,2.9-1.6c0.5-0.5,0.9-1.1,1.2-1.8
			c0.4-0.6,0.9-1.3,1.6-1.2c0.2,0,0.5,0.1,0.7,0.1c0.5-0.1,0.9-0.6,0.8-1.2c0-0.1-0.1-0.3-0.2-0.4c-0.1-0.1-0.2-0.2-0.3-0.3
			c-0.1-0.3,0-0.6,0.2-0.7c0.2-0.1,0.5-0.2,0.8-0.2l1.8-0.3c0.7-0.1,1.5-0.4,1.4-1.1s-0.9-0.9-0.9-1.4c0-0.1,0-0.3-0.1-0.4
			c-0.2-0.4-0.7-0.2-1.1,0c-0.1-0.5-0.6-0.7-1.1-0.6c-0.1,0-0.2,0.1-0.2,0.1c-0.4,0.3-0.4,0.8-0.5,1.3c-0.4,1.1-1.1,2-2,2.7
			c-0.2,0.3-0.6,0.5-0.9,0.5c-0.4,0-0.8-0.4-0.6-0.7s0.4-0.3,0.4-0.6S91.1,43.3,91,43c0.2-0.9,1.2-1.3,2-1.7c1-0.6,1.7-1.5,2.1-2.5
			c0.1-0.2,0.1-0.4,0-0.5c-0.1-0.2-0.4-0.3-0.7-0.3c-0.6,0-1.3,0.1-1.6,0.6c-0.1,0.3-0.1,0.7-0.1,1c-0.2,0.9-1.5,1-2.3,1.6
			c-0.3,0.2-0.6,0.5-0.9,0.7c-0.4,0.1-0.8,0.2-1.2,0.2h-0.2c-0.2,0.3-0.5,0.7-0.7,1c-0.2,0.3-0.4,0.7-0.7,1.1
			c-1,1.7-1.9,3.6-2.5,5.5c-0.2,0.7-0.4,1.4-0.6,2s-0.3,1.4-0.4,2.1c0.2-0.6,0.4-1.2,0.5-1.8C83.9,51.3,84.3,50.6,84.8,50.1z"/>
	</g>
	<g class="st3">
		<path d="M139,58.8c0-0.2,0-0.4,0-0.6v-0.1v-0.6c0-0.2,0-0.4,0-0.6s0-0.6-0.1-0.8c-0.1-0.7-0.2-1.4-0.3-2.1c0-0.1,0-0.2-0.1-0.3
			l-0.1-0.3c0-0.2-0.1-0.5-0.2-0.7c-0.3-1.4-0.8-2.7-1.3-4l-0.4-0.9c-0.2-0.4-0.4-0.9-0.6-1.3s-0.4-0.7-0.5-1s-0.4-0.8-0.7-1.1
			c-0.1-0.2-0.2-0.3-0.3-0.4l0,0l-0.2-0.3l-0.1-0.2c-0.1-0.2-0.3-0.4-0.4-0.6c0-0.1-0.1-0.1-0.1-0.2c0-0.1-0.1-0.1-0.1-0.1
			c-0.1-0.1-0.1-0.2-0.2-0.3c-0.3-0.4-0.6-0.8-0.9-1.1l-0.1-0.1c-0.3-0.3-0.5-0.6-0.8-0.9l-0.3-0.3l-0.2-0.2l0,0
			c-0.5-0.5-1-1-1.6-1.5l-0.3-0.2l-0.4-0.3c-0.2-0.2-0.4-0.4-0.7-0.5c-0.1,0-0.1-0.1-0.2-0.1l0,0l-0.3-0.3l0,0
			c-0.9-0.7-1.8-1.3-2.8-1.8l0.5,0.4l0,0l0.6,0.4l0,0l0.3,0.2l0,0l0.2,0.2c0.2,0.2,0.4,0.3,0.7,0.5l0.4,0.3l0.2,0.2
			c0.6,0.5,1.1,1,1.6,1.5l0,0l0.2,0.2c0.4,0.4,0.7,0.8,1.1,1.2V40c0,0,0.1,0.1,0.1,0.1c0.4,0.4,0.7,0.8,1,1.3l0.1,0.2l0.1,0.2
			c0.1,0.1,0.2,0.3,0.3,0.4l0.2,0.3l0.2,0.3l0,0l0.4,0.7c0.2,0.3,0.4,0.6,0.5,0.9s0.4,0.8,0.6,1.2s0.4,0.7,0.5,1.1s0.3,0.6,0.4,0.9
			l0.2,0.5c0.5,1.4,1,2.8,1.3,4.3c0,0.1,0,0.2,0.1,0.3c0,0.1,0,0.2,0.1,0.2c0.1,0.5,0.2,0.9,0.2,1.4c0,0.3,0.1,0.5,0.1,0.8
			c0.1,0.5,0.1,0.9,0.1,1.4c0,0.2,0,0.4,0,0.6l0,0c0,0.2,0,0.5,0,0.7v0.6c0,0.2,0,0.3,0,0.5c0,0.6,0,1.1-0.1,1.7
			c0,0.3-0.1,0.7-0.1,1v0.2c-0.1,0.5-0.1,1.1-0.3,1.6l-0.1,0.5c-0.5,2.5-1.4,4.9-2.5,7.1l0,0c-0.2,0.3-0.4,0.7-0.5,1
			c-0.5,0.9-1,1.7-1.6,2.5c-0.6,0.8-1.2,1.6-1.9,2.3c-0.4,0.4-0.8,0.9-1.3,1.3l0,0c-0.9,0.9-1.9,1.7-2.9,2.5l0,0
			c-1.6,1.1-3.2,2.1-5,2.9l0,0c-0.5,0.3-1.1,0.5-1.7,0.7c-0.3,0.1-0.6,0.2-0.9,0.3c-0.5,0.2-0.9,0.3-1.4,0.4c-1,0.3-2,0.5-3.1,0.7
			c-1.5,0.3-3,0.4-4.5,0.4c-3,0-5.9-0.5-8.8-1.4c-0.6-0.2-1.2-0.4-1.8-0.7s-0.9-0.4-1.4-0.6s-0.9-0.4-1.3-0.7l-0.6-0.4
			c0.3,0.2,0.6,0.4,0.9,0.6l0.4,0.2h0.1l0.1,0.1l0.8,0.4c0.9,0.5,1.8,0.9,2.7,1.3c0.6,0.2,1.2,0.4,1.8,0.7c5.3,1.7,11,1.9,16.3,0.4
			l0.5-0.1c0.3-0.1,0.6-0.2,0.9-0.3c0.3-0.1,0.6-0.2,0.9-0.3c1.5-0.6,3-1.3,4.4-2.1c1.1-0.7,2.2-1.5,3.3-2.3c1.1-0.9,2.2-1.9,3.1-3
			c0.4-0.4,0.8-0.9,1.1-1.3c0.7-0.9,1.4-1.8,2-2.8c0.2-0.3,0.3-0.5,0.5-0.8s0.4-0.6,0.5-1c0.3-0.5,0.5-1.1,0.8-1.6l0,0
			c1-2.3,1.7-4.7,2.1-7.2c0-0.1,0-0.2,0-0.3s0-0.2,0-0.3l0.1-0.5c0-0.2,0-0.3,0-0.5v-0.3c0-0.2,0-0.5,0-0.7s0-0.4,0-0.6s0-0.5,0-0.7
			C139,59,139,58.9,139,58.8z"/>
	</g>
	<path class="st4" d="M364.3,81.5c-2.6,21.1,12.5,40.3,33.6,42.9c21.1,2.6,40.3-12.5,42.9-33.6c2.6-21.1-12.5-40.3-33.6-42.9
		C386.1,45.3,366.9,60.3,364.3,81.5C364.3,81.5,364.3,81.5,364.3,81.5z"/>
	<path class="st5" d="M393.9,98.2c-0.6,4.6,2.7,8.8,7.3,9.3c4.6,0.6,8.8-2.7,9.3-7.3c0.6-4.6-2.7-8.8-7.3-9.3
		C398.6,90.4,394.4,93.6,393.9,98.2z"/>
	<g class="st2">
		<path d="M393.9,98.2c-0.6,4.6,2.7,8.8,7.3,9.3c4.6,0.6,8.8-2.7,9.3-7.3c0.6-4.6-2.7-8.8-7.3-9.3C398.6,90.4,394.4,93.6,393.9,98.2
			z"/>
	</g>
	<path class="st5" d="M393,98.2c-0.7,4.4,2.4,8.6,6.8,9.3c0.1,0,0.1,0,0.2,0c4.6,0.6,8.5-3,9.1-7.6c0.6-4.3-2.4-8.3-6.6-8.9
		c-0.1,0-0.3,0-0.4,0c-4.4-0.5-8.5,2.6-9,7.1C393,98.1,393,98.1,393,98.2z"/>
	<g class="st2">
		<path d="M394.4,48c-9.6,4.5-17,12.8-20.3,22.9c0.9,1,1.4,2.2,1.3,3.6c-0.2,1.6-2,2.1-2.7,2.2c-0.1,0.6-0.2,1.1-0.3,1.7
			c-0.3,2.8-0.4,5.7-0.1,8.5c0.1,0.1,3.3,2.5,3.5,4.7c0,1.6-0.5,3.2-1.4,4.4c0.2,0.6,0.5,1.3,0.8,1.9c2.2,5.2,5.5,9.8,9.6,13.6
			c1.5-0.6,3.2-0.6,4.7,0c2.2,1.1,1.5,4.4,1.5,4.4l-0.3,0.1c8.3,5.1,18.2,6.8,27.8,4.8c-19.3,9-42.2,0.6-51.2-18.6
			c-9-19.3-0.6-42.2,18.6-51.2C388.6,49.7,391.5,48.7,394.4,48L394.4,48z"/>
	</g>
	<g class="st2">
		<path d="M374.2,79c0,0.5,0.3,0.9,0.8,1c0.5,0,0.9-0.3,1-0.8c0-0.5-0.3-0.9-0.8-1C374.8,78.1,374.3,78.5,374.2,79z"/>
	</g>
	<path class="st5" d="M416.7,103.3c0.4-1.7,1.2-3.4,2.4-4.8c0.7-0.9,1.6-1.9,2.8-1.8l1,0.2c1.4-0.5,3-0.1,4.1,1
		c0.9,1.1,1.2,2.5,0.9,3.9c-0.3,1.3-0.9,2.6-1.8,3.7c-1,1.2-2.1,2.3-3.3,3.2c-0.7,0.6-1.5,0.9-2.3,1c-1,0-1.9-0.5-2.5-1.2
		C416.7,107,416.2,105.1,416.7,103.3z"/>
	<g class="st2">
		<path d="M416.6,103.3c0.4-1.7,1.2-3.4,2.4-4.8c0.7-0.9,1.6-1.9,2.8-1.8l1,0.2c1.4-0.5,3-0.1,4.1,1c0.9,1.1,1.2,2.5,0.9,3.9
			c-0.3,1.3-0.9,2.6-1.8,3.7c-1,1.2-2.1,2.3-3.3,3.2c-0.7,0.6-1.5,0.9-2.3,1c-1,0-1.9-0.5-2.5-1.2
			C416.6,107,416.2,105.1,416.6,103.3z"/>
	</g>
	<path class="st5" d="M415.8,103.2c0.4-1.7,1.2-3.4,2.4-4.8c0.6-0.9,1.6-1.6,2.8-1.8l1.5-0.3c1.3-0.1,2.6,0.4,3.5,1.4
		c0.9,1.1,1.2,2.5,0.9,3.9c-0.3,1.3-0.9,2.6-1.8,3.6c-1,1.2-2.1,2.3-3.3,3.2c-0.6,0.5-1.4,0.8-2.2,0.9c-0.9-0.1-1.7-0.6-2.2-1.3
		C416,106.7,415.5,105,415.8,103.2z"/>
	<path class="st5" d="M405,116.9c-1.4,0.1-2.8-0.1-4.1-0.5c-0.9-0.2-1.8-0.6-1.9-1.4l-0.1-0.6c-0.7-0.8-0.7-2-0.1-2.8
		c0.7-0.8,1.7-1.3,2.8-1.4c1.1-0.1,2.1,0.1,3.1,0.4c1.1,0.3,2.1,0.8,3.1,1.5c0.5,0.3,1,0.7,1.2,1.3c0.2,0.6,0,1.3-0.5,1.8
		C407.7,116.3,406.4,116.9,405,116.9z"/>
	<g class="st2">
		<path d="M405.2,117c-1.4,0.1-2.8-0.1-4.1-0.5c-0.9-0.2-1.8-0.6-1.9-1.4l-0.1-0.6c-0.7-0.8-0.7-2-0.1-2.8c0.7-0.8,1.7-1.3,2.8-1.4
			c1.1-0.1,2.1,0.1,3.1,0.4c1.1,0.3,2.1,0.8,3.1,1.5c0.5,0.3,1,0.7,1.2,1.3c0.2,0.6,0,1.3-0.5,1.8
			C407.9,116.3,406.6,116.9,405.2,117z"/>
	</g>
	<path class="st5" d="M404.2,117.1c-1.4,0.1-2.8-0.1-4.1-0.5c-0.8-0.2-1.5-0.7-1.9-1.4l-0.5-0.9c-0.3-0.8-0.2-1.8,0.4-2.5
		c0.7-0.8,1.7-1.3,2.8-1.4c1.1-0.1,2.1,0.1,3.1,0.4c1.1,0.4,2.1,0.8,3.1,1.5c0.5,0.3,0.9,0.7,1.1,1.2c0.2,0.6-0.2,1.1-0.6,1.7
		C406.8,116.3,405.5,117,404.2,117.1z"/>
	<path class="st5" d="M384.7,62.2c1.2-1.3,2.7-2.3,4.4-3c1-0.5,2.4-0.9,3.3-0.2l0.8,0.6c1.5,0.2,2.7,1.3,3.1,2.8
		c0.2,1.4-0.2,2.8-1.1,3.8c-0.9,1-2.1,1.8-3.4,2.3c-1.4,0.6-2.9,1-4.5,1.2c-0.9,0.2-1.7,0.1-2.5-0.3c-0.8-0.5-1.4-1.3-1.6-2.3
		C382.9,65.3,383.5,63.5,384.7,62.2z"/>
	<g class="st2">
		<path d="M384.7,62.2c1.2-1.3,2.7-2.3,4.4-3c1-0.5,2.4-0.9,3.3-0.2l0.8,0.6c1.5,0.2,2.7,1.3,3.1,2.8c0.2,1.4-0.2,2.8-1.1,3.8
			c-0.9,1-2.1,1.8-3.4,2.3c-1.4,0.6-2.9,1-4.5,1.2c-0.9,0.2-1.7,0.1-2.5-0.3c-0.8-0.5-1.4-1.3-1.6-2.3
			C382.9,65.3,383.5,63.5,384.7,62.2z"/>
	</g>
	<path class="st5" d="M383.3,62.6c1.2-1.3,2.7-2.3,4.4-3c1-0.5,2.2-0.6,3.3-0.2l1.4,0.5c1.2,0.5,2.1,1.6,2.4,2.9
		c0.2,1.4-0.2,2.8-1.1,3.8c-0.9,1-2.1,1.8-3.4,2.3c-1.4,0.6-2.9,1-4.5,1.2c-0.8,0.1-1.6,0-2.3-0.3c-0.8-0.5-1.2-1.3-1.3-2.3
		C381.8,65.8,382.2,64,383.3,62.6z"/>
	<path class="st5" d="M421.2,90.1c0.1-0.4,0.4-0.8,0.7-1c0.5-0.3,1.2-0.3,1.7-0.2c0.5,0.1,1,0.5,1.2,1c0.4,0.6,0.6,1.3,0.4,2
		c-0.1,0.7-0.6,1.3-1.3,1.6c-0.9,0.3-1.9,0-2.4-0.7C421,92,420.9,91,421.2,90.1z"/>
	<g class="st2">
		<path d="M421.1,90.1c0.1-0.4,0.4-0.8,0.7-1c0.5-0.3,1.2-0.4,1.8-0.2c0.5,0.1,1,0.5,1.2,1c0.4,0.6,0.6,1.3,0.4,2
			c-0.1,0.7-0.6,1.3-1.3,1.6c-0.9,0.3-1.9,0-2.4-0.7C420.9,92,420.8,91,421.1,90.1z"/>
	</g>
	<path class="st5" d="M420.8,90.1c0.1-0.4,0.3-0.8,0.7-1c0.5-0.3,1.1-0.3,1.6-0.2c0.5,0.1,0.9,0.4,1.1,0.9c0.4,0.5,0.5,1.2,0.4,1.8
		c-0.1,0.6-0.6,1.2-1.2,1.4c-0.8,0.3-1.7,0-2.2-0.7C420.7,91.8,420.6,90.9,420.8,90.1z"/>
	<g class="st6">
		<path d="M420.8,90.1c0.1-0.4,0.3-0.8,0.7-1c0.5-0.3,1.1-0.3,1.6-0.2c0.5,0.1,0.9,0.4,1.1,0.9c0.4,0.5,0.5,1.2,0.4,1.8
			c-0.1,0.6-0.6,1.2-1.2,1.4c-0.8,0.3-1.7,0-2.2-0.7C420.7,91.8,420.6,90.9,420.8,90.1z"/>
	</g>
	<path class="st5" d="M424.8,67c0.1-0.3,0.3-0.6,0.6-0.8c0.4-0.2,0.9-0.3,1.4-0.2c0.4,0.1,0.8,0.4,1,0.8c0.3,0.5,0.5,1,0.4,1.6
		c-0.1,0.6-0.5,1-1,1.3c-0.7,0.3-1.5,0-2-0.6C424.6,68.5,424.5,67.7,424.8,67z"/>
	<g class="st2">
		<path d="M424.7,67c0.1-0.3,0.3-0.6,0.6-0.8c0.4-0.2,0.9-0.3,1.4-0.2c0.4,0.1,0.8,0.4,1,0.8c0.3,0.5,0.5,1,0.4,1.6
			c-0.1,0.9-1,1.5-1.9,1.4c-0.4-0.1-0.8-0.3-1.1-0.7C424.5,68.5,424.4,67.7,424.7,67z"/>
	</g>
	<path class="st5" d="M424.4,67c0.1-0.3,0.3-0.6,0.5-0.8c0.4-0.2,0.9-0.3,1.3-0.1c0.4,0.1,0.7,0.4,0.9,0.7c0.3,0.4,0.4,1,0.3,1.5
		c-0.1,0.8-0.9,1.4-1.8,1.2c-0.4-0.1-0.7-0.3-1-0.6C424.3,68.4,424.2,67.7,424.4,67z"/>
	<g class="st6">
		<path d="M424.4,67c0.1-0.3,0.3-0.6,0.5-0.8c0.4-0.2,0.9-0.3,1.3-0.1c0.4,0.1,0.7,0.4,0.9,0.7c0.3,0.4,0.4,1,0.3,1.5
			c-0.1,0.8-0.9,1.4-1.8,1.2c-0.4-0.1-0.7-0.3-1-0.6C424.3,68.4,424.2,67.7,424.4,67z"/>
	</g>
	<path class="st5" d="M404.3,55.4c0.1-0.4,0.4-0.8,0.8-1.1c0.6-0.3,1.2-0.4,1.8-0.2c0.6,0.1,1,0.5,1.3,1c0.4,0.6,0.6,1.4,0.5,2.1
		c-0.1,0.7-0.7,1.4-1.4,1.6c-0.9,0.3-2,0-2.6-0.8C404.1,57.3,404,56.3,404.3,55.4z"/>
	<g class="st2">
		<path d="M404.1,55.4c0.1-0.4,0.4-0.8,0.8-1.1c0.6-0.3,1.2-0.4,1.8-0.2c0.6,0.1,1,0.5,1.3,1c0.4,0.6,0.6,1.4,0.5,2.1
			c-0.1,0.7-0.7,1.4-1.4,1.6c-0.9,0.3-2,0-2.6-0.8C404,57.3,403.8,56.3,404.1,55.4z"/>
	</g>
	<path class="st5" d="M403.8,55.4c0.1-0.4,0.4-0.8,0.7-1c0.5-0.3,1.1-0.3,1.7-0.2c0.5,0.1,0.9,0.5,1.2,0.9c0.4,0.6,0.5,1.3,0.4,1.9
		c-0.1,0.7-0.6,1.2-1.2,1.5c-0.9,0.3-1.8,0-2.4-0.7C403.7,57.2,403.6,56.2,403.8,55.4z"/>
	<g class="st6">
		<path d="M403.8,55.4c0.1-0.4,0.4-0.8,0.7-1c0.5-0.3,1.1-0.3,1.7-0.2c0.5,0.1,0.9,0.5,1.2,0.9c0.4,0.6,0.5,1.3,0.4,1.9
			c-0.1,0.7-0.6,1.2-1.2,1.5c-0.9,0.3-1.8,0-2.4-0.7C403.7,57.2,403.6,56.2,403.8,55.4z"/>
	</g>
	<path class="st5" d="M411.8,56.7c0.1-0.2,0.2-0.4,0.4-0.5c0.3-0.1,0.6-0.2,0.9-0.1c0.3,0.1,0.5,0.3,0.6,0.5
		c0.2,0.3,0.3,0.7,0.2,1.1c-0.1,0.4-0.3,0.7-0.7,0.8c-0.5,0.2-1,0-1.3-0.4C411.7,57.7,411.6,57.2,411.8,56.7z"/>
	<g class="st2">
		<path d="M411.7,56.7c0.1-0.2,0.2-0.4,0.4-0.5c0.3-0.1,0.6-0.2,0.9-0.1c0.3,0.1,0.5,0.3,0.6,0.5c0.2,0.3,0.3,0.7,0.2,1.1
			c-0.1,0.4-0.3,0.7-0.7,0.8c-0.5,0.2-1,0-1.3-0.4C411.7,57.7,411.6,57.2,411.7,56.7z"/>
	</g>
	<path class="st5" d="M411.6,56.7c0.1-0.2,0.2-0.4,0.4-0.5c0.3-0.1,0.6-0.2,0.8-0.1c0.3,0.1,0.5,0.2,0.6,0.5c0.2,0.3,0.3,0.7,0.2,1
		c-0.1,0.3-0.3,0.6-0.6,0.8c-0.4,0.1-0.9,0-1.2-0.4C411.5,57.6,411.4,57.2,411.6,56.7z"/>
	<g class="st6">
		<path d="M411.6,56.7c0.1-0.2,0.2-0.4,0.4-0.5c0.3-0.1,0.6-0.2,0.8-0.1c0.3,0.1,0.5,0.2,0.6,0.5c0.2,0.3,0.3,0.7,0.2,1
			c-0.1,0.3-0.3,0.6-0.6,0.8c-0.4,0.1-0.9,0-1.2-0.4C411.5,57.6,411.4,57.2,411.6,56.7z"/>
	</g>
	<g class="st6">
		<path d="M393,98.2c-0.7,4.4,2.4,8.6,6.8,9.3c0.1,0,0.1,0,0.2,0c4.6,0.6,8.5-3,9.1-7.6c0.6-4.3-2.4-8.3-6.6-8.9c-0.1,0-0.3,0-0.4,0
			c-4.4-0.5-8.5,2.6-9,7.1C393,98.1,393,98.1,393,98.2z"/>
	</g>
	<g class="st6">
		<path d="M415.8,103.2c0.4-1.7,1.2-3.4,2.4-4.8c0.6-0.9,1.6-1.6,2.8-1.8l1.5-0.3c1.3-0.1,2.6,0.4,3.5,1.4c0.9,1.1,1.2,2.5,0.9,3.9
			c-0.3,1.3-0.9,2.6-1.8,3.6c-1,1.2-2.1,2.3-3.3,3.2c-0.6,0.5-1.4,0.8-2.2,0.9c-0.9-0.1-1.7-0.6-2.2-1.3
			C416,106.7,415.5,105,415.8,103.2z"/>
	</g>
	<g class="st6">
		<path d="M404.2,117.1c-1.4,0.1-2.8-0.1-4.1-0.5c-0.8-0.2-1.5-0.7-1.9-1.4l-0.5-0.9c-0.3-0.8-0.2-1.8,0.4-2.5
			c0.7-0.8,1.7-1.3,2.8-1.4c1.1-0.1,2.1,0.1,3.1,0.4c1.1,0.4,2.1,0.8,3.1,1.5c0.5,0.3,0.9,0.7,1.1,1.2c0.2,0.6-0.2,1.1-0.6,1.7
			C406.8,116.3,405.5,117,404.2,117.1z"/>
	</g>
	<g class="st6">
		<path d="M383.3,62.6c1.2-1.3,2.7-2.3,4.4-3c1-0.5,2.2-0.6,3.3-0.2l1.4,0.5c1.2,0.5,2.1,1.6,2.4,2.9c0.2,1.4-0.2,2.8-1.1,3.8
			c-0.9,1-2.1,1.8-3.4,2.3c-1.4,0.6-2.9,1-4.5,1.2c-0.8,0.1-1.6,0-2.3-0.3c-0.8-0.5-1.2-1.3-1.3-2.3C381.8,65.8,382.2,64,383.3,62.6
			z"/>
	</g>
	<ellipse class="st5" cx="134.1" cy="308.7" rx="29.8" ry="28.4"/>
	<g class="st6">
		<path d="M125.1,284.2c1.6,2.1,3.7,3.8,6,5c0.6,0.3,1-0.4,0.8-0.9c-1.3-1.9-2.4-3.7-3.9-5.5c-0.4-0.5-0.8-1-1.2-1.6
			c-1.1,0.2-2.1,0.6-3.1,0.9C124.2,282.9,124.6,283.5,125.1,284.2z"/>
		<path class="st7" d="M123.2,289.1c3.8,4.8,8.7,8.8,14.1,11.7c5.6,3,11.8,4.9,18.1,5.6c2.8,0.4,5.6,0.4,8.4,0.2
			c-0.1-1-0.2-2-0.4-2.9c-2.3,0.3-4.7,0.3-7.1,0c-5.3-0.5-10.4-1.9-15.3-4c-4.7-2-9-4.8-12.7-8.2c-2.3-2.2-5.4-5.2-6.8-8.5
			c-0.6,0.3-1.2,0.5-1.8,0.9C120.8,285.7,121.9,287.5,123.2,289.1z"/>
		<path class="st7" d="M145.2,288c2.6,1.6,8,3.6,11.6,2.3c-0.7-0.7-1.4-1.5-2.1-2.1c-0.2,0-0.4,0.1-0.6,0.1c-2.2,0-4.4-0.5-6.4-1.5
			c-2.3-1-5.9-3.2-7.6-5.8c-0.6-0.1-1.2-0.2-1.9-0.3C139.3,283.7,142.7,286.5,145.2,288z"/>
		<path d="M118.2,298.4c5,5.5,11.3,9.4,18.1,12.6c6.2,3.1,12.9,4.9,19.7,5.5c2.3,0.1,4.5,0.1,6.8-0.1c0.6-2.1,1-4.3,1.1-6.5
			c-3,0.2-6.1,0.1-9.1-0.3c-5.7-0.9-11.2-2.7-16.4-5.3c-5.5-2.5-10.5-5.9-14.9-10c-2.1-2.1-3.9-4.3-5.5-6.8
			c-0.4-0.6-0.8-1.3-1.2-1.9c-1.7,1.2-3.3,2.5-4.7,4C113.7,292.8,115.8,295.8,118.2,298.4z"/>
		<path d="M114.2,318.3c-3.5-2.4-6.8-5.1-9.9-7.9c0,0.8,0.1,1.5,0.2,2.3c6.8,6.8,15.6,12.1,24.2,16.1c5.4,2.6,11,4.6,16.8,6.2
			c0.6-0.2,1.1-0.5,1.7-0.7c-6-1.6-11.8-3.8-17.4-6.6C124.3,324.9,119.1,321.8,114.2,318.3z"/>
		<path class="st7" d="M143.3,292.1c3.7,2.3,7.8,3.7,12.1,4c1.8,0.1,3.5,0,5.3-0.3c-0.4-0.8-0.9-1.6-1.4-2.3
			c-1.4,0.3-2.9,0.4-4.4,0.3c-3.6-0.3-7.1-1.4-10.3-3.3c-4.5-2.5-8.9-5.9-11.7-10.1c-0.7,0-1.4,0.1-2.1,0.1
			C133.5,285.5,139.1,289.6,143.3,292.1z"/>
		<path class="st7" d="M153.6,330.3c-2.7-0.2-5.3-0.6-7.9-1.1c-10.8-2-20.9-6.7-29.4-13.7c-4.1-3.2-8.6-6.8-11.6-11.1
			c-0.1,0.7-0.2,1.3-0.3,2c2.3,3.3,6,6,8.8,8.5c4.6,4,9.7,7.5,15.2,10.3c7.1,3.5,14.8,5.8,22.7,6.9l0.2-0.1
			C152.1,331.4,152.8,330.8,153.6,330.3z"/>
		<path class="st7" d="M130.8,321.9c7,3.3,14.4,5.5,22.1,6.5c0.8,0.1,1.7,0.2,2.5,0.3c2.7-2.5,4.8-5.6,6.3-9c-2.9,0.1-5.8,0-8.6-0.4
			c-6.5-1-12.8-2.9-18.8-5.7c-6.2-2.8-11.8-6.6-16.7-11.4c-2.5-2.6-4.8-5.4-6.6-8.5c-0.3-0.5-0.6-1.1-0.9-1.6
			c-2.2,2.8-3.8,6.1-4.7,9.5c1.5,2.2,3.2,4.3,5,6.2C116.2,313.7,123.1,318.5,130.8,321.9z"/>
		<path d="M152.1,297.9c-2.4-0.8-4.8-0.9-7.1-1.9s-4.5-2.8-7-3.5c-0.6-0.1-1.2,0.3-1.4,0.9c-0.1,0.4,0.1,0.8,0.4,1.1
			c2.1,1.8,5.3,3.1,7.9,4.2c2.1,0.9,4.9,1.6,7.1,0.6C152.5,299,152.8,298.1,152.1,297.9z"/>
		<path class="st7" d="M121,329.3c-0.5-0.2-1.1-0.3-1.6-0.4c-0.6-0.1-0.9,0.8-0.3,1c0.4,0.2,0.9,0.4,1.2,0.6
			c0.4,0.2,0.9,0.4,1.3,0.5c0.2,0.1,0.5,0,0.6-0.2c0.1-0.1,0-0.3,0-0.4C121.9,329.9,121.5,329.5,121,329.3z"/>
		<path d="M137.4,333.9c-3.1-1.1-6.2-3.2-9.4-3.7c-0.7-0.1-1.4,0.8-0.9,1.4c2.3,2.6,6.3,3.9,9.6,5l0.8,0.3c1.9-0.2,3.8-0.6,5.6-1.1
			C141.2,335.2,139.3,334.6,137.4,333.9z"/>
		<path class="st7" d="M115.6,325.9c1,0.2,1.3-1,0.7-1.5c-1.9-1.9-4.6-3-6.8-4.7c-1.4-1.1-2.8-2.2-4.2-3.3c0.4,1.4,0.9,2.7,1.5,4
			C109.5,322.9,112.5,325.2,115.6,325.9z"/>
	</g>
	<path class="st7" d="M120.9,332.2c-0.3-0.1-0.6-0.2-0.9-0.4c-0.8-0.4-1.5-0.8-2.2-1.2c-2.4-1.5-4.5-3.3-6.3-5.5
		c-1-1.2-1.9-2.5-2.6-3.8c-0.6-1.1-1.1-2.3-1.6-3.4c-0.2-0.5-0.3-1-0.5-1.4c-0.1-0.3-0.2-0.7-0.3-1.1c-0.1-0.3-0.2-0.6-0.2-0.9
		c0.1,0,0.4,1.3,1.2,3.3c0.5,1.2,1,2.3,1.7,3.4c0.8,1.3,1.7,2.6,2.6,3.7c1.8,2.1,3.9,4,6.2,5.5C119.7,331.6,120.9,332.1,120.9,332.2
		z"/>
	<path class="st5" d="M162.3,313c0,0.1-0.8,0.3-2.2,0.5l-1.2,0.1c-0.4,0-0.9,0-1.4,0c-1.2,0-2.3,0-3.5-0.1l-2-0.2
		c-0.7-0.1-1.4-0.2-2.2-0.4c-1.6-0.3-3.2-0.6-4.7-1.1c-3.6-1-7-2.4-10.3-4.2c-3.2-1.8-6.3-3.9-9.1-6.3c-1.2-1.1-2.4-2.2-3.4-3.4
		c-0.5-0.6-1-1.1-1.5-1.6l-1.3-1.6c-0.7-0.9-1.4-1.9-2-2.8c-0.3-0.4-0.5-0.8-0.8-1.2l-0.6-1.1c-0.7-1.3-1-2-0.8-2.1
		c0.1-0.1,0.7,0.5,1.5,1.6l0.7,0.9c0.3,0.3,0.6,0.7,0.9,1.1c0.7,0.8,1.3,1.7,2.2,2.6l1.3,1.5c0.5,0.5,1,1,1.5,1.5c1,1,2.2,2,3.5,3.1
		c5.5,4.5,11.9,8,18.7,10.1c1.6,0.5,3.1,0.9,4.5,1.2c0.7,0.2,1.4,0.4,2.1,0.5l1.9,0.3c1.2,0.3,2.4,0.3,3.4,0.4
		c0.5,0.1,1,0.1,1.4,0.2l1.2,0.1C161.5,312.7,162.3,312.9,162.3,313z"/>
	<path class="st7" d="M145.8,334.7c0,0,0.1,0,0.2-0.1l0.6-0.3l2.2-1.2h0.1c0,0-0.1,0-0.1,0.1v-0.1l0.3-0.2l0,0
		c2.7-1.7,5.1-3.8,7.2-6.3l0.1-0.1c0,0-0.2,0.1-0.2,0.1v-0.1c5.9-7.3,7.8-17.1,5-26.1l0.2,0.1h-0.1v-0.1c-0.4-1.3-0.9-2.5-1.5-3.8
		c-2.6-5.3-6.9-9.6-12.2-12.2c-4.3-2.2-9-3.4-13.8-3.5c-3.2,0-6.5,0.5-9.5,1.5c-1.1,0.4-1.9,0.7-2.5,0.9l-0.6,0.3l-0.2,0.1
		c1-0.6,2.1-1,3.3-1.4c3.1-1.1,6.3-1.6,9.6-1.6c4.9,0,9.7,1.2,14,3.4c2.6,1.3,4.9,3,7,5c2.2,2.1,4,4.6,5.4,7.4
		c0.6,1.2,1.1,2.5,1.5,3.8l-0.2-0.2l0,0h0.1v0.1c2.9,9.1,1,19-5,26.4v-0.1c0,0.1-0.1,0.2-0.2,0.1l0.1-0.1c-2.1,2.5-4.5,4.6-7.3,6.3
		l0,0l0,0l-0.4,0.2v-0.1c0,0-0.1,0.1-0.1,0.1l0,0l-2.3,1.1l-0.6,0.3L145.8,334.7z"/>
	<path class="st5" d="M108.3,294.5c0.2-0.3,0.4-0.6,0.5-0.9c-13.3-5.4-20.4-6.9-22.5-6.1c-0.1,0-0.2,0.1-0.3,0.2v0.1
		c0,0.1,0,0.3,0,0.4c0.5,1.5,5,7.8,42.9,26.3c22.8,11.1,41.1,16.9,47.4,17.6c0.4,0.1,0.8-0.2,0.9-0.7c0-0.2,0-0.5-0.2-0.7
		c-2.2-2.1-7.3-5.9-15.4-10.8c-0.1,0.2-0.2,0.5-0.3,0.7c6.7,4.1,10.5,7.1,10,8.1c-1.1,2-19.4-4.9-40.9-15.3s-38.1-20.6-37-22.6
		C93.8,289.6,99.6,291.2,108.3,294.5z"/>
	<path class="st5" d="M162.8,317.1c-0.1,0.2-0.2,0.4-0.2,0.6c10.4,6.2,17.3,11.4,18.1,13.9c0.3,0.8,0,1.6-0.6,2.1
		c-0.7,0.5-2.7,2.1-18.4-3.1c-11.6-4-22.8-8.7-33.8-14.1c-4.9-2.4-10.1-5-15.1-7.6c-14.5-7.6-27.6-15.6-29-20
		c-0.3-0.7-0.2-1.5,0.2-2.1c0.4-0.7,1-1.2,1.8-1.4c3.8-1.3,14,2.1,24.6,6.4c0.1-0.1,0.2-0.2,0.3-0.4c-18-7.1-30.8-10.1-32.8-7.4
		c-4.3,5.9,19,20.6,48.8,35.2s57,21.7,59.3,17.5C187.3,333.8,177.9,326.1,162.8,317.1z"/>
	<path class="st5" d="M164.8,324.7c0.2,0.2-1.8,0-1.9,0c-0.7-0.2-1.5-0.4-2.2-0.6c-1.9-0.6-3.8-1.3-5.7-2c-2.6-1-5.2-2.4-8-3.1
		c-0.1,0-0.3,0.1-0.3,0.2c0,0.1,0,0.2,0.1,0.3c4.4,3,11,5.4,16.3,6.4c0.8,0.1,1.9,0.5,2.4-0.4c0.3-0.4,0.2-0.9-0.2-1.2
		c-0.1,0-0.1-0.1-0.2-0.1c-0.2-0.1-0.4,0-0.5,0.2C164.6,324.5,164.6,324.7,164.8,324.7L164.8,324.7z"/>
	<g class="st2">
		<path d="M108.3,294.5c0.2-0.3,0.4-0.6,0.5-0.9c-13.3-5.4-20.4-6.9-22.5-6.1c-0.1,0-0.2,0.1-0.3,0.2v0.1c0,0.1,0,0.3,0,0.4
			c0.5,1.5,5,7.8,42.9,26.3c22.8,11.1,41.1,16.9,47.4,17.6c0.4,0.1,0.8-0.2,0.9-0.7c0-0.2,0-0.5-0.2-0.7c-2.2-2.1-7.3-5.9-15.4-10.8
			c-0.1,0.2-0.2,0.5-0.3,0.7c6.7,4.1,10.5,7.1,10,8.1c-1.1,2-19.4-4.9-40.9-15.3s-38.1-20.6-37-22.6
			C93.8,289.6,99.6,291.2,108.3,294.5z"/>
		<path d="M164.8,324.7c0.2,0.2-1.8,0-1.9,0c-0.7-0.2-1.5-0.4-2.2-0.6c-1.9-0.6-3.8-1.3-5.7-2c-2.6-1-5.2-2.4-8-3.1
			c-0.1,0-0.3,0.1-0.3,0.2c0,0.1,0,0.2,0.1,0.3c4.4,3,11,5.4,16.3,6.4c0.8,0.1,1.9,0.5,2.4-0.4c0.3-0.4,0.2-0.9-0.2-1.2
			c-0.1,0-0.1-0.1-0.2-0.1c-0.2-0.1-0.4,0-0.5,0.2C164.6,324.5,164.6,324.7,164.8,324.7L164.8,324.7z"/>
	</g>
	<g class="st2">
		<path d="M162.8,317.1c-0.1,0.2-0.2,0.4-0.2,0.6c10.4,6.2,17.3,11.4,18.1,13.9c0.3,0.8,0,1.6-0.6,2.1c-0.7,0.5-2.7,2.1-18.4-3.1
			c-11.6-4-22.8-8.7-33.8-14.1c-4.9-2.4-10.1-5-15.1-7.6c-14.5-7.6-27.6-15.6-29-20c-0.3-0.7-0.2-1.5,0.2-2.1c0.4-0.7,1-1.2,1.8-1.4
			c3.8-1.3,14,2.1,24.6,6.4c0.1-0.1,0.2-0.2,0.3-0.4c-18-7.1-30.8-10.1-32.8-7.4c-4.3,5.9,19,20.6,48.8,35.2s57,21.7,59.3,17.5
			C187.3,333.8,177.9,326.1,162.8,317.1z"/>
	</g>
</g>
<g id="freepik--Satellite--inject-61">
	<path class="st1" d="M428.2,256.9l-12.5-2.7c-0.3-0.1-0.5,0.1-0.6,0.4c-0.1,0.3,0.1,0.5,0.4,0.6l12.5,2.7c0.3,0.1,0.5-0.1,0.6-0.4
		C428.6,257.2,428.5,257,428.2,256.9z"/>
	<path class="st1" d="M428.8,254.2l-12.5-2.8c-0.3-0.1-0.5,0.1-0.6,0.4c-0.1,0.3,0.1,0.5,0.4,0.6l12.5,2.8c0.3,0.1,0.5-0.1,0.6-0.4
		C429.2,254.6,429.1,254.3,428.8,254.2z"/>
	<polygon class="st1" points="444.7,266.3 447.7,252.9 427.7,248.5 424.8,261.6 424.8,261.9 	"/>
	
		<rect x="430.4" y="248.2" transform="matrix(0.2152 -0.9766 0.9766 0.2152 90.9238 628.0719)" class="st7" width="11.8" height="18.4"/>
	
		<rect x="433.3" y="257.7" transform="matrix(0.2062 -0.9785 0.9785 0.2062 96.4549 635.1458)" class="st1" width="12.8" height="0.9"/>
	
		<rect x="435.8" y="247.8" transform="matrix(0.2062 -0.9785 0.9785 0.2062 94.3975 631.1974)" class="st1" width="0.9" height="19.3"/>
	
		<rect x="426.9" y="256.3" transform="matrix(0.2062 -0.9785 0.9785 0.2062 92.7039 627.8156)" class="st1" width="12.8" height="0.9"/>
	<path class="st1" d="M399.8,249.1l12.5,2.8c0.3,0.1,0.5-0.1,0.6-0.4c0.1-0.3-0.1-0.5-0.4-0.6l-12.5-2.7c-0.3-0.1-0.5,0.1-0.6,0.4
		C399.3,248.8,399.5,249.1,399.8,249.1L399.8,249.1z"/>
	<path class="st1" d="M399.2,251.8l12.5,2.7c0.3,0.1,0.5-0.1,0.6-0.4c0.1-0.3-0.1-0.5-0.4-0.6l0,0l-12.4-2.7c-0.3,0-0.5,0.1-0.6,0.4
		C398.8,251.5,399,251.8,399.2,251.8L399.2,251.8z"/>
	<polygon class="st1" points="407.4,228.7 412.4,238.4 423.6,241 432,234.2 	"/>
	
		<rect x="415.2" y="230.1" transform="matrix(0.1925 -0.9813 0.9813 0.1925 112.6373 598.1225)" class="st1" width="9.1" height="0.9"/>
	<path class="st1" d="M421.9,227.3c-1,0.6-2.2,0.3-2.8-0.6s-0.3-2.2,0.6-2.8s2.2-0.3,2.8,0.6c0,0,0,0,0,0
		C423.1,225.5,422.8,226.7,421.9,227.3z"/>
	<polygon class="st1" points="412.4,238.4 412.1,240.1 409,242 404.9,260.5 406.5,263.1 406.2,264.4 418.3,267.1 418.6,265.5 
		421.1,263.9 425,245.4 423.2,242.5 423.6,241 	"/>
	<polygon class="st1" points="383.3,239.7 380.3,253.1 400.3,257.5 403.1,244.4 403.2,244.1 	"/>
	
		<rect x="385.9" y="239.4" transform="matrix(0.2152 -0.9766 0.9766 0.2152 64.6219 577.7078)" class="st7" width="11.8" height="18.4"/>
	
		<rect x="381.9" y="247.4" transform="matrix(0.2062 -0.9785 0.9785 0.2062 65.7137 576.7591)" class="st1" width="12.8" height="0.9"/>
	
		<rect x="391.3" y="239" transform="matrix(0.2062 -0.9785 0.9785 0.2062 67.6663 580.725)" class="st1" width="0.9" height="19.3"/>
	
		<rect x="388.3" y="248.8" transform="matrix(0.206 -0.9785 0.9785 0.206 69.5508 584.1542)" class="st1" width="12.8" height="0.9"/>
	<path class="st8" d="M424.9,245.6c-2.7-0.4-5.4-0.8-8.1-1.5c-4.4-0.9-8-1.8-8-1.9c2.7,0.4,5.4,0.9,8.1,1.5
		C419.6,244.2,422.3,244.8,424.9,245.6z"/>
	<path class="st8" d="M409,242c0,0.5-0.1,0.9-0.2,1.4c-0.2,1-0.4,2.2-0.7,3.7c-0.6,3.1-1.5,7.5-2.5,12.2c-0.1,0.4-0.2,0.8-0.3,1.2
		l-0.2-0.3c4.5,1,8.5,1.8,11.4,2.5l3.4,0.8c0.4,0.1,0.8,0.2,1.2,0.3c-0.4,0-0.9-0.1-1.3-0.2l-3.4-0.7c-2.9-0.6-6.9-1.4-11.4-2.3
		l-0.2,0l0-0.2c0.1-0.4,0.2-0.8,0.3-1.2c1-4.8,2-9.1,2.7-12.2l0.9-3.7C408.7,242.9,408.8,242.5,409,242z"/>
	<path class="st8" d="M418.6,265.7c-2.1-0.2-4.1-0.6-6.1-1.1c-2-0.4-4-0.8-6-1.5c2.1,0.2,4.1,0.6,6.1,1.1
		C414.6,264.5,416.6,265,418.6,265.7z"/>
	<path class="st8" d="M423.2,242.5c-1.9-0.2-3.8-0.5-5.7-1c-1.9-0.3-3.8-0.8-5.6-1.4c1.9,0.2,3.8,0.5,5.7,1
		C419.5,241.5,421.4,241.9,423.2,242.5z"/>
	<path class="st8" d="M423.7,240.9c-1.9-0.2-3.8-0.5-5.7-1c-1.9-0.3-3.8-0.8-5.6-1.4c1.9,0.2,3.8,0.5,5.7,1
		C420,239.9,421.9,240.3,423.7,240.9z"/>
	<path class="st8" d="M433.8,260.2c1.3-1.1,2.7-2.1,4.2-3c1.4-1,2.9-1.9,4.5-2.6c-1.3,1.1-2.7,2.1-4.2,3
		C436.9,258.6,435.4,259.4,433.8,260.2z"/>
	<path class="st8" d="M430.9,259.2c0.7-0.7,1.4-1.3,2.3-1.8c0.8-0.6,1.6-1.1,2.5-1.4c-0.7,0.7-1.4,1.3-2.3,1.8
		C432.6,258.3,431.8,258.8,430.9,259.2z"/>
	<path class="st8" d="M387.1,252c3.8-2.1,7.7-4,11.7-5.6c-1.8,1.1-3.8,2.1-5.8,3C391.1,250.4,389.1,251.2,387.1,252z"/>
	<path class="st8" d="M384.8,251.2c1-0.6,2-1.2,3-1.6c1-0.6,2-1.1,3-1.5c-0.8,0.8-1.8,1.4-2.8,1.9C387,250.6,386,251,384.8,251.2z"
		/>
</g>
<g id="freepik--Character--inject-61">
	<path class="st8" d="M272.7,141.8c0.9-0.2,1.8-0.2,2.7,0c0.1,0,0.7,0.2,0.3,0.1c0.2,0.1,0.5,0.2,0.7,0.3c0.2,0.1,0.5,0.2,0.7,0.4
		c0.5,0.3-0.2-0.2,0.3,0.2c0.7,0.5,1.2,1.1,1.6,1.8c0.4,0.7,0.6,1.5,0.6,2.3c0,0.2,0,0.4,0,0.7c0-0.4-0.1,0.4-0.1,0.5
		c0,0.1-0.1,0.4-0.1,0.6c0,0.2-0.2,0.6,0,0.3c-0.2,0.5-0.4,0.9-0.6,1.4c0.2-0.3-0.1,0.2-0.2,0.2c-0.2,0.2-0.4,0.4-0.5,0.6
		c-0.2,0.2,0.2-0.1-0.2,0.2c-0.2,0.1-0.3,0.3-0.5,0.4c-0.2,0.2-0.5,0.3-0.7,0.4c0.3-0.2-0.2,0.1-0.3,0.1c-0.2,0.1-0.5,0.2-0.7,0.3
		c-0.1,0-0.8,0.2-0.4,0.1c-0.5,0.1-1,0.1-1.5,0.1c-1.2,0.1-2.1,1.2-2,2.4c0.1,1.2,1.2,2.1,2.4,2c5.5-0.1,9.9-4.6,9.8-10.1
		c0-3.4-1.9-6.6-4.8-8.3c-2.1-1.3-4.6-1.8-7-1.3c-1.2,0.2-2.1,1.2-2,2.4C270.3,141,271.4,141.8,272.7,141.8L272.7,141.8z"/>
	<path class="st9" d="M249.4,301.8l16.5,23.2l0,20.7c0.4,4.2,3.9,7.4,8.2,7.4c0.3,0,0.7-0.1,1-0.1l0,0c0.9-0.3,3-2.7,3.3-3.7
		c3.5-10.5,8.7-24.3,6.5-28.1c-1.2-2.2-13.3-29-13.3-29L249.4,301.8z"/>
	<path class="st8" d="M270.1,311.2c0.1,0.1,0.2,0.2,0.3,0.3c0.2,0.2,0.4,0.5,0.8,1c0.6,0.9,1.6,2.1,2.6,3.8c1.2,1.9,2.2,4,2.8,6.2
		c0.3,1.3,0.5,2.7,0.4,4c-0.1,1.4-0.3,2.9-0.5,4.3c-0.6,2.9-0.6,5.7-1.1,8.3c-0.3,2.3-1.4,4.4-3.2,6c-1.2,1-2.8,1.5-4.4,1.4
		c-0.4-0.1-0.8-0.2-1.2-0.3c-0.3-0.1-0.4-0.2-0.4-0.2c0.5,0.2,1.1,0.3,1.6,0.4c1.5,0.1,3-0.4,4.1-1.4c1.6-1.6,2.6-3.6,2.9-5.8
		c0.5-2.5,0.5-5.3,1.1-8.2c0.3-1.4,0.4-2.8,0.5-4.2c0.1-1.3-0.1-2.6-0.4-3.9c-0.6-2.2-1.4-4.3-2.6-6.2c-1-1.7-1.9-2.9-2.5-3.8
		C270.7,312.1,270.4,311.6,270.1,311.2z"/>
	<path class="st8" d="M273.7,323.6c0,0.1-1.9,0-4.2,0.4c-2.3,0.3-4,1-4.1,0.8C268,323.5,270.9,323.1,273.7,323.6L273.7,323.6z"/>
	<path class="st8" d="M272.4,330.2c0,0.1-1.6-0.3-3.6-0.2c-2,0-3.6,0.4-3.6,0.2C267.5,329.3,270,329.3,272.4,330.2L272.4,330.2z"/>
	<path class="st8" d="M273.1,336.8c0,0.1-1.6-0.5-3.5-0.8c-2-0.3-3.5-0.2-3.6-0.4C268.5,335.1,271,335.5,273.1,336.8L273.1,336.8z"
		/>
	<path class="st8" d="M267.9,350.3c0.5,0.1,1,0.2,1.4,0.2c1.3,0,2.6-0.4,3.7-1.2c1.5-1.2,2.7-2.8,3.4-4.6c0.9-2,1.8-4.3,2.6-6.8
		c1.4-4.2,2.5-8.4,3.3-12.8c0.3-1.7,0.5-3,0.7-4c0-0.5,0.1-1,0.3-1.5c0,0.5,0,1-0.1,1.5c-0.1,1-0.2,2.3-0.5,4
		c-0.7,4.4-1.8,8.7-3.2,12.9c-0.9,2.5-1.8,4.7-2.7,6.8c-0.8,1.9-2,3.5-3.6,4.7c-1.1,0.8-2.5,1.2-3.9,1c-0.4,0-0.7-0.1-1.1-0.3
		C268.1,350.4,268,350.4,267.9,350.3z"/>
	<path class="st8" d="M283,323.7c-0.4-0.6-0.7-1.3-0.9-2c-0.6-1.3-1.4-2.9-2.3-4.8c-1-1.9-1.9-3.5-2.6-4.6c-0.4-0.6-0.8-1.2-1.1-1.9
		c0.5,0.5,1,1.1,1.4,1.7c1,1.5,2,3,2.8,4.6c0.8,1.6,1.6,3.2,2.2,4.9C282.7,322.3,282.9,323,283,323.7z"/>
	<path class="st9" d="M319.5,271.6l1.2,28.5l12.8,16.5c2.3,3.6,1.5,8.3-1.9,10.9c-0.3,0.2-0.6,0.4-0.9,0.5l0,0
		c-1,0.3-4.1-0.3-4.9-0.8c-9.3-6.1-21.8-13.9-22.5-18.3c-0.4-2.5-7.3-31.2-7.3-31.2L319.5,271.6z"/>
	<path class="st8" d="M308.7,292c0,0.1,0.1,0.3,0.1,0.4l0.1,1.2c0.1,1.1,0.1,2.6,0.4,4.5c0.2,2.3,0.8,4.5,1.7,6.6
		c0.6,1.2,1.3,2.3,2.1,3.3c1,1.1,2,2.1,3.1,3c2.3,2,4,4.2,5.9,5.9c1.6,1.6,3.7,2.6,5.9,2.8c1.5,0.1,3-0.4,4.2-1.4
		c0.4-0.4,0.7-0.8,1-1.3c0,0.1-0.1,0.3-0.2,0.4c-0.2,0.4-0.5,0.7-0.8,1c-1.2,1.1-2.7,1.7-4.3,1.6c-2.3-0.2-4.5-1.2-6.2-2.9
		c-2-1.7-3.7-3.9-6-5.9c-1.1-1-2.1-2-3.1-3.1c-0.9-1-1.6-2.2-2.2-3.5c-0.9-2.1-1.5-4.4-1.7-6.7c-0.2-1.9-0.2-3.5-0.2-4.6
		c0-0.5,0-1,0-1.3C308.7,292.3,308.7,292.2,308.7,292z"/>
	<path class="st8" d="M313.5,304.1c0.9-1.1,2-2,3.3-2.7c1.2-0.8,2.6-1.3,4-1.5c0,0.1-1.8,0.7-3.8,1.9S313.6,304.2,313.5,304.1z"/>
	<path class="st8" d="M318.6,308.5c1.3-2.1,3.3-3.7,5.7-4.4c0.1,0.1-1.4,0.8-3,2C319.8,307.4,318.7,308.6,318.6,308.5z"/>
	<path class="st8" d="M322.1,314.2c0.9-2.3,2.6-4.3,4.9-5.4c0.1,0.1-1.3,1-2.6,2.5C323.1,312.8,322.3,314.3,322.1,314.2z"/>
	<path class="st8" d="M334.6,321.6c0,0,0,0.1-0.2,0.4c-0.2,0.3-0.4,0.6-0.7,0.9c-1,0.9-2.3,1.5-3.7,1.6c-2,0-4.1-0.5-5.8-1.5
		c-2-1-4.1-2.3-6.3-3.7c-3.7-2.4-7.2-5.2-10.5-8.3c-1.3-1.2-2.2-2.2-2.9-2.9c-0.4-0.4-0.7-0.7-1-1.1c0.4,0.3,0.8,0.6,1.1,1
		c0.7,0.7,1.7,1.6,3,2.7c3.3,3,6.8,5.7,10.5,8.1c2.2,1.4,4.3,2.7,6.3,3.8c1.7,1,3.6,1.5,5.6,1.6c1.3,0,2.6-0.5,3.6-1.4
		C334,322.4,334.3,322,334.6,321.6z"/>
	<path class="st8" d="M305.9,308.8c-0.4-0.7-0.6-1.4-0.8-2.1c-0.5-1.7-0.9-3.5-1.3-5.2c-0.3-1.8-0.5-3.6-0.6-5.4
		c-0.1-0.7-0.1-1.5,0-2.2c0.2,0.7,0.3,1.5,0.3,2.2c0.2,1.4,0.4,3.2,0.8,5.3c0.4,2.1,0.8,3.9,1.1,5.2
		C305.6,307.3,305.8,308,305.9,308.8z"/>
	<path class="st8" d="M203.7,168.6c-3.9,0.6-7.2,3.1-9,6.6c-2.1,3.8-2.2,8.6-1.1,12.7c0.9,4,4.1,7.1,8.1,7.8
		c4.2,0.8,8.7-0.3,12.8-0.9l16.2-2.2c2.8-0.4,2.4-4.8-0.4-4.4l-12.2,1.7c-3.8,0.5-7.7,1.2-11.5,1.5c-2.9,0.3-6.2,0.2-7.9-2.6
		c-1.6-2.8-1.6-6.5-0.9-9.4s3.1-5.9,6.3-6.4C206.9,172.6,206.5,168.2,203.7,168.6L203.7,168.6z"/>
	<path class="st1" d="M196,81.6c-3.8,0.1-6.7,3.3-7.5,6.9c-0.8,3.9,0.7,7.7,2.3,11.3c0.4,1.1,1.7,1.7,2.8,1.3
		c1.1-0.4,1.7-1.7,1.3-2.8c-1.1-2.6-2.5-5.5-2.2-8.2c0.1-0.6,0.2-1.2,0.4-1.7c0-0.1,0.4-0.8,0.3-0.5c0.2-0.2,0.4-0.5,0.5-0.7
		c0.1-0.1,0.2-0.2,0.1-0.1c0.1-0.1,0.2-0.2,0.3-0.3c0.1-0.1,0.3-0.2,0.4-0.3c0.2-0.1-0.2,0.1,0.1,0l0.4-0.2c0,0,0.4-0.1,0.2-0.1
		c-0.2,0,0.2,0,0.3,0l0.5,0c1.2-0.1,2.1-1.2,2-2.4C198.2,82.4,197.2,81.6,196,81.6L196,81.6z"/>
	<path class="st5" d="M186,96.6l55.1-8.9c6.9-1.1,13.4,3.6,14.5,10.5l9.5,58.4c1.1,6.9-3.6,13.4-10.5,14.5l-55.1,8.9
		c-6.9,1.1-13.4-3.6-14.5-10.5l-9.5-58.4C174.4,104.3,179.1,97.7,186,96.6z"/>
	<g class="st2">
		<path d="M186,96.6l55.1-8.9c6.9-1.1,13.4,3.6,14.5,10.5l9.5,58.4c1.1,6.9-3.6,13.4-10.5,14.5l-55.1,8.9
			c-6.9,1.1-13.4-3.6-14.5-10.5l-9.5-58.4C174.4,104.3,179.1,97.7,186,96.6z"/>
	</g>
	<path class="st5" d="M197.3,94.8l55.1-8.9c6.9-1.1,13.4,3.6,14.5,10.5l9.5,58.4c1.1,6.9-3.6,13.4-10.5,14.5l-55.1,8.9
		c-6.9,1.1-13.4-3.6-14.5-10.5l-9.5-58.4C185.7,102.4,190.4,95.9,197.3,94.8z"/>
	<path class="st9" d="M194.4,105.2c0,0-9,5.1-12.2,11.6c-3.1,6.5-13,26.8-13,26.8c-2.5,3.4-4.8,6.9-6.9,10.5
		c-1.4,2.7-11.2,17.2-10.5,22.5c0.1,0.5-5,8.2-5,8.2l16.1,8.7l5.1-8.4l1.6-0.6c1.5-0.6,2.8-1.7,3.7-3.1l13.7-23.4l10.9-19
		L194.4,105.2z"/>
	<path class="st8" d="M190.7,107.6c0.3,0.3,0.6,0.7,0.8,1.1c0.3,0.4,0.6,0.8,0.9,1.4c0.3,0.6,0.7,1.2,1.1,1.9
		c0.9,1.7,1.6,3.4,2.3,5.1c0.8,2.2,1.4,4.4,1.8,6.7c0.4,2.3,0.6,4.6,0.6,6.9c0,1.9-0.2,3.8-0.4,5.6c-0.1,0.8-0.3,1.5-0.4,2.1
		c-0.1,0.6-0.3,1.2-0.4,1.6c-0.1,0.5-0.2,0.9-0.4,1.3c0-0.5,0.1-0.9,0.2-1.4c0.1-0.4,0.2-1,0.3-1.6s0.2-1.3,0.3-2.1
		c0.2-1.8,0.3-3.7,0.3-5.6c0-2.3-0.2-4.5-0.6-6.8c-0.4-2.2-1-4.4-1.7-6.6c-0.6-1.8-1.3-3.5-2.2-5.1c-0.3-0.7-0.7-1.3-1-1.9
		c-0.3-0.6-0.6-1-0.8-1.4C191.1,108.5,190.9,108,190.7,107.6z"/>
	<path class="st8" d="M184.3,113.3c0.3,0.3,0.6,0.6,0.9,0.9c0.5,0.6,1.3,1.5,2.1,2.6c1,1.3,1.9,2.7,2.8,4.1c1,1.8,1.9,3.6,2.7,5.4
		c0.8,1.9,1.4,3.8,2,5.7c0.4,1.6,0.8,3.2,1,4.9c0.2,1.4,0.3,2.5,0.3,3.3c0,0.4,0.1,0.8,0,1.2c-0.1-0.4-0.2-0.8-0.2-1.2
		c-0.1-0.8-0.3-1.9-0.5-3.3c-0.3-1.4-0.6-3-1.1-4.8c-0.6-1.9-1.2-3.8-2-5.6c-0.8-1.8-1.7-3.6-2.7-5.4c-0.8-1.4-1.7-2.8-2.7-4.1
		c-0.8-1.1-1.5-2.1-2-2.7C184.8,114,184.5,113.6,184.3,113.3z"/>
	<path class="st5" d="M166.9,146.8c4.9,6.2,12.1,11,20,11.4l1.8-3.1c-8-0.4-15.3-4.6-19.7-11.4L166.9,146.8z"/>
	<path class="st8" d="M189.7,153.3c-0.3,0-0.6,0-0.9,0c-0.8-0.1-1.7-0.2-2.5-0.4c-2.7-0.7-5.2-1.8-7.6-3.3c-2.3-1.5-4.4-3.3-6.3-5.3
		c-0.8-0.8-1.3-1.4-1.7-1.9c-0.2-0.2-0.4-0.5-0.5-0.7c0-0.1,0.9,0.9,2.4,2.4c1.9,1.9,4.1,3.6,6.3,5.1c2.3,1.5,4.8,2.6,7.4,3.4
		C188.4,153.1,189.7,153.2,189.7,153.3z"/>
	<path class="st8" d="M184.8,160.8c-0.3,0-0.6,0-0.9,0c-0.8-0.1-1.7-0.2-2.5-0.4c-2.7-0.7-5.3-1.8-7.6-3.3c-2.3-1.5-4.4-3.3-6.3-5.3
		c-0.8-0.8-1.3-1.4-1.7-1.9c-0.2-0.2-0.4-0.5-0.5-0.7c0-0.1,0.9,0.9,2.4,2.4c1.9,1.9,4.1,3.6,6.3,5.1c2.3,1.5,4.8,2.6,7.4,3.4
		C183.5,160.6,184.8,160.7,184.8,160.8z"/>
	<path class="st5" d="M183.2,124.6c-0.4-0.7-1-1.3-1.7-1.8c-0.7-0.5-1.6-0.5-2.3,0c-0.3,0.3-0.6,0.7-0.8,1.2l-4,8.4
		c-0.2,0.5-0.4,1-0.5,1.5c0,0.8,0.4,1.5,1,1.9c1.4,0.9,3.1,0.9,4.5,0c1.3-0.9,2.3-2.2,2.9-3.6C183.5,129.7,184.6,126.6,183.2,124.6z
		"/>
	<path class="st8" d="M165.5,187.2c-0.3-0.1-0.5-0.2-0.7-0.3l-1.9-1c-1.6-0.9-3.9-2.1-6.4-3.6l-0.2-0.1l0.1-0.2l0.9-1.6
		c0.1-0.2,0.2-0.4,0.4-0.6l0.1-0.2l0.2,0.1c2.8,1.5,5.4,2.8,7.2,3.8c0.9,0.5,1.6,0.9,2.1,1.2l0.6,0.3c0.1,0,0.1,0,0.1,0.1
		c0,0.1,0.1,0,0.1,0c0,0,0,0,0,0s-0.1,0-0.2,0l-0.6-0.3c-0.5-0.2-1.3-0.6-2.2-1.1c-1.9-0.9-4.4-2.2-7.3-3.7l0.3-0.1
		c-0.1,0.2-0.2,0.4-0.4,0.6c-0.3,0.6-0.6,1.1-0.9,1.6l-0.1-0.3c2.5,1.5,4.8,2.8,6.4,3.7l1.9,1.1
		C165.1,186.9,165.3,187.1,165.5,187.2z"/>
	<path class="st8" d="M149.4,180.7c0-0.1,3.6,1.8,8,4.3c4.3,2.5,7.8,4.6,7.7,4.7c-2.7-1.3-5.4-2.7-8-4.3
		C154.5,184,151.9,182.4,149.4,180.7z"/>
	<path class="st8" d="M146.6,186.7l14.3,8.2c0.6,0.3,1.3,0.1,1.6-0.4l0,0c0.3-0.6,0.1-1.3-0.4-1.6l-14.3-8.1
		c-0.6-0.3-1.3-0.1-1.6,0.4c0,0,0,0,0,0l0,0C145.8,185.7,146,186.4,146.6,186.7C146.6,186.7,146.6,186.7,146.6,186.7z"/>
	<path class="st8" d="M161.3,194.3c0,0,1.9,6.1,1.4,9.8s-1,6.5-2.8,7.3s-3.4,0.4-3.2-1.5s1-2.9,0.4-5.2c-0.6-2.3-1.2-2.8-1.2-2.8
		s-3.8,5.5-3.4,7.4c0.4,1.9,3.7,6.7,0.9,7.5c-2.8,0.8-5-2.3-5-2.3s-2.9,2-5.1-1.5c-2.5-1-4.2-3.4-4.2-6c0,0-3.3-1.1-2.6-4.1
		c1.1-3.9,2.9-7.6,5.1-11c0.9-1.2,2-2.4,3.1-3.5c0-0.2,2.1-2.5,2.1-2.5L161.3,194.3z"/>
	<path class="st1" d="M146.9,204.5c-0.7,3.3-0.3,6.8,1.3,9.9c0,0-0.4-0.4-0.9-1.2c-0.6-1.1-1-2.3-1.1-3.5c-0.2-1.2-0.1-2.5,0.1-3.7
		C146.5,205.4,146.7,204.9,146.9,204.5z"/>
	<path class="st1" d="M143.2,200.8c-0.7,1.9-1.1,4-1.2,6.1c0.1,2.1,0.4,4.1,1.1,6c-0.4-0.5-0.7-1-0.8-1.6c-0.5-1.4-0.7-2.9-0.7-4.4
		c0-1.5,0.3-3,0.8-4.3C142.5,201.9,142.8,201.3,143.2,200.8z"/>
	<path class="st1" d="M141.2,198.5c0.1,0-0.7,1.9-1.3,4.3c-0.6,2.4-0.8,4.4-0.9,4.4c-0.1-1.5,0-3.1,0.5-4.5
		C139.7,201.2,140.3,199.8,141.2,198.5z"/>
	<path class="st1" d="M140.3,194.3c0-0.1,0.8,1,2.4,2.4c2.2,1.9,4.6,3.4,7.2,4.8l-0.3,0.1c0.6-1,1.2-2,1.9-3
		c0.8-1.1,1.6-2.1,2.5-3.1l0,0.3c-2.4-1.4-4.8-3-7-4.8c-0.8-0.6-1.5-1.2-1.9-1.6c-0.2-0.2-0.4-0.4-0.6-0.6c0.3,0.1,0.5,0.3,0.7,0.5
		l1.9,1.5c2.2,1.7,4.6,3.2,7,4.6l0.2,0.1l-0.2,0.2c-1.7,1.8-3.2,3.8-4.4,6l-0.1,0.2l-0.2-0.1c-2.6-1.3-5-3-7.2-5
		c-0.6-0.6-1.2-1.2-1.7-1.9C140.6,194.8,140.4,194.5,140.3,194.3z"/>
	<path class="st1" d="M157,209c0,0,0.2-0.3,0.6-0.5c0.6-0.2,1.2-0.2,1.8,0c0.6,0.2,1.1,0.7,1.4,1.2c0.2,0.4,0.2,0.7,0.1,0.7
		c-0.1,0-0.2-0.2-0.4-0.6c-0.6-0.9-1.7-1.3-2.8-1.1C157.2,208.9,157,209,157,209z"/>
	<path class="st1" d="M150.2,216.3c-0.1,0-0.2-0.3-0.1-0.9c0-0.7,0.3-1.4,0.7-2c0.4-0.6,1-1,1.7-1.2c0.5-0.2,0.9-0.1,0.9-0.1
		c-0.8,0.4-1.6,0.9-2.2,1.6C150.7,214.6,150.4,215.4,150.2,216.3z"/>
	<path class="st1" d="M161.6,195.1c-0.8-0.3-1.6-0.8-2.3-1.2l-5.5-3.1l-5.5-3.2c-0.8-0.4-1.5-0.9-2.2-1.4c0.8,0.3,1.6,0.7,2.4,1.1
		c1.4,0.8,3.4,1.8,5.6,3.1s4.1,2.4,5.5,3.3C160.2,194,160.9,194.5,161.6,195.1z"/>
	<path class="st9" d="M197.1,142.2c0.1,0.3,10.3,32.4,10.3,32.4s2.8,21.2,6.1,28l66.2-25.7l-7.1-23l-8.4-61.7l-9.1,0.2
		c0,0-45.2,7.9-51.2,9.1c-3.4,0.6-6.6,1.8-9.4,3.6C194.4,105.2,192.1,130.1,197.1,142.2z"/>
	<g class="st2">
		<path d="M216.8,129.9l31.9-5.9c3.2-0.6,6.4,1.5,7,4.8l4.7,25.2c0.6,3.2-1.5,6.4-4.8,7l-31.9,5.9c-3.2,0.6-6.4-1.5-7-4.8l-4.7-25.2
			C211.4,133.7,213.6,130.5,216.8,129.9z"/>
	</g>
	<path class="st1" d="M199,102.9c10,5,13.6,16.6,16.7,26.6c0.8,2.7,5,1.2,4.1-1.6c-3.5-11.2-7.8-23.4-19-29
		C198.3,97.6,196.4,101.6,199,102.9L199,102.9z"/>
	<path class="st10" d="M217.7,128.4l31.9-5.9c3.2-0.6,6.4,1.5,7,4.8l4.7,25.2c0.6,3.2-1.5,6.4-4.8,7l-31.9,5.9
		c-3.2,0.6-6.4-1.5-7-4.8l-4.7-25.2C212.4,132.2,214.5,129,217.7,128.4z"/>
	<path class="st8" d="M256.6,159.4c0.5-0.1,1-0.3,1.5-0.5c1.3-0.7,2.4-1.8,2.9-3.2c0.4-1,0.5-2.1,0.3-3.1l-0.7-3.8l-1.7-9.3
		l-2.1-11.2c-0.1-1-0.4-2-0.9-2.9c-1.1-1.9-3.1-3-5.3-2.9c-0.6,0-1.1,0.1-1.6,0.2l-1.7,0.3l-29.4,5.5c-2.6,0.5-4.5,2.6-4.7,5.2
		c0,0.6,0,1.2,0.2,1.8l0.4,1.9l0.7,3.7c0.9,4.9,1.8,9.7,2.6,14.2c0.2,1.1,0.4,2.2,0.6,3.4c0.1,1.1,0.4,2.1,0.8,3.1
		c0.9,1.9,2.8,3.1,4.9,3.2c1,0,2-0.1,2.9-0.4l2.9-0.5l5.4-1l16.1-2.8l4.4-0.8l1.1-0.2L256.6,159.4c-0.2,0-0.3,0.1-0.4,0.1l-1.1,0.2
		l-4.4,0.9l-16.2,3.1l-5.4,1l-2.9,0.5c-1,0.2-2,0.4-3,0.4c-2.2-0.1-4.2-1.4-5.2-3.4c-0.2-0.5-0.4-1.1-0.5-1.6l-0.3-1.6
		c-0.2-1.1-0.4-2.2-0.6-3.3c-0.8-4.5-1.7-9.3-2.7-14.2l-0.7-3.7l-0.4-1.9c-0.1-0.6-0.2-1.3-0.2-2c0.1-1.4,0.6-2.7,1.5-3.7
		c0.9-1,2.1-1.7,3.5-2l29.4-5.5l1.7-0.3c0.6-0.1,1.1-0.2,1.7-0.2c2.3-0.1,4.5,1.1,5.6,3.1c0.5,0.9,0.8,2,0.9,3l2.1,11.1l1.7,9.3
		c0.2,1.4,0.4,2.6,0.7,3.8c0.2,1.1,0,2.2-0.4,3.2c-0.6,1.4-1.7,2.6-3,3.2C257.6,159.2,257.1,159.4,256.6,159.4z"/>
	<path class="st9" d="M235.7,148.2l-13.4,2.5c-1,0.2-1.9-0.4-2.1-1.4c0,0,0,0,0-0.1l0,0c-0.2-1,0.4-1.9,1.4-2.1c0,0,0,0,0.1,0
		l13.4-2.5c1-0.2,1.9,0.4,2.1,1.4c0,0,0,0,0,0l0,0C237.3,147,236.7,148,235.7,148.2C235.7,148.2,235.7,148.2,235.7,148.2z"/>
	<path class="st9" d="M224,154.2c0.2,0.8-0.4,1.6-1.2,1.8c-0.8,0.2-1.6-0.4-1.8-1.2c-0.2-0.8,0.4-1.6,1.2-1.8c0,0,0,0,0,0
		C223.1,152.8,223.9,153.4,224,154.2z"/>
	<path class="st9" d="M229.1,153.3c0.2,0.8-0.4,1.6-1.2,1.8c-0.8,0.2-1.6-0.4-1.8-1.2c-0.2-0.8,0.4-1.6,1.2-1.8c0,0,0,0,0,0
		C228.1,151.9,228.9,152.4,229.1,153.3z"/>
	<path class="st9" d="M233.9,152.3c0.2,0.8-0.4,1.6-1.2,1.8c-0.8,0.2-1.6-0.4-1.8-1.2c-0.2-0.8,0.4-1.6,1.2-1.8c0,0,0,0,0,0
		C233,151,233.8,151.5,233.9,152.3z"/>
	<path class="st9" d="M238.8,151.4c0.1,0.8-0.4,1.6-1.2,1.7c-0.8,0.1-1.6-0.4-1.7-1.2c-0.1-0.8,0.4-1.6,1.2-1.7
		C237.8,150.1,238.6,150.6,238.8,151.4C238.8,151.4,238.8,151.4,238.8,151.4z"/>
	<path class="st9" d="M233.4,136.5L220,139c-1,0.2-1.9-0.4-2.1-1.4c0,0,0,0,0-0.1l0,0c-0.2-1,0.4-1.9,1.4-2.1c0,0,0,0,0.1,0
		l13.4-2.5c1-0.2,1.9,0.4,2.1,1.4c0,0,0,0,0,0.1l0,0C235,135.3,234.4,136.3,233.4,136.5C233.4,136.5,233.4,136.5,233.4,136.5z"/>
	<path class="st1" d="M221.8,142.5c0.1,0.8-0.4,1.6-1.2,1.7c-0.8,0.1-1.6-0.4-1.7-1.2s0.4-1.6,1.2-1.7c0,0,0,0,0,0
		C220.8,141.2,221.6,141.7,221.8,142.5z"/>
	<path class="st5" d="M226.8,141.6c0.2,0.8-0.4,1.6-1.2,1.8s-1.6-0.4-1.8-1.2c-0.2-0.8,0.4-1.6,1.2-1.8c0,0,0,0,0,0
		C225.9,140.2,226.6,140.8,226.8,141.6z"/>
	<path class="st1" d="M231.7,140.7c0.2,0.8-0.4,1.6-1.2,1.8c-0.8,0.2-1.6-0.4-1.8-1.2c-0.2-0.8,0.4-1.6,1.2-1.8c0,0,0,0,0,0
		C230.7,139.3,231.5,139.8,231.7,140.7z"/>
	<path class="st5" d="M236.5,139.8c0.1,0.8-0.4,1.6-1.2,1.7s-1.6-0.4-1.7-1.2c-0.1-0.8,0.4-1.6,1.2-1.7
		C235.6,138.4,236.4,138.9,236.5,139.8C236.5,139.8,236.5,139.8,236.5,139.8z"/>
	<path class="st5" d="M207.9,177.7c0,0,19.7,0.6,39.7-5.2s26.9-12,26.9-12l2.2,7.2c0,0-21.3,16.1-68,17.3
		C208.8,184.9,207.1,179.5,207.9,177.7z"/>
	<path class="st8" d="M239.5,124.4c0.1,0.2,0.1,0.4,0.2,0.6c0.1,0.4,0.2,1,0.4,1.7l1.2,6.3c1,5.3,2.3,12.6,3.8,20.7
		c0.1,0.6,0.2,1.3,0.3,1.8l0,0.2l-0.2,0l-19.5,3.4l-5.8,1l-1.6,0.2c-0.2,0-0.4,0.1-0.6,0.1c0.2-0.1,0.4-0.1,0.5-0.1l1.6-0.3l5.8-1.1
		l19.4-3.6l-0.2,0.3c-0.1-0.6-0.2-1.2-0.3-1.8l-3.7-20.7c-0.4-2.6-0.8-4.8-1.1-6.3l-0.3-1.7C239.5,124.8,239.5,124.6,239.5,124.4z"
		/>
	<g class="st2">
		<polygon points="245.1,155.5 244.5,156.6 217.9,161.7 217.6,160.4 		"/>
	</g>
	<path class="st8" d="M244.1,129.5l7.6-1.4c0.8-0.1,1.6,0.4,1.7,1.2l1.4,7.6c0.1,0.8-0.4,1.6-1.2,1.7l-7.6,1.4
		c-0.8,0.1-1.6-0.4-1.7-1.2l-1.4-7.6C242.8,130.4,243.3,129.6,244.1,129.5z"/>
	<path class="st8" d="M255.4,143.4l-8.6,1.4c-0.7,0.1-1.5-0.4-1.6-1.1c0,0,0,0,0-0.1l0,0c-0.1-0.7,0.4-1.4,1.1-1.6c0,0,0,0,0.1,0
		l8.6-1.4c0.7-0.1,1.5,0.4,1.6,1.1c0,0,0,0,0,0.1l0,0C256.7,142.5,256.2,143.2,255.4,143.4C255.5,143.4,255.5,143.4,255.4,143.4z"/>
	<path class="st8" d="M260.2,147.9c-2.6,0.7-5.3,1.3-7.9,1.7c-2.6,0.5-5.3,1-8,1.2c2.6-0.7,5.3-1.3,7.9-1.7
		C254.8,148.6,257.5,148.1,260.2,147.9z"/>
	<path class="st5" d="M251.1,155.2c-0.3,0.8-1.1,1.2-1.8,0.9c-0.8-0.3-1.2-1.1-0.9-1.8c0.3-0.8,1.1-1.2,1.8-0.9c0,0,0,0,0,0
		C251,153.6,251.4,154.4,251.1,155.2z"/>
	<path class="st1" d="M256.5,154.4c-0.3,0.8-1.1,1.2-1.9,0.9c-0.8-0.3-1.2-1.1-0.9-1.9l0,0c0.3-0.8,1.1-1.2,1.9-0.9
		C256.3,152.8,256.7,153.7,256.5,154.4z"/>
	<polygon class="st9" points="216.1,177.4 217.5,185.3 222.3,184.8 221,176 	"/>
	<polygon class="st9" points="263.3,166.2 267,173.3 271.5,171.4 267.6,163.4 	"/>
	<path class="st8" d="M273.1,157c-0.2,0.1-0.4,0.3-0.6,0.4c-0.4,0.2-1,0.6-1.7,1c-0.7,0.4-1.7,0.9-2.8,1.5s-2.3,1.2-3.7,1.9
		s-2.9,1.4-4.6,2.1s-3.5,1.4-5.4,2.2c-3.8,1.5-8.1,2.9-12.6,4.2c-4.5,1.3-8.9,2.3-13,3c-2,0.4-3.9,0.7-5.7,0.9
		c-1.8,0.2-3.5,0.5-5,0.6c-1.5,0.2-2.9,0.3-4.2,0.4c-1.2,0.1-2.3,0.2-3.1,0.2l-2,0.1c-0.2,0-0.5,0-0.7,0c0.2-0.1,0.5-0.1,0.7-0.1
		l2-0.2c0.9,0,1.9-0.1,3.1-0.3c1.2-0.1,2.6-0.2,4.1-0.5c1.5-0.2,3.2-0.4,5-0.7c1.8-0.3,3.7-0.6,5.7-1c4-0.8,8.4-1.8,12.9-3.1
		c4.5-1.3,8.8-2.7,12.6-4.2c1.9-0.7,3.7-1.4,5.4-2.2c1.7-0.7,3.2-1.4,4.6-2c1.4-0.6,2.7-1.3,3.8-1.8c1.1-0.5,2-1,2.8-1.4l1.8-0.9
		C272.7,157.2,272.9,157.1,273.1,157z"/>
	<path class="st8" d="M213.2,174.6c-0.1,0-3.5-8.8-7.5-19.8c-4-11-7.2-19.9-7.1-19.9c0.1,0,3.5,8.8,7.5,19.7
		C210.1,165.6,213.3,174.5,213.2,174.6z"/>
	<path class="st8" d="M265.6,120c0.1,0.5,0.1,1,0.1,1.6c0,1.1,0.1,2.5,0.1,4.3c0.1,3.6,0.3,8.6,0.8,14.1c0.5,5.5,1.1,10.5,1.6,14
		c0.3,1.7,0.5,3.2,0.6,4.2c0.1,0.5,0.2,1,0.2,1.6c-0.2-0.5-0.3-1-0.4-1.5c-0.2-1-0.5-2.4-0.8-4.2c-0.6-3.6-1.3-8.5-1.8-14.1
		c-0.5-5.5-0.6-10.5-0.7-14.2c0-1.8,0-3.3,0-4.3C265.5,121.1,265.5,120.5,265.6,120z"/>
	
		<rect x="228.9" y="175.9" transform="matrix(0.9921 -0.1251 0.1251 0.9921 -20.6461 30.4475)" class="st8" width="6.6" height="7.5"/>
	<path class="st9" d="M251.8,81.4c-6,16.9-23.7,23.6-40.6,17.6s-26.5-22.3-20.6-39.2c6.2-16.8,24.9-25.4,41.7-19.2
		C248.8,46.7,257.4,64.7,251.8,81.4z"/>
	<path class="st8" d="M251.8,81.4c0,0,0-0.2,0.1-0.5c0.1-0.3,0.2-0.9,0.4-1.5c0.1-0.3,0.2-0.7,0.3-1.1c0.1-0.4,0.2-0.9,0.2-1.3
		c0.2-1.1,0.4-2.2,0.5-3.3c0-0.6,0.1-1.3,0.1-2s0-1.4,0-2.2c0-0.8-0.1-1.6-0.2-2.4c-0.1-0.9-0.2-1.7-0.4-2.6
		c-0.8-4-2.3-7.8-4.5-11.3c-4.1-6.6-10.5-11.4-18-13.5c-2.8-0.8-5.7-1.3-8.6-1.4l-2.3,0c-0.7,0-1.5,0.2-2.3,0.2l-1.1,0.1l-1.1,0.2
		c-0.8,0.2-1.5,0.3-2.3,0.5c-3.1,0.9-6,2.1-8.7,3.8l-2,1.4c-0.6,0.5-1.3,1-1.9,1.6c-0.6,0.5-1.2,1.1-1.8,1.7l-0.9,0.9
		c-0.3,0.3-0.5,0.6-0.8,1c-0.5,0.7-1.1,1.3-1.6,2l-1.3,2.1c-0.9,1.5-1.6,3-2.3,4.6c-2.6,6.2-3,13.2-1.1,19.6
		c1.9,6,5.6,11.2,10.6,15.1c2.3,1.8,4.8,3.3,7.5,4.5l2,0.8l1,0.4l1,0.3l1.9,0.6c0.7,0.2,1.3,0.3,2,0.4c2.5,0.5,5.1,0.8,7.6,0.8
		l1.8-0.1c0.6,0,1.2-0.1,1.8-0.2c1.1-0.1,2.3-0.3,3.4-0.6c4-0.9,7.7-2.6,11-5.1c2.5-1.8,4.6-4.1,6.3-6.6c0.4-0.5,0.7-1,1-1.5
		c0.3-0.5,0.5-0.9,0.8-1.4s0.5-0.8,0.6-1.2s0.3-0.7,0.4-1c0.3-0.6,0.5-1.1,0.6-1.4C251.8,81.5,251.8,81.4,251.8,81.4
		c0,0,0,0.2-0.2,0.5c-0.1,0.3-0.3,0.8-0.6,1.4c-0.1,0.3-0.3,0.7-0.4,1c-0.1,0.4-0.4,0.8-0.6,1.2c-0.2,0.4-0.5,0.9-0.7,1.4
		c-0.3,0.5-0.6,1-1,1.5c-1.7,2.6-3.8,4.9-6.3,6.7c-3.3,2.5-7.1,4.3-11.1,5.2c-1.1,0.3-2.3,0.5-3.4,0.6c-0.6,0.1-1.2,0.1-1.8,0.2
		l-1.8,0.1c-2.6,0-5.2-0.2-7.7-0.8c-0.7-0.1-1.3-0.2-2-0.4l-2-0.6l-1-0.3l-1-0.4l-2-0.8c-2.7-1.2-5.2-2.7-7.6-4.5
		c-5.1-3.9-8.9-9.2-10.8-15.3c-2-6.6-1.6-13.6,1.1-19.9c0.7-1.6,1.4-3.2,2.3-4.7c0.5-0.7,1-1.4,1.4-2.1c0.5-0.7,1-1.4,1.6-2
		c0.3-0.3,0.5-0.7,0.8-1l0.9-0.9c0.6-0.6,1.2-1.2,1.8-1.7l1.9-1.6l2-1.4c2.7-1.7,5.7-3,8.8-3.9c0.8-0.2,1.5-0.3,2.3-0.5l1.2-0.2
		l1.2-0.1c0.8-0.1,1.5-0.2,2.3-0.2l2.3,0c3,0.1,5.9,0.5,8.7,1.4c7.5,2.2,14,7.1,18.1,13.7c2.2,3.5,3.7,7.3,4.5,11.4
		c0.2,0.9,0.3,1.7,0.4,2.6c0.1,0.8,0.2,1.6,0.2,2.4c0,0.8,0,1.5,0,2.2c0,0.7-0.1,1.4-0.2,2c-0.1,1.1-0.3,2.2-0.5,3.3
		c-0.1,0.5-0.2,0.9-0.3,1.3c-0.1,0.4-0.2,0.7-0.3,1.1c-0.2,0.6-0.4,1.1-0.5,1.5S251.8,81.4,251.8,81.4z"/>
	<g class="st2">
		<path d="M236.3,41.8c0,0-35.7-7.9-36.4,32.2l0,0c1.8,5.3,5.4,9.8,10.2,12.7c9.6,5.7,26.2,11.7,40.6-3.1l0.7-1
			C251.4,82.6,262.1,56.9,236.3,41.8z"/>
	</g>
	<path class="st8" d="M214.3,83c-2.2-3.1-4-6.4-5.6-9.9c-1.6-3.5-2.3-7.2-2-11c0.1-0.6,0.8-4.5,1.3-4.6c0.4-0.1,0.3,3.5,0.6,3.7
		c2.7,2.9,4.5,6.5,5.1,10.4C214.3,75.4,214.5,79.2,214.3,83"/>
	<path class="st11" d="M234.9,92.4c0,0,8.2-1.2,10.1-4.4c1.2-2.2,1.5-4.7,1-7.1c-0.9-4.3-3.3-13.1-5.7-20.9
		c-2.5-8.5-11.1-13.6-19.8-11.7l-0.9,0.2c-9.2,2.5-12.1,11.7-9.4,20.8l6.3,20.6c0,0,5.7,2.5,9.7,2.8C229.1,92.7,232,92.7,234.9,92.4
		z"/>
	<path class="st8" d="M239.7,69c0.2,0.7-0.2,1.4-0.9,1.6c0,0,0,0,0,0c-0.7,0.2-1.4-0.2-1.5-0.8c0,0,0,0,0,0c-0.2-0.7,0.3-1.4,1-1.5
		C238.8,68,239.5,68.3,239.7,69C239.7,69,239.7,69,239.7,69z"/>
	<path class="st8" d="M239.2,64.3c-0.1,0.2-1.2-0.3-2.6,0c-1.4,0.3-2.2,1.2-2.4,1.1c-0.2-0.1,0-0.4,0.4-0.8c0.5-0.5,1.2-0.9,1.9-1.1
		c0.7-0.2,1.4-0.1,2.1,0.2C239,63.9,239.2,64.2,239.2,64.3z"/>
	<path class="st8" d="M227.5,72.1c0.2,0.7-0.3,1.4-1,1.5c-0.7,0.2-1.4-0.2-1.5-0.8c0,0,0,0,0,0c-0.2-0.7,0.3-1.4,1-1.5
		C226.6,71,227.3,71.4,227.5,72.1C227.5,72.1,227.5,72.1,227.5,72.1z"/>
	<path class="st8" d="M225.8,67.4c-0.1,0.2-1.2-0.3-2.6,0c-1.4,0.3-2.2,1.2-2.4,1.1c-0.2-0.1,0-0.4,0.4-0.8c0.5-0.5,1.2-0.9,1.9-1
		c0.7-0.2,1.5-0.1,2.1,0.2C225.7,67.1,225.9,67.4,225.8,67.4z"/>
	<path class="st8" d="M233,76.9c0.7-0.4,1.4-0.7,2.1-0.9c0.4-0.1,0.7-0.2,0.7-0.5c0-0.2-0.2-0.6-0.5-1l-1.6-2.4
		c-2.2-3.5-3.9-6.4-3.8-6.5s2.1,2.7,4.3,6.1c0.6,0.9,1.1,1.7,1.6,2.5c0.3,0.4,0.5,0.8,0.5,1.3c0,0.3-0.2,0.5-0.5,0.6
		c-0.2,0.1-0.4,0.2-0.6,0.2C234.5,76.7,233.7,76.9,233,76.9z"/>
	<path class="st8" d="M225.4,63.1c-0.1,0.4-1.5,0.3-3.1,0.6c-1.6,0.3-2.9,0.8-3.2,0.5c-0.1-0.2,0.1-0.5,0.6-0.9
		c1.4-1,3.2-1.3,4.8-0.9C225.1,62.6,225.4,62.9,225.4,63.1z"/>
	<path class="st8" d="M238.4,60.3c-0.2,0.4-1.4,0.3-2.7,0.6s-2.4,0.8-2.8,0.5c-0.1-0.1,0-0.5,0.4-0.9c0.6-0.5,1.3-0.9,2.1-1
		c0.8-0.2,1.6-0.1,2.3,0.1C238.2,59.8,238.5,60.1,238.4,60.3z"/>
	<path class="st11" d="M212.3,75.6c-0.2,0-6.5-0.5-5,5.5s7.7,3.1,7.6,2.9C214.9,83.9,212.3,75.6,212.3,75.6z"/>
	<path class="st12" d="M212.1,82.4c0,0-0.1,0.1-0.2,0.2c-0.2,0.2-0.5,0.2-0.8,0.2c-0.9-0.3-1.6-1.1-1.8-2c-0.1-0.5-0.2-1.1-0.1-1.6
		c0-0.4,0.2-0.8,0.6-1c0.2-0.1,0.5-0.1,0.7,0.1c0.1,0.1,0.1,0.3,0.1,0.3c0,0,0.1-0.1,0-0.4c-0.1-0.1-0.2-0.3-0.3-0.3
		c-0.2-0.1-0.4-0.1-0.6,0c-0.5,0.2-0.8,0.7-0.9,1.2c-0.1,0.6-0.1,1.2,0,1.8c0.3,1.2,1.2,2.2,2.2,2.2c0.4,0,0.7-0.1,1-0.4
		C212.2,82.6,212.2,82.4,212.1,82.4z"/>
	<path class="st8" d="M233.8,51c0.8-0.8-2.9-3.2-5.6-3.7c-4-0.7-9.8-0.3-12.9,1.5c-3.7,2.2-6.6,5-7.7,9.2c-1,4.2-0.9,8.6,0.4,12.8
		c0.3,1.3,0.9,2.5,1.8,3.5c1.2,1.1,3,1.5,3.4,3.4c0.1,0.7,0.5,1.3,1.1,1.7c1.4,0.9,2.5-0.6,2.8-1.8c0.7-2.7,0.2-5.6-0.4-8.3
		c-0.3-2-0.9-3.9-1.8-5.6c-0.6-0.9-1.3-1.8-1.8-2.7c-0.6-0.9-0.7-2.1-0.4-3.1c0.1-0.2,0.2-0.4,0.4-0.6c1.3-1.9,3.6-3,5.9-2.8
		c3.7,0.3,10,0.7,11.2-0.9c0.9-1,1.6-2.2,2-3.4L233.8,51z"/>
	<g class="st2">
		<path d="M249.1,94.4l-39.3,9.2c3.1,2,6.7,3,10.4,3.1c3.7,0.1,7.3-0.2,10.9-0.9c3-0.4,5.9-1,8.7-2c2.8-1,5.3-2.7,7.2-5
			C247.9,97.5,248.6,96,249.1,94.4z"/>
	</g>
	<path class="st9" d="M206,99.2l-0.3-1.3l1.1-0.9c0,0,6.4,3.4,20.8,1.6c15.2-1.9,18.9-8.1,18.9-8.1l1.6-0.2l0.9,3.6
		c0,0-4.6,9.3-22.5,10.8c-8.7,0.7-13.7,0-16.5-1C208,103.1,206.5,101.4,206,99.2z"/>
	<path class="st8" d="M206,99.2c0,0,0.1,0.3,0.3,1c0.4,0.9,0.9,1.6,1.6,2.3c0.5,0.4,1.1,0.8,1.7,1.1c0.8,0.3,1.5,0.5,2.3,0.7
		c1.9,0.4,3.9,0.6,5.9,0.7c2.4,0.1,4.8,0,7.2-0.2c2.7-0.2,5.5-0.6,8.2-1.2c3-0.7,5.8-1.7,8.5-3.2c1.4-0.8,2.7-1.7,3.9-2.7
		c1.3-1.1,2.3-2.3,3.2-3.7l0,0.2l-0.2-0.8l-0.7-2.9l0.2,0.2l-1.6,0.2l0.2-0.1c-0.7,1-1.7,1.9-2.7,2.6c-1,0.7-2,1.3-3.1,1.9
		c-2.1,1-4.2,1.8-6.5,2.4c-4,1-8,1.6-12.1,1.7c-7.4,0.3-13-0.8-15.6-2.1l0.1,0l-1.1,0.9l0-0.1l0.2,1C205.9,99,205.9,99.1,206,99.2
		c-0.1-0.1-0.1-0.2-0.1-0.3c-0.1-0.2-0.2-0.6-0.3-1l0,0l0,0l1.1-0.9l0,0l0,0c2.7,1.2,8.2,2.3,15.6,1.9c4-0.2,8-0.8,12-1.8
		c2.2-0.6,4.3-1.4,6.4-2.4c1.1-0.5,2.1-1.2,3-1.9c1-0.7,1.9-1.5,2.6-2.5l0.1-0.1l0.1,0l1.6-0.2l0.2,0l0.1,0.2
		c0.2,0.9,0.5,1.9,0.7,2.9l0.2,0.7l0,0.1l0,0.1c-1.8,2.8-4.3,5.1-7.3,6.7c-2.7,1.5-5.6,2.6-8.6,3.2c-2.7,0.6-5.5,1-8.3,1.2
		c-2.4,0.2-4.8,0.2-7.2,0.1c-2-0.1-4-0.3-5.9-0.7c-0.8-0.2-1.6-0.4-2.3-0.7c-1.5-0.7-2.7-1.9-3.3-3.5
		C205.9,99.9,205.9,99.6,206,99.2z"/>
	<path class="st8" d="M236.3,41.8c0,0,1.1,0.6,3,1.8l1.6,1.1l1.8,1.4c0.6,0.5,1.3,1.1,2,1.8c0.7,0.7,1.4,1.4,2,2.2
		c3.3,3.8,5.6,8.5,6.6,13.4c0.6,3,0.8,6.1,0.6,9.2c-0.2,3.4-1,6.8-2.2,9.9l0,0l-0.7,1l0,0l0,0c-3.8,4.1-8.7,7-14.1,8.5
		c-5.9,1.3-12.1,0.9-17.8-1.2c-2.7-0.9-5.3-2.1-7.8-3.5c-4.9-2.6-8.7-6.7-10.8-11.9c-0.1-0.3-0.3-0.6-0.4-0.9l-0.2-0.5l0-0.1l0,0
		c0,0,0-0.2,0-0.1l0-0.1l0-0.2c0-0.6,0.1-1.3,0.1-1.9c0-1.3,0.2-2.5,0.4-3.8c0.1-1.2,0.4-2.5,0.6-3.7c0.2-1.2,0.6-2.4,0.9-3.5
		c0.2-0.6,0.4-1.1,0.6-1.7l0.3-0.8l0.3-0.8c0.2-0.6,0.5-1.1,0.7-1.6c0.3-0.5,0.5-1,0.8-1.5c0.1-0.2,0.3-0.5,0.4-0.7l0.5-0.7
		c0.3-0.4,0.6-0.9,0.9-1.4c0.6-0.8,1.2-1.7,1.9-2.4c0.7-0.7,1.4-1.4,2.2-2.1c0.8-0.6,1.5-1.2,2.4-1.7c0.8-0.5,1.6-1,2.4-1.4
		c0.8-0.4,1.6-0.8,2.4-1c1.5-0.6,3.1-1,4.6-1.3c2.5-0.5,5.1-0.7,7.7-0.6c1.6,0,3.2,0.2,4.8,0.4c0.5,0.1,1,0.2,1.2,0.2L236.3,41.8
		l-0.5-0.1l-1.2-0.2c-1.6-0.2-3.2-0.3-4.8-0.4c-2.5,0-5.1,0.3-7.6,0.8c-1.6,0.3-3.1,0.8-4.6,1.3c-0.8,0.3-1.6,0.7-2.4,1
		c-0.8,0.4-1.6,0.9-2.4,1.4c-0.8,0.5-1.6,1.1-2.3,1.7c-0.8,0.7-1.5,1.3-2.2,2.1c-0.7,0.8-1.4,1.6-2,2.4c-0.3,0.4-0.6,0.9-0.9,1.4
		l-0.4,0.7c-0.1,0.2-0.3,0.5-0.4,0.7c-0.3,0.5-0.5,1-0.8,1.5c-0.3,0.5-0.4,1-0.7,1.6l-0.3,0.8l-0.3,0.8l-0.6,1.7
		c-0.3,1.1-0.6,2.3-0.8,3.4s-0.5,2.4-0.6,3.6c-0.1,1.2-0.3,2.5-0.4,3.8c0,0.6-0.1,1.3-0.1,1.9l0,0.2l0,0.1c0,0.1,0-0.1,0,0l0,0
		l0,0.1l0.2,0.4c0.1,0.3,0.2,0.6,0.3,0.9c2.1,5,5.8,9.2,10.6,11.7c2.5,1.4,5,2.6,7.7,3.5c5.6,2.1,11.7,2.5,17.6,1.2
		c5.3-1.5,10.1-4.4,13.9-8.4l0,0c0.2-0.3,0.5-0.7,0.7-1l0,0c1.2-3.2,1.9-6.5,2.2-9.8c0.3-3,0.1-6.1-0.5-9.1c-1-4.9-3.2-9.5-6.4-13.3
		c-0.6-0.8-1.4-1.5-2-2.2c-0.6-0.7-1.3-1.2-1.9-1.8l-1.8-1.4l-1.5-1.2c-0.9-0.7-1.7-1.1-2.1-1.4l-0.6-0.4L236.3,41.8z"/>
	<path class="st9" d="M202.8,74c0.3,2.7-1.3,5.3-3.7,5.5s-4.6-1.7-4.9-4.5c-0.3-2.8,1.3-5.2,3.7-5.5C200.3,69.2,202.5,71.2,202.8,74
		z"/>
	<path class="st8" d="M202.8,74c0,0-0.1-0.4-0.3-1.1c-0.3-1-1-1.8-1.8-2.5c-0.6-0.4-1.2-0.7-1.9-0.8c-0.8-0.1-1.6,0.1-2.3,0.5
		c-2.3,1.7-2.8,4.9-1.1,7.2c0.6,0.8,1.3,1.4,2.2,1.7c0.8,0.2,1.6,0.2,2.3,0c0.7-0.2,1.2-0.7,1.7-1.2c0.7-0.8,1.1-1.8,1.2-2.8
		C202.8,74.4,202.8,74,202.8,74c0.1,0,0,0.1,0.1,0.3c0,0.3,0,0.6,0,0.9c0,1.1-0.4,2.1-1.1,3c-0.5,0.6-1.1,1.1-1.8,1.3
		c-0.8,0.3-1.7,0.3-2.6,0.1c-2.9-1.1-4.3-4.3-3.1-7.2c0.4-1,1.1-1.9,2-2.5c0.8-0.5,1.7-0.7,2.5-0.5c0.8,0.1,1.5,0.4,2.1,0.9
		c0.9,0.7,1.5,1.6,1.8,2.7c0.1,0.3,0.1,0.6,0.2,0.9C202.8,73.9,202.8,74,202.8,74z"/>
	<path class="st7" d="M248.7,60.9c-1-7.3-6-14.2-13-16.7c-0.4-0.2-0.9-0.2-1.3,0c-0.5,0.2-0.9,0.7-1,1.3c-0.1,2.7,6.1,4,8.1,7.1
		c2,3.1,3.1,6.4,4.4,9.9c0.2,0.5,0.4,1.1,1,1.3c0.7,0.2,1.4-0.2,1.7-0.8C248.8,62.3,248.8,61.6,248.7,60.9z"/>
	<path class="st8" d="M248.2,90.5c-0.1,0.1-0.1,0.3-0.2,0.4c-0.2,0.3-0.4,0.6-0.8,1.1c-1,1.3-2.2,2.4-3.6,3.4
		c-0.9,0.6-1.9,1.2-3,1.6c-1.2,0.5-2.4,1-3.7,1.4c-2.8,0.9-5.8,1.6-8.7,2c-3,0.3-6,0.5-8.9,0.5c-2.4,0-4.9-0.2-7.3-0.6
		c-1.6-0.3-3.2-0.8-4.7-1.5c-0.4-0.2-0.8-0.4-1.2-0.7c-0.1-0.1-0.3-0.2-0.4-0.3c0,0,0.6,0.3,1.7,0.8c1.5,0.6,3.1,1.1,4.7,1.3
		c2.4,0.4,4.8,0.5,7.2,0.5c3,0,5.9-0.2,8.9-0.5c2.9-0.4,5.8-1,8.6-2c1.3-0.4,2.5-0.9,3.6-1.4c1-0.4,2-0.9,3-1.6
		c1.4-0.9,2.6-2,3.6-3.2C247.8,91,248.1,90.5,248.2,90.5z"/>
	<path class="st12" d="M233.8,80.2c-0.4-0.4-0.9-0.4-1.4-0.2c-0.5,0.2-0.8,0.7-0.8,1.2c0,0.5,0.3,1,0.7,1.2c0.5,0.3,1.1,0.3,1.6-0.1
		C234.3,81.7,234.3,80.8,233.8,80.2z"/>
	<path class="st8" d="M234,82.2c0,0-0.1,0.4-0.7,0.6c-0.3,0.1-0.7,0.1-1.1,0c-0.4-0.2-0.6-0.6-0.7-1c-0.1-0.4-0.1-0.9,0-1.3
		c0.2-0.3,0.4-0.6,0.8-0.8c0.2-0.1,0.5-0.1,0.7,0c0.1,0,0.2,0,0.2,0.1s-0.4,0-0.8,0.2c-0.2,0.1-0.4,0.3-0.5,0.6
		c-0.1,0.3-0.1,0.7,0,1c0.1,0.3,0.3,0.6,0.5,0.8c0.2,0.1,0.5,0.2,0.7,0.1C233.7,82.4,233.9,82.2,234,82.2z"/>
	<path class="st9" d="M255,92.4c0.3-0.2,12.2-1.9,20.4,3.2c5.1,3.2,16,12,22.8,21.6s18.3,28.8,18.3,31c0,1.4-0.3,2.7-1,3.9l3,8.6
		l-13.3,7.5l-4.6-6.6c0,0-3.1-0.5-6.3-5.3c-3.3-4.8-9.1-20-13.5-24.4c-4.5-4.4-19.8-13.9-21.2-14.5C258,116.9,255,92.4,255,92.4z"/>
	<path class="st8" d="M317.2,156.8c-2.3,1.5-4.6,3-7.1,4.2c-2.4,1.4-4.8,2.7-7.3,3.8c2.3-1.5,4.6-3,7.1-4.2
		C312.3,159.2,314.7,157.9,317.2,156.8z"/>
	<path class="st8" d="M290.6,108.7c-0.4,0.6-0.9,1.1-1.4,1.5c-0.9,0.9-2.2,2.2-3.5,3.6s-2.5,2.8-3.3,3.8c-0.4,0.6-0.9,1.1-1.4,1.6
		c0.3-0.6,0.7-1.2,1.1-1.8c2-2.7,4.3-5.2,6.9-7.5C289.4,109.5,290,109,290.6,108.7z"/>
	<path class="st8" d="M285.3,105.2c0.1,0-1.1,1-2.6,2.5c-4.2,4.1-7.8,8.8-10.6,14c-1.1,2-1.7,3.2-1.7,3.2c0.1-0.3,0.2-0.6,0.3-0.9
		c0.2-0.6,0.6-1.4,1.1-2.4c2.7-5.3,6.3-10,10.7-14.1c0.8-0.8,1.5-1.4,2-1.7C285,105.3,285.3,105.1,285.3,105.2z"/>
	<path class="st8" d="M319.3,162.7l-13.5,7.5c-0.5,0.3-1.2,0.1-1.5-0.4c0,0,0,0,0,0l0,0c-0.3-0.5-0.1-1.2,0.4-1.5c0,0,0,0,0,0
		l13.5-7.5c0.5-0.3,1.2-0.1,1.5,0.4c0,0,0,0,0,0l0,0C320,161.8,319.8,162.4,319.3,162.7z"/>
	<path class="st8" d="M305.7,169.9c0,0-1.2,5.4-0.6,8.6c0.6,3.2,1.3,5.5,2.9,6.2c1.6,0.7,3,0.1,2.7-1.5c-0.3-1.6-1.1-2.4-0.7-4.5
		c0.4-2.1,0.9-2.5,0.9-2.5s3.7,4.5,3.5,6.2s-2.7,6-0.2,6.5s4.1-2.3,4.1-2.3s2.6,1.5,4.3-1.6c2.1-1,3.4-3.2,3.3-5.5
		c0,0,2.8-1.2,1.9-3.7c-1.2-3.3-3-6.4-5.2-9.2c-0.9-1-1.9-2-2.9-2.9c-0.1-0.1-0.8-1.5-0.8-1.5L305.7,169.9z"/>
	<path class="st1" d="M318.7,177.7c1.5,2.7,1.3,6.1-0.5,8.6C319.4,183.6,319.5,180.5,318.7,177.7z"/>
	<path class="st1" d="M321.7,174.3c0,0,0.4,0.4,0.9,1.3c1.1,2.4,1.3,5.1,0.6,7.6c-0.1,0.5-0.3,1-0.6,1.5c0.4-1.7,0.6-3.5,0.5-5.3
		C322.9,177.7,322.4,175.9,321.7,174.3z"/>
	<path class="st1" d="M323.3,172.2c0.9,1,1.5,2.2,1.8,3.5c0.5,1.2,0.7,2.6,0.7,3.9c-0.1,0-0.4-1.7-1.1-3.8
		C324,173.7,323.2,172.3,323.3,172.2z"/>
	<path class="st1" d="M323.8,168.4c-0.1,0.3-0.2,0.5-0.4,0.7c-0.4,0.6-0.9,1.2-1.4,1.7c-1.7,1.8-3.7,3.4-5.9,4.8l-0.2,0.1l-0.1-0.2
		c-0.6-0.8-1.2-1.7-1.8-2.4c-0.7-0.9-1.5-1.7-2.3-2.4l-0.2-0.2l0.2-0.2c2-1.4,3.9-2.9,5.8-4.4c1.4-1.2,2.1-1.9,2.2-1.9
		c-0.1,0.2-0.3,0.4-0.5,0.6c-0.3,0.4-0.8,0.9-1.5,1.5c-1.8,1.7-3.7,3.2-5.7,4.6l0.1-0.3c0.8,0.8,1.6,1.6,2.4,2.5
		c0.7,0.8,1.3,1.6,1.9,2.5l-0.3-0.1c2.1-1.3,4.1-2.8,5.9-4.6C323.1,169.4,323.7,168.4,323.8,168.4z"/>
	<path class="st1" d="M310.4,182.2c0,0.1-1-0.3-1.9,0.1s-1.2,1.5-1.3,1.4c-0.1,0-0.1-0.3,0.1-0.7c0.2-0.5,0.6-0.9,1.1-1.2
		c0.5-0.2,1.1-0.3,1.6-0.1C310.2,182,310.4,182.2,310.4,182.2z"/>
	<path class="st1" d="M316.7,188.2c-0.1,0-0.2-1.2-1-2.1c-0.6-0.5-1.3-1-2-1.2c0-0.1,0.3-0.1,0.8,0c1.2,0.3,2.2,1.4,2.3,2.6
		C316.8,187.9,316.7,188.2,316.7,188.2z"/>
	<path class="st1" d="M319.7,162.6c-2.2,1.5-4.6,2.8-7,4c-2.3,1.3-4.7,2.6-7.2,3.6c2.2-1.5,4.6-2.8,7-4
		C314.8,164.9,317.2,163.7,319.7,162.6z"/>
	<path class="st5" d="M284.8,138.3c7.7-1.5,15.3-5.7,19.3-12.5l-1.9-3c-4,6.9-11.2,11.5-19.1,12.2L284.8,138.3z"/>
	<path class="st8" d="M301.1,121.1c-0.1,0.3-0.3,0.6-0.5,0.8c-0.5,0.7-1,1.4-1.5,2c-1.8,2.1-4,3.8-6.4,5.2c-2.4,1.4-4.9,2.4-7.6,3.2
		c-1,0.3-1.9,0.5-2.4,0.6c-0.3,0.1-0.6,0.1-0.9,0.1c0-0.1,1.2-0.4,3.2-1.1c2.6-0.8,5.1-1.9,7.5-3.3c2.4-1.3,4.5-3,6.4-5
		C300.3,122.1,301,121,301.1,121.1z"/>
	<path class="st8" d="M305.5,128.8c-0.1,0.3-0.3,0.6-0.5,0.8c-0.5,0.7-1,1.4-1.5,2c-1.8,2.1-4,3.8-6.4,5.2c-2.4,1.4-5,2.4-7.6,3.2
		c-1,0.3-1.9,0.5-2.4,0.6c-0.3,0.1-0.6,0.1-0.9,0.1c0-0.1,1.2-0.4,3.2-1.1c2.6-0.8,5.1-1.9,7.5-3.3c2.4-1.4,4.5-3,6.4-5
		C304.7,129.9,305.4,128.8,305.5,128.8z"/>
	<path class="st8" d="M257.8,92.1c0,0.4,0,0.9,0,1.3c-0.1,0.9-0.1,2.1,0,3.6c0,1.8,0.2,3.6,0.5,5.3c0.4,2.2,0.9,4.3,1.6,6.4
		c0.7,2.1,1.6,4.1,2.7,6c0.9,1.6,1.8,3.1,2.9,4.5c0.9,1.2,1.7,2.2,2.3,2.8c0.3,0.3,0.6,0.7,0.8,1c-0.4-0.3-0.7-0.6-1-0.9
		c-0.9-0.9-1.7-1.8-2.4-2.7c-1.1-1.4-2.1-2.9-3-4.5c-1.1-1.9-2-4-2.7-6.1c-0.7-2.1-1.2-4.3-1.6-6.5c-0.3-1.8-0.4-3.6-0.4-5.4
		c0-1.2,0-2.4,0.2-3.6C257.7,93,257.7,92.6,257.8,92.1z"/>
	<path class="st8" d="M265.5,92.3c0,0.4-0.1,0.8-0.2,1.2c-0.1,0.8-0.3,1.9-0.4,3.3c-0.1,1.4-0.3,3.1-0.3,5c0,2,0.1,4.1,0.3,6.1
		c0.2,2,0.6,4,1,6c0.4,1.9,0.9,3.5,1.4,4.8c0.5,1.3,0.9,2.4,1.2,3.2c0.2,0.4,0.3,0.8,0.4,1.2c-0.2-0.3-0.4-0.7-0.6-1.1
		c-0.4-0.7-0.8-1.8-1.3-3.1c-0.6-1.6-1.1-3.2-1.5-4.8c-0.5-2-0.8-4-1.1-6.1c-0.2-2-0.3-4.1-0.3-6.2c0-1.7,0.2-3.4,0.4-5
		c0.1-1.1,0.3-2.2,0.6-3.3C265.2,93.1,265.3,92.7,265.5,92.3z"/>
	<path class="st1" d="M284.1,182.7c0,0,4.8-1.7,7.1,0.1s12,11.6,11.2,12.9c-0.8,1.3-2.1,4.4-2.1,4.4L284.1,182.7z"/>
	<path class="st9" d="M268,280.9c0-0.4-8.1-15.7-8.1-15.7l-5.2-19.7l-2.2-13.2c0,0,2.9-2.3-0.7-5.5l-0.3-7.1L208.9,185
		c0,0-3.8,17.4,2.3,26c1.8,2.6,2.3,19,5.8,28.9c3.4,9.9,12.5,27.3,13.5,30.5c1,3.2,11.3,21.8,15.6,27.8c5.2,7.2,14.2,22.3,14.2,22.3
		l19-10.2C279.3,310.3,268.1,281.3,268,280.9z"/>
	<path class="st9" d="M285.4,183.4c0.9,0.2,23.4,23.1,26.9,29.8s5.9,25.1,6.1,28.5c0.3,3.5,2.4,47.2,2.4,48.4
		c0,1.2-11.1,9.2-21.1,5.6l-5-15.6c0,0-5.7-16.8-6.6-21.7l-0.9-4.9l-4-16.8l-6-9c-1.2-0.7-2-1.9-2.1-3.2l-3.8-5.7l-9.4-4.2
		c0,0-3-7.5,1.2-19.5s16.3-19.3,16.3-19.3L285.4,183.4z"/>
	<path class="st8" d="M223.9,256.2c0.3-0.3,0.6-0.6,1-0.9c1-0.7,2-1.4,3-1.9c3.5-1.8,7.3-3,11.2-3.8c1.1-0.2,2.2-0.4,3.3-0.6
		c1-0.1,2.1-0.2,3.1-0.2c1.8,0,3.6,0.1,5.3,0.3c1.2,0.1,2.4,0.4,3.5,0.6c0.4,0.1,0.9,0.2,1.3,0.4c0,0-0.5-0.1-1.3-0.2
		s-2-0.4-3.5-0.5c-1.7-0.2-3.5-0.3-5.3-0.2c-2.2,0.1-4.3,0.3-6.4,0.8c-3.8,0.7-7.6,2-11.1,3.6c-1.1,0.5-2.1,1.1-3.1,1.8
		C224.3,255.9,224,256.2,223.9,256.2z"/>
	<path class="st5" d="M225.8,260.1c4.7-3.2,10-5.4,15.6-6.4c5-0.9,10.1-1.1,15.2-0.6l0.7,2.6c0,0-10.4,0.2-14.8,1
		c-5.5,1-15.6,6-15.6,6L225.8,260.1z"/>
	<path class="st8" d="M274.9,224.5c0.1-0.5,0.2-1,0.4-1.4c0.2-0.6,0.4-1.1,0.6-1.6c0.3-0.6,0.5-1.4,0.9-2.1c0.4-0.8,0.8-1.7,1.3-2.5
		c0.5-0.9,1.1-1.8,1.8-2.7c1.5-2,3.1-3.8,4.9-5.5c1.8-1.6,3.8-3.1,5.9-4.4c1-0.6,1.9-1.1,2.8-1.5c0.8-0.4,1.7-0.8,2.6-1.1
		c0.7-0.3,1.4-0.5,2.2-0.8c0.6-0.2,1.1-0.3,1.7-0.5c0.5-0.1,1-0.2,1.5-0.3c-0.5,0.2-0.9,0.3-1.4,0.5c-0.5,0.1-1,0.3-1.7,0.5
		c-0.6,0.2-1.4,0.5-2.1,0.8c-0.8,0.4-1.7,0.7-2.5,1.2s-1.8,1-2.8,1.5c-2.1,1.3-4,2.7-5.8,4.4c-1.8,1.7-3.4,3.5-4.9,5.4
		c-0.7,0.9-1.3,1.8-1.8,2.6c-0.5,0.9-1,1.6-1.4,2.4c-0.4,0.8-0.7,1.5-1,2.1c-0.3,0.5-0.5,1.1-0.7,1.6
		C275.3,223.6,275.1,224.1,274.9,224.5z"/>
	<path class="st8" d="M277.5,227.8c0.1-0.5,0.2-1,0.4-1.4c0.2-0.6,0.4-1.1,0.6-1.6c0.3-0.7,0.6-1.4,0.9-2.1c0.4-0.8,0.8-1.7,1.3-2.5
		c0.5-0.9,1.1-1.8,1.8-2.7c1.5-2,3.1-3.8,4.9-5.5c1.8-1.7,3.8-3.1,5.9-4.4c1-0.6,1.9-1.1,2.9-1.5c0.8-0.4,1.7-0.8,2.6-1.1
		c0.8-0.3,1.5-0.5,2.2-0.8c0.6-0.2,1.1-0.3,1.7-0.5c0.5-0.1,1-0.2,1.5-0.3c-0.5,0.2-0.9,0.3-1.4,0.5c-0.5,0.1-1,0.3-1.7,0.5
		c-0.6,0.2-1.4,0.5-2.2,0.8c-0.9,0.3-1.7,0.7-2.5,1.2c-0.9,0.4-1.8,1-2.8,1.5c-4.2,2.5-7.8,5.9-10.7,9.8c-0.6,0.9-1.3,1.8-1.8,2.6
		c-0.5,0.8-1,1.6-1.4,2.4c-0.4,0.7-0.7,1.5-1,2.1c-0.3,0.6-0.5,1.2-0.7,1.6C278,226.9,277.8,227.4,277.5,227.8z"/>
	<polyline class="st9" points="213.6,202.1 211.5,194.8 253.9,181.8 277.7,175.1 279.7,177 261.9,214.6 254.7,216.6 252,220.5 
		213,203.3 	"/>
	<path class="st8" d="M281.4,179.2c-0.5,0.3-0.9,0.5-1.4,0.8c-1.3,0.7-2.6,1.4-3.8,2.3c-8.1,5.6-13.1,14.6-13.6,24.4
		c-0.1,1.5-0.1,2.9,0,4.4c0.1,0.5,0.1,1.1,0.1,1.6c0,0,0-0.1-0.1-0.4c-0.1-0.3-0.1-0.7-0.2-1.2c-0.2-1.5-0.2-2.9-0.1-4.4
		c0.3-10,5.5-19.1,13.8-24.6c1.2-0.8,2.5-1.5,3.8-2.1c0.5-0.2,0.9-0.4,1.1-0.5C281.3,179.3,281.4,179.2,281.4,179.2z"/>
	<path class="st8" d="M253.5,218.3c-0.1-0.1-0.2-0.2-0.3-0.3l-0.9-0.8c-0.4-0.4-0.8-0.8-1.4-1.3c-0.6-0.5-1.2-1.1-2-1.6
		c-0.8-0.5-1.6-1.2-2.5-1.8c-0.9-0.6-1.9-1.2-3-1.9c-2.3-1.3-4.8-2.5-7.3-3.4c-2.5-0.9-5.2-1.6-7.8-2c-1.2-0.2-2.4-0.4-3.5-0.4
		c-1.1-0.1-2.1-0.1-3.1-0.2c-0.9,0-1.8,0-2.5,0s-1.4,0.1-1.9,0.1l-1.2,0.1c-0.1,0-0.3,0-0.4,0c0,0,0.1,0,0.4-0.1l1.2-0.2
		c0.6-0.1,1.3-0.2,1.9-0.2c0.8,0,1.6-0.1,2.6-0.1s2,0,3.1,0.1c1.1,0.1,2.3,0.2,3.5,0.4c2.7,0.4,5.3,1.1,7.9,2c2.6,0.9,5,2.1,7.4,3.4
		c1.1,0.7,2.1,1.3,3,1.9c0.9,0.6,1.7,1.2,2.5,1.9c0.8,0.6,1.4,1.2,1.9,1.7c0.5,0.4,0.9,0.9,1.4,1.4l0.8,0.9
		C253.4,218.2,253.5,218.3,253.5,218.3z"/>
	<path class="st8" d="M215.2,231.7c0.4-0.4,0.7-0.7,1.2-1c0.5-0.4,0.9-0.8,1.4-1.1c0.6-0.4,1.2-0.9,2-1.3l1.2-0.7
		c0.4-0.2,0.9-0.4,1.3-0.7c0.9-0.5,1.9-0.9,3-1.3c4.8-1.8,9.9-2.6,15-2.3c1.2,0.1,2.3,0.2,3.3,0.4c0.5,0.1,1,0.2,1.5,0.3l1.4,0.3
		c0.8,0.2,1.5,0.4,2.3,0.7c0.6,0.2,1.1,0.4,1.7,0.6c0.5,0.2,0.9,0.4,1.4,0.6c-0.5-0.1-1-0.3-1.5-0.5c-0.5-0.2-1-0.4-1.7-0.5
		c-0.7-0.2-1.4-0.4-2.3-0.6l-1.3-0.3c-0.5-0.1-1-0.2-1.5-0.3c-1-0.2-2.1-0.2-3.3-0.3c-2.5-0.1-5,0-7.5,0.4c-2.5,0.4-4.9,1-7.3,1.9
		c-1.1,0.4-2.1,0.8-3,1.3c-0.5,0.2-0.9,0.4-1.3,0.7l-1.2,0.7c-0.8,0.4-1.4,0.9-2,1.2c-0.5,0.3-1,0.7-1.5,1
		C216.1,231.2,215.7,231.5,215.2,231.7z"/>
	<path class="st8" d="M216.5,238.3c0.4-0.3,0.7-0.7,1.1-0.9l0.6-0.5l0.8-0.5c0.6-0.4,1.2-0.8,2-1.2c0.4-0.2,0.8-0.4,1.2-0.7l1.3-0.6
		c0.9-0.5,1.9-0.8,3-1.2c2.3-0.8,4.7-1.4,7.2-1.8c2.4-0.4,4.9-0.5,7.4-0.5c1.1,0.1,2.2,0.1,3.2,0.2c1,0.1,1.9,0.2,2.8,0.4
		c0.8,0.1,1.6,0.3,2.3,0.4c0.6,0.1,1.2,0.3,1.7,0.4c0.5,0.1,1,0.3,1.4,0.5c-0.5,0-1-0.1-1.5-0.3c-0.5-0.1-1-0.2-1.7-0.4
		c-0.7-0.1-1.4-0.2-2.3-0.4s-1.8-0.2-2.8-0.3s-2.1-0.1-3.2-0.1c-2.4,0-4.9,0.2-7.3,0.5c-2.4,0.4-4.8,1-7.1,1.7
		c-1.1,0.4-2.1,0.7-3,1.2l-1.3,0.6l-1.2,0.6c-0.8,0.4-1.4,0.8-2,1.1l-0.8,0.5l-0.7,0.5C217.3,237.8,216.9,238.1,216.5,238.3z"/>
	<path class="st8" d="M220.9,247.3c0.5-0.8,1.1-1.5,1.8-2.2c1.1-1.3,2.8-3.2,4.6-5.2l3.7-4l0,0.2c-0.4-1.3-0.6-2.3-0.8-3.1
		c-0.1-0.4-0.2-0.8-0.2-1.2c0.2,0.3,0.3,0.7,0.5,1.1c0.3,0.7,0.6,1.8,1,3l0,0.1l-0.1,0.1l-3.6,4c-1.8,2-3.5,3.8-4.7,5.1
		C222.3,246,221.6,246.7,220.9,247.3z"/>
	<path class="st8" d="M239,287.3c0.1-0.4,0.3-0.7,0.5-1.1c0.2-0.4,0.5-0.8,0.8-1.2c0.3-0.4,0.6-1,1.1-1.5c0.5-0.6,0.9-1.2,1.5-1.7
		c0.5-0.6,1.2-1.2,1.8-1.8c1.5-1.3,3.1-2.5,4.8-3.5c1.7-1,3.6-1.7,5.4-2.3c0.8-0.3,1.7-0.5,2.5-0.6c0.7-0.2,1.5-0.3,2.2-0.4
		c0.6-0.1,1.2-0.1,1.8-0.2c0.5,0,0.9,0,1.4,0c0.4,0,0.8,0,1.2,0.1c0,0.1-1.7,0-4.4,0.4c-0.7,0.1-1.5,0.2-2.2,0.4
		c-0.8,0.2-1.6,0.4-2.5,0.7c-1.8,0.6-3.6,1.4-5.3,2.4c-1.7,1-3.3,2.1-4.8,3.4c-0.7,0.6-1.3,1.2-1.8,1.8c-0.5,0.5-1,1.1-1.5,1.7
		C239.9,285.8,239.1,287.3,239,287.3z"/>
	<path class="st8" d="M241.9,291.6c0.1-0.4,0.3-0.7,0.5-1c0.2-0.4,0.5-0.8,0.7-1.1c0.3-0.4,0.6-0.9,1-1.4c1-1.2,2-2.3,3.1-3.4
		c1.4-1.3,2.9-2.4,4.5-3.4c1.6-1,3.3-1.8,5.1-2.5c1.4-0.6,2.9-1,4.4-1.3c0.6-0.2,1.2-0.2,1.7-0.3c0.4-0.1,0.9-0.1,1.3-0.1
		c0.4-0.1,0.8-0.1,1.1,0c0,0.1-1.6,0.2-4.1,0.8c-1.5,0.4-2.9,0.8-4.3,1.4c-1.7,0.7-3.4,1.6-5,2.5c-1.6,1-3.1,2.1-4.5,3.4
		c-1.1,1-2.2,2.1-3.2,3.3C242.7,290.2,241.9,291.6,241.9,291.6z"/>
	<path class="st8" d="M318.3,244.3c-0.4,0-0.9,0-1.3-0.1c-0.4-0.1-0.9-0.1-1.5-0.1c-0.6,0-1.2-0.1-2-0.1c-1.7,0-3.4,0.1-5.2,0.2
		c-2.1,0.2-4.2,0.6-6.2,1.1c-2,0.5-4,1.2-6,2c-1.6,0.7-3.1,1.4-4.6,2.3c-0.7,0.3-1.2,0.7-1.7,1c-0.5,0.3-0.9,0.6-1.3,0.8
		c-0.3,0.3-0.7,0.5-1.1,0.7c0.3-0.3,0.6-0.6,1-0.8c0.3-0.3,0.7-0.6,1.2-0.9c0.5-0.3,1-0.7,1.7-1.1c1.5-0.9,3-1.7,4.7-2.4
		c2-0.8,4-1.5,6-2.1c2.1-0.5,4.2-0.9,6.3-1.1c1.7-0.2,3.5-0.2,5.2-0.2c0.7,0,1.4,0.1,2,0.1c0.6,0,1.1,0.1,1.5,0.2
		C317.5,244.1,317.9,244.2,318.3,244.3z"/>
	<path class="st8" d="M318.6,249.1c-0.4,0.1-0.9,0.1-1.3,0c-0.8,0-2,0-3.5,0.1c-1.5,0.1-3.2,0.3-5.1,0.5c-2.1,0.3-4.1,0.8-6.1,1.4
		c-2,0.6-4,1.3-5.9,2.1c-1.6,0.7-3.1,1.4-4.6,2.3c-1.3,0.7-2.3,1.3-3,1.8c-0.3,0.3-0.7,0.5-1.1,0.6c0.3-0.3,0.7-0.6,1-0.8
		c0.9-0.7,1.9-1.3,2.9-1.9c1.5-0.9,3-1.7,4.6-2.4c3.9-1.7,8-2.9,12.1-3.5c1.7-0.3,3.4-0.4,5.2-0.5c1.2,0,2.3,0,3.5,0.1
		C317.7,248.9,318.2,249,318.6,249.1z"/>
	<path class="st5" d="M314.3,218.4c-6.1-2.8-13.8-1.8-19.4,2c-5.6,3.8-9.5,9.7-11.9,16l-2-3.2c2.4-6.3,6.8-12.7,12.4-16.4
		s13.5-4.9,19.7-2.1C313.5,215.9,314,217.1,314.3,218.4z"/>
	<g class="st2">
		<path d="M217.7,237.4c0.7,0.9,2.8,1,4,0.4c1.6-0.8,3.5-2.9,4.7-3.4c7.4-3.2,13.6,0.3,22.9-1.8c0.2,0,0.4,0,0.5-0.1
			c0.2-0.2,0.2-0.5,0-0.7c-0.2-0.2-0.4-0.3-0.7-0.3C238.6,228.7,227,231.4,217.7,237.4"/>
	</g>
	<g class="st2">
		<path d="M278.1,227.4c3.8-4.7,5.5-11,10.1-14.9c4-3.3,9.6-4.4,13.1-8.2c-11,3.3-19.8,11.6-23.6,22.4"/>
	</g>
	<path class="st8" d="M299.1,298.3c8.6,2.2,17.8-0.4,24.1-6.7c0.8-0.9,0.7-2.3-0.3-3.1c-0.9-0.8-2.3-0.7-3.1,0.3
		c-5.3,5.1-12.8,7.1-19.9,5.2c-1.2-0.2-2.3,0.6-2.6,1.8C297.2,297,298,298.1,299.1,298.3z"/>
	<path class="st8" d="M276.8,170.1c-0.2,0.1-0.4,0.3-0.6,0.4l-1.8,1c-0.8,0.4-1.7,0.9-2.8,1.5c-1.1,0.5-2.4,1.2-3.8,1.9
		c-1.4,0.6-3,1.4-4.7,2.1c-1.7,0.7-3.5,1.4-5.5,2.2c-3.9,1.4-8.2,2.8-12.8,4.1s-9.1,2.1-13.2,2.8c-2.1,0.3-4,0.6-5.8,0.8
		s-3.5,0.4-5.1,0.5c-1.6,0.1-3,0.2-4.2,0.2s-2.3,0.1-3.2,0.1l-2,0c-0.2,0-0.5,0-0.7,0c0.2,0,0.5-0.1,0.7-0.1l2-0.1
		c0.9,0,1.9-0.1,3.2-0.2c1.2-0.1,2.7-0.2,4.2-0.3s3.3-0.3,5.1-0.5c1.8-0.2,3.8-0.5,5.8-0.8c4.1-0.7,8.5-1.6,13.1-2.8
		c4.6-1.2,8.9-2.6,12.8-4.1c1.9-0.7,3.8-1.4,5.5-2.1c1.7-0.7,3.3-1.4,4.7-2c1.4-0.6,2.7-1.3,3.8-1.8s2.1-1,2.8-1.4l1.8-0.9
		C276.5,170.2,276.8,170.1,276.8,170.1z"/>
	<path class="st8" d="M261.2,322.8c6.2-3.6,12.6-7,19.1-10c1.1-0.4,1.7-1.7,1.3-2.8c-0.4-1.1-1.7-1.7-2.8-1.3
		c-6.9,3.2-13.6,6.7-20.1,10.6c-1,0.7-1.2,2.1-0.5,3.1C258.8,323.3,260.2,323.5,261.2,322.8L261.2,322.8z"/>
	<path class="st9" d="M318.2,253.7c0,0,5.8,4.6,6,7.2c0.2,2.6-0.7,21.8-0.7,21.8l-2.8,3L318.2,253.7z"/>
	<path class="st8" d="M320.5,285.4c-0.1,0-0.6-7.6-1-17.1s-0.7-17.1-0.6-17.1c0.1,0,0.6,7.6,1,17.1
		C320.4,277.7,320.7,285.3,320.5,285.4z"/>
	<path class="st8" d="M313.1,219c-0.5,0.1-1,0.1-1.4,0.1c-1.3,0-2.6,0.1-3.9,0.3c-8.6,1.1-16.4,5.8-21.5,12.9
		c-0.8,1.1-1.5,2.2-2.1,3.3c-0.2,0.4-0.5,0.8-0.7,1.2c0-0.1,0.1-0.2,0.1-0.4c0.1-0.2,0.2-0.6,0.4-1c0.6-1.2,1.2-2.3,2-3.4
		c5-7.3,12.9-12.1,21.7-13.1c1.3-0.2,2.6-0.2,3.9-0.2c0.5,0,0.8,0.1,1.1,0.1C312.8,218.9,313,219,313.1,219z"/>
	<path class="st8" d="M315.3,223.6c-0.5,0.1-0.9,0.1-1.4,0.2c-0.4,0-1,0.1-1.6,0.2c-0.6,0.1-1.3,0.1-2.1,0.3
		c-1.8,0.3-3.7,0.6-5.5,1.1c-2.2,0.6-4.3,1.3-6.4,2.2c-2.1,0.9-4.1,1.9-6.1,3c-1.6,0.9-3.1,2-4.6,3.1c-0.7,0.5-1.2,0.9-1.7,1.3
		c-0.5,0.4-0.9,0.7-1.2,1c-0.3,0.3-0.7,0.6-1,0.9c0.3-0.4,0.6-0.7,1-1c0.3-0.3,0.7-0.7,1.2-1.1c0.5-0.4,1-0.9,1.7-1.4
		c1.5-1.2,3-2.2,4.6-3.2c3.9-2.4,8.2-4.1,12.7-5.2c1.8-0.5,3.7-0.8,5.5-1c0.8-0.1,1.5-0.2,2.1-0.2c0.6-0.1,1.2-0.1,1.6-0.1
		C314.4,223.6,314.8,223.6,315.3,223.6z"/>
	<path class="st8" d="M228.4,266.1c0.3-0.3,0.6-0.6,0.9-0.9c0.4-0.3,0.7-0.7,1.1-1c0.5-0.4,0.9-0.8,1.5-1.2c1.4-1,2.8-1.9,4.3-2.6
		c3.7-1.9,7.8-3,11.9-3.3c1.7-0.1,3.4-0.1,5.1,0c0.7,0,1.4,0.1,1.9,0.2c0.5,0.1,1,0.1,1.5,0.3c0.4,0.1,0.8,0.2,1.2,0.3
		c0,0.1-1.7-0.3-4.6-0.4c-1.7-0.1-3.3,0-5,0.1c-4.1,0.4-8.1,1.5-11.8,3.3c-1.5,0.7-3,1.6-4.3,2.5C229.8,265,228.5,266.2,228.4,266.1
		z"/>
</g>
</svg>
