<?xml version="1.0" encoding="utf-8"?>
<!-- Generator: Adobe Illustrator 23.0.0, SVG Export Plug-In . SVG Version: 6.00 Build 0)  -->
<svg version="1.1" id="Layer_1" xmlns="http://www.w3.org/2000/svg" xmlns:xlink="http://www.w3.org/1999/xlink" x="0px" y="0px"
	 width="2429.2px" height="1537.9px" viewBox="0 0 2429.2 1537.9" style="enable-background:new 0 0 2429.2 1537.9;"
	 xml:space="preserve">
<style type="text/css">
	.st0{fill-rule:evenodd;clip-rule:evenodd;fill:#FFFFFF;}
	.st1{fill-rule:evenodd;clip-rule:evenodd;fill:#00ACEC;}
	.st2{fill-rule:evenodd;clip-rule:evenodd;fill:#33348E;}
	.st3{fill-rule:evenodd;clip-rule:evenodd;fill:#33A457;}
</style>
<g>
	<path class="st0" d="M2.8-1.9h2426.5v1539.8H2.8V-1.9z"/>
	<path class="st1" d="M1483.1,822.1V73.2H77.1v579.6l52.8-118.9h89.2l29.7,70.2v-70.2h109l33,70.2l32.2-70.2h384.7
		c14.9,0,35.5,5,44.6,21.5v-21.5h80.9v25.6c9.9-14,25.6-25.6,57-25.6h164.3l29.7,68.5v-68.5h97.4l33.8,59.4v-59.4h89.2v219.6h-95.8
		l-39.6-65.2v65.2h-121.4l-19-42.9h-38.8l-18.2,42.9h-76c-16.5-1.6-54.5-8.2-62.7-33.8v33.8H787.1v-48.7c0-6.6-6.6-14.9-14.9-14.9
		h-15.7v63.6H446.1V704l-23.9,49.5h-62.7l-23.9-50.4v50.4H210.8l-16.5-39.6h-39.6l-17.3,39.6H77.1v707.6h1406v-433.4
		c-7.4,8.3-19.8,14.9-38,14.9h-117.2V1026c-9.1,9.9-21.5,16.5-42.1,16.5H954.7v-46.3c-0.8-5.8,2.5-18.2-14-18.2h-14v64.4h-87.5
		v-74.3c-9.1,14.9-28.9,15.7-42.1,16.5h-46.2v57.8H633.5l-33.9-41.3l-36.3,41.3H363.6V822.1h203.1l34.7,40.5l36.3-40.5h160.2
		c11.6,0.8,33,6.6,41.3,18.2v-18.2h136.2c12.4,0,35.5,5.8,45.4,21.5v-21.5h171.7v19.8c9.1-12.4,23.1-19.8,45.4-19.8h109.8v19
		c8.3-12.4,29.7-19,42.9-19H1483.1L1483.1,822.1z"/>
	<path class="st2" d="M2346.7,955.8l-506.9,505.3h71.8l435.1-433.4V955.8L2346.7,955.8z"/>
	<path class="st1" d="M2346.7,1097l-364.9,364.1h71.8l293.1-292.3L2346.7,1097L2346.7,1097z"/>
	<path class="st3" d="M2346.7,1238.2L2123,1461.1h72.6l151.1-151.1V1238.2z"/>
	<path class="st1" d="M1217.2-1.9H2.8v1539.8h2426.5V-1.9H1217.2z M2403.7,1510.6H30.8V26.2h2372.8L2403.7,1510.6L2403.7,1510.6
		L2403.7,1510.6z"/>
	<path class="st1" d="M1615.2,1331.5c-35.5,0-64.4,28.1-64.4,63.6c0,34.7,28.9,63.6,64.4,63.6c34.7,0,63.6-28.9,63.6-63.6
		C1678.7,1360,1650.3,1331.5,1615.2,1331.5L1615.2,1331.5z M1615.2,1451.2c-31.4-0.8-56.1-25.6-56.1-56.1
		c0-31.4,24.7-56.2,56.1-56.2c30.5,0,55.3,24.8,55.3,56.2C1670.5,1425.6,1645.7,1451.2,1615.2,1451.2z"/>
	<path class="st1" d="M1647.4,1377.7c0-5.8-2.5-11.6-7.4-14.9c-5.8-3.3-11.6-3.3-17.4-3.3h-31.4v71h9.1v-33h15.7l20.6,33h9.9
		l-21.5-33C1637.5,1397.5,1647.4,1391.8,1647.4,1377.7L1647.4,1377.7z M1615.2,1390.9h-14.9v-25.6h19.8c9.1,0,19,1.6,19,12.4
		C1639.1,1391.8,1625.1,1390.9,1615.2,1390.9z M390,672.6l-50.4-113.1h-65.2v161.8l-72.7-161.8h-54.5L73.8,728h43.8l15.7-38h82.6
		l16.5,38h83.4V602.5L371,728h38l56.1-123v123h41.3V559.5h-66.1L390,672.6L390,672.6z M174.5,653.7h-24.8l24.8-58.6v1.6l25.6,57
		L174.5,653.7L174.5,653.7L174.5,653.7z M850.7,604.1c0-35.5-28.9-44.6-49.5-44.6H693.8V728h41.3v-59.4h53.7
		c14.9,0,20.6,14,20.6,28.1l0.8,31.4h40.5l-1.7-34.7c0-27.2-7.4-39.6-26.4-42.1C844.9,639.6,850.7,624.7,850.7,604.1L850.7,604.1z
		 M786.3,633.8h-51.2v-38h51.2c17.3,0,23.1,10.7,23.1,19C809.4,626.4,803.6,633.8,786.3,633.8L786.3,633.8z M872.1,728h41.3V559.5
		h-41.3V728z M1339.4,559.5V676l-70.2-116.4h-61.1v157.7l-71-157.7h-54.5l-57,130.4c0,0-20.6,0-23.1-0.8
		c-13.2-1.6-28.9-14.9-28.9-44.6c0-39.6,21.5-48.7,48.7-48.7h25.6v-36.3h-53.7c-19,0-60.3,14-61.1,83.4c-1.6,46.2,19,85,65.2,85
		h54.5l15.7-38h82.6l16.5,38h81.7v-123l74.3,123h57V559.5H1339.4L1339.4,559.5z M1110.7,653.7h-25.6l24.8-58.6l0.8,1.6l24.8,57
		L1110.7,653.7L1110.7,653.7L1110.7,653.7z M534.5,728h135.4v-35.5h-94.1v-33h91.7v-32.2h-91.7v-31.4h94.1v-36.3H534.5V728z
		 M1280,913.7c-2.5,0-25.6-0.8-28.9-0.8c-9.9-0.8-17.4-3.3-17.4-13.2c0-16.5,15.7-14.9,30.5-14.9h63.6v-36.3h-87.5
		c-26.4,0-48.7,17.4-48.7,48.7c0,28,10.7,51.2,56.1,52c3.3,0,23.1,0.8,28.9,1.6c12.4,1.6,14.9,6.6,14.9,14
		c0,16.5-16.5,16.5-28.1,16.5h-67.7v35.5h86.7c27.3,0,52.8-16.5,52.8-47.9C1335.3,941.8,1331.2,916.2,1280,913.7L1280,913.7z
		 M1435.2,913.7c-2.5,0-25.6-0.8-28.9-0.8c-9.9-0.8-17.3-3.3-17.3-13.2c0-16.5,15.7-14.9,29.7-14.9h63.6v-36.3h-86.7
		c-27.2,0-49.5,17.4-49.5,48.7c0,28,10.7,51.2,57,52c3.3,0,23.1,0.8,28.9,1.6c11.6,1.6,14.9,6.6,14.9,14c0,16.5-17.3,16.5-28.9,16.5
		h-67.7v35.5h87.5c27.2,0,52.8-16.5,52.8-47.9C1490.5,941.8,1486.4,916.2,1435.2,913.7L1435.2,913.7z M792.9,848.5H647.6l-47.1,52
		l-46.2-52H390.8v167.6h158.5l49.5-55.3l48.7,56.1h79.3v-57h55.3c21.5,0,61.1-0.8,61.1-60.3C843.2,858.4,813.5,848.5,792.9,848.5
		L792.9,848.5z M527,981.4h-94.1v-33.8h90.8v-31.4h-90.8v-31.4H527l46.2,45.4L527,981.4L527,981.4z M685.5,1000.4l-29.7-34.7
		l-29.7-35.5l29.7-32.2l29.7-33V1000.4z M778,925.3h-51.2v-40.5H778c17.3,0,23.1,10.7,23.1,19C801.1,915.4,795.4,925.3,778,925.3
		L778,925.3z M1019.9,893.9c0-36.3-29.7-45.4-49.5-45.4H862.2v168.4h41.3v-59.4H958c14,0,19.8,14,20.6,28.9l0.8,30.5h40.5l-1.6-34.7
		c0-27.2-7.4-39.6-27.2-42.1C1014.1,929.4,1019.9,913.7,1019.9,893.9L1019.9,893.9z M955.5,922.8h-52v-38h52
		c17.3,0,23.1,10.7,23.1,19C978.6,915.4,972,922.8,955.5,922.8L955.5,922.8z M1040.6,1016.1h134.6v-34.7h-93.3v-33.8h90.8v-31.4
		h-90.8v-31.4h93.3v-36.3h-134.6V1016.1L1040.6,1016.1z M1659.8,864.2c-34.7,0-41.3-27.2-41.3-56.1c0-39.6,14.9-60.3,38-60.3
		c21.5,0,35.5,12.4,37.2,33.8h64.4c-4.9-52.8-40.5-84.2-104-84.2c-57.8,0-103.2,41.3-103.2,108.2c0,67.7,41.3,109,109.8,109
		c54.5,0,93.3-32.2,99.1-85h-65.2C1692,849.3,1681.2,864.2,1659.8,864.2z M1929.8,817.1c0-35.5-4.2-61.9-76-61.9h-8.3
		c-52.8,1.6-73.5,19.8-73.5,50.4h57c1.7-10.7,9.1-14.1,16.5-14.1c1.6-0.8,3.3-0.8,5-0.8c5.8,0,19.8,1.6,19.8,12.4
		c0,9.1-10.7,11.6-24.8,14c-31.4,4.9-82.6,4.1-82.6,51.2c0,31.4,24.8,45.4,53.7,45.4c10.7,0,19.8-0.8,28.9-3.3
		c9.9-3.3,19-8.3,27.3-16.5l6.6,15.7h53.7c-2.5-5.8-3.3-13.2-3.3-22.3L1929.8,817.1L1929.8,817.1L1929.8,817.1z M1845.5,879.9h-4.9
		c-12.4,0-19-5-19-12.4c0-12.4,10.7-14.9,23.9-17.3c8.3-1.7,17.4-3.3,24.8-6.6C1870.3,869.1,1862.9,878.2,1845.5,879.9z
		 M1996.6,789.9v-30.5h-54.5v150.2h59.5v-59.4c0-32.2,12.4-43.8,37.1-43.8h12.4V756c-2.5-0.8-5.8-0.8-8.3-0.8
		C2019.7,755.2,2004.9,765.9,1996.6,789.9L1996.6,789.9z M2164.2,703.2v71c-7.4-8.3-14.9-13.2-23.9-16.5c-5.8-1.6-13.2-2.5-21.5-2.5
		c-35.5,0-63.6,32.2-63.6,81.7c0,42.9,23.1,76.8,68.5,76.8c5.8,0,11.6,0,16.5-1.6c11.6-3.3,19.8-9.9,29.7-22.3v19.8h53.7V703.2
		H2164.2z M2140.3,870.8h-1.7c-19.8,0-23.1-18.2-23.1-33.8c0-16.5,4.9-35.5,24.8-35.5c19.8,0,25.6,18.2,25.6,34.7
		C2165.9,852.6,2160.1,870,2140.3,870.8z"/>
</g>
</svg>
