<?xml version="1.0" encoding="utf-8"?>
<!-- Generator: Adobe Illustrator 23.0.0, SVG Export Plug-In . SVG Version: 6.00 Build 0)  -->
<svg version="1.1" id="Layer_1" xmlns="http://www.w3.org/2000/svg" xmlns:xlink="http://www.w3.org/1999/xlink" x="0px" y="0px"
	 width="300px" height="300px" viewBox="0 0 300 300" style="enable-background:new 0 0 300 300;" xml:space="preserve">
<style type="text/css">
	.st0{fill:#F8F5C8;}
	.st1{fill:#8DAD1F;}
	.st2{fill:#859F18;}
	.st3{fill:#7A8490;}
	.st4{fill:#D9A461;}
	.st5{fill:#85531C;}
	.st6{fill:#86531C;}
	.st7{fill:#C88841;}
	.st8{fill:#D8A461;}
	.st9{fill:#C98842;}
	.st10{fill:#DAAE77;}
	.st11{fill:#F2E6BC;}
	.st12{fill:#DF2D24;}
	.st13{fill:#CD1B17;}
	.st14{fill:#AA5033;}
	.st15{fill:#DF2E25;}
	.st16{fill:#C99175;}
	.st17{fill:#E6A383;}
	.st18{fill:#C99075;}
	.st19{fill:#86A018;}
	.st20{fill:#87A219;}
	.st21{fill:#86A119;}
	.st22{fill:#87A119;}
	.st23{fill:#AB5134;}
	.st24{fill:#7E9212;}
	.st25{fill:#7E9112;}
	.st26{fill:#7F9313;}
	.st27{fill:#7F9213;}
	.st28{fill:#7E9213;}
	.st29{fill:#E9E4B6;}
	.st30{fill:#44433F;}
	.st31{fill:#D9A460;}
	.st32{fill:#CD1C18;}
	.st33{fill:#C3BD9B;}
	.st34{fill:#F8F4C8;}
	.st35{fill:#CE1D18;}
	.st36{fill:#CE1D19;}
	.st37{fill:#CE1E19;}
	.st38{fill:#DAC09C;}
</style>
<g>
	<path class="st0" d="M76.9,117.8c0.6,1,1.4,0.9,2.4,0.7c8.6-1.7,17.2-3.3,25.8-4.1c10.4-0.9,20.8-1.1,31.2-0.3
		c10,0.8,19.9,2.1,29.7,4.2c11.6,2.5,23.1,5.5,34.4,9.1c5.8,1.9,11.7,3.7,17.5,5.6c2,0.8,2.1,2.7,2.5,4.3c3,11.4,6,22.8,9,34.2
		c3.1,11.9,6.3,23.7,9.4,35.6c0.7,2.7,1.2,5.3,1.1,8.1c0.1,22.3,0,44.6,0,67c0,1.1,0,2.1-0.5,3.1c-2.2,2.2-4.6,2-7.1,0.7
		c-1-1.6-0.7-3.4-0.7-5.1c0-20.5,0-41.1,0-61.6c0-1.4,0.2-2.9-0.5-4.3c-1.1-1.2-2.5-0.9-3.8-0.9c-23.2,0-46.5,0-69.7,0
		c-11.9,0-23.8,0-35.7,0c-34.3,0-68.6,0-102.9,0c-1.3,0-2.8-0.3-3.9,0.8c-1,1.4-0.7,3-0.7,4.5c0,20.3,0,40.6,0,60.9
		c0,1.7,0.2,3.3-0.4,4.9c-1.8,2.3-4,1.8-6.3,0.8c0-6.5,0-13-0.1-19.5c0.4-1,0.4-1.9,0-2.9c0-17.4,0-34.8,0-52.1
		c0-3.3,1.5-6.2,2.3-9.3c1.6-6.3,3.2-12.6,4.7-18.9c0.4-1.1,0.3-2.4,0.6-3.5c1.3-8.1,4.7-15.7,5.1-24c0-0.8,0.2-1.6,1.1-1.9
		c0.7,0.3,0.4,0.9,0.5,1.5c0,0.3,0.6-0.4,0.3-0.1c-0.2,0.1-0.3,0.1-0.2-0.2c0.2-4.8,1.9-9.3,3.2-13.9c2.4-8.5,0.4-8.2,9.8-11.2
		c0.6-0.2,1.1-0.5,1.6-0.8c1.9-0.4,3.8-0.8,5.7-1.5c1.3-0.4,2.6-0.9,4-1.3c1.4-0.3,2.7-0.8,4-1.2c0.3-0.1,0.5-0.2,0.8-0.2
		c3.3-1,6.5-1.9,9.7-3.1c2.9-0.3,5.6-1.2,8.3-2c1.1-0.2,2.2-0.4,3.3-0.7C74,119.2,75.5,118.5,76.9,117.8z"/>
	<path class="st1" d="M239,214.4c-0.5-8.3-3.5-16.1-5.5-24.1c-4.4-17.6-9.2-35.2-13.8-52.7c-0.4-1.6-0.8-3.2-1.8-4.6
		c0-5.7,0-11.3,0.1-17c0.1-12.8,9.8-22.7,22.2-22.8c12.6-0.1,22.5,9.7,22.8,22.5c0.2,6.9,0.1,13.8,0.1,20.8c0.2,1.3-0.9,1.8-1.6,2.6
		c-3.5,3.5-5.4,7.6-5.2,12.6c0.1,2,0,4.1,0,6.1c0,1.7-0.2,3.3-1.8,4.4c-1.3,0.8-1.3,2,0.1,2.8c1.6,1,1.8,2.5,1.8,4.1
		c0,6,0,11.9,0,17.9c0,2.4-0.7,4.5-0.3,7.2c0.9,6.2,0.4,12.6,0.2,19c0,0.4-0.2,0.8-0.3,1.1c-0.5,0.7-1,0.5-1.3-0.1
		c-0.5-1-0.4-2-0.3-3.3c-3,1.6-5.8,3.4-9.1,3.9C243.2,215,241,215.9,239,214.4z"/>
	<path class="st2" d="M255.4,214.6c0-7,0.1-14,0.1-21.1c0-0.7,0.4-2.1-1.3-1.1c-0.8,0.5-1.3-0.1-1.5-0.8c-0.2-0.7,0.2-1.1,0.9-1.2
		c2-0.2,1.9-1.6,1.9-3c0-6.3,0-12.7,0-19c0-1.3,0.1-2.2-1.7-2.8c-2.2-0.7-2.3-3.1-0.1-4.1c1.6-0.7,1.9-1.7,1.8-3.1
		c-0.1-1.8,0.1-3.7,0-5.6c-0.6-6.9,2.3-12.2,7.7-16.4c11.8-7.4,25.3-1,28.3,10.5c0.6,2.3,0.7,4.6,0.7,7c0,19.4,0,38.8,0,58.2
		c0,10.5-3.7,16-13.3,20c-0.2,0.2-0.5,0.4-0.7,0.7c-3,1-6,0.8-9,0.1c-0.3-0.1-0.6-0.2-0.9-0.2c-6.3-1.9-10.5-6.1-12.7-12.2
		C254.8,218.6,254.2,216.6,255.4,214.6z"/>
	<path class="st3" d="M278.4,232.1c0.1,0,0.3,0,0.4,0c0,16.9,0.1,33.8,0,50.7c0,2.4,0.6,3.3,3.1,3.1c2.7-0.2,5.5,0,8.2-0.1
		c1.8-0.1,2.5,0.6,2.3,2.3c0,0.1,0,0.2,0,0.3c-0.1,5.3,0.5,4.4-4.3,4.4c-91.9,0-183.9,0-275.8,0c-5.2,0-4.4,0.7-4.5-4.5
		c0-0.8,0-1.6,0-2.3c2-0.1,4-0.3,6-0.4c4-1.3,8.1-0.6,12.2-0.6c21,0.1,42.1,0,63.1,0c10.9-0.2,21.8-0.1,32.7,0
		c2.6-0.1,5.3-0.1,7.9,0c10.9-0.1,21.7-0.1,32.6,0c5.1-0.2,10.2,0.2,15.3,0c6.8-0.3,13.7,0.2,20.5,0c10.5-0.1,21.1,0,31.6-0.1
		c1.1,0,2.1,0.2,3.1,0.8c2.1-0.1,4.2,0.5,6.2-0.4c2.1-1.5,4.4-0.9,6.6-0.7c6.4,0.7,12.9,0.2,19.3,0.3c1.7,0,2.5-0.8,2.5-2.5
		c0-1,0-2,0-2.9c0-14.2,0-28.5,0-42.7c0-1.6-0.4-3.4,1-4.7c0.1,0,0.3,0,0.4,0c1.2,1.4,1,3.1,1,4.7c0,14.5,0,29,0,43.6
		c0,3.7,0.4,4,4,3.9c3.1-0.1,3.4-0.4,3.4-3.6c0-14.6,0-29.2,0-43.9C277.4,235.3,277.2,233.5,278.4,232.1z"/>
	<path class="st4" d="M79.8,50.5c-0.6,9.3-1.2,18.6-1.8,28c-1.1,1.2-2.5,1-3.8,1c-17.2,0-34.4,0-51.6,0c-1.3,0-2.8,0.1-3.9-1
		c-0.3-9.4-0.9-18.7-1.8-28c1.1-1.1,2.5-1,3.8-1c18.4,0,36.8,0,55.2,0C77.3,49.5,78.7,49.3,79.8,50.5z"/>
	<path class="st5" d="M79.8,50.5c-20.9,0-41.9,0-62.8,0c-2.2,0-4.4,0-7.2,0c4.6-5,8.7-9.5,12.8-14C30.7,27.6,38.9,18.8,47,10
		c1-1.1,1.6-1.6,2.9-0.2C62,23.1,74.1,36.3,86.3,49.5c0.1,0.1,0.2,0.3,0.6,1C84.3,50.5,82,50.5,79.8,50.5z"/>
	<path class="st6" d="M18.8,78.5c19.7,0,39.5,0,59.2,0c0.3,0,0.6,0.1,0.9,0.1c2.2,0.2,5.2-1,6.4,0.6c1,1.3,0,4.1-0.4,6.2
		C84,90.9,84,96.5,82.6,102c-3.9,0.6-7.9,1-11.9,0.9c-15.6-0.1-31.2-0.1-46.7,0c-3.3,0-6.5-0.4-9.8-1c-0.9-7.3-1.8-14.7-2.8-22
		c-0.2-1.4,0.6-1.4,1.5-1.4C14.9,78.5,16.8,78.5,18.8,78.5z"/>
	<path class="st7" d="M42.1,128.4c-1.6,0.8-3.2,2-5.2,1.1c-2.3-0.7-3.5-2.8-5.1-4.3c-2.2-2-4.3-4.2-6.7-6.6
		c-0.5,6.3-1,12.4-1.5,18.5c-0.5,5.1-0.6,10.3-1.4,15.4c-0.1,0.6-0.1,1.2-0.7,1.5c-0.8,9-3.8,17.6-5.9,26.3
		c-1.4-0.2-0.5-1.1-0.5-1.7c1.1-13.7,2.1-27.4,3.3-41.1c0.8-10.3,1.7-20.6,2.6-30.9c1.1-1,2.4-0.8,3.7-0.5c1,0.4,1.2,1.3,1.1,2.2
		c-0.2,2.5,1.1,4.2,2.8,5.8c3.9,3.8,7.7,7.6,11.5,11.5C41,126.4,42,127.1,42.1,128.4z"/>
	<path class="st8" d="M25.3,106.7c-1.4,0-2.8,0-4.3,0c-2,0-3.8,0-3.5-3c0.2-2.3-2.6-0.4-3.3-1.7c22.8,0,45.6,0,68.4,0
		c-1.9,0.4-4.1,0.5-3.5,3.5c0.1,0.7-0.6,1-1.2,1c-2.1-0.2-1.7,1.3-1.8,2.5c-1.6-1.1-3.3-1.9-5.3-1.5c-5.1,0.1-10.3,0-15.4,0.1
		c-3.2,0-3.4,0.3-3.5,3.5c0,3.7,0,7.4,0,11.1c0,1.3,0.1,2.8-1,3.8c-0.2,0-0.3,0-0.5-0.1c-1-1-0.9-2.3-0.9-3.6c0-3.7,0-7.4,0-11.1
		c0-3.3-0.1-3.4-3.4-3.7c-5.8,0.2-11.7,0.1-17.5,0.1C27.4,107.5,26.2,107.6,25.3,106.7z"/>
	<path class="st9" d="M71.5,106.6c1.9,0,4.2-0.6,4.6,2.3c0.3,2.9,0.5,5.9,0.8,8.8c-0.4,2.5-2.8,1.4-4.1,2.3
		c-0.6-0.3-0.7-0.9-0.8-1.8c-0.8,1.2-1.8,1.9-2.9,2.4c-2.6,0.9-5.2,2.1-8.2,1.8c0.2-1.2,1.2-1.9,2.1-2.7c2.3-2.2,4.4-4.6,6.5-7.1
		c1-1.2,1.8-2.2,1.4-3.9C70.8,108,70.9,107.2,71.5,106.6z"/>
	<path class="st10" d="M15.2,178.6c0.2,0.6,0,1.3,0.5,1.7c-0.4,1-0.2,2.2-1,3C14.7,181.7,14.4,180.1,15.2,178.6z"/>
	<path class="st11" d="M7.7,263.7c0.8,1,0.8,1.9,0,2.9C7.7,265.6,7.7,264.7,7.7,263.7z"/>
	<path class="st12" d="M232.7,285.8c-11.6,0-23.1-0.1-34.7-0.1c-0.3-0.3-0.5-0.6-0.6-1c-0.4-1.3-0.3-2.7-0.3-4.1c0-20.7,0-41.3,0-62
		c0-1.6-0.3-3.3,0.8-4.8c4.2-0.6,8.4-0.4,12.5-0.1c1.2,1.4,0.9,3.1,0.9,4.8c0,19.8,0,39.6,0,59.4c0,0.7,0,1.4,0,2
		c0,4.5,1,5.1,5.6,3.8c1.2-1.1,0.8-2.5,0.8-3.9c0-20.5,0-41.1,0-61.6c0-1.5-0.3-3.1,0.7-4.5c4.7-0.5,9.5-0.5,14.2,0
		c0.1,0.3,0.2,0.6,0.2,0.9C232.8,238.4,232.8,262.1,232.7,285.8z"/>
	<path class="st12" d="M89.1,285.8c-23.9,0-47.9,0-71.8,0c-1.2,0-2.3-0.1-3.5-0.2c0-17-0.1-33.9-0.1-50.9c0-6,0-12.1,0-18.1
		c0-0.9-0.4-2,0.4-2.8c4.7-0.4,9.4-0.4,14.1,0c1.1,1.4,0.8,3.2,0.8,4.8c0,19.8,0,39.6,0,59.4c0,1,0,2,0,2.9c0.1,3.2,0.4,3.4,3.6,3.5
		c1.2,0,2.3,0,3.5,0.1c4.1-0.1,8.2-0.1,12.3,0c2.6-0.1,5.2-0.1,7.8,0c4.1-0.1,8.1-0.1,12.2,0c2.7-0.1,5.5-0.1,8.2,0
		c4,0.1,8-0.5,12,0.4C89.1,285.1,89.2,285.4,89.1,285.8z"/>
	<path class="st12" d="M76.7,125.3c4.2-1.3,8.6-2.1,12.9-2.7c0.5,1,0.4,2.1,0.4,3.2c0,25.5,0,51.1,0,76.6c0,1.7,0.3,3.5-0.8,5.1
		c-4.2,0.6-8.4,0.4-12.6,0c-0.9-1.2-0.8-2.6-0.8-3.9c0-24.7,0-49.3,0-74C75.8,128,75.7,126.5,76.7,125.3z"/>
	<path class="st12" d="M177.6,127.2c4.2,0.8,8.3,1.9,12.3,3.4c1,1.1,0.9,2.5,0.9,3.9c0,23.1,0,46.1,0,69.2c0,1.3,0.1,2.6-0.7,3.6
		c-4.2,0.6-8.4,0.5-12.6,0.1c-0.9-1.2-0.8-2.6-0.8-3.9c0-24.1,0-48.1,0-72.2C176.6,129.9,176.4,128.3,177.6,127.2z"/>
	<path class="st12" d="M56.3,130.7c4-1.5,8.1-2.6,12.3-3.5c1.1,1.1,0.9,2.5,0.9,3.9c0,24.2,0,48.4,0,72.6c0,1.3,0.1,2.6-0.7,3.7
		c-4.2,0.6-8.4,0.4-12.6,0.1c-0.9-1.2-0.8-2.6-0.8-3.9c0-22.9,0-45.8,0-68.6C55.3,133.4,55.2,131.9,56.3,130.7z"/>
	<path class="st12" d="M36.3,137c4-1.6,8.1-3.1,12.3-4c1.1,1.1,0.9,2.5,0.9,3.9c0,22.3,0,44.6,0,66.8c0,1.3,0.1,2.5-0.7,3.6
		c-4.2,0.6-8.4,0.5-12.6,0.1c-0.9-1.2-0.8-2.6-0.8-3.9c0-20.8,0-41.5,0-62.3C35.4,139.8,35.3,138.3,36.3,137z"/>
	<path class="st12" d="M198.1,133c4.2,1,8.3,2.3,12.3,4c1,1.1,0.9,2.5,0.9,3.9c0,20.9,0,41.9,0,62.8c0,1.3,0.1,2.6-0.7,3.6
		c-4.2,0.6-8.4,0.4-12.6,0.1c-0.9-1.2-0.8-2.6-0.8-3.9c0-22.1,0-44.2,0-66.3C197.1,135.8,196.9,134.2,198.1,133z"/>
	<path class="st12" d="M157.1,122.6c4.4,0.7,8.7,1.4,12.9,2.8c0.9,1.1,0.9,2.5,0.9,3.9c0,24.8,0,49.7,0,74.5c0,1.3,0.1,2.6-0.7,3.7
		c-4.2,0.7-8.4,0.4-12.6,0.2c-1.5-4.5-1.2-9.1-0.2-13.6c0.4-0.4,1-0.7,1.6-0.8c2.1-0.2,2.4-1.6,2.4-3.3c0-3.2,0-6.4,0-9.7
		c0-11.5,0-23,0-34.5c0-1.3,0.1-2.5-0.2-3.8c-0.7-1.9-3.1-0.6-3.9-2.1C156.3,134,156.6,128.3,157.1,122.6z"/>
	<path class="st13" d="M89.1,207.3c0-27.4,0-54.8-0.1-82.2c0-0.9,0.1-1.7,0.6-2.5c1.7-0.4,3.4-0.8,5.1-0.7c2.3-0.8,3.3,0.3,3.4,2.5
		c0.1,1.1,0.1,2.1,0.1,3.2c0,24.9,0,49.7,0,74.6c0,1.7,0.3,3.5-0.7,5.1C94.7,208,91.9,207.9,89.1,207.3z"/>
	<path class="st13" d="M68.6,207.3c0-26.7,0-53.4-0.1-80c2.7-0.9,5.4-1.6,8.2-2c0,27.3,0,54.7,0,82C74,207.9,71.3,208,68.6,207.3z"
		/>
	<path class="st13" d="M198.1,133c0,24.8,0,49.5-0.1,74.3c-2.7,0.6-5.4,0.7-8.1,0c0-25.6,0-51.1-0.1-76.7
		C192.7,131.1,195.4,132,198.1,133z"/>
	<path class="st13" d="M170,207.3c0-27.3,0-54.7,0-82c2.6,0.2,5.1,1,7.6,1.8c0,26.7,0,53.4-0.1,80.2
		C175,207.9,172.5,207.9,170,207.3z"/>
	<path class="st13" d="M48.7,207.3c0-24.8,0-49.5-0.1-74.3c2.5-1,5-1.8,7.6-2.3c0,25.5,0,51.1-0.1,76.6
		C53.7,207.9,51.2,207.9,48.7,207.3z"/>
	<path class="st13" d="M36.3,137c0,23.4,0,46.8-0.1,70.3c-2.8,0.7-5.6,0.6-8.3,0c-0.9-1.2-0.7-2.6-0.7-3.9c0-12.6,0-25.3,0-37.9
		c0-2.7,0.4-5.4,0.9-8.1c1.5-6.1,3.1-12.2,4.6-18.2C33.2,137.2,34.9,137.4,36.3,137z"/>
	<path class="st13" d="M210.4,207.3c0-23.4,0-46.8-0.1-70.3c2.4,0,3.5,1.3,4,3.6c1.1,4.9,2.4,9.7,3.6,14.6c0.6,3.3,0.9,6.7,0.9,10.1
		c0,12.5,0,24.9,0,37.4c0,1.5,0.2,3.1-0.7,4.5C215.6,208,213,208,210.4,207.3z"/>
	<path class="st12" d="M97.2,207.3c0-27.7,0-55.3,0.1-83c0-2-0.7-2.6-2.5-2.5c4.7-1,9.4-1.6,14.2-1.7c0.4,0.4,0.7,1,0.7,1.5
		c0.1,4.7,0.7,9.4-0.4,14.1c-1,1.3-2.4,0.9-3.8,1c-1.2,0.1-2.6-0.2-3.5,0.9c-1,1.2-0.9,2.7-0.9,4.2c0,16.9,0,33.9,0,50.8
		c0,3.9,0.5,4.3,4.4,4.5c1.3,0.1,2.6,0,3.6,0.8c1.1,3.2,1.3,6.4-0.1,9.5C105.1,207.7,101.2,208.1,97.2,207.3z"/>
	<path class="st14" d="M245.4,285.4c-2.1,0-4.3,0-6.4,0c0-23.7,0-47.3,0.1-71c2.2,0.2,4.3-0.1,6.5-0.5c1.1,1.1,1,2.5,1,3.9
		c0,21.3,0,42.5,0,63.8C246.5,282.9,246.6,284.4,245.4,285.4z"/>
	<path class="st12" d="M217.9,207.3c0-17.4,0.1-34.7,0.1-52.1c2.9,10.9,5.9,21.7,8.8,32.6c1.7,6.3,3.2,12.6,4.8,18.9
		c0.1,0.4,0,0.9-0.4,0.9C226.7,207.6,222.3,208.1,217.9,207.3z"/>
	<path class="st12" d="M28.1,157.4c0,14.8,0.1,29.6,0.1,44.3c0,1.8,0,3.7,0.1,5.5c-4.1,0.9-8.2,0.3-12.3,0.3c-0.9,0-1-0.7-0.7-1.5
		c2.4-9.5,4.8-19,7.3-28.5C24.3,170.9,26.2,164.2,28.1,157.4z"/>
	<path class="st15" d="M15.2,206.2c0.1,1.2,1,1.3,1.9,1.3c3.7,0,7.4-0.1,11.1-0.1c2.7,0,5.4,0,8.1,0c4.1,0,8.3,0,12.4,0
		c2.5,0,5,0,7.5,0c4.1,0,8.3,0,12.4,0c2.7,0,5.4,0,8.1,0c4.1,0,8.3,0,12.4,0c2.7,0,5.4,0,8.1,0c4,0,7.9,0,11.9,0
		c1.1-0.9,2.3-0.7,3.6-0.8c3.6-0.1,3.6-0.1,3.7-3.8c0-1.7-0.4-3.5,0.9-5c4-1,8.1-1,12.1-0.1c1.5,1.5,0.9,3.5,1,5.3
		c0.1,3.4,0.2,3.5,3.7,3.6c1.1,0,2.1,0,3.2,0c4-0.1,8.1-0.1,12.1,0c2.7,0.2,5.6-0.7,8.2,0.7c4.2,0,8.3,0,12.5,0c2.5,0,5,0,7.5,0
		c4.1,0,8.3,0,12.4,0c2.7,0,5.4,0,8.1,0c4.1,0,8.3,0,12.4,0c2.5,0,5,0,7.5,0c3.9,0,7.7,0.1,11.6,0.1c0.8,0,1.6,0.1,2.1-0.7
		c0.4,2-1.2,1-1.8,1.1c-5.5,0.1-10.9,0.1-16.4,0.1c-65.2,0-130.4,0-195.6-0.1C17,207.7,14.3,209.4,15.2,206.2z"/>
	<path class="st12" d="M101.4,136.5c2.5-1.2,5.1-0.2,7.7-0.6c1.3-1.1,3-0.8,4.5-0.8c2,0,2.8-0.9,2.8-2.8c0-3,0-6,0-9
		c0-1.3-0.1-2.6,0.9-3.6c4.1-0.3,8.2-0.3,12.3,0c1.3,1.6,0.8,3.5,0.9,5.3c0.1,2.3,0.1,4.7,0,7c-0.1,2.2,0.8,3.3,3.1,3.1
		c1.3-0.1,2.5,0,3.8,0c1.9-0.1,3.9-0.2,5.8,0.1c0.9,0.1,2.3-0.1,2.1,1.6c-1.2,0.9-2.6,0.8-3.9,0.8c-11.9,0-23.8,0-35.7,0
		C104.1,137.5,102.6,137.7,101.4,136.5z"/>
	<path class="st12" d="M145.3,136.5c-2.7-1.2-5.5-0.3-8.2-0.6c-0.7-0.8-0.8-1.7-0.9-2.7c-0.1-3.5-0.1-7,0-10.4c0-1,0.1-1.9,0.9-2.7
		c5,0,9.9,0.7,14.8,1.7c-1,1.7-1,3.5-1.1,5.3c-0.2,4.2,0.6,8.5-0.5,12.7c-2.6,1.5-3.4,1.3-4.8-1.4
		C145.3,137.8,145,137.2,145.3,136.5z"/>
	<path class="st13" d="M150,140c0-5.3,0-10.5,0-15.8c0-1.5,0.2-2.5,2-2.5c1.7,0.3,3.4,0.5,5.1,0.8c1.1,2.3,0.5,4.8,0.5,7.2
		c0.1,3.4,0,6.8,0,10.3C155.1,141.3,152.5,141.3,150,140z"/>
	<path class="st13" d="M117.2,119.6c0,4.7-0.1,9.3,0,14c0,1.8-0.6,2.5-2.3,2.4c-1.9-0.1-3.9-0.1-5.8-0.1c0-5.2,0-10.5-0.1-15.7
		C111.7,119.5,114.4,119.5,117.2,119.6z"/>
	<path class="st13" d="M137.1,120.1c0,5.3,0,10.5-0.1,15.8c-7.6,0.1-7.6,0.1-7.6-7.5c0-2.9,0-5.8,0-8.8
		C132.1,119.5,134.6,119.4,137.1,120.1z"/>
	<path class="st6" d="M46.3,127.1c0-6.8,0-13.7,0-20.5c4.1-0.2,4.1-0.2,4.1,3.9c0,5.1,0,10.3,0,15.4
		C49.1,126.6,47.8,127.1,46.3,127.1z"/>
	<path class="st16" d="M28.2,214c-4.7-0.1-9.4-0.1-14.1-0.2c0.6-0.7,1.5-0.5,2.2-0.5c34.9,0,69.8-0.1,104.7-0.1c0.3,0,0.6,0,0.9,0.1
		c0,0.4-0.2,0.7-0.5,0.9c-0.9,0.5-1.9,0.5-2.8,0.5c-9.8,0-19.6,0.1-29.3,0c-4.1,0.1-8.2,0.1-12.3,0c-2.8,0.1-5.5,0.1-8.3,0
		c-4.1,0.1-8.1,0.1-12.2,0c-2.6,0.1-5.2,0.1-7.7,0c-4.1,0.1-8.1,0.1-12.2,0C33.7,214.6,30.8,215.4,28.2,214z"/>
	<path class="st17" d="M232.6,213.8c-4.7,0-9.4,0.1-14.1,0.1c-0.3,0.2-0.6,0.4-0.9,0.5c-2.4,0.2-4.9,0.8-7.3-0.5
		c-4.1,0-8.2,0-12.3,0c-2.6,1.4-5.5,0.6-8.2,0.7c-4.1,0.1-8.1,0.1-12.2,0c-2.5,0.1-5.1,0.1-7.6,0c-2.5,0.1-5,0.1-7.4,0
		c-1.6,0-3.2,0.2-4.7-0.5c-0.4-0.2-0.5-0.5-0.3-0.9c24.4,0,48.8,0,73.2-0.1C231.4,213.3,232.1,213.2,232.6,213.8z"/>
	<path class="st18" d="M157.6,213.4c0,0.1,0,0.3,0,0.4c-0.9,1-2.1,1-3.2,1c-8.2,0-16.3,0.1-24.5-0.1c-2.5-0.1-5.1,0.4-7.6-0.4
		c-0.1-0.1-0.3-0.2-0.4-0.3c0-0.2,0-0.4,0.1-0.6C133.8,213.4,145.7,213.4,157.6,213.4z"/>
	<path class="st19" d="M252.4,206.7c-0.4,1.3-0.8,2.4-2.4,2.4c-1.6,0-2.4-1-2.5-2.3c0-1.3,0.7-2.4,2.3-2.4
		C251.5,204.4,252,205.5,252.4,206.7z"/>
	<path class="st19" d="M229.7,114.6c0,0.8-0.7,1.8-2.2,1.9c-1.5,0.1-2.4-0.8-2.4-2.3c0-1.5,1-2.2,2.4-2.3
		C228.9,111.8,229.7,112.5,229.7,114.6z"/>
	<path class="st19" d="M254.1,135.4c0.9,0.1,1.9,0.8,1.9,2.3c0,1.5-0.9,2.4-2.4,2.3c-1.5-0.1-2.2-1.1-2.2-2.5
		C251.4,136,252.1,135.3,254.1,135.4z"/>
	<path class="st19" d="M245.5,153.5c0.1,1.5-0.5,2.4-2.1,2.3c-1.6,0-2.3-1.1-2.3-2.4c0-1.1,0.7-2.3,2.1-2.2
		C244.6,151.3,245.6,151.9,245.5,153.5z"/>
	<path class="st19" d="M240.7,130.7c-1.6-0.2-2.2-1.4-2.1-2.7c0.1-1.4,1.2-2,2.7-2c1.5,0,2,1,1.8,2.3
		C243,129.8,242.2,130.5,240.7,130.7z"/>
	<path class="st19" d="M242.9,179.8c-1.3-0.3-2.4-1.2-2.5-2.4c-0.2-1.4,1-2.4,2.2-2.5c1.1-0.1,2.2,0.6,2.3,2.1
		C245,178.4,244.4,179.4,242.9,179.8z"/>
	<path class="st19" d="M239.6,100.1c-0.1,1.3-0.8,2.2-2.1,2.4c-1.5,0.1-2.4-0.8-2.5-2.2c0-1.5,0.9-2.4,2.4-2.3
		C238.7,97.9,239.4,98.8,239.6,100.1z"/>
	<path class="st19" d="M248.3,115.4c-1.4-0.3-2.3-1.1-2.1-2.6c0.1-1.3,1-2.1,2.4-2c1.4,0.1,2.3,1.1,2.2,2.5
		C250.6,114.6,249.7,115.3,248.3,115.4z"/>
	<path class="st20" d="M238.8,114.3c0.9,0.1,1.4,0.6,1.4,1.5c0,0.6-0.4,1.2-1,1.2c-0.9,0-1.4-0.6-1.6-1.4
		C237.4,114.8,238,114.4,238.8,114.3z"/>
	<path class="st21" d="M232,128.2c0,0.9-0.5,1.3-1.3,1.2c-0.7,0-1.4-0.3-1.4-1.2c0-0.7,0.6-1,1.2-1
		C231.3,127.1,231.9,127.3,232,128.2z"/>
	<path class="st2" d="M253,150.8c0.9,0.1,1.2,0.7,1.3,1.4c0,0.6-0.1,1.2-0.8,1.3c-0.8,0-1.3-0.4-1.4-1.2
		C251.9,151.5,252.4,151,253,150.8z"/>
	<path class="st19" d="M223.8,136.6c0.7,0,1.1,0.3,1.1,1c0,0.8-0.4,1.3-1.2,1.2c-0.7,0-1-0.5-1-1.1
		C222.7,137,223.1,136.6,223.8,136.6z"/>
	<path class="st22" d="M242.5,191.3c-0.1,0.6-0.4,1.2-1,1.2c-0.8,0.1-1.2-0.5-1.2-1.3c0-0.6,0.3-1.2,1-1.2
		C242.1,190,242.4,190.6,242.5,191.3z"/>
	<path class="st20" d="M227.2,150.5c-0.7-0.1-1.3-0.3-1.3-1.2c0-0.7,0.5-1,1.2-1c0.7,0,1.3,0.3,1.3,1.1
		C228.3,150.1,227.8,150.4,227.2,150.5z"/>
	<path class="st19" d="M257.2,123.1c0,0.7-0.4,1-1.1,1c-0.9,0-1.2-0.6-1.1-1.3c0.1-0.7,0.6-0.9,1.2-0.9
		C256.9,122,257.2,122.4,257.2,123.1z"/>
	<path class="st21" d="M240.2,167.3c-0.1,0.7-0.4,1.3-1.3,1.2c-0.6-0.1-1-0.6-1-1.2c0-0.7,0.4-1.3,1.2-1.2
		C239.8,166.1,240.1,166.7,240.2,167.3z"/>
	<path class="st19" d="M253.5,102.5c0,0.7-0.4,1-1.1,1.1c-0.8,0.1-1.4-0.2-1.5-1c-0.1-0.7,0.4-1,1-1.1
		C252.8,101.3,253.3,101.7,253.5,102.5z"/>
	<path class="st21" d="M234.8,155.8c-0.1,0.7-0.5,1-1.1,1.1c-0.8,0.1-1.4-0.2-1.4-1c-0.1-0.7,0.4-1,1.1-1.1
		C234.1,154.7,234.6,155,234.8,155.8z"/>
	<path class="st19" d="M237.3,139c0.7-0.1,1,0.2,1,0.8c0,0.6-0.3,1.1-0.9,1.2c-0.7,0.1-1.1-0.3-1.1-1
		C236.3,139.4,236.8,139.1,237.3,139z"/>
	<path class="st23" d="M278.4,232.1c0,16.7-0.1,33.3,0,50c0,2.5-0.5,3.4-3.2,3.3c-6.3-0.2-6.3,0-6.3-6.3c0-15.7,0-31.4,0-47.1
		C272.1,232.9,275.2,232.9,278.4,232.1z"/>
	<path class="st24" d="M272.7,186.3c-1-0.3-1.9-0.8-1.8-1.9c0.1-1,0.8-1.9,1.9-1.8c1,0.1,2,0.6,1.8,1.8
		C274.6,185.5,273.8,186.1,272.7,186.3z"/>
	<path class="st25" d="M270.7,216.4c-0.3,1.1-0.8,2-1.9,1.9c-0.9-0.1-1.6-0.7-1.6-1.8c0-1.1,0.3-2.1,1.6-2
		C269.9,214.6,270.3,215.5,270.7,216.4z"/>
	<path class="st25" d="M264.1,174.7c0.9,0.4,1.9,0.8,1.7,2c-0.2,1.1-1,1.6-2.2,1.4c-1-0.1-1.8-0.6-1.6-1.7
		C262.2,175.4,263,174.8,264.1,174.7z"/>
	<path class="st24" d="M273.5,167.5c-1.1-0.1-1.9-0.8-2-1.8c-0.2-1.1,0.6-1.5,1.6-1.6c1.2-0.1,2,0.4,2.2,1.5
		C275.3,166.7,274.4,167.2,273.5,167.5z"/>
	<path class="st24" d="M266.6,197c-0.3,1.1-0.8,2-1.9,1.9c-0.9-0.1-1.6-0.6-1.6-1.7c0-1.1,0.2-2.1,1.5-2
		C265.7,195.3,266.2,196.2,266.6,197z"/>
	<path class="st25" d="M285.3,156.3c0,1.2-0.5,1.8-1.7,1.8c-1,0-1.6-0.5-1.7-1.6c-0.1-1,0.4-1.7,1.4-1.8
		C284.5,154.6,285.2,155.1,285.3,156.3z"/>
	<path class="st25" d="M287.7,174.6c1,0,1.7,0.5,1.7,1.6c0.1,1.2-0.5,1.8-1.7,1.9c-1,0-1.7-0.5-1.7-1.5
		C285.9,175.4,286.5,174.7,287.7,174.6z"/>
	<path class="st25" d="M285.4,217.3c-1.1,0-1.8-0.6-1.8-1.8c0-1,0.6-1.6,1.6-1.7c1.2,0,1.8,0.6,1.8,1.7
		C287.1,216.7,286.5,217.3,285.4,217.3z"/>
	<path class="st25" d="M269.5,142.3c0,1.1-0.6,1.8-1.8,1.8c-1,0-1.6-0.6-1.7-1.6c0-1.2,0.6-1.8,1.8-1.8
		C268.9,140.7,269.4,141.2,269.5,142.3z"/>
	<path class="st25" d="M274.9,206.2c-1,0-1.7-0.4-1.8-1.5c-0.1-1.1,0.4-1.9,1.6-2c1.2-0.1,1.8,0.6,1.8,1.7
		C276.5,205.6,276,206.1,274.9,206.2z"/>
	<path class="st25" d="M279.5,226.8c-0.1,1.2-0.8,1.7-1.9,1.6c-1-0.1-1.5-0.8-1.5-1.8c0.1-1.2,0.8-1.7,1.9-1.6
		C279,225.1,279.5,225.8,279.5,226.8z"/>
	<path class="st26" d="M276.4,213.5c0.7,0.1,1.1,0.4,1.1,0.9c0,0.8-0.5,1.2-1.3,1.2c-0.5,0-0.8-0.4-0.8-1
		C275.6,213.9,276,213.6,276.4,213.5z"/>
	<path class="st26" d="M263.6,208.5c0,0.5-0.1,1-0.7,1.1c-0.6,0.1-0.9-0.3-1-0.8c-0.1-0.6,0.1-1.2,0.8-1.2
		C263.3,207.5,263.6,207.9,263.6,208.5z"/>
	<path class="st27" d="M266.8,224.8c-0.3,0.5-0.6,1.1-1.2,0.9c-0.5-0.1-0.7-0.6-0.6-1.1c0.1-0.6,0.5-0.8,1-0.7
		C266.4,224,266.9,224.2,266.8,224.8z"/>
	<path class="st26" d="M288.6,196.3c0,0,0.5,0,0.5,0.7c0,0.5-0.4,0.8-0.9,0.9c-0.5,0.1-1-0.1-1-0.7
		C287.2,196.6,287.6,196.4,288.6,196.3z"/>
	<path class="st25" d="M265.9,185.4c-0.1,0.6-0.4,0.9-0.9,0.8c-0.5-0.1-1-0.3-0.9-0.9c0.1-0.3,0.5-0.6,0.8-0.7
		C265.5,184.5,265.8,184.8,265.9,185.4z"/>
	<path class="st26" d="M281.6,182.6c0,0.7-0.4,0.8-0.9,0.8c-0.4,0-0.8,0-0.9-0.5c-0.2-0.6,0.3-0.9,0.7-1
		C281,181.7,281.4,182.1,281.6,182.6z"/>
	<path class="st24" d="M282.8,203.6c0.7,0,0.8,0.5,0.8,1c0,0.4-0.1,0.8-0.5,0.9c-0.6,0.1-0.9-0.3-1-0.8
		C281.9,204.1,282.4,203.8,282.8,203.6z"/>
	<path class="st24" d="M286.4,187.8c-0.1,0.4-0.2,0.8-0.7,0.8c-0.6,0-0.9-0.3-0.8-0.9c0-0.5,0.4-0.6,0.8-0.6
		C286.1,187,286.4,187.3,286.4,187.8z"/>
	<path class="st24" d="M278.3,195.2c0,0.4-0.1,0.9-0.6,0.8c-0.5-0.1-0.9-0.4-0.9-0.9c0-0.4,0.2-0.8,0.7-0.8
		C278,194.3,278.2,194.8,278.3,195.2z"/>
	<path class="st24" d="M285.8,165.9c0.5,0.1,0.7,0.4,0.7,0.8c0,0.6-0.4,0.8-1,0.7c-0.4-0.1-0.6-0.5-0.5-0.9
		C285,166.1,285.3,165.9,285.8,165.9z"/>
	<path class="st24" d="M261.7,165.9c0.5,0.1,0.7,0.4,0.7,0.8c0,0.6-0.4,0.8-1,0.7c-0.4-0.1-0.6-0.5-0.5-0.9
		C261,166.1,261.3,165.9,261.7,165.9z"/>
	<path class="st28" d="M275.2,154.6c-0.1,0.6-0.4,0.6-0.8,0.6c-0.5,0-1-0.3-0.9-0.9c0-0.4,0.4-0.6,0.8-0.6
		C274.8,153.7,275.1,154.1,275.2,154.6z"/>
	<path class="st24" d="M277,173.8c-0.1,0.4-0.3,0.7-0.7,0.7c-0.6,0-0.9-0.4-0.8-0.9c0.1-0.5,0.4-0.6,0.8-0.6
		C276.9,173,277,173.4,277,173.8z"/>
	<path class="st25" d="M283.4,143c0.4,0.1,0.7,0.3,0.7,0.7c0,0.4-0.3,0.8-0.7,0.7c-0.3-0.1-0.7-0.4-0.7-0.8
		C282.6,143.3,282.9,143.1,283.4,143z"/>
	<path class="st24" d="M265.3,154.3c0.1,0.4-0.1,0.8-0.5,0.9c-0.4,0.1-0.8,0-0.8-0.5c0-0.3,0.3-0.7,0.6-0.9
		C264.9,153.6,265.2,153.8,265.3,154.3z"/>
	<path class="st29" d="M89,213.9c10.9,0,21.9,0.1,32.8,0.1c0,0,0.1-0.1,0.1-0.1c1,1.1,0.9,2.5,0.9,3.9c0,21.4,0,42.9,0,64.3
		c0,1.4,0,2.8-1,3.9c-10.9,0-21.8-0.1-32.8-0.1c0-0.2,0-0.3-0.1-0.5c-0.8-1.1-0.8-2.4-0.8-3.6c0-21.4,0-42.8,0-64.2
		C88.1,216.2,88.1,214.9,89,213.9z"/>
	<path class="st29" d="M129.5,213.9c9.4,0,18.7-0.1,28.1-0.1c1.6,0,3.2,0,4.8,0.1c1,1.1,0.9,2.5,0.9,3.9c0,21.4,0,42.8,0,64.2
		c0,1.3,0.1,2.8-0.9,3.9c-10.9,0-21.9,0.1-32.8,0.1c-1.1-1.1-1-2.5-1-3.9c0-21.4,0-42.9,0-64.3C128.6,216.4,128.5,215,129.5,213.9z"
		/>
	<path class="st12" d="M177.5,214c4.1,0,8.2,0,12.3,0c1.2,1.4,0.9,3.1,0.9,4.7c0,19.8,0,39.5,0,59.3c0,1,0.1,2,0,2.9
		c-0.2,2.4,0.8,3.7,3.4,3.5c1.3-0.1,2.8-0.1,3.9,0.9c0,0.1,0,0.3,0,0.4c-6.8,0-13.7,0-20.5,0c-0.3-0.3-0.5-0.6-0.6-1
		c-0.4-1.2-0.3-2.5-0.3-3.8c0-20.8,0-41.5,0-62.3C176.6,217.1,176.3,215.4,177.5,214z"/>
	<path class="st12" d="M177.5,285.3c0,0.1,0,0.3,0,0.4c-5.1,0-10.1,0.1-15.2,0.1c0-24,0-48,0-72c2.5,0,5.1,0.1,7.6,0.1
		c1.2,1.4,0.9,3.1,0.9,4.7c0,20,0,39.9,0,59.9c0,1,0,1.9,0,2.9c0,1.9,0.8,2.9,2.8,2.9C175,284.4,176.4,284.3,177.5,285.3z"/>
	<path class="st30" d="M129.5,213.9c0,24,0.1,48,0.1,72.1c-2.6,0-5.2,0-7.7,0c0-24,0.1-48,0.1-72C124.4,213.9,127,213.9,129.5,213.9
		z"/>
	<path class="st31" d="M31.6,100.1c-1,0-2,0-2.9,0c-1,0-1.6-0.3-1.7-1.5c-0.4-5.2-0.8-10.5-1.2-15.7c-0.1-1.7,0.5-2.1,2.2-2.2
		c7.7-0.3,7.7-0.3,7.8,7.5c0,2.8-0.1,5.6,0.5,8.5c0.5,2.5-0.2,4-3.2,3.4C32.6,100.1,32.1,100.1,31.6,100.1z"/>
	<path class="st31" d="M47.4,90.5c0,2.5-0.1,5.1,0,7.6c0,1.5-0.5,2.1-2,2c-8.8-0.2-7,1.2-7.4-6.9c-0.1-3.3-0.3-6.6-0.5-9.9
		c-0.1-1.8,0.3-2.6,2.4-2.6c7.5-0.1,7.5-0.2,7.5,7.4C47.4,88.9,47.4,89.7,47.4,90.5z"/>
	<path class="st31" d="M61,92.4c-0.3-2.9,0.6-6.2,0.5-9.6c0-1.3,0.4-1.8,1.8-2c7.7-0.6,8.2-0.2,7.5,7.4c-0.3,3.4-0.7,6.8-1,10.1
		c-0.1,1.6-0.8,1.9-2.2,1.9C60.9,100.4,60.9,100.5,61,92.4z"/>
	<path class="st4" d="M49.7,90.2c0-2.3,0.1-4.7,0-7c-0.1-1.7,0.4-2.4,2.3-2.5c7.3-0.2,7.4-0.3,7.2,7c-0.1,3.5-0.4,7-0.5,10.5
		c0,1.4-0.6,1.8-1.9,1.9c-7,0.5-7,0.5-7-6.4C49.7,92.6,49.7,91.4,49.7,90.2z"/>
	<path class="st4" d="M77.9,80.9c-0.4,6.4-1.1,12.8-1.1,19.2c-5.2,0.3-5.3,0.2-4.7-4.9c0.4-3.3,0.7-6.7,1-10.1
		C73.5,80.7,73.5,80.7,77.9,80.9z"/>
	<path class="st4" d="M19.9,100.1c0.6-5.2-0.6-10.4-0.6-15.6c0-1.2-0.1-2.3-0.1-3.5c2.8-0.6,4.6-0.1,4.6,3.4c0,4.2,0.4,8.4,0.9,12.5
		c0.3,2.8-0.8,3.7-3.4,3.3C20.9,100.1,20.4,100.1,19.9,100.1z"/>
	<path class="st13" d="M198,285.3c-1.9,0-3.7-0.1-5.6,0.1c-2.1,0.2-2.7-0.6-2.7-2.7c0.1-11.5,0-23,0-34.5c0-11.4,0-22.8,0-34.2
		c2.7,0,5.4,0,8.2,0C198,237.8,198,261.5,198,285.3z"/>
	<path class="st13" d="M210.4,214c2.5,0,5.1,0,7.6,0c0.5,0.7,0.3,1.5,0.3,2.3c0,22.3,0,44.6,0,66.8c0,0.8,0.2,1.6-0.3,2.3
		c-7.6,0.1-7.6,0.1-7.6-7.6C210.4,256.5,210.4,235.2,210.4,214z"/>
	<path class="st12" d="M218,285.3c0-23.8,0-47.6,0-71.4c0.2,0,0.4,0,0.6,0c0,22.7,0,45.4,0,68.1C218.5,283.1,219,284.4,218,285.3z"
		/>
	<path class="st12" d="M89,213.9c0,23.8,0,47.7-0.1,71.5c-4.1,0-8.1,0-12.2,0c-1-1.1-0.9-2.5-0.9-3.9c0-21.2,0-42.4,0-63.5
		c0-1.3-0.2-2.8,0.9-3.9C80.8,214,84.9,213.9,89,213.9z"/>
	<path class="st12" d="M36.3,214c4.1,0,8.3,0,12.4,0c1.1,1.1,0.9,2.5,0.9,3.9c0,21.2,0,42.4,0,63.6c0,1.4,0.1,2.8-0.9,3.9
		c-4.1,0-8.2,0-12.4,0c-1-1.1-0.9-2.5-0.9-3.9c0-21.2,0-42.4,0-63.5C35.4,216.5,35.2,215.1,36.3,214z"/>
	<path class="st12" d="M56.2,214c4.1,0,8.3,0,12.4,0c1.1,1.1,0.9,2.5,0.9,3.9c0,21.2,0,42.3,0,63.5c0,1.4,0.1,2.8-0.9,3.9
		c-4.1,0-8.2,0-12.4,0c-1-1.1-0.9-2.5-0.9-3.9c0-21.2,0-42.4,0-63.6C55.3,216.5,55.2,215.1,56.2,214z"/>
	<path class="st13" d="M36.3,214c0,23.8,0,47.5,0,71.3c-1.9,0-3.7-0.1-5.6,0.1c-2.1,0.2-2.7-0.6-2.6-2.7c0.1-12.3,0-24.6,0-36.8
		c0-10.6,0-21.2,0-31.9C30.9,214,33.6,214,36.3,214z"/>
	<path class="st13" d="M68.6,285.3c0-23.8,0-47.5,0-71.3c2.7,0,5.4,0,8.1,0c0,23.8,0,47.5,0,71.3C74,285.3,71.3,285.3,68.6,285.3z"
		/>
	<path class="st13" d="M56.2,214c0,23.8,0,47.6,0,71.3c-2.5,0-5,0-7.6,0c0-23.8,0-47.6,0-71.3C51.2,214,53.7,214,56.2,214z"/>
	<path class="st29" d="M162.2,140.7c0,13.6,0.1,27.3,0.1,40.9c0,3.1-0.2,6.2,0.1,9.4c0.2,2.4-0.6,3.4-3,3c-0.6-0.1-1.2,0-1.7,0.1
		c-2.4,1.4-5.1,0.6-7.6,0.8c-1.8-0.7-2.7,1.3-4.3,1.5c-0.8-1.6-3.1-1.4-4-3c-0.5-1.3-0.4-2.7-0.4-4.1c0-14.7,0-29.4,0-44.2
		c0-1.5-0.2-3.1,0.7-4.5c0.6-0.6,1.4-0.8,2.1-0.7c5.8,0.9,11.6,0.2,17.4,0.5C161.9,140.4,162,140.6,162.2,140.7z"/>
	<path class="st32" d="M149.4,194c2.7,0,5.5,0,8.2,0c0,4.4,0,8.9-0.1,13.3c-2.7,0-5.4,0-8,0c-1-0.9-1.1-2.1-1-3.3
		C148.8,200.7,147.6,197.2,149.4,194z"/>
	<path class="st33" d="M162.2,140.7c-6.6,0-13.2,0-19.8,0c-0.2,0.2-0.4,0.5-0.7,0.5c-5.7,0.6-11.4,0.9-17.1-0.2
		c-0.3-0.3-0.4-0.6-0.3-1c1.1-0.9,2.5-0.8,3.9-0.8c4.3,0,8.7-0.1,13,0c1.8,0,3.4-0.3,4.8-1.5c0.3,2.6,2,2.8,4,2.4c2.5,0,5.1,0,7.6,0
		C159.1,140.5,160.8,139.5,162.2,140.7z"/>
	<path class="st34" d="M146,137.7c0.2,1.9-0.8,2.4-2.6,2.4c-6.4-0.1-12.8,0-19.2,0c-1,1-2.3,0.8-3.6,0.8c-4.1,0-8.1,0-12.2,0
		c-1.1,0-2.3-0.2-3.2,0.8c-0.8,1.1-0.6,2.4-0.6,3.7c0,14.5,0,29,0,43.5c0,4,0.1,4.1,4.1,4.1c5.2,0,10.3-0.1,15.5,0.1
		c4.9-0.1,9.9-0.1,14.8,0c1.1,0,2.3,0,3.3,0.9c1.7,0.1,4-0.5,3.7,2.5c0.2,2-1.3,2.1-2.6,2.3c-2.1,0.3-4.2,0.2-6.4,0.1
		c-2.5-0.1-5.2,0.7-7.5-0.8c-4.1,0-8.2,0-12.3,0c-2.7,1.3-5.5,1.3-8.2,0c-1.8,0-3.7-0.1-5.5-0.1c-2.2,0-3.2-0.9-3.2-3.1
		c0-18.5,0-37,0-55.4c0-1.2,0.4-2.1,1.1-2.9c14.7,0,29.3,0,44,0C145.6,136.9,145.8,137.3,146,137.7z"/>
	<path class="st35" d="M109,198.1c2.7,0,5.5,0,8.2,0c0,2.4-0.1,4.9,0,7.3c0,1.5-0.5,2.1-2,2.1c-2-0.1-4.1-0.1-6.1-0.1
		C109.1,204.2,109,201.2,109,198.1z"/>
	<path class="st12" d="M137.1,198.1c2,0,4.1-0.1,6.1-0.1c1.2,0,2.4,0,2.8-1.5c0.2-2.2,1.3-3,3.4-2.4c0,4.4,0,8.8,0.1,13.3
		c-4.2,0-8.3,0-12.5,0C135.8,204.2,135.7,201.1,137.1,198.1z"/>
	<path class="st32" d="M137.1,198.1c0,3.1,0,6.2-0.1,9.3c-7.6,0.3-7.6,0.3-7.5-7.2c0-0.7,0-1.4,0-2
		C132,198.1,134.6,198.1,137.1,198.1z"/>
	<path class="st13" d="M177.5,285.3c-7.6,0.1-7.6,0.1-7.6-7.6c0-21.3,0-42.5,0-63.8c2.5,0,5.1,0,7.6,0
		C177.5,237.8,177.5,261.5,177.5,285.3z"/>
	<path class="st13" d="M118.8,232.5c0,4.4-0.1,8.8,0,13.2c0,1.8-0.5,2.4-2.3,2.4c-7.3-0.1-14.6-0.1-22,0c-1.7,0-2.4-0.4-2.4-2.3
		c0.1-8.9,0.1-17.8,0-26.6c0-1.8,0.5-2.4,2.3-2.3c7.3,0.1,14.6,0.1,22,0c2.1,0,2.4,0.8,2.4,2.6C118.7,223.7,118.8,228.1,118.8,232.5
		z"/>
	<path class="st36" d="M92.3,280.5c0-9.1,0-17.3,0-25.6c0.2-0.3,0.6-0.2,0.9,0.1c3.2,3.7,6.3,7.4,9.5,11c0.6,0.7,1,1.3,0.2,2.2
		C99.5,272.1,96.2,276.1,92.3,280.5z"/>
	<path class="st13" d="M94.5,251.5c7.7,0,14.9,0,22.7,0c-3.9,4.6-7.6,8.9-11.4,13.3C102,260.3,98.4,256.1,94.5,251.5z"/>
	<path class="st36" d="M118.7,254.7c0,8.6,0,16.4,0,25c-3.7-4.3-6.9-8-10.2-11.8c-0.6-0.7,0-1.3,0.4-1.8
		C112.1,262.5,115.1,258.9,118.7,254.7z"/>
	<path class="st13" d="M116.6,282.3c-7.3,0-14.1,0-21.5,0c3.5-4.1,6.7-7.8,9.9-11.6c1-1.1,1.4-0.3,2,0.3
		C110.1,274.7,113.2,278.3,116.6,282.3z"/>
	<path class="st13" d="M132.6,232.3c0-4.5,0-9,0-13.5c0-1.5,0.4-2.1,2-2c7.5,0.1,15,0.1,22.6,0c1.4,0,2.1,0.3,2.1,1.9
		c-0.1,9.1,0,18.2,0,27.2c0,1.5-0.4,2.1-2,2.1c-7.5-0.1-15-0.1-22.6,0c-1.8,0-2.1-0.7-2.1-2.3C132.6,241.3,132.6,236.8,132.6,232.3z
		"/>
	<path class="st36" d="M132.7,280.5c0-9.1,0-17.4,0-26.5c3.9,4.5,7.3,8.6,10.8,12.6c0.6,0.7,0.1,1.2-0.4,1.8
		C139.9,272.2,136.6,276,132.7,280.5z"/>
	<path class="st13" d="M134.8,251.5c7.8,0,15,0,22.8,0c-3.7,4.4-7.2,8.4-10.6,12.5c-0.8,1-1.2,0.4-1.8-0.3
		C141.9,259.7,138.6,255.8,134.8,251.5z"/>
	<path class="st37" d="M159.1,279.7c-3.6-4.2-6.8-7.9-10-11.7c-0.5-0.5-0.4-1.1,0-1.6c3.2-3.7,6.4-7.5,10-11.7
		C159.1,263.3,159.1,271.1,159.1,279.7z"/>
	<path class="st13" d="M157.1,282.4c-7.4,0-14.2,0-21.6,0c2.2-2.6,4.2-4.9,6.1-7.2c1.1-1.3,2.3-2.6,3.4-4c0.8-1,1.4-1.3,2.4-0.1
		C150.4,274.8,153.6,278.3,157.1,282.4z"/>
	<path class="st30" d="M142.3,193.9c-6,0-12,0-17.9,0c-1.1-1.1-1-2.5-1-3.8c0-15.2,0-30.4,0-45.5c0-1.2,0-2.3,0.6-3.4
		c0.1-0.1,0.3-0.3,0.4-0.4c6-0.4,12-0.2,18.1-0.1C142.3,158.4,142.3,176.1,142.3,193.9z"/>
	<path class="st30" d="M160,167.3c0,7.2-0.1,14.4,0,21.7c0,2-0.4,2.8-2.5,2.7c-3.6-0.2-7.2-0.1-10.8,0c-1.6,0-2-0.5-2-2
		c0-14.9,0.1-29.9,0-44.8c0-1.7,0.6-2.1,2.2-2.1c3.6,0.1,7.2,0.1,10.8,0c1.9-0.1,2.3,0.6,2.3,2.3C159.9,152.5,160,159.9,160,167.3z"
		/>
	<path class="st38" d="M104.3,140.6c0.7-0.9,1.8-0.6,2.7-0.6c5.7,0,11.5,0,17.2,0c0,0.2,0,0.4,0.1,0.7c0,0,0-0.1,0-0.1
		C121.4,142,107,142,104.3,140.6z"/>
	<path class="st29" d="M104.3,140.6c6.6,0,13.3,0,19.9,0c0,17.8,0.1,35.5,0.1,53.3c-6,0-12.1,0-18.1,0.1c-1.9,0-2.6-0.5-2.5-2.5
		c0.1-16.2,0-32.5,0-48.7C103.7,142,103.6,141.2,104.3,140.6z"/>
	<path class="st12" d="M121.9,167.6c0,7-0.1,14,0.1,21.1c0.1,2.5-0.7,3.1-3.1,3c-3.4-0.2-6.8-0.1-10.2,0c-1.5,0-2-0.5-2-2
		c0-14.9,0.1-29.8,0-44.8c0-1.7,0.6-2.2,2.2-2.1c3.6,0.1,7.2,0.1,10.8,0c1.8-0.1,2.3,0.6,2.3,2.3
		C121.9,152.6,121.9,160.1,121.9,167.6z"/>
</g>
</svg>
