<?xml version="1.0" encoding="utf-8"?>
<!-- Generator: Adobe Illustrator 23.0.0, SVG Export Plug-In . SVG Version: 6.00 Build 0)  -->
<svg version="1.1" id="Layer_1" xmlns="http://www.w3.org/2000/svg" xmlns:xlink="http://www.w3.org/1999/xlink" x="0px" y="0px"
	 width="300px" height="300px" viewBox="0 0 300 300" style="enable-background:new 0 0 300 300;" xml:space="preserve">
<style type="text/css">
	.st0{fill:#2FA7CB;}
	.st1{fill:#EFC319;}
	.st2{fill:#4C8056;}
	.st3{fill:#24AD5F;}
	.st4{fill:#F0F8FB;}
	.st5{fill:#CA8152;}
	.st6{fill:#4FB96F;}
	.st7{fill:#CA8252;}
	.st8{fill:#A46A43;}
	.st9{fill:#ACD3B6;}
</style>
<g>
	<path class="st0" d="M0.6,297.1c0-7.2,0-14.5,0-21.7c1.5-4,5.1-6.3,8-9.1c1.7-1.7,3.7-3.2,5.4-5c5.4-5.6,11.7-8.6,19.6-7.7
		c4.6,0.9,8.8,2.8,12,6.2c8.4,8.8,20.9,9.5,30.3-0.1c6.3-6.5,14-7.7,22.4-4.8c3.7,1.3,6.4,4,9.3,6.5c8.3,7.3,19,7.1,26.9-0.6
		c4.5-4.3,9.5-7.4,16-7.4c6.5,0,11.7,2.8,16.1,7.2c3.2,3.2,7,5.2,11.5,5.8c5.3,0.8,9.9-0.7,14-3.7c1.7-1.3,3.3-2.7,4.9-4.1
		c7.9-7.1,20-7,27.7,0.4c3.6,3.5,7.5,6.5,12.7,7.4c6.9,1.1,12.7-1.1,17.5-6c3.6-3.5,7.7-5.9,12.7-6.9c7.9-1,14.3,2.1,19.7,7.7
		c3.4,3.6,7.5,6.6,10.9,10.2c1.1,1.2,2,2.4,2.5,3.9c0,7.2,0,14.5,0,21.7c-0.4,1.9-1.6,3.1-3.5,3.5c-97.7,0-195.3,0-293,0
		C2.2,300.1,1,299,0.6,297.1z"/>
	<path class="st1" d="M300.6,42.8c-1,0.8-0.9,2.1-1.2,3.2c-4.5,16.8-19.6,27.9-36.3,27c-18.9-1-33.2-14.8-34.8-32.6
		c-1.7-18.8,10.2-35,28.8-39.1c0.6-0.1,1.4,0.2,1.8-0.7c3.5,0,7,0,10.5,0c14.7,1.8,24,10.4,29.6,23.7c1,2.4,0.8,5,1.4,7.4
		C300.6,35.4,300.6,39.1,300.6,42.8z"/>
	<path class="st2" d="M56.8,110.2c-17.3-2.3-34.6-4.5-51.9-6.8c-1.4-0.2-2.9-0.2-4.3-0.3c0-0.2,0-0.4,0-0.6
		c5.6-7.3,12.2-13.2,20.8-16.9C41.5,77.1,64.6,83,79,100.6c0.9,1.1,1.4,2.6,3,3.1c2.6,3,4.3,6.6,5.6,10.3c-0.1,0.1-0.2,0.3-0.3,0.4
		c-0.2,0-0.3,0.1-0.5,0.1c-4.5-1-8.9-2.5-13.5-3.1c-3.7-0.4-7.3-0.7-11-0.1c-1.3,0.2-2.5,0-3.7-0.4C58,110.8,57.4,110.5,56.8,110.2z
		"/>
	<path class="st3" d="M300.6,145.3c-9.9,1.3-19.8,2.5-29.7,3.8c-7,0.9-14,1.8-21.1,2.7c-0.6,0.6-1.4,0.8-2.1,0.7
		c-6.7-0.3-13.3,0.6-19.8,2.4c-1.6-0.7-0.9-2-0.4-2.9c1.2-2.6,2.6-5.1,4.6-7.2c1.3-0.1,1.7-1.3,2.3-2c14.9-17.3,38.5-20.6,56.2-8.1
		c3.9,2.8,6.9,6.5,10.1,10C300.6,144.9,300.6,145.1,300.6,145.3z"/>
	<path class="st4" d="M0.6,297.1c1,1.4,2.2,2.5,3.5,3.5C1.1,301.2-0.1,300.1,0.6,297.1z"/>
	<path class="st4" d="M297.1,300.6c1.4-1,2.5-2.2,3.5-3.5C301.2,300.1,300.1,301.2,297.1,300.6z"/>
	<path class="st1" d="M207.9,216.1c22,7.1,41.8,17.7,57.6,34.9c0.9,1,1.7,2.1,2.5,3.2c-5,1-9.2,3.4-12.9,7c-8.8,8.5-20,8.5-29,0.1
		c-3.9-3.6-8-6.5-13.4-7c-6.2-0.6-11.6,1.3-16,5.6c-3.5,3.4-7.2,6.3-12.1,7.2c-7.2,1.3-13.3-0.7-18.4-5.8c-3.9-3.9-8.4-6.7-14-7
		c-6.5-0.4-11.8,1.9-16.3,6.5c-3.2,3.3-6.9,5.7-11.5,6.4c-6.7,1.2-12.6-0.7-17.5-5.3c-3.2-3-6.4-5.8-10.7-6.9
		c-7.4-1.9-13.9-0.3-19.4,5c-3.5,3.4-7.2,6.3-12.1,7.2c-6.9,1.2-13-0.6-18-5.5c-3.8-3.7-8-6.4-13.3-7.4c6.8-8.7,15.2-15.6,24.5-21.6
		c16.5-10.6,34.6-17.4,53.8-21.2c1-0.2,1.9-0.4,2.9-0.6c1.1-1.3,2.7-1.5,4.2-1.7c10.8-1.7,21.8-2.7,32.7-2.6c1.4,0,2.7,0,3.9,0.9
		c7.7,0.6,15.3,1.2,23,1.8c1.4-0.6,2.9-0.3,4.3,0c7.5,1.4,15,2.8,22.3,5.1C205.9,214.6,207.2,214.8,207.9,216.1z"/>
	<path class="st5" d="M155.1,207.4c-13.7-0.1-27.4,0.8-40.9,3.4c-1.8-14.8-5-29.4-8.9-43.8c0.4-0.5,1-0.6,1.5-0.7
		c10.1-1.3,18.6-5.3,24.3-14.2c0.2-0.2,0.4-0.4,0.7-0.5C142.5,169,150.2,187.7,155.1,207.4z"/>
	<path class="st6" d="M87.3,114.2c0-0.2,0-0.4,0.1-0.6c-0.1-3,1.2-5.7,2.3-8.3c2.4-5.4,5.2-10.7,10-14.5c2.8-2.1,5.4-4.5,8.3-6.4
		c17.6-11.5,38.9-10.4,56.5,3c2.3,1.7,4.6,3.5,6.6,6.1c-10.7,2.7-21.2,5.2-31.6,7.9c-14.1,3.5-28.1,7.1-42.2,10.6
		C94.1,113.6,90.9,114.9,87.3,114.2z"/>
	<path class="st3" d="M99.6,90.8c-0.7,2.1-2.5,3.3-3.8,5c-4.1,5.4-6.4,11.6-8.6,17.8c-2.3-3-3.8-6.5-5.3-9.9
		c-4.8-13.4-4.7-26.7,1.2-39.8c7.4-16.3,26.7-28.2,43.2-26.8c0,1.2-0.8,2.2-1.3,3.2c-8,15.8-16,31.6-24,47.4
		C100.5,88.6,100.1,89.7,99.6,90.8z"/>
	<path class="st6" d="M218.5,153c-10.8-2.7-21.5-5.5-32.3-8.2c-10-2.5-20-5-30.3-7.6c1.8-2.5,4-4.2,6.3-5.8
		c17.7-12.8,38.8-11.6,53.8,3.4c0.2,0.2,0.5,0.3,0.7,0.5c1.3,0.2,2,1.2,2.7,2.1c2.9,3.9,5.4,8.1,6.9,12.8c0.5,1.5,1.3,3.1,0.3,4.7
		C223.7,155.3,221,154.5,218.5,153z"/>
	<path class="st2" d="M226.8,154.7c-1.5-7.4-5.2-13.7-10-19.4c-3.6-7.3-7.2-14.7-10.8-22c-3.6-7.3-7.3-14.6-11-21.9
		c-0.4-0.9-0.8-1.7-1.4-2.9c13.2,0.4,23.9,5.1,31.9,15.2c8.9,11.2,10.8,24,7.4,37.8c-0.3,1.1-0.5,2.3-0.8,3.4
		c-0.5,2.6-2.6,4.5-3.7,6.8c-0.4,0.9-0.6,2-1,3c-0.1,0.1-0.2,0.1-0.3,0.2C227,154.8,226.9,154.7,226.8,154.7z"/>
	<path class="st7" d="M87.3,114.2c3.3-0.7,6.6-1.5,9.9-2.2c7.2,5.9,14.2,11.9,20.2,19.1c2.9,3.5,5.7,6.9,8.1,10.7
		c-0.1,4-2,7.2-4.9,9.5c-5.2,4.3-11.2,6.8-18.2,6.5c-3.9-10.7-8.2-21.2-14.6-30.7c-1.8-2.7-3.9-5.3-5.9-8
		C82.9,116.5,84.9,115.2,87.3,114.2L87.3,114.2z"/>
	<path class="st7" d="M218.5,153c2.7,0.6,5.5,1.2,8.2,1.7c0,0,0,0,0,0c2,1,4.2,1.9,4.8,4.5c-7.6,9.6-13.1,20.3-17.1,31.9
		c-1.8,1.4-3.6,0.4-5.3,0c-5.7-1.4-10.6-3.9-13.2-9.5c-0.6-1.3-0.9-2.5-0.7-3.9C201.6,168.1,209.7,160.2,218.5,153z"/>
	<path class="st7" d="M207.9,216.1c-9.1-3-18.4-5-27.8-6.4c-0.7-0.1-1.3-0.4-2-0.6c2.7-7.6,6.5-14.7,10.6-21.6
		c3.2,3.5,6.2,7.3,10.6,9.5c3.2,1.6,6.5,2.7,10,3.2c0.8,0.1,1.6,0.1,2.2,0.7C210.2,206,209,211.1,207.9,216.1z"/>
	<path class="st8" d="M102.4,157.7c0.7-1,1.8-0.6,2.7-0.7c8-1.3,15.3-3.9,19-12.1c0.5-1,0.3-2.4,1.3-3.2c2.5,3,4.6,6.4,6.5,9.8
		c-1.4,4.2-4.5,7-8,9.3c-5.6,3.7-11.7,6.2-18.5,6.1C104.4,163.9,103.4,160.8,102.4,157.7z"/>
	<path class="st8" d="M211.4,201c-9.1-0.2-16.2-4.5-21.9-11.3c-0.5-0.6-0.6-1.4-0.9-2.1c1.9-3.5,4-6.9,6.6-10
		c2.5,9.5,10.2,12.9,19.2,13.4C213.4,194.3,212.4,197.6,211.4,201z"/>
	<path class="st6" d="M87.3,114.2c-1.8,1.6-3.5,3.3-5.3,4.9c-12.6,10.6-25.3,21.1-37.9,31.7c-7.3,6.1-14.6,12.3-22,18.5
		c-5.8-22.6,6.4-51.6,35.3-58c0.4-0.4,0.9-0.6,1.3-1c2.1,0.9,4.2,0,6.3-0.1C72.6,110,80.1,111.3,87.3,114.2z"/>
	<path class="st9" d="M58.6,110.2c0.6,1.6-0.6,1-1.3,1c-0.2-0.3-0.4-0.7-0.6-1C57.4,110.2,58,110.2,58.6,110.2z"/>
	<path class="st6" d="M231.5,159.2c-1.6-1.5-3.2-3-4.8-4.5c0.2,0,0.4,0,0.6,0c7.2-3.1,14.8-3.2,22.4-2.8c4.7,1.3,9.3,2.5,13.6,4.9
		c15.5,8.7,21.5,25.4,19.9,41.2c-0.1,1.2-0.4,2.5-0.6,4c-2.4-1.2-4-3-5.8-4.5c-14.7-12.4-29.3-24.9-43.9-37.3
		C232.5,159.7,232,159.5,231.5,159.2z"/>
</g>
</svg>
