<?xml version="1.0" encoding="utf-8"?>
<!-- Generator: Adobe Illustrator 23.0.0, SVG Export Plug-In . SVG Version: 6.00 Build 0)  -->
<svg version="1.1" id="Layer_1" xmlns="http://www.w3.org/2000/svg" xmlns:xlink="http://www.w3.org/1999/xlink" x="0px" y="0px"
	 width="410px" height="401px" viewBox="0 0 410 401" style="enable-background:new 0 0 410 401;" xml:space="preserve">
<style type="text/css">
	.st0{fill-rule:evenodd;clip-rule:evenodd;fill:#62AEE1;}
	.st1{fill-rule:evenodd;clip-rule:evenodd;fill:#CCE9FA;}
	.st2{fill-rule:evenodd;clip-rule:evenodd;fill:#F5F5F7;}
	.st3{fill-rule:evenodd;clip-rule:evenodd;fill:#8C9BB0;}
	.st4{fill-rule:evenodd;clip-rule:evenodd;fill:#DCDDEB;}
	.st5{fill-rule:evenodd;clip-rule:evenodd;fill:#D7EEFB;}
	.st6{opacity:0.5;}
	.st7{fill-rule:evenodd;clip-rule:evenodd;fill:#82C8EF;}
	.st8{fill-rule:evenodd;clip-rule:evenodd;fill:#FFFFFF;}
	.st9{fill-rule:evenodd;clip-rule:evenodd;fill:#CF5869;}
	.st10{fill-rule:evenodd;clip-rule:evenodd;fill:#DDB671;}
	.st11{fill-rule:evenodd;clip-rule:evenodd;fill:#FCD886;}
	.st12{fill-rule:evenodd;clip-rule:evenodd;fill:#FFEBB4;}
	.st13{fill-rule:evenodd;clip-rule:evenodd;fill:#EC797D;}
	.st14{fill:#FFFFFF;}
	.st15{fill-rule:evenodd;clip-rule:evenodd;fill:#242A51;}
	.st16{fill-rule:evenodd;clip-rule:evenodd;fill:#EE8B83;}
	.st17{fill-rule:evenodd;clip-rule:evenodd;fill:#453876;}
	.st18{fill-rule:evenodd;clip-rule:evenodd;fill:#5E5292;}
	.st19{fill-rule:evenodd;clip-rule:evenodd;fill:#F2BA95;}
	.st20{fill-rule:evenodd;clip-rule:evenodd;fill:#F4A965;}
	.st21{fill-rule:evenodd;clip-rule:evenodd;fill:#F29D63;}
	.st22{fill-rule:evenodd;clip-rule:evenodd;fill:#E78C62;}
	.st23{fill-rule:evenodd;clip-rule:evenodd;fill:#F3B992;}
	.st24{fill-rule:evenodd;clip-rule:evenodd;fill:#EE8880;}
	.st25{fill-rule:evenodd;clip-rule:evenodd;fill:#F7D7C3;}
	.st26{fill-rule:evenodd;clip-rule:evenodd;fill:#897FBA;}
	.st27{fill-rule:evenodd;clip-rule:evenodd;fill:#B37358;}
	.st28{fill-rule:evenodd;clip-rule:evenodd;fill:#995C44;}
	.st29{fill:#EE8B83;}
	.st30{fill-rule:evenodd;clip-rule:evenodd;fill:#DEE8F0;}
	.st31{fill-rule:evenodd;clip-rule:evenodd;fill:#8F204C;}
	.st32{fill:#C9D9E5;}
	.st33{fill:#E78C62;}
	.st34{fill:#E2DDE2;}
</style>
<g>
	<g>
		<g>
			<path class="st0" d="M9.1,43.4c0.1,0,0.2,0.1,0.3,0.1c0.5,0.2,1,0.3,1.5,0.3h19.5l2.9,3.4l0.1,0.1c0.1,0.1,0.3,0.2,0.4,0.2
				c0.1,0.1,0.2,0.1,0.3,0.1c0.1,0.1,0.2,0.1,0.3,0.1c0.1,0.1,0.2,0.1,0.3,0.1c0.1,0.1,0.2,0.1,0.3,0.1c0.1,0.1,0.2,0.1,0.3,0.1
				c0.1,0.1,0.2,0.1,0.3,0.1c0.1,0.1,0.2,0.1,0.3,0.1c0.1,0.1,0.2,0.1,0.3,0.1c0.1,0.1,0.2,0.1,0.3,0.1c0.1,0.1,0.2,0.1,0.3,0.1
				c0.1,0.1,0.2,0.1,0.3,0.1c0.1,0.1,0.2,0.1,0.3,0.1c0.1,0.1,0.2,0.1,0.3,0.1C38,49,38.1,49,38.2,49c0.1,0.1,0.2,0.1,0.3,0.1
				c0.1,0.1,0.2,0.1,0.3,0.1c0.1,0.1,0.2,0.1,0.3,0.1c0.1,0.1,0.2,0.1,0.3,0.1c0.1,0.1,0.2,0.1,0.3,0.1c0.1,0.1,0.2,0.1,0.3,0.1
				c0.3,0.2,0.8,0.1,1-0.2l4.9-5.7h1.2c2.3,0,4.2-1.9,4.2-4.2V21.9c0-1.9-1.2-3.5-2.9-4c-0.1,0-0.2-0.1-0.3-0.1
				c-0.1,0-0.2-0.1-0.3-0.1c-0.1,0-0.2-0.1-0.3-0.1c-0.1,0-0.2-0.1-0.3-0.1c-0.1,0-0.2-0.1-0.3-0.1c-0.1,0-0.2-0.1-0.3-0.1
				c-0.1,0-0.2-0.1-0.3-0.1c-0.1,0-0.2-0.1-0.3-0.1c-0.1,0-0.2-0.1-0.3-0.1c-0.1,0-0.2-0.1-0.3-0.1c-0.1,0-0.2-0.1-0.3-0.1
				c-0.1,0-0.2-0.1-0.3-0.1c-0.1,0-0.2-0.1-0.3-0.1c-0.1,0-0.2-0.1-0.3-0.1c-0.1,0-0.2-0.1-0.3-0.1c-0.1,0-0.2-0.1-0.3-0.1
				c-0.1,0-0.2-0.1-0.3-0.1c-0.1,0-0.2-0.1-0.3-0.1c-0.1,0-0.2-0.1-0.3-0.1c-0.1,0-0.2-0.1-0.3-0.1c-0.5-0.2-1-0.3-1.5-0.3H4.4
				c-2.3,0-4.2,1.9-4.2,4.2v17.8c0,1.9,1.2,3.5,2.9,4c0.1,0,0.2,0.1,0.3,0.1c0.1,0,0.2,0.1,0.3,0.1c0.1,0,0.2,0.1,0.3,0.1
				c0.1,0,0.2,0.1,0.3,0.1c0.1,0,0.2,0.1,0.3,0.1C4.8,41.9,4.9,42,5,42c0.1,0,0.2,0.1,0.3,0.1c0.1,0,0.2,0.1,0.3,0.1
				c0.1,0,0.2,0.1,0.3,0.1c0.1,0,0.2,0.1,0.3,0.1c0.1,0,0.2,0.1,0.3,0.1c0.1,0,0.2,0.1,0.3,0.1c0.1,0,0.2,0.1,0.3,0.1
				c0.1,0,0.2,0.1,0.3,0.1c0.1,0,0.2,0.1,0.3,0.1c0.1,0,0.2,0.1,0.3,0.1c0.1,0,0.2,0.1,0.3,0.1c0.1,0,0.2,0.1,0.3,0.1
				C8.9,43.4,9,43.4,9.1,43.4z"/>
		</g>
	</g>
	<g>
		<g>
			<path class="st1" d="M75.2,52.2c37.6-6.8,77.7-14,120.5-21.7c45.8-8.3,94.9-17.1,147.8-26.6c7.7-1.4,14,2.6,14,8.8
				c0,62.3,0,124.6,0,186.9c0,62.3,0,124.6,0,186.8c0,6.2-6.3,10.6-14,9.9c-52.9-4.7-102.1-9.2-147.9-13.3
				c-42.8-3.8-82.9-7.4-120.5-10.8c-5-0.5-9.1-4.8-9.1-9.8c0-4.8-3-14.2-3.1-19.1c-0.7-45.4-1.4-88-1.3-133.1
				c0-41.2,0.1-88.2,1.1-128.8c0.2-8.6,3.3-9.8,3.3-18.5C66,57.9,70.2,53.1,75.2,52.2z"/>
		</g>
	</g>
	<g>
		<g>
			<path class="st2" d="M68.3,53.4c37.2-6.7,76.8-13.8,119-21.5c45.2-8.1,93.7-16.9,145.8-26.3c7.6-1.4,13.8,2.6,13.8,8.7
				c0,61.9,0,123.7,0,185.5c0,61.8,0,123.7,0,185.5c0,6.1-6.2,10.5-13.8,9.9c-52.1-4.7-100.7-9-145.9-13.1
				c-42.3-3.8-81.9-7.3-119-10.7c-5-0.4-9-4.8-9-9.7c0-49.6,0-99.2,0-148.9c0-49.6,0-99.2,0-148.9C59.3,59.1,63.3,54.3,68.3,53.4
				L68.3,53.4z M64.7,99.9c0,37.6,0,75.3,0,112.8c0,37.6,0,54.9,0,92.5c38.2,1.9,79,4,122.7,6.2c46.8,2.4,97.2,4.9,151.4,7.7
				c0-46.3,0-72.4,0-118.8c0-46.3,0-92.8,0-139.2c-54.3,7.7-104.6,14.8-151.4,21.4C143.7,88.7,102.9,94.5,64.7,99.9z"/>
		</g>
	</g>
	<g>
		<g>
			<path class="st3" d="M76.6,344c10.7,0.8,21.6,1.5,32.7,2.3c11.3,0.8,22.9,1.6,34.6,2.5c1.3,0.1,2.3,1.1,2.3,2.3l0,0
				c0,1.2-1,2-2.3,1.9c-11.8-0.9-23.3-1.7-34.6-2.6c-11.1-0.8-22-1.6-32.7-2.4c-1.1-0.1-2.1-1-2.1-2.1l0,0
				C74.5,344.7,75.5,343.9,76.6,344L76.6,344z M155,349.5c2.9,0.2,5.8,0.4,8.8,0.6c1.3,0.1,2.4,1.2,2.4,2.3l0,0c0,1.2-1.1,2.1-2.4,2
				c-3-0.2-5.9-0.4-8.8-0.7c-1.3-0.1-2.3-1.1-2.3-2.3l0,0C152.7,350.3,153.7,349.4,155,349.5z"/>
		</g>
	</g>
	<g>
		<g>
			<path class="st4" d="M75.9,352.2c15.2,1.2,30.8,2.4,46.8,3.7c0.8,0.1,1.5,0.7,1.5,1.5l0,0c0,0.8-0.7,1.3-1.5,1.3
				c-16-1.3-31.6-2.5-46.8-3.8c-0.8-0.1-1.4-0.7-1.4-1.5l0,0C74.5,352.7,75.1,352.1,75.9,352.2z"/>
		</g>
	</g>
	<g>
		<g>
			<path class="st3" d="M145.3,61.2c2.9-0.5,2.7-0.4,5.7-0.9c1.3-0.2,2.4,0.6,2.4,1.8l0,0c0,1.2-1.1,2.3-2.4,2.5
				c-3,0.5-2.8,0.4-5.7,0.9c-1.3,0.2-2.3-0.6-2.3-1.7l0,0C143,62.6,144,61.4,145.3,61.2L145.3,61.2z M111.2,66.8
				c12.4-2,12-2,24.9-4.1c1.3-0.2,2.3,0.6,2.3,1.8l0,0c0,1.2-1,2.3-2.3,2.5c-12.9,2.1-12.5,2-24.9,4c-1.2,0.2-2.2-0.6-2.2-1.7l0,0
				C109,68.1,110,67,111.2,66.8z"/>
		</g>
	</g>
	<g>
		<g>
			<path class="st4" d="M110.5,75.5c5.7-0.9,11.5-1.8,17.3-2.7c0.8-0.1,1.5,0.4,1.5,1.2l0,0c0,0.8-0.7,1.5-1.5,1.6
				c-5.8,0.9-11.6,1.8-17.3,2.7c-0.8,0.1-1.4-0.4-1.4-1.2l0,0C109,76.3,109.7,75.6,110.5,75.5z"/>
		</g>
	</g>
	<g>
		<g>
			<path class="st5" d="M64.7,99.9v112.8l0,92.5c38.2,1.9,79,4,122.7,6.2c46.8,2.4,97.2,4.9,151.4,7.7c0-46.3,0-72.4,0-118.8V61.1
				c-54.3,7.7-104.6,14.8-151.4,21.4C143.7,88.7,102.9,94.5,64.7,99.9z"/>
		</g>
	</g>
	<g class="st6">
		<g>
			<path class="st7" d="M237.4,234c-1.6,0-3.1,0.3-4.5,0.8c-0.6-0.7-1.5-1.1-2.6-1.1c-0.5,0-0.9,0.1-1.3,0.3c-0.2-3-2.7-5.3-5.8-5.3
				c-1.3,0-2.5,0.4-3.5,1.2c-0.6-0.9-1.6-1.4-2.8-1.4c-0.2,0-0.4,0-0.6,0c0.4-0.9,0.6-1.9,0.6-2.9c0-4.1-3.3-7.5-7.5-7.5
				c-0.8,0-1.5,0.1-2.2,0.3c-0.5-1.2-1.7-2-3.1-2l-0.1,0c0-0.3,0-0.5,0-0.8c0-7.4-6-13.4-13.4-13.4c-7.4,0-13.4,6-13.4,13.4
				c0,0.1,0,0.2,0,0.3c-0.6-0.2-1.3-0.3-2-0.3c-1.4,0-2.7,0.3-3.8,1c-2-2.7-5.1-4.4-8.7-4.4c-5.9,0-10.8,4.8-10.8,10.8
				c0,1.2,0.2,2.3,0.5,3.3c-0.1,0-0.2,0-0.3,0c-2.9,0-5.3,2.4-5.3,5.3c0,0.3,0,0.7,0.1,1c0,0-0.1,0-0.1,0c-1.7,0-3,1.3-3.1,3
				c-0.5-0.1-0.9-0.1-1.4-0.1c-1.9,0-3.7,0.7-5,1.9c-3.4,3.3,0.3,4.1,3.9,4.1h4.7h3.7h76h5.9h9.7c3.8,0,9.2,0.6,5.4-3.3
				C244.5,235.6,241.1,234,237.4,234z"/>
		</g>
	</g>
	<g class="st6">
		<g>
			<path class="st7" d="M102.5,173.8c-1.4,0-2.8,0.3-4,0.7c-0.6-0.6-1.4-1-2.3-1c-0.4,0-0.8,0.1-1.2,0.2c-0.2-2.7-2.4-4.8-5.2-4.8
				c-1.2,0-2.3,0.4-3.1,1.1c-0.6-0.8-1.5-1.3-2.5-1.3c-0.2,0-0.3,0-0.5,0c0.3-0.8,0.5-1.7,0.5-2.6c0-3.7-3-6.7-6.7-6.7
				c-0.7,0-1.4,0.1-2,0.3c-0.5-1-1.5-1.8-2.8-1.8h-0.1c0-0.2,0-0.5,0-0.7c0-6.6-5.4-12-12-12c-6.6,0-12,5.4-12,12c0,0.1,0,0.2,0,0.3
				c-0.6-0.1-1.2-0.2-1.8-0.2c-1.2,0-2.4,0.3-3.4,0.9c-1.8-2.4-4.6-3.9-7.8-3.9c-5.3,0-9.6,4.3-9.6,9.6c0,1,0.2,2.1,0.5,3
				c-0.1,0-0.2,0-0.3,0c-2.6,0-4.7,2.1-4.7,4.7c0,0.3,0,0.6,0.1,0.9c0,0-0.1,0-0.1,0c-1.5,0-2.7,1.2-2.7,2.6
				c-0.4-0.1-0.8-0.1-1.3-0.1c-1.7,0-3.3,0.6-4.5,1.7c-3.1,2.9,0.3,3.7,3.5,3.7h4.2H24h68h5.3h8.7c3.4,0,8.2,0.6,4.9-3
				C108.8,175.2,105.8,173.8,102.5,173.8z"/>
		</g>
	</g>
	<g>
		<g>
			<g>
				<path class="st0" d="M64.7,273.9l0,31.2c38.2,1.9,79,4,122.7,6.2l14.7,0.7c-20.6-16.7-84.5-68.5-87.4-70.4
					c-3.5-2.3-6.8,0.2-6.8,0.2S83,260.5,64.7,273.9z"/>
			</g>
		</g>
		<g>
			<g>
				<path class="st7" d="M64.7,273.9l0,31.2c16,0.8,32.6,1.7,49.6,2.5c1.4-14,3.4-33.8,3.4-34.7c0.1-1.4-1.5-2-1.5-2
					s-6.1-1.5-7.9-2.4c-1.8-0.9-1.4-3.6-1.4-3.6s3.5-18.2,3.5-21c0-2.8-2.5-2-2.5-2S83,260.5,64.7,273.9z"/>
			</g>
		</g>
	</g>
	<g>
		<g>
			<g>
				<path class="st0" d="M101.5,307c22.8,1.2,46.5,2.4,71.1,3.6c20.5,1,41.7,2.1,63.6,3.2c-26.8-21.7-63.5-51.3-65.7-52.8
					c-3.5-2.3-6.8,0.2-6.8,0.2S103.4,306.1,101.5,307z"/>
			</g>
		</g>
		<g>
			<g>
				<path class="st7" d="M101.5,307c22.5,1.2,45.9,2.3,70.2,3.6c0.9-9.5,1.8-17.7,1.8-18.3c0.1-1.4-1.5-2-1.5-2s-6.1-1.5-7.9-2.4
					c-1.8-0.9-1.4-3.6-1.4-3.6s3.5-18.2,3.5-21s-2.5-2-2.5-2S103.4,306.1,101.5,307z"/>
			</g>
		</g>
	</g>
	<g>
		<g>
			<path class="st8" d="M225.7,228.6c-1.6,0-3.1,0.3-4.5,0.8c-0.6-0.7-1.6-1.1-2.6-1.1c-0.5,0-0.9,0.1-1.3,0.3
				c-0.2-3-2.7-5.3-5.8-5.3c-1.3,0-2.5,0.4-3.5,1.2c-0.6-0.9-1.6-1.4-2.8-1.4c-0.2,0-0.4,0-0.6,0c0.4-0.9,0.6-1.9,0.6-2.9
				c0-4.1-3.3-7.5-7.5-7.5c-0.8,0-1.5,0.1-2.2,0.3c-0.5-1.2-1.7-2-3.1-2l-0.1,0c0-0.3,0-0.5,0-0.8c0-7.4-6-13.4-13.4-13.4
				c-7.4,0-13.4,6-13.4,13.4c0,0.1,0,0.2,0,0.3c-0.6-0.2-1.3-0.3-2-0.3c-1.4,0-2.7,0.3-3.8,1c-2-2.7-5.1-4.4-8.7-4.4
				c-5.9,0-10.8,4.8-10.8,10.8c0,1.2,0.2,2.3,0.5,3.3c-0.1,0-0.2,0-0.3,0c-2.9,0-5.3,2.4-5.3,5.3c0,0.3,0,0.7,0.1,1c0,0-0.1,0-0.1,0
				c-1.7,0-3,1.3-3.1,3c-0.5-0.1-0.9-0.1-1.4-0.1c-1.9,0-3.7,0.7-5,1.9c-3.4,3.3,0.3,4.1,3.9,4.1h4.7h3.7h76h5.9h9.7
				c3.8,0,9.2,0.6,5.4-3.3C232.7,230.1,229.4,228.6,225.7,228.6z"/>
		</g>
	</g>
	<g>
		<g>
			<path class="st7" d="M134.7,130.3c0,0,67.6,16.9,63,48c0,0,7.5-27.4-65-42L134.7,130.3z"/>
		</g>
	</g>
	<g class="st6">
		<g>
			<path class="st0" d="M71.9,105c40.9-5.8,81.8-11.5,122.7-17.3c48.1-6.8,96.1-13.6,144.2-20.4v-6.2
				c-54.3,7.7-104.6,14.8-151.4,21.4c-43.6,6.2-84.4,11.9-122.7,17.3v112.8l0,92.5c1.9,0.1,3.7,0.2,5.6,0.3l0-198.6
				C70.3,105.9,71,105.2,71.9,105z"/>
		</g>
	</g>
	<g>
		<g>
			<path class="st8" d="M90.8,168.3c-1.4,0-2.8,0.3-4,0.7c-0.6-0.6-1.4-1-2.3-1c-0.4,0-0.8,0.1-1.2,0.2c-0.2-2.7-2.4-4.8-5.2-4.8
				c-1.2,0-2.3,0.4-3.2,1.1c-0.6-0.8-1.5-1.3-2.5-1.3c-0.2,0-0.3,0-0.5,0c0.3-0.8,0.5-1.7,0.5-2.6c0-3.7-3-6.7-6.7-6.7
				c-0.7,0-1.4,0.1-2,0.3c-0.5-1-1.5-1.8-2.8-1.8l-0.1,0c0-0.2,0-0.5,0-0.7c0-6.6-5.4-12-12-12c-6.6,0-12,5.4-12,12
				c0,0.1,0,0.2,0,0.3c-0.6-0.1-1.2-0.2-1.8-0.2c-1.2,0-2.4,0.3-3.4,0.9c-1.8-2.4-4.6-3.9-7.8-3.9c-5.3,0-9.6,4.3-9.6,9.6
				c0,1,0.2,2.1,0.5,3c-0.1,0-0.2,0-0.3,0c-2.6,0-4.7,2.1-4.7,4.7c0,0.3,0,0.6,0.1,0.9c0,0-0.1,0-0.1,0c-1.5,0-2.7,1.2-2.7,2.6
				c-0.4-0.1-0.8-0.1-1.3-0.1c-1.7,0-3.3,0.6-4.5,1.7c-3.1,2.9,0.3,3.7,3.5,3.7H9h3.3h68h5.3h8.7c3.4,0,8.2,0.6,4.9-3
				C97.1,169.7,94.1,168.3,90.8,168.3z"/>
		</g>
	</g>
	<g>
		<g>
			<g>
				<path class="st8" d="M103.5,115.6l3.1-2l0.6,0.2l-1.4,2.3c0,0-1.1,0.2-1.1,0.1C104.7,116.2,103.5,115.6,103.5,115.6z"/>
			</g>
		</g>
		<g>
			<g>
				<path class="st8" d="M103.5,115.6l3.1-2l0.2,0.1l-2.8,2.1c0,0-0.1,0-0.1,0.1C103.8,115.7,103.5,115.6,103.5,115.6z"/>
			</g>
		</g>
		<g>
			<g>
				<path class="st8" d="M119.7,125.7l-13.8-9.5l-2.3-0.6c0,0-0.3,0.6,0.2,1.2c0.2,0.2,4.9,4.2,10.3,8.7L119.7,125.7z"/>
			</g>
		</g>
		<g>
			<g>
				<path class="st4" d="M104.1,115.8l-0.6-0.1c0,0-0.3,0.6,0.2,1.2c0.2,0.2,4.9,4.2,10.3,8.7l1.7,0c-6-4.8-11.3-9-11.5-9.2
					C103.8,116,104.1,115.8,104.1,115.8z"/>
			</g>
		</g>
		<g>
			<g>
				<path class="st8" d="M15.4,83.3l3.3-2.2l0.6,0.2l-1.5,2.5c0,0-1.1,0.2-1.2,0.1C16.6,84,15.4,83.3,15.4,83.3z"/>
			</g>
		</g>
		<g>
			<g>
				<path class="st8" d="M15.4,83.3l3.3-2.2l0.2,0.1l-3,2.2c0,0-0.1,0-0.1,0.1C15.6,83.5,15.4,83.3,15.4,83.3z"/>
			</g>
		</g>
		<g>
			<g>
				<path class="st8" d="M51.8,107.3l-34-23.3l-2.5-0.6c0,0-0.3,0.6,0.3,1.3c0.6,0.6,29.4,24.9,29.4,24.9L51.8,107.3z"/>
			</g>
		</g>
		<g>
			<g>
				<path class="st4" d="M16,83.5l-0.6-0.2c0,0-0.3,0.6,0.3,1.3c0.6,0.6,29.4,24.9,29.4,24.9l1.9-0.6c-3.6-2.9-30.4-24.3-30.8-24.7
					C15.7,83.8,16,83.5,16,83.5z"/>
			</g>
		</g>
		<g>
			<g>
				<path class="st8" d="M59.1,107.5c-3-0.7-9.2-1.6-13.5,0.6c-4.3,2.2-8.3,5.5-9.3,6.7c-1,1.2-3.5,5.6-1,9.6c2.5,4,9.1,7.3,15,8.8
					c5.9,1.5,61.1,12.2,61.1,12.2s1.4,0.2,3.1-0.3c1.7-0.5,19.5-7.4,19.5-7.4s0.9-0.4,1-1.5c0,0,1.2-0.2,1.4-1.3
					c0.2-1.2,0-3.2,0-3.2s0.3-3-6.8-5.2C122.3,124.4,59.1,107.5,59.1,107.5z"/>
			</g>
		</g>
		<g>
			<g>
				<path class="st4" d="M37.3,126.9c3.2,2.9,8.3,5.2,12.9,6.3c5.9,1.5,61.1,12.2,61.1,12.2s1.4,0.2,3.1-0.3
					c1.7-0.5,19.5-7.4,19.5-7.4s0.9-0.4,1-1.5c0,0,1.2-0.2,1.4-1.3c0.1-0.4,0.1-0.8,0.1-1.3c-1.2-0.5-2.5,0.4-2.5,0.4
					s-4.3,2.8-6,3.4c-1.7,0.7-3.6,0.1-3.6,0.1S48,121.5,45.5,120.7c-2.5-0.8-2.1-2.3-2.1-2.3s0.2-1.5,0.3-2.3
					c0.1-0.8-0.4-0.6-0.4-0.6s-4.8,2.1-6,2.7c-1.2,0.6-1.1,2.3-1.1,2.3C36,123.6,37.3,126.8,37.3,126.9z"/>
			</g>
		</g>
		<g>
			<g>
				<path class="st4" d="M121.6,124.4c0,0,2.5,0.1,4.6-2c2.1-2.1,21.5-24.8,21.5-24.8s0.3-0.3,0.8-0.1c0.5,0.2,3.6,1.5,3.6,1.5
					s0.3,0.1,0,0.5C152,100,134.6,129,134.6,129s-0.3,0.6,0.1,1.3c0,0-2.3-1.9-6.6-2.9c-4.3-1-4.7-1.2-5.2-1.5
					C122.3,125.6,121.6,124.4,121.6,124.4z"/>
			</g>
		</g>
		<g>
			<g>
				<path class="st8" d="M121.6,124.4c0,0,2.5,0.1,4.6-2c2.1-2.1,21.5-24.8,21.5-24.8s0.3-0.3,0.8-0.1l-21.7,25.5c0,0-1.7,2-4.5,2.3
					l0,0C122,125,121.6,124.4,121.6,124.4z"/>
			</g>
		</g>
		<g>
			<g>
				<path class="st3" d="M44.5,109.8c0,0,1.4,1.5,3.3,2.4c1.9,1,10,3.9,10,3.9s-0.7,3.2-0.7,3c0-0.1-7.5-2.1-11.1-3.7
					c-3.6-1.6-4.4-3.5-4.4-3.5L44.5,109.8z"/>
			</g>
		</g>
		<g>
			<g>
				<path class="st8" d="M98.4,137.9c0,0-0.1-0.9-0.5-1.4c-0.4-0.4-13.2-4.3-13.2-4.3s-1.8-0.6-3.4,0.5c-1.6,1.1-2.1,5.1,0.2,5.8
					c2.4,0.7,11.3,2.7,11.3,2.7L98.4,137.9z"/>
			</g>
		</g>
		<g>
			<g>
				<path class="st8" d="M135.3,135.2l28.1,11.4l-1.5,0.4l-30.4-10.4c0,0,0.1-0.6,0.4-0.8C132.2,135.6,135.3,135.2,135.3,135.2z"/>
			</g>
		</g>
		<g>
			<g>
				<path class="st4" d="M161.8,147l-30.4-10.4c0,0,0.1-0.6,0.4-0.8l29.9,10.8L161.8,147z"/>
			</g>
		</g>
		<g>
			<g>
				<polygon class="st8" points="161.8,146.6 163.8,142.8 164.3,142.8 163.3,146.6 161.8,147 				"/>
			</g>
		</g>
		<g>
			<g>
				<path class="st8" d="M166.9,165.7c0,0-65.6-26.8-66.6-27.2c-1-0.4-3-1.1-3-1.1l-7.5-2.3c0,0-0.7-0.2-1.1,0.2
					c-0.4,0.4-1.6,1.6-1.6,1.6s-0.4,0.5-0.2,0.9c0.2,0.4,0.9,1.4,1.6,1.7c0.7,0.4,75,27,75,27L166.9,165.7z"/>
			</g>
		</g>
		<g>
			<g>
				<path class="st4" d="M87.2,137c0,0-0.4,0.5-0.2,0.9c0.2,0.4,0.9,1.4,1.6,1.7c0.7,0.4,75,27,75,27l0.1-0.7
					c0,0-74.3-27.5-75.5-27.9C86.9,137.6,87.2,137,87.2,137z"/>
			</g>
		</g>
		<g>
			<g>
				<path class="st8" d="M163.6,166l2.3-4.1c0,0,0.2-0.3,0.5-0.3c0.4,0,1-0.1,1-0.1s0.3,0,0.2,0.3c0,0.3-0.7,4-0.7,4l-3.3,0.9
					L163.6,166z"/>
			</g>
		</g>
	</g>
	<g>
		<g>
			<path class="st9" d="M85.2,322.2c0.1,0,0.1,0,0.2,0c0.3,0.1,0.7,0.2,1,0.3c1.1-0.9,2.6-1.2,4-0.8c0.1,0,0.1,0,0.2,0
				c0.1,0,0.1,0,0.2,0c0.1,0,0.1,0,0.2,0c0.1,0,0.1,0,0.2,0c0.1,0,0.1,0,0.2,0c0.1,0,0.1,0,0.2,0c0.1,0,0.1,0,0.2,0
				c0.1,0,0.1,0,0.2,0c0.1,0,0.1,0,0.2,0c0.1,0,0.1,0,0.2,0c0.1,0,0.1,0,0.2,0c0.1,0,0.1,0,0.2,0c0.1,0,0.1,0,0.2,0
				c0.1,0,0.1,0,0.2,0c0.1,0,0.1,0,0.2,0c0.1,0,0.1,0,0.2,0c0.1,0,0.1,0,0.2,0c0.1,0,0.1,0,0.2,0c0.1,0,0.1,0,0.2,0
				c0.1,0,0.1,0,0.2,0c0.9,0.2,1.7,0.6,2.4,1.3l0,0c1.8,1.8,1.7,4.5,0,6.1c-0.4,0.4-0.8,0.8-1.2,1.1c-2.1,1.9-4.2,3.9-6.3,5.8
				l-0.1-0.1l-0.1,0.1l-0.1-0.1l-0.1,0.1l-0.1-0.1l-0.1,0.1l-0.1-0.1l-0.1,0.1l-0.1-0.1l-0.1,0.1l-0.1-0.1l-0.1,0.1l-0.1-0.1
				l-0.1,0.1l-0.1-0.1l-0.1,0.1l-0.1-0.1l-0.1,0.1l-0.1-0.1l-0.1,0.1l-0.1-0.1l-0.1,0.1l-0.1-0.1l-0.1,0.1l-0.1-0.1l-0.1,0.1
				l-0.1-0.1l-0.1,0.1l-0.1-0.1l-0.1,0.1l-0.1-0.1l-0.1,0.1l-0.1-0.1l-0.1,0.1l-0.1-0.1l-0.1,0.1l-0.1-0.1l-0.1,0.1l-0.1-0.1
				l-0.1,0.1l-0.1-0.1L85,336c-2.1-2.2-4.1-4.3-6.2-6.5c-0.4-0.4-0.8-0.8-1.2-1.3c-1.7-1.8-1.7-4.5,0-6.1c0.1-0.1,0.1-0.1,0.2-0.2
				c1.1-0.9,2.5-1.1,3.8-0.8c0.1,0,0.1,0,0.2,0c0.1,0,0.1,0,0.2,0c0.1,0,0.1,0,0.2,0c0.1,0,0.1,0,0.2,0c0.1,0,0.1,0,0.2,0
				c0.1,0,0.1,0,0.2,0c0.1,0,0.1,0,0.2,0c0.1,0,0.1,0,0.2,0c0.1,0,0.1,0,0.2,0c0.1,0,0.1,0,0.2,0c0.1,0,0.1,0,0.2,0
				c0.1,0,0.1,0,0.2,0c0.1,0,0.1,0,0.2,0c0.1,0,0.1,0,0.2,0c0.1,0,0.1,0,0.2,0c0.1,0,0.1,0,0.2,0c0.1,0,0.1,0,0.2,0
				c0.1,0,0.1,0,0.2,0C85.1,322.1,85.2,322.1,85.2,322.2z"/>
		</g>
	</g>
	<g>
		<g>
			<path class="st4" d="M115.7,322.2l0.2,0c1.7,0.5,3.3,1.4,4.6,2.7c1.8,1.8,2.9,4.2,2.9,6.7c0,1.1-0.2,2.2-0.6,3.2
				c-0.4,0.9-0.8,1.7-1.5,2.4c0.2,0.8,0.4,1.6,0.6,2.3c0.1,0.4-0.1,0.8-0.6,0.9c-0.1,0-0.3,0-0.4,0l-0.1,0c0,0-0.1,0-0.1,0l-0.1,0
				c0,0-0.1,0-0.1,0l-0.1,0c0,0-0.1,0-0.1,0l-0.1,0c0,0-0.1,0-0.1,0l-0.1,0c0,0-0.1,0-0.1,0l-0.1,0c0,0-0.1,0-0.1,0l-0.1,0
				c0,0-0.1,0-0.1,0l-0.1,0c0,0-0.1,0-0.1,0l-0.1,0c0,0-0.1,0-0.1,0l-0.1,0c0,0-0.1,0-0.1,0l-0.1,0c0,0-0.1,0-0.1,0l-0.1,0
				c0,0-0.1,0-0.1,0l-0.1,0c0,0-0.1,0-0.1,0l-0.1,0c0,0-0.1,0-0.1,0l-0.1,0c0,0-0.1,0-0.1,0l-0.1,0c0,0-0.1,0-0.1,0l-0.1,0
				c0,0-0.1,0-0.1,0l-0.1,0c0,0,0,0-0.1,0c-0.6,0.3-1.3,0.5-1.9,0.6c-0.8,0.1-1.7,0.2-2.5,0.2c-0.8-0.1-1.6-0.2-2.3-0.4l-0.2,0
				l-0.2,0l-0.2,0l-0.2,0l-0.1,0l-0.2-0.1l-0.2,0l-0.2,0l-0.1,0l-0.2-0.1l-0.2,0l-0.2,0l-0.2,0l-0.2,0l-0.2-0.1l-0.1,0l-0.2,0
				l-0.2-0.1l-0.1,0l-0.2,0c-1.8-0.5-3.4-1.5-4.6-2.8c-1.7-1.7-2.8-4.1-2.8-6.6c0-2.5,1-4.7,2.8-6.3c1.7-1.6,4.1-2.5,6.8-2.3
				c0.8,0,1.7,0.2,2.4,0.4l0.2,0l0.1,0l0.2,0l0.2,0l0.2,0.1l0.1,0l0.2,0l0.2,0l0.2,0l0.2,0l0.2,0l0.2,0l0.2,0.1l0.2,0l0.2,0l0.2,0
				l0.2,0.1l0.2,0L115.7,322.2L115.7,322.2z M115.9,325c-0.6-0.6-1.3-1.1-2.1-1.6c-0.1,0-0.2,0-0.3,0c-2.2-0.1-4.2,0.6-5.6,1.9
				c-1.4,1.3-2.3,3.2-2.3,5.3c0,2.1,0.9,4.1,2.3,5.5c0.6,0.6,1.4,1.2,2.2,1.6l0.2,0c0.7,0,1.4,0,2.1-0.1c0.7-0.1,1.3-0.3,1.9-0.7
				c0.2-0.1,0.4-0.1,0.7,0l0,0c0,0,0.1,0,0.1,0l0,0c0,0,0.1,0,0.1,0l0,0c0,0,0.1,0,0.1,0l0,0c0,0,0.1,0,0.1,0l0,0c0,0,0.1,0,0.1,0
				l0,0c0,0,0.1,0,0.1,0l0,0c0,0,0.1,0,0.1,0l0,0c0,0,0.1,0,0.1,0l0,0c0,0,0.1,0,0.1,0l0,0c0,0,0.1,0,0.1,0l0,0l0,0
				c-0.1-0.4-0.3-0.9-0.4-1.3l0,0c-0.1-0.2,0-0.5,0.2-0.7c0.6-0.7,1.1-1.4,1.4-2.3c0.3-0.8,0.5-1.7,0.5-2.6
				C118.3,328.4,117.4,326.5,115.9,325z"/>
		</g>
	</g>
	<g>
		<g>
			<g>
				<path class="st4" d="M137.8,340.9L137.8,340.9L137.8,340.9L137.8,340.9z M134,340L134,340L134,340L134,340z M138,341L138,341
					L138,341L138,341z M134.2,340.1L134.2,340.1L134.2,340.1L134.2,340.1z M134.4,340.1L134.4,340.1L134.4,340.1L134.4,340.1z
					 M134.6,340.1L134.6,340.1L134.6,340.1L134.6,340.1z M134.8,340.2L134.8,340.2L134.8,340.2L134.8,340.2z M135,340.2L135,340.2
					L135,340.2L135,340.2z M135.2,340.3L135.2,340.3L135.2,340.3L135.2,340.3z M135.3,340.3L135.3,340.3L135.3,340.3L135.3,340.3z
					 M135.5,340.4L135.5,340.4L135.5,340.4L135.5,340.4z M135.7,340.4L135.7,340.4L135.7,340.4L135.7,340.4z M135.9,340.5
					L135.9,340.5L135.9,340.5L135.9,340.5z M136.1,340.5L136.1,340.5L136.1,340.5L136.1,340.5z M136.3,340.6L136.3,340.6
					L136.3,340.6L136.3,340.6z M136.5,340.6L136.5,340.6L136.5,340.6L136.5,340.6z M136.7,340.7L136.7,340.7L136.7,340.7
					L136.7,340.7z M136.8,340.7L136.8,340.7L136.8,340.7L136.8,340.7z M137,340.7L137,340.7L137,340.7L137,340.7z M137.2,340.8
					L137.2,340.8L137.2,340.8L137.2,340.8z M137.4,340.8L137.4,340.8L137.4,340.8L137.4,340.8z M137.6,340.9L137.6,340.9
					L137.6,340.9L137.6,340.9z M140.4,325.2c-3.2-0.2-6.4-0.4-9.6-0.6c1.2,1.1,2.5,2.3,3.7,3.4L140.4,325.2L140.4,325.2z M134,340
					c-0.7-3.2-1.5-6.5-2.2-9.7c-2.6-2.3-5.1-4.7-7.7-7l0,0c-0.1-0.2-0.3-0.4-0.3-0.6c0-0.4,0.4-0.7,0.8-0.7
					c6.6,0.4,13.3,0.8,20.1,1.2l0,0c0.1,0,0.1,0,0.1,0c0,0,0,0,0,0l0,0c0,0,0,0,0,0c0,0,0,0,0,0l0,0c0,0,0,0,0,0v0c0,0,0,0,0.1,0
					l0,0l0,0l0,0l0,0l0,0c0,0,0,0,0,0c0,0,0,0,0,0l0,0c0,0,0,0,0,0v0c0,0,0,0,0.1,0l0,0l0,0v0h0l0,0c0,0,0,0,0,0c0,0,0,0,0,0l0,0
					c0,0,0,0,0,0v0c0,0,0,0,0.1,0h0l0,0v0h0l0,0c0,0,0,0,0,0c0,0,0,0,0,0l0,0c0,0,0,0,0,0v0c0,0,0,0,0.1,0l0,0l0,0v0h0l0,0
					c0,0,0,0,0,0l0,0l0,0c0,0,0,0,0,0v0c0,0,0,0,0.1,0l0,0l0,0v0h0l0,0c0,0,0,0,0,0c0,0,0,0,0,0l0,0c0,0,0,0,0,0v0c0,0,0.1,0,0.1,0
					h0l0,0v0h0l0,0c0,0,0,0,0,0c0,0,0,0,0,0l0,0c0,0,0,0,0,0v0c0,0,0,0,0.1,0l0,0l0,0v0h0l0,0c0,0,0,0,0,0c0,0,0,0,0,0l0,0
					c0,0,0,0,0,0v0c0,0,0,0,0.1,0l0,0l0,0v0h0l0,0c0,0,0,0,0,0l0,0l0,0c0,0,0,0,0,0v0c0,0,0,0,0.1,0l0,0l0,0v0h0l0,0c0,0,0,0,0,0
					l0,0l0,0c0,0,0,0,0,0v0c0,0,0,0,0.1,0h0l0,0v0h0l0,0c0,0,0,0,0,0c0,0,0,0,0,0l0,0c0,0,0,0,0,0v0c0,0,0,0,0.1,0l0,0l0,0v0h0l0,0
					c0,0,0,0,0,0l0,0l0,0c0,0,0,0,0,0v0c0,0,0,0,0.1,0l0,0l0,0l0,0l0,0l0,0c0,0,0,0,0,0c0,0,0,0,0,0l0,0c0,0,0,0,0,0v0
					c0,0,0,0,0.1,0h0l0,0v0h0l0,0c0,0,0,0,0,0c0,0,0,0,0,0l0,0c0,0,0,0,0,0v0c0,0,0,0,0.1,0l0,0l0,0v0h0l0,0c0,0,0,0,0,0
					c0,0,0,0,0,0l0,0c0,0,0,0,0,0v0c0,0,0,0,0.1,0l0,0l0,0v0h0l0,0c0,0,0,0,0,0l0,0l0,0c0,0,0,0,0,0v0c0,0,0,0,0.1,0h0l0,0v0h0l0,0
					c0,0,0,0,0,0l0,0l0,0c0,0,0,0,0,0v0c0,0,0,0,0.1,0h0l0,0v0h0l0,0c0,0,0,0,0,0c0,0,0,0,0,0l0,0c0,0,0,0,0,0v0c0,0,0,0,0.1,0l0,0
					l0,0v0l0,0l0,0c0,0,0,0,0,0l0,0l0,0c0,0,0,0,0,0v0c0,0,0,0,0.1,0h0l0,0v0l0,0l0,0c0,0,0,0,0,0c0,0,0,0,0,0l0,0c0,0,0,0,0,0v0
					c0,0,0,0,0.1,0l0,0l0,0v0h0l0,0c0,0,0,0,0,0c0,0,0,0,0,0l0,0c0,0,0,0,0,0v0c0,0,0,0,0.1,0l0,0l0,0l0,0l0,0l0,0c0,0,0,0,0,0
					c0,0,0,0,0,0l0,0c0,0,0,0,0,0c0,0,0,0,0,0s0,0,0,0c0,0,0,0,0.1,0l0,0c0,0,0,0,0,0c0,0,0,0,0,0c0,0,0,0,0,0c0,0,0,0,0,0l0,0
					c0,0,0,0,0,0c0,0,0,0,0,0c0,0,0,0,0,0c0,0,0,0,0,0s0,0,0,0l0,0c0,0,0,0,0,0c0,0,0,0,0,0c0,0,0,0,0,0l0,0c0,0,0,0,0,0
					c0,0,0,0,0,0s0,0,0,0c0,0,0,0,0,0s0,0,0,0c0,0,0,0,0,0c0,0,0,0,0,0c0,0,0.1,0,0.1,0.1c0,0,0,0.1,0,0.1l0,0c0,0,0,0,0,0
					c0,0,0,0,0,0c0,0,0,0.1,0,0.1l0,0c0,0,0,0,0,0c0,0,0,0.1,0,0.1l0,0c0,0,0,0,0,0c0,0,0,0,0,0c0,0,0,0,0,0c0,0,0,0,0,0
					c0,0.1-0.1,0.2-0.1,0.3c-3.4,5.3-6.7,10.7-10,16c-0.2,0.3-0.6,0.4-1,0.3c-0.1,0-0.1,0-0.2,0c-0.1,0-0.1,0-0.2,0
					c-0.1,0-0.1,0-0.2,0c-0.1,0-0.1,0-0.2,0c-0.1,0-0.1,0-0.2,0c-0.1,0-0.1,0-0.2,0c-0.1,0-0.1,0-0.2,0c-0.1,0-0.1,0-0.2,0
					c-0.1,0-0.1,0-0.2,0c-0.1,0-0.1,0-0.2,0c-0.1,0-0.1,0-0.2,0c-0.1,0-0.1,0-0.2,0c-0.1,0-0.1,0-0.2,0c-0.1,0-0.1,0-0.2,0
					c-0.1,0-0.1,0-0.2,0c-0.1,0-0.1,0-0.2,0c-0.1,0-0.1,0-0.2,0c-0.1,0-0.1,0-0.2,0c-0.1,0-0.1,0-0.2,0c-0.1,0-0.1,0-0.2,0
					c-0.1,0-0.2-0.1-0.3-0.1C134.2,340.4,134.1,340.2,134,340L134,340z M137.9,333.4l2-3.3c-0.8,0.4-1.7,0.8-2.5,1.2
					C137.6,332,137.8,332.7,137.9,333.4z"/>
			</g>
		</g>
	</g>
	<g>
		<g>
			<path class="st4" d="M327.8,332.9c0.1,0,0.1,0,0.2,0c0.5,0.1,0.9,0.5,0.9,0.9c0,6.4,0,12.9,0,19.3l0,0c0,0.2-0.1,0.4-0.2,0.6
				c-0.3,0.3-0.8,0.3-1.2,0.2c-0.1,0-0.1,0-0.2,0c-0.1,0-0.1,0-0.2,0c-0.1,0-0.1,0-0.2,0c-0.1,0-0.1,0-0.2,0c-0.1,0-0.1,0-0.2,0
				c-0.1,0-0.1,0-0.2,0c-0.1,0-0.1,0-0.2,0c-0.1,0-0.1,0-0.2,0c-0.1,0-0.1,0-0.2,0c-0.1,0-0.1,0-0.2,0c-0.1,0-0.1,0-0.2,0
				c-0.1,0-0.1,0-0.2,0c-0.1,0-0.1,0-0.2,0c-0.1,0-0.1,0-0.2,0c-0.1,0-0.1,0-0.2,0c-0.1,0-0.1,0-0.2,0c-0.1,0-0.1,0-0.2,0
				c-0.1,0-0.1,0-0.2,0c-0.1,0-0.1,0-0.2,0c-0.1,0-0.1,0-0.2,0c-0.2,0-0.4-0.1-0.6-0.2c-2.7-1.9-5.3-3.9-7.9-5.8
				c-2.9,1.8-5.9,3.6-8.8,5.4c-0.2,0.1-0.4,0.2-0.8,0.2c-0.1,0-0.2,0-0.3-0.1c-0.1,0-0.1,0-0.2,0c-0.1,0-0.1,0-0.2,0
				c-0.1,0-0.1,0-0.2,0c-0.1,0-0.1,0-0.2,0c-0.1,0-0.1,0-0.2,0c-0.1,0-0.1,0-0.2,0c-0.1,0-0.1,0-0.2,0c-0.1,0-0.1,0-0.2,0
				c-0.1,0-0.1,0-0.2,0c-0.1,0-0.1,0-0.2,0c-0.1,0-0.1,0-0.2,0c-0.1,0-0.1,0-0.2,0c-0.1,0-0.1,0-0.2,0c-0.1,0-0.1,0-0.2,0
				c-0.1,0-0.1,0-0.2,0c-0.1,0-0.1,0-0.2,0c-0.1,0-0.1,0-0.2,0c-0.1,0-0.1,0-0.2,0c-0.1,0-0.1,0-0.2,0c-0.1,0-0.1,0-0.2,0
				c-0.5-0.1-1-0.5-1-1c0-6.3,0-12.6,0-19c0-0.5,0.5-0.9,1.1-0.8c3.6,0.2,7.3,0.4,10.9,0.6c3.7,0.2,7.4,0.4,11.2,0.6
				c0.1,0,0.2,0,0.4,0.1c0.1,0,0.1,0,0.2,0c0.1,0,0.1,0,0.2,0c0.1,0,0.1,0,0.2,0c0.1,0,0.1,0,0.2,0c0.1,0,0.1,0,0.2,0
				c0.1,0,0.1,0,0.2,0c0.1,0,0.1,0,0.2,0c0.1,0,0.1,0,0.2,0c0.1,0,0.1,0,0.2,0c0.1,0,0.1,0,0.2,0c0.1,0,0.1,0,0.2,0
				c0.1,0,0.1,0,0.2,0c0.1,0,0.1,0,0.2,0c0.1,0,0.1,0,0.2,0c0.1,0,0.1,0,0.2,0c0.1,0,0.1,0,0.2,0c0.1,0,0.1,0,0.2,0
				c0.1,0,0.1,0,0.2,0C327.7,332.8,327.8,332.8,327.8,332.9z"/>
		</g>
	</g>
	<g>
		<g>
			<path class="st3" d="M110.3,320.9c2.7,0.1,5.1,1.3,6.9,3.1c1.8,1.8,2.9,4.2,2.9,6.7c0,1.1-0.2,2.2-0.6,3.2
				c-0.4,0.9-0.8,1.7-1.5,2.4c0.2,0.8,0.4,1.6,0.6,2.3c0.1,0.4-0.1,0.8-0.6,0.9c-0.2,0-0.3,0-0.4,0c-0.9-0.3-1.8-0.6-2.7-0.9
				c-0.7,0.3-1.3,0.5-2.1,0.7c-0.8,0.1-1.7,0.2-2.5,0.2c-2.7-0.2-5.1-1.4-6.8-3.2c-1.7-1.7-2.8-4.1-2.8-6.6c0-2.5,1-4.7,2.8-6.3
				C105.2,321.6,107.6,320.7,110.3,320.9L110.3,320.9z M115.9,325c-1.5-1.5-3.5-2.4-5.7-2.5c-2.2-0.1-4.2,0.6-5.6,1.9
				c-1.4,1.3-2.3,3.2-2.3,5.3c0,2.1,0.9,4.1,2.3,5.5c1.4,1.5,3.4,2.4,5.6,2.6c0.7,0,1.4,0,2.1-0.1c0.7-0.1,1.3-0.3,1.9-0.7
				c0.2-0.1,0.4-0.1,0.7,0c0.6,0.2,1.1,0.3,1.7,0.5c-0.1-0.4-0.3-0.9-0.4-1.3l0,0c-0.1-0.2,0-0.5,0.2-0.7c0.6-0.7,1.1-1.4,1.4-2.3
				c0.3-0.8,0.5-1.7,0.5-2.6C118.3,328.4,117.4,326.5,115.9,325z"/>
		</g>
	</g>
	<g>
		<g>
			<path class="st3" d="M126.9,323.6c1.9,1.8,3.8,3.5,5.8,5.3c3-1.4,6-2.9,9-4.4C136.7,324.2,131.7,323.9,126.9,323.6L126.9,323.6z
				 M134,340c-0.7-3.2-1.5-6.5-2.2-9.7c-2.6-2.3-5.1-4.7-7.7-7l0,0c-0.1-0.2-0.3-0.4-0.3-0.6c0-0.4,0.4-0.7,0.8-0.7
				c6.6,0.4,13.3,0.8,20.1,1.2l0,0c0.1,0,0.1,0,0.1,0c0,0,0,0,0,0l0,0c0,0,0,0,0,0c0,0,0,0,0,0l0,0c0,0,0,0,0,0c0,0,0,0,0,0s0,0,0,0
				c0,0,0,0,0.1,0l0,0c0,0,0,0,0,0c0,0,0,0,0,0c0,0,0,0,0,0c0,0,0,0,0,0l0,0c0,0,0,0,0,0c0,0,0,0,0,0c0,0,0,0,0,0c0,0,0,0,0,0
				s0,0,0,0l0,0c0,0,0,0,0,0c0,0,0,0,0,0c0,0,0,0,0,0l0,0c0,0,0,0,0,0c0,0,0,0,0,0s0,0,0,0c0,0,0,0,0,0s0,0,0,0c0,0,0,0,0,0
				c0,0,0,0,0,0c0,0,0.1,0,0.1,0.1c0,0,0,0.1,0,0.1l0,0c0,0,0,0,0,0c0,0,0,0,0,0c0,0,0,0.1,0,0.1l0,0c0,0,0,0,0,0c0,0,0,0.1,0,0.1
				l0,0c0,0,0,0,0,0c0,0,0,0,0,0c0,0,0,0,0,0c0,0,0,0,0,0c0,0.1-0.1,0.2-0.1,0.3c-3.4,5.3-6.7,10.7-10,16c-0.2,0.4-0.7,0.5-1.1,0.2
				C134.2,340.4,134.1,340.2,134,340z M134,340L134,340L134,340z M133.5,330.3c1.2-0.6,2.4-1.1,3.6-1.7c1.8-0.9,3.6-1.8,5.5-2.7
				c-2.5,4-4.9,7.9-7.3,11.8C134.6,335.3,134.1,332.8,133.5,330.3z"/>
		</g>
	</g>
	<g>
		<g>
			<path class="st9" d="M14.4,39.9c0.1,0,0.2,0.1,0.3,0.1c0.5,0.2,1,0.3,1.5,0.3h19.5l2.9,3.4l0.1,0.1c0.1,0.1,0.3,0.2,0.4,0.2
				c0.1,0.1,0.2,0.1,0.3,0.1c0.1,0.1,0.2,0.1,0.3,0.1c0.1,0.1,0.2,0.1,0.3,0.1c0.1,0.1,0.2,0.1,0.3,0.1c0.1,0.1,0.2,0.1,0.3,0.1
				c0.1,0.1,0.2,0.1,0.3,0.1c0.1,0.1,0.2,0.1,0.3,0.1c0.1,0.1,0.2,0.1,0.3,0.1c0.1,0.1,0.2,0.1,0.3,0.1c0.1,0.1,0.2,0.1,0.3,0.1
				c0.1,0.1,0.2,0.1,0.3,0.1c0.1,0.1,0.2,0.1,0.3,0.1c0.1,0.1,0.2,0.1,0.3,0.1c0.1,0.1,0.2,0.1,0.3,0.1c0.1,0.1,0.2,0.1,0.3,0.1
				c0.1,0.1,0.2,0.1,0.3,0.1c0.1,0.1,0.2,0.1,0.3,0.1c0.1,0.1,0.2,0.1,0.3,0.1c0.1,0.1,0.2,0.1,0.3,0.1c0.1,0.1,0.2,0.1,0.3,0.1
				c0.3,0.2,0.8,0.1,1-0.2l4.9-5.7h1.2c2.3,0,4.2-1.9,4.2-4.2V18.4c0-1.9-1.2-3.5-2.9-4c-0.1,0-0.2-0.1-0.3-0.1
				c-0.1,0-0.2-0.1-0.3-0.1c-0.1,0-0.2-0.1-0.3-0.1c-0.1,0-0.2-0.1-0.3-0.1c-0.1,0-0.2-0.1-0.3-0.1c-0.1,0-0.2-0.1-0.3-0.1
				c-0.1,0-0.2-0.1-0.3-0.1c-0.1,0-0.2-0.1-0.3-0.1c-0.1,0-0.2-0.1-0.3-0.1c-0.1,0-0.2-0.1-0.3-0.1c-0.1,0-0.2-0.1-0.3-0.1
				c-0.1,0-0.2-0.1-0.3-0.1c-0.1,0-0.2-0.1-0.3-0.1c-0.1,0-0.2-0.1-0.3-0.1c-0.1,0-0.2-0.1-0.3-0.1c-0.1,0-0.2-0.1-0.3-0.1
				c-0.1,0-0.2-0.1-0.3-0.1c-0.1,0-0.2-0.1-0.3-0.1c-0.1,0-0.2-0.1-0.3-0.1c-0.1,0-0.2-0.1-0.3-0.1c-0.5-0.2-1-0.3-1.5-0.3H9.7
				c-2.3,0-4.2,1.9-4.2,4.2v17.8c0,1.9,1.2,3.5,2.9,4c0.1,0,0.2,0.1,0.3,0.1C8.9,38,9,38,9.1,38.1c0.1,0,0.2,0.1,0.3,0.1
				c0.1,0,0.2,0.1,0.3,0.1c0.1,0,0.2,0.1,0.3,0.1c0.1,0,0.2,0.1,0.3,0.1c0.1,0,0.2,0.1,0.3,0.1c0.1,0,0.2,0.1,0.3,0.1
				c0.1,0,0.2,0.1,0.3,0.1c0.1,0,0.2,0.1,0.3,0.1c0.1,0,0.2,0.1,0.3,0.1c0.1,0,0.2,0.1,0.3,0.1c0.1,0,0.2,0.1,0.3,0.1
				c0.1,0,0.2,0.1,0.3,0.1c0.1,0,0.2,0.1,0.3,0.1c0.1,0,0.2,0.1,0.3,0.1c0.1,0,0.2,0.1,0.3,0.1c0.1,0,0.2,0.1,0.3,0.1
				C14.2,39.9,14.3,39.9,14.4,39.9z"/>
		</g>
	</g>
	<g>
		<g>
			<path class="st8" d="M300.8,350.6c0-6.3,0-12.6,0-19c0-0.5,0.5-0.9,1.1-0.8c3.6,0.2,7.3,0.4,10.9,0.6c3.7,0.2,7.4,0.4,11.2,0.6
				c0.6,0,1.1,0.4,1.1,0.9c0,6.4,0,12.9,0,19.3l0,0c0,0.2-0.1,0.4-0.2,0.6c-0.4,0.4-1.1,0.4-1.6,0c-3.5-2.5-6.9-5.1-10.4-7.7
				c-3.4,2.1-6.8,4.2-10.2,6.3c-0.2,0.1-0.4,0.2-0.8,0.2C301.3,351.5,300.8,351.1,300.8,350.6z"/>
		</g>
	</g>
	<g>
		<g>
			<g>
				<path class="st10" d="M94.6,63.6l0.2,0c5.2,1.2,9,5.7,9,11.6c0,7.9-6.6,15.2-14.5,16.3c-1.9,0.3-3.8,0.2-5.4-0.2l-0.1,0
					l-0.2-0.1l-0.2,0l-0.2,0l-0.2,0l-0.2,0l0,0h0l-0.1,0l-0.2,0l-0.2,0l-0.2,0l-0.2,0l-0.2,0l-0.2,0l-0.2,0l0,0l0,0l-0.1,0l-0.2,0
					l-0.2,0l-0.2,0l-0.2,0c-5.3-1.2-9-5.7-9-11.6c0-7.7,6.2-14.9,14.2-16.3c2-0.3,4-0.3,5.7,0.2l0.2,0.1l0.2,0l0.2,0l0.2,0l0.2,0
					l0.2,0l0.2,0l0.2,0l0.2,0l0.2,0l0.2,0l0.2,0.1l0.2,0l0.2,0l0.2,0l0.2,0l0.2,0L94.6,63.6z"/>
			</g>
		</g>
		<g>
			<g>
				<path class="st11" d="M85.4,62.5c7.9-1.3,14.5,3.9,14.5,11.7c0,7.9-6.6,15.2-14.5,16.3c-7.9,1.2-14.2-4.1-14.2-11.8
					C71.2,71.1,77.5,63.9,85.4,62.5z"/>
			</g>
		</g>
		<g>
			<g>
				<path class="st12" d="M90.9,67.5c0.1,0,0.1,0,0.2,0c1.8,0.4,3,1.9,3,3.9c0,2.6-2.1,5-4.8,5.4c-0.7,0.1-1.3,0.1-1.9-0.1
					c-0.1,0-0.1,0-0.2,0c-0.1,0-0.1,0-0.2,0c-0.1,0-0.1,0-0.2,0c-0.1,0-0.1,0-0.2,0c-0.1,0-0.1,0-0.2,0c-0.1,0-0.1,0-0.2,0
					c-0.1,0-0.1,0-0.2,0c-0.1,0-0.1,0-0.2,0c-0.1,0-0.1,0-0.2,0c-0.1,0-0.1,0-0.2,0c-0.1,0-0.1,0-0.2,0c-0.1,0-0.1,0-0.2,0
					c-0.1,0-0.1,0-0.2,0c-0.1,0-0.1,0-0.2,0c-0.1,0-0.1,0-0.2,0c-0.1,0-0.1,0-0.2,0c-0.1,0-0.1,0-0.2,0c-0.1,0-0.1,0-0.2,0
					c-0.1,0-0.1,0-0.2,0c-0.1,0-0.1,0-0.2,0c-1.8-0.4-3-1.9-3-3.8c0-2.6,2.1-5,4.7-5.5c0.7-0.1,1.3-0.1,1.9,0.1c0.1,0,0.1,0,0.2,0
					c0.1,0,0.1,0,0.2,0c0.1,0,0.1,0,0.2,0c0.1,0,0.1,0,0.2,0c0.1,0,0.1,0,0.2,0c0.1,0,0.1,0,0.2,0c0.1,0,0.1,0,0.2,0
					c0.1,0,0.1,0,0.2,0c0.1,0,0.1,0,0.2,0c0.1,0,0.1,0,0.2,0c0.1,0,0.1,0,0.2,0c0.1,0,0.1,0,0.2,0c0.1,0,0.1,0,0.2,0
					c0.1,0,0.1,0,0.2,0c0.1,0,0.1,0,0.2,0c0.1,0,0.1,0,0.2,0c0.1,0,0.1,0,0.2,0c0.1,0,0.1,0,0.2,0C90.7,67.5,90.8,67.5,90.9,67.5
					L90.9,67.5z M96.6,83.7c-2.7,3.6-6.7,6.3-11.3,6.9c-1.8,0.3-3.5,0.2-5.1-0.2l-0.1,0c-0.8-0.2-1.6-0.5-2.3-0.8c0-0.9,0-1.8,0-2.7
					c0-4,3.4-7.9,7.5-8.5l0,0c1.1-0.2,2.1-0.1,3,0.1l0.2,0l0.2,0l0.2,0l0.2,0l0.2,0l0.2,0l0.2,0l0.2,0l0.2,0l0.2,0l0.2,0l0.2,0
					l0.2,0l0.2,0c0.1,0,0.1,0,0.2,0l0.2,0l0.2,0l0.2,0l0.2,0c0.1,0,0.1,0,0.2,0C94.3,79.9,96,81.5,96.6,83.7z"/>
			</g>
		</g>
		<g>
			<g>
				<path class="st8" d="M85.4,66.6c2.6-0.4,4.8,1.3,4.8,3.9c0,2.6-2.1,5-4.8,5.4c-2.6,0.4-4.7-1.3-4.7-3.9
					C80.6,69.5,82.7,67,85.4,66.6L85.4,66.6z M93,87.3c-2.2,1.7-4.8,2.9-7.6,3.3c-2.8,0.4-5.4,0-7.5-1c0-0.9,0-1.8,0-2.7
					c0-4,3.4-7.9,7.5-8.5l0,0c4.2-0.7,7.6,2.1,7.6,6.2C93,85.5,93,86.4,93,87.3z"/>
			</g>
		</g>
	</g>
	<g>
		<g>
			<path class="st8" d="M300.8,350.6c0-6.3,0-12.6,0-19c0-0.5,0.5-0.9,1.1-0.8c3.6,0.2,7.3,0.4,10.9,0.6c3.7,0.2,7.4,0.4,11.2,0.6
				c0.6,0,1.1,0.4,1.1,0.9c0,6.4,0,12.9,0,19.3l0,0c0,0.2-0.1,0.4-0.2,0.6c-0.4,0.4-1.1,0.4-1.6,0c-3.5-2.5-6.9-5.1-10.4-7.7
				c-3.4,2.1-6.8,4.2-10.2,6.3c-0.2,0.1-0.4,0.2-0.8,0.2C301.3,351.5,300.8,351.1,300.8,350.6z"/>
		</g>
	</g>
	<path class="st13" d="M92.5,323c-1.7-1.8-4.6-1.9-6.3-0.3c-0.4,0.4-0.8,0.7-1.2,1.1c-0.4-0.4-0.8-0.8-1.2-1.2
		c-1.8-1.8-4.5-1.9-6.2-0.3c-1.7,1.6-1.7,4.3,0,6.1c0.4,0.4,0.8,0.8,1.2,1.3c2.1,2.2,4.1,4.3,6.2,6.5c2.1-1.9,4.2-3.8,6.3-5.8
		c0.4-0.4,0.8-0.7,1.2-1.1C94.3,327.5,94.3,324.8,92.5,323z"/>
	<g>
		<g>
			<path class="st3" d="M300.8,350.6c0-6.3,0-12.6,0-19c0-0.5,0.5-0.9,1.1-0.8c3.6,0.2,7.3,0.4,10.9,0.6c3.7,0.2,7.4,0.4,11.2,0.6
				c0.6,0,1.1,0.4,1.1,0.9c0,6.4,0,12.9,0,19.3l0,0c0,0.2-0.1,0.4-0.2,0.6c-0.4,0.4-1.1,0.4-1.6,0c-3.5-2.5-6.9-5.1-10.4-7.7
				c-3.4,2.1-6.8,4.2-10.2,6.3c-0.2,0.1-0.4,0.2-0.8,0.2C301.3,351.5,300.8,351.1,300.8,350.6z"/>
		</g>
	</g>
	<g>
		<g>
			<path class="st13" d="M45.9,11.9H9.7c-2.3,0-4.2,1.9-4.2,4.2v17.8c0,2.3,1.9,4.2,4.2,4.2h24.1l4.9,5.7l0.1,0.1
				c0.3,0.3,0.8,0.2,1.1-0.1l4.9-5.7h1.2c2.3,0,4.2-1.9,4.2-4.2V16C50.1,13.8,48.2,11.9,45.9,11.9z"/>
		</g>
	</g>
	<g>
		<g>
			<g>
				<path class="st8" d="M11.8,20.5L11.8,20.5c1.3-1.3,3.5-1.3,4.8,0l0.9,0.9l0.9-0.9c1.3-1.3,3.5-1.3,4.8,0l0,0
					c1.3,1.3,1.3,3.5,0,4.8l-0.9,0.9l-4.8,4.8l-4.8-4.8l-0.9-0.9C10.4,23.9,10.4,21.8,11.8,20.5z"/>
			</g>
		</g>
		<g>
			<g>
				<path class="st8" d="M35.5,24.5c0,1.9-0.4,3.4-1.2,4.3c-0.8,1-2,1.4-3.7,1.4c-0.6,0-1,0-1.3-0.1v-1.7c0.4,0.1,0.8,0.1,1.2,0.1
					c0.7,0,1.3-0.1,1.7-0.3c0.4-0.2,0.8-0.5,1-1c0.2-0.4,0.4-1,0.4-1.8h-0.1c-0.3,0.4-0.6,0.7-0.9,0.9c-0.3,0.2-0.8,0.3-1.3,0.3
					c-0.9,0-1.5-0.3-2-0.8c-0.5-0.5-0.7-1.3-0.7-2.3c0-1,0.3-1.9,0.9-2.5c0.6-0.6,1.4-0.9,2.4-0.9c0.7,0,1.4,0.2,1.9,0.5
					c0.5,0.3,1,0.8,1.2,1.5C35.4,22.8,35.5,23.6,35.5,24.5L35.5,24.5z M32,21.8c-0.4,0-0.8,0.1-1,0.4c-0.2,0.3-0.4,0.7-0.4,1.3
					c0,0.5,0.1,0.8,0.3,1.1c0.2,0.3,0.5,0.4,1,0.4c0.4,0,0.8-0.1,1.1-0.4c0.3-0.3,0.4-0.6,0.4-0.9c0-0.5-0.1-1-0.4-1.3
					C32.8,22,32.4,21.8,32,21.8L32,21.8z M43.4,24.5c0,1.9-0.4,3.4-1.2,4.3c-0.8,1-2,1.4-3.7,1.4c-0.6,0-1,0-1.3-0.1v-1.7
					c0.4,0.1,0.8,0.1,1.2,0.1c0.7,0,1.3-0.1,1.7-0.3c0.4-0.2,0.8-0.5,1-1c0.2-0.4,0.4-1,0.4-1.8h-0.1c-0.3,0.4-0.6,0.7-0.9,0.9
					c-0.3,0.2-0.8,0.3-1.3,0.3c-0.9,0-1.5-0.3-2-0.8c-0.5-0.5-0.7-1.3-0.7-2.3c0-1,0.3-1.9,0.9-2.5c0.6-0.6,1.4-0.9,2.4-0.9
					c0.7,0,1.4,0.2,1.9,0.5c0.5,0.3,1,0.8,1.2,1.5C43.2,22.8,43.4,23.6,43.4,24.5L43.4,24.5z M39.8,21.8c-0.4,0-0.8,0.1-1,0.4
					c-0.2,0.3-0.4,0.7-0.4,1.3c0,0.5,0.1,0.8,0.3,1.1c0.2,0.3,0.6,0.4,1,0.4c0.4,0,0.8-0.1,1.1-0.4c0.3-0.3,0.4-0.6,0.4-0.9
					c0-0.5-0.1-1-0.4-1.3C40.6,22,40.3,21.8,39.8,21.8z"/>
			</g>
		</g>
	</g>
	<g>
		<g class="st6">
			<g>
				<path class="st0" d="M53.2,240.5c12.8,12.2,33.1,11.7,45.3-1.1c6.8-7.1,9.6-16.5,8.6-25.6c2.5-2.8,5.7-6.1,7.1-7.8
					c1.5-1.8,0.8-4.4-1.8-4.7l-10.4-1.5c-1.3-2-2.9-3.9-4.7-5.6c-12.8-12.2-33.1-11.7-45.3,1.1C39.9,208,40.4,228.3,53.2,240.5z"/>
			</g>
		</g>
	</g>
	<g>
		<g class="st6">
			<g>
				<path class="st0" d="M409.8,59.1c2.2,23.3-15,44-38.3,46.1c-13,1.2-25.1-3.6-33.7-12c-5,0.3-11,0.9-13.9,1
					c-3.2,0.1-5.2-2.8-3.5-5.7l6.9-12c-1-3-1.7-6.2-2-9.5c-2.2-23.3,15-44,38.3-46.1C387,18.6,407.6,35.8,409.8,59.1z"/>
			</g>
		</g>
	</g>
	<g>
		<g>
			<g>
				<path class="st13" d="M51.7,235.2c12.8,12.2,33.1,11.7,45.3-1.1c6.8-7.1,9.6-16.5,8.6-25.6c2.5-2.8,5.7-6.1,7.1-7.8
					c1.5-1.8,0.8-4.4-1.8-4.7l-10.4-1.5c-1.3-2-2.9-3.9-4.7-5.6c-12.8-12.2-33.1-11.7-45.3,1.1C38.4,202.7,38.8,223,51.7,235.2z"/>
			</g>
		</g>
	</g>
	<g>
		<g>
			<path class="st11" d="M84,223.5H70.3h-3.8c-0.5,0-0.9,0.4-0.9,0.9v1.5c0,0.5,0.4,0.9,0.9,0.9h3.8H84c0.5,0,0.9-0.4,0.9-0.9v-1.5
				C84.9,223.9,84.5,223.5,84,223.5z"/>
		</g>
	</g>
	<g>
		<g>
			<g>
				<path class="st14" d="M88.9,232.3H61.7c-1.4,0-2.5-1.1-2.5-2.5v-24.3c0-0.5,0.4-0.9,0.9-0.9c1.3,0,2.4-1.1,2.4-2.4
					c0-1.3-1.1-2.4-2.4-2.4c-0.5,0-0.9-0.4-0.9-0.9v-5.9c0-1.4,1.1-2.5,2.5-2.5h27.2c1.4,0,2.5,1.1,2.5,2.5v5.9
					c0,0.5-0.4,0.9-0.9,0.9c-1.3,0-2.4,1.1-2.4,2.4c0,1.3,1.1,2.4,2.4,2.4c0.5,0,0.9,0.4,0.9,0.9v24.3
					C91.4,231.2,90.3,232.3,88.9,232.3z M60.9,206.2v23.5c0,0.4,0.3,0.7,0.7,0.7h27.2c0.4,0,0.7-0.3,0.7-0.7v-23.5
					c-1.9-0.4-3.3-2.1-3.3-4.1c0-2,1.4-3.7,3.3-4.1v-5.1c0-0.4-0.3-0.7-0.7-0.7H61.7c-0.4,0-0.7,0.3-0.7,0.7v5.1
					c1.9,0.4,3.3,2.1,3.3,4.1C64.3,204.1,62.8,205.8,60.9,206.2z"/>
			</g>
		</g>
		<g>
			<g>
				<path class="st14" d="M84,227.2H66.5c-0.7,0-1.3-0.6-1.3-1.3v-1.5c0-0.7,0.6-1.3,1.3-1.3H84c0.7,0,1.3,0.6,1.3,1.3v1.5
					C85.4,226.6,84.8,227.2,84,227.2z M66.5,223.9c-0.2,0-0.5,0.2-0.5,0.4v1.5c0,0.2,0.2,0.4,0.5,0.4H84c0.2,0,0.4-0.2,0.4-0.4v-1.5
					c0-0.2-0.2-0.4-0.4-0.4H66.5z"/>
			</g>
		</g>
		<g>
			<g>
				<path class="st14" d="M87.8,196H60c-0.2,0-0.4-0.2-0.4-0.4c0-0.2,0.2-0.4,0.4-0.4h27.8c0.2,0,0.4,0.2,0.4,0.4
					C88.3,195.8,88.1,196,87.8,196z"/>
			</g>
		</g>
		<g>
			<g>
				<g>
					<path class="st14" d="M75.3,219.5c-0.2,0-0.4-0.2-0.4-0.4c0-0.2,0.2-0.5,0.4-0.5c0,0,0.5-0.1,0.7-0.5c0-0.1,0.1-0.6,0.5-3.3
						c0.4-2.7,0.8-6.3,1.1-8.6c0.3-2.2,0.1-3.7-0.6-4.4c-0.4-0.4-0.9-0.7-1.7-0.6c-0.3,0-0.5-0.2-0.5-0.4c0-0.2,0.2-0.4,0.4-0.5
						c1,0,1.8,0.3,2.4,0.9c0.9,1,1.1,2.7,0.8,5.1c-0.3,2.3-0.8,5.9-1.1,8.6c-0.4,2.8-0.5,3.3-0.5,3.5
						C76.5,219.3,75.7,219.5,75.3,219.5C75.3,219.5,75.3,219.5,75.3,219.5z"/>
				</g>
			</g>
			<g>
				<g>
					<path class="st14" d="M86.3,213.7c0,0-0.1,0-0.1,0l-8.8-2.7c-0.2-0.1-0.4-0.3-0.3-0.6c0.1-0.2,0.3-0.4,0.6-0.3l8.3,2.6l0.3-1.6
						l-8.4-4.4c-0.2-0.1-0.3-0.4-0.2-0.6c0.1-0.2,0.4-0.3,0.6-0.2l8.7,4.6c0.2,0.1,0.3,0.3,0.2,0.5l-0.4,2.4c0,0.1-0.1,0.2-0.2,0.3
						C86.5,213.6,86.4,213.7,86.3,213.7z"/>
				</g>
			</g>
			<g>
				<g>
					<path class="st14" d="M79.8,219.8c0,0-0.1,0-0.1,0l-3.5-1c-0.2-0.1-0.4-0.3-0.3-0.6c0.1-0.2,0.3-0.4,0.6-0.3l3,0.9l0.1-0.5
						l-3.2-1.7c-0.2-0.1-0.3-0.4-0.2-0.6c0.1-0.2,0.4-0.3,0.6-0.2l3.5,1.9c0.2,0.1,0.3,0.3,0.2,0.5l-0.3,1.3c0,0.1-0.1,0.2-0.2,0.3
						C80,219.7,79.9,219.8,79.8,219.8z"/>
				</g>
			</g>
			<g>
				<g>
					<path class="st14" d="M75.3,219.5C75.3,219.5,75.3,219.5,75.3,219.5c-0.5,0-1.3-0.3-1.5-1.1c0-0.1-0.1-0.3-0.5-3.5
						c-0.4-2.7-0.8-6.3-1.1-8.6c-0.3-2.5-0.1-4.2,0.8-5.1c0.6-0.6,1.3-0.9,2.4-0.9c0.2,0,0.4,0.2,0.4,0.5c0,0.2-0.2,0.4-0.4,0.4
						c0,0,0,0-0.1,0c-0.7,0-1.2,0.2-1.6,0.6c-0.7,0.8-0.9,2.3-0.6,4.4c0.3,2.3,0.8,5.9,1.1,8.6c0.4,2.8,0.5,3.2,0.5,3.3
						c0.1,0.5,0.7,0.5,0.7,0.5c0.2,0,0.4,0.2,0.4,0.5C75.7,219.4,75.5,219.5,75.3,219.5z"/>
				</g>
			</g>
			<g>
				<g>
					<path class="st14" d="M64.3,213.7c-0.1,0-0.2,0-0.2-0.1c-0.1-0.1-0.2-0.2-0.2-0.3l-0.4-2.4c0-0.2,0.1-0.4,0.2-0.5l8.7-4.6
						c0.2-0.1,0.5,0,0.6,0.2c0.1,0.2,0,0.5-0.2,0.6l-8.4,4.4l0.3,1.6l8.3-2.6c0.2-0.1,0.5,0.1,0.6,0.3c0.1,0.2-0.1,0.5-0.3,0.6
						l-8.8,2.7C64.3,213.7,64.3,213.7,64.3,213.7z"/>
				</g>
			</g>
			<g>
				<g>
					<path class="st14" d="M70.7,219.8c-0.1,0-0.2,0-0.2-0.1c-0.1-0.1-0.2-0.2-0.2-0.3l-0.3-1.3c0-0.2,0-0.4,0.2-0.5l3.5-1.9
						c0.2-0.1,0.5,0,0.6,0.2c0.1,0.2,0,0.5-0.2,0.6l-3.2,1.7l0.1,0.5l3-0.9c0.2-0.1,0.5,0.1,0.6,0.3c0.1,0.2-0.1,0.5-0.3,0.6l-3.5,1
						C70.8,219.8,70.8,219.8,70.7,219.8z"/>
				</g>
			</g>
			<g>
				<g>
					<path class="st14" d="M74.3,203.6c-0.2,0-0.4-0.1-0.4-0.3c-0.1-0.2,0.1-0.5,0.3-0.6c0.3-0.1,0.7-0.1,1.2-0.2
						c0.3,0,0.6,0,0.9,0.1c0.2,0.1,0.4,0.3,0.3,0.5c-0.1,0.2-0.3,0.4-0.5,0.3c-0.2,0-0.4-0.1-0.7-0.1c0,0,0,0,0,0
						c-0.3,0-0.6,0-0.9,0.1C74.3,203.6,74.3,203.6,74.3,203.6z"/>
				</g>
			</g>
		</g>
	</g>
	<g>
		<g>
			<g>
				<path class="st11" d="M408.2,53.8c2.2,23.3-15,44-38.3,46.1c-13,1.2-25.1-3.6-33.7-12c-5,0.3-11,0.9-13.9,1
					c-3.2,0.1-5.2-2.8-3.5-5.7l6.9-12c-1-3-1.7-6.2-2-9.5c-2.2-23.3,15-44,38.3-46.1C385.4,13.3,406.1,30.5,408.2,53.8z"/>
			</g>
		</g>
	</g>
	<g>
		<g>
			<path class="st13" d="M389.8,42.4c0,2.9-2.3,5.2-5.2,5.2c-2.9,0-5.2-2.3-5.2-5.2s2.3-5.2,5.2-5.2
				C387.5,37.2,389.8,39.6,389.8,42.4L389.8,42.4z M376.2,49.7l7.6,8.8c0.2,0.2,0.5,0.4,0.8,0.4c0.3,0,0.6-0.1,0.8-0.4l7.6-8.8
				c1.7-1.9,2.7-4.5,2.7-7.2c0-6.1-5-11.1-11.1-11.1c-0.6,0-1.2,0.1-1.8,0.2c-5.3,0.9-9.3,5.4-9.3,10.9
				C373.5,45.2,374.5,47.7,376.2,49.7z"/>
		</g>
	</g>
	<g>
		<g>
			<g>
				<path class="st14" d="M366.1,88.2c-6.9,0-13.3-2.3-18.5-6.1c-0.1,0-0.2-0.1-0.3-0.2c-5.4-4.1-9.4-9.8-11.3-16.5
					c0-0.1,0-0.1,0-0.2c-0.7-2.6-1.1-5.4-1.1-8.3c0-17.2,14-31.3,31.3-31.3c6.1,0,12,1.8,17.1,5.1c0.4,0.3,0.5,0.8,0.3,1.2
					c-0.3,0.4-0.8,0.5-1.2,0.3c-4.7-3.1-10.1-4.7-15.7-4.8c0.5,2.2,1.2,7-1.2,10.2c-1.4,1.9-3.5,2.9-6.4,3c-0.4,1.5-1.7,4.8-4.4,5.4
					c0.2,2.5,0.3,9.5-4,14.6c-2.8,3.3-7,5.1-12.4,5.3c1.8,5.5,5.1,10.3,9.6,13.9c1.3-3,5.6-10.7,15.1-11.1c0.2-0.7,0.6-1.8,1.5-2.6
					c0.7-0.6,1.6-1,2.7-1.1c0-2.5,0.7-9,6.9-10.9c0.5-0.1,1,0.1,1.1,0.6c0.1,0.5-0.1,1-0.6,1.1c-6.3,1.9-5.7,9.7-5.6,10
					c0,0.3-0.1,0.5-0.3,0.7c-0.2,0.2-0.4,0.3-0.7,0.3c-1-0.1-1.8,0.1-2.4,0.6c-0.9,0.8-1,2.2-1,2.2c0,0.5-0.4,0.8-0.9,0.8
					c-9.6,0-13.5,8.1-14.4,10.5c4.8,3.4,10.7,5.4,17.1,5.4c8.8,0,16.7-3.9,22.1-10c0-1-0.3-4.3-2.3-6.3c-1.1-1.1-2.5-1.6-4.2-1.6
					c-0.5,0-0.9-0.4-0.9-0.9c0-0.5,0.4-0.9,0.9-0.9c2.2,0,4.1,0.7,5.5,2.1c1.6,1.7,2.3,3.9,2.6,5.6c3.6-4.9,5.8-10.9,5.8-17.5
					c0-0.5,0.4-0.9,0.9-0.9c0.5,0,0.9,0.4,0.9,0.9c0,7.7-2.8,14.8-7.5,20.3c-0.1,0.1-0.1,0.2-0.2,0.3C384,84,375.6,88.2,366.1,88.2z
					 M364.7,27.5c-15.6,0.8-28,13.7-28,29.4c0,2.5,0.3,4.9,0.9,7.2c5.1-0.1,9-1.7,11.5-4.7c4.7-5.5,3.5-14,3.5-14
					c0-0.3,0-0.5,0.2-0.7c0.2-0.2,0.4-0.3,0.7-0.3c2.8,0,3.9-4.8,3.9-4.8c0.1-0.4,0.5-0.7,0.9-0.7c2.6,0,4.5-0.8,5.6-2.3
					C365.9,33.8,365.1,29.2,364.7,27.5z"/>
			</g>
		</g>
		<g>
			<g>
				<path class="st14" d="M384.6,59.8c-0.6,0-1.1-0.3-1.5-0.7l-7.6-8.8c-1.9-2.2-2.9-5-2.9-7.8c0-6.6,5.4-12,12-12
					c6.6,0,12,5.4,12,12c0,2.9-1,5.7-2.9,7.8l-7.6,8.8C385.7,59.5,385.2,59.8,384.6,59.8z M384.6,32.2c-5.6,0-10.2,4.6-10.2,10.2
					c0,2.4,0.9,4.8,2.5,6.7l7.7,8.9c0.1,0,0.1,0,0.1,0l7.6-8.8c1.6-1.8,2.5-4.2,2.5-6.7C394.8,36.8,390.2,32.2,384.6,32.2z
					 M384.6,48.5c-3.4,0-6.1-2.7-6.1-6.1c0-3.4,2.7-6.1,6.1-6.1c3.4,0,6.1,2.7,6.1,6.1C390.7,45.8,388,48.5,384.6,48.5z M384.6,38.1
					c-2.4,0-4.3,1.9-4.3,4.3c0,2.4,1.9,4.3,4.3,4.3c2.4,0,4.3-1.9,4.3-4.3C388.9,40.1,387,38.1,384.6,38.1z"/>
			</g>
		</g>
	</g>
	<g>
		<g>
			<path class="st14" d="M73.8,244.9c-8.2,0-16.3-3-22.7-9.1c-6.4-6.1-10-14.3-10.2-23c-0.2-8.8,3-17.1,9.1-23.5
				c1.6-1.7,3.3-3.2,5.2-4.4c0.4-0.3,1-0.2,1.2,0.2c0.3,0.4,0.2,1-0.2,1.2c-1.8,1.2-3.4,2.6-4.9,4.2c-5.7,6-8.8,13.9-8.6,22.2
				c0.2,8.3,3.6,16.1,9.7,21.8c12.4,11.8,32.2,11.4,44-1.1c1.9-2,3.5-4.1,4.8-6.5c0.2-0.4,0.8-0.6,1.2-0.4c0.4,0.2,0.6,0.8,0.4,1.2
				c-1.4,2.5-3.1,4.8-5,6.9C91.2,241.5,82.5,244.9,73.8,244.9z M104.2,222.8c-0.1,0-0.2,0-0.3,0c-0.5-0.2-0.7-0.7-0.6-1.1
				c0.2-0.7,0.4-1.4,0.6-2.1c0.1-0.5,0.6-0.8,1.1-0.7c0.5,0.1,0.8,0.6,0.6,1.1c-0.2,0.8-0.4,1.5-0.6,2.3
				C105,222.6,104.6,222.8,104.2,222.8z M106.6,208.3c-0.2,0-0.4-0.1-0.6-0.2c-0.4-0.3-0.4-0.9-0.1-1.3c0.7-0.8,1.4-1.5,2.1-2.3
				c1.6-1.7,3.1-3.4,3.9-4.4c0.5-0.7,0.7-1.5,0.5-2.1c-0.2-0.6-0.8-1-1.7-1.2l-10.4-1.5c0,0,0,0,0,0l0,0c-0.1,0-0.2-0.1-0.3-0.1
				c-0.1-0.1-0.2-0.1-0.3-0.3c0,0,0,0,0,0c-1.3-2-2.8-3.8-4.6-5.5c-6.4-6.1-15.2-9.2-24-8.5c-0.5,0-0.9-0.3-1-0.8
				c0-0.5,0.3-0.9,0.8-1c9.3-0.7,18.6,2.5,25.3,9c1.7,1.7,3.3,3.5,4.6,5.5l10,1.4c1.5,0.2,2.6,1.1,3.1,2.3c0.5,1.3,0.2,2.7-0.8,3.9
				c-0.9,1.1-2.4,2.7-4,4.4c-0.7,0.8-1.4,1.5-2.1,2.3C107.1,208.2,106.9,208.3,106.6,208.3z"/>
		</g>
	</g>
	<g>
		<g>
			<path class="st14" d="M366,101c-11.2,0-22-4.3-30.1-12.2c-1.8,0.1-3.8,0.3-5.7,0.4c-3.1,0.2-6.1,0.5-7.9,0.5
				c-1.9,0.1-3.5-0.8-4.4-2.3c-0.8-1.4-0.8-3.2,0.2-4.8l6.7-11.7c-1-3-1.6-6.2-1.9-9.3c-1.1-11.5,2.4-22.8,9.8-31.7
				c7.4-8.9,17.8-14.4,29.3-15.5c2.9-0.3,5.8-0.2,8.7,0.1c0.5,0.1,0.8,0.5,0.8,1c-0.1,0.5-0.5,0.8-1,0.8c-2.7-0.3-5.5-0.3-8.3-0.1
				c-11,1-21,6.3-28.1,14.8c-7.1,8.5-10.4,19.3-9.4,30.4c0.3,3.2,0.9,6.3,2,9.3c0.1,0.2,0.1,0.5-0.1,0.7l-6.9,12
				c-0.6,1.1-0.7,2.1-0.2,3c0.5,0.9,1.6,1.4,2.8,1.4c1.8,0,4.7-0.3,7.8-0.5c2-0.2,4.1-0.3,6.1-0.4c0.3,0,0.5,0.1,0.7,0.3
				c8.7,8.6,20.8,12.9,33,11.8c3.1-0.3,6.2-0.9,9.2-1.9c0.5-0.2,1,0.1,1.1,0.6c0.2,0.5-0.1,1-0.6,1.1c-3.1,1-6.3,1.7-9.6,2
				C368.7,101,367.3,101,366,101z M389.5,93.9c-0.3,0-0.6-0.1-0.7-0.4c-0.3-0.4-0.2-1,0.2-1.2c12.7-8.5,19.8-23.2,18.3-38.4v0
				c0-0.5-0.1-1-0.2-1.4c-0.1-0.5,0.3-0.9,0.8-1c0.5-0.1,0.9,0.3,1,0.8c0.1,0.5,0.1,1,0.2,1.5c0,0,0,0,0,0
				c1.5,15.9-5.9,31.2-19.1,40.1C389.8,93.9,389.7,93.9,389.5,93.9z M406.3,45.3c-0.4,0-0.7-0.2-0.8-0.6c-0.5-1.4-1-2.8-1.6-4.1
				c-0.2-0.4,0-1,0.4-1.2c0.4-0.2,1,0,1.2,0.4c0.6,1.4,1.2,2.8,1.7,4.3c0.2,0.5-0.1,1-0.6,1.1C406.5,45.3,406.4,45.3,406.3,45.3z
				 M386,21.2c-0.1,0-0.3,0-0.4-0.1c-1.6-0.9-3.4-1.7-5.1-2.3c-0.5-0.2-0.7-0.7-0.5-1.1c0.2-0.5,0.7-0.7,1.1-0.5
				c1.8,0.7,3.6,1.5,5.4,2.4c0.4,0.2,0.6,0.8,0.4,1.2C386.6,21,386.3,21.2,386,21.2z"/>
		</g>
	</g>
	<g>
		<g>
			<g>
				<g>
					<path class="st15" d="M200.1,122.3c0.1-0.2,0.4-0.3,0.6-0.2c0.2,0.1,0.3,0.4,0.2,0.6c0,0.1-14.7,25.7,11.8,33.6
						c0.2,0.1,0.4,0.3,0.3,0.6c-0.1,0.2-0.3,0.4-0.6,0.3C184.8,149.1,200,122.4,200.1,122.3z"/>
				</g>
			</g>
			<g>
				<g>
					<path class="st15" d="M201.6,268.9c0,0,1.9-6.3,9.7-9.5c7.7-3.2,3.8,13.2,3.8,13.2l-11.1,3.2
						C204,275.8,200.9,273.5,201.6,268.9z"/>
				</g>
			</g>
			<g>
				<g>
					<path class="st16" d="M140.7,202.5c0,0-0.5,0.6-0.1,1.4c0.4,0.7,5.5,4.5,5.5,4.5s0.5-1.6,0.4-1.8c-0.1-0.2-2.8-3.6-2.8-3.6
						L140.7,202.5z"/>
				</g>
			</g>
			<g>
				<g>
					<path class="st17" d="M132.8,196.3c-0.1-0.1-5.4-0.9-5.4-0.9l-0.9,2.4l34.8,13.3l1.3-1.6l-0.1-2.1L132.8,196.3z"/>
				</g>
			</g>
			<g>
				<g>
					<polygon class="st15" points="169.3,208.3 168.4,210.7 161.3,211.1 162.3,208.7 163.6,207.6 					"/>
				</g>
			</g>
			<g>
				<g>
					<polygon class="st18" points="169.3,208.3 134.5,195 127.4,195.4 162.3,208.7 					"/>
				</g>
			</g>
			<g>
				<g>
					<polygon class="st8" points="163.7,206.7 136.2,196.2 131.8,196.5 159.2,207 					"/>
				</g>
			</g>
			<g>
				<g>
					<path class="st19" d="M194.8,236.7c0,0-11.5-11.2-17.1-14.5l2.5-16.6c0,0,3.3,5.2,20.2,15.3l2.2,0.2c0,0,0.6,6.2,0.5,6.6
						c0,0.3-5.2,13.8-5.2,13.8s-1.5-1-1.7-1.5C196,239.3,194.8,236.7,194.8,236.7z"/>
				</g>
			</g>
			<g>
				<g>
					<path class="st16" d="M194.8,236.7c0,0-0.4-0.4-1-1c2.1-1.2,6.4-4.9,6.5-14.9l2.2,0.2c0,0,0.6,6.2,0.5,6.6
						c0,0.3-5.2,13.8-5.2,13.8s-1.5-1-1.7-1.5C196,239.3,194.8,236.7,194.8,236.7L194.8,236.7z M188.1,230.4
						c-0.7-0.6-1.4-1.2-2.1-1.8l4.3-7.7l1.4-5.5c0.5,0.3,1,0.7,1.5,1C193,218.7,192.1,224.6,188.1,230.4L188.1,230.4z M180.6,224.1
						c-1.1-0.8-2-1.5-2.9-2l1.6-10.6l1,1.1L180.6,224.1z"/>
				</g>
			</g>
			<g>
				<g>
					<path class="st8" d="M206.4,222.4l-3.7-2.1c0,0-1.5-0.5-2.4,0.5l1,0.5c0,0,0.6,3.7-0.4,7.3c-1.1,3.6-3.4,10.4-3.4,10.4
						l-2.7-2.4c0,0-0.2,5.9,0.4,8.4c0.5,2.4,1.8,2.3,4.7,2.9c2.9,0.6,9.4,4.2,10.5,5.3C211.5,254.4,212.9,233.1,206.4,222.4z"/>
				</g>
			</g>
			<g>
				<g>
					<path class="st10" d="M204.6,107.5c0,0-27.1,3.2-39.6-10.3c-12.5-13.5-10.7-28.1-2.2-33.1c8.5-5,27.6-5,38.6-4.4
						C212.4,60.4,204.6,107.5,204.6,107.5z"/>
				</g>
			</g>
			<g>
				<g>
					<path class="st10" d="M243.4,106.2c0,0,27,18.2,44.5,2.2c17.5-16,3.2-39.3-14.6-43.2c-17.8-3.9-35,1.5-35,1.5L243.4,106.2z"/>
				</g>
			</g>
			<g>
				<g>
					<path class="st15" d="M192.6,98.3c1,3.7,1.1,8.1-0.8,13.7c-5.8,16.6,7.2,13.8,7.2,13.8s-8.9,30.4,23,30.3
						c31.8-0.1,29-33.9,20.9-47.2c-1.7-2.8-3.7-6.5-6-10.6H192.6z"/>
				</g>
			</g>
			<g>
				<g>
					<path class="st17" d="M194.2,61.6l-3.7-0.5c0,0-8.1,3.7-6.6,16.4c1,8.4,6.7,13.5,8.8,20.9h44.2
						C227.9,82.5,214.2,60.5,194.2,61.6z"/>
				</g>
			</g>
			<g>
				<g>
					<path class="st15" d="M184.3,80c1.7,7,6.5,11.8,8.3,18.3h11.1c1.4-4.7,2.6-12.3,2.6-12.3s-0.5-6.5-9.4-0.7
						C188.1,91.1,184.4,80.3,184.3,80z"/>
				</g>
			</g>
			<g>
				<g>
					<path class="st15" d="M194.2,61.6l-3.7-0.5c0,0-1.7,0.8-3.4,2.8c2.6,0.1,5.8,0.9,7.2,3.4c2.5,4.7-1,9-1,9s-0.2,0.5,0.2,0.6
						c0.4,0.1,5.7,3,12.9-4.4c2.3-2.3,3.9-4.3,5-6.1C206.1,63.2,200.5,61.2,194.2,61.6z"/>
				</g>
			</g>
			<g>
				<g>
					<path class="st17" d="M198.1,130.7c-1,8.6,0.2,25.4,23.9,25.3c6-21.2-10.8-25.7-11.6-22.6C202.4,123.2,198.1,130.7,198.1,130.7
						z"/>
				</g>
			</g>
			<g>
				<g>
					<path class="st17" d="M192.6,109.1c-0.2,0.9-0.5,1.9-0.9,2.9c-3.1,8.9-0.8,12.2,2,13.4c8.7,0.6,5.2-11.6,4.7-12.1
						c-0.5-0.5-0.9,0.1-0.9,0.1c-0.4,1.1-1.1,1.2-1.1,1.2C196.6,108.2,192.6,109.1,192.6,109.1L192.6,109.1z"/>
				</g>
			</g>
			<g>
				<g>
					<path class="st15" d="M260.4,68c0,0,9.3,1,8.3,9c0,0,15.6,2.5,12.5,14.1c0,0,2.5,0,2.2,3.2c11.3,4.4,7.6,23.9-8.2,23
						c0,0-1.6,3.5-5.1,2.6c0,0,2.9,5.2-1.4,8.3c0,0,2.3,5.1-0.8,7.6c-3.2,2.5-20.2,6.1-22.9-20.3c-2.7-26.4,5.9-45.5,5.9-45.5
						L260.4,68z"/>
				</g>
			</g>
			<g>
				<g>
					<path class="st17" d="M268.6,77c0,0,15.6,2.5,12.5,14.1c0,0,2.5,0,2.2,3.2c0.6,0.2,1.2,0.5,1.7,0.8c0,0.1,0.7,2.6-3.2,2.6
						c-4,0-11.1,0-16.1,0c-5,0-7.3-6.4-7.3-6.4s-3.2-6.2-3.7-6.2c-0.6,0-0.8-5.7,2.2-7.7c3-2,7.3,0.1,7.3,4.9c0,0,0,0.4,0.5,0.3
						C265.1,82.5,266.6,81.9,268.6,77z"/>
				</g>
			</g>
			<g>
				<g>
					<path class="st16" d="M226.9,128.1c0,0,3.4,0.3,4.7,2.4c1.4,2.2,5.2,11.2,5.2,11.2l23.5-22.1c0,0-3.5-2.2-5-5.2
						c-1.5-3-3.7-7.3-3.7-7.3L226.9,128.1z"/>
				</g>
			</g>
			<g>
				<g>
					<path class="st20" d="M261.1,118.9c0,0,15.6,10.2,22.6,31.6c7.1,21.5,1.4,40.8,1.1,63.9c-0.2,19.7-3,51.6-3.9,60.4h-71.4
						c0.3-12.5,0-29.2,0-30.8c0-2.4-4.3-22.9-4.3-22.9s-9.2-11.3-5-22.9c4.2-11.5,26-47.9,33.1-53.9L261.1,118.9z"/>
				</g>
			</g>
			<g>
				<g>
					<path class="st21" d="M285.3,203.5c-0.3,3.5-0.4,7.2-0.5,10.9c-0.2,17.6-2.5,44.9-3.5,56.8c-8.8,2.2-47.9,3.6-47.9,3.6
						s-8-8.6-10.8-10.9c-2.8-2.3-3.1-9.2-2.9-14.5c0.2-5.3-2-10.7-2-10.7s4.8,5.5,4.9,5.9c0.2,0.4,1.6,10.4,1.6,10.4s6.6,4.3,7,4.7
						c0.4,0.4,7.8,3.2,7.8,3.2s1.6-4.7,1.9-6.8c0.3-2.1-1.8-3.6-1.8-3.6l-18.9-13.3c0,0-1.1-3.2-6-6.1c-2.3-1.4-5.6-5.5-8.5-9.5
						c-0.3-1.5-0.5-2.5-0.5-2.5s-5.8-7.1-6.1-15.9c4.7,8.3,13.4,7.2,22.5,6.3c7.5-0.7,11.8-5.2,11.8-5.2s8.3-9.8,9.7-11.7
						c1.4-1.9-0.1-4.8-0.1-4.8l-5-10.6l6.8-2.2C244.8,177,269.5,192.6,285.3,203.5z"/>
				</g>
			</g>
			<g>
				<g>
					<path class="st22" d="M256.9,214.3l-5.2-9c0,0-0.7,12-9.4,12c-8.7,0-19.1,0-19.1,0l-0.4,6.3l-2.1,12.3c0,0,1.8,4.4,1.7,4.5
						c-0.1,0.1,1.1-1.3,1.1-1.3l21.6,11.7c0,0,1.9,0.8,1.8,3.6c0,2.8,8.9-3.4,8.9-3.4L256.9,214.3z"/>
				</g>
			</g>
			<g>
				<g>
					<path class="st17" d="M280.9,274.7c-0.1,1.5-0.2,2.3-0.2,2.3s0.8,3.8-0.3,7.6l6.7,31.7l-86.5-4.4c0,0,6.8-18.5,8.1-24.4
						c0.4-1.9,0.7-6.9,0.8-12.9H280.9z"/>
				</g>
			</g>
			<g>
				<g>
					<path class="st15" d="M280.8,276.6l0,0.4c0,0,0.8,3.8-0.3,7.6l6.7,31.7l-28.3-1.4c-8.2-5.9-11.4-14-11.4-14
						c-17.1,2.2-35.7-5.3-40.4-7.4c0.8-2.4,1.4-4.5,1.7-5.9c0.1-0.5,0.2-1.1,0.3-1.9c7.5-9.9,25.6-10.4,40.1-11.1h26.1
						C277.1,275.3,279,275.9,280.8,276.6z"/>
				</g>
			</g>
			<g>
				<g>
					<path class="st18" d="M205.5,287c0,0-0.8-0.6-1.2-2.5c-0.3-1.8-0.5-10.4-0.3-12.3c0.1-1.9,1.9-3.4,3.7-3.4
						c1.9,0,21.1,4.9,39.6-3.5l6.2,28.6C253.6,294,230.7,302.7,205.5,287z"/>
				</g>
			</g>
			<g>
				<g>
					<path class="st15" d="M246.1,274.9l-8.8,2c0,0-2,0.3-2,2.4c0,2.1,0.5,3.9,3.7,5.9c3.2,1.9,13.2,7,13.2,7L246.1,274.9z"/>
				</g>
			</g>
			<g>
				<g>
					<path class="st23" d="M199.1,92.3c0,0-3-2.5-4.8-2.1c-1.8,0.4-3.5,4.5-2.9,7.4c0.6,2.9,5.3,12.5,10.7,7.9
						C207.6,101,199.1,92.3,199.1,92.3z"/>
				</g>
			</g>
			<g>
				<g>
					<path class="st24" d="M201.8,95.3c0.2,0.2,0.3,0.5,0.2,0.7c-0.1,0.2-0.3,0.3-0.5,0.2v0c0,0-0.4,9.1-1.9,7.9
						c-1.5-1.2-3.1-2.4-3.9-4.6c-0.9-2.2,0.9-4.5,0.1-5c-0.8-0.5-1.4,0.5-1.5,0.6l0,0l0,0l0,0c-0.5,0.8-0.6,1.8-0.6,1.8
						c0,0.3-0.3,0.4-0.5,0.3c-0.2-0.1-0.4-0.4-0.4-0.7c0,0,0.6-3.5,3.1-3.7C198.2,92.5,201.7,95.3,201.8,95.3z"/>
				</g>
			</g>
			<g>
				<g>
					<path class="st23" d="M221.5,49.2c37.1-3.8,32.8,26,32.2,49.6c-0.2,8.4-2.1,14-8.2,19c-17.4,14.6-17.8,15.7-37.6,2
						c0,0-6.1-5.1-8.6-14.8C193.3,82.3,184.5,54.1,221.5,49.2z"/>
				</g>
			</g>
			<g>
				<g>
					<path class="st16" d="M194.6,85c-2-12.8-0.7-24.7,11.5-31.3c2.6-0.2,4.8-0.3,6-0.5c4.5-0.7,34.6,5.4,38.5,10.1
						c4,4.7,1.6,14.4-2.5,18.2c-4.1,3.7-10.7,1.9-14.6-2c-3.9-3.9-8-5.2-8-5.2c-7.7-0.7-19.3-4.7-19.3-4.7
						C204.6,79.7,198.1,83.6,194.6,85z"/>
				</g>
			</g>
			<g>
				<g>
					<path class="st15" d="M194.4,83.2c0-0.3-0.1-0.6-0.1-0.9c11.5-4.7,10.2-17.5,10.2-17.5c0-0.3,0.2-0.5,0.4-0.5
						c0.2,0,0.5,0.2,0.5,0.4C205.4,64.7,206.7,78.4,194.4,83.2L194.4,83.2z M228.7,73.2c-0.2-0.2-0.2-0.4-0.1-0.6
						c0.2-0.2,0.4-0.2,0.6-0.1c0,0,2.7,2,6.6,6.5v0c0.2,0.2,0.4,0.4,0.6,0.6c1.8,1.8,3.9,2.8,5.9,3c1.9,0.2,3.7-0.2,5-1.4v0
						c0.1-0.1,0.2-0.1,0.2-0.2c0.2-0.2,0.5-0.2,0.6,0c0.2,0.2,0.2,0.5,0,0.6c-0.1,0.1-0.2,0.2-0.3,0.3h0l0,0
						c-1.5,1.3-3.5,1.8-5.7,1.6c-2.2-0.3-4.4-1.3-6.4-3.3c-0.2-0.2-0.4-0.4-0.6-0.6v0l0,0C231.3,75.1,228.7,73.2,228.7,73.2z"/>
				</g>
			</g>
			<g>
				<g>
					<g>
						<path class="st16" d="M232.6,88.3l-3.9,0.7c0,0-0.7-3.9,2.6-5.7c3.3-1.8,5.9-0.9,7.3,0.6c1.4,1.5-0.2,3.5-2.7,4.2
							C233.3,88.8,232.6,88.3,232.6,88.3z"/>
					</g>
				</g>
				<g>
					<g>
						<path class="st16" d="M204,91.7c0,0-2.2,0.2-3.1-1.9c-1-2.1,1.2-4.1,3.1-4.8c1.9-0.6,7.3-0.5,6.3,6.2L204,91.7z"/>
					</g>
				</g>
				<g>
					<g>
						<path class="st15" d="M228.9,82.9c0,0-0.9,0.4-1.8,0.2c-0.9-0.2-1.8-1.3-1.8-1.6c0-0.3,0.5,0.1,2-0.8
							c1.5-0.9,7.1-3.4,11.6-0.5c0.8,0.5,0.3,1.1-0.6,1C237.5,81.1,233.5,80.1,228.9,82.9z"/>
					</g>
				</g>
				<g>
					<g>
						<path class="st15" d="M208.5,81.4c0,0,0.9,0,1.6-0.5c0.7-0.5,1-2,0.9-2.3c-0.1-0.3-0.4,0.3-2-0.1c-1.6-0.3-7.3-0.7-10.2,4
							c-0.5,0.8,0.1,1.2,0.9,0.7C200.4,82.9,203.4,80.4,208.5,81.4z"/>
					</g>
				</g>
				<g>
					<g>
						<path class="st25" d="M217.6,99.1c-0.4-0.3-0.2-1.6,0-2.4c0.2-0.7,0.3-1,0.5-1c0.2-0.1,0.4,0.2,0.7,0.7c0.5,0.8,1,1.9,0.8,2.3
							C219.3,99.3,218,99.5,217.6,99.1z"/>
					</g>
				</g>
				<g>
					<g>
						<path class="st24" d="M216.7,91.9c0.1-0.3,0.3-0.5,0.6-0.4c0.3,0.1,0.5,0.3,0.4,0.6c-0.2,1-1.3,6.6-1.1,7.1
							c0.1,0.3,0.8,0.7,1.1,0.8c0.5,0.2,1.1,0.4,1.6,0.4c0.3,0,0.6,0.2,0.6,0.5c0,0.3-0.2,0.6-0.5,0.6c-0.7,0-1.5-0.2-2.1-0.5
							c-0.6-0.3-1.4-0.8-1.6-1.4C215.3,98.9,216.4,93,216.7,91.9z"/>
					</g>
				</g>
				<g>
					<g>
						<path class="st24" d="M216.7,111c-0.3,0-0.6-0.3-0.5-0.7c0-0.3,0.3-0.6,0.7-0.6c0,0,1.8,0.2,4.1-0.3c0.3-0.1,0.7,0.1,0.7,0.5
							c0.1,0.3-0.1,0.7-0.5,0.7C218.7,111.2,216.7,111,216.7,111z"/>
					</g>
				</g>
				<g>
					<g>
						<path class="st24" d="M213.7,107.6c-0.3-0.1-0.6-0.4-0.5-0.7c0.1-0.3,0.4-0.6,0.7-0.5c0,0,9.7,1.8,13-3.4
							c0.2-0.3,0.6-0.4,0.9-0.2c0.3,0.2,0.4,0.6,0.2,0.9C224.2,109.6,213.7,107.6,213.7,107.6z"/>
					</g>
				</g>
				<g>
					<g>
						<path class="st15" d="M206.6,88.2L206.6,88.2c-0.7,0.1-1.3,0.4-1.8,0.8c-0.4-0.2-0.9-0.6-1.1-1.2c-0.1-0.3-0.4-0.5-0.7-0.4
							c-0.3,0.1-0.5,0.4-0.4,0.7c0.2,0.8,0.6,1.3,1.1,1.7c-0.3,0-0.6-0.1-0.8-0.3c-0.2-0.2-0.6-0.3-0.8-0.1
							c-0.2,0.2-0.3,0.6-0.1,0.8c0.5,0.6,1.1,0.8,1.7,0.8c-0.1,0.3-0.1,0.7,0,1l0.4,3.4c0.2,1.9,1.9,3.2,3.8,3h0
							c1.9-0.2,3.2-1.9,3-3.8l-0.4-3.4C210.2,89.3,208.4,88,206.6,88.2z"/>
					</g>
				</g>
				<g>
					<g>
						<path class="st15" d="M231.9,85.4L231.9,85.4c0.7-0.1,1.5,0,2.1,0.4c0.4-0.3,0.8-0.8,0.8-1.5c0-0.3,0.3-0.6,0.6-0.6
							c0.3,0,0.6,0.3,0.6,0.6c0,0.9-0.3,1.5-0.7,2c0.3-0.1,0.5-0.2,0.7-0.5c0.2-0.3,0.5-0.4,0.8-0.3c0.3,0.2,0.4,0.5,0.3,0.8
							c-0.4,0.7-0.9,1.1-1.5,1.2c0.1,0.3,0.3,0.7,0.3,1l0.5,3.6c0.3,2-1.1,3.8-3.1,4h0c-2,0.3-3.8-1.1-4-3.1l-0.5-3.6
							C228.5,87.4,229.9,85.6,231.9,85.4z"/>
					</g>
				</g>
			</g>
			<g>
				<g>
					<path class="st23" d="M252.8,85.7c0,0,0.6-0.7,1.3-1.3c0.8-0.7,1.9-1.3,2.9-1.3c1.8,0,4.5,3.5,4.6,6.5
						c0.1,2.9-2.1,13.4-8.5,10.3C246.8,96.8,252.8,85.7,252.8,85.7z"/>
				</g>
			</g>
			<g>
				<g>
					<path class="st24" d="M251,89.9c-0.2,0.2-0.2,0.6,0,0.8c0.1,0.2,0.4,0.2,0.6,0l2.5-2.2c1.8,1.9,1.7,6.2,0.3,7.8
						c-0.7,0.8,0.7,2.1,1,1.6c1.2-1.6,2.4-3.1,2.7-5.4c0.3-2.3-2-4.2-1.3-4.9c0.6-0.6,1.5,0.1,1.6,0.2l0,0v0h0
						c0.7,0.7,1.1,1.6,1.1,1.6c0.1,0.3,0.4,0.3,0.6,0.1c0.2-0.2,0.3-0.5,0.2-0.8c0,0-1.4-3.3-3.9-2.9C253.8,86.3,251,89.9,251,89.9z
						"/>
				</g>
			</g>
			<g>
				<g>
					<path class="st11" d="M257.4,115.7L232,139.4l6.1,9.4c0,0,0.7,0.5,1.7-0.2c1-0.7,21.9-30,21.9-30s0.2-0.6-0.2-0.9
						c-0.4-0.3-3.6-2.2-3.6-2.2S257.7,115.4,257.4,115.7z"/>
				</g>
			</g>
			<g>
				<g>
					<path class="st15" d="M229.3,262.3c0,0,3,1.2,7.9,6.6c4.9,5.4,11.1,13.4,14.1,14.9c3,1.5,0.4-10.1,0.7-10.3
						c0.2-0.2-7.1-8-10.5-10.3c-3.4-2.3-14.8-4.9-17.4-10.1C224.1,253,223.5,258,229.3,262.3z"/>
				</g>
			</g>
			<g>
				<g>
					<path class="st18" d="M216.3,236.5c0,0,3.8,5.8,4.6,8.2c0.8,2.5,1.1,14.2,8.4,17.5c0,0-4.7-3-4.6-9.7
						c0.1-6.7,0.1-11.2-0.8-12.7c-0.9-1.5-2.5-4.8-2.5-4.8L216.3,236.5z"/>
				</g>
			</g>
			<g>
				<g>
					<path class="st17" d="M212.1,228c0,0-1.4,1.1-1.3,2.4c0.1,1.3,3.1,4.4,4.1,6.1c1.1,1.8,4,2.1,7-0.8
						C225,232.9,212.1,228,212.1,228z"/>
				</g>
			</g>
			<g>
				<g>
					<path class="st17" d="M268.4,294.9L261,302c0,0-13.2-11.7-16.2-24c-3.1-12.3,7.9-42.7,7.7-56.4c-0.1-13.7-2.5-32.5-2.5-32.5
						l21.9,12L268.4,294.9z"/>
				</g>
			</g>
			<g>
				<g>
					<path class="st18" d="M243.9,147.7c0,0-3.9-1.4-10.1,6.4c-6.2,7.7-8.7,34.6-10.5,45.9c-1.8,11.3-14.4-5.7-14.4-5.7
						s10.6-27.5,18.1-39.4c7.5-11.9,15.5-12.3,15.5-12.3L243.9,147.7z"/>
				</g>
			</g>
			<g>
				<g>
					<path class="st17" d="M243.9,147.7c0,0-3.9-1.4-10.1,6.4c-6.2,7.7-8.7,34.6-10.5,45.9c-0.7,4.3-3,4.5-5.5,3.1
						c1.6-6.7,6.9-28.5,9-35.3c2.5-8.2,4.9-16.8,11.5-19.9c2.4-1.2,4.1-1.5,5.2-1.4L243.9,147.7z"/>
				</g>
			</g>
			<g>
				<g>
					<path class="st17" d="M313,312.1c0,0-7.9,2-23.4,1.4c-15.5-0.6-27.7-9.3-28.6-11.5c-0.9-2.2-4.8-24.6-0.8-38.2
						c4-13.5-0.5-55.7-1.7-60.9c-1.2-5.2,20.8-44.2,20.8-44.2l34.6,7.7L313,312.1z"/>
				</g>
			</g>
			<g>
				<g>
					<path class="st15" d="M342.4,180.3c0,0-0.7-13-2.9-16.7c-2.2-3.7-13.2-6.6-19.9-5.8c-6.7,0.8-19.6,11.3-27.9,36.8
						c-8.3,25.4-20,71.1-20,81.9c0,10.8,5.1,21.9,12.5,29c7.4,7.1,23.6,7.9,29.2,6.6c5.5-1.3,12.4-5.9,17-12
						c4.6-6.1,7.9-19.2,10.7-30.9C344,257.3,342.4,180.3,342.4,180.3z"/>
				</g>
			</g>
			<g>
				<g>
					<path class="st18" d="M336.6,268.7c0-1.1,0.9-1.9,2-1.9c1.1,0,1.9,0.9,1.9,2c0,0,0,1.4-0.2,3.6c-2.6,10.8-5.7,22.1-9.9,27.5
						c-1.3,1.8-2.9,3.4-4.5,4.9C336.2,292.3,336.6,268.8,336.6,268.7L336.6,268.7z M302,313.4c-2.5,0.1-5.4,0.2-8.7,0.1
						c20.2-5.7,20.8-42.9,20.8-43.1c0-1.1,0.9-1.9,2-1.9c1.1,0,1.9,0.9,1.9,2C318,270.7,317.5,301.4,302,313.4z"/>
				</g>
			</g>
			<g>
				<g>
					<path class="st17" d="M338.1,268.8c0-0.3,0.2-0.5,0.5-0.5c0.3,0,0.5,0.2,0.5,0.5c0,0.1-0.1,7.2-2,15.9
						c-1.5,5.1-3.2,9.8-5.2,13.2C337.8,284.9,338.1,268.9,338.1,268.8L338.1,268.8z M299.3,313.5c-0.7,0-1.3,0-2.1,0
						c17.7-9,18.3-42.9,18.3-43c0-0.3,0.2-0.5,0.5-0.5c0.3,0,0.5,0.2,0.5,0.5C316.5,270.7,316,303.1,299.3,313.5z"/>
				</g>
			</g>
			<g>
				<g>
					<path class="st26" d="M342.4,180.3c0,0-4.6-3.1-8.9-3.2c-4.3-0.1-15.5,0.9-20.2,4.1c-4.8,3.2-6.8,21.3-8.6,33.7
						c-1.8,12.4-4.1,34.7,0.5,44.5c4.6,9.8,6.8,18.7,12.6,19.7c5.8,1,18.6,2.2,23.7-5.8C346.4,265.3,356.8,223.3,342.4,180.3z"/>
				</g>
			</g>
			<g>
				<g>
					<path class="st18" d="M329.5,279.6c1.4-0.2,2.9-0.4,4.3-0.9c2-7.2,3.9-15.1,5.5-23.5c2-11.2,3.3-23.2,2.7-35.5
						c-1-24.6-7.5-40.9-7.5-41c-0.4-1-1.5-1.5-2.5-1.1c-1,0.4-1.5,1.5-1.1,2.5c0,0,6.2,15.8,7.2,39.7c0.5,12-0.7,23.7-2.7,34.6
						C333.8,263.5,331.7,271.9,329.5,279.6z"/>
				</g>
			</g>
			<g>
				<g>
					<path class="st15" d="M330.6,279.4c0.7-0.1,1.4-0.3,2.1-0.4c2-7.3,4-15.4,5.6-24c2-11.1,3.2-23.1,2.7-35.3
						c-1-24.4-7.4-40.6-7.4-40.7c-0.2-0.5-0.8-0.7-1.3-0.6c-0.5,0.2-0.7,0.8-0.6,1.3c0,0,6.3,16,7.3,40c0.5,12-0.7,23.8-2.7,34.8
						C334.8,263.5,332.7,271.9,330.6,279.4z"/>
				</g>
			</g>
			<g>
				<g>
					<path class="st18" d="M261,302L261,302c-0.9-2.2-4.8-24.7-0.8-38.2c4-13.5-0.5-55.7-1.7-60.9c-1-4.3,14.3-32.4,19.3-41.4
						c10,0.5,18.9,1.1,18.9,1.1s-13.6,24-12.6,34.2c1,10.3,13.2,69.4,13.9,78.4c0.8,9-17.8,24.5-22.7,26.8
						C271.6,303.8,265.5,304.6,261,302z"/>
				</g>
			</g>
			<g>
				<g>
					<path class="st18" d="M342.4,180.3c0,0-4.6-3.1-8.9-3.2c-4.3-0.1-15.5,0.9-20.2,4.1c-4.8,3.2-6.8,21.3-8.6,33.7
						c-1.8,12.4-4.1,34.7,0.5,44.5c1.6,3.3,2.9,6.5,4.1,9.4c-0.1-10.3,5.4-73.4,6.8-78.3c1.4-4.9,8-9,15.5-9.3
						c7.4-0.3,12,2.8,12.1,2.8C343.2,182.7,342.8,181.5,342.4,180.3z"/>
				</g>
			</g>
			<g>
				<g>
					<path class="st17" d="M337.2,150.8c0.5-0.1,4.4,15.2,4.5,15.6c0.1,0.5,0.3,1.5-0.8,1.9c-1.1,0.5-4.7-6.7-13.3-8.2
						c-8.6-1.5-15.1,4.6-18.9,10.4c0,0-2.7,2.3-5.6,1.7c-2.9-0.6-15.1-6.3-24.1-6.1c-9,0.1-9.1-18.5-4.8-19.3
						C278.6,145.9,337.2,150.8,337.2,150.8z"/>
				</g>
			</g>
			<g>
				<g>
					<path class="st26" d="M304.2,170c0-0.3,0.3-0.5,0.5-0.4c0.3,0,0.5,0.3,0.4,0.5c0,0-0.5,4.2-1.1,8.9c0,0.3-0.3,0.5-0.5,0.4
						c-0.3,0-0.5-0.3-0.4-0.5C303.7,174.1,304.2,170,304.2,170z"/>
				</g>
			</g>
			<g>
				<g>
					<path class="st8" d="M301.7,178.7c0.1-1.1,1-1.9,2.1-1.8c1.1,0.1,1.9,1,1.8,2.1c0,0-0.7,13.3-4.6,28.7c-0.3,1-1.3,1.7-2.4,1.4
						c-1-0.3-1.7-1.3-1.4-2.4C301,191.6,301.7,178.8,301.7,178.7z"/>
				</g>
			</g>
			<g>
				<g>
					<path class="st11" d="M191.2,59c0,0,3.3-1.2,3.9-5.2c0.6-4,5.5-25.8,5.5-25.8s1.4-4.5,5.2-5.3c3.9-0.8,24.4-2,28.8-1.5
						c4.4,0.5,6.9,0.6,11.7,3.9c4.7,3.2,9.8,7.3,9.8,7.3s2,1.5,2.6,4.9c0.6,3.4,3.7,24.5,3.7,24.5L191.2,59z"/>
				</g>
			</g>
			<g>
				<g>
					<path class="st10" d="M241.6,22.4c1.4,0.5,2.9,1.3,4.7,2.6c4.7,3.2,9.8,7.3,9.8,7.3s2,1.5,2.6,4.9c0.6,3.4,3.7,24.5,3.7,24.5
						l-20.3-0.8c0.1-4.3,0.8-28.9,1.3-33.2C243.7,24.9,242.6,23.3,241.6,22.4z"/>
				</g>
			</g>
			<g>
				<g>
					<path class="st27" d="M191.2,59c0,0,3.3-1.2,3.9-5.2c0.1-0.9,0.5-2.7,0.9-4.9c0,0,34.9-4,65.3,5.5c0.6,4.1,1.1,7.3,1.1,7.3
						L191.2,59z"/>
				</g>
			</g>
			<g>
				<g>
					<path class="st28" d="M242.4,50.1c6.2,1,12.6,2.3,18.9,4.3c0.6,4.1,1.1,7.3,1.1,7.3l-20.3-0.8
						C242.1,59.4,242.3,55.1,242.4,50.1z"/>
				</g>
			</g>
			<g>
				<g>
					<path class="st17" d="M196.9,95.8c0,0,0.5-3.2-0.4-5.1c0,0,1.1-7.7-0.2-10.6c0,0,11.8-9.1,9.2-16.7c-2.6-7.6-13.1-2.1-13.1-2.1
						l-1,22.1l2.2,7.3C193.5,90.7,195.7,90.6,196.9,95.8z"/>
				</g>
			</g>
			<g>
				<g>
					<path class="st15" d="M196.9,95.8c0,0,0.5-3.2-0.4-5.1c0,0,0.4-2.6,0.4-5.3c-1.7,1.1-3.2,1.6-4.5,1.7l1.1,3.7
						C193.5,90.7,195.7,90.6,196.9,95.8z"/>
				</g>
			</g>
			<g>
				<g>
					<path class="st15" d="M199.6,77.1c3.3-3.3,7.5-8.8,5.8-13.6c-2.6-7.6-13.1-2.1-13.1-2.1l-0.2,3.9c0.8,0.5,1.6,1.2,2.1,2.1
						c2.5,4.7-1,9-1,9s-0.2,0.5,0.2,0.6C193.6,77,196,78.3,199.6,77.1z"/>
				</g>
			</g>
			<g>
				<g>
					<path class="st15" d="M216.9,66.8c9.5,3.4,19.3,16,29,11.5c0,0-0.2,8.9,3.8,13.2c0,0,1.9-6.8,6.4-8.2c0,0,2.5-3.4,2.5-4.9
						c0-1.5-0.4-6.9-2.6-7.9C253.9,69.4,216.9,66.8,216.9,66.8z"/>
				</g>
			</g>
			<g>
				<g>
					<path class="st17" d="M254.3,84.2c0.6-0.4,1.2-0.7,1.8-0.9c0,0,2.5-3.4,2.5-4.9c0-0.4,0-0.9-0.1-1.6c-0.6,0.1-1.2,0.3-1.8,0.7
						C254.6,79,254.2,82.5,254.3,84.2z"/>
				</g>
			</g>
			<g>
				<g>
					<path class="st11" d="M169.7,61.5c0,0,14.6-3.1,31.9,3.6c17.3,6.7,45.3,9,59.1,6.6c13.8-2.5,17.6-4.2,22.8-2
						C266.1,52.8,190.5,55.3,169.7,61.5z"/>
				</g>
			</g>
			<g>
				<g>
					<path class="st20" d="M264.7,139.3c0,0-11.7-5.7-20.9,1.4c-9.2,7.1-10.9,21.3-9.6,27.3c1.2,6,8.8,18.7,13,21.3
						c0,0,28.3,41.7,31.4,46.6c3.1,4.9,12.6,7.3,22.4,11.4c9.8,4.1,16.7-7.9,15.1-14.8c-1.6-6.9-25-48.5-30.4-56.1
						C280.2,168.8,281.3,149.2,264.7,139.3z"/>
				</g>
			</g>
			<g>
				<g>
					<path class="st21" d="M243,141.3c-2.6,2.2-4.5,4.9-5.9,7.8c1.1,6.6,4.6,14.9,15.7,14.9c18.5,0,11.1,0,15,0
						c4,0,7.8,2.3,11.1,5.2c2,1.8,4,3.4,5.1,4.3c-3.3-7.5-4.3-20.7-13.7-29.9C263.2,142.5,250.6,141.7,243,141.3z"/>
				</g>
			</g>
			<g>
				<g>
					<path class="st21" d="M304.1,248.1c6.8,0.6,11.6-6.4,12.1-12.4C315.6,238.6,310.8,243.9,304.1,248.1z"/>
				</g>
			</g>
			<g>
				<g>
					<path class="st19" d="M254.3,251.2l4.1-19.9L227.3,220l-12.1,7.4l-1,5.6c0,0,2.5,1.3,5.2,2.7
						C222.2,237,254.3,251.2,254.3,251.2z"/>
				</g>
			</g>
			<g>
				<g>
					<path class="st16" d="M254.3,251.2l4.1-19.9l-3.6-1.3c-2.5,2.9-8.2,10.3-8.1,17.8C251.1,249.8,254.3,251.2,254.3,251.2
						L254.3,251.2z M232.3,221.8l-5-1.8c0,0-1,3.4-3,5.6C224.4,225.5,229.1,225.9,232.3,221.8z"/>
				</g>
			</g>
			<g>
				<g>
					<path class="st8" d="M257.9,229.9c0,0-2.6,2.4-4,5.7c-1.4,3.3-2.6,11.3-2.2,15.7c0.4,4.3,2.7,11,4.1,12.7
						c1.4,1.8,4.1,1.5,4.1,1.5s2.7,3,3.9,3c1.2,0,12.5-1.5,13.7-1.6c1.2-0.1,1.5-3.8,1.6-5c0,0-3.3-6.6-4.5-11.5
						c-1.2-5,3.9-19.4,3.9-19.4s-0.6-0.9-1.9-1.6c-1.3-0.7-9.7,1.7-9.7,1.7S261,227.5,257.9,229.9z"/>
				</g>
			</g>
			<g>
				<g>
					<path class="st20" d="M278.4,230.9c0,0,4.7-0.4,8.1,1.8c3.4,2.2,9.7,7,15.9,10.5c6.2,3.5,11.4-0.5,11.4-0.5s-7.2,12.6-14,16.6
						c-6.8,4.1-20.8,2.6-20.8,2.6S264.2,246.6,278.4,230.9z"/>
				</g>
			</g>
			<g>
				<g>
					<path class="st21" d="M309.1,244.5c2.8-0.4,4.7-1.8,4.7-1.8s-7.2,12.6-14,16.6c-6.8,4.1-20.8,2.6-20.8,2.6s-6.3-6.5-6.7-15.4
						c0.1,0.2,4.4,9.2,17.5,7.2C297.2,252.6,304.2,248.6,309.1,244.5z"/>
				</g>
			</g>
			<g>
				<g>
					<path class="st19" d="M207.6,196.9c0,0,0-1,0.5-1.7c0.5-0.7,3.6-3.1,4.6-3.5c1-0.4,2.8-0.2,3.9,0.7c1,0.9,3.8,3.8,4.2,4.2
						c0.4,0.4,3.9,3.6,4.7,5.5c0.9,2,1.8,17.9,1.8,17.9l-13.1,13c0,0-6.9-6.4-8-15.2c0,0-3.4-3.2-4.7-4.5c-1.3-1.3-0.3-4.5,0.6-5.6
						c0,0-0.2-3.9,2.4-4.9C204.5,202.7,204,198.4,207.6,196.9z"/>
				</g>
			</g>
			<g>
				<g>
					<path class="st29" d="M206.2,218.3c-0.2,0-0.3-0.1-0.4-0.2c-0.1-0.1-0.9-1.7-1.2-3.3l-0.7,0c-0.3,0-0.5-0.2-0.5-0.4
						c0-0.2,0.2-0.5,0.4-0.5l0.6,0c0-0.7,0.1-1.3,0.4-1.9c0.1-0.2,0.4-0.3,0.6-0.2c0.2,0.1,0.3,0.4,0.2,0.6
						c-0.8,1.5,0.4,4.3,0.9,5.2c0.1,0.2,0,0.5-0.2,0.6C206.4,218.2,206.3,218.3,206.2,218.3z M202.2,208.1c-0.1,0-0.3-0.1-0.4-0.2
						c-0.1-0.2-0.1-0.5,0.1-0.6c0,0,1.2-0.8,2.7-0.8c1.4,0,4.6,0,4.6,0v0.9c0,0-3.2,0-4.6,0c-1.3-0.1-2.1,0.6-2.1,0.6
						C202.3,208,202.2,208.1,202.2,208.1z M204.5,203.2c-0.2,0-0.4-0.1-0.4-0.3c-0.1-0.2,0.1-0.5,0.3-0.6c0,0,1.2-0.4,3.4-0.3
						c2.1,0,4.9,0.2,4.9,0.2c0.2,0,0.4,0.2,0.4,0.5c0,0.2-0.2,0.4-0.5,0.4c0,0-2.8-0.2-4.9-0.2c-2,0-3.1,0.3-3.1,0.3
						C204.6,203.2,204.6,203.2,204.5,203.2z M215.6,197.7c0,0-1.8-0.1-3.5-0.3c0,0,0,0,0,0c-1.2-0.1-2.3-0.2-2.7-0.2
						c-0.9-0.1-1.7,0.1-1.7,0.1c-0.2,0.1-0.5-0.1-0.6-0.3c-0.1-0.2,0.1-0.5,0.3-0.6c0,0,0.9-0.3,2-0.2c0.3,0,1,0.1,1.9,0.2l-0.1-0.3
						c-0.1-0.2,0-0.5,0.2-0.6c0.2-0.1,0.5,0,0.6,0.2l0.4,0.8c1.6,0.1,3.3,0.3,3.3,0.3L215.6,197.7z"/>
				</g>
			</g>
			<g>
				<g>
					<path class="st19" d="M162.2,198.7c0,0-2.1,1.1-4.3-0.3c-2.2-1.3-2.9-3.8,0.5-4.4c0,0,2.3-1.2,3.5-1.2c1.2,0,6.4,1.1,8,1.9
						c1.6,0.8,3,3.9,5.5,6.1c2.5,2.2,8.5,6.9,4.8,11.9c0,0,2.6,7.2-2.5,9.5c0,0-1.7-0.5-3-0.2c-1.3,0.3-9.8,1.7-11.3,1.7
						c-1.5-0.1-2.7-1.1-3-2.8l-6.7-4.1c0,0-1-0.8-1-2.3c0,0-2.7-1.2-3.5-1.8c-0.8-0.6-4.2-5.8-4.2-5.8s-1.2-1.9,0.3-2.5
						c1.5-0.5,4,2,4,2l2.6,1c0,0,0.1-0.9,1.5-0.9c1.3,0,2.3,2.4,2.3,2.4l5.6,2.1l2.4-0.1l0,0c0,0,0.5-0.8,1.5-1
						c0.8-0.2,1.5,0.1,1.9,0.8l1.3-0.1l0.9-2.4l-11.2-4.3l5.7-1.8l0.5-1.7C164.3,200.6,163,199.4,162.2,198.7z"/>
				</g>
			</g>
			<g>
				<g>
					<path class="st29" d="M166.7,222.4C166.7,222.4,166.6,222.4,166.7,222.4c-0.3-0.1-0.5-0.3-0.4-0.5c0.6-3.3-1.1-4.1-1.1-4.1
						c-0.2-0.1-0.3-0.4-0.2-0.6c0.1-0.2,0.4-0.3,0.6-0.2c0,0,0,0,0,0c0.4-1.2,1.3-4.1,1.4-4.8c0.1-0.7-0.2-1.2-0.2-1.2
						c-0.1-0.2-0.1-0.5,0.1-0.6c0.2-0.1,0.5-0.1,0.6,0.1c0,0,0.5,0.8,0.3,1.9c-0.2,0.8-1.3,4.3-1.5,5.1c0.6,0.7,1.3,2,0.9,4.5
						C167.1,222.2,166.9,222.4,166.7,222.4z M160.4,221.3c-0.2,0-0.4-0.2-0.4-0.4c0-0.1,0-1.5,0.4-3c0.5-1.4,2.9-7,3-7.2
						c0.1-0.2,0.4-0.3,0.6-0.2c0.2,0.1,0.3,0.4,0.2,0.6c0,0.1-2.5,5.8-2.9,7.1c-0.4,1.3-0.4,2.6-0.4,2.6
						C160.9,221.1,160.7,221.3,160.4,221.3C160.4,221.3,160.4,221.3,160.4,221.3z M156.9,215.5c-0.2,0-0.4-0.1-0.4-0.4l-1.2-6.1
						c0-0.2,0.1-0.5,0.4-0.5c0.2,0,0.5,0.1,0.5,0.4l0.6,3.1c0.8,0.2,2.5,0.8,3.1,2.8c0.1,0.2-0.1,0.5-0.3,0.6
						c-0.2,0.1-0.5-0.1-0.6-0.3c-0.4-1.3-1.4-1.9-2.1-2.1l0.4,2.1C157.4,215.2,157.2,215.4,156.9,215.5
						C157,215.5,156.9,215.5,156.9,215.5z M152.8,215c-0.2,0-0.4-0.2-0.4-0.4l-0.4-3.7l-2.9-4.1c-0.1-0.2-0.1-0.5,0.1-0.6
						c0.2-0.1,0.5-0.1,0.6,0.1l1.9,2.7l-0.2-1.5c0-0.2,0.1-0.5,0.4-0.5c0.3,0,0.5,0.1,0.5,0.4l0.4,3.2c0,0,0,0,0,0l0.4,3.8
						C153.2,214.7,153.1,214.9,152.8,215C152.8,215,152.8,215,152.8,215z M180.3,213.1c-0.1,0-0.3-0.1-0.4-0.2
						c-0.1-0.2-2.8-3.7-8.9-1.9c-0.2,0.1-0.5-0.1-0.6-0.3c-0.1-0.2,0.1-0.5,0.3-0.6c6.7-2.1,9.8,2,9.9,2.2c0.1,0.2,0.1,0.5-0.1,0.6
						C180.4,213.1,180.3,213.1,180.3,213.1z M163.8,202.7c-0.2,0-0.4-0.1-0.4-0.3c-0.1-0.2,0-0.5,0.3-0.6c0,0,2.2-0.8,4.4-2.5
						c0.2-0.2,0.5-0.1,0.6,0.1c0.1,0.2,0.1,0.5-0.1,0.6c-2.3,1.8-4.6,2.6-4.7,2.6C163.9,202.7,163.9,202.7,163.8,202.7z M164.3,201
						c-0.2,0-0.4-0.1-0.4-0.3c-0.1-0.2,0.1-0.5,0.3-0.6c0.2-0.1,0.7-0.3,1.1-0.5c0.2-0.2,0.5-0.1,0.6,0c0.2,0.2,0.1,0.5,0,0.6
						c-0.5,0.5-1.4,0.7-1.4,0.7C164.4,201,164.4,201,164.3,201z M162.2,199.2c-0.2,0-0.3-0.1-0.4-0.2c-0.1-0.2-0.1-0.5,0.1-0.6
						c0.1,0,0.9-0.6,0.9-2.6c0-0.2,0.2-0.4,0.4-0.5c0.2,0,0.4,0.2,0.5,0.4c0,2.5-1.3,3.3-1.3,3.4
						C162.4,199.2,162.3,199.2,162.2,199.2z"/>
				</g>
			</g>
			<g>
				<g>
					<path class="st15" d="M191.4,211.9L191.4,211.9c-0.9-0.3-1.8,0.2-2.8,1.3c0.5,0.4,1,0.7,1.5,1.1c0.3-0.4,0.5-0.6,0.5-0.6
						c0,0,0,0.4,0,0.9c0,0.2,0,0.4-0.1,0.7c-0.1,1.4-0.6,3.2-1.2,5.2l-0.5,1.3c-0.9,2.3-1.9,4.3-2.8,5.7c-0.2,0.3-0.3,0.5-0.5,0.7
						c-0.4,0.6-0.8,1-0.9,1c0-0.1,0-0.6,0.1-1.6c0,0,0,0,0,0c-0.6-0.5-1.2-1-1.8-1.5l0,0c-0.1,0.5-0.1,0.9-0.2,1.3
						c-0.2,1.9,0.2,3.2,1.2,3.6l0.1,0c0.9,0.3,1.9-0.3,2.9-1.6c0.2-0.3,0.4-0.5,0.6-0.8c1-1.5,2.1-3.7,3.1-6.1l0.5-1.3
						c0.7-2,1.1-3.8,1.3-5.3c0-0.1,0-0.3,0-0.4C192.8,213.6,192.4,212.3,191.4,211.9z"/>
				</g>
			</g>
			<g>
				<g>
					<path class="st30" d="M290.5,129c0,14.2-8.9,26.1-20.8,28.9c0,0.4,0,0.6,0,0.6h-4.4c-0.4,0-0.7,0-1.1,0
						c-14.1,0-25.7-12.6-26.2-28.4c0-0.2,0.1-1.2,1.1-1.2H290.5z"/>
				</g>
			</g>
			<g>
				<g>
					<path class="st13" d="M330.8,102.4c13,0,23.6,11.9,23.6,26.6c0,14.7-10.6,26.6-23.6,26.6l-61.1,3l-1.2-59.1L330.8,102.4z"/>
				</g>
			</g>
			<g>
				<g>
					<path class="st9" d="M353.4,121.4c0.6,2.4,1,4.9,1,7.6c0,14.7-10.6,26.6-23.6,26.6l-61.1,3l0-2.1l9.6-8.1
						c1.1-0.8,14.6-11.7,14.6-11.7s35,0,46.8,0C352.4,136.7,353.8,126.9,353.4,121.4z"/>
				</g>
			</g>
			<g>
				<g>
					<path class="st31" d="M320,156.1l-4.4,0.2c8.5-5.3,14.3-15.5,14.3-27.3s-5.8-22-14.3-27.3l4.4,0.2c8.4,5.4,14,15.5,14,27.1
						C334,140.6,328.4,150.7,320,156.1z"/>
				</g>
			</g>
			<g>
				<g>
					<path class="st8" d="M268.6,158.5c14.5,0,26.3-13.3,26.3-29.6S283,99.4,268.6,99.4c-14.5,0-26.3,13.3-26.3,29.6
						S254.1,158.5,268.6,158.5z"/>
				</g>
			</g>
			<g>
				<g>
					<path class="st32" d="M268.6,154.5c-8.1,0-15.6-4.9-19.7-12.8c-0.2-0.4-0.1-1,0.4-1.2c0.4-0.2,1-0.1,1.2,0.4
						c3.8,7.3,10.7,11.8,18.1,11.8c5.8,0,11.4-2.8,15.3-7.6c0.3-0.4,0.9-0.4,1.3-0.1c0.4,0.3,0.4,0.9,0.1,1.3
						C281,151.5,274.9,154.5,268.6,154.5z M289.5,136.8c-0.1,0-0.2,0-0.2,0c-0.5-0.1-0.8-0.6-0.6-1.1c0.6-2.2,0.9-4.4,0.9-6.7
						c0-13.1-9.4-23.7-21-23.7c-11.6,0-21,10.6-21,23.7c0,0.2,0,0.4,0,0.6c0,0.5-0.4,0.9-0.9,0.9c-0.5,0.1-0.9-0.4-0.9-0.9
						c0-0.2,0-0.4,0-0.6c0-14.1,10.2-25.5,22.7-25.5c12.5,0,22.7,11.4,22.7,25.5c0,2.4-0.3,4.9-0.9,7.2
						C290.3,136.6,289.9,136.8,289.5,136.8z"/>
				</g>
			</g>
			<g>
				<g>
					<path class="st32" d="M268.6,148.7c-9.7,0-17.6-8.8-17.6-19.7c0-10.9,7.9-19.7,17.6-19.7c4.8,0,9.2,2.1,12.6,5.9
						c0.3,0.4,0.3,0.9-0.1,1.3c-0.4,0.3-0.9,0.3-1.3-0.1c-3-3.4-7-5.3-11.2-5.3c-8.7,0-15.8,8-15.8,17.9c0,9.9,7.1,17.9,15.8,17.9
						c8.7,0,15.8-8,15.8-17.9c0-2.6-0.5-5-1.4-7.4c-0.2-0.5,0-1,0.5-1.2c0.5-0.2,1,0,1.2,0.5c1,2.5,1.5,5.2,1.5,8
						C286.2,139.8,278.3,148.7,268.6,148.7z"/>
				</g>
			</g>
			<g>
				<g>
					<path class="st32" d="M268.6,143c-6.9,0-12.6-6.3-12.6-14c0-2.1,0.4-4.1,1.2-6c0.2-0.5,0.7-0.7,1.2-0.5
						c0.5,0.2,0.7,0.7,0.5,1.2c-0.7,1.7-1.1,3.4-1.1,5.3c0,6.7,4.8,12.2,10.8,12.2c5.9,0,10.8-5.5,10.8-12.2
						c0-6.7-4.8-12.2-10.8-12.2c-1.2,0-2.5,0.2-3.6,0.7c-0.5,0.2-1,0-1.2-0.5c-0.2-0.5,0-1,0.5-1.2c1.4-0.6,2.8-0.8,4.3-0.8
						c6.9,0,12.5,6.3,12.5,14C281.1,136.7,275.5,143,268.6,143z"/>
				</g>
			</g>
			<g>
				<g>
					<path class="st30" d="M268.6,135.2c3,0,5.5-2.8,5.5-6.2c0-3.4-2.5-6.2-5.5-6.2s-5.5,2.8-5.5,6.2
						C263,132.4,265.5,135.2,268.6,135.2z"/>
				</g>
			</g>
			<g>
				<g>
					<path class="st31" d="M315.4,129c0-12.3-6.4-23-15.6-28.1l-4.5-0.2c9.5,4.9,16,15.7,16,28.3c0,12.5-6.6,23.3-16.1,28.3l4.5-0.2
						C309,152,315.4,141.3,315.4,129z"/>
				</g>
			</g>
			<g>
				<g>
					<path class="st8" d="M304.6,170.8c0.4,0,0.8-0.4,0.8-0.8c0-0.4-0.4-0.8-0.8-0.8c-0.4,0-0.8,0.4-0.8,0.8
						C303.8,170.4,304.2,170.8,304.6,170.8z"/>
				</g>
			</g>
			<g>
				<g>
					<circle class="st18" cx="303.6" cy="178.8" r="1.2"/>
				</g>
			</g>
			<g>
				<g>
					<path class="st26" d="M340.5,166.4c0,0,1.3,6.8,1.8,13.9C342.4,180.3,344.7,170.1,340.5,166.4z"/>
				</g>
			</g>
			<g>
				<g>
					<path class="st8" d="M340.5,167c0.3,0,0.6-0.3,0.6-0.6c0-0.3-0.3-0.6-0.6-0.6c-0.3,0-0.6,0.3-0.6,0.6
						C339.9,166.8,340.2,167,340.5,167z"/>
				</g>
			</g>
			<g>
				<g>
					<path class="st26" d="M231.2,270.2c-2.3,6.9-4.3,19.6,1.6,25.3c0.3,0.3,0.3,0.6,0.2,1c-0.2,0.3-0.5,0.5-0.9,0.5
						c-9.7-0.9-18.8-4.1-27.1-9.3c0,0,0,0-0.1,0c-0.8-0.6-1.3-2-1.5-3c-0.3-1.8-0.3-4.4-0.3-6.3c0-2-0.1-4.2,0-6.2
						c0.2-2.3,2.3-4.2,4.6-4.2c0.7,0,1.8,0.2,2.5,0.4c1.6,0.3,3.3,0.5,4.9,0.7c5,0.5,10.1,0.6,15.1,0c0.3,0,0.6,0.1,0.8,0.3
						C231.2,269.7,231.3,270,231.2,270.2z"/>
				</g>
			</g>
			<g>
				<g>
					<path class="st18" d="M208.2,275.6c0,0-0.2,4.8,0.1,7.5c0,0,0.1,1.1-0.9,0.9c-1-0.2-4.3-2.4-5.1-3.9c-0.8-1.5-2.1-7.6-0.6-11.2
						C201.6,268.9,200.4,273.5,208.2,275.6z"/>
				</g>
			</g>
			<g>
				<g>
					<path class="st8" d="M330,193.8c0,0,0,0.1-0.1,0.2c-0.5,1.2-1.9,1.8-3.1,1.3c-1.2-0.5-1.8-1.9-1.3-3.1c0,0,0-0.1,0.1-0.1
						l3.5-7.2l0,0c0.4-0.9,1.4-1.4,2.4-1c0.9,0.4,1.4,1.4,1,2.4l0,0L330,193.8L330,193.8z M331.2,184.6c-0.5-0.2-1.1,0-1.3,0.6
						c-0.2,0.5,0,1.1,0.6,1.3c0.5,0.2,1.1,0,1.3-0.6C331.9,185.4,331.7,184.8,331.2,184.6L331.2,184.6z M328.4,191.7
						c-0.8-0.3-1.7,0.1-2,0.9c-0.3,0.8,0.1,1.7,0.9,2c0.8,0.3,1.7-0.1,2-0.9C329.5,192.9,329.1,192,328.4,191.7z"/>
				</g>
			</g>
			<g>
				<g>
					<path class="st18" d="M331.5,181.9c0-0.3,0.1-0.5,0.4-0.6c0.3,0,0.5,0.1,0.6,0.4c0,0,0.4,1.8-1.3,4.1c-0.2,0.2-0.5,0.3-0.7,0.1
						c-0.2-0.2-0.3-0.5-0.1-0.7C331.8,183.3,331.5,181.9,331.5,181.9z"/>
				</g>
			</g>
			<g>
				<g>
					<path class="st8" d="M322.2,290.5c0,0.1,0,0.1,0,0.2c0.3,1.3-0.5,2.5-1.8,2.8c-1.3,0.3-2.5-0.5-2.8-1.8c0-0.1,0-0.1,0-0.2
						l-1.2-7.9v0c-0.2-1,0.4-2,1.4-2.2c1-0.2,2,0.4,2.2,1.4v0L322.2,290.5L322.2,290.5z M317.9,282.2c-0.5,0.1-0.9,0.6-0.8,1.2
						c0.1,0.5,0.6,0.9,1.2,0.8c0.5-0.1,0.9-0.6,0.8-1.2C319,282.4,318.5,282.1,317.9,282.2L317.9,282.2z M319.6,289.6
						c-0.8,0.2-1.4,1-1.2,1.8c0.2,0.8,1,1.4,1.8,1.2c0.8-0.2,1.4-1,1.2-1.8C321.2,290,320.4,289.4,319.6,289.6z"/>
				</g>
			</g>
			<g>
				<g>
					<path class="st26" d="M316.7,279.8c-0.2-0.2-0.2-0.5,0-0.7c0.2-0.2,0.5-0.2,0.7,0c0,0,1.3,1.3,1.3,4.1c0,0.3-0.2,0.5-0.5,0.5
						c-0.3,0-0.5-0.2-0.5-0.5C317.7,280.8,316.7,279.8,316.7,279.8z"/>
				</g>
			</g>
			<g>
				<g>
					<path class="st8" d="M341,288.9c0,0.1,0,0.1,0,0.2c0,1.3-1.1,2.3-2.4,2.3c-1.3,0-2.3-1.1-2.3-2.4c0-0.1,0-0.1,0-0.2l0.8-8v0
						c0-1,0.9-1.8,1.9-1.8c1,0,1.8,0.9,1.8,1.9v0L341,288.9L341,288.9z M338.8,279.9c-0.5,0-1,0.4-1,1c0,0.5,0.4,1,1,1
						c0.5,0,1-0.4,1-1C339.8,280.3,339.4,279.9,338.8,279.9L338.8,279.9z M338.6,287.5c-0.9,0-1.6,0.6-1.6,1.5
						c0,0.9,0.7,1.6,1.5,1.6c0.9,0,1.6-0.6,1.6-1.5C340.2,288.2,339.5,287.5,338.6,287.5z"/>
				</g>
			</g>
			<g>
				<g>
					<path class="st8" d="M338.2,277.2c-0.1-0.2-0.1-0.5,0.2-0.7c0.2-0.1,0.5-0.1,0.7,0.2c0,0,1,1.5,0.2,4.3
						c-0.1,0.3-0.3,0.4-0.6,0.3c-0.3-0.1-0.4-0.3-0.3-0.6C339,278.4,338.2,277.2,338.2,277.2z"/>
				</g>
			</g>
			<g>
				<g>
					<path class="st33" d="M302.4,243.8c-0.1,0-0.2,0-0.3-0.1c-4.2-2.4-8.4-5.3-11.8-7.7c-1.6-1.1-3-2.1-4.1-2.8
						c-3.2-2-7.7-1.7-7.7-1.7c-0.3,0-0.6-0.2-0.7-0.6c0-0.3,0.2-0.6,0.6-0.7c0.2,0,5-0.4,8.5,1.9c0.4,0.3,0.9,0.6,1.4,1
						c1.3-0.1,8.3-0.7,12.1-2.3c0.3-0.1,0.7,0,0.8,0.3c0.1,0.3,0,0.7-0.3,0.8c-3.2,1.3-8.3,2-10.9,2.2c0.4,0.2,0.7,0.5,1.1,0.8
						c3.4,2.4,7.6,5.3,11.7,7.6c0.3,0.2,0.4,0.6,0.2,0.8C302.8,243.7,302.6,243.8,302.4,243.8z"/>
				</g>
			</g>
			<g>
				<g>
					<path class="st33" d="M273.3,228.6c-0.2,0-0.4-0.1-0.5-0.3c-8.7-12.9-24.7-36.6-26-38.5c-8.2-4.8-11.7-14.4-13.2-21.7
						c-0.1-0.3,0.2-0.7,0.5-0.7c0.3-0.1,0.7,0.2,0.7,0.5c1.4,6.7,4.5,15.4,11.5,20.2c-0.4-2.5-0.8-7.8,1.3-14.1
						c0.1-0.3,0.5-0.5,0.8-0.4c0.3,0.1,0.5,0.5,0.4,0.8c-2.5,7.6-1.2,13.9-1,14.8c1.1,1.7,17.3,25.6,26,38.6
						c0.2,0.3,0.1,0.7-0.2,0.9C273.6,228.5,273.4,228.6,273.3,228.6z M284.3,174.7c-0.2,0-0.3-0.1-0.4-0.2l-5.3-4.8
						c-0.3-0.2-0.3-0.6,0-0.9c0.2-0.3,0.6-0.3,0.9,0l5.3,4.8c0.3,0.2,0.3,0.6,0,0.9C284.7,174.6,284.5,174.7,284.3,174.7z"/>
				</g>
			</g>
			<g>
				<g>
					<path class="st34" d="M259.9,266c-0.2,0-0.3-0.1-0.4-0.3c0-0.1-3.3-7.5-4.1-14.6c0-0.2,0.1-0.5,0.4-0.5c0.2,0,0.5,0.1,0.5,0.4
						c0.8,7,4,14.3,4.1,14.4c0.1,0.2,0,0.5-0.2,0.6C260,266,259.9,266,259.9,266z M261.9,245.7c-0.2,0-0.4-0.2-0.4-0.4
						c-0.4-11.6,4.9-14.5,5.2-14.7c0.2-0.1,0.5,0,0.6,0.2c0.1,0.2,0,0.5-0.2,0.6c-0.1,0-5.1,2.8-4.7,13.8
						C262.3,245.5,262.1,245.7,261.9,245.7C261.9,245.7,261.9,245.7,261.9,245.7z"/>
				</g>
			</g>
			<g>
				<g>
					<path class="st34" d="M199.1,248.3c-0.2,0-0.3-0.1-0.4-0.3c-0.1-0.2,0-0.5,0.3-0.6c0.2-0.1,4.8-2,5.5-8.3
						c0-0.2,0.2-0.4,0.5-0.4c0.2,0,0.4,0.2,0.4,0.5c-0.7,6.9-5.8,9-6,9.1C199.2,248.2,199.1,248.3,199.1,248.3z M196.8,245.5
						c0,0-0.1,0-0.1,0c-0.2-0.1-0.4-0.3-0.3-0.6c0.1-0.4,0.2-0.9,0.2-1.7c0-0.4,0-0.8,0.1-1.4c0.1-1.6,0.5-2.9,0.5-2.9
						c0.1-0.2,0.3-0.4,0.6-0.3c0.2,0.1,0.4,0.3,0.3,0.6c0,0-0.4,1.2-0.5,2.7c0,0.5-0.1,1-0.1,1.3c0,0.8-0.1,1.4-0.2,2
						C197.1,245.4,197,245.5,196.8,245.5z"/>
				</g>
			</g>
			<g>
				<g>
					<path class="st18" d="M218.1,272.9c3.8,0,7,3.7,7.3,8.3c0.2,4.6-2.7,8.3-6.5,8.3c-3.8,0-7-3.7-7.3-8.3
						C211.5,276.6,214.3,272.9,218.1,272.9z"/>
				</g>
			</g>
			<g>
				<g>
					<path class="st26" d="M217.9,276.1c2.3,0,4.3,2.3,4.5,5.1c0.1,2.8-1.6,5.1-4,5.1c-2.3,0-4.3-2.3-4.5-5.1
						C213.8,278.4,215.6,276.1,217.9,276.1z"/>
				</g>
			</g>
		</g>
		<g>
			<g>
				<path class="st14" d="M232.8,296.2c-0.2,0-0.3-0.1-0.4-0.2c-6.3-6.1-3.9-19.6-1.8-26c0-0.1,0-0.1,0-0.2
					c-0.1-0.1-0.1-0.1-0.2-0.1c-4.8,0.5-10,0.5-15.2,0c-1.5-0.2-3.1-0.4-4.9-0.7c-0.2,0-0.4-0.1-0.7-0.1c-0.6-0.1-1.3-0.2-1.8-0.2
					c0,0,0,0,0,0c-2,0-3.8,1.6-3.9,3.6c-0.1,0.8-0.1,1.8-0.1,3c0,0.4-0.3,0.6-0.6,0.6c-0.4,0-0.6-0.3-0.6-0.6c0-1.2,0-2.2,0.1-3.1
					c0.2-2.6,2.5-4.7,5.2-4.7c0,0,0,0,0,0c0.6,0,1.3,0.1,2,0.3c0.2,0,0.4,0.1,0.6,0.1c1.8,0.3,3.4,0.5,4.9,0.6
					c5.2,0.5,10.2,0.6,14.9,0c0.5-0.1,1,0.1,1.3,0.6c0.3,0.4,0.4,0.9,0.2,1.4c-2.1,6.1-4.4,19,1.5,24.6c0.3,0.2,0.3,0.6,0,0.9
					C233.1,296.1,233,296.2,232.8,296.2z M258.4,231.9c-0.1,0-0.1,0-0.2,0l-31.1-11.3c0,0-0.1,0-0.1,0c-0.1,0-0.2-0.1-0.2-0.2
					c-0.1-0.1-0.1-0.2-0.1-0.3c0,0,0-0.1,0-0.1c-0.3-6.4-1.1-16.3-1.7-17.7c-0.5-1.1-2.2-3.1-4.6-5.3c-0.2-0.2-0.5-0.5-1-1
					c-1-1-2.5-2.6-3.2-3.2c-0.9-0.7-2.4-0.9-3.2-0.6c-0.9,0.4-3.9,2.7-4.3,3.3c-0.3,0.4-0.4,1.1-0.4,1.4c0,0.3-0.2,0.5-0.4,0.6
					c-3.2,1.3-2.7,5.1-2.7,5.2c0,0.3-0.1,0.6-0.4,0.7c-2.1,0.8-2,4.2-2,4.2c0,0.2,0,0.3-0.1,0.4c-0.8,1-1.6,3.8-0.7,4.8
					c1.3,1.3,4.7,4.5,4.7,4.5l-0.9,0.9c0,0-3.4-3.2-4.7-4.6c-1.5-1.5-0.6-4.8,0.4-6.3c0-0.9,0.2-3.9,2.3-5c-0.1-1.7,0.5-4.6,3.1-5.9
					c0-0.4,0.2-1.1,0.6-1.7c0.6-0.8,3.9-3.3,4.9-3.7c1.2-0.5,3.2-0.3,4.5,0.8c0.7,0.6,2.3,2.2,3.3,3.3c0.4,0.5,0.8,0.8,0.9,0.9
					c1.5,1.4,4.1,4,4.9,5.7c0.8,1.9,1.6,14.8,1.8,17.7l30.7,11.2c0.3,0.1,0.5,0.5,0.4,0.8C258.9,231.8,258.7,231.9,258.4,231.9z
					 M199.1,205.1L199.1,205.1c-0.4,0-0.6-0.3-0.6-0.6c0-2.3,0.4-4.5,1.1-6.5c4.2-11.6,26.2-48.2,33.3-54.2c0.3-0.2,0.7-0.2,0.9,0.1
					c0.2,0.3,0.2,0.7-0.1,0.9c-7,5.9-28.7,42.1-32.9,53.6c-0.7,1.9-1.1,4-1.1,6.1C199.7,204.8,199.4,205.1,199.1,205.1z
					 M221.7,156.7c-21.1,0-24.4-13.5-24.5-21.6c0-0.4,0.3-0.6,0.6-0.6c0,0,0,0,0,0c0.3,0,0.6,0.3,0.6,0.6
					c0.1,9.3,4.3,20.3,23.3,20.3c0.1,0,0.1,0,0.2,0c0.4,0,0.6,0.3,0.6,0.6c0,0.4-0.3,0.6-0.6,0.6
					C221.9,156.7,221.8,156.7,221.7,156.7z M330.8,156.2c-0.4,0-0.6-0.3-0.6-0.6c0-0.4,0.3-0.6,0.6-0.6c12.7,0,22.9-11.6,22.9-25.9
					c0-14.3-10.3-25.9-22.9-25.9l-62.3-3c-0.4,0-0.6-0.3-0.6-0.7c0-0.4,0.3-0.6,0.7-0.6l62.2,3c13.3,0,24.2,12.2,24.2,27.2
					C355,144,344.1,156.2,330.8,156.2z M227.4,130.2c-4.8,0-10.2-3.3-19.9-9.8c-0.3-0.3-6.3-5.4-8.9-15.1l-0.6-2.5
					c-0.3-1.3-0.7-2.6-1-4c-0.1-0.3,0.1-0.7,0.5-0.8c0.3-0.1,0.7,0.1,0.8,0.5c0.3,1.3,0.7,2.7,1,4l0.6,2.5
					c2.4,9.3,8.3,14.4,8.4,14.4c14.1,9.5,18.5,11.5,24.8,7.8c0.3-0.2,0.7-0.1,0.9,0.2c0.2,0.3,0.1,0.7-0.2,0.9
					C231.5,129.6,229.5,130.2,227.4,130.2z M195.5,126.5C195.5,126.5,195.4,126.5,195.5,126.5c-2.2-0.3-3.9-1.3-4.8-2.9
					c-1.5-2.5-1.4-6.5,0.5-11.8c0.6-1.7,1-3.3,1.3-4.9c0.1-0.3,0.4-0.6,0.7-0.5c0.3,0.1,0.6,0.4,0.5,0.7c-0.3,1.6-0.7,3.3-1.3,5.1
					c-1.7,4.9-1.9,8.5-0.6,10.7c0.8,1.3,2,2,3.8,2.3c0.3,0.1,0.6,0.4,0.5,0.7C196.1,126.3,195.8,126.5,195.5,126.5z M165,97.9
					c-0.2,0-0.3-0.1-0.5-0.2c-6.8-7.3-10-15.7-9-23.2c0.7-4.8,3.2-8.7,6.9-11c1.3-0.8,3-1.5,4.9-2.1c0.6-0.2,1.3-0.4,2-0.6
					c0,0,0,0,0.1,0c0,0,0.1,0,0.1,0c0.1,0,15-3.1,32.2,3.6c17.2,6.7,45.2,8.9,58.7,6.5c3.3-0.6,5.9-1.1,8.3-1.6
					c7.4-1.5,10.8-2.2,14.9-0.4c0.3,0.1,0.5,0.5,0.3,0.8c-0.1,0.3-0.5,0.5-0.8,0.3c-3.8-1.6-6.8-1-14.2,0.4c-2.4,0.5-5,1-8.3,1.6
					c-13.7,2.4-42,0.1-59.4-6.6c-16.9-6.6-31.4-3.6-31.5-3.5c0,0,0,0,0,0c0,0,0,0-0.1,0c-0.7,0.2-1.3,0.3-1.9,0.5
					c-1.8,0.6-3.4,1.2-4.6,2c-3.4,2-5.6,5.6-6.3,10c-1,7.1,2.1,15.1,8.6,22.1c0.2,0.3,0.2,0.7,0,0.9C165.4,97.8,165.2,97.9,165,97.9
					z M195.1,54.4C195.1,54.4,195,54.4,195.1,54.4c-0.4-0.1-0.7-0.4-0.6-0.7c0.6-4,5.3-25,5.5-25.9c0.1-0.2,1.5-4.9,5.7-5.8
					c3.9-0.8,24.5-2,29-1.5c0.4,0,0.6,0.4,0.6,0.7c0,0.3-0.4,0.6-0.7,0.6c-4.4-0.5-24.8,0.7-28.6,1.5c-3.5,0.7-4.7,4.8-4.8,4.8
					c0,0.2-4.9,21.8-5.5,25.7C195.7,54.2,195.4,54.4,195.1,54.4z"/>
			</g>
		</g>
	</g>
	<g>
		<g>
			<g>
				<path class="st8" d="M25.3,193.6c0.4,0,0.6,0.3,0.6,0.6c0,0.4-0.3,0.6-0.6,0.6H24c-0.4,0-0.6-0.3-0.6-0.6c0-0.4,0.3-0.6,0.6-0.6
					H25.3L25.3,193.6z M26.2,191.4c0-0.4,0.3-0.6,0.6-0.6c0.4,0,0.6,0.3,0.6,0.6v1.3c0,0.4-0.3,0.6-0.6,0.6c-0.4,0-0.6-0.3-0.6-0.6
					V191.4L26.2,191.4z M29.7,193.6c0.4,0,0.6,0.3,0.6,0.6c0,0.4-0.3,0.6-0.6,0.6h-1.3c-0.4,0-0.6-0.3-0.6-0.6
					c0-0.4,0.3-0.6,0.6-0.6H29.7L29.7,193.6z M26.2,195.8c0-0.4,0.3-0.6,0.6-0.6c0.4,0,0.6,0.3,0.6,0.6v1.3c0,0.4-0.3,0.6-0.6,0.6
					c-0.4,0-0.6-0.3-0.6-0.6V195.8z"/>
			</g>
		</g>
		<g>
			<g>
				<path class="st8" d="M374.2-0.6c0.4,0,0.6,0.3,0.6,0.6c0,0.4-0.3,0.6-0.6,0.6h-1.3c-0.4,0-0.6-0.3-0.6-0.6
					c0-0.4,0.3-0.6,0.6-0.6H374.2L374.2-0.6z M375.1-2.9c0-0.4,0.3-0.6,0.6-0.6c0.4,0,0.6,0.3,0.6,0.6v1.3c0,0.4-0.3,0.6-0.6,0.6
					c-0.4,0-0.6-0.3-0.6-0.6V-2.9L375.1-2.9z M378.6-0.6c0.4,0,0.6,0.3,0.6,0.6c0,0.4-0.3,0.6-0.6,0.6h-1.3c-0.4,0-0.6-0.3-0.6-0.6
					c0-0.4,0.3-0.6,0.6-0.6H378.6L378.6-0.6z M375.1,1.5c0-0.4,0.3-0.6,0.6-0.6c0.4,0,0.6,0.3,0.6,0.6v1.3c0,0.4-0.3,0.6-0.6,0.6
					c-0.4,0-0.6-0.3-0.6-0.6V1.5z"/>
			</g>
		</g>
		<g>
			<g>
				<path class="st8" d="M374.2,282.5c0.4,0,0.6,0.3,0.6,0.6c0,0.4-0.3,0.6-0.6,0.6h-1.3c-0.4,0-0.6-0.3-0.6-0.6
					c0-0.4,0.3-0.6,0.6-0.6H374.2L374.2,282.5z M375.1,280.3c0-0.4,0.3-0.6,0.6-0.6c0.4,0,0.6,0.3,0.6,0.6v1.3
					c0,0.4-0.3,0.6-0.6,0.6c-0.4,0-0.6-0.3-0.6-0.6V280.3L375.1,280.3z M378.6,282.5c0.4,0,0.6,0.3,0.6,0.6c0,0.4-0.3,0.6-0.6,0.6
					h-1.3c-0.4,0-0.6-0.3-0.6-0.6c0-0.4,0.3-0.6,0.6-0.6H378.6L378.6,282.5z M375.1,284.7c0-0.4,0.3-0.6,0.6-0.6
					c0.4,0,0.6,0.3,0.6,0.6v1.3c0,0.4-0.3,0.6-0.6,0.6c-0.4,0-0.6-0.3-0.6-0.6V284.7z"/>
			</g>
		</g>
		<g>
			<g>
				<path class="st8" d="M159.2,121.5c0.4,0,0.6,0.3,0.6,0.6c0,0.4-0.3,0.6-0.6,0.6h-1.3c-0.4,0-0.6-0.3-0.6-0.6
					c0-0.4,0.3-0.6,0.6-0.6H159.2L159.2,121.5z M160.1,119.3c0-0.4,0.3-0.6,0.6-0.6c0.4,0,0.6,0.3,0.6,0.6v1.3
					c0,0.4-0.3,0.6-0.6,0.6c-0.4,0-0.6-0.3-0.6-0.6V119.3L160.1,119.3z M163.6,121.5c0.4,0,0.6,0.3,0.6,0.6c0,0.4-0.3,0.6-0.6,0.6
					h-1.3c-0.4,0-0.6-0.3-0.6-0.6c0-0.4,0.3-0.6,0.6-0.6H163.6L163.6,121.5z M160.1,123.7c0-0.4,0.3-0.6,0.6-0.6
					c0.4,0,0.6,0.3,0.6,0.6v1.3c0,0.4-0.3,0.6-0.6,0.6c-0.4,0-0.6-0.3-0.6-0.6V123.7z"/>
			</g>
		</g>
		<g>
			<g>
				<path class="st8" d="M147.6,253.9c0.4,0,0.6,0.3,0.6,0.6c0,0.4-0.3,0.6-0.6,0.6h-1.3c-0.4,0-0.6-0.3-0.6-0.6
					c0-0.4,0.3-0.6,0.6-0.6H147.6L147.6,253.9z M148.5,251.7c0-0.4,0.3-0.6,0.6-0.6c0.4,0,0.6,0.3,0.6,0.6v1.3
					c0,0.4-0.3,0.6-0.6,0.6c-0.4,0-0.6-0.3-0.6-0.6V251.7L148.5,251.7z M152,253.9c0.4,0,0.6,0.3,0.6,0.6c0,0.4-0.3,0.6-0.6,0.6
					h-1.3c-0.4,0-0.6-0.3-0.6-0.6c0-0.4,0.3-0.6,0.6-0.6H152L152,253.9z M148.5,256.1c0-0.4,0.3-0.6,0.6-0.6c0.4,0,0.6,0.3,0.6,0.6
					v1.3c0,0.4-0.3,0.6-0.6,0.6c-0.4,0-0.6-0.3-0.6-0.6V256.1z"/>
			</g>
		</g>
		<g>
			<g>
				<path class="st8" d="M45.2,348.6c0.4,0,0.6,0.3,0.6,0.6c0,0.4-0.3,0.6-0.6,0.6h-1.3c-0.4,0-0.6-0.3-0.6-0.6
					c0-0.4,0.3-0.6,0.6-0.6H45.2L45.2,348.6z M46.1,346.4c0-0.4,0.3-0.6,0.6-0.6c0.4,0,0.6,0.3,0.6,0.6v1.3c0,0.4-0.3,0.6-0.6,0.6
					c-0.4,0-0.6-0.3-0.6-0.6V346.4L46.1,346.4z M49.6,348.6c0.4,0,0.6,0.3,0.6,0.6c0,0.4-0.3,0.6-0.6,0.6h-1.3
					c-0.4,0-0.6-0.3-0.6-0.6c0-0.4,0.3-0.6,0.6-0.6H49.6L49.6,348.6z M46.1,350.8c0-0.4,0.3-0.6,0.6-0.6c0.4,0,0.6,0.3,0.6,0.6v1.3
					c0,0.4-0.3,0.6-0.6,0.6c-0.4,0-0.6-0.3-0.6-0.6V350.8z"/>
			</g>
		</g>
		<g>
			<g>
				<path class="st8" d="M321.6,409.5c0.4,0,0.6,0.3,0.6,0.6c0,0.4-0.3,0.6-0.6,0.6h-1.3c-0.4,0-0.6-0.3-0.6-0.6
					c0-0.4,0.3-0.6,0.6-0.6H321.6L321.6,409.5z M322.5,407.3c0-0.4,0.3-0.6,0.6-0.6c0.4,0,0.6,0.3,0.6,0.6v1.3
					c0,0.4-0.3,0.6-0.6,0.6c-0.4,0-0.6-0.3-0.6-0.6V407.3L322.5,407.3z M326,409.5c0.4,0,0.6,0.3,0.6,0.6c0,0.4-0.3,0.6-0.6,0.6
					h-1.3c-0.4,0-0.6-0.3-0.6-0.6c0-0.4,0.3-0.6,0.6-0.6H326L326,409.5z M322.5,411.7c0-0.4,0.3-0.6,0.6-0.6c0.4,0,0.6,0.3,0.6,0.6
					v1.3c0,0.4-0.3,0.6-0.6,0.6c-0.4,0-0.6-0.3-0.6-0.6V411.7z"/>
			</g>
		</g>
		<g>
			<g>
				<path class="st8" d="M176.1,21.1c0.4,0,0.6,0.3,0.6,0.6c0,0.4-0.3,0.6-0.6,0.6h-1.3c-0.4,0-0.6-0.3-0.6-0.6
					c0-0.4,0.3-0.6,0.6-0.6H176.1L176.1,21.1z M177,18.9c0-0.4,0.3-0.6,0.6-0.6c0.4,0,0.6,0.3,0.6,0.6v1.3c0,0.4-0.3,0.6-0.6,0.6
					c-0.4,0-0.6-0.3-0.6-0.6V18.9L177,18.9z M180.5,21.1c0.4,0,0.6,0.3,0.6,0.6c0,0.4-0.3,0.6-0.6,0.6h-1.3c-0.4,0-0.6-0.3-0.6-0.6
					c0-0.4,0.3-0.6,0.6-0.6H180.5L180.5,21.1z M177,23.3c0-0.4,0.3-0.6,0.6-0.6c0.4,0,0.6,0.3,0.6,0.6v1.3c0,0.4-0.3,0.6-0.6,0.6
					c-0.4,0-0.6-0.3-0.6-0.6V23.3z"/>
			</g>
		</g>
	</g>
</g>
</svg>
