<?xml version="1.0" encoding="utf-8"?>
<!-- Generator: Adobe Illustrator 23.0.0, SVG Export Plug-In . SVG Version: 6.00 Build 0)  -->
<svg version="1.1" id="Layer_1" xmlns="http://www.w3.org/2000/svg" xmlns:xlink="http://www.w3.org/1999/xlink" x="0px" y="0px"
	 width="300px" height="300px" viewBox="0 0 300 300" style="enable-background:new 0 0 300 300;" xml:space="preserve">
<style type="text/css">
	.st0{fill:#5CE8E2;}
	.st1{fill:#BDF778;}
	.st2{fill:#4B951F;}
	.st3{fill:#FEDB5D;}
	.st4{fill:#A96F45;}
	.st5{fill:#D1FE9E;}
	.st6{fill:#81D146;}
	.st7{fill:#FEEE97;}
	.st8{fill:#8BF6ED;}
	.st9{fill:#F4A24F;}
	.st10{fill:#90E857;}
	.st11{fill:#59B12B;}
	.st12{fill:#82D146;}
	.st13{fill:#C79064;}
	.st14{fill:#82502F;}
	.st15{fill:#9F7D45;}
	.st16{fill:#90E856;}
	.st17{fill:#F9C78F;}
</style>
<g>
	<path class="st0" d="M299.9,240.7c0,19.3,0,38.7,0.1,58c0,2.1-0.8,2.7-2.6,2.4c-0.4-0.1-0.8,0-1.2,0c-97.4,0-194.9,0-292.3,0
		c-4.3,0-3.8,0.5-3.8-3.9c0-36.3,0-72.6,0-108.8c0-1.1,0.1-2.2,0.1-3.3c1.2-1.2,2.8-0.9,4.3-0.9c7.4,0,14.9,0,22.3,0
		c4.1,0,6-1.3,6-3.9c0-2.6-1.9-3.9-6-3.9c-7.4,0-14.9,0-22.3,0c-1.5,0-3.1,0.2-4.3-0.9c0-3.2,0-6.4,0-9.6c1.1-1.1,2.6-1,4-1
		c34,0,68,0,102.1,0c1,0,2,0,3,0.3c2.4,1,1,2.7,0.5,4.1c-2.6,7.1-0.9,13.4,3.8,18.8c2.3,2.6,5,5,7.6,7.3
		c8.9,7.7,16.4,16.7,23.9,25.5c4.2,4.9,7.9,10.2,12.1,15.1c7.5,8.6,16.7,14.8,27.2,19.2c12.9,5.3,26.4,7.3,40.2,6.6
		c17.5-0.9,34.5-4.5,50.7-11.5c6.9-3,13.9-5.9,20.9-8.8C297.3,240.8,298.5,239.8,299.9,240.7z"/>
	<path class="st1" d="M284.4,156c4.4,0,8.9,0.1,13.3,0c1.7,0,2.3,0.5,2.3,2.2c-0.1,23.7-0.1,47.3-0.1,71c-0.6,0.9-1.5,1.3-2.5,1.7
		c-15,5.6-29.7,12-45.5,15c-19.6,3.7-39.2,4.5-58.6-1.4c-13.9-4.2-25.8-11.8-35.1-23c-10.4-12.4-21.7-23.8-34.2-34.1
		c-2.3-1.9-4.6-3.9-6.2-6.5c-5.9-9.8-0.3-22.1,11.3-24.9c1-0.2,2-0.5,2.9-0.7c4.7-0.4,9.4-0.2,14.1-0.2c1,0,2,0.1,2.8,0.8
		c1,1.3,0.8,2.9,0.8,4.4c0,8,0,16,0,24.1c0,4.6,0.1,4.6,4.8,4.6c4.5,0,9-0.1,13.5,0.1c3.3-0.1,6.5-0.1,9.8,0
		c6.6-0.1,13.2-0.1,19.9,0c6.4-0.1,12.9-0.1,19.3,0c6.9,0.1,13.8-0.5,20.6,0.3c1.4,0.6,1.4,1.9,1.2,3.1c-0.2,1.4-0.4,2.8-0.7,4.1
		c-1.2,6.3,1.2,11.1,6.4,14.7c1,0.7,2.4,1.2,2.8,2.6c0.6,6.6,0.1,13.3,0.3,19.9c0,1.3-0.1,2.6,0.1,3.9c0.2,2.8,1.7,4.5,4,4.4
		c2.1,0,3.5-1.6,3.8-4.3c0.1-1.5,0-3,0.1-4.5c0.2-6.4-0.4-12.9,0.3-19.3c0.2-0.5,0.5-0.9,0.8-1.3c7.4-4.1,9.8-10.3,8.1-18.4
		c-0.4-1.6-1.4-3.5,0.7-4.9c4.6-0.8,9.2-0.2,13.9-0.4c3.7-0.1,3.9-0.3,3.9-4c0-8.2,0-16.3,0-24.5C283.3,158.9,282.9,157.2,284.4,156
		z"/>
	<path class="st2" d="M105.9,41c4.4,1.3,7.2,4.7,9.7,8.1c5.8,7.8,9,16.9,11.9,26c0.2,0.8,0.5,1.5,0.7,2.3c1,1.7-0.2,3.1-0.8,4.5
		c-4.9,11.1-8.8,22.5-10,34.7c-1.2,12.2-0.2,24.1,3.7,35.8c0.4,1.3,1.6,2.7,0,4.1c-1.2,0.4-2.4,0.5-3.6,0.5c-11.1,0-22.3,0-33.4,0
		c-1.2,0-2.4,0-3.5-0.6c-1-0.9-0.7-2-0.5-3.1c2.2-16,1.5-32-0.8-47.9c-0.2-1.2-0.4-2.4-0.3-3.6c2.5-17.3,6.5-34.1,15.3-49.5
		c2-3.5,4.7-6.5,7.7-9.2C103.1,42,104.3,41.2,105.9,41z"/>
	<path class="st3" d="M249.4,83.6c3.6,3.8,8.2,6.4,12.4,9.4c10.6,7.7,21.3,15.2,31.9,22.7c2.8,2,4,5.2,3,8.2c-1,3.2-3.5,4.9-7.1,5
		c-0.5,0-1,0.1-1.5,0c-2.6-0.4-3.6,0.5-3.4,3.3c0.2,2.1,0.4,4.2-0.2,6.3c-0.2-0.1-0.3-0.2-0.5-0.3c-0.9-1.6-0.7-3.3-0.7-5
		c0.1-2.5-1-3.4-3.4-3.3c-5.4,0.1-10.8,0-16.3,0c-10.8,0-21.7,0-32.5,0c-1.5,0-3,0.1-4.5-0.3c-2.2-0.9-0.6-1.9,0.1-2.6
		c1.8-1.6,2.5-3.5,2.3-5.9c-0.2-2.6-1.8-4.1-3.8-5.5c-11.9-8.4-23.7-16.9-35.6-25.4c-1.6-1.1-3.1-2.2-4.6-3.4
		c-0.6-0.5-1.5-1-1.2-1.9c0.3-0.8,1.2-0.4,1.9-0.4c3.2-0.2,6.4,0.3,9.6-0.3c0.1-0.1,0.3-0.1,0.4,0c3.2-1.7,6.6-0.7,9.9-0.9
		c13.6-0.2,27.2,0,40.8-0.1C247.4,83.1,248.4,83.3,249.4,83.6z"/>
	<path class="st4" d="M284.4,156c0,10.3-0.2,20.5-0.1,30.8c0,2.5-0.6,3.3-3.2,3.2c-5.4-0.2-10.9-0.1-16.3-0.1
		c-1.6-0.7-1.6-2.3-1.9-3.6c-1.8-7.7-4.1-15.3-7.1-22.7c-0.8-1.7-1.5-3.5-2.7-5c-1.1-1.3-2.2-1.3-3.2,0c-1.1,1.3-1.8,2.9-2.4,4.5
		c-3.3,7.7-5.6,15.7-7.5,23.8c-0.3,1.1,0,2.7-1.8,3.1c-7.1,0-14.1-0.1-21.2-0.1c-1-1-1-2.4-1-3.7c0-10-0.1-20,0-30.1
		c0.2-4.6,0-9.1,0.1-13.7c0-1.4-0.2-2.8,0.8-4c1.3-1,2.8-0.9,4.3-0.9c19.5,0,39,0,58.5,0c1.5,0,3-0.2,4.3,0.9c0,0,0.2,0,0.3,0
		C284.4,144.3,284.4,150.1,284.4,156z"/>
	<path class="st5" d="M131.2,156.1c-2.8,1-5.6,1.8-8.2,3.5c-8.2,5.7-9.6,16.9-2.3,23.7c9.1,8.5,18.8,16.4,27.2,25.6
		c4.6,4.9,8.8,10.2,13.4,15.1c12.7,13.4,28.5,20.5,46.6,22.9c7.1,0.9,14.2,1.5,21.3,1.1c17-1,33.5-4.5,49.4-10.8
		c7-2.8,14.1-5.3,21.1-7.9c0,3.8,0,7.7,0,11.5c-10,4.1-20,8.5-30.1,12.4c-13,5-26.5,7.7-40.4,8.9c-12.9,1.1-25.5,0-37.8-3.6
		c-17.8-5.2-31.3-16.2-42.2-31c-10.2-13.9-22.1-26.3-35.2-37.6c-5.7-5-7.9-14.1-5-21.5c0.3-0.8,0.7-1.7,1-2.5c1.6-5,5.6-7.2,10-9
		c0.9-0.4,1.9-0.6,2.8-1.1c2.7-0.6,5.3-0.8,8,0C131,155.8,131.1,155.9,131.2,156.1z"/>
	<path class="st6" d="M79.8,101c0.5,6.6,1.8,13,2.1,19.6c0.4,8.3,0.6,16.6-0.1,24.9c-0.3,3.5-0.5,7-1.4,10.4c-0.6,0.8-1.5,1-2.4,1
		c-9.6,0-19.2,0.4-28.8-0.2c-3.8-2.6-4.9-6.7-6.1-10.7c0.1-3.3-0.8-6.6-0.5-9.9c0.1-1.3-0.1-2.6,0.4-3.9c0.8-1.6,2.5-0.9,3.8-1.3
		c-0.8-3.2-3.4-5.7-3.7-9.1c0.3-4.6,0.3-9.2,1.6-13.7c1.9-1.1,2.4-2.4,0.9-4.3c-0.5-0.7-0.8-1.6-0.5-2.5c1.7-5.7,2.5-11.5,4.3-17.2
		c2.1-6.8,4.7-13.4,8.8-19.3c1.1-1.6,2.1-3.2,4.1-3.9c3.5,1.8,5.3,5.1,7.2,8.3c1.6,2.8,2.8,5.7,4,8.7c0.2,0.6,0.3,1.9,1.5,0.7
		C76.9,86,79.6,93.2,79.8,101z"/>
	<path class="st6" d="M148.8,156c-5.8,0-11.7,0-17.5,0c0,0,0.1-0.1,0.1-0.1c-1.1-0.8-1.7-2-2.1-3.2c-4-11.5-5-23.4-3.8-35.4
		c1.8-18.8,9.1-35.8,18.4-52c1.3-2.3,2.5-4.6,4.1-6.7c0.6-0.8,0.9-1.9,2.2-1.8c7.3,10.5,12.8,21.9,17.5,33.8
		c0.5,1.2,0.9,2.4,1.3,3.7c-0.5,1.8-2.3,2.5-3.6,3.5c-8.1,5.8-16.3,11.5-24.3,17.3c-1,0.7-2,1.4-2.7,2.3c-2.2,2.6-2.4,5.6-0.6,8.1
		c1.7,2.3,4.9,3.2,7.9,2.1c0.8-0.3,1.4-0.7,2.2-1c0.9-0.4,1.6-0.3,1.9,0.7c0.6,3.6,0.2,7.2,0.3,10.9c0.2,4.9,0.1,9.7,0.1,14.6
		C149.7,153.9,149.7,155.1,148.8,156z"/>
	<path class="st2" d="M43.6,122.1c1.5,3.1,3,6.2,4.7,9.8c-1.9,0-3.3,0-4.8,0c-1.6,1.3-3.7,0.2-5.7,1.1c1.4,3.2,3.1,6.3,4.6,9.4
		c0.6,1.2,1.4,2.4,1.2,3.9c1.6,3.2,3.2,6.4,4.7,9.6c-0.8,1-1.9,1-3,1c-11.1,0.1-22.1,0.1-33.2,0c-0.5,0-1-0.1-1.5-0.2
		c-2.2-0.9-1-2.3-0.4-3.5c2.8-5.7,5.6-11.3,8.4-16.9c0.3-0.6,0.6-1.3,0.9-1.9c0.7-1.3,0.2-1.7-1.2-1.8c-2.2-0.1-4.4,0.6-6.4-0.7
		c-0.7-0.1-1.5-0.1-2.2-0.2c-0.5-1.4,0.4-2.5,1-3.6c2.8-5.9,5.8-11.6,8.7-17.4c0.8-1.6,0.7-2.3-1.3-2.3c-2,0-4.2,0.6-6.1-0.6
		c-0.8-0.1-1.5-0.1-2.3-0.2c-0.4-1.1,0.2-2,0.6-2.8C15.9,93.6,21.4,82.5,27,71.4c0.4-0.9,0.7-2.2,2.2-1.9c3.2,6.3,6.4,12.6,9.5,18.9
		c1.3,0.5,1.7,1.7,2.1,2.7c1.4,3.5,4.2,6.5,4.5,10.5c0.9,1.9,1.8,3.8,2.8,5.9c-1.1,0.1-2,0.2-2.9,0.2c-2.3,1.4-4.9,0.3-7.5,0.9
		c1.3,3.4,3.1,6.4,4.6,9.5C43,119.4,43.7,120.6,43.6,122.1z"/>
	<path class="st7" d="M148.8,126.5c-1.6,0.8-3,2.1-4.8,2.3c-3.5,0.5-6.5-1.1-7.8-4.3c-1.4-3.2-0.4-6.6,2.8-9c4.3-3.2,8.6-6.2,13-9.3
		c5.6-4,11.3-8,16.9-12c3.6-2.6,7.2-5.1,10.7-7.8c2.4-1.8,4.9-2.8,8-2.5c2.6,0.3,5.2,0.1,7.8,0.1c-2.5,1.2-5.1,0.3-7.7,0.6
		c-1.1,0.1-2.2,0-4.2,0c3.9,2.8,7.1,5.1,10.3,7.4c10.6,7.6,21.1,15.2,31.9,22.6c5.5,3.8,6,10.6-0.1,14.1c-2.8,1.7-5.4,0.9-7.8-0.9
		c-10.9-7.8-21.9-15.5-32.7-23.4c-1.8-1.3-3.2-0.9-4.9,0.3c-9.5,6.8-19,13.6-28.5,20.4C150.8,125.8,150,126.8,148.8,126.5z"/>
	<path class="st2" d="M249.4,83.6c-0.5,0.6-1.2,0.6-1.9,0.6c-13.9,0-27.9-0.1-41.8-0.1c-1-1.3-0.3-2.5,0.1-3.7
		c5.1-14.1,11.7-27.5,19.4-40.4c0.5-0.9,0.9-2.1,2.4-1.9C236.7,52.3,243.9,67.6,249.4,83.6z"/>
	<path class="st8" d="M9.8,155.9c12.9,0,25.7,0,38.6,0c10.7,0,21.4,0,32.1,0c13.7,0,27.4,0,41.1,0c0.7-0.3,1.2-0.3,1.2,0.6
		c-5.6,1.2-9.5,4.6-12.7,9.1c-36.7,0-73.3,0-110,0c0-3.3,0-6.5,0.1-9.8C3.4,154.7,6.6,154.6,9.8,155.9z"/>
	<path class="st9" d="M58.1,1.2c10.7,0,19.4,8.7,19.3,19.4c0,10.7-8.8,19.3-19.5,19.3c-10.5-0.1-19.2-8.7-19.2-19.3
		C38.7,9.9,47.4,1.2,58.1,1.2z"/>
	<path class="st10" d="M122.7,156.6c-0.2-0.6-0.8-0.5-1.2-0.6c-5-11.9-6.1-24.5-5.3-37.2c0.8-12.7,4.8-24.7,10-36.3
		c0.7-1.6,1.6-3.2,1.9-5c3.9-6.4,7.1-13.2,11.2-19.5c1.4-2.2,2.9-4.3,4.3-6.5c0.8-1.3,1.6-1.8,2.6-0.1c1.1,1.9,2.4,3.7,3.6,5.5
		c-10.8,16.1-18.8,33.4-22.7,52.4c-1.6,7.9-1.8,16-1,24.2c0.7,7.8,2.2,15.2,5.1,22.5C128.4,156.3,125.5,155.4,122.7,156.6z"/>
	<path class="st11" d="M227.5,38c-2.4,2.5-3.8,5.7-5.4,8.6c-6.4,11.5-12.1,23.4-16.3,35.9c-0.2,0.5-0.1,1-0.2,1.5
		c-3.3,0-6.6,0-9.9,0c6.1-18.6,15-35.8,25.6-52.1c0.8-1.3,1.5-1.5,2.3,0C224.9,33.9,226.2,36,227.5,38z"/>
	<path class="st11" d="M79.8,101c-1.8-6.7-2.9-13.6-5.1-20.1c-0.2-0.7,0.2-1.5,0.3-2.3C77.6,68,81.4,57.9,87.8,49
		c2.2-3,4.7-5.7,8.1-7.5c3.3-1.7,6.6-2.3,10-0.5C94.5,48.8,90.1,61,86,73.3C83,82.3,81,91.6,79.8,101z"/>
	<path class="st11" d="M29.2,69.4c-1.1,0.7-1.4,1.9-1.9,3c-5.9,11.7-11.7,23.4-17.6,35.1c-3.1,0-6.2,0-9.6,0
		c8-16.1,15.9-31.9,24.1-48.2C26.1,63.1,27.7,66.2,29.2,69.4z"/>
	<path class="st10" d="M45.4,101.6c-2.2-4.4-4.5-8.8-6.7-13.2c1.2-0.4,1-1.6,1.3-2.5c1.9-6.3,4-12.6,7.5-18.3
		c1.4-2.3,3.1-4.5,5.2-6.2c3.2-2.6,6.2-2.7,9.6-0.5c-9.8,11.2-12.9,25-15.8,38.9C46.4,100.6,46.6,101.5,45.4,101.6z"/>
	<path class="st8" d="M0.1,175.3c9.2,0,18.5,0,27.7,0c4.1,0,6.2,1.7,6.1,5c-0.1,3.1-2.1,4.7-6.1,4.7c-9.2,0-18.5,0-27.7,0
		C0.1,181.8,0.1,178.6,0.1,175.3z"/>
	<path class="st12" d="M9.8,155.9c-3.2,0-6.4,0-9.6,0c3.9-8,7.9-16,11.8-24c3.1,0,6.2,0,9.7,0C17.6,140.1,13.7,148,9.8,155.9z"/>
	<path class="st12" d="M12,107.7c3.1,0,6.2,0,9.7,0c-4.1,8.2-8,16.1-12,24c-3.1,0-6.2,0-9.6,0C4.2,123.6,8.1,115.6,12,107.7z"/>
	<path class="st8" d="M160,272.1c4.5,0,9,0,13.6,0c3.4,0,5.4,1.8,5.5,4.7c0.1,3.1-1.9,5-5.5,5c-9.2,0-18.5,0-27.7,0
		c-3.5,0-5.6-1.9-5.5-5c0.1-2.9,2.1-4.6,5.5-4.7C150.5,272.1,155.2,272.1,160,272.1z"/>
	<path class="st8" d="M81,218.9c-4.6,0-9.3,0-13.9,0c-3.3,0-5.5-2.1-5.4-5.1c0-2.7,2.1-4.5,5.3-4.5c9.4,0,18.7,0,28.1,0
		c3.3,0,5.3,2,5.2,4.9c-0.1,2.8-2,4.7-5.1,4.7C90.5,219,85.8,218.9,81,218.9z"/>
	<path class="st8" d="M31.9,262.5c-2.5,0-5,0.1-7.6,0c-3.1-0.1-5-2.1-4.9-4.9c0-2.7,1.9-4.7,4.8-4.7c5.2-0.1,10.5-0.1,15.7,0
		c2.9,0,4.9,2.1,4.8,4.7c-0.1,2.8-2.1,4.8-5,4.9c-0.1,0-0.2,0-0.3,0C36.9,262.5,34.4,262.5,31.9,262.5z"/>
	<path class="st8" d="M120.9,272.1c1.7,0,3.4-0.1,5.1,0c2.8,0.2,4.6,2.2,4.6,4.9c-0.1,2.6-1.8,4.6-4.5,4.7c-3.4,0.1-6.8,0.1-10.2,0
		c-2.8-0.1-4.6-2.2-4.6-4.9c0.1-2.6,1.8-4.5,4.5-4.7C117.5,272,119.2,272.1,120.9,272.1z"/>
	<path class="st13" d="M148.8,156c0-6.1,0.1-12.1,0.1-18.2c0.7-1,1.6-1.8,2.6-2.5c9.4-6.6,18.7-13.3,28-20c3-2.1,3.7-2.1,6.7,0
		c9.4,6.8,18.8,13.5,28.2,20.2c1.3,0.9,2.7,1.8,2.4,3.8c0.2,5.5-0.4,11.1,0.3,16.6c0,11.3,0,22.5,0,33.7c-6.5,0-12.9,0-19.4,0
		c-1.1-1.3-0.8-2.8-0.8-4.3c0-10,0.1-20.1-0.1-30.1c-0.1-4.9-0.4-9.9-4.2-13.7c-4.4-3.9-9.3-5.2-14.8-3c-5.8,2.4-8.4,7-8.7,13
		c-0.2,4.9-0.1,9.9-0.1,14.8c0,6.4,0,12.9,0,19.3c0,1.4,0.2,2.8-0.8,4c-5.5,0-11,0-16.6,0.1c-2.3,0.1-2.9-0.6-2.9-2.9
		C148.9,176.7,148.8,166.4,148.8,156z"/>
	<path class="st4" d="M193,140.9c4.3,3.2,4.6,8.1,4.7,12.7c0.2,12,0.1,24.1,0,36.1c-6.6,0-13.3,0-19.9,0c-0.9-0.9-0.9-2-0.9-3.1
		c0-10.2-0.2-20.4,0-30.5c0.2-7.4,5.1-13.4,12.1-15.2C190.4,140.7,191.7,140.6,193,140.9z"/>
	<path class="st2" d="M256.4,163.3c3.8,7.9,5.7,16.3,7.8,24.6c0.2,0.7,0.4,1.3,0.6,2c0.1,3.5,1.4,6.8,1.2,10.4
		c-0.2,5.5-3.8,10.6-9.1,12.6c-1.6,0.9-3,0.2-4.2-0.7c-5-3.6-7.7-8.4-6.7-14.8c1.6-10.7,4.1-21.1,8.1-31.1
		C254.7,165.1,255,163.8,256.4,163.3z"/>
	<path class="st14" d="M193,140.9c-1.4,1.1-3.2,0.7-4.8,1.2c-6.1,2.1-10.3,7.7-10.3,14.1c0,11.2,0,22.4,0,33.5c-3.2,0-6.4,0-9.6,0
		c0-12.7-0.1-25.4,0-38.1c0.1-6.5,3-11.4,9.2-13.9C183.2,135.4,188.4,136.6,193,140.9z"/>
	<path class="st11" d="M256.4,163.3c-4.1,9.2-6.7,18.8-8.5,28.6c-0.8,4.4-2.3,8.8-0.1,13.2c2,3.9,4.5,7.1,9.2,7.8
		c-0.2,0.2-0.4,0.4-0.6,0.6c-3.1,2-6.6,2-9.6,0c-8.7-4.7-11-10-8.9-20.3c0.2-1.1,0.3-2.2,0.4-3.3c1.4-5,2.8-10,4.2-15
		c1.5-5.2,3.4-10.3,5.8-15.2c0.7-1.5,1.6-3.5,3.4-3.4c1.6,0.1,2.5,1.9,3.2,3.4C255.5,160.9,255.9,162.1,256.4,163.3z"/>
	<path class="st4" d="M246.8,213.5c3.2,0.9,6.4,0.8,9.6,0c0,7.9,0,15.9,0,23.8c0,3.6-1.7,5.7-4.7,5.8c-3.1,0.1-5-2.1-5-5.8
		C246.7,229.3,246.8,221.4,246.8,213.5z"/>
	<path class="st14" d="M217.7,127c2.3,1.8,5,2.2,7.9,1.7c18.1,0,36.1,0.1,54.2,0.1c5.2,0,4.5-0.7,4.5,4.4c0,1.7-0.1,3.4-0.1,5.1
		c-22.4,0-44.7,0.1-67.1,0.1c-0.1-0.2-0.2-0.3-0.3-0.5c-1.1-3.2-0.6-6.4-0.4-9.7C216.5,127.7,216.7,127,217.7,127z"/>
	<path class="st15" d="M217.1,156.1c-1.2-1.6-0.5-3.5-0.6-5.2c-0.1-4.1,0-8.2,0-12.3c0.2-0.3,0.4-0.3,0.6,0c0,0,0,0,0,0
		C217.1,144.4,217.1,150.2,217.1,156.1z"/>
	<path class="st16" d="M43.6,122.1c-2.4-4.6-4.7-9.3-7.3-14.4c3.3,0,6.2,0,9,0C44.8,112.5,44.2,117.3,43.6,122.1z"/>
	<path class="st16" d="M43.6,146.3c-2.3-4.6-4.7-9.3-7.3-14.4c2.7,0,4.9,0,7.2,0c0.2,4.1-0.4,8.2,0.6,12.2
		C44.3,144.8,44.4,145.7,43.6,146.3z"/>
	<path class="st4" d="M217.1,138.5c-0.2,0-0.4,0-0.6,0c-2.8-3.2-6.6-5.1-10-7.6c-6.9-5.2-14-10-21-15.1c-2-1.5-3.4-1.4-5.5,0.1
		c-10,7.4-20.2,14.5-30.3,21.7c-0.2,0.2-0.6,0.2-0.9,0.2c0-3.8-0.1-7.6-0.1-11.4c10.9-7.8,21.9-15.7,32.7-23.6
		c1.2-0.9,2-0.4,2.9,0.2c11.1,8,22.2,15.9,33.3,23.9C216.4,130.8,217.4,134.7,217.1,138.5z"/>
	<path class="st17" d="M58.1,15.8c0,2.8-2.2,4.9-5,4.8c-2.7-0.1-4.6-2.2-4.6-4.9c0-2.8,2.2-4.9,5-4.8C56.1,11,58.1,13.1,58.1,15.8z"
		/>
</g>
</svg>
