<?xml version="1.0" encoding="utf-8"?>
<!-- Generator: Adobe Illustrator 23.0.0, SVG Export Plug-In . SVG Version: 6.00 Build 0)  -->
<svg version="1.1" id="Layer_1" xmlns="http://www.w3.org/2000/svg" xmlns:xlink="http://www.w3.org/1999/xlink" x="0px" y="0px"
	 width="300px" height="262px" viewBox="0 0 300 262" style="enable-background:new 0 0 300 262;" xml:space="preserve">
<style type="text/css">
	.st0{fill:#BAEB6C;}
	.st1{fill:#E39180;}
	.st2{fill:#E9A897;}
	.st3{fill:#A1E52E;}
	.st4{fill:#FDD1A3;}
	.st5{fill:#FEBC86;}
	.st6{fill:#B5C3CE;}
	.st7{fill:#E3917F;}
	.st8{fill:#9EABB9;}
	.st9{fill:#F4FBFE;}
	.st10{fill:#9FABB9;}
	.st11{fill:#9FACBA;}
	.st12{fill:#FEBC85;}
	.st13{fill:#E9A997;}
</style>
<g>
	<path class="st0" d="M0.6,135.4c2.8-5.1,7.2-6.9,12.9-6.4c11.7,1,14.6-4.1,14.1-14.1c-0.4-6.7-0.1-13.4,0-20.1c0-5,2.7-8.1,7.6-9.2
		c3.5,0.5,5,3,6.2,5.9c0.3,0.7,0.3,1.5,0.5,2.3c0.9,6.1,3.2,8.5,9.5,9.1c4.6,0.4,8.4,2.4,11.4,5.9c2,2.4,3.2,5.2,3.5,8.2
		c0.4,3.1,0.6,6.2-0.2,9.3c-3,1.9-5.8,4.1-7.9,7.1c-5.8,5.5-7.2,12.4-6.9,20c0.3,10.1,0.1,20.3,0.1,30.4c0,1.5,0.3,3.2-0.9,4.5
		c-1,0.6-2,0.6-3.1,0.6c-5.7-0.1-11.5,0.4-17.2-0.3c-1.4-0.5-1.5-1.7-1.5-2.8c-0.1-1.8,0-3.7,0-5.5c0-5.2-1.6-9.7-5.4-13.4
		c-1.7-1.7-3.1-3.8-4.8-5.4c-2.7-2.5-4.1-2.5-6.7-0.1c-1.1,1-2.1,2.1-2.9,3.3c-2.7,2.8-5.3,5.7-6.7,9.4c-0.2,0.6-0.6,1.3-1.5,1.1
		C0.6,162,0.6,148.7,0.6,135.4z"/>
	<path class="st1" d="M300.6,255.6c-2.2,4.3-5.9,5.8-10.6,5.3c-2.9-0.3-5.8-0.1-8.7-0.1c-0.1-0.8,0.4-1.3,1-1.7c3.2-2.2,4-5.4,4-8.9
		c0-8.4,0-16.8,0-25.1c0-12.3-0.2-24.6,0.1-36.8c0.2-8.5-0.7-16.3-6.8-22.8c-0.2-3.6,3.3-7,7.4-7.2c0.6,0.1,1.2,0.1,1.6,0.5
		c5.1,5,10.9,9.4,12.1,17.1C300.6,202.4,300.6,229,300.6,255.6z"/>
	<path class="st2" d="M0.6,175.3c2-3.9,3.9-7.9,7.5-10.6c1.3-0.2,1.9,0.8,2.6,1.5c3.6,3.7,5.4,8.2,5.4,13.4c-0.1,25.5,0,51.1,0,76.6
		c0,1.5,0.3,3.2-0.9,4.5c-1.5,0-3.1,0-4.6,0.1c-4.8,0.4-8.2-1.5-10.1-5.9C0.6,228.4,0.6,201.8,0.6,175.3z"/>
	<path class="st3" d="M300.6,175.9c-2-6.4-6.7-10.9-11.1-15.5c-0.7-0.7-1.4-1.4-2.4-1.5c-0.9-1-0.8-2.3-0.8-3.6
		c0-4.5-0.1-8.9,0-13.4c0.1-4-0.6-7.7-3.8-10.5c-0.4-0.4-0.7-0.9-0.7-1.5c3.9-1.1,7.9-0.5,11.9-0.3c3.7,0.3,5.1,3.4,7,5.9
		C300.6,148.9,300.6,162.4,300.6,175.9z"/>
	<path class="st4" d="M205,106.7c-36.3,0-72.7,0-109,0c-2.1,1-4.3,0.4-6.2-0.3c-2.2-0.8-2.8,0.1-2.7,2.1c0,0.9,0,1.8,0,2.6
		c0,48.1,0,96.2,0,144.3c0,1.8,0.4,3.7-0.9,5.3c-2.4,0-4.7,0-7.1,0c-1-1.1-0.9-2.5-0.9-3.9c0-37.7-0.1-75.4,0-113.1
		c0.1-8.4,0-16.8,0-25.2c0-1.3-0.2-2.6,0.6-3.7c0.7-1.1,0.4-2.3,0.4-3.4c0-15.3,0-30.6,0-45.9c0-10.5,7.6-18.2,18.1-18.6
		c5.7-0.2,9.9-4.3,9.9-10.5C107,22.5,117.8,8.7,133.7,6.8c6.7-0.8,13.6-0.2,20.4-0.2C170.5,7.5,181,23,181.3,36.4
		c0.1,6,3.5,9.3,9.5,9.8c7.9,0.6,13.6,4.4,16.8,11.7c0.8,1.8,1.2,3.7,1.2,5.7c0,9.3,0.1,18.5,0,27.8c-0.1,6.9-4.9,12.9-11.3,14.4
		c2.7-0.2,5.6-1.6,8.3,0.6C205.6,106.8,205.4,106.9,205,106.7z"/>
	<path class="st0" d="M281.9,130.1c3.9,2.2,5.2,5.7,5.2,10c0,6.2,0,12.5,0,18.7c-4.2-0.2-5.7,3.2-7.7,5.9c-0.1,1-0.7,1.6-1.3,2.2
		c-4,4.3-5.6,9.4-5.5,15.2c0,2.2,0.9,4.7-1.2,6.6c-6.8,0.7-13.5,0.7-20.3,0c-1.6-1.1-1.2-2.8-1.2-4.3c0-11.1-0.2-22.2,0-33.4
		c0.1-6.4-1.5-11.9-6-16.6c-1.6-1.7-3.2-3.4-4.9-5c-2.4-2.2-3.9-2.1-6.3,0.2c-0.9,0.9-1.6,2-2.4,2.9c-2.8,2.6-5.1,5.6-6.7,9.1
		c-0.3,0.7-0.6,2.2-2,1.1c-0.5-0.9-0.6-1.9-0.6-2.8c0-7.1-0.1-14.2,0-21.4c0-1.4,0-2.8,1.4-3.6c2.2-7,6.9-10.7,14-11.1
		c5.8-0.4,8.9-3.2,9.6-8.9c0.7-5.4,2.7-7.8,7.5-9.1c4.3,0.7,7.1,4.4,7.2,9.6c0.1,7.4,0,14.8,0,22.2c0,1.2,0,2.3,0.1,3.5
		c0.6,4.4,3.4,7,7.8,7.1c4,0.1,8-0.4,11.8,1.2C281.2,129.5,281.6,129.7,281.9,130.1z"/>
	<path class="st5" d="M222.6,114.9c-0.2,0.9-0.5,1.9-0.5,2.8c0,7.7,0,15.5,0,23.2c0,0.7-0.2,1.6,0.6,2.1c0.6,0.7,0.5,1.4,0.5,2.2
		c-0.2,36.8,0,73.6-0.1,110.5c0,1.7,0.4,3.5-0.9,5c-3.3,0-6.6,0-9.9,0c-1.3-1.5-1-3.3-1-5c0-43.4,0-86.8,0-130.3c0-4.8,0-9.6,0-14.3
		c0-3.9,0-3.9-3.8-4c-0.6,0-1.2-0.1-1.7-0.4c-2.8-1.3-5.9-0.1-9.3-0.8c4.9-1.8,8.4-4.5,10.4-8.9c0.8-1.8,1.3-3.6,1.3-5.6
		c-0.1-8.9-0.3-17.8,0.1-26.6c0.3-8-6.6-17.4-17.3-17.7c-6.1-0.2-10.2-4.2-10.3-10.3c-0.3-14.9-11.1-27.4-25.3-29.6
		c-0.4-0.1-0.7-0.3-1-0.5c6,0.1,12-0.6,18,1.1c12,3.4,21.3,14.7,21.8,27.1c0.3,8.7,4.6,12.1,11.9,12.3c8.7,0.3,16.1,8.5,16.2,17.4
		c0.1,15.8,0,31.6,0,47.4C222.1,112.8,221.6,114,222.6,114.9z"/>
	<path class="st3" d="M78.7,114.9c0.8,4.8,0.3,9.6,0.4,14.5c0.1,4.7,0,9.5-0.1,14.2c-0.6,0.2-0.9-0.3-1.1-0.7
		c-2.1-6.2-7.1-10.3-11.3-14.9c-0.4-0.4-0.9-0.7-1.1-1.3c-0.2-3.9,0.4-7.8-0.6-11.6c-1.7-6.3-7.3-10.9-13.7-11.2
		c-6.4-0.3-9.7-3.5-10.2-10c-0.3-3.9-2.8-6.2-5.9-8.1c4.4-0.7,8.7-0.7,13,0.1c3.8,0.7,6.4,4.4,6.8,8.9c0.5,5.4,3.1,8.3,8.6,8.8
		C71.2,104.1,76.4,107.5,78.7,114.9z"/>
	<path class="st3" d="M281.9,130.1c-3.3-1.5-6.9-1.1-10.3-1.1c-8.7,0-11.4-2.7-11.4-11.2c0-7.1-0.2-14.2,0.1-21.3
		c0.2-5.1-2.1-8.5-6.4-10.7c4.5-0.8,8.9-0.8,13.3,0c3.9,0.8,6.5,4.4,6.6,8.6c0.1,8.2,0.1,16.4,0,24.6c0,4.2,1.6,7.2,5.3,9.4
		c1.1,0.7,2.2,0.6,3.3,0.7c3.8,0.3,7.6-0.6,11.3,0.5C289.7,129.9,285.7,128.9,281.9,130.1z"/>
	<path class="st6" d="M158.8,200.7c-2.1,0.8-4.2-0.3-6.3-0.3c-7.2,0.1-14.4,0.1-21.6,0c-7.8-0.1-13.6-5.9-13.6-13.7
		c0-8.4,0-16.7,0-25.1c0-3.3,1.2-5.8,4.2-7.4c3.3,1,4.2,3.6,4.3,6.6c0.1,4.7,0,9.3,0,14c0,4.9,0.5,5.4,5.3,5.4c1.8,0,3.7,0,5.5,0.4
		c7.3,2.1,14.4-0.8,17.6-7.7c4.2-8.9,8.2-17.9,12-27c4.8-11.4,12.9-17.4,25.5-17c1.1,1.1,0.9,2.5,0.9,3.8c0,16.4,0.1,32.7,0,49.1
		c0,5.4-1.7,8-5.6,9c-1.7-0.7-1.3-2.2-1.2-3.5c0.1-1.4,0.5-2.7,0.3-4.1c-0.3-2-1.3-3.5-3.6-3.6c-2.3-0.2-3.5,1.2-3.8,3.2
		c-0.4,2.8-0.4,5.6-0.9,8.4c-0.3,1.5-0.3,3.1-1.3,4.4c-1.7,0-3.4,0.4-5,1.1C167.3,198.5,163.1,199.9,158.8,200.7z"/>
	<path class="st2" d="M50.4,188.2c0-11.8,0.3-23.6-0.1-35.4c-0.2-8,1.5-14.8,7.7-20.2c4.1,1.8,6,5.4,7.4,9.3
		c0.9,2.5,1.1,5.1,1.1,7.8c0,35.6,0,71.1,0,106.7c0,1.5,0.3,3.2-0.9,4.5c-5.1,0-10.2,0-15.2,0c-0.9-0.9-0.9-2.1-0.9-3.2
		c0-4.9-0.1-9.8,0-14.7c-0.1-3-0.1-6,0-9c-0.1-12.2-0.1-24.4,0-36.7C49.7,194.1,48.7,191,50.4,188.2z"/>
	<path class="st1" d="M229.6,132.5c1-1.3,2-2.7,3.1-3.8c2.5-2.6,4.3-2.6,6.7-0.1c3.3,3.3,6.7,6.5,9,10.7c1.6,2.9,2.3,5.9,2.3,9.2
		c0,13.3,0,26.5,0,39.8c1.6,2.8,0.6,5.9,0.8,8.9c0.1,12.2,0.1,24.4,0,36.6c0.1,3,0.1,6,0,9c0.2,4.9,0.1,9.8,0,14.8
		c0,1.2,0,2.3-0.9,3.2c-4.7,0-9.3,0-14,0c-1.4-1.6-0.9-3.5-0.9-5.3c0-35.2-0.1-70.4,0-105.6c0-5.5-1.2-10.4-5-14.5
		C230.2,134.5,229.4,133.7,229.6,132.5z"/>
	<path class="st2" d="M229.6,132.5c1.2,1.5,2.5,3,3.6,4.5c2.3,2.9,3.4,6.3,3.4,10c0,37.9,0,75.8,0,113.8c-4.9,0-9.8,0-14.7,0
		c0-37.5,0-75,0-112.5c0-1.8,0-3.5,0.6-5.2C223.7,138.7,226.4,135.4,229.6,132.5z"/>
	<path class="st7" d="M65.6,260.8c0-35.5-0.1-71,0.1-106.6c0.1-8.4-1-15.9-7.7-21.7c2.2-2.4,3.7-5.6,7.6-5.9
		c5.9,4.5,10.8,9.8,13.5,17c0,39.1,0,78.1,0,117.2C74.6,260.8,70.1,260.8,65.6,260.8z"/>
	<path class="st5" d="M86.2,260.8c0-51.4,0-102.8-0.1-154.3c0-2.6,0.6-2.8,2.6-1.5c2.2,1.5,4.9,0.8,7.3,1.7c0,35.7,0,71.3,0,107
		c0,1.3,0,2.5,0,3.8c1,1.1,0.9,2.5,0.9,3.9c0,11.8,0,23.7,0,35.5c0,1.3,0.1,2.7-0.9,3.9C92.8,260.8,89.5,260.8,86.2,260.8z"/>
	<path class="st1" d="M15.3,260.7c0-26.5-0.2-53.1,0.1-79.6c0.1-6.8-2.4-12-7.2-16.4c0.9-2.3,2.8-3.7,4.6-5.2
		c1.3-1.1,3.2-1.2,4.3-0.1c5.1,5.1,11,9.8,12.1,17.7c0.5,3.6,0.2,7.4,0.2,11.1c1.6,2.8,0.6,5.9,0.8,8.9c0.1,12.2,0.1,24.4,0,36.6
		c0.1,3,0.1,6,0,9c0.2,4.9,0.1,9.9,0,14.8c0,1.2,0,2.3-0.9,3.3C24.6,260.7,19.9,260.7,15.3,260.7z"/>
	<path class="st2" d="M271.9,188.1c0.2-4.3-0.5-8.7,0.7-13c1.1-4.2,3.5-7.7,6.9-10.4c4.9,4.2,7.6,9.6,7.6,16c0.1,23.5,0,47,0.1,70.5
		c0,4.5-1.9,7.6-5.8,9.6c-3.1,0-6.3,0-9.4,0c-0.9-0.9-0.9-2.1-0.9-3.2c0-4.9-0.1-9.8,0-14.7c-0.1-3-0.1-6,0-9
		c-0.1-12.2-0.1-24.4,0-36.7C271.2,194.1,270.2,191,271.9,188.1z"/>
	<path class="st4" d="M205.7,106.7c1.6-1,3.5-0.3,5.1-1c0.8-0.3,1.3,0.3,1.3,1.1c0,0.9,0,1.8,0,2.6c0,50.4,0,100.9,0,151.3
		c-4.5,0.1-7-2.5-7-7.3c0-20.2,0-40.3,0-60.5c0-1.3,0-2.5-0.1-3.8c-1.1-1.1-0.9-2.5-0.9-3.9c0-17.6,0-35.2,0-52.8
		c0-1.3-0.2-2.8,0.9-3.9c0-7.3,0-14.6,0-21.9C205.3,106.7,205.5,106.7,205.7,106.7z"/>
	<path class="st8" d="M205.1,128.6c0,20.2,0,40.3,0,60.5c-6.6,2.4-13.2,4.7-19.8,7.1c-1-2.2-0.5-4,1.1-5.7c3.7-1.3,5.2-3.5,5.2-7.8
		c0-17.9,0-35.9,0-53.8C196,128,200.6,128.7,205.1,128.6z"/>
	<path class="st0" d="M96.1,260.7c0-14.4,0-28.8,0-43.2c0.8,0,1.6,0,2.4,0.1c4,0.9,6.1,3.6,6.9,7.4c0.4,1.7,0.3,3.5,0.3,5.3
		c0.1,4.8,2.3,7.4,7,8.1c1,0.1,1.9,0.3,2.9,0.6c3.3,1,5.6,3.2,6.5,6.6c0.9,3.3,0.8,6.8,0.4,10.2c-0.4,2.6-1.9,4.4-4.6,5.1
		C110.6,260.8,103.3,260.8,96.1,260.7z"/>
	<path class="st3" d="M117.8,260.8c5.3-4.1,5.7-14.8,0.8-19.3c-1.8-1.7-3.9-2-6.1-2.2c-4.6-0.5-7.6-3.6-7.6-8.2
		c0-4.1,0.4-8.3-3.3-11.2c-1-0.8-2-1.4-3.1-2.2c3.8,0,7.6-0.1,11.4,0c4.9,0.1,8.3,3.7,8.5,8.6c0,1.6-0.1,3.1,0,4.7
		c0.3,4.8,3.4,8,8.1,8.4c6,0.5,8.9,3.7,8.9,9.7c0,2.1,0.1,4.3,0,6.4c-0.2,3.3-2.3,5.5-5.6,5.5C125.8,260.9,121.8,260.8,117.8,260.8z
		"/>
	<path class="st9" d="M186.4,190.5c-0.4,1.9-0.8,3.8-1.1,5.7c-1.8,7.2-4.5,14-9.2,19.9c-2.5,3.1-5.6,5.4-9,7.2
		c-2.7,1.5-5.5,0.6-6.8-1.9c-1-2-0.1-4.9,2.4-6.1c4.4-2.2,7.3-5.7,9.5-9.9c0.9-1.8,1.6-3.7,2.4-5.6c-0.4-1.6,0.1-2.9,1.2-4
		c1.3-3.8,1.6-7.7,1.8-11.7c0.1-2.4,0.7-4.7,3.5-5.3c3.3-0.7,5.6,1.3,5.8,4.8C187,185.9,186,188.2,186.4,190.5z"/>
	<path class="st0" d="M29.3,260.8c0-6,0-12,0-18.1c0.8-0.8,1.9-0.9,3-0.9c5-0.1,10.1-0.1,15.1,0c1.1,0,2.1,0.1,3,0.9
		c0,6,0,12,0,18.1C43.4,260.7,36.3,260.7,29.3,260.8z"/>
	<path class="st0" d="M271.9,242.7c0,6,0,12,0,18.1c-7,0-14.1,0-21.1,0c0-6,0-12,0-18c0.8-0.8,1.9-0.9,3-0.9c5-0.1,10.1-0.1,15.1,0
		C270,241.8,271,241.9,271.9,242.7z"/>
	<path class="st10" d="M136.5,180.6c-3.1,1-6.3,0.6-9.5,0.3c-1.8-0.2-2.2-1.9-2.2-3.6c0-4.9-0.2-9.7,0.1-14.6
		c0.2-3.5-0.9-6.2-3.5-8.4c2.9-1.3,5.9-1.1,8.8-0.3c3.4,0.9,5,3.7,5.1,8c0.1,5.1,0,10.1,0,15.2C135.3,178.5,135.2,179.8,136.5,180.6
		z"/>
	<path class="st11" d="M175.8,195.8c-0.1,1.4-0.6,2.7-1.2,4c-5.2,1.2-10.6,0.4-15.8,0.9c0-0.3,0-0.7,0-0.7c5.1-0.7,9.7-3,14.6-4.6
		C174.1,195.1,175.4,193.8,175.8,195.8z"/>
	<path class="st12" d="M29.4,197.1c0-3,0-5.9,0-8.9c7,0,14,0,21.1,0c0,3,0,5.9,0,8.9C43.4,198.5,36.4,198.4,29.4,197.1z"/>
	<path class="st1" d="M187.8,91.5c-7.7,0.9-16.3-6.8-16.3-16.2c0-7.5,6-16.5,16.3-16.4c10.1,0.1,16.5,7.4,16.5,16.3
		C204.3,84.8,196.8,92.1,187.8,91.5z"/>
	<path class="st1" d="M146.3,91.5c-9.4,0-16.2-6.9-16.2-16.2c-0.1-9.4,7.1-16.4,16.2-16.4c9.7,0,16.5,7.8,16.5,16.3
		C162.9,85,154.3,92.3,146.3,91.5z"/>
	<path class="st1" d="M111.8,82.7c2.3,0,4.5-0.1,6.6,0c2.9,0.1,4.7,1.9,4.7,4.5c0,2.9-1.4,4.3-4.6,4.3c-5.1,0-10.1,0.1-15.2,0
		c-4.3,0-6.2-3.1-3.9-6.9c2.8-4.8,6-9.3,9-14c0.4-0.7,1.5-1.4,0.9-2.2c-0.3-0.4-1.4-0.3-2.2-0.3c-1.2,0-2.4,0.1-3.5,0
		c-2.3-0.3-4.1-1.3-4.4-3.9c-0.4-2.7,0.7-4.8,3.5-5.1c5.4-0.7,10.9-0.7,16.3,0c4,0.6,5,4.1,2.7,7.8c-2.7,4.2-5.5,8.3-8.1,12.5
		C112.8,80.3,111.8,81.1,111.8,82.7z"/>
	<path class="st13" d="M150.4,36.4c-2.3,0-4.7,0.1-7,0c-2.6-0.1-4.2-1.5-4.5-4.1c-0.3-2.5,0.8-4.3,3.3-4.7c5.6-0.9,11.2-1,16.8,0
		c2.5,0.4,3.6,2.3,3.3,4.7c-0.3,2.6-2,4-4.5,4.1C155.3,36.5,152.8,36.4,150.4,36.4z"/>
	<path class="st12" d="M271.9,188.1c0,3,0,5.9,0,8.9c-7,1.4-14,1.4-21,0c0-3,0-5.9,0-8.9C257.8,188.1,264.8,188.1,271.9,188.1z"/>
	<path class="st0" d="M29.4,197.1c7,0,14,0,21,0c0,12.2,0,24.5,0,36.7c-0.8,0.8-1.9,1-2.9,1c-5,0.1-10.1,0.1-15.1,0
		c-1.1,0-2.1-0.1-2.9-1C29.4,221.5,29.4,209.3,29.4,197.1z"/>
	<path class="st12" d="M29.4,233.8c7,0,14,0,21,0c0,3,0,5.9,0,8.9c-7,0-14,0-21.1,0C29.3,239.7,29.3,236.7,29.4,233.8z"/>
	<path class="st0" d="M250.8,197.1c7,0,14,0,21,0c0,12.2,0,24.5,0,36.7c-0.8,0.9-1.9,1-2.9,1c-5,0.1-10.1,0.1-15.1,0
		c-1.1,0-2.1-0.2-2.9-1C250.8,221.5,250.8,209.3,250.8,197.1z"/>
	<path class="st12" d="M250.8,233.8c7,0,14,0,21,0c0,3,0,5.9,0,8.9c-7,0-14,0-21.1,0C250.8,239.7,250.8,236.7,250.8,233.8z"/>
	<path class="st4" d="M187.6,82.7c-3.9-0.1-7.2-3.5-7.1-7.4c0.1-4,3.6-7.3,7.6-7.2c4,0.1,7.2,3.4,7.1,7.4
		C195,79.5,191.6,82.8,187.6,82.7z"/>
	<path class="st4" d="M153.5,75.2c0,4.2-3.1,7.4-7.3,7.5c-3.9,0-7.3-3.3-7.4-7.2c-0.1-4,3.3-7.4,7.5-7.4
		C150.4,68,153.5,71.1,153.5,75.2z"/>
</g>
</svg>
