<?xml version="1.0" encoding="utf-8"?>
<!-- Generator: Adobe Illustrator 23.0.0, SVG Export Plug-In . SVG Version: 6.00 Build 0)  -->
<svg version="1.1" id="Layer_1" xmlns="http://www.w3.org/2000/svg" xmlns:xlink="http://www.w3.org/1999/xlink" x="0px" y="0px"
	 width="452px" height="162.7px" viewBox="0 0 452 162.7" style="enable-background:new 0 0 452 162.7;" xml:space="preserve">
<style type="text/css">
	.st0{fill:#FFFFFF;stroke:#FFFFFF;stroke-miterlimit:10;}
	.st1{fill:#253B80;}
	.st2{fill:#179BD7;}
	.st3{fill:#222D65;}
</style>
<path class="st0" d="M414,162.7H38c-21,0-38-17-38-38V38C0,17,17,0,38,0h376c21,0,38,17,38,38v86.7C452,145.7,435,162.7,414,162.7z"
	/>
<path class="st1" d="M175.4,54.1h-22.4c-1.5,0-2.8,1.1-3.1,2.6l-9,57.3c-0.2,1,0.5,2,1.6,2.1c0.1,0,0.2,0,0.3,0h10.7
	c1.5,0,2.8-1.1,3.1-2.6l2.4-15.5c0.2-1.5,1.5-2.6,3.1-2.6h7.1c14.7,0,23.2-7.1,25.4-21.3c1-6.2,0-11-2.9-14.4
	C188.6,56,182.9,54.1,175.4,54.1L175.4,54.1z M178,75c-1.2,8-7.4,8-13.3,8h-3.4l2.4-15c0.1-0.9,0.9-1.6,1.8-1.6h1.5
	c4,0,7.8,0,9.8,2.3C178.1,70.1,178.5,72.2,178,75L178,75z M242.3,74.7h-10.7c-0.9,0-1.7,0.7-1.8,1.6l-0.5,3l-0.7-1.1
	c-2.3-3.4-7.5-4.5-12.6-4.5c-11.8,0-21.9,9-23.9,21.5c-1,6.3,0.4,12.3,4,16.4c3.3,3.8,7.9,5.4,13.5,5.4c9.5,0,14.8-6.1,14.8-6.1
	l-0.5,3c-0.2,1,0.5,2,1.5,2.1c0.1,0,0.2,0,0.3,0h9.6c1.5,0,2.8-1.1,3.1-2.6l5.8-36.6c0.2-1-0.5-2-1.5-2.1
	C242.5,74.8,242.4,74.7,242.3,74.7L242.3,74.7z M227.3,95.6c-1,6.1-5.9,10.2-12.1,10.2c-3.1,0-5.6-1-7.2-2.9
	c-1.6-1.9-2.2-4.5-1.7-7.5c1-6.1,5.9-10.3,12-10.3c3,0,5.5,1,7.1,2.9C227.2,89.9,227.8,92.6,227.3,95.6L227.3,95.6z M299.3,74.7
	h-10.8c-1,0-2,0.5-2.6,1.4L271.1,98l-6.3-21c-0.4-1.3-1.6-2.2-3-2.2h-10.6c-1,0-1.9,0.8-1.9,1.9c0,0.2,0,0.4,0.1,0.6l11.9,34.8
	l-11.1,15.7c-0.6,0.8-0.4,2,0.4,2.6c0.3,0.2,0.7,0.3,1.1,0.3h10.7c1,0,2-0.5,2.6-1.3l35.8-51.7c0.6-0.8,0.4-2-0.5-2.6
	C300,74.9,299.7,74.7,299.3,74.7L299.3,74.7z"/>
<path class="st2" d="M334.9,54.1h-22.4c-1.5,0-2.8,1.1-3.1,2.6l-9,57.3c-0.2,1,0.5,2,1.5,2.1c0.1,0,0.2,0,0.3,0h11.5
	c1.1,0,2-0.8,2.1-1.8l2.6-16.3c0.2-1.5,1.5-2.6,3.1-2.6h7.1c14.7,0,23.2-7.1,25.5-21.3c1-6.2,0-11-2.9-14.4
	C348,56,342.4,54.1,334.9,54.1L334.9,54.1z M337.5,75c-1.2,8-7.3,8-13.3,8h-3.4l2.4-15c0.1-0.9,0.9-1.6,1.8-1.6h1.5
	c4,0,7.8,0,9.8,2.3C337.6,70.1,338,72.2,337.5,75L337.5,75z M401.8,74.7h-10.7c-0.9,0-1.7,0.7-1.8,1.6l-0.5,3l-0.8-1.1
	c-2.3-3.4-7.5-4.5-12.6-4.5c-11.8,0-21.9,9-23.9,21.5c-1,6.3,0.4,12.3,4,16.4c3.3,3.8,7.9,5.4,13.5,5.4c9.5,0,14.8-6.1,14.8-6.1
	l-0.5,3c-0.2,1,0.5,2,1.5,2.1c0.1,0,0.2,0,0.3,0h9.6c1.5,0,2.8-1.1,3.1-2.6l5.8-36.6c0.2-1-0.5-2-1.6-2.1
	C401.9,74.8,401.9,74.7,401.8,74.7L401.8,74.7z M386.8,95.6c-1,6.1-5.9,10.2-12.1,10.2c-3.1,0-5.6-1-7.2-2.9
	c-1.6-1.9-2.2-4.5-1.7-7.5c1-6.1,5.9-10.3,12-10.3c3,0,5.5,1,7.1,2.9C386.7,89.9,387.3,92.6,386.8,95.6z M414.4,55.6l-9.2,58.4
	c-0.2,1,0.5,2,1.5,2.1c0.1,0,0.2,0,0.3,0h9.2c1.5,0,2.8-1.1,3.1-2.6l9-57.3c0.2-1-0.5-2-1.5-2.1c-0.1,0-0.2,0-0.3,0h-10.3
	C415.3,54.1,414.5,54.7,414.4,55.6z"/>
<path class="st1" d="M48.1,127.3l1.7-10.9l-3.8-0.1H27.8l12.6-80.1c0.1-0.5,0.5-0.9,1-0.9h30.7c10.2,0,17.2,2.1,20.9,6.3
	c1.7,2,2.8,4,3.3,6.3c0.6,2.4,0.6,5.2,0,8.6l0,0.3V59l1.7,1c1.3,0.7,2.5,1.6,3.5,2.7c1.5,1.7,2.4,3.8,2.8,6.3
	c0.4,2.6,0.3,5.7-0.4,9.2c-0.8,4-2.1,7.5-3.8,10.4c-1.5,2.6-3.5,4.8-6,6.5c-2.3,1.6-5,2.8-8,3.6c-3,0.8-6.3,1.2-10,1.2h-2.4
	c-1.7,0-3.4,0.6-4.7,1.7c-1.3,1.1-2.2,2.7-2.4,4.3l-0.2,1l-3,19.1l-0.1,0.7c0,0.2-0.1,0.3-0.2,0.4c-0.1,0.1-0.2,0.1-0.3,0.1
	L48.1,127.3z"/>
<path class="st2" d="M99.7,57.1c-0.1,0.6-0.2,1.2-0.3,1.8c-4,20.8-17.9,27.9-35.6,27.9h-9c-2.2,0-4,1.6-4.3,3.7l-4.6,29.2l-1.3,8.3
	c-0.2,1.3,0.7,2.4,1.9,2.6c0.1,0,0.2,0,0.4,0h16c1.9,0,3.5-1.4,3.8-3.2l0.2-0.8l3-19.1l0.2-1c0.3-1.9,1.9-3.2,3.8-3.2h2.4
	c15.5,0,27.6-6.3,31.1-24.4c1.5-7.6,0.7-13.9-3.2-18.4C102.8,59.1,101.4,57.9,99.7,57.1L99.7,57.1z"/>
<path class="st3" d="M95.5,55.4c-1.3-0.4-2.6-0.7-3.9-0.9c-2.6-0.4-5.3-0.6-7.9-0.6h-24c-1.9,0-3.5,1.4-3.8,3.2l-5.1,32.4l-0.1,0.9
	c0.3-2.1,2.2-3.7,4.3-3.7h9c17.7,0,31.5-7.2,35.6-27.9c0.1-0.6,0.2-1.2,0.3-1.8c-1.1-0.6-2.2-1-3.3-1.4
	C96.1,55.6,95.8,55.5,95.5,55.4L95.5,55.4z"/>
<path class="st1" d="M55.8,57.2c0.3-1.9,1.9-3.2,3.8-3.2h24c2.8,0,5.5,0.2,7.9,0.6c1.6,0.3,3.3,0.6,4.8,1.2c1.2,0.4,2.3,0.9,3.3,1.4
	c1.2-7.7,0-12.9-4.2-17.6C91,34.2,82.7,32,72.2,32H41.5c-2.2,0-4,1.6-4.3,3.7l-12.8,81c-0.2,1.4,0.8,2.8,2.2,3c0.1,0,0.3,0,0.4,0
	h18.9l4.8-30.2L55.8,57.2z"/>
</svg>
