<?xml version="1.0" encoding="utf-8"?>
<!-- Generator: Adobe Illustrator 23.0.0, SVG Export Plug-In . SVG Version: 6.00 Build 0)  -->
<svg version="1.1" id="Layer_1" xmlns="http://www.w3.org/2000/svg" xmlns:xlink="http://www.w3.org/1999/xlink" x="0px" y="0px"
	 width="300px" height="300px" viewBox="0 0 300 300" style="enable-background:new 0 0 300 300;" xml:space="preserve">
<style type="text/css">
	.st0{fill:#FEDB90;}
	.st1{fill:#FED88A;}
	.st2{fill:#FED688;}
	.st3{fill:#FEDE95;}
	.st4{fill:#FED586;}
	.st5{fill:#FEDD93;}
	.st6{fill:#FED483;}
	.st7{fill:#FEDB8F;}
	.st8{fill:#FED88B;}
	.st9{fill:#FCC77A;}
	.st10{fill:#FEEBC2;}
	.st11{fill:#FEE4B2;}
	.st12{fill:#FEEDC5;}
	.st13{fill:#FEF6E2;}
	.st14{fill:#FEEFD1;}
	.st15{fill:#FECB73;}
	.st16{fill:#FED17E;}
	.st17{fill:#FED07C;}
	.st18{fill:#FECC75;}
	.st19{fill:#FEC96F;}
	.st20{fill:#FECE79;}
	.st21{fill:#FED17F;}
	.st22{fill:#FECF79;}
	.st23{fill:#FECA72;}
	.st24{fill:#FEC970;}
	.st25{fill:#FED382;}
	.st26{fill:#FECD77;}
	.st27{fill:#FED281;}
	.st28{fill:#F9AA55;}
	.st29{fill:#FBB661;}
	.st30{fill:#FECA78;}
	.st31{fill:#FEC56E;}
	.st32{fill:#FDBB62;}
	.st33{fill:#FDC774;}
	.st34{fill:#F7A553;}
	.st35{fill:#E1ECF1;}
	.st36{fill:#FEE6A4;}
	.st37{fill:#FEDF98;}
	.st38{fill:#FEE4A0;}
	.st39{fill:#FEE29D;}
	.st40{fill:#FEE39E;}
	.st41{fill:#FEE099;}
	.st42{fill:#FEE19B;}
	.st43{fill:#FEE5A3;}
	.st44{fill:#FEE5A4;}
	.st45{fill:#BED8E8;}
	.st46{fill:#D7E7EF;}
	.st47{fill:#D9E8EF;}
	.st48{fill:#BFD9E9;}
	.st49{fill:#C5DCEA;}
	.st50{fill:#CADFEC;}
	.st51{fill:#CDE1EC;}
	.st52{fill:#C4DBEA;}
	.st53{fill:#F7B571;}
	.st54{fill:#C8DEEB;}
	.st55{fill:#FBCB87;}
	.st56{fill:#FDD189;}
	.st57{fill:#FDD58E;}
	.st58{fill:#FAC47F;}
	.st59{fill:#FDD996;}
	.st60{fill:#7ECBFC;}
	.st61{fill:#FAB96C;}
	.st62{fill:#FCC275;}
	.st63{fill:#FBBE71;}
	.st64{fill:#77C7FB;}
	.st65{fill:#73C5FB;}
	.st66{fill:#79C9FC;}
	.st67{fill:#74C6FB;}
	.st68{fill:#FCBE6C;}
	.st69{fill:#6CC2FA;}
	.st70{fill:#6FC3FA;}
	.st71{fill:#71C4FA;}
	.st72{fill:#FBB15A;}
	.st73{fill:#FCBC66;}
	.st74{fill:#FDC16A;}
	.st75{fill:#FDC572;}
	.st76{fill:#76C7FB;}
	.st77{fill:#77C8FB;}
	.st78{fill:#F9AC5A;}
	.st79{fill:#F6A757;}
	.st80{fill:#FECE78;}
	.st81{fill:#F7A350;}
	.st82{fill:#F59E4C;}
	.st83{fill:#F5A04F;}
	.st84{fill:#FECA71;}
	.st85{fill:#FCB75F;}
	.st86{fill:#75C6FB;}
	.st87{fill:#79C8FB;}
	.st88{fill:#7BCAFC;}
	.st89{fill:#7AC9FC;}
	.st90{fill:#FDC270;}
	.st91{fill:#FAB969;}
	.st92{fill:#FCBD6C;}
	.st93{fill:#FAB15D;}
	.st94{fill:#7CCAFC;}
	.st95{fill:#7DCBFC;}
	.st96{fill:#72C5FB;}
	.st97{fill:#C2E2F4;}
	.st98{fill:#BEE0F5;}
	.st99{fill:#C8E4F4;}
	.st100{fill:#F8B36C;}
	.st101{fill:#FDCB85;}
	.st102{fill:#FAB972;}
	.st103{fill:#CDE6F3;}
	.st104{fill:#F18D45;}
	.st105{fill:#FBBE77;}
	.st106{fill:#AECAE0;}
	.st107{fill:#D2E4EE;}
	.st108{fill:#D0E2ED;}
	.st109{fill:#B6D0E3;}
	.st110{fill:#FCC27A;}
	.st111{fill:#D3E4EE;}
	.st112{fill:#DAE8EF;}
	.st113{fill:#F8CE8D;}
	.st114{fill:#B8CCDF;}
	.st115{fill:#A4C4DD;}
	.st116{fill:#C4D6E4;}
	.st117{fill:#BACFE1;}
	.st118{fill:#94B3D2;}
	.st119{fill:#CEDDE9;}
	.st120{fill:#D0DFEA;}
	.st121{fill:#FBC884;}
	.st122{fill:#FCCF8B;}
	.st123{fill:#FAC27D;}
	.st124{fill:#FDD591;}
	.st125{fill:#FBC681;}
	.st126{fill:#F9BD78;}
	.st127{fill:#F7B873;}
	.st128{fill:#F19B57;}
	.st129{fill:#F5AF6B;}
	.st130{fill:#F4A965;}
	.st131{fill:#FEDC99;}
	.st132{fill:#FAC078;}
	.st133{fill:#FBC67E;}
	.st134{fill:#FCCC84;}
	.st135{fill:#F4AE6A;}
	.st136{fill:#F8B974;}
	.st137{fill:#F9BF7A;}
	.st138{fill:#F7B36E;}
	.st139{fill:#FAC37C;}
	.st140{fill:#FCC77E;}
	.st141{fill:#FDD793;}
	.st142{fill:#F2A967;}
	.st143{fill:#FAB770;}
	.st144{fill:#F9BF7B;}
	.st145{fill:#F8AF68;}
	.st146{fill:#78C8FB;}
	.st147{fill:#67BFF9;}
	.st148{fill:#62BCF9;}
	.st149{fill:#5EB9F8;}
	.st150{fill:#6DC2FA;}
	.st151{fill:#6AC0F9;}
	.st152{fill:#59B7F7;}
	.st153{fill:#66BEF9;}
	.st154{fill:#53B4F6;}
	.st155{fill:#FE6103;}
	.st156{fill:#FD6204;}
	.st157{fill:#49AEF5;}
	.st158{fill:#50B2F6;}
	.st159{fill:#FE6606;}
	.st160{fill:#42A9F3;}
	.st161{fill:#FE6505;}
	.st162{fill:#B7D4E6;}
	.st163{fill:#81C5F3;}
	.st164{fill:#F9DB9C;}
	.st165{fill:#3FA8F4;}
	.st166{fill:#68BFF9;}
	.st167{fill:#82CDFC;}
	.st168{fill:#91D2FA;}
	.st169{fill:#88CFFB;}
	.st170{fill:#97D3F9;}
	.st171{fill:#FE8E1C;}
	.st172{fill:#4EB1F6;}
	.st173{fill:#84C9F5;}
	.st174{fill:#91D1F9;}
	.st175{fill:#99D3F7;}
	.st176{fill:#88CAF6;}
	.st177{fill:#87CAF6;}
	.st178{fill:#8CCFF9;}
	.st179{fill:#FECB74;}
	.st180{fill:#F49B4B;}
	.st181{fill:#F19648;}
	.st182{fill:#54B4F6;}
	.st183{fill:#9DCBEA;}
	.st184{fill:#B9DFF5;}
	.st185{fill:#B9D7EB;}
	.st186{fill:#AFD5ED;}
	.st187{fill:#A9C4DB;}
	.st188{fill:#FCC680;}
	.st189{fill:#99B7D4;}
	.st190{fill:#B1CEE2;}
	.st191{fill:#BDD5E6;}
	.st192{fill:#9DBCD8;}
	.st193{fill:#C6DCEA;}
	.st194{fill:#ABCAE1;}
	.st195{fill:#BED8E9;}
	.st196{fill:#A4C3DD;}
	.st197{fill:#B4D1E5;}
	.st198{fill:#F39952;}
	.st199{fill:#FBCE8A;}
	.st200{fill:#FCC47E;}
	.st201{fill:#FE7C12;}
	.st202{fill:#FE6908;}
	.st203{fill:#FE8215;}
	.st204{fill:#FE760E;}
	.st205{fill:#FE6E0A;}
	.st206{fill:#FE720C;}
	.st207{fill:#FE8618;}
	.st208{fill:#FE6F0A;}
	.st209{fill:#FE8014;}
	.st210{fill:#FE780F;}
	.st211{fill:#FE730D;}
	.st212{fill:#FE6A07;}
	.st213{fill:#FD8C1E;}
	.st214{fill:#FE770F;}
	.st215{fill:#FE7F13;}
	.st216{fill:#FE6B08;}
	.st217{fill:#FE710C;}
	.st218{fill:#FE901E;}
	.st219{fill:#FE8B1A;}
	.st220{fill:#9DD0F0;}
	.st221{fill:#FE8617;}
	.st222{fill:#FE8718;}
	.st223{fill:#FE6B09;}
	.st224{fill:#FE7D12;}
	.st225{fill:#FE740D;}
	.st226{fill:#FE8115;}
	.st227{fill:#FE7810;}
	.st228{fill:#FE6F0B;}
	.st229{fill:#FD6708;}
	.st230{fill:#8CD0FA;}
	.st231{fill:#8FCFF7;}
	.st232{fill:#97D1F6;}
	.st233{fill:#91CDF3;}
	.st234{fill:#A2D7F7;}
	.st235{fill:#94CDF3;}
	.st236{fill:#9AD1F4;}
	.st237{fill:#AADAF7;}
	.st238{fill:#B1DCF6;}
	.st239{fill:#B3DDF6;}
	.st240{fill:#45ABF3;}
	.st241{fill:#FC8D21;}
	.st242{fill:#5DB9F8;}
	.st243{fill:#58B6F7;}
	.st244{fill:#91C8ED;}
	.st245{fill:#94C9ED;}
	.st246{fill:#99CDEF;}
	.st247{fill:#8BC1E8;}
</style>
<g>
	<path class="st0" d="M300.6,127.1c0,6.8,0,13.7,0,20.5c-2.5,1.6-5.4,0.7-8.1,0.8c-1.8,0-3.6,0.1-5.4,0c-1.8,0.1-3.6,0.1-5.4,0
		c-1.9,0-3.8,0.4-5.4-0.9c-0.6-0.9-0.7-2-0.7-3.1c0-4.7,0-9.5,0-14.2c0-1.2,0-2.3,0.8-3.3c0.8-0.7,1.8-0.8,2.8-0.8
		c6.1-0.1,12.3-0.1,18.4,0C298.7,126.2,299.7,126.4,300.6,127.1z"/>
	<path class="st1" d="M0.6,172.3c0-6.6,0-13.3,0-19.9c2.4-1.5,5-0.7,7.5-0.8c1.8,0,3.6-0.1,5.4,0c1.8,0,3.6-0.1,5.4,0
		c2,0.1,4.2-0.5,6,0.9c0.6,0.9,0.7,2,0.7,3.1c0,4.5,0,9.1,0,13.6c0,1.2,0,2.3-0.8,3.3c-0.8,0.7-1.8,0.8-2.8,0.8
		c-6.1,0.1-12.3,0.1-18.4,0C2.5,173.2,1.4,173,0.6,172.3z"/>
	<path class="st2" d="M300.6,165.8c0,5.7,0,11.3,0,17c-0.8,0.7-1.7,0.9-2.7,0.9c-6.3,0.1-12.6,0.1-19,0c-0.8,0-1.6-0.2-2.2-0.6
		c-1.4-1.4-0.8-3.2-0.9-4.9c0-2.5,0-5.1,0-7.6c0.1-1.5-0.1-3,0.3-4.4c0.2-0.4,0.4-0.6,0.7-0.8c1.7-0.7,3.4-0.5,5.1-0.5
		c4.9,0,9.9,0,14.8,0C298.1,164.9,299.5,164.8,300.6,165.8z"/>
	<path class="st3" d="M300.6,127.1c-8,0-16,0-23.9,0c-0.9-0.7-1-1.7-1-2.7c0-4.4-0.3-8.8,0.2-13.2c0.4-1.7,1.7-2,3.1-2
		c6.7,0,13.4-0.3,20.1,0.1c0.3,0.1,0.7,0.2,0.9,0.5c0.8,1.4-0.2,3,0.6,4.3C300.6,118.6,300.6,122.9,300.6,127.1z"/>
	<path class="st4" d="M0.6,172.3c8,0,16,0,23.9,0c1.4,5.5,2.1,11.1,2.6,16.8c0,0.1-0.2,0.3-0.4,0.4c-7.3,0.3-14.7,0.1-22,0.1
		c-0.9,0-1.7-0.3-2.4-0.9c-0.8-2.1-0.8-4.3-1.2-6.4c-0.6-0.9,0.2-2.1-0.5-3C0.6,177,0.6,174.6,0.6,172.3z"/>
	<path class="st5" d="M0.6,117.8c0.2-0.2,0.4-0.4,0.7-0.6c0.5-1,1.4-0.9,2.3-0.9c6.3,0.1,12.7,0,19,0.1c1,0,2,0.1,2.8,0.7
		c0.5,5.6,0.7,11.2-0.7,16.7c-7.8,1.4-15.6,0.9-23.4,0.3c-0.3,0-0.5-0.3-0.7-0.5c0-3.3,0-6.6,0-10c0.5-1.6,0.5-3.1,0-4.7
		C0.6,118.6,0.6,118.2,0.6,117.8z"/>
	<path class="st6" d="M276.7,182.8c8,0,16,0,23.9,0c0,0.8,0,1.6,0,2.3c-0.5,1.4-0.5,2.7,0,4.1c0,1.4,0,2.7,0,4.1
		c-1.5,1.9-0.6,4.5-1.7,6.5c-7.6-0.7-15.1-0.4-22.7-0.2c-0.6,0-1.1-0.1-1.5-0.5c-0.6-3.5,0.5-6.9,0.9-10.3
		C275.7,186.9,275,184.6,276.7,182.8z"/>
	<path class="st7" d="M0.6,133.6c8,0,16,0,23.9,0c0.4,0.3,0.7,0.7,0.7,1.2c0.3,4.3,0.8,8.6-0.4,12.8c-1.6,1.4-3.6,0.9-5.4,0.9
		c-1.8,0-3.6,0.1-5.4,0c-1.8,0.1-3.6,0.1-5.4,0c-2.7-0.2-5.5,0.7-8.1-0.8C0.6,143,0.6,138.3,0.6,133.6z"/>
	<path class="st8" d="M300.6,165.8c-8,0-16,0-23.9,0c-1.2-0.9-0.8-2.3-1-3.5c0-2.4,0.1-4.9,0-7.3c0-0.5,0-1.1,0.1-1.6
		c0.1-0.5,0.3-1,0.8-1.4c1.9-0.9,3.8-0.5,5.8-0.5c1.6-0.1,3.2,0,4.7,0c2-0.1,3.9-0.1,5.9,0c2.5,0.1,5.2-0.7,7.5,0.9
		C300.6,156.8,300.6,161.3,300.6,165.8z"/>
	<path class="st9" d="M0.6,147.7c2.7,0,5.5,0,8.2,0c1,1.7,0.4,3.2-0.6,4.7c-2.5,0-5.1,0-7.6,0C0.6,150.8,0.6,149.2,0.6,147.7z"/>
	<path class="st9" d="M300.6,152.3c-2.5,0-5.1,0-7.6,0c-0.9-1.5-1.5-3-0.6-4.7c2.7,0,5.5,0,8.2,0
		C300.6,149.2,300.6,150.8,300.6,152.3z"/>
	<path class="st10" d="M0.6,118.9c0.9,1.6,0.9,3.1,0,4.7C0.6,122.1,0.6,120.5,0.6,118.9z"/>
	<path class="st11" d="M300.6,189.3c-1-1.4-0.9-2.7,0-4.1C300.6,186.5,300.6,187.9,300.6,189.3z"/>
	<path class="st12" d="M300.6,114.3c-1.1-1.3-0.4-2.7-0.5-4.1c0.2-0.2,0.4-0.2,0.5,0C300.6,111.5,300.6,112.9,300.6,114.3z"/>
	<path class="st13" d="M300.6,110.2c-0.2,0-0.4,0-0.5,0c0,0-0.1,0-0.1,0c-0.8-1.2-1-2.4,0.1-3.5c0.2,0,0.4,0,0.5,0
		C300.6,107.8,300.6,109,300.6,110.2z"/>
	<path class="st14" d="M0.6,179.3c1,0.8,0.5,2,0.5,3c-0.2,0-0.4,0-0.5,0C0.6,181.3,0.6,180.3,0.6,179.3z"/>
	<path class="st15" d="M261.3,263.7c-1.3,1.1-2.4,2.4-4.1,2.9c-12.5-0.3-25.1,0-37.6-0.2c-6-0.1-12.1,0.3-18.1-0.2
		c-2-0.7-2.5-2.3-2.5-4.2c2.7-1.6,5.8-1.2,8.8-1.6c9.5-1.4,18.5-4.5,27-8.8c3-1.1,5.5-3.1,8-5.1c0.5-0.3,1-0.6,1.6-0.4
		c2.4,2.5,4.8,4.9,7.3,7.4c1.7,1.8,3.5,3.5,5.3,5.3C258.3,260.4,260.4,261.5,261.3,263.7z"/>
	<path class="st16" d="M296,212.7c-1.3,5.2-3.1,10.2-5.8,14.8c-7.9,0.4-15.8,0.2-23.6,0.1c-0.8,0-1.5-0.2-2.2-0.6
		c-1.4-1-0.6-2-0.1-3c1.3-2.2,2.6-4.4,3.6-6.8c2.1-3.8,3.3-7.9,4.6-11.9c0.3-1,0.3-2.2,1.5-2.7c2.4,1.7,5.3,2.6,8,3.8
		c2.3,1.2,4.7,1.9,7.1,2.9C291.3,210.6,294.1,210.8,296,212.7z"/>
	<path class="st17" d="M26.3,230.9c-3.7-3.4-7.6-6.6-10-11.1c0.5-2,2.2-1.6,3.5-1.6c6.7-0.1,13.4,0,20.1,0c2.8,0,5.6,0,8.4-0.3
		c1.2,0,2.3,0.5,3.3,1.1c3.3,1.6,6.4,3.5,10,4.4c2.7,1.3,5.9,0.9,8.5,2.5c0.6,1.7-0.9,2.5-1.6,3.6c-0.8,0.7-1.6,1.2-2.7,1.3
		C52.8,230.6,39.6,230.3,26.3,230.9z"/>
	<path class="st18" d="M122.5,259c-4.5-1.5-9-3.1-13.6-4.6c0.6-1.6,1.5-3,1.8-4.7c0.9-1.8,1.2-4.2,3.6-4.9c10-0.5,20.1-0.1,30.1-0.2
		c1,0,1.9,0,2.9-0.2c0.8,0,1.5,0.2,1.8,1c0.1,3.2,0,6.4,0,9.5c0,1.1,0,2.2-0.8,3.1c-1.2,0.8-2.6,0.7-4,0.7c-6.4,0-12.9,0-19.3,0
		C124.2,258.7,123.3,258.4,122.5,259z"/>
	<path class="st19" d="M203.9,285.4c-7,1.2-14,0.3-20.9-0.7c-10.5-1.5-20.7-4.3-30.1-9.4c-0.7-1.1-0.9-2.1,0.2-3
		c13.2,0.9,26.4,0.2,39.6,0.4c1.7,0,3.5-0.1,5.2,0.2c3.2,1.1,3,4.4,4.4,6.6C202.7,281.5,204.3,283.2,203.9,285.4z"/>
	<path class="st20" d="M263.8,226.2c1.9,0.8,4,0.6,6,0.6c5.8,0,11.6,0,17.4,0c1,0,2.2-0.3,2.9,0.7c-1.9,5.3-4.9,9.9-8.4,14.4
		c-8.6-0.2-17.2-0.1-25.7-0.1c-1.5,0-2.9,0.2-4.3-0.5c-1.3-1.3,0.2-1.9,0.7-2.8c1.7-1.4,2.8-3.3,4.3-4.8c0.7-0.6,1.3-1.3,1.9-2
		c1.4-1.3,2-3.2,3.3-4.5C262.6,226.7,263.1,226.2,263.8,226.2z"/>
	<path class="st21" d="M49.2,218.6c-9.8,1.2-19.7,0.3-29.6,0.6c-1.1,0-2.4-0.4-3.3,0.7c-2.7-2.7-4.4-6.2-6.3-9.5
		c1.3-1.7,3.5-1.8,5.2-2.8c2-0.7,3.8-1.6,5.7-2.5c1.9-0.8,4-1.4,5.9-2.3c1.7-0.7,3.3-1.7,5.3-1.7c0.6,0.1,1.1,0.4,1.5,0.8
		c1,1.4,1.9,2.9,3.1,4.2c1.1,1.8,2.7,3.1,4.2,4.6c1.8,1.9,3.7,3.7,5.9,5.2C47.5,216.7,49.2,216.8,49.2,218.6z"/>
	<path class="st22" d="M26.3,230.9c0.6-1.4,1.8-1.2,3-1.2c11.3,0,22.6,0,34,0c1.1,0,2.3,0.4,3.4,0.6c0.1,2.3-2.1,2.9-3.1,4.4
		c-1.6,1.5-3.2,3.1-4.7,4.7c-2.5,2.1-4.3,5-7.3,6.6C42.1,242.7,33.6,237.9,26.3,230.9z"/>
	<path class="st23" d="M201,265.4c17.7,0,35.4,0,53.1,0c1.1,0,2.6-0.8,3.2,1c-4,2.6-7.9,5.6-12.3,7.7c-1.4-0.9-3-0.8-4.5-0.8
		c-12,0.1-23.9-0.2-35.9,0.1c-1.4-0.3-1.8-1.4-2.3-2.5C201.8,269.2,200,267.6,201,265.4z"/>
	<path class="st24" d="M203.9,273c1.5-0.4,3-0.6,4.6-0.6c11.1,0,22.2,0,33.4,0.1c1.2,0,3.2-0.9,3,1.7c-11.3,6.2-23.5,9.6-36.3,11
		c-1.8-2.2-2.2-4.9-3.4-7.3C204.7,276.3,203.3,274.9,203.9,273z"/>
	<path class="st25" d="M2.3,188.7c7.2,0,14.3,0,21.5,0c1.1,0,2.1-0.1,3.1,0.6c1.8,0.7,1.5,2.5,2.3,3.8c0.2,0.5,0.4,1,0.6,1.5
		c0.2,1,1.2,1.9,0.7,3.1c-1.6,1-3.4,1.3-5,2.1c-1.6,0.5-3,1.4-4.6,1.9c-2.2,0.9-4.4,1.7-6.6,2.7c-2,0.7-3.7,2.2-6,1.9
		C5.1,200.8,3.2,194.9,2.3,188.7z"/>
	<path class="st26" d="M105.5,253.6c-7.4-1.7-14.8-2.6-22.3-2.9c-3.3-0.6-6.7,0.2-10-0.5c-5.6,0.2-11-0.9-16.3-2.5
		c0.1-2.7,1.5-4,4.3-4.1c1.7,0.4,3.5,0.4,5.2,0.4c12.4,0,24.7,0,37.1,0c1.5,0,2.9-0.1,4.3,0.4c1.2,0.6,0.9,1.7,0.6,2.7
		C107.5,249.2,106.8,251.5,105.5,253.6z"/>
	<path class="st26" d="M251.4,240.5c4,0.7,8.1,0.2,12.2,0.3c5,0.1,10.1,0,15.1,0c1.1,0,2.4-0.3,3.1,1c-2.3,2.5-3.7,5.6-6.3,7.8
		c-0.9,0.7-1.9,0.9-3,0.9c-5.9,0-11.8,0.2-17.7-0.1c-3.4-0.9-5.3-3.6-7.2-6.2c-0.1-0.3-0.1-0.6,0-0.9c0.2-0.7,0.8-1.2,1.2-1.8
		C249.6,241.2,250,239.6,251.4,240.5z"/>
	<path class="st15" d="M122.5,259c-0.5-2.1,1.2-1.1,1.8-1.1c8-0.1,16,0,24-0.1c1.5,1.8,0.8,3.9,0.9,5.9c-0.2,3.1,0.8,6.3-0.8,9.3
		c-5.3-3.1-10.5-6.2-15.9-9.1C129.1,262.1,125.8,260.6,122.5,259z"/>
	<path class="st18" d="M253.7,249.6c7.2,0,14.5,0,21.7,0c-2.9,4.7-7.1,8.1-11.2,11.6c-2-1.7-3.7-3.7-5.6-5.4
		c-1.7-1.9-3.7-3.4-5.1-5.5C253.5,250.1,253.5,249.8,253.7,249.6z"/>
	<path class="st27" d="M276,199.2c0.5-0.6,1.2-0.6,1.8-0.6c6.3,0,12.6,0,18.9,0c1,0,2-0.1,2.2,1.3c-0.9,2.7-0.2,5.6-1.7,8.2
		c-2.6,1.2-4.4-1.3-6.7-1.6c-2.4-0.9-4.8-2.1-7.2-3c-1.8-0.7-3.5-1.5-5.2-2.3C277.1,200.9,275.9,200.6,276,199.2z"/>
	<path class="st28" d="M148.3,273c0-3.1,0-6.2,0-9.3c1.6-1.1,3.2-1.1,4.9-0.1c1,3,1.3,5.9-0.2,8.9c0,1,0,1.9,0,2.9
		C151.2,274.9,149.8,273.9,148.3,273z"/>
	<path class="st29" d="M60.4,243.8c-1.4,1.1-3,2.1-3.5,4c-1.9-0.2-3.5-1-5.2-1.8c2.1-2.5,4.4-4.9,7-7c1.3,0.7,2,2,3.1,2.9
		C61.8,243,61.3,243.5,60.4,243.8z"/>
	<path class="st30" d="M290.6,205.7c2.3,0.5,4.1,2.3,6.6,2.4c-0.1,1.6-0.5,3.2-1.2,4.7c-2.5-0.7-5-1.4-7.1-3
		C289.6,208.5,289.7,206.9,290.6,205.7z"/>
	<path class="st31" d="M259,255.5c1.9,1.8,4.3,3.2,5.3,5.8c-0.7,1.1-1.9,1.7-3,2.4c-1.8-1.3-3.3-2.9-4.6-4.7
		C257.1,257.6,257.5,256.2,259,255.5z"/>
	<path class="st32" d="M205.7,277.7c1.2,2.4,2.5,4.8,2.9,7.5c-1.6,0-3.1,0.1-4.7,0.1c-0.8-1.8-1.6-3.5-2.3-5.3
		C202.9,279.2,204.4,278.7,205.7,277.7z"/>
	<path class="st33" d="M8.1,206.3c2-0.8,4-1.6,6-2.4c1,1.2,1.3,2.6,1.2,4.1c-1.5,1.3-3.4,1.6-5.2,2.3C9.4,209,8.7,207.6,8.1,206.3z"
		/>
	<path class="st34" d="M105.5,253.6c-0.2-2.5,1.4-4.3,2.3-6.3c1,1.2,2.5,1.8,3.5,2.9c-0.7,1.5-0.5,3.4-2.4,4.2
		C107.8,254.1,106.6,253.9,105.5,253.6z"/>
	<path class="st20" d="M73.2,250.2c3.3,0.2,6.7-0.6,10,0.5C79.8,250.6,76.5,251.2,73.2,250.2z"/>
	<path class="st35" d="M91.4,36.9c10.9,0,21.9,0,32.8,0c0.1,0,0.3-0.1,0.4-0.1c2.4-0.1,4.8-0.2,7.2,0.1c0.4,0.1,0.8,0.2,1.2,0.4
		c0.9,0.3,1.8,0.8,2.6,1.4c0.8,0.6,1.4,1.4,2,2.2c0.3,0.4,0.5,0.7,0.7,1.2c0.7,1.8,0.9,3.7,0.4,5.6c-2,5-4.1,6.4-9.5,6.4
		c-1.8,0-3.7,0-5.5,0c-10.6,0-21.2,0-31.8,0c-2.3,0-4.7-0.1-7,0.1c-1.3,0.2-2.3-0.4-3.5-0.8c-0.6-0.3-1.1-0.7-1.4-1.3
		C80,51.9,80,51.7,80,51.5c-0.2,0.5,0.2,0.8,0.2,1.2c0.5,4.5,0.2,9.1,0.2,13.6c0,0.2-0.1,0.4-0.1,0.5c0,0.3-0.4,0.5-0.2,0.9
		c0.1-0.3,0.3-0.5,0.5-0.7c0.2-0.2,0.5-0.3,0.7-0.5c0.8-0.4,1.6-0.8,2.5-1.1c2.6-0.5,5.2,0.2,7.8-0.6c2.2-0.4,4.5-0.2,6.8-0.2
		c1.7,0,3.5-0.1,5.2,0c1.2,0,2.4,0,3.7,0c1.9-0.1,3.8,0,5.8,0c1.7-0.1,3.5,0,5.2,0c1.9,0,3.8-0.3,5.6,0.4c0.3,0.2,0.5,0.4,0.5,0.8
		c-1.3,2-3.7,1.7-5.6,2.5c-1.3,0.6-2.7,0.8-4.1,1.2c-4.5,1.3-9.2,1.9-13.8,3c-8,1.3-16,1.6-24.1,1.3c-0.8-0.1-1.5-0.2-2-0.8
		c-0.3-0.4-0.5-0.9-0.5-1.4c-0.1-6.5-1.1-13-0.8-19.5c0-1.1,0.3-2.1,0.9-3c0-7.9-0.1-15.7,0.1-23.5c0-2.7,0.1-5.6,1.8-8
		c1-1.5,2.2-2.6,4-3.1c0.6,4.8,0.1,9.7,0.3,14.5c0.1,1.9-0.1,3.9,0,5.8c0,0.9-0.3,2.1,1.1,2.3c0.6,0,1.2-0.2,1.8-0.3
		c2.2-0.4,4.4-0.2,6.5-0.2C90.5,36.7,90.9,36.8,91.4,36.9z"/>
	<path class="st36" d="M209.1,14.8c12.6,1.4,24.4,5.1,35.7,10.8c5.9,3,11.5,6.5,16.5,10.8c-0.3,1.2-1.3,1.8-2.1,2.7
		c-1.4,1.3-2.7,2.7-4.1,4.1c-1.6,1.6-3.2,3.1-4.7,4.8c-2.3,1.8-3.6,4.7-6.6,5.6c-4.1-1.8-7.6-4.7-11.7-6.6
		c-8.7-4.1-17.8-6.9-27.5-7.5c-1.7-0.1-3.3-0.3-4.8-1.1c-1-1.4,0-2.6,0.5-3.8c0.8-1.5,1.4-3.1,2-4.6c0.7-1.4,1.3-2.7,1.8-4.2
		c0.9-1.7,1.3-3.7,2.2-5.4C207.4,18.5,207.5,16.3,209.1,14.8z"/>
	<path class="st36" d="M152.9,24.7c9.7-5,20-8,30.7-9.5c4.1-0.6,8.3-1.1,12.4-1.1c2.8,0,5.6-0.1,8.4,0.5c0.5,1.7-0.9,2.8-1.2,4.3
		c-0.7,1.5-1.2,3.1-1.9,4.6c-0.9,1.7-1.5,3.5-2.2,5.3c-0.6,1.4-1.4,2.8-1.8,4.3c-1,1.8-1.1,4.1-3,5.4c-3.6,1.2-7.5,1.1-11.2,1.9
		c-9.2,2-18,5-26,10.1c-1.3,0.8-2.5,1.9-4.2,1.9c-0.7-0.5-0.7-1.3-0.6-2c0.1-0.7,0.2-1.4,0.6-2c1.3-2,0.7-3.6-0.5-5.3
		c-0.1-0.3-0.2-0.6-0.2-0.9c-0.1-1.6-0.1-3.2-0.1-4.9c-0.1-1.9-0.1-3.8,0-5.7C152.2,29.2,151.5,26.8,152.9,24.7z"/>
	<path class="st36" d="M264.3,38.7c8.1,6.9,15.3,14.6,20.5,24c-1.3,1.2-2.9,0.9-4.4,0.9c-7.8,0.2-15.6-0.3-23.4,0.3
		c-0.6,0.3-1.4,0.4-1.9-0.1c-2.4-2.7-5.9-4.4-7.4-7.9c1.1-2.5,3.5-3.8,5-5.9c1.7-1.4,3.2-3.1,4.8-4.6c1.4-1.3,2.7-2.7,4.1-4.1
		C262.5,40.5,263.2,39.4,264.3,38.7z"/>
	<path class="st37" d="M25.3,117.2c-8,0-16,0-24,0c1-8.7,3.2-17,7.5-24.7c1.3,0.7,2.6,1.4,3.9,1.9c1.7,0.9,3.5,1.5,5.3,2.2
		c2,0.8,3.9,1.8,5.9,2.4c2.2,1.2,4.9,1.4,6.5,3.7c0.3,1.1-0.2,2.1-0.6,3.1c-1.3,2.9-2.2,6-3,9C26.5,115.7,26.7,117,25.3,117.2z"/>
	<path class="st38" d="M21.1,74.4c4.2-4.9,8.9-9.2,14.6-12.3c4.7-0.6,9.5-0.1,14.2-0.2c2.6-0.1,5.2,0.2,7.8-0.3
		c0.3-0.2,0.6-0.2,0.9-0.3c2.3,0.5,3.3,2.7,4.9,4c1.4,1.5,2.8,2.9,4.3,4.3c0.8,0.8,1.6,1.5,2.3,2.4c0.5,0.7,1.4,1.4,0.3,2.4
		c-3.8,0.9-7.4,2.6-11.4,2.1c-0.9-0.6-1.9-0.4-2.8-0.4c-10.3-0.1-20.6,0-30.9-0.1C23.9,75.9,22.1,76.2,21.1,74.4z"/>
	<path class="st39" d="M291.8,75.6c2,3.9,3.3,8.1,4.6,12.3c-1.5,1.1-3.3,1.4-5,2.2c-1.4,0.6-2.8,1.2-4.2,1.8
		c-1.9,0.8-3.9,1.5-5.8,2.3c-1.4,0.6-2.8,1.2-4.2,1.8c-1.2,0.3-2.2,1.3-3.5,1.4c-1.5-1.3-1.4-3.3-2-5c-1.5-4.1-3-8.2-5.1-12
		c-0.6-1.2-1.4-2.4-0.9-3.8c0.6-1,1.6-1.2,2.5-1.2c7.6-0.1,15.1-0.2,22.7,0C291.2,75.4,291.5,75.5,291.8,75.6z"/>
	<path class="st38" d="M291.8,75.6c-1.1,0.7-2.2,0.6-3.4,0.6c-6.5,0-13,0-19.5,0c-1,0-2.5-0.6-2.8,1.2c-0.7,0.2-1.1-0.3-1.4-0.8
		c-2.5-3.9-5.2-7.6-8.1-11.1c-0.4-0.4-0.7-0.9-0.4-1.6c0.4-1.8,1.8-1.2,2.8-1.2c8.6,0,17.3,0,25.9,0
		C287.9,66.6,289.8,71.1,291.8,75.6z"/>
	<path class="st40" d="M21.1,74.4c1.1,0.7,2.4,0.6,3.7,0.6c10.5,0,21.1,0,31.6,0c1.2,0,2.6-0.4,3.4,1.1c-0.2,0.7-0.8,1.1-1.4,1.4
		c-4.6,2.2-9.3,4.2-13.2,7.7c-0.7,0.7-1.7,0.8-2.7,0.7c-8.3,0-16.5,0-24.7,0c-1.6,0-3.4,0.3-4.4-1.5C15.5,80.7,17.8,77.2,21.1,74.4z
		"/>
	<path class="st41" d="M300.1,106.6c0,1.2-0.1,2.4-0.1,3.5c-6.9,0-13.8,0-20.7,0c-1.1,0-2.5-0.5-2.8,1.3c-0.9-0.1-1.1-0.7-1.2-1.4
		c-0.2-3-1.1-5.9-0.9-8.9c1.2-1.6,3.2-1.6,4.7-2.6c1.7-0.4,3.2-1.2,4.8-1.9c1.6-0.5,3.1-1.2,4.6-1.8c1.5-0.6,3-1.2,4.5-1.8
		c1.4-0.3,2.5-1.4,4-1.7C299,96.3,299.2,101.5,300.1,106.6z"/>
	<path class="st42" d="M13.4,84.3C14.5,85,15.8,85,17,85c7.8,0,15.6,0,23.4,0c1,0,2.2-0.4,3,0.7c0.2,1-0.5,1.6-1.1,2.2
		c-3.1,3-5.9,6.1-8.3,9.6c-0.4,0.7-1,1.2-1.9,1.2c-2.4-0.8-4.8-1.7-7.2-2.6c-1.8-1-3.9-1.6-5.8-2.4c-1.3-0.8-2.8-1.1-4.2-1.8
		c-1.5-1-3.7-0.9-4.6-2.8C11.2,87.3,12,85.6,13.4,84.3z"/>
	<path class="st43" d="M74.4,49.3c0.2,8,0.4,15.9,0.6,23.9c-0.2,0.2-0.5,0.2-0.7,0c-0.6-2.6-2.4-4.3-4.3-5.9c-1-1.4-2.3-2.5-3.5-3.7
		c-1.5-1.6-3.1-3.1-4.7-4.7c-1.1-1.3-2.4-2.3-3.6-3.5c-0.7-1.1-1.9-1.7-2.6-2.8c5.1-1.7,10.3-2.6,15.7-2.9
		C72.3,49.7,73.4,49.8,74.4,49.3z"/>
	<path class="st44" d="M58.6,61.6c-0.1,1-0.9,1.1-1.7,1.1c-6.4,0-12.9,0-19.3,0c-0.6,0-1.3-0.4-1.9-0.6c4.8-3.7,10.2-6.1,15.9-8.1
		c1.7,0.6,2.7,2.1,3.8,3.3C56.2,58.9,58.1,59.7,58.6,61.6z"/>
	<path class="st35" d="M124.2,36.9c0.3-5.6-0.7-11.2,0.6-16.7c0.7-2.7,2.2-4.9,5.3-5.5c0.8,4.8,0.2,9.6,0.3,14.5
		c0,2.6,0.6,5.2-0.7,7.7C127.9,37.4,126.1,37.3,124.2,36.9L124.2,36.9z"/>
	<path class="st45" d="M137.6,41.6c-0.2-0.2-0.4-0.4-0.5-0.6c-0.6-7.2-0.2-14.5-0.2-21.7c0-1.1-0.2-2.8,1.9-2.3
		c1.7,1.8,1.9,3.9,1.9,6.2c-0.1,2.6,0,5.2,0.1,7.9c0.2,0.3,0.4,0.6,0.5,0.9c0.4,1.8,0.2,3.7,0.2,5.5c-0.2,2,0.3,4-0.3,5.9
		C138.8,44.9,138.6,42.5,137.6,41.6z"/>
	<path class="st46" d="M129.5,36.9c0-6.3,0-12.6,0-18.9c0-1.2-0.1-2.3,0.6-3.4c1.6-0.7,3.1-1.1,4.7,0c-0.2,0.3-0.4,0.6-0.7,0.8
		c-1.2,0.7-0.8,1.9-0.8,2.9c0,5,0,9.9,0,14.9c0,1.3,0.1,2.6-0.7,3.7C131.6,37.3,130.5,37.4,129.5,36.9z"/>
	<path class="st47" d="M82,38.1c-1,0.4-2.3,1.2-2.3-0.7c0-7.3-0.3-14.6,0.2-21.9c0-0.3,0.2-0.5,0.4-0.8c1.6-0.7,3.1-1.1,4.7,0
		c-0.3,0.5-0.7,0.7-1.2,0.9c-1.3,0.7-0.8,1.9-0.8,2.9c0,5.3,0,10.5,0,15.8C82.9,35.5,83,36.9,82,38.1z"/>
	<path class="st48" d="M91.4,36.9c-0.2,0.2-0.4,0.4-0.6,0.6c-0.8-0.6-2.2,0.2-2.8-1.1c-0.8-5.8-0.3-11.7-0.3-17.5
		c0-0.8,0.1-1.8,1.3-1.9c1.9,2,2.3,4.5,2.3,7C91.4,28.3,91.4,32.6,91.4,36.9z"/>
	<path class="st49" d="M138.8,17c-1.6,0.3-1.1,1.6-1.1,2.6c0,6,0,12,0,18.1c0,1.2,0.1,2.3-0.6,3.4c-0.6-0.6-1.2-1.2-1.7-1.8
		c-0.6-7.4-0.2-14.8-0.2-22.3c0-0.7,0.3-1.3,0.8-1.8C137.2,15.4,138,16.2,138.8,17z"/>
	<path class="st36" d="M140.8,31.7c0-0.2,0-0.4,0-0.6c2.8-0.9,4.9-3,7.5-4.1c1.2,1.3,0.8,3,0.8,4.5c0,1.8,0,3.6-0.1,5.4
		c0,0.5-0.1,0.9-0.4,1.3c-0.1,0.3-0.4,0.5-0.6,0.6c-1.1,0-1.7-0.9-2.4-1.5c-0.6-0.7-1.3-1.3-1.9-1.9
		C142.7,34.2,141.8,32.9,140.8,31.7z"/>
	<path class="st50" d="M135.9,15.2c0,6.9,0,13.8,0,20.7c0,1.2,0.1,2.3-0.6,3.4c-0.8-0.3-1.3-1.2-2.3-1.2c0.6-6.4,0.1-12.8,0.3-19.2
		c0-1.4-0.2-3,0.9-4.2c0.2,0,0.4,0,0.6,0C135.2,14.7,135.7,14.7,135.9,15.2z"/>
	<path class="st51" d="M83.8,14.7c0.4,0,0.8,0,1.2,0c0.6,0,1.3-0.1,1.7,0.6c-0.8,5.8-0.1,11.6-0.4,17.4c-0.1,1.4,0.3,2.9-0.7,4.2
		c-0.7,0.4-1.4,0.4-2.1-0.1c-0.6-0.7-0.6-1.6-0.6-2.5c0-5.7,0-11.3,0-17C82.9,16.4,83.1,15.4,83.8,14.7z"/>
	<path class="st52" d="M89,17c-0.9,0.9-0.5,2-0.5,3c0,5.6,0,11.2,0,16.9c-0.7,0.4-1.4,0.5-2.1-0.2c-0.6-6.5-0.2-13.1-0.2-19.6
		c0-0.7,0.2-1.4,1.2-1.3C88.2,15.9,88.7,16.2,89,17z"/>
	<path class="st53" d="M148.3,31.6c0-1.6,0-3.1,0-4.7c1.5-0.8,3.1-1.5,4.6-2.3c0,2.3,0,4.7,0,7C151.4,32.7,149.8,32.7,148.3,31.6z"
		/>
	<path class="st54" d="M87.4,15.8c-1,0.8-0.6,2-0.6,3c0,6,0,12.1,0,18.1c-0.4,0.3-0.8,0.3-1.2,0c0-6.4,0-12.8,0-19.1
		c0-1-0.5-2.3,1.2-2.5C86.9,15.4,87.1,15.6,87.4,15.8z"/>
	<path class="st55" d="M202.7,18.8c0.2-1.5,1.2-2.7,1.7-4.1c1.6,0,3.1,0.1,4.7,0.1c-0.5,2-1.2,4-2.3,5.7
		C205.1,20.8,203.9,19.9,202.7,18.8z"/>
	<path class="st56" d="M10.5,89c1.4,1.1,3.5,1,4.8,2.4c-1.1,1-1.6,2.7-2.9,3.5c-1.2-0.8-3.2-0.4-3.6-2.5C9.1,91.2,9.6,90,10.5,89z"
		/>
	<path class="st57" d="M297.1,91.4c-0.7,1.5-2.3,1.6-3.5,2.4c-0.9-1.3-1.8-2.6-2.3-4.1c1.6-0.9,3.2-1.9,5.2-1.7
		C296.6,89.1,296.9,90.2,297.1,91.4z"/>
	<path class="st58" d="M55.1,57.4c-1.4-1-2.5-2.1-3.5-3.5c1.3-0.6,2.6-1.1,4-1.3c1.5,0.2,2.3,1.2,3,2.4
		C57.6,56.2,56.5,57.1,55.1,57.4z"/>
	<path class="st59" d="M264.3,38.7c-0.1,1.5-1.3,2.2-2.3,2.9c-1.9-0.1-2.9-1-2.9-2.9c0.6-1,1.3-1.8,2.3-2.3
		C262.4,37.1,263.6,37.6,264.3,38.7z"/>
	<path class="st60" d="M274.9,100.8c0.5,3.5,1,7.1,1.6,10.6c0,5.2,0.1,10.5,0.1,15.7c0,6.8,0,13.7,0,20.5c1,1.6,1,3.1,0,4.7
		c-0.1,0.4-0.1,0.8-0.2,1.2c-1,0.3-1.5-0.5-2.1-0.9c-1.3-1.3-2.6-2.6-3.9-3.9c-1.2-1.2-2.3-2.4-3.5-3.6c-1-1-2-2-3-3
		c-1.1-1.2-2.3-2.3-3.5-3.5c-1-1-1.9-2-3-2.8c-0.8-0.8-1.5-1.7-2.4-2.4c-1.5-1.6-3-3.3-4.6-4.8c-3.2-3.1-6-6.4-9.5-9.2
		c-1.7-1.2-2.8-3-4.1-4.5c-3.2-3.6-7.3-6.1-11.5-8.4c-0.5-0.3-1-0.5-1.5-0.8c-10.7-4.4-21.5-4.3-32.2,0c-1.1,0.4-2.1,1.1-3.3,1.2
		c-0.3,0-0.6-0.1-0.8-0.2c-3.3-3.6-6.8-6.9-10.2-10.3c-1.4-1.4-2.8-2.8-4.2-4.2c-1.7-1.8-3.5-3.5-5.3-5.3c-2.1-2.2-4.3-4.3-6.4-6.4
		c-1.7-1.8-3.5-3.5-5.3-5.3c-1.5-1.6-3.1-3.2-4.7-4.7c-1.6-1.6-3.1-3.2-4.8-4.7c-1.8-2-4-3.7-5.6-5.9c-0.1-0.3-0.2-0.5-0.2-0.8
		c0-0.3,0.1-0.5,0.2-0.8c1.1-1.3,2.7-1.7,4.1-2.5c1.2-0.6,2.4-1.1,3.5-1.9c1.4-0.7,2.6-2,4.3-2c10.3-6.6,21.3-11.2,33.5-13
		c2.7-0.4,5.4-0.6,8.1-0.9c1.7-1,3.5-1.2,5.2,0c16.3,0.8,31.2,5.7,44.5,15.2c1.6,0.2,2.7,1.1,3.4,2.5c2.8,2.7,5.6,5.4,8.3,8.1
		c3.7,4.2,6.9,8.8,10,13.5c3.4,6.4,6.1,13,8.1,20C275.2,98.3,275.5,99.5,274.9,100.8z"/>
	<path class="st61" d="M276.7,152.3c0-1.6,0-3.1,0-4.7c1.7,0,3.5,0,5.2,0c1.2,1.4,1.8,2.9,0.6,4.6
		C280.5,152.3,278.6,152.3,276.7,152.3z"/>
	<path class="st62" d="M292.4,147.7c0,1.6,0.9,3.1,0.6,4.7c-2,0-3.9,0-5.9,0c-1.1-1.6-1.1-3.1,0-4.7
		C288.9,147.7,290.6,147.7,292.4,147.7z"/>
	<path class="st63" d="M287.1,147.7c0,1.6,0,3.1,0,4.7c-1.6,0-3.1,0-4.7,0c0.3-1.6-0.5-3.1-0.6-4.7
		C283.6,147.7,285.3,147.7,287.1,147.7z"/>
	<path class="st60" d="M32.4,98.6c3.1-4.8,7-8.9,11-12.9c4.8-4.3,10.5-7,16.4-9.5c3.7-0.8,7.4-1.6,11.1-2.4c1.1-0.9,2.3-0.8,3.5-0.1
		c0.3,0.2,0.5,0.5,0.6,0.9c0.5,5.6,0.1,11.3,0.3,16.9c0,2.9,0,5.9,0,8.8c-0.1,8.7-0.9,17.4-0.5,25c0.1-4.7-0.2-10.5,0.1-16.3
		c1.6-1.3,3.4-1.2,5.3-1.2c17.3,0.5,34.5,0.1,51.8,0.2c2.2,0,4-0.8,5.2-2.7c0.4-0.4,0.8-0.8,1.4-1c2.6-0.4,2.9,1.3,2.9,3.2
		c0.1,6.1,0,12.2,0,18.3c-0.2,5-2.1,7.5-6.7,8.4c-1.5,0-2.9,0-4.4,0c-1.8,0-3.1-1-4.3-2.1c-1.2-1.2-2-2.6-2.1-4.4
		c-0.2-5.2,0.4-10.3-0.4-15.5c-0.2-0.2-0.5-0.4-0.7-0.6c-2-0.6-4-0.3-6.1-0.3c-7.1-0.1-14.1,0-21.2,0c-1.1,0-2.1-0.2-3.1,0.3
		c-0.8,0.6-0.9,1.4-0.9,2.3c0.1,4.1-0.1,8.3,0.1,12.4c0.1,1-0.1,1.9-0.4,2.8c-1.3,2.6-3.2,4.5-6.1,5.1c-1.1,0-2.2-0.5-3.3,0.1
		c1.6,2.8,4.3,4.5,6.3,6.8c2,2,4,4,6,6c1.1,1.1,2.3,2.3,3.4,3.4c0.8,0.8,1.5,1.7,1.1,3c-2.8,3.1-5.3,3.5-8.8,1.5
		c-0.8-0.5-1.6-1.1-2.4-1.7c-3.3-2.2-6.7-2.3-10.2-0.4c-0.8,0.4-1.5,0.9-2.2,1.4c-3.8,2.5-5.8,2.6-9.6-0.1c-2.5-1.8-5-2.9-8.2-2.4
		c-2,0.3-3.7,1.3-5.2,2.5c-2.7,2.2-5.6,2.6-8.6,0.7c-0.9-0.5-2.1-1.3-2.8,0c-0.8,1.4,0.4,2.2,1.3,2.8c3,2,6.1,2.3,9.4,0.7
		c1.1-0.6,2.1-1.4,3.2-2.1c2.6-1.8,5.4-2,7.9,0c3.7,3,7.7,3.6,12.1,2.5c1.1,0,2.1-0.2,2.4-1.5c2.7-2.8,5.6-3.5,8.5-1.1
		c5.2,4.1,10.2,4.3,15.4,0.3c0.2-0.2,0.5-0.2,0.8-0.3c3.2,0,4.3,3.1,6.4,4.6c2.9,3,5.9,5.9,8.9,8.9c0.6,0.6,1.1,1.2,1.4,2
		c1.2,3.3,4.1,5.2,6.2,7.6c1.6,1.9,3.7,3.5,5.5,5.2c2.4,2.2,3.6,2.2,6-0.1c5.7-5.6,11.3-11.3,17-16.9c3.7-3.7,7.3-7.3,11-10.9
		c1.7-1.6,3.1-3.4,4.3-5.4c2,1.8,1.9,4.6,3.2,6.8c1.6,4.1,4.1,7.7,7.3,10.8c1.3,1.3,2.5,2.7,3.6,4.2c0.6,0.7,1.2,1.3,2,1.8
		c0.2,0.2,0.4,0.3,0.6,0.5c2.8,3.4,6.2,6.4,9.3,9.6c1.4,1.6,3.2,2.9,4.4,4.7c0.3,0.7,0.3,1.3-0.3,1.8c-1.8,0.9-3.8,0.6-5.8,0.6
		c-52.5,0-105.1,0-157.6,0c-2.1,0-4.3-0.2-6.3,0.9c-0.6-1.4-1.2-2.8-1.8-4.2c-1.4-5.6-2.4-11.2-2.3-17c0-6.6,0-13.3,0-19.9
		c-1-1.6-1-3.1,0-4.7c0-4.7,0-9.4,0-14.1c0.1-5.5,0-11,0.7-16.4c1.2-5,2.8-9.8,4.7-14.5C30.4,101.1,30.8,99.5,32.4,98.6z"/>
	<path class="st61" d="M24.5,147.7c0,1.6,0,3.1,0,4.7c-1.9,0-3.8,0-5.8,0c-1.2-1.7-0.6-3.2,0.6-4.6
		C21.1,147.7,22.8,147.7,24.5,147.7z"/>
	<path class="st62" d="M8.2,152.3c-0.3-1.6,0.5-3.1,0.6-4.7c1.8,0,3.5,0,5.3,0c1.1,1.7,1.3,3.3-0.6,4.7
		C11.7,152.3,10,152.3,8.2,152.3z"/>
	<path class="st63" d="M13.5,152.3c0.9-1.5,0.5-3.1,0.6-4.7c1.8,0,3.5,0,5.3,0c0,1.6-0.9,3-0.6,4.6C17,152.3,15.2,152.3,13.5,152.3z
		"/>
	<path class="st64" d="M263.8,226.2c-0.4,0.4-0.8,0.9-1.2,1.3c-2.9-0.9-6-0.5-9-0.6c-3.2-0.1-4.2-1.4-3.2-4.5
		c0.5-1.4,0.7-2.4-0.5-3.7c-1.6-1.8-0.2-3.5,0.6-5.1c0.8-1.4,1.7-2.6,1-4.3c-0.2-0.4-0.1-1,0.1-1.4c2.2-3.2,2.7-7.3,5.4-10.3
		c1.2-1.4,2.2-3,2.5-4.9c0.3-1.6,1.3-2.8,2.5-3.9c3.8-3.8,7.5-7.7,11.4-11.3c1.1-1,1.8-2,1.7-3.5c0-0.6,0-1.2,0-1.8
		c0-0.6,0.1-1.2,0.4-1.7c0.2-0.3,0.5-0.3,0.8-0.2c0,2.6,0,5.1,0,7.7c0.7,4.4-1.8,7.2-4.8,9.8c-2.1,1.8-3.7,3.9-4.1,6.8
		c-0.5,3.3-2.6,6-4.2,8.9c-1.7,3.2-1.6,3.8,0.9,6.3c0.2,0.2,0.6,0.4,0.6,0.6c-0.3,3,1.8,4.8,3.5,6.8
		C267.5,220.7,265.2,223.2,263.8,226.2z"/>
	<path class="st65" d="M276,170.5c0,0.6,0,1.2,0,1.8c-5.5,5.8-11.3,11.3-16.9,17c-3.6,3.7-5.9,8.4-9,12.5c-1.1,1.5-2,3.3-3.1,4.9
		c-1,1.5-2.4,2.8-2,4.9c0.1,0.8-0.6,1.4-1,2.1c-1.3,2-2.3,4-2.7,6.5c-0.5,2.8-2.4,5.6-5.5,7c-0.3,0-0.6,0-0.8-0.1
		c-0.6-0.3-1.1-0.8-1.7-1.2c-1.4-1.4-3-2.5-3.4-4.5c0.8-3.2,2.9-5.7,4.4-8.6c4.1-7.8,10.3-14.1,14.8-21.7c0.5-0.8,1.2-1.5,1.9-2.2
		c7.5-7.5,14.8-15,22.5-22.3c1.4-1.3,1.2-3.5,3-4.3c0.1,1.2,0.1,2.3,0.2,3.5c-0.1,0.2-0.1,0.4-0.2,0.6
		C275.9,167.7,276.7,169.2,276,170.5z"/>
	<path class="st66" d="M268.4,217.4c-0.2-0.3-0.4-0.8-0.7-0.9c-2.4-0.6-5.2-0.7-2.7-4.4c0.6-0.9-0.7-1.1-1.3-1.6
		c-2.8-2.3-3-3.8-1.2-7c2-3.7,4.6-7.2,4.8-11.6c0-0.7,0.5-1.2,1-1.7c0.6-0.6,1.2-1.2,1.9-1.9c2.9-3,6.7-5.3,6.4-10.2
		c0.1,1.6,0.1,3.1,0.2,4.7c-0.1,5.5-0.8,11-1.7,16.4c0.6,1.4,0.3,2.5-0.8,3.5C272.4,207.7,271.3,212.9,268.4,217.4z"/>
	<path class="st67" d="M276,170.5c0.2-1.4-0.5-2.8,0.5-4.1c0,1.4,0,2.7,0,4.1C276.3,170.5,276.1,170.5,276,170.5z"/>
	<path class="st68" d="M274.2,202.7c0.3-1.2,0.5-2.3,0.8-3.5c0.3,0,0.7,0,1,0c2.3,1.8,5,2.4,7.6,3.5c0.8,2,0.4,3.4-1.8,4.1
		c-2-0.7-4-1.4-5.9-2.1C275,204.4,274.2,203.8,274.2,202.7z"/>
	<path class="st69" d="M274.8,152.3c0.6,0.4,1.1,0.8,1.7,1.2c0,0.4,0,0.8,0,1.2c0.3,3.3-1.5,5.4-3.8,7.6c-9.1,8.8-18,17.9-26.9,26.8
		c-1.4,1.4-2.6,2.9-3.4,4.7c-1.4,3.3-4.5,5.3-6.5,8.2c-2.9,4.2-6.1,8.3-9.3,12.4c-0.5,0.7-1.1,1.4-2,1.6c-1.3,0-2-1-3-1.5
		c-1-0.8-2.1-1.5-2.4-2.9c-0.1-1.5,0.8-2.6,1.7-3.6c9.3-10.4,17.6-21.5,27.9-31.1c7.8-7.2,15.1-15,22.6-22.5
		C272.4,153.5,273.1,152,274.8,152.3z"/>
	<path class="st70" d="M224.4,215.6c3.5-3,5.5-7.2,8.5-10.7c2.5-2.8,5-5.8,7-8.9c8.7-13.1,21.5-22.5,31.9-34c2-2.2,4.7-4,4.7-7.4
		c0,2.5,0,5.1,0,7.6c-0.2,2.6-1.9,4.2-3.7,5.8c-4.9,4.8-9.5,9.8-14.6,14.4c-6.5,6-11.1,13.4-16.5,20.3c-4.5,5.8-7.7,12.4-11.5,18.6
		c-1.9,0.2-2.5-1.6-3.7-2.5c-0.6-0.7-1.3-1.3-1.9-2C224.4,216.6,224.1,216.2,224.4,215.6z"/>
	<path class="st70" d="M235.5,251.9c-11.2,6.5-23.5,9.4-36.3,10.1c-1.5,1.2-3.3,0.7-5,0.8c-11.1-0.8-21.7-3.4-31.6-8.3
		c-1.3-0.6-3.2-0.9-2.7-3.2c1-1.4,2.5-1.4,4-1.4c22.6,0,45.2-0.1,67.8,0C233.1,249.9,235.1,249.5,235.5,251.9z"/>
	<path class="st71" d="M235.5,251.9c-0.6-1.2-1.7-1.1-2.8-1.1c-23.3,0-46.6,0-69.8,0c-1.2,0-2.4-0.1-3,1.3c-3.1-0.2-5.2-2.4-7.7-4
		c-0.7-0.8-0.9-1.5,0.3-2c1.4-0.5,2.9-0.4,4.4-0.4c27.1,0,54.2,0,81.3,0c1.7,0,3.5-0.4,5,1C241.1,249.1,238.5,250.7,235.5,251.9z"/>
	<path class="st71" d="M243.2,246.7c-29.9,0-59.8,0-89.7,0c-0.7,0-1.4,0.1-2,0.1c-1.3,0.4-2.2-0.1-2.8-1.3c-0.4-0.2-0.7-0.4-1.1-0.5
		c-0.9-0.4-1.9-0.7-1-1.9c1.1-0.8,2.4-0.7,3.7-0.7c31.3,0,62.5,0,93.8,0c1.3,0,2.8-0.3,3.9,0.9c0,0.2-0.1,0.3-0.1,0.5
		c-0.8,1.4-1.8,2.4-3.5,2.6C244,246.5,243.6,246.6,243.2,246.7z"/>
	<path class="st72" d="M193.9,261.9c1.8,0,3.5,0,5.3,0c0.6,1.2,1.2,2.3,1.7,3.5c0.6,1.8,1.2,3.5,1.8,5.3c-0.3,2.5-2.1,2.4-4,2.3
		c-2-0.8-2-2.9-2.9-4.5c-0.5-1-0.7-2.2-1.3-3.2C194.2,264.2,193.4,263.2,193.9,261.9z"/>
	<path class="st73" d="M244.3,246.3c1-1.1,2.2-1.9,3.5-2.6c1.7,2.2,3.7,4.2,5.9,5.9c0,0.2,0,0.4,0,0.6c0.7,2.2-0.9,2.8-2.3,3.5
		C248.8,251.4,246.1,249.3,244.3,246.3z"/>
	<path class="st74" d="M251.4,253.7c0.5-1.3,2.3-1.8,2.3-3.5c2,1.5,3.7,3.3,5.3,5.3c-0.8,1.2-0.9,2.8-2.3,3.5
		C254.6,257.5,252.9,255.7,251.4,253.7z"/>
	<path class="st75" d="M281.8,206.8c1.1-1.2,1.8-2.5,1.8-4.1c2.3,1,4.7,1.9,7,2.9c-0.1,1.6,0.4,3.4-1.8,4.1
		C286.4,209,283.9,208.4,281.8,206.8z"/>
	<path class="st76" d="M226.8,218.6c1.2,1,2.3,2,3.5,2.9c1.2,1.4,2.3,2.7,3.5,4.1c0.7,1.8-0.7,2.2-2,2.5c-1.1,0.3-2.3,0.1-3.5,0.1
		c-38.8,0-77.5,0-116.3,0c-2.1,0-4.3-0.5-6.2,0.9c-0.9,0.5-1.9,0.4-2.9,0.3c-6.2-1-12.4-1.7-18.6-2.1c-3.1-0.8-6.3-0.3-9.4-0.3
		c-1.6-0.1-3.3,0.3-4.7-0.8c-2.9-0.8-6.1-0.8-8.9-2.2c-0.6-2,0.9-2.3,2.2-2.7c1.6-0.4,3.3-0.2,5-0.2c50.7,0,101.5,0,152.2,0
		C223.2,221.1,225.5,221.2,226.8,218.6z"/>
	<path class="st77" d="M224.4,215.6c0.2,0.4,0.4,0.8,0.6,1.2c-0.1,2-1.6,2.3-3,2.5c-1.6,0.3-3.3,0.2-5,0.2
		c-54.8,0-109.5,0.1-164.3-0.1c-0.4,0-0.8,0.1-1.1,0.2c-0.8-0.4-1.6-0.7-2.4-1.1c-1-0.8-2-1.5-2.9-2.3c0-1.6,1.2-1.8,2.4-2
		c1.3-0.2,2.5-0.1,3.8-0.1c56.2,0,112.3,0,168.5,0c0.4,0,0.8-0.1,1.1-0.2C222.9,214.5,223.6,215,224.4,215.6z"/>
	<path class="st77" d="M51.6,219.7c0.2-1.4,1.4-1.1,2.3-1.1c34.9,0,69.9,0,104.8,0c20.9,0,41.7,0,62.6,0c1.5,0,2.9-0.3,3.8-1.8
		c0.8,0.4,1.4,1,1.8,1.8c0.5,2.8-0.6,3.6-3.5,3.6c-52.4-0.1-104.8-0.1-157.2,0c-1.7,0-3.9-0.6-4.6,1.9
		C57.9,223.2,54.7,221.5,51.6,219.7z"/>
	<path class="st78" d="M63.3,234.4c1.2-1.4,2.3-2.7,3.5-4.1c0.4-0.8,0.9-1.2,1.8-1.2c1.1,0.9,2.2,1.9,3.1,3
		c-1.1,2.6-2.9,4.5-5.5,5.5C64.3,237.3,63,236.5,63.3,234.4z"/>
	<path class="st79" d="M71.5,232c-1.6-0.3-2.6-1.3-2.9-2.9c0-1.3,1.3-1.8,1.8-2.8c1.5,0,3,0,4.5,0c0.6,0.4,1.4,0.1,2,0.5
		C76.1,229.5,74.2,231.2,71.5,232z"/>
	<path class="st80" d="M146.4,243.9c0.4,0.4,0.8,0.7,1.2,1.1c-1.1,0.7-2.4,0.6-3.7,0.6c-10.1,0-20.2,0-30.3,0
		c-0.7-0.8-0.2-1.7,0-2.5c0.7-1.8,1.5-3.6,2.1-5.5c0.6-1.9,1.6-3.6,2.4-5.5c1.4-0.6,2.5,0.3,3.8,0.5c1.6,0.6,3.2,1.1,4.9,1.6
		c3.3,1.3,6.6,2.7,9.9,4.2c2.5,1.3,4.9,2.5,7.4,3.7C145,242.6,145.9,242.9,146.4,243.9z"/>
	<path class="st81" d="M152.9,263.7c-1.5,0-3.1,0-4.6,0c0-2,0-3.9-0.1-5.9c0-1,0-2,0.1-2.9c1.5-1.1,3.1-1.1,4.7-0.2
		c1.3,2.6,0.8,5.4,0.5,8.1C153.4,263.1,153.2,263.4,152.9,263.7z"/>
	<path class="st82" d="M152.9,254.9c-1.5,0-3.1,0-4.6,0c0.2-3.1-0.6-6.3,0.5-9.4c0.9,0.4,1.8,0.9,2.8,1.3c0.5,0.4,0.9,0.8,1.4,1.2
		C154.2,250.3,154.3,252.6,152.9,254.9z"/>
	<path class="st83" d="M114.2,243.2c-0.2,0.8-0.4,1.6-0.6,2.3c-1.2,1.4-1.6,3.1-2.3,4.7c-1.5-0.6-3.5-0.6-3.5-2.9
		c0.2-0.8,0.4-1.6,0.6-2.3c-0.8-1.4,0.3-2.4,0.7-3.6c0.2-0.4,0.5-0.6,1-0.6C111.1,242,112.6,242.8,114.2,243.2z"/>
	<path class="st84" d="M152.9,263.7c0-0.2,0-0.4,0-0.6c4.1,2,8.5,1.4,12.8,1.4c8.5,0,17.1,0,25.6,0c1.3,0,2.5,0,3.8,0.3
		c1.6,2.4,1.7,5.4,3.5,7.6c0.3,0.4,0.4,0.8,0,1.2c-13.9,0-27.8,0-41.7,0c-1.5,0-2.9-0.1-4-1.2C152.9,269.5,152.9,266.6,152.9,263.7z
		"/>
	<path class="st85" d="M198.6,273.6c0-0.4,0-0.8,0-1.2c1.6,0,3.2-0.2,4.1-1.8c0.4,0.8,0.8,1.6,1.2,2.3c0.6,1.6,1.2,3.1,1.7,4.7
		c-0.5,2.3-2.3,2.3-4.1,2.3C200.8,277.9,200,275.6,198.6,273.6z"/>
	<path class="st65" d="M136.5,239c-3.3-1.4-6.6-2.7-10-4.1c-0.5-1.5,0.6-1.6,1.5-1.8c1.4-0.3,2.9-0.2,4.4-0.2c33.7,0,67.4,0,101.1,0
		c6.5,0,13.1,0.1,19.6,0c1.4,0,3-0.2,4.1,1c-1.4,1.5-2.2,3.7-4.2,4.7c-1.2,0.2-2.3,0.3-3.5,0.3c-37.3-0.1-74.7,0.1-112-0.1
		C137.3,238.8,136.9,238.8,136.5,239z"/>
	<path class="st67" d="M257.3,233.8c-42.7,0-85.4,0-128.1,0c-1,0-2.3-0.5-2.6,1.1c-1.6-0.6-3.1-1.2-4.7-1.7c-0.6-1.9,0.8-2.2,2-2.4
		c1.4-0.3,2.9-0.2,4.4-0.2c33.8,0,67.7,0,101.5,0c0.8,0,1.6,0,2.3,0c2.1,0.1,3.8-0.2,3.1-3c-0.1-0.3,0.2-0.5,0.3-0.8
		c2.8-1.3,5-5.5,5-8.4c0-2,1.8-3.3,2.8-4.9c0.6-1.1,1.9-1.8,0.7-3.3c-0.4-0.4-0.1-0.9,0.3-1.3c2.9-2.7,4.3-6.3,6.4-9.6
		c6.3-10.1,15.3-17.8,23.5-26.2c0.5-0.5,1-0.9,1.8-0.9c0,0.6,0,1.2,0,1.8c-4.6,5-9.6,9.7-14.4,14.5c-1.7,1.7-2.8,3.7-4.2,5.6
		c-4.5,6.3-7.1,13.6-10.6,20.4c-2.3,4.4-4,9.7-1.7,15.1c0.5,1.2,1.1,1.1,1.9,1.1c2.9,0,5.8,0,8.8,0c1.2,0,2.6-0.1,3.3,1.4
		C258.6,232.7,257.9,233.3,257.3,233.8z"/>
	<path class="st65" d="M136.5,239c0.3-1.4,1.4-1.1,2.3-1.1c37.3,0,74.6,0,111.9,0c0.8,0,1.8-0.2,2.4,0.6c-0.6,0.7-1.2,1.3-1.8,2
		c-1.1,0.1-1.4,1.3-2.3,1.6c-7.7,0.5-15.4,0.3-23.1,0.2c-26-0.1-52.1,0-78.1,0c-1.3,0-2.5,0.1-3.8,0.3
		C141.4,241.8,139,240.3,136.5,239z"/>
	<path class="st86" d="M259.2,232.1c-4-1.4-8.1-0.3-12.1-0.7c-1.4-0.1-3.6,0.9-2.4-2.3c0.4-1.1-1.6-2-1.4-3.8
		c0.7-6.2,2.7-11.9,6.1-17.1c0.9-1.5,1-3.1,1.7-4.5c1.9-4.3,5.3-7.6,6.9-12.1c0.3-0.8,1-1.4,1.7-2c4.5-4.5,9-8.9,13.4-13.4
		c0.9-0.9,1.9-1.7,3.1-2.2c0.2,1.8-0.5,2.9-1.9,4.1c-4.3,3.9-8.4,8.2-12.5,12.3c-0.3,0.3-0.6,0.6-0.7,0.9c-1,5.5-5.7,9.1-7.1,14.3
		c-0.5,1.8-2.6,3.2-0.8,5.4c0.6,0.7-0.7,1.4-1.2,2.1c-2.1,2.6-2.1,4,0,6.2c0.9,0.9,0.5,1.5-0.2,2.2c-1.1,1.1-1.1,2.6-0.6,3.8
		c0.5,1.4,2,0.7,3.1,0.8c1.9,0.1,3.9,0.1,5.9,0c1.1,0,2.2,0.1,2.6,1.3C261.2,228.9,260.8,230.9,259.2,232.1z"/>
	<path class="st87" d="M222.1,213.9c-0.4,1.8-1.8,1.1-2.9,1.1c-8.5,0-17,0-25.4,0c-47.9,0-95.7,0-143.6,0c-1.4,0-3-0.6-3.9,1.2
		c-2.2-1.4-4.2-3.1-5.9-5.2c-0.1-1.6,1.1-1.9,2.3-2.1c1.3-0.2,2.7-0.1,4.1-0.1c23,0,46,0,69,0c1.9,0,3.9,0,5.8-0.1
		c2.6,0.1,4.1,2.8,6.7,2.9c1.4,0.4,2.8,0.6,4.2-0.1c1.7-0.7,3.3-1.7,4.8-2.7c3.1-2.1,5.8-2.1,8.9,0.1c1.6,1.1,3.2,2.2,5.1,2.7
		c1.5,0.5,3.1,0.6,4.6,0c1.5-0.6,2.9-1.5,4.2-2.5c3-2.3,5.9-2.4,9.1-0.3c1.6,1,3,2.4,5,2.9c1.5,0.5,3.1,0.5,4.6,0
		c1.8-0.6,3.3-1.7,4.8-2.8c3.1-2.1,5.8-2.1,8.9,0c1.6,1.1,3.2,2.2,5.1,2.7c1.5,0.5,3,0.6,4.5,0.1c2.3-0.6,3.9-2.5,5.9-3.5
		c2.4-0.5,4.9-0.1,7.3-0.4c2.5,0.2,3.5,2,4.6,3.8C220.3,212.5,221.1,213.3,222.1,213.9z"/>
	<path class="st88" d="M33.2,202.2c-0.3-0.2-0.6-0.5-0.9-0.7c-0.9-0.8-1.4-1.8-0.6-3c1.6-1.2,3.4-0.7,5.1-0.7
		c54.2,0,108.3,0,162.5,0c1.8,0,3.7,0.3,5.5-0.5c1.2-0.4,2.1,0.1,3,0.8c0.9,1,2.2,1.9,1.6,3.6c-1,1.4-2.5,1.3-3.9,1.3
		c-4,0-7.9,0-11.9,0c-1.2,0-2.3,0-3.4,0.4c-1.4,0.2-2.8,0.2-4.3-0.1c-6-0.5-12-0.7-18,0.2c-1.9,0.3-3.8,0-5.7-0.2
		c-6.2-0.4-12.3-0.5-18.5,0.1c-1.3,0.3-2.6,0.3-3.9,0c-1.6-0.6-3.3-0.3-4.9-0.3c-32.2,0-64.5,0-96.7,0
		C36.3,203.1,34.7,203.2,33.2,202.2z"/>
	<path class="st89" d="M33.2,202.2c25.4,0,50.9-0.1,76.3-0.1c9,0,17.9,0,26.9,0c1.3,0,2.5-0.1,3.7,0.6c-3.7,4.6-9.3,6.2-14.3,3.9
		c-1.5-0.7-2.8,0-4.3,0c-27.3-0.2-54.5,0-81.8-0.1c-1.2,0-2.3,0-3.5-0.2C34.9,205.3,33.9,203.8,33.2,202.2z"/>
	<path class="st89" d="M36.2,206.4c0.8-1.1,1.9-0.7,3-0.7c26.7,0,53.4,0,80.1,0c1.1,0,2.2,0,3.1,0.6c0.5,1,0.5,1.9,0.1,2.9
		c-1.2,0.8-2.6,0.6-4,0.6c-24.8,0-49.5,0-74.3,0c-1.4,0-3-0.5-3.8,1.3C38.9,209.6,37.1,208.5,36.2,206.4z"/>
	<path class="st90" d="M15.2,208c-1-1.2-1.2-2.6-1.2-4.1c2.2-1,4.3-1.9,6.5-2.9c1.1,1.5,1,3,0.6,4.7C19.2,206.5,17.5,207.9,15.2,208
		z"/>
	<path class="st91" d="M31.5,199.4c0.2,0.7,0.5,1.4,0.7,2.1c-1.8,0.6-3.5,1.2-5.3,1.8c-2.1-0.7-2.6-2.1-1.8-4.1
		c1.6-0.8,3.2-1.6,5-1.8c0.4-0.1,0.7,0.1,1,0.4C31.5,198.4,31.4,198.9,31.5,199.4z"/>
	<path class="st92" d="M25.2,199.2c0,1.6,0.7,2.9,1.8,4.1c-1.7,1.3-3.9,1.5-5.9,2.3c-0.9-1.5-0.5-3.1-0.6-4.7
		C22.1,200.4,23.6,199.8,25.2,199.2z"/>
	<path class="st93" d="M63.3,234.4c0.5,1.5,1.5,2.5,3,3c0.3,1.3-0.8,1.9-1.4,2.7c-1,0.7-1.6,2.3-3.2,2c-1.8-0.1-2.3-1.7-3-3
		C59.9,237.3,61.5,235.7,63.3,234.4z"/>
	<path class="st94" d="M30.9,198.3c-0.2-0.3-0.4-0.5-0.7-0.8c-0.3-0.9-1.2-1.6-1.1-2.7c0-1.6,1.3-1.5,2.3-1.6
		c1.4-0.2,2.9-0.1,4.4-0.1c52.5,0,105,0,157.5,0c2.2,0,4.5,0,6.7-0.2c2.4,0.3,4,1.6,4.6,4c-0.2,0.3-0.5,0.6-0.8,0.8
		c-1.6,0.7-3.3,0.5-4.9,0.5c-54.5,0-108.9,0-163.4,0C34,198,32.5,197.9,30.9,198.3z"/>
	<path class="st95" d="M201,193.4c-1.6,0.5-3.2,0.6-4.9,0.6c-54.4,0-108.7,0-163.1,0c-1.3,0-2.8-0.6-3.8,0.7
		c-0.4-0.3-0.5-0.8-0.5-1.3c0-1.1,0.3-1.9,1.6-1.9c0.8,0,1.6,0,2.3,0c54.1,0,108.2,0,162.4,0c1.2,0,2.6,0.5,3.6-0.6
		c1.4-0.3,1.9,0.8,2.5,1.6C201.2,192.9,201.2,193.1,201,193.4z"/>
	<path class="st26" d="M61.5,242c1-0.8,1.9-1.6,2.9-2.4c13.5,0.5,26.9,0.1,40.4,0.3c1.7,0,3.6-0.4,4.7,1.5c-0.4,1.2-0.8,2.3-1.2,3.5
		c-14.8,0-29.6,0-44.4,0c-1.3,0-2.8,0.5-3.6-1.2C60.7,243.2,61.1,242.6,61.5,242z"/>
	<path class="st96" d="M144.1,242.6c0.6-1.4,1.9-1.2,3-1.2c25.6,0,51.1,0,76.7,0c7.4,0,14.8,0,22.2,0c1,0,2.2-0.4,3,0.7
		c-0.4,0.4-0.8,0.7-1.1,1.1c-32.9,0-65.9,0-98.8,0c-0.9,0-2-0.3-2.7,0.7C145.6,243.6,144.8,243.3,144.1,242.6z"/>
	<path class="st97" d="M76.8,73.3c8.2,0.3,16.4-0.4,24.6-1.2c12.1-0.6,24.2-0.3,36.3-0.3c1.7,0.8,1.4,2.1,0.8,3.5
		c-0.8,1-2,1.2-3.2,1.2c-18,0-36,0.1-54,0C79.2,76.4,77.1,76,76.8,73.3z"/>
	<path class="st98" d="M76.8,73.3c1.3,1.8,3.1,2.4,5.3,2.4c17.6-0.1,35.2,0,52.8,0c1.2,0,2.3,0.1,3.4-0.6c0.7,1.3,0.1,2.2-1,2.9
		c-1.2,0.5-2.5,0.4-3.7,0.4c-18.4,0-36.8,0.1-55.2-0.1c-1,0-1.9,0-2.9-0.4c-1.5-1-0.2-2.8-1.1-4l-0.1-0.2c-0.1-0.2-0.1-0.4,0.1-0.5
		c0.2,0,0.3,0,0.5,0C75.6,73.2,76.2,73.2,76.8,73.3z"/>
	<path class="st99" d="M137.7,72c-0.6,0.8-1.6,0.6-2.4,0.6c-10.4,0-20.7,0-31.1,0c-1,0-1.9-0.1-2.8-0.6c4.4-1.4,8.9-2.2,13.5-2.9
		c7-0.5,13.9-0.4,20.9-0.2c0.4,0,0.7,0.1,1,0.2c0.5,0.2,0.9,0.5,1.2,1C138.2,70.8,138.2,71.5,137.7,72z"/>
	<path class="st100" d="M98.4,65.7c-2.4,0-4.7,0.1-7.1,0.1c-1.3-3.9-1-7.8-0.2-11.7c2.3-0.9,4.7-0.2,7-0.4c1.1,0.3,1.6,1.2,1.5,2.2
		C99.3,59.1,99.3,62.4,98.4,65.7z"/>
	<path class="st101" d="M124.2,65.7c-1.9,0-3.9,0-5.8,0c-1.7-1.2-2.1-3-2.4-4.8c0.6-2.4,0.2-4.9,1.3-7.1c2.1-0.2,4.2,0,6.3-0.1
		c0.4,0,0.6,0.1,0.9,0.4C125,54.9,125,56,125,57c0,2,0,3.9,0,5.9c0,0.3,0,0.7,0,1C124.9,64.6,124.8,65.2,124.2,65.7z"/>
	<path class="st102" d="M98.4,65.7c-0.8-2.8-0.2-5.6,0.4-8.4c0.2-1.2,0.2-2.3-0.4-3.3c1.7-0.7,3.4-0.2,5.1-0.3c0.8,0.4,1,1.2,1,2
		c0,3.4,0.3,6.8-0.8,10C102,65.7,100.2,65.7,98.4,65.7z"/>
	<path class="st103" d="M136.5,69.7c-6.1,0-12.2,0-18.3,0c-1.2,0-2.3,0.1-3.4-0.6c3-1.3,6.2-2.1,9.4-2.9c2.2-1.5,4.7-0.6,7.1-0.7
		C133.6,66.2,136.4,66.3,136.5,69.7z"/>
	<path class="st104" d="M116.6,60.9c0.6,1.6,1.2,3.1,1.8,4.7c-1.8,0-3.5,0-5.3,0c-2.4-2.7-2.8-6.4-4.7-9.3c-0.2-0.9-0.6-1.8,0.1-2.6
		c1.7-0.3,3.4,0.1,5,0.4C115.3,56.1,116,58.5,116.6,60.9z"/>
	<path class="st105" d="M108.4,54c0.3,0.7,0.7,1.5,0.5,2.3c-0.5,3.2-0.1,6.5-1.7,9.4c-1.2,0-2.3,0-3.5,0c-0.6-3.9,0.6-7.8,0-11.7
		C105.3,53.4,106.9,53.4,108.4,54z"/>
	<path class="st106" d="M124.4,63.9c0-0.2,0-0.5,0-0.7c1.2-3.7,3.8-6.4,6.4-9.1c-1.1,0.8-2.3,0.4-3.5,0.6c-1.1,0-2.1,0.1-3-0.8
		l-0.2,0.1c-0.1-0.1-0.2-0.3-0.1-0.4c0.1-0.1,0.1-0.2,0.2-0.2c1.4,0,2.7-0.2,4.1,0c4.9,0.6,8.2-1.4,10-5.9c0.9,0.3,2.1-0.8,2.8,0.5
		c0.4,1.1,0.4,2.3-0.1,3.4c-2.8,1.9-6.1,3-8.7,5.4c-1.3,1.2-2.6,2.2-3.6,3.7c-0.8,1.1-1.5,2.3-2.4,3.3
		C125.8,64.4,125.1,65.3,124.4,63.9z"/>
	<path class="st107" d="M83.8,14.7c0,7.4,0,14.8,0,22.3c0,0.4-0.4,0.4-0.6,0.6C83,38,82.5,38.1,82,38.1c0-7,0-13.9,0-20.9
		C82,15.9,81.8,14.5,83.8,14.7z"/>
	<path class="st108" d="M134.2,14.7c0,6.7,0,13.4,0,20.1c0,1.3,0,2.5-1.2,3.4c-0.2-0.2-0.4-0.4-0.6-0.6c-0.2-0.1-0.3-0.3-0.2-0.4
		c0.1-0.1,0.1-0.2,0.2-0.2c0-6.6,0-13.2,0-19.7C132.4,15.9,132.2,14.5,134.2,14.7z"/>
	<path class="st109" d="M124.4,63.9c1.2,0.7,1.3-0.4,1.8-1c0.7-0.8,1-2.1,2.1-2.6c2.1-2.5,4.6-4.4,7.6-5.6c1.5-0.6,3.2-0.7,4.8,0.2
		c0.3,0.4,0.4,0.8,0.2,1.3c-2,1.5-5,1.3-6.8,3.3c-2,1.5-4.8,2.3-5.6,5.2c1,0.8,2.9-0.4,3.3,1.6c-2.5,0-5.1,0-7.6,0
		c0-0.2,0-0.4,0-0.6C124.2,65.1,124.3,64.5,124.4,63.9z"/>
	<path class="st110" d="M107.2,65.7c0.4-3.2-0.1-6.5,1.7-9.4c2.1,2.8,2.9,6.2,4.1,9.4C111.1,65.6,109.2,65.7,107.2,65.7z"/>
	<path class="st111" d="M83.2,66.2c-0.6,0.4-1.2,0.8-1.8,1.2c-1-1.1-0.9-2.5-0.9-3.9c0.1-3.2-0.4-6.4,0.3-9.6
		c1.8-1.8,2.2,0.5,3.2,1.1c0.2,0.3,0.3,0.6,0.3,1c0.1,3.1,0.4,6.1-0.2,9.2C84.1,65.7,83.6,65.9,83.2,66.2z"/>
	<path class="st112" d="M81.5,53.3c0,4.7,0,9.4,0,14.1c-0.2,0-0.4,0-0.6,0c-0.4,0.3-0.8,0.4-1.2,0c0-5.3,0-10.5,0-15.8
		c0.2-0.2,0.4-0.2,0.6,0c0.2,0.6,0.6,1,1.2,1.2c0.2,0.1,0.3,0.3,0.2,0.4C81.6,53.2,81.5,53.3,81.5,53.3z"/>
	<path class="st113" d="M124.2,53.4c0,0.2,0,0.4,0,0.5c-2.3,0-4.6,0-6.9,0c-1.1,0.9-2.3,0.8-3.5,0.6c-1.8,0.2-3.4-1-5.2-0.6
		c-1.6,0-3.2,0-4.7,0c-1.8,0-3.5,0-5.3,0c-2.3,0-4.7,0-7,0c-0.2-0.1-0.2-0.2-0.2-0.4c0.1-0.1,0.1-0.2,0.2-0.2
		C102.3,53.4,113.3,53.4,124.2,53.4z"/>
	<path class="st114" d="M91.4,53.4c0,0.2,0,0.4,0,0.5c0,3.9-0.1,7.9-0.1,11.8c-2.7,1-5.4,0.2-8.1,0.4c0.2-0.2,0.4-0.4,0.6-0.6
		c0.5-0.4,1.1-0.7,1.7-0.7c0.9-0.1,1.8,0,2.7-0.1c2.3,0,1.7-1.7,1.8-3c0-1-0.1-2.1,0-3.1c0-1,0-2,0-3c-0.2-1.6-1.5-0.9-2.4-1.1
		c-0.7,0-1.4,0-2.2-0.1c-0.5-0.1-0.9-0.3-1.2-0.7C86.6,52.8,89.1,53.6,91.4,53.4z"/>
	<path class="st115" d="M140.6,47.5c-0.8-0.1-1.6,2.4-2.4,0c0.2-2-0.2-3.9-0.6-5.8c1,0.8,2,1.5,3,2.3
		C141.6,45.1,141.6,46.3,140.6,47.5z"/>
	<path class="st116" d="M132.4,36.9c0,0.2,0,0.4,0,0.6c-2.7-0.3-5.5,0.6-8.1-0.5c1.7,0,3.5,0,5.2,0
		C130.5,36.9,131.4,36.9,132.4,36.9z"/>
	<path class="st117" d="M83.2,37.5c0.2-0.2,0.4-0.4,0.6-0.6c0.6,0,1.2,0,1.8,0c0.4,0,0.8,0,1.2,0c0.6,0,1.2,0,1.8,0
		c0.8,0.1,1.7-0.3,2.3,0.6C88.3,37.5,85.7,37.5,83.2,37.5z"/>
	<path class="st118" d="M84.3,53.9c0.4,0,0.8,0,1.2,0.1c0,1.3-0.6,1.7-1.8,1.2c-0.8-0.6-1.5-1.2-2.3-1.8c0-0.2,0-0.4,0-0.6
		C82.4,53.1,83.4,53.5,84.3,53.9z"/>
	<path class="st119" d="M79.7,67.4c0.4,0,0.8,0,1.2,0c-0.6,0.7-1.2,1.4-1.9,2.2C78.4,68.4,79.6,68.1,79.7,67.4z"/>
	<path class="st120" d="M80.3,51.6c-0.2,0-0.4,0-0.6,0c-0.5-0.3-1-0.5-1-1.5C79.5,50.4,79.9,50.9,80.3,51.6z"/>
	<path class="st121" d="M247.7,55.8c-1.3-0.6-2.3-1.5-3.4-2.5c1.7-2.2,3.7-4.1,5.9-5.9c1.9,0.1,2.9,1,2.9,2.9
		C251.5,52.3,249.8,54.3,247.7,55.8z"/>
	<path class="st122" d="M253.1,50.4c-0.8-1.2-1.7-2.2-2.9-2.9c1.3-1.8,2.9-3.3,4.7-4.7c2.1-0.1,3,1,2.9,2.9
		C256.5,47.5,254.9,49.1,253.1,50.4z"/>
	<path class="st123" d="M198.6,28.7c0.6-1.8,1-3.7,2.3-5.3c2-0.5,3.6-0.3,3.5,2.4c0,1.6-0.7,2.9-1.7,4.1
		C201.3,30,199.9,29.4,198.6,28.7z"/>
	<path class="st124" d="M257.8,45.7c-0.8-1.2-1.5-2.4-2.9-2.9c1.1-1.6,2.5-3,4.1-4.1c0.7,1.2,1.7,2.2,2.9,2.9
		C260.8,43.2,259.4,44.6,257.8,45.7z"/>
	<path class="st125" d="M204.5,25.8c-0.5-1.8-2.1-1.9-3.5-2.4c0.3-1.7,1-3.2,1.8-4.7c1.5,0.2,2.7,1.2,4.1,1.8
		C205.9,22.2,206,24.3,204.5,25.8z"/>
	<path class="st126" d="M198.6,28.7c1.7-0.7,2.8,0.6,4.1,1.2c-0.1,1.7-1,3.2-1.8,4.7c-1.6,0.1-3-0.5-4.1-1.8
		C197.1,31.3,198.1,30.1,198.6,28.7z"/>
	<path class="st127" d="M196.9,32.8c1.5,0.3,2.8,1,4.1,1.8c-0.4,1.2-0.8,2.3-1.2,3.5c-1.7,0-3.5,0-5.2,0
		C195.3,36.3,196.1,34.6,196.9,32.8z"/>
	<path class="st128" d="M153,52c-1.4,0.9-2.8,1.7-4.2,2.6c-1.3-0.3-1.1-1.4-1.2-2.3c0-0.5,0.1-0.9,0.3-1.3c1.5-1.7,1.3-4,2.2-5.9
		c0.5-0.9,0.7-2,1.4-2.8c0.7-0.5,1.1-0.1,1.4,0.5c0,0.2,0.1,0.4,0.1,0.6c1.3,2.1,0.2,4.3,0,6.4C153,50.5,153,51.3,153,52z"/>
	<path class="st129" d="M148.3,31.6c1.5,0,3.1,0,4.6,0c0,2,0,3.9,0,5.9c-1.5,1.1-3.1,1.1-4.6,0C148.3,35.6,148.3,33.6,148.3,31.6z"
		/>
	<path class="st130" d="M148.3,37.5c1.5,0,3.1,0,4.6,0c0,1.8,0,3.5,0,5.3c-0.4-0.2-0.7-0.4-1.1-0.6c-2.2,0.1-2.6-1.8-3.6-3.2
		c0-0.1,0-0.3-0.1-0.4C148.2,38.3,148.2,37.9,148.3,37.5z"/>
	<path class="st131" d="M153,49.8c0-2.1,0-4.3,0-6.4C156.4,45.5,153.6,47.6,153,49.8z"/>
	<path class="st132" d="M32.4,98.6c-0.6,1.5-1.3,2.9-2.4,4.1c-2-1.5-4.4-2.1-6.5-3.1c-1-2,0.2-3.1,1.8-4.1
		C27.6,96.5,30.3,96.7,32.4,98.6z"/>
	<path class="st133" d="M25.2,95.5c-0.4,1.4-2,2.4-1.8,4.1c-2-0.8-3.9-1.6-5.9-2.3c-1-2,0.2-3.1,1.8-4.1
		C21.4,93.6,23.4,94.4,25.2,95.5z"/>
	<path class="st134" d="M19.3,93.2c-0.4,1.4-2,2.4-1.8,4.1c-1.8-0.8-3.5-1.6-5.3-2.3c0.7-1.4,0.7-3.4,2.9-3.5
		C16.7,91.8,18.2,92,19.3,93.2z"/>
	<path class="st135" d="M74.5,73.2c-0.1,0.1-0.1,0.3-0.1,0.5c-1.2,0-2.3,0-3.5,0.1c-1.2-1.3-2.3-2.6-3.5-4c0-1.9,1.1-2.9,3-3
		C72.3,68.5,74.9,69.9,74.5,73.2z"/>
	<path class="st136" d="M62.1,58.6c1.8,1.4,3.3,2.9,4.7,4.7c-1,1.1-2.2,1.9-3.6,2.4c-1.6-1.2-2.9-2.5-4.1-4.1
		C59.2,59.6,60.2,58.7,62.1,58.6z"/>
	<path class="st137" d="M62.1,58.6c-1.2,0.8-2.2,1.8-3,3c0,0-0.3,0-0.3,0s-0.3,0-0.3,0c-1.4-1.2-3.1-2.1-3.5-4.1
		c0.9-1.2,2.1-2,3.5-2.4C59.8,56.2,61.3,57.1,62.1,58.6z"/>
	<path class="st138" d="M63.3,65.7c0.8-1.4,2-2.1,3.6-2.4c1.3,1,2.6,2.1,3.5,3.5c-1.2,0.8-2.2,1.7-2.9,3
		C65.8,68.6,64.4,67.2,63.3,65.7z"/>
	<path class="st134" d="M288.9,95.5c-1.6,0.6-3.1,1.2-4.7,1.8c-1.4-0.8-1.8-2.5-2.9-3.5c1.8-1.1,3.8-1.9,5.9-2.3
		C288.9,92.2,289.5,93.6,288.9,95.5z"/>
	<path class="st56" d="M288.9,95.5c-0.2-1.5-0.8-2.9-1.8-4.1c1.3-0.8,2.6-1.4,4.1-1.8c1.6,0.9,2.3,2.3,2.3,4.1
		C292,94.3,290.4,94.9,288.9,95.5z"/>
	<path class="st139" d="M274.9,100.8c-0.3-1.2-0.5-2.3-0.8-3.5c0.4-1.6,1.9-1.4,3-1.8c2.4,0.2,2.9,0.9,2.4,3.5
		C278.1,100,276.8,101,274.9,100.8z"/>
	<path class="st140" d="M279.5,99c0-1.7-0.7-2.9-2.4-3.5c1.3-0.8,2.6-1.4,4.1-1.8c2.2,0.2,2.2,2.1,2.9,3.5
		C282.6,97.9,281.3,99.1,279.5,99z"/>
	<path class="st141" d="M148.3,51c0,0.4-0.1,0.8-0.1,1.2c-0.7,1.5-1.3,3.2-2.8,4.2c-1.4,0.8-2.7,1.5-4.1,2.3
		c-1.6-0.5-1.2-1.4-0.6-2.4c0-0.4,0-0.8,0-1.2c-0.9-1.2-0.9-2.3,0-3.5c0-1.4,0-2.7,0-4.1c0-1.2,0-2.4,0-3.6c0.1-2.1,0.1-4.2,0.2-6.4
		c0.6,0,0.8,0.4,1,0.9c0.3,1.3,0.2,2.6,0.3,3.8c0,1.1,0,2.2,0,3.3c0,0.8-0.1,1.6,0,2.3c0,0.9,0,1.8,0,2.7c0.1,1.2-0.2,2.5,0.1,3.8
		c1.5-1.9,2.8-3.9,4.5-5.5c0.5-0.5,1-1.7,2.1-0.6C149,49.3,148.9,50.2,148.3,51z"/>
	<path class="st142" d="M141.2,38.1c-0.1-0.2-0.3-0.4-0.4-0.6c0-2,0-3.9,0-5.9c1.9,0.4,2.3,2.2,3.4,3.4
		C144.1,37,143.2,38,141.2,38.1z"/>
	<path class="st143" d="M141.2,45.7c0-1.2,0-2.3,0-3.5c1.1-2.2,2.1-4.5,4.7-5.3c0.6,0.6,1.2,1.2,1.7,1.8
		C146,41.4,144.6,44.4,141.2,45.7z"/>
	<path class="st144" d="M141.2,45.7c2.6-2,3.9-5.1,6.5-7c0.1,0,0.3,0,0.4,0c0,0,0.2,0.1,0.2,0.1c0.3,0.5,0.5,1.1,0.3,1.7
		c-1.4,2.5-3.5,4.4-5.2,6.6c-0.5,0.7-1.1,1.4-2.2,1.1C141.2,47.3,141.2,46.5,141.2,45.7z"/>
	<path class="st145" d="M146,36.9c-1.6,1.8-3.2,3.5-4.7,5.3c0-1.4,0-2.7,0-4.1c1.2-0.8,2.2-1.8,3-3C144.8,35.7,145.4,36.3,146,36.9z
		"/>
	<path class="st146" d="M116.6,170.5c-3.2-2.7-6.1-5.6-8.8-8.8c1.1-1.1,2.1-2.1,3.6-2.7c1.5,0,2.8,0.6,4.3,0.7
		c2.1,0.2,4.1-0.1,5.9-1.2c1-0.6,2-1.3,2.1-2.6c0.1-1.6-1.4-1.6-2.3-2.2c-0.9-1-0.5-2,0.2-2.9c0.6-0.8,1.3-1.4,2-2.1
		c16.8-16.8,33.6-33.7,50.5-50.5c1-1,1.7-2.5,3.5-2.2c3.5,3.4,7.5,6.3,10,10.6c0.2,0.8-0.5,1.1-0.9,1.5c-0.6,0.5-1.3,0.8-1.9,1.3
		c-0.7,0.5-1.5,1-2.1,1.6c-0.5,0.4-0.9,0.9-1.4,1.3c-0.7,0.7-1.5,1.5-2.2,2.2c-0.7,0.6-1.3,1.4-2.1,1.8c-0.3,0.1-0.5,0.2-0.8,0.3
		c-3.2,0.8-5.3,3.3-7.4,5.4c-15.6,15.5-31.1,31.1-46.6,46.6C120.6,170.1,119.2,172.1,116.6,170.5z"/>
	<path class="st76" d="M177.5,96.1c-0.7,0.6-1.4,1.1-2,1.7c-17.5,17.4-34.9,34.9-52.4,52.4c-1,1-2.2,1.8-1.9,3.4
		c-1.3,2.9-4.7,3.9-7.7,2.1c-1.6-1-3.2-2.1-4.7-3.4c-1-1-1.2-2.1-0.2-3.1c5.7-5.8,11.2-11.8,17.3-17.1c0.1-0.1,0.4-0.2,0.5-0.2
		c1.2,0.6,1.9,2.1,3.5,1.7c1.6,0.5,3.1,0.5,4.7,0c3.8-0.6,5.8-3.1,5.9-7c0.6-1,0.1-2.2,0.3-3.3c10-10.2,20.1-20.2,30.2-30.3
		c0.6-0.6,1.2-1.3,2.2-1C175,93.1,176.4,94.5,177.5,96.1z"/>
	<path class="st147" d="M219.7,211.5c-1.4-1.2-2.7-2.3-4.1-3.5c-0.6-0.2-0.9-0.7-1-1.3c-0.1-1.1,0.6-1.8,1.2-2.5
		c16.6-19.1,34.9-36.6,52.8-54.5c0.6-0.6,1.2-1.3,2.1-1.5c1.6,1.1,3,2.5,4.1,4.1c-0.9,0.8-1.8,1.5-2.6,2.3
		c-10.2,10.2-20.4,20.4-30.6,30.6c-5.6,5.6-10.5,11.7-15.2,18c-1.1,1.5-2.6,2.7-3.9,4C221.3,208.5,220.2,209.7,219.7,211.5z"/>
	<path class="st148" d="M270.7,148.2c-1.2,1.3-2.3,2.6-3.6,3.9c-10.8,10.9-21.6,21.8-32.5,32.5c-6.7,6.5-11.9,14.4-18.9,20.7
		c-0.5,0.4-0.7,0.9-0.7,1.6c-2.6-0.5-3.5-2.6-4.3-4.7c16.6-19.4,35.4-36.8,53.3-55c0.9-1,1.7-2.2,3.2-2.5
		C268.6,145.7,269.8,146.8,270.7,148.2z"/>
	<path class="st35" d="M191,105.5c3.1-2.1,6.6-2.7,10.1-3.2c8.1-1.1,16-0.7,23.4,3.2c0.3,0.5,0,0.9-0.3,1.4
		c-0.4,0.5-0.8,0.9-1.3,1.4c-0.5,0.5-1,1-1.6,1.5c-0.4,0.4-0.9,0.8-1.3,1.2c-0.4,0.4-0.8,0.8-1.2,1.2c-0.4,0.4-0.8,0.8-1.2,1.2
		c-0.6,0.6-1.2,1.2-1.8,1.8c-0.8,0.8-1.6,1.6-2.4,2.4c-0.9,0.8-1.6,1.9-2.8,2.3c-2,0-3.9,0.1-5.9,0c-4.9-3.9-9.1-8.7-13.5-13.2
		C190.9,106.5,190.8,106,191,105.5z"/>
	<path class="st149" d="M267.2,144.7c-0.7,0.8-1.4,1.6-2.1,2.4c-14,14-28,28-42,42c-3.5,3.5-5.8,8.1-9.6,11.3
		c-0.8,0.7-1.4,1.7-2.6,1.7c-1.1,0.4-1.4-0.5-1.8-1.2c-0.6-0.8-1.2-1.6-1.8-2.3c5.5-5.8,11.3-11.3,16.9-17c1.2-1.2,2.6-2.4,3.2-4.1
		c0.1-0.3,0.2-0.5,0.3-0.7c0.5-0.6,1.1-1,1.8-1.4c0.9-0.5,1.6-1.2,2.4-1.8c1-0.6,1.8-1.4,2.6-2.2c1-1,2-1.9,2.9-2.9
		c0.7-0.7,1.3-1.4,1.8-2.3c0.6-0.8,1.3-1.5,1.6-2.5c0.4-0.9,1.1-1.5,2-1.9c1.2-0.4,2.1-1.4,2.9-2.3c5.2-5.2,10.4-10.4,15.6-15.6
		c0.8-0.8,1.5-1.8,2.7-2.1C265.5,142.5,266.4,143.5,267.2,144.7z"/>
	<path class="st71" d="M161.7,80.3c2.4,1.9,4.5,4.1,6.4,6.4c0.8,1.3-0.2,2-0.9,2.7c-7.7,7.8-15.5,15.6-23.3,23.3
		c-0.7,0.7-1.9,2.5-3,0.2c0.1-3.8,0-7.5-0.4-11.3c0.5-2,2.4-2.7,3.7-4c5.3-5.6,11.2-10.8,16.3-16.7
		C160.8,80.6,161.2,80.3,161.7,80.3z"/>
	<path class="st67" d="M141.2,113.7c1.1,0,1.7-0.8,2.4-1.5c7.7-7.7,15.4-15.4,23.1-23.1c0.7-0.7,1.5-1.3,1.5-2.4
		c2,1.5,3.7,3.3,5.3,5.3c-4.6,4.5-9.2,8.9-13.7,13.5c-5.3,5.3-10.6,10.6-15.9,15.9c-0.7,0.7-1.3,1.7-2.6,1.7
		C140.7,119.9,140.7,116.8,141.2,113.7z"/>
	<path class="st150" d="M161.7,80.3c-6.1,7.5-12.9,14.4-20.5,20.5c-1.6-3.1-0.6-6.4-0.7-9.6c0.1-0.5,0.3-1,0.6-1.3
		c5.4-4.7,10.1-10.1,15.3-14.9C158.4,76.5,160.2,78.3,161.7,80.3z"/>
	<path class="st151" d="M156.4,75c-0.2,0.5-0.3,1.2-0.7,1.5c-4.1,4.1-8.2,8.3-12.3,12.3c-0.6,0.6-1.5,0.9-2.2,1.4
		c-1.5-2.7-0.6-5.7-0.7-8.5c1.7-2.7,4.3-4.4,6.4-6.7c1.5-1.6,3-3.3,4.8-4.7C153.6,71.6,155.1,73.2,156.4,75z"/>
	<path class="st152" d="M264.3,141.8c-6.6,6.6-13.1,13.3-19.7,19.9c-0.4,0.4-1,0.6-1.6,0.5c-0.2-0.4-0.3-0.8-0.2-1.2
		c0.3-0.9,0.8-1.7,1.1-2.6c1.1-2.2,1.5-4.8,2.8-6.9c4.8-3.3,8.3-7.9,12.5-11.9c0.5-0.5,0.8-1.1,1.5-1.4
		C262.1,139.2,263.3,140.4,264.3,141.8z"/>
	<path class="st153" d="M151.8,70.3c-2.8,4.2-6.3,7.8-10.5,10.6c-0.4-0.3-0.6-0.8-0.7-1.3c-0.1-2.5-0.3-4.9,0.1-7.4
		c1.9-2.4,4.3-4.4,6.5-6.5C148.9,66.9,150.4,68.5,151.8,70.3z"/>
	<path class="st154" d="M260.8,138.3c0,0.9-0.5,1.4-1.1,2c-4.3,3.7-7.5,8.6-12.5,11.5c-1.1-2.9-0.2-5.7,0.4-8.5
		c1.9,1,2.8-0.6,3.9-1.6c2.2-2,4.1-4.3,6.3-6.2C259,136.1,260,137.1,260.8,138.3z"/>
	<path class="st155" d="M191,105.5c4.5,4.6,9,9.3,13.5,13.9c-1,1.3-2.3,1.4-3.7,1.3c-3-1.8-4.8-4.7-7.3-6.9
		c-1.5-1.3-2.9-2.8-4.3-4.3c-0.7-0.7-1.8-1.4-1-2.7C189,106.1,189.8,105.5,191,105.5z"/>
	<path class="st156" d="M225.6,105.9c6.4,2.9,11.4,7.6,15.6,13.1c1.1,1.6,2.8,3,2.6,5.2c-1.4,0.8-2.2-0.3-3-1.1
		c-4.8-4.7-9.5-9.5-14.3-14.3C225.8,108.1,224.7,107.3,225.6,105.9z"/>
	<path class="st157" d="M250.8,128.3c1.8,1.3,3.2,3,4.7,4.7c-0.6,3.2-3.2,4.9-5.6,6.4c-2,1.2-1.9-1.3-2.5-2.4
		c-0.4-1.4-1-2.9-0.5-4.4C248.1,131.1,249.5,129.8,250.8,128.3z"/>
	<path class="st158" d="M247.9,137.1c0.7,2.4,1.7,2.4,3.2,0.6c1.3-1.6,2.9-3.1,4.3-4.7c1.2,0.4,1.5,1.6,2.3,2.3c-2,4-6,6.2-8.7,9.7
		c-1-0.7-0.5-1.5-0.7-2.2C246.9,141,246.5,139.1,247.9,137.1z"/>
	<path class="st159" d="M225.6,105.9c-0.1,1,0.6,1.6,1.2,2.2c4.9,4.9,9.9,9.9,14.8,14.8c0.6,0.6,1.2,1.3,2.2,1.2
		c0.9,0.1,0.8,0.6,0.7,1.3c-0.3,0.6-0.8,0.9-1.4,1c-1.2,0.1-2-0.6-2.8-1.4c-5.2-5.1-10.4-10.3-15.5-15.5c-0.8-0.8-1.8-1.6-1.1-3
		c0.2-0.4,0.4-0.7,0.6-1.1C224.9,105.5,225.4,105.5,225.6,105.9z"/>
	<path class="st160" d="M244.3,125.3c0-0.4,0-0.9-0.5-1.1c-0.7-1.8-2.4-3.1-2.6-5.1c3.7,2.5,6.5,6,9.6,9.2c-0.3,2.2-1.7,3.5-3.7,4.2
		C245.1,130.5,244.7,127.9,244.3,125.3z"/>
	<path class="st148" d="M147.1,65.6c-1.2,2.7-3.2,4.6-5.9,5.9c-1.3-3.9-1.3-7.8,0-11.7C143.4,61.5,145.3,63.4,147.1,65.6z"/>
	<path class="st161" d="M188.1,106.7c0.3,1.8,1.9,2.6,3,3.8c3.1,3.3,6.3,6.5,9.5,9.7c-0.1,0.7-0.6,0.9-1.3,1c-0.4-0.1,0,0.2-0.3,0
		c-5.3-3.1-9-7.8-12.9-12.4c-0.3-0.3,0-0.7,0.2-1.1c0.4-0.4,0.8-0.7,1.2-1.1C187.7,106.7,187.9,106.7,188.1,106.7z"/>
	<path class="st162" d="M140.6,56.3c0.2,0.8-0.2,1.8,0.6,2.4c0,0.2,0,0.3,0,0.5c-0.7,1.1,0,2.4-0.4,3.5c-1.9,1-2.6-0.7-3.5-1.7
		c-0.6-1.8-2.7-0.6-3.7-1.7C135.4,56.9,137.9,56.4,140.6,56.3z"/>
	<path class="st163" d="M140.6,62.7c0.3-1.2-0.4-2.5,0.6-3.5c0,0.2,0,0.4,0,0.6c0,3.9,0,7.8,0,11.7c0,2.7,0,5.5,0,8.2
		c-0.3,0.2-0.6,0.1-0.9-0.2c-0.4-0.6-0.5-1.3-0.5-1.9c-0.1-1.7-0.1-3.4-0.1-5.1c0-2.6-0.1-5.2,0.1-7.9
		C139.8,63.9,140.1,63.3,140.6,62.7z"/>
	<path class="st164" d="M145.3,56.4c1-1.3,1.1-3.4,2.8-4.2c0.1,0.8-0.2,1.7,0.5,2.4C147.7,55.4,146.6,56,145.3,56.4z"/>
	<path class="st94" d="M116.6,170.5c1.9,0.3,3.3-0.6,4.6-1.9c15.4-15.5,30.9-31,46.4-46.4c1.9-1.9,3.9-3.5,5.8-5.3
		c0.9-0.9,1.9-0.9,3-0.9c0.4,1-0.5,1.6-0.8,2.4c-0.4,0.6-0.9,1.2-1.2,1.9c-0.7,0.9-1.2,1.9-1.7,3c-0.4,0.9-0.8,1.8-1.2,2.7
		c-2.5,5.6-3.1,11.5-3.6,17.5c-0.1,1.1,0,2.1-0.3,3.2c-1,1.9-2.9,2.8-4.3,4.3c-9.8,9.9-19.7,19.8-29.6,29.6
		c-3.1,3.1-4.3,3.3-7.6,0.4c-3-2.6-5.9-5.4-8.2-8.7C117.4,171.7,117,171.1,116.6,170.5z"/>
	<path class="st165" d="M109,151.7c1.2,0.8,2.5,1.5,3.7,2.3c3.4,2.5,5.4,2.5,8.6-0.5c1.5-0.2,2.8,0.1,3.4,1.6
		c0.5,1.5-0.5,2.4-1.5,3.2c-3.7,3-7.7,2.6-11.8,1c-0.7-0.3-1.5-0.4-2.1-1c-2.1-2-4.6-2.1-7.3-1.4c-3.7,2.9-7.7,4.9-12.6,3
		c-1.3-0.5-2.3-1.3-3.4-2.2c-2.3-1.9-5.5-3-8.7,0.3c-0.4,1.1-1.5,1.2-2.4,1.8c-4.9,1.4-9.2,0.6-13.3-2.9c-2-1.7-4.7-1.4-6.9,0.5
		c-5.3,4.4-10.2,3.5-13.6,1c-1.2-0.9-2.7-2-1.5-3.8c1.1-1.8,2.5-1.2,4-0.2c2.6,1.9,5.1,1.7,7.8-0.3c6.1-4.4,8.7-4.3,15,0
		c3.3,2.3,5.2,2.2,8.4-0.2c5.2-3.9,9.3-4,14.3-0.1c3.6,2.7,5.5,2.7,9.3-0.4C100.9,150.1,105.4,149.4,109,151.7z"/>
	<path class="st71" d="M109,151.7c-3.8-1.2-7.3-0.7-10.5,1.8c-0.7-2.7-3.5-3.6-4.7-5.9c8.8-9.1,17.8-18,26.9-26.9
		c0.9-0.9,2.2-2.9,3.9-0.6c0.2,2.7-0.4,5.4,0.3,8.1c-0.2,1.5,0.9,2.5,1.7,3.5c-5.5,5.6-11,11.2-16.5,16.8
		C109.2,149.5,107.9,150.2,109,151.7z"/>
	<path class="st150" d="M124.2,119.5c-1.7,0.2-2.8,1.3-3.9,2.4c-7.9,7.9-15.8,15.9-23.8,23.8c-0.8,0.8-1.4,1.9-2.8,1.9
		c-2.2-1.7-4.1-3.7-5.9-5.9c0.2-1,1-1.6,1.6-2.3c9.1-9.3,18.5-18.3,27.5-27.7c0.4-0.4,0.9-0.8,1.5-0.8c1.9,0.2,3.8-0.3,5.7,0.3l0,0
		C124.7,114.1,124.7,116.8,124.2,119.5z"/>
	<path class="st35" d="M167,143.5c0.6-6.2,0.8-12.5,4.1-18.2c0.6-0.2,1.2,0.1,1.6,0.5c4.4,4.4,9.1,8.4,12.9,13.3
		c0.2,2,0,3.9,0.1,5.9c-0.7,1.7-2.3,2.7-3.4,4c-0.4,0.4-0.9,0.9-1.4,1.3c-0.4,0.4-0.8,0.8-1.3,1.2c-0.4,0.4-0.8,0.8-1.2,1.2
		c-0.4,0.4-0.8,0.9-1.2,1.3c-0.5,0.5-1,1.1-1.6,1.6c-0.5,0.4-0.9,0.9-1.3,1.4c-0.8,0.7-1.4,1.6-2.4,2.1c-0.3,0.1-0.5,0-0.7-0.2
		c-1.5-2.1-1.8-4.8-2.9-7.1c-1.7-0.9-1.4-2.5-1.2-4C167.4,146.3,167.5,144.9,167,143.5z"/>
	<path class="st95" d="M167.5,147.6c0.3,1.3-0.3,2.8,0.7,4.1c0.2,1.5-0.4,2.6-1.5,3.6c-10.3,10.2-20.6,20.5-30.8,30.8
		c-1.6,1.6-3.3,1.9-4.9,0.6c-4.4-3.9-8.7-8-12.5-12.5c-0.4-0.5-0.5-1.3-0.7-1.9c2.4,2.3,4.8,4.6,7.2,6.9c0.6,0.6,1.2,1.2,1.9,1.8
		c2.2,1.6,3.9,1.7,6.1-0.6c10-10.4,20.3-20.5,30.5-30.7c1-1,2.1-2.1,3.5-2.6C167.2,147.2,167.4,147.4,167.5,147.6z"/>
	<path class="st166" d="M117.8,111.3c0,0.9-0.5,1.4-1.1,2c-9.3,9.3-18.7,18.7-28,28c-0.2,0.2-0.5,0.3-0.7,0.5
		c-2.5-2.4-5.6-4.3-7-7.6c1.4-0.4,2.7-0.4,4.1,0c2.5-0.9,4.3-2.6,5.9-4.7c5.7-6.1,11.8-11.7,17.5-17.8c0.4-0.4,0.9-0.7,1.5-0.7
		C112.5,111.2,115.2,110.7,117.8,111.3z"/>
	<path class="st167" d="M137.7,105.5c-0.5,2.5-2.2,3.5-4.6,3.5c-16.9,0-33.7,0.1-50.6-0.1c-2.5,0-5,0.1-7.5,0.1
		c-0.4-1.3-0.6-2.5,0.1-3.8c1-0.8,2.2-0.8,3.4-0.8c18.2,0.2,36.3,0,54.5,0.1C134.6,104.6,136.3,104.2,137.7,105.5z"/>
	<path class="st168" d="M75,105.5c0,1.2,0,2.3,0,3.5c0,6,0,12,0,18c-0.2,0-0.4,0-0.6,0c0-8.9,0-17.9,0-26.8c0.7-3.2,4-4.9,7.1-3.7
		c1.2,0.5,2.5,0.4,3.7,0.4c15.2,0,30.4,0,45.6,0c1.6,0,3.1-0.1,4.7,0.2c1.4,0.4,2.2,1.2,2.5,2.6c0,0.6-0.1,1.1-0.7,1.4
		c-1.1,0.6-2.3,0.5-3.4,0.5c-17.3,0-34.5,0-51.8,0c-1.2,0-2.3-0.1-3.5-0.2c-1-0.1-2.2-0.2-2.7,1.1C75.9,103.6,75.8,104.6,75,105.5z"
		/>
	<path class="st169" d="M75,105.5c0-1,0-2,0-2.9c0.8-0.8,1.8-1,3-1c18.6,0.3,37.3,0,55.9,0.1c1.4,0,2.9-0.3,4.3,0.6
		c0.8,0.8,0.8,1.7,0.1,2.6c-0.2,0.2-0.4,0.4-0.6,0.6c-18.7,0-37.4,0-56,0C79.4,105.5,77.2,105.5,75,105.5z"/>
	<path class="st170" d="M135.9,97.9c-17.8,0-35.6,0-53.4-0.1c-0.6,0-2.7,1.3-2.1-1.2c0-0.1-0.2-0.2-0.4-0.3
		c-1.3,2.1-5.1,0.6-5.7,3.9c0-2.9,0-5.9,0-8.8c0.3-0.2,0.6-0.2,0.8,0.1c0.4,0.5,0.5,1.1,0.5,1.7c0.4,2.1,1.9,1.6,3.2,1.2
		c2.4-0.8,4.7-1.6,7-2.7c0.9-0.4,2.1-1.4,2.8,0.4c-0.2,1.1-0.5,2.1-1.7,2.3c12.4-0.2,24.7-0.2,37.1-0.2c2.4,0,4.7,0,7.1,0.1
		c1.1,0.2,2.1,0.7,3.1,1.2C135.1,96,136.2,96.5,135.9,97.9z"/>
	<path class="st153" d="M109,111.4c0,0.9-0.6,1.4-1.1,2c-5,5-10.1,10.1-15.1,15.1c-0.6,0.6-1.1,1.1-2,1.1c-0.1-0.9,0.2-1.6,0.6-2.4
		c-0.6-1.9-0.1-3.9-0.3-5.8c1.7-2.9,4.5-4.8,6.7-7.2c1.1-1.2,1.8-2.8,3.7-3.2C104,111.2,106.5,110.7,109,111.4z"/>
	<path class="st171" d="M171.1,158.8c0.2,0,0.4-0.1,0.5-0.1c0.4,0.1,0.8,0.2,1,0.5c6.1,6,12.2,12,18.1,18.2c0.2,0.2,0.3,0.5,0.4,0.8
		c0,0.3-0.1,0.5-0.3,0.8c-2.7,0.3-4.5-1.4-6.3-3c-0.2-0.1-0.4-0.1-0.6-0.2c-0.6-0.6-1.1-1.3-1.9-1.7c-3.7-3.8-7.5-7.5-10-12.3
		C171.8,160.8,171.1,159.9,171.1,158.8z"/>
	<path class="st172" d="M201,192.8c-0.8-0.6-1.6-1.2-2.3-1.8c-0.2-0.4-0.4-0.8-0.6-1.1c-0.8-1.4,0.5-1.9,1.2-2.5
		c1.6-1.6,3.4-3,3.8-5.5c1.8-0.7,3.5,0.1,5.3,0.3c1.6,0.3,2.4,1.3,1.2,2.6C206.9,187.6,204.5,190.8,201,192.8z"/>
	<path class="st160" d="M184.7,175.9c2.3,0.4,3.9,2.5,6.2,2.8c2.6,0.4,5.1,1.1,7.2,2.8c0.1,2.9-1.8,3.8-4.2,4.3
		C190.7,182.6,186.9,180,184.7,175.9z"/>
	<path class="st157" d="M193.9,185.8c1.5-1.3,3.6-1.9,4.1-4.1c1.8-1.2,3.3-0.8,4.7,0.7c1.2,0.7,1.1,1.4,0.2,2.4
		c-1.6,1.7-3.6,3-4.8,5.1C196.5,188.7,195.1,187.3,193.9,185.8z"/>
	<path class="st173" d="M138.3,104.9c0-0.8,0-1.6,0-2.3c-0.5-0.5-0.7-1.1-0.6-1.8c0-0.4,0-0.8,0-1.2c1.5-1,1.8,0,2.2,1.1
		c0-2.8-0.1-5.8,0-8.8c-0.1-1.3,0-2.7,0-4c-0.1-1.2,0-2.4,0-3.6c0-1.6-0.4-3.2,0.8-4.6c0.2,0,0.4,0,0.6,0c0,0.4,0,0.8,0,1.2
		c0,3.1,0,6.3,0,9.4c0,3.5,0,7,0,10.5c0,4.3,0,8.6,0,12.9c0,3.1,0,6.3,0,9.4c-0.2,1.2,0.5,2.5-0.6,3.5c0-6.4,0-12.8,0-19.1
		C140.7,105.7,140.3,104.6,138.3,104.9z"/>
	<path class="st67" d="M101.9,157c3.3-2.1,5.2-1.7,9.4,2.3c-1,1.1-1.9,2.3-3.5,2.4C105.6,160.5,104.6,157.7,101.9,157z"/>
	<path class="st174" d="M109,111.4c-2.7,0-5.5,0-8.2,0c-3,1.4-6,1-9.1,0.3c-0.4-0.2-0.4-0.5-0.3-0.9c9.9,0,19.9,0,29.8,0
		c1,0,2.2-0.4,3,0.6c-2.2,0-4.3,0-6.5,0C114.8,111.3,111.9,111.3,109,111.4z"/>
	<path class="st175" d="M75,91.4c-0.2,0-0.4,0-0.6,0c0-5.8,0-11.7,0-17.5c1.1,1,0.4,2.3,0.6,3.5c0.9,1,0.8,2.2,0.8,3.5
		c0,1.4,0,2.7,0,4.1c0,1.2,0,2.4,0,3.6C75.8,89.5,75.8,90.6,75,91.4z"/>
	<path class="st176" d="M124.2,119.5c0-2.7,0-5.5,0-8.2c1.2,1.4,0.5,3,0.6,4.5c0.1,4.2,0,8.3,0,12.5
		C123.5,125.5,124.6,122.5,124.2,119.5z"/>
	<path class="st177" d="M91.4,110.7c0,0.2,0,0.4,0,0.6c1.4,3.1,1.4,6.2,0,9.4c0,2.1,0,4.3,0,6.4c-1.3-3.7-0.4-7.6-0.5-11.4
		C90.8,114.1,90.2,112.3,91.4,110.7z"/>
	<path class="st178" d="M134.8,133.6c-1.6,0.9-3.1,0.9-4.7,0C131.6,133.6,133.2,133.6,134.8,133.6z"/>
	<path class="st95" d="M74.9,159.9c0.5-1,1.5-1.2,2.4-1.8C77.5,160.1,76.2,160,74.9,159.9z"/>
	<path class="st178" d="M84.9,134.2c-1.4,0-2.7,0-4.1,0C82.2,133.3,83.6,133.3,84.9,134.2z"/>
	<path class="st95" d="M182.2,174.1c1.1,0,1.7,0.6,1.9,1.7C183.2,175.5,182.7,174.8,182.2,174.1z"/>
	<path class="st86" d="M235.5,226.8c1.5,4.7,1.5,4.7-3.8,4.7c-35.4,0-70.8,0-106.2,0c-1.4,0-3.3-0.7-3.7,1.7c-1.2-0.3-2.3-0.7-3.5-1
		c-1.3,0.6-2.5,0-3.7-0.2c-1.2-0.4-2.5-0.5-3.6-1c-0.8-0.4-2-0.6-1.3-2c1.4-1,3-0.7,4.5-0.7c38.6,0,77.3,0,115.9,0
		c1.8,0,3.5-0.1,4.8-1.5C235.2,226.8,235.4,226.8,235.5,226.8z"/>
	<path class="st86" d="M235,226.8c0.2,1.5-0.8,2.1-2.1,2.3c-1,0.1-1.9,0.1-2.9,0.1c-38.9,0-77.8,0-116.8,0c-1.2,0-2.5-0.5-3.6,0.5
		c-1.6,1.1-2.9,0.6-4.1-0.6c0.3-2,1.9-1.7,3.2-1.7c12.5,0,25,0,37.5,0c28,0,56,0,84,0c1.4,0,3.3,0.7,3.7-1.7
		C234.3,225.8,234.7,226.2,235,226.8z"/>
	<path class="st179" d="M195.1,264.8c-0.9,1-2,0.6-3,0.6c-11,0-22.1,0-33.1,0.1c-2.4,0-4.6-0.1-6-2.4c0-2.7,0-5.5-0.1-8.2
		c0-2.3,0-4.6,0-6.8c2.3,1.3,4.7,2.7,7,4c8.9,5.2,18.6,8,28.8,9.3c1.7,0.2,3.5,0.4,5.2,0.6C194.3,262.9,194.7,263.9,195.1,264.8z"/>
	<path class="st20" d="M105.5,229c1.4,0.2,2.7,1,4.1,0.6c1.7,0.6,3.5,1.1,5.2,1.7c-0.3,1.8-1.5,3.2-1.9,4.9
		c-0.9,1.5-0.8,3.6-2.7,4.6c-0.2,0.2-0.4,0.4-0.6,0.6c-1.1-0.7-2.4-0.6-3.7-0.6c-12.9,0-25.7,0-38.6,0c-1,0-2.5,0.6-2.8-1.1
		c0.6-0.8,1.2-1.6,1.8-2.3c2-1.5,3.8-3.3,5.3-5.3c1.9-1.6,3.8-3.2,5.3-5.3c2.5-0.5,5-0.4,7.6-0.1C91.4,226.9,98.5,227.9,105.5,229z"
		/>
	<path class="st77" d="M84.3,226.7c-2.5,0-5,0.1-7.6,0.1c-0.6-0.2-1.3-0.4-1.9-0.5C78,226.4,81.2,225.7,84.3,226.7z"/>
	<path class="st180" d="M110.2,240.9c1-1.5,1-3.4,2.3-4.8c1.6,0.1,3,0.6,4.1,1.8c-0.8,1.8-1.5,3.5-2.3,5.3
		C112.1,243.8,110.6,243.3,110.2,240.9z"/>
	<path class="st181" d="M116.5,237.9c-1.4-0.4-3-0.6-4.1-1.8c0.2-1.9,0.9-3.5,2.3-4.7c1.2,0.3,2.4,0.5,3.6,0.8
		C118.8,234.4,116.6,235.8,116.5,237.9z"/>
	<path class="st165" d="M122.5,209.2c-0.3-1-0.3-1.9-0.1-2.9c1.2-1.2,2.3-1.3,3.8-0.3c3.3,2.2,5.2,2.1,8.3-0.3
		c1.7-1.3,3.6-2.2,5.5-2.9c1.2,0,2.3,0,3.5,0c2.5-0.4,4.3,1.1,6.2,2.4c3,2.1,4.6,2,7.4-0.1c1.5-1.5,3.2-2.3,5.3-2.3
		c1.8,0,3.6-0.4,5.2,0.5c2.2-0.8,3.4,0.9,5,1.9c3.2,2.1,4.6,2.1,7.6,0.1c1.6-1.5,3.3-2.8,5.7-2.4c1.4,0,2.7,0,4.1,0
		c2.3-0.2,4.1,0.8,5.8,2.2c2.4,2,4.8,2.2,7.5,0.6c1.3-0.8,2.7-1.4,4.1-0.3c1.1,0.9,1.9,2.1,0.3,3.3c-1.2,2-3.1,3-5.3,3.5
		c-1.6,0.4-3.1,0.4-4.7,0c-1.8-0.1-3.3-1-4.7-2.1c-3.7-2.9-5.6-2.9-9.5-0.3c-1.4,0.9-2.6,2.3-4.5,2.3c-1.6,0.4-3.1,0.4-4.7,0
		c-2.4,0.2-3.7-1.8-5.5-2.9c-3-1.8-5.7-1.8-8.2,0.5c-1.3,1.2-2.8,2-4.5,2.5c-1.6,0.4-3.1,0.4-4.7,0c-1.9-0.1-3.4-1.1-4.9-2.2
		c-3.3-2.6-5.6-2.6-9-0.2c-1.5,1-3,2.1-4.9,2.5c-1.4,0.4-2.7,0.4-4.1,0C125.8,212.3,124.1,210.8,122.5,209.2z"/>
	<path class="st89" d="M207.5,208.6c0.6-1.1,0.4-2-0.5-2.8c-1-0.8-2-0.5-2.9,0.1c-3.3,2.4-6.4,2-9.3-0.8c-1.4-1.3-3.2-1.6-4.8-2.4
		c2.5-1.2,5.1-0.5,7.7-0.6c3-0.1,6,0,9,0c1.1,0,2.2,0,2.7-1.2c0.6,0.4,1.2,0.8,1.8,1.2c1.4,1.5,2.3,3.5,4.1,4.7
		c0.2,0.4,0.4,0.8,0.6,1.2C213,209.2,210.2,208.3,207.5,208.6z"/>
	<path class="st77" d="M197.5,212.1c1.6,0,3.1,0,4.7,0C200.6,213,199,213,197.5,212.1z"/>
	<path class="st77" d="M174,212.1c1.6,0,3.1,0,4.7,0C177.1,213,175.6,213,174,212.1z"/>
	<path class="st76" d="M151.2,212.1c1.6,0,3.1,0,4.7,0C154.3,213,152.7,213,151.2,212.1z"/>
	<path class="st77" d="M128.3,212.2c1.4,0,2.7,0,4.1,0C131.1,213,129.7,213,128.3,212.2z"/>
	<path class="st94" d="M30.9,198.3c1-1.3,2.5-0.8,3.8-0.8c53.7,0,107.4,0,161.1,0c2.9,0,5.8,0.1,8.7-0.6c0.6-0.3,0.9,0.1,1.2,0.6
		c-1.3,1.5-3,1.1-4.6,1.1c-55.2,0-110.4,0-165.7,0c-1.3,0-2.8-0.6-3.8,0.7C31.3,199,31.1,198.6,30.9,198.3z"/>
	<path class="st152" d="M205.7,197.5c-0.4-0.2-0.8-0.4-1.2-0.6c0-0.2,0-0.4,0-0.6c0.5-2.8,2.9-4.4,4.6-6.4c2.5-3,5.9-5.3,8-8.7
		c2.1-1.6,4.9-1.6,7.1-2.9c1.2-0.4,2.2-1.5,3.6-0.8c0.7,1.5-0.6,2.3-1.4,3c-5.5,5.6-11,11.1-16.5,16.6c-0.7,0.7-1.6,1.1-2.4,1.6
		C206.8,198.3,206.2,197.9,205.7,197.5z"/>
	<path class="st89" d="M162.3,202.8c-1.3,1.4-3.8,1-4.8,2.9c-2.7,0.5-5.5,0.3-8.2,0c-1.9-1.1-3.7-2.3-5.9-2.9
		c0.5-0.8,1.4-0.6,2.1-0.6c4.9,0,9.7,0,14.6,0C161,202.2,161.8,202,162.3,202.8z"/>
	<path class="st89" d="M172.3,205.7c-1.5-1-2.9-2-4.7-2.4c0.1-0.8,0.6-1.1,1.4-1.1c5.3,0,10.5,0,15.8,0.1c0.3,0,0.6,0.4,1,0.6
		c-1.9,0.7-3.9,1.3-5.3,2.9C177.8,206.2,175,206.1,172.3,205.7z"/>
	<path class="st182" d="M217.4,181.6c0,1.4-1.1,2-1.9,2.8c-3.8,3.8-7.8,7.6-11,11.9c-1.2-1-2.3-2-3.5-2.9c0-0.2,0-0.4,0-0.6
		c2.5-2.6,5.1-5.2,7.6-7.9c0.5-0.6,2.3-1.4,0-2.1c0-0.5,0.3-1,0.8-1C212,181.5,214.7,180.3,217.4,181.6z"/>
	<path class="st183" d="M140.6,72.6c0,1.8,0,3.5,0,5.3c-0.9,0.7-1.8,0.8-2.8,0.3c-0.3-0.2-0.4-0.5-0.2-0.9c0.2-0.8,0.4-1.6,0.6-2.3
		c-0.1-1,0.4-2.1-0.6-3c0-0.6,0-1.2,0-1.7C139.5,70,139.8,71.6,140.6,72.6z"/>
	<path class="st184" d="M137.7,77.3c0,0.2,0,0.4,0,0.6c-0.4,2.5-2,3.3-4.3,3.2c-16.2-0.1-32.3,0-48.5,0c-0.9,0-1.8,0-2.6,0.2
		c-0.3,0.1-0.6,0.2-0.9,0.3c-1.3-0.1-1.7-1.1-1.9-2.1C78.4,81.2,77,82,75,80.9c0-1.2,0-2.3,0-3.5C95.9,77.3,116.8,77.3,137.7,77.3z"
		/>
	<path class="st185" d="M140.6,62.7c0,0.6,0,1.2,0,1.8c-1.2,1.7-1.1,4.4-3.5,5.3c-0.2,0-0.4,0-0.6,0c-0.8-2.2-2.8-2.7-4.7-3.5
		c-1.3-1.4-3.4,0.2-4.7-1.2c3.1-2.6,6.7-3.9,10.5-4.7C138.4,61.4,139.1,62.5,140.6,62.7z"/>
	<path class="st186" d="M137.1,69.7c1.6-1.5,1.3-4.2,3.5-5.3c0,2.7,0,5.5,0,8.2c-1-0.8-2-1.6-2.9-2.3
		C137.5,70.1,137.3,69.9,137.1,69.7z"/>
	<path class="st187" d="M127.7,53.9c1.2,0,2.4,0,4.4,0c-3.5,3-5.4,6.3-7.8,9.3c0-2.1,0-4.2,0-6.3c0.3-0.6,0.7,1.7,1.2-0.1
		C125.8,55.6,126.8,54.7,127.7,53.9z"/>
	<path class="st188" d="M113.7,54.5c1-1.1,2.3-0.4,3.5-0.6c0.5,2.4-0.2,4.7-0.6,7C115.4,58.9,114.1,56.9,113.7,54.5z"/>
	<path class="st189" d="M127.7,53.9c-0.2,1.4-1.3,2.3-1.9,3.4c-1.2,1.9-0.9-0.6-1.4-0.5c0-1,0-2,0-3
		C125.5,53.9,126.6,53.9,127.7,53.9z"/>
	<path class="st190" d="M140.6,51.6c0,1.2,0,2.3,0,3.5c-5.3-1-8.5,2.8-12.3,5.3C131.2,55.7,135.3,52.8,140.6,51.6z"/>
	<path class="st191" d="M137.7,60.4c-3.5,1.6-7,3.1-10.5,4.7c1.2-3,3.7-4.6,6.4-5.9C134.9,59.7,137,57.7,137.7,60.4z"/>
	<path class="st51" d="M85.5,65.6c-0.6,0-1.2,0-1.8,0c0-3.3,0-6.7,0-10c0.7-0.2,1.2,0.1,1.7,0.6c0.4,0.5,0.7,1.1,0.8,1.8
		C86.2,60.6,87.1,63.2,85.5,65.6z"/>
	<path class="st192" d="M85,56.3c-0.4-0.2-0.8-0.4-1.2-0.6c0-0.2,0-0.4-0.1-0.5c0.8,0,1.5-0.4,1.8-1.2c0.8,0,1.6,0,2.3,0
		C87.8,55.8,87,56.8,85,56.3z"/>
	<path class="st193" d="M85.5,65.6c0-2.7,0-5.5,0-8.2c0.2-0.2,0.5-0.2,0.7-0.1c0.6,0.3,1.1,0.8,1.6,1.3c0.6,0.7,1.1,1.4,1.3,2.4
		c0.1,1.6,0.5,3.3-0.7,4.7C87.5,65.6,86.5,65.6,85.5,65.6z"/>
	<path class="st194" d="M87.3,58.6c-0.4-0.4-0.8-0.8-1.2-1.2c1.3-1.3,2.4-3,4.7-2.3c0,1.2,0,2.3,0,3.5
		C89.6,59.6,88.5,59.3,87.3,58.6z"/>
	<path class="st195" d="M88.5,65.6c0-1.8,0-3.5,0-5.3c1.5-0.4,1.7,1,2.3,1.7C90.7,63.7,91.6,66,88.5,65.6z"/>
	<path class="st196" d="M90.8,55.1c-1.8,0.2-2.8,2.1-4.7,2.3c-0.2,0-0.4,0-0.6,0c-0.2-0.4-0.4-0.8-0.6-1.2c1.5-0.1,2.2-1.2,2.9-2.3
		C88.9,54.2,90.4,53.2,90.8,55.1z"/>
	<path class="st197" d="M90.8,62.1c-0.8-0.6-1.5-1.2-2.3-1.7c-0.4-0.6-0.8-1.2-1.2-1.8c1.2,0,2.3,0,3.5,0
		C90.8,59.8,90.8,60.9,90.8,62.1z"/>
	<path class="st198" d="M148.2,40.4c0-0.6,0.1-1.2,0.1-1.7c1.4,0.9,1.8,2.8,3.5,3.5c-0.7,2.4-1.4,4.8-2.1,7.1
		c-0.2,0.7-0.3,1.6-1.3,1.6c0-1-0.1-1.9-0.1-2.9c-1.1-1.2-0.6-2.7-0.8-4.1C147.3,42.7,147.6,41.6,148.2,40.4z"/>
	<path class="st199" d="M148.2,44c0,1.4,0,2.7,0,4.1c-2.2,2.6-4.3,5.2-7,8.4c0-2.3,0-3.9,0-5.5c1.7-2.1,3.5-4.1,5.3-6.2
		C146.9,44.3,147.4,43.7,148.2,44z"/>
	<path class="st200" d="M148.2,44c-2.6,2-3.7,5.6-7,7c0-1,0-1.9,0-2.9c2.8-2.1,4.3-5.4,7-7.6C148.2,41.6,148.2,42.8,148.2,44z"/>
	<path class="st201" d="M176.9,115.9c0.5-0.6,1.1-1.2,1.6-1.7c0.6-0.3,1.2-0.1,1.6,0.4c3.8,3.8,7.9,7.2,11.1,11.5
		c0,1.3-0.6,2.3-1.9,2.7c-1,0.2-1.7-0.3-2.3-0.9c-3.2-3.1-6.3-6.2-9.4-9.4C176.9,117.8,176.2,117,176.9,115.9z"/>
	<path class="st202" d="M186.3,107.8c0,1.3,1.1,2,1.9,2.8c2.8,2.8,5.6,5.6,8.4,8.4c0.7,0.7,1.3,1.7,2.6,1.7
		c-0.2,1.7-1.6,1.5-2.8,1.7c-1.5-0.2-2.3-1.4-3.3-2.3c-2.5-2.5-5.1-5-7.6-7.6c-0.9-1-2-1.9-1-3.5C185,108.3,185.6,108,186.3,107.8z"
		/>
	<path class="st203" d="M176.9,115.9c0,1.3,1,2.1,1.9,2.8c3.6,3.1,6.2,7.3,10.5,9.6c0.4,1.1-0.2,1.7-1.1,2.2
		c-1.2,0.3-2.1-0.1-2.9-0.8c-3.3-3.1-6.5-6.3-9.6-9.6c-0.5-0.5-0.9-1.1-0.5-1.8c0.4-0.7,0.8-1.5,1.3-2.2
		C176.6,116,176.7,115.9,176.9,115.9z"/>
	<path class="st204" d="M191,126c-3.3-3.2-6.6-6.4-9.8-9.6c-0.8-0.8-1.5-1.8-2.7-2.3c0.6-1,1.5-1.8,2.5-2.4
		c4.2,4.1,8.3,8.3,12.5,12.4C193.3,125.6,192.2,125.9,191,126z"/>
	<path class="st205" d="M184.6,108.9c0,0.8,0,1.6,0.7,2.1c3.8,3.6,7.2,7.7,11.3,10.9c-0.2,1.1-0.9,1.5-1.9,1.5
		c-1.4-0.2-2.1-1.2-3-2.1c-2.6-2.6-5.2-5.2-7.8-7.8c-0.8-0.8-1.9-1.4-1.6-2.9C182.8,109.9,183.6,109.3,184.6,108.9z"/>
	<path class="st206" d="M182.2,110.7c3.9,4.4,8,8.6,12.4,12.4c-0.1,0.9-0.3,1.5-1.4,1.1c-3.6-1.8-5.7-5.2-8.5-7.8
		c-1.4-1.3-3.4-2.4-3.8-4.7C181.3,111.3,181.6,110.9,182.2,110.7z"/>
	<path class="st165" d="M193.3,124.2c0.5-0.4,0.9-0.7,1.4-1.1c0.8-0.1,1.4-0.5,1.9-1.1c0.9-0.4,1.8-0.9,2.7-1.3c0.5,0,1,0,1.3-0.5
		c1.3-0.3,2.6-0.5,3.9-0.8c2.2,0,4.3,0,6.5,0c1.7-0.8,3.3,0,4.8,0.5c7.3,2.9,12.1,8.1,14.5,15.6c0.3,1.2,0.7,2.4,0.8,3.6
		c0.1,1.9,0.1,3.9,0,5.8c-0.2,1.2-0.5,2.4-0.9,3.6c-0.2,0.4-0.4,0.8-0.8,1.1c-5,4.4-9.9,8.9-14,14.2c-0.3,0.4-0.6,0.6-1.1,0.8
		c-1.2,0.3-2.4,0.6-3.6,0.8c-2.1,0.1-4.3,0.1-6.5,0.2c-6.9-0.9-11.9-4.9-16-10.2c-0.5-0.7-0.9-1.5-1.5-2.1c-1.4-2.5-2.4-5-1.7-7.9
		c0-2.2,0-4.3,0-6.5c-0.6-1.1-0.2-2.2,0.1-3.4c0.3-1.1,0.9-2.1,1.2-3.1c0.3-1,0.9-1.7,1.8-2.2c0.4-0.6,0.8-1.2,1.2-1.8
		c0.8-0.6,1.6-1.3,1.7-2.4C191.7,125.3,192.9,125.2,193.3,124.2z"/>
	<path class="st207" d="M229.6,135.4c-2.4-7-7.1-11.9-13.9-14.8c-0.7-1.3-2.8-1.5-2.4-3.5c0.6-1,1.4-1.7,2.4-2.3
		c0.4,0.1,0.8,0.2,1,0.5c6.1,6,12.2,12,18.2,18.2c0.2,0.2,0.3,0.5,0.4,0.8c-0.2,1.5-1.5,2-2.6,2.6
		C231.2,137.2,230.5,136,229.6,135.4z"/>
	<path class="st208" d="M220.8,109.5c0.4-0.8,1-1.3,1.8-1.8c6.5,6.5,13,13,19.5,19.5c0,1.2-0.7,1.8-1.8,2.1c-1.3-0.1-2-1-2.9-1.8
		c-5-5-10.1-10-15-15.1C221.6,111.6,220.5,110.9,220.8,109.5z"/>
	<path class="st209" d="M235,134.2c-6.7-6.2-13.2-12.7-19.4-19.4c0.6-0.6,1.2-1.2,1.8-1.8c6.5,6.5,13,13,19.5,19.5
		C236.8,133.6,236.3,134.4,235,134.2z"/>
	<path class="st210" d="M218.5,111.8c0.4-0.4,0.8-0.8,1.2-1.2c0.5,0.1,0.9,0.3,1.3,0.7c5.9,5.8,11.8,11.7,17.6,17.6
		c0.3,0.3,0.6,0.8,0.7,1.2c-0.1,0.8-0.6,1.3-1.3,1.5c-1.1,0.2-1.9-0.4-2.6-1.1c-5.4-5.3-10.7-10.6-16-16
		C218.6,113.8,217.8,113,218.5,111.8z"/>
	<path class="st211" d="M239.1,130.1c-6.7-6.2-13.2-12.7-19.4-19.4c0.4-0.4,0.8-0.8,1.2-1.2c6.2,6.8,12.7,13.2,19.4,19.4
		C240.4,129.9,240,130.2,239.1,130.1z"/>
	<path class="st212" d="M242,127.2c-0.9,0-1.4-0.5-2-1.1c-5.4-5.4-10.8-10.8-16.1-16.1c-0.6-0.6-1.3-1.2-1.3-2.2
		c0.4-0.4,0.8-0.8,1.2-1.2c0,1,0.6,1.6,1.3,2.2c5.4,5.4,10.8,10.8,16.1,16.1c0.6,0.6,1.1,1.1,2,1.1
		C243.3,126.9,242.9,127.3,242,127.2z"/>
	<path class="st201" d="M218.5,111.8c0,1,0.6,1.6,1.3,2.2c5.4,5.4,10.8,10.8,16.1,16.1c0.6,0.6,1.1,1.1,2,1.1
		c0.2,0.9-0.2,1.3-1.2,1.2c-0.9,0-1.4-0.5-2-1.1c-5.4-5.4-10.8-10.8-16.1-16.1c-0.6-0.6-1.3-1.2-1.3-2.2
		C217.7,112.6,218.1,112.2,218.5,111.8z"/>
	<path class="st213" d="M213.2,117.1c0.5,1.4,2.3,1.9,2.4,3.5c-1.6-0.4-3.1-0.8-4.7-1.2C211.5,118.5,212.3,117.7,213.2,117.1z"/>
	<path class="st214" d="M237.9,168.8c-0.7,1.2-1.7,2.2-2.9,2.9c-0.9,0.7-1.7,0.1-2.3-0.5c-3.3-3.2-6.5-6.4-9.7-9.7
		c-0.5-0.6-0.9-1.3-0.8-2.1c0.6-1.6,1.5-2.8,3.3-3.1C229.6,160.4,233.9,164.5,237.9,168.8z"/>
	<path class="st215" d="M222.7,159.4c1.4,3.3,4.4,5.1,6.7,7.5c1.7,1.8,3,4.1,5.6,4.8c-0.7,1-1.6,1.9-2.8,2.4c-1.1,0.6-1.9,0-2.6-0.7
		c-3.2-3.1-6.3-6.2-9.3-9.3c-0.6-0.6-1.1-1.4-1-2.4C220,160.4,220.9,159.3,222.7,159.4z"/>
	<path class="st216" d="M241.3,164.1c0,1.1-0.8,1.8-1.6,2.4c-0.9,0.6-1.7,0.1-2.3-0.5c-3.4-3.3-6.8-6.6-10-10
		c-0.5-0.5-0.7-1.2-0.7-1.9c0.1-1.1,0.4-2,1.5-2.5c1,0.1,1.9,0.7,2.5,1.3C234.4,156.5,238.5,159.7,241.3,164.1z"/>
	<path class="st207" d="M219.7,161.6c0,1.1,0.8,1.7,1.4,2.4c2.9,2.9,5.8,5.8,8.6,8.6c0.7,0.7,1.3,1.4,2.4,1.4
		c-0.6,0.8-1.4,1.5-2.4,1.7c-1.2,0.6-2-0.1-2.8-0.9c-3-2.9-5.9-5.8-8.8-8.8c-0.9-0.9-1.6-2-1.1-3.4
		C217.6,161.7,218.4,161.1,219.7,161.6z"/>
	<path class="st217" d="M227.3,154c0,1.3,1.1,2,1.9,2.8c2.7,2.7,5.3,5.4,8,8c0.7,0.7,1.4,1.6,2.6,1.7c-0.4,1-1,1.8-1.9,2.3
		c-3.1-1.2-4.8-4.1-7.1-6.3c-1.9-1.9-4.4-3.3-5.3-6.1C225.5,155.1,226,154.3,227.3,154z"/>
	<path class="st218" d="M211,164.7c1.2-0.3,2.3-0.8,3.5-0.6c3.1,2.8,6,5.9,8.9,8.8c1.4,1.4,3,2.8,4.6,4c-0.1,0.2-0.1,0.3-0.2,0.5
		c-1.1,0.4-2.2,0.8-3.3,1.2c-1.3-0.2-2-1.2-2.8-2c-3-3-6.1-6-9.1-9.1C211.9,166.8,210.7,166.1,211,164.7z"/>
	<path class="st161" d="M241.3,164.1c-4.3-4.1-8.6-8.2-12.8-12.3c-0.8-1,0-1.6,0.6-2.3c0.2-0.2,0.4-0.4,0.6-0.6
		c2.2,0.9,3.5,3,5.2,4.6c2.8,2.5,5.1,5.6,8.3,7.8c-0.1,0.4-0.1,0.7-0.2,1.1C242.4,162.8,241.9,163.4,241.3,164.1z"/>
	<path class="st219" d="M227.9,177c-0.9,0.1-1.7-0.2-2.4-0.9c-3.5-3.5-7-7-10.4-10.5c-0.4-0.4-0.7-0.9-0.7-1.5
		c0.2-0.2,0.4-0.4,0.6-0.6c0.7-0.6,1.3-1.4,2.3-0.6c0.1,0.6,0,1.3,0.4,1.7c3.7,3.7,7.4,7.4,11.2,11.1c0.2,0.2,0.6,0.1,0.8,0.2
		C229.3,176.4,228.7,176.8,227.9,177z"/>
	<path class="st35" d="M236.7,132.4c0.4-0.4,0.8-0.8,1.2-1.2c0.4-0.4,0.8-0.8,1.2-1.2c0.4-0.4,0.8-0.8,1.2-1.2
		c0.8-0.4,1.4-1,1.8-1.8c0.4-0.4,0.8-0.8,1.2-1.2c0.4-0.2,0.8-0.5,1.1-0.7c1.5,2.2,1.9,4.8,2.8,7.2c0.3,1.5,0.6,3.1,0.8,4.6
		c-0.2,1.9,0.2,3.8,0.4,5.8c-0.4,3-0.8,5.9-1.2,8.9c-1,2.4-1.5,4.9-2.9,7.1c-0.8,0.2-1.3-0.2-1.8-0.7c-3.8-3.7-7.6-7.5-11.3-11.3
		c-0.4-0.4-0.5-1-0.9-1.5c0-2.2,0-4.4,0-6.6c0.4-1,1.2-1.7,2.2-2.3c0.5-1.1,2.1-1.1,2.5-2.3C235.7,133.8,236.3,133.2,236.7,132.4z"
		/>
	<path class="st155" d="M230.3,145.3c4.7,4.5,9.3,9,14,13.5c-0.1,0.9-0.5,1.7-1.1,2.3c-0.7,0.4-1.2,0.3-1.8-0.3
		c-3.9-4-7.8-8-11.7-12.1C229.9,147.6,230.1,146.5,230.3,145.3z"/>
	<path class="st220" d="M134.2,80.9c1.6-0.5,2.5-1.7,3.5-2.9c1,0,2,0,2.9,0c0,0.6,0,1.2,0,1.8c0,1.6,0,3.1,0,4.7
		c-3,1.5-6.1,2.5-9.6,2.2c-0.7-0.3-0.8-1-0.6-1.7c0.4-1.5-0.5-1.5-1.6-1.5c-1.6,0-3.2,0.1-4.8,0c-1.6,0.1-3.1,0.1-4.7,0
		c-3.8,0.1-7.7,0.1-11.5,0c-2.9,0-5.8,0.1-8.7,0c-2.5,0-5,0.1-7.6,0c-1.4,0-2.9,0.1-4.3,0c-1.2-0.4-3.1,0.7-3.3-1.7
		c1.2-0.9,2.6-0.6,4-0.6c13.6,0,27.1,0,40.7,0C130.5,81.2,132.3,81.1,134.2,80.9z"/>
	<path class="st218" d="M185.7,135.3c-0.2,1.2-0.4,2.3-0.7,3.5c-4.7-4.5-9.3-9-14-13.5c0-0.9,0.4-1.7,1-2.4c1-0.5,1.6,0.3,2.2,0.9
		C178.1,127.7,182.1,131.4,185.7,135.3z"/>
	<path class="st219" d="M185.7,135.3c-1.5-0.1-2.1-1.3-3-2.1c-3.6-3.3-6.7-7.2-10.6-10.2c0.3-1.2,1-2.2,1.8-3.1
		c4.3,4.1,8.2,8.7,12.9,12.5C186.5,133.4,186.1,134.4,185.7,135.3z"/>
	<path class="st221" d="M186.8,132.4c-0.3,0-0.7,0.1-0.9-0.1c-4.4-3.7-8.9-7.4-12-12.5c0.1-0.8,0.6-1.3,1.2-1.7
		c3.2,4.1,7.3,7.4,10.8,11.2c0.6,0.6,1.3,0.7,2.1,0.7C187.7,130.9,187.3,131.6,186.8,132.4z"/>
	<path class="st95" d="M167.5,147.6c-0.2-0.2-0.3-0.4-0.5-0.6c0-1.2,0-2.4,0-3.6C167.9,144.8,167.4,146.2,167.5,147.6z"/>
	<path class="st222" d="M190.9,178.1c-6.5-6.4-13.2-12.6-19.3-19.4c0.6-1,1.4-1.7,2.4-2.3c6.5,6.4,12.9,13,19.5,19.4
		C193.4,177.4,192.2,177.9,190.9,178.1z"/>
	<path class="st223" d="M187.5,153.1c4,6.1,9.4,10.2,16.5,12c-0.9,2-1.9,3.8-4.1,4.5c-1-0.1-1.6-0.7-2.2-1.3
		c-5.4-5.3-10.7-10.7-16-16.1c-0.6-0.7-1.6-1.3-1.1-2.5c0.4-0.4,0.8-0.8,1.2-1.2c1.6,0.5,2.4,2.1,3.7,3
		C185.9,152.3,186.3,153.5,187.5,153.1z"/>
	<path class="st224" d="M175.1,155.2c0.6-0.6,1.2-1.2,1.8-1.8c6.5,6.5,13,13,19.5,19.5c0,1.2-0.7,1.8-1.8,2.1c-1.3-0.1-2-1-2.9-1.8
		c-5-5-10.1-10-15-15.1C175.9,157.3,174.7,156.6,175.1,155.2z"/>
	<path class="st225" d="M178.1,152.2c0.4-0.4,0.8-0.8,1.2-1.2c0.5,0.1,0.9,0.3,1.3,0.7c5.9,5.8,11.8,11.7,17.6,17.6
		c0.3,0.3,0.6,0.8,0.7,1.2c-0.1,0.8-0.6,1.3-1.3,1.5c-1.1,0.2-1.9-0.4-2.6-1.1c-5.4-5.3-10.7-10.6-16-16
		C178.2,154.3,177.4,153.5,178.1,152.2z"/>
	<path class="st226" d="M175.1,155.2c6.2,6.8,12.7,13.2,19.4,19.4c0.2,0.9-0.2,1.3-1.2,1.2c-0.9,0-1.4-0.5-2-1.1
		c-5.4-5.4-10.8-10.8-16.1-16.1c-0.6-0.6-1.3-1.2-1.3-2.2C174.4,155.9,174.8,155.6,175.1,155.2z"/>
	<path class="st227" d="M178.1,152.2c0,1,0.6,1.6,1.3,2.2c5.4,5.4,10.8,10.8,16.1,16.1c0.6,0.6,1.1,1.1,2,1.1
		c0.2,0.9-0.2,1.3-1.2,1.2c-0.9,0-1.4-0.5-2-1.1c-5.4-5.4-10.8-10.8-16.1-16.1c-0.6-0.6-1.3-1.2-1.3-2.2
		C177.3,153,177.7,152.6,178.1,152.2z"/>
	<path class="st228" d="M198.6,170.5c-6.7-6.2-13.2-12.7-19.4-19.4c0.4-0.4,0.8-0.8,1.2-1.2c6.2,6.8,12.7,13.2,19.4,19.4
		C200,170.3,199.6,170.7,198.6,170.5z"/>
	<path class="st229" d="M187.5,153.1c-0.3,1.4-1,0.9-1.6,0.2c-1.4-1.5-3.2-2.8-4.3-4.6c1-1.3,2.1-2.5,3.5-3.4
		C185.8,147.9,186,150.7,187.5,153.1z"/>
	<path class="st230" d="M137.7,100.8c0.7,0.4,0.6,1.1,0.6,1.8c-19.2,0-38.3,0-57.5,0c-1.9,0-3.9,0-5.8,0c0.1-2.3,1.9-2.4,3.4-2.1
		c1.2,0.2,2.3,0.3,3.4,0.3C100.5,100.8,119.1,100.8,137.7,100.8z"/>
	<path class="st231" d="M140.6,92c0,2.9,0,5.9,0,8.7c-1.5,0.5-1.5-1.9-2.9-1.1c-0.6-0.6-1.2-1.2-1.8-1.8c-0.4-0.8-1-1.4-1.8-1.8
		C135.5,93.5,138.2,91.8,140.6,92z"/>
	<path class="st232" d="M140.6,92c-2.6,0.6-4.3,2.7-6.4,4.1c-0.8-0.4-1.6-0.8-2.3-1.2c-1.1-0.6-2.3-0.3-3.4-0.3
		c-2.8-0.1-3.3-0.7-2.3-3.3c0.3-0.7,0.7-1.4,1.3-1.9c0.6-0.4,1.3-0.4,2-0.1c2.9,1.1,5.6,0.1,8.2-0.9c0.9-0.4,1.8-1.3,3-0.5
		C140.6,89.3,140.6,90.6,140.6,92z"/>
	<path class="st175" d="M88.5,91.4c-3.1,1.2-6.2,2.5-9.3,3.7c-2.7,1-3.9,0.4-4.2-2c4.1-1.3,7.8-3.4,10.4-7c1-0.4,1.6,0.3,2.3,0.8
		c0.6,0.6,1.3,1.2,1.7,1.9C90,90,90.2,91.1,88.5,91.4z"/>
	<path class="st233" d="M88.5,91.4c2.3-2.1-0.9-2.7-1.2-4.1c0-1.8,1.3-2.2,2.7-2.1c1.3,0.1,1.5,1.3,1.6,2.4c0.1,1,0,2.1,0.4,3.1
		c0.1,2.3,1.4,3.1,3.6,2.9c0.7-0.1,1.5-0.1,2.3,0c3.9-0.1,7.9-0.1,11.8,0c3.8,0,7.5,0,11.3,0c1.1,0,2.1,0,3.1,0.5
		c0.4,0.2,0.5,0.5,0.3,0.9c-13.3,0-26.5,0-39.8,0C86.8,94.9,87.8,93.3,88.5,91.4z"/>
	<path class="st234" d="M85.5,86.1c-1.3,3.8-6.1,7-10.5,7c0-0.6,0-1.2,0-1.8c0-1,0-2,0-2.9c3.2-0.6,5.8-2.2,7.9-4.8
		c0.6-0.2,1.1,0,1.6,0.3C85.1,84.6,85.9,85.1,85.5,86.1z"/>
	<path class="st235" d="M124.2,94.9c0-0.2,0-0.4,0-0.6c-1.1-1.3-0.8-2.8-0.6-4.2c0.5-1.4,1.1-2.7,2.8-3.1c0.9,0,1.5,0.5,1.7,1.4
		c0.1,0.5-0.1,0.9-0.4,1.3c-0.2,0.4-0.4,0.8-0.6,1.3c-1.3,3.1-1.2,3.3,2.1,3.4c0.9,0,1.9-0.3,2.7,0.6
		C129.3,94.9,126.8,94.9,124.2,94.9z"/>
	<path class="st148" d="M91.4,120.7c0-3.1,0-6.2,0-9.4c3.1,0,6.2,0,9.4,0C98.4,115.2,95.2,118.3,91.4,120.7z"/>
	<path class="st35" d="M198.6,170.5c0.4-0.4,0.8-0.8,1.2-1.2c1.9-0.9,2.4-3.2,4.1-4.2c2.3-0.9,4.7-0.2,7-0.4c4.5,4.7,9,9.3,13.5,14
		c-2,1.8-4.8,1.7-7.1,2.9c-3,0.4-5.9,0.8-8.9,1.2c-1.9-0.1-3.9-0.3-5.8-0.4c-1.6-0.2-3.1-0.9-4.7-0.7c-2.4-0.9-4.9-1.5-7.2-3
		c0.1-0.2,0.1-0.4,0-0.6c0.5-1.2,2.1-1.1,2.5-2.3c0.4-0.4,0.8-0.8,1.2-1.2c0.8-0.4,1.4-1,1.8-1.8c0.4-0.4,0.8-0.8,1.2-1.2
		C197.9,171.3,198.2,170.9,198.6,170.5z"/>
	<path class="st236" d="M127.7,89.6c0-0.4,0-0.8,0-1.2c0.6-1.2,1.1-2.6,2.9-2.3c3.5,0.2,6.5-1.8,10-1.8c0,1.2,0,2.3,0,3.5
		c-1.3,0-2,1.1-3.1,1.5C134.3,90.7,131,91.2,127.7,89.6z"/>
	<path class="st237" d="M83.2,83.8c-1.9,3.1-4.1,5.5-8.2,4.7c0-1.2,0-2.3,0-3.5c2.2-0.8,4.3-1.7,5.9-3.5c0.2,0,0.4,0,0.6,0
		c0.1,0,0.3,0.1,0.4,0.1C82.7,82,83.2,82.8,83.2,83.8z"/>
	<path class="st238" d="M80.9,81.4c-0.9,3-3,3.8-5.9,3.5c0-1.4,0-2.7,0-4.1c1.4-0.3,3.1,0.5,3.7-1.6C79,78.6,79.9,79.3,80.9,81.4z"
		/>
	<path class="st89" d="M149.4,205.7c2.7-1.1,5.5-0.7,8.2,0C154.5,208.2,152.1,208.2,149.4,205.7z"/>
	<path class="st89" d="M172.3,205.7c2.8-0.8,5.5-0.8,8.2,0C177.8,208.2,175.5,208.2,172.3,205.7z"/>
	<path class="st239" d="M134.2,80.9c-1.2,1.4-2.8,1.2-4.3,1.2c-15.4,0-30.7,0-46.1,0c-1,0.8-1.6-0.3-2.3-0.6c0,0,0,0,0,0
		c0.2-1.2,1.1-1.1,2-1.1c16.4,0,32.8,0,49.2,0C133.2,80.3,133.8,80.3,134.2,80.9z"/>
	<path class="st240" d="M217.4,162.9c-0.8,0.2-1.6,0.4-2.3,0.6c0-1,0.7-1.6,1.3-2.2c3.5-3.5,7-7,10.6-10.6c0.6-0.6,1.2-1.3,2.2-1.3
		c-0.2,0.8-0.4,1.6-0.6,2.3c-0.6,0.6-1,1.3-1.2,2.2c-0.6,0.8-1.1,1.6-1.7,2.4c-1,1-1.9,2-2.9,3c-1,0.7-2,1.5-3,2.2
		C218.9,162,218.2,162.5,217.4,162.9z"/>
	<path class="st241" d="M232.5,136.5c-0.4,1.1-1.2,1.7-2.2,2.3c-0.3-1.1-0.5-2.2-0.8-3.4C230.8,135.1,231.4,136.6,232.5,136.5z"/>
	<path class="st242" d="M109.6,94.3c-4.1,0-8.2,0-12.3,0c-0.3-0.8,0.2-1.3,0.6-1.8c3.3-3.3,6.4-6.7,9.9-9.9c3.9,0,7.8,0,11.7,0
		c0.7,1,0.1,1.7-0.5,2.3C115.9,88.1,112.9,91.4,109.6,94.3z"/>
	<path class="st148" d="M109.6,94.3c1.8-3.6,5.3-5.7,7.8-8.7c0.8-0.9,2.1-1.5,2.2-3c1.6,0,3.1,0,4.7,0c1.6,2.3,0.9,4.7,0,7
		c0,1.6,0,3.1,0,4.7C119.3,94.3,114.5,94.3,109.6,94.3z"/>
	<path class="st243" d="M107.8,82.7c-1.8,3.5-5.1,5.6-7.6,8.4c-1,1.1-2,2.2-2.9,3.2c-0.8,0-1.5-0.1-2.3,0c-2.9,0.5-4.1-0.7-3.6-3.6
		c-0.2-0.2-0.2-0.5,0-0.8c2.7-2.3,5-5,7.7-7.4C101.9,82.7,104.9,82.7,107.8,82.7z"/>
	<path class="st182" d="M99,82.7c-1.8,3.2-4.4,5.8-7.6,7.6c-0.1-2.5-1.3-5.1,0-7.6C94,82.6,96.5,82.7,99,82.7z"/>
	<path class="st244" d="M91.4,82.6c0,2.5,0,5.1,0,7.6c0,0.2,0,0.4-0.1,0.6c-0.7-0.6-0.4-1.4-0.6-2.2c-0.1-1,0.6-2.4-0.7-2.9
		c-1.1-0.4-2.2,0.4-2.8,1.5c-0.6-0.4-1.2-0.8-1.8-1.2c-0.4-0.6-0.8-1.2-1.2-1.8c0.7-1,2.1-1,2.9-1.8C88.7,82.6,90.1,82.6,91.4,82.6z
		"/>
	<path class="st245" d="M124.2,89.6c0-2.3,0-4.7,0-7c1.8,0,3.5,0,5.3,0c-0.2,2.1-1.4,3.5-2.9,4.7C125.4,87.7,125.1,88.9,124.2,89.6z
		"/>
	<path class="st246" d="M126.6,87.3c0.7-1.7,1.7-3.2,2.9-4.7c4.4-0.2,1,2.3,1.2,3.5c-1,0.8-2,1.6-2.9,2.3
		C127.5,87.9,127.1,87.5,126.6,87.3z"/>
	<path class="st247" d="M87.3,82.6c-0.6,1.2-1.5,1.9-2.9,1.8c-0.4-0.2-0.8-0.4-1.2-0.6c-0.6-0.8-1.2-1.6-1.7-2.4
		c0.8,0.2,1.6,0.4,2.3,0.6C84.8,83.1,86.1,82.4,87.3,82.6z"/>
</g>
</svg>
