<?xml version="1.0" encoding="utf-8"?>
<!-- Generator: Adobe Illustrator 23.0.0, SVG Export Plug-In . SVG Version: 6.00 Build 0)  -->
<svg version="1.1" id="Layer_1" xmlns="http://www.w3.org/2000/svg" xmlns:xlink="http://www.w3.org/1999/xlink" x="0px" y="0px"
	 width="264.9px" height="268.3px" viewBox="0 0 264.9 268.3" style="enable-background:new 0 0 264.9 268.3;" xml:space="preserve"
	>
<style type="text/css">
	.st0{opacity:0.8;fill:#5656A5;}
	.st1{fill:#5656A5;}
	.st2{fill:#8ACEF1;}
	.st3{fill:#FED956;}
	.st4{fill:#FDB925;}
	.st5{fill:#0F0F19;}
	.st6{fill:#FFFFFF;}
</style>
<g>
	<path class="st0" d="M190.9,117.9c-7.4-8.4-14.4-17-19.9-26.8c-6-10.7-10.2-22-10-34.4c0.4-20,9.6-35,27.3-44.7
		c4.4-2.4,9.2-3.9,14.2-4.8c0.8-0.1,1.8,0.1,2.3-0.8c0.2,0,0.3,0,0.5,0c1.9,0.9,3.9,0.9,5.9,1.5c19.4,5.8,33.9,22.8,36,42.9
		c1.2,11.3-1.1,22.2-5.8,32.6c-6.1,13.6-15,25.3-25.2,36c-3.8,3.9-7.6,7.7-11.7,11.4c-0.8,0.3-1.3-0.1-1.8-0.6
		c-3.5-3.6-7.5-6.5-10.8-10.3C191.4,119.3,190.9,118.7,190.9,117.9z"/>
	<path class="st1" d="M204.3,130.6c2.5-2.9,5.4-5.4,8.1-8.1c3.8-3.6,7.3-7.6,10.6-11.7c5.3-6.5,10.3-13.2,14.3-20.7
		c4.3-8,7.6-16.3,8.9-25.3c1.3-9.7,0.5-19.1-3.4-28.2c-4.6-10.7-12.1-18.7-22.2-24.3c-4.4-2.5-9.1-4.2-14.1-5.1
		c-0.7-0.1-1.1-0.3-1.2-1c2.6,0,5.1,0,7.7,0c1,0.4,2,0.4,3.1,0c0.3,0,0.7,0,1,0c7.7,0.5,14.8,2.9,21.2,7.1
		c11.6,7.5,19.1,17.9,22.4,31.4c0.5,2.1,0.3,4.4,0.8,6.5c0,1,0,2,0,3.1c-0.4,1.4-0.4,2.7,0,4.1c0,1.4,0,2.7,0,4.1
		c-0.9,3.7-1.6,7.5-2.7,11.2c-3.8,12.7-10.6,23.8-18.8,34.1c-2.7,3.4-5.6,6.6-8.4,10c0,0.8-0.4,1.3-0.9,1.8
		c-5.1,5.4-10.5,10.5-16.3,15.1c-1.9,1.5-4.2,1.6-6.1,0.1C206.8,133.7,204.7,132.9,204.3,130.6z"/>
	<path class="st1" d="M261.5,58.5c-0.8-1.4-0.8-2.7,0-4.1C261.5,55.8,261.5,57.2,261.5,58.5z"/>
	<path class="st1" d="M216,6.4c-1,0.8-2,0.8-3.1,0C214,6.4,215,6.4,216,6.4z"/>
	<path class="st2" d="M261.5,221.7l-0.2,0.1l-0.2,0c-0.9-0.9-0.9-1.7-0.1-2.7c0.2,0,0.3,0.1,0.5,0
		C261.5,219.9,261.5,220.8,261.5,221.7z"/>
	<path class="st0" d="M39.8,229.5c-9.9-10.6-18.9-21.9-26.2-34.5c-6.7-11.6-11.9-23.8-13.2-37.2c-2.7-26.5,7-47.6,29.2-62.6
		c8.6-5.8,18.4-8.6,28.6-10c0.9-0.1,1.9,0,2.8,0c0.3,1.1,1.3,0.4,1.9,0.6C77.1,89,89,96,98.6,106.9c9.5,10.9,14.6,23.7,15.7,38.1
		c0.7,9.1-0.8,18-3.4,26.7c-3.8,13.1-10.4,24.8-18.2,35.8c-7.8,11-16.6,21.2-26.4,30.5c-2.9,2.7-5.6,5.8-9,7.8
		c-2.1,0-3.2-1.8-4.5-2.9c-3.8-3.3-7.1-7.2-11.1-10.5C40.8,231.7,40.1,230.7,39.8,229.5z"/>
	<path class="st1" d="M57,245.7c5.4-5.1,11-9.9,16-15.3c11.9-12.9,22.8-26.5,30.7-42.3c5.2-10.4,8.6-21.2,9.7-32.9
		c1.4-15.2-2.1-29-10.4-41.5c-9.7-14.6-23.4-23.5-40.5-27.3c-0.8-0.2-1.6-0.2-2.5-0.3c0.5-0.3,0.9-0.6,1.2-0.8
		c30.4-1.8,57.8,18.7,65.4,49c3.1,12.6,2.1,25.1-1.7,37.4c-4.8,15.9-13.4,29.8-23.5,42.8c-4.1,5.3-8.6,10.3-13,15.3
		c-0.1,0.9-0.8,1.5-1.4,2c-5.7,5.8-11.4,11.6-17.8,16.7c-0.9,0.7-1.7,1.4-2.7,1.9c-1.5,0.9-3.1,1.1-4.5,0
		C60,249.1,57.5,248.4,57,245.7z"/>
	<path class="st3" d="M57,245.7c1.3,1.6,3,2.7,4.6,4c1.8,1.4,3.6,1.1,5.3-0.3c7-5.5,13.2-11.7,19.5-17.9c0.6-0.6,1.2-1.1,1.9-1.7
		c5.2,1.6,10.3,3.3,14.7,6.6c2.4,1.8,4.4,3.9,5.6,6.8c-1,2.9-3.2,4.8-5.6,6.4c-6.1,4.3-13,6.5-20.3,7.9c-15.9,2.9-31.7,2.4-47.1-2.6
		c-4.3-1.4-8.3-3.5-11.9-6.3c-1.8-1.4-3.3-3.2-4-5.5c2.4-5.6,7.2-8.3,12.4-10.6c2.5-1.1,5.2-2,7.8-3C45.4,235,50.9,240.7,57,245.7z"
		/>
	<path class="st4" d="M19.6,243.1c7.4,10.1,18.6,12.2,29.8,14.4c6.8,1.3,13.7,1.4,20.6,0.9c11.6-0.8,22.9-2.6,32.8-9.5
		c2.3-1.6,3.7-4,5.7-5.7c2.1,5.8,0.1,11.2-5.7,15.4c-6.3,4.6-13.6,6.6-21,8c-15.9,2.9-31.6,2.2-47-3.1c-5.2-1.8-10.1-4.3-13.5-8.7
		C18.6,251.2,17.7,247.4,19.6,243.1z"/>
	<path class="st3" d="M204.3,130.6c0,0.1,0.1,0.2,0.1,0.2c6.5,6,7.1,5.9,13.6,0.1c4.7-4.2,9.1-8.7,13.6-13.1
		c3.1,1.4,6.5,2.4,9.3,4.5c1.9,1.4,3.7,2.9,4.7,5.2c-1.4,4.1-5.1,5.8-8.5,7.5c-4.9,2.3-10.1,3.5-15.4,4.2c-11,1.5-21.9,0.7-32.5-2.6
		c-3.2-1-6.4-2.4-9.1-4.6c-1.5-1.2-3.1-2.4-3.5-4.5c2.4-4.7,6.9-6.7,11.4-8.6c0.9-0.4,1.9-0.7,2.8-1.1
		C195.2,122.3,199.6,126.6,204.3,130.6z"/>
	<path class="st4" d="M176.7,127.6c5.6,7.1,13.8,9.2,22.1,10.7c5.2,0.9,10.5,1.4,15.7,1c9.4-0.7,18.7-1.9,26.9-7.4
		c1.7-1.2,2.8-3,4.3-4.3c2.2,4.2,1.5,8.4-2.1,12c-3.7,3.7-8.4,5.6-13.4,6.9c-14,3.6-27.9,3.4-41.6-1.1c-3.7-1.2-7.2-3-10-5.9
		C175.2,135.8,174.5,131.7,176.7,127.6z"/>
	<path class="st5" d="M142.5,171.1c2.2,0.1,7.3,4.2,7.8,6c0.4,1.5,0,2.7-1.1,3.7c-1.1,1.1-2.6,1.4-4,0.7c-2.1-1.1-4.1-2.5-5.6-4.4
		c-1-1.3-1-2.7-0.2-4.1C140.1,171.7,141.3,171.2,142.5,171.1z"/>
	<path class="st5" d="M139.7,146.3c-2.4,0.1-4.5-2.7-3.5-5c1-2.5,2.8-4.5,5.1-5.9c2.3-1.5,5.5,0.3,5.6,3.1
		C147,140.9,142,146.3,139.7,146.3z"/>
	<path class="st5" d="M166.4,243.5c1.3-0.2,2.5-0.2,3.8,0.1c1.9,0.6,2.8,1.9,2.8,3.8c-0.1,1.7-1.1,3.1-2.9,3.4
		c-2.1,0.4-4.2,0.4-6.3,0.1c-2.2-0.3-3.3-1.7-3.4-3.8c-0.1-2,1.5-3.5,3.8-3.7C164.9,243.4,165.7,243.5,166.4,243.5z"/>
	<path class="st5" d="M157,136.2c-2.2,0.1-4.2-1.4-4.2-3.7c0-2.2,1.6-3.7,4.4-3.9c1.8-0.1,3.5-0.6,5.3,0c2,0.6,3,1.9,2.9,3.9
		c-0.2,2-1.4,3.2-3.4,3.4C160.5,136,159,136,157,136.2z"/>
	<path class="st5" d="M224.6,185.7c-1.3,0-2.5,0.1-3.8-0.3c-1.9-0.6-2.8-2-2.7-3.9c0.2-1.8,1.2-3.2,3.2-3.4c1.8-0.2,3.6-0.1,5.3-0.1
		c2.4,0.1,4,1.6,4.1,3.7c0.1,2.1-1.5,3.7-3.9,3.9C226.2,185.8,225.4,185.7,224.6,185.7z"/>
	<path class="st5" d="M163.8,178.1c0.9,0,1.9-0.1,2.8,0c2,0.2,3.1,1.4,3.3,3.3c0.2,2-0.8,3.5-2.8,4c-2.3,0.6-4.7,0.6-7.1,0
		c-1.9-0.5-2.9-1.9-2.7-3.8c0.1-1.9,1.3-3.3,3.4-3.5C161.8,178.1,162.8,178.1,163.8,178.1C163.8,178.1,163.8,178.1,163.8,178.1z"/>
	<path class="st5" d="M226.4,250.9c-3.5,0-5.7-1.7-5.2-4.4c0.5-2.5,2.3-3.4,4.7-3.3c2.9,0.1,6.4-1.5,7.8,2.7c0.6,1.9-0.7,4-2.7,4.5
		C229.5,250.6,227.9,250.7,226.4,250.9z"/>
	<path class="st5" d="M187,250.8c-1,0-2,0.1-3,0c-1.9-0.2-3.1-1.4-3.2-3.4c-0.2-1.9,0.7-3.3,2.6-3.9c2.2-0.6,4.5-0.5,6.8-0.1
		c2.2,0.4,3.3,1.9,3.1,4c-0.2,2.1-1.5,3.3-3.7,3.4C188.7,250.9,187.8,250.9,187,250.8C187,250.9,187,250.9,187,250.8z"/>
	<path class="st5" d="M249.5,188.4c0.1,3.1-2.8,5.1-5.3,3.8c-1.9-0.9-3.6-2.2-5.2-3.6c-1.4-1.1-1.6-2.8-0.8-4.4
		c0.8-1.6,2.3-2.4,4-1.9c2.6,0.8,4.8,2.4,6.7,4.5C249.3,187.3,249.4,188.1,249.5,188.4z"/>
	<path class="st5" d="M255.2,196.9c3.5,0.3,3.7,3.3,4.7,5.7c0.8,1.9,1.4,3.9-0.5,5.6c-1.9,1.8-4.8,1.2-6-1.2c-0.8-1.7-1.5-3.4-2-5.2
		C250.7,199.1,252.6,196.8,255.2,196.9z"/>
	<path class="st5" d="M184,178.2c1,0,2-0.1,3,0c2,0.2,3.1,1.5,3.2,3.4c0.1,1.9-0.8,3.3-2.7,3.8c-2.2,0.6-4.5,0.5-6.8,0.1
		c-2.1-0.4-3.2-1.8-3.1-4c0.2-2.2,1.6-3.3,3.7-3.4C182.3,178.1,183.1,178.1,184,178.2C184,178.1,184,178.1,184,178.2z"/>
	<path class="st5" d="M207.2,250.8c-0.9,0-1.9,0.1-2.8,0c-2.1-0.2-3.2-1.5-3.4-3.5c-0.1-1.9,0.8-3.3,2.7-3.8c2.3-0.6,4.7-0.6,7.1,0
		c2,0.4,3,1.9,2.8,4c-0.2,1.9-1.4,3.1-3.3,3.3C209.2,250.9,208.2,250.8,207.2,250.8C207.2,250.8,207.2,250.8,207.2,250.8z"/>
	<path class="st5" d="M126.2,243.6c0.8,0,1.7-0.1,2.5,0c2.2,0.2,3.5,1.5,3.6,3.6c0.1,2.2-1.1,3.6-3.2,3.9c-1.8,0.3-3.7,0.2-5.6,0.1
		c-2.4-0.2-3.8-1.8-3.7-4c0.1-2,1.6-3.4,3.9-3.6C124.5,243.6,125.4,243.6,126.2,243.6C126.2,243.6,126.2,243.6,126.2,243.6z"/>
	<path class="st5" d="M244.3,245c-1.7-0.2-2.9-0.7-3.5-2c-0.7-1.4-0.7-2.9,0.3-4.1c1.5-1.7,3.3-3.2,5.3-4.3c1.3-0.7,2.6-0.5,3.8,0.4
		c1.1,0.9,1.7,2.1,1.5,3.6C251.5,240.6,246.2,245,244.3,245z"/>
	<path class="st5" d="M204.3,178.2c1,0,2-0.1,3,0c1.8,0.3,2.9,1.4,3.1,3.2c0.2,1.9-0.6,3.4-2.4,4c-2.3,0.7-4.7,0.6-7,0.1
		c-2.2-0.4-3.2-1.9-2.9-4.1c0.2-2.1,1.5-3.2,3.5-3.3C202.5,178.1,203.4,178.1,204.3,178.2C204.3,178.1,204.3,178.2,204.3,178.2z"/>
	<path class="st5" d="M131.2,158.6c-0.1-3.7,1.2-5.5,3.5-5.6c2.5-0.2,3.8,1.3,4.1,4.4c0.1,1.4,0.4,2.9,0.4,4.3
		c-0.1,2.1-1.2,3.5-3.4,3.8c-2.2,0.2-3.6-1-4.1-3C131.4,161,131.3,159.5,131.2,158.6z"/>
	<path class="st5" d="M146.2,251.3c-1-0.1-2-0.1-3-0.3c-2-0.4-3.1-1.8-3-3.8c0.1-2.1,1.3-3.5,3.5-3.6c1.8-0.1,3.6-0.1,5.3,0
		c2.2,0.1,3.5,1.3,3.6,3.5c0.1,2.2-1,3.5-3.2,3.9C148.4,251.2,147.3,251.2,146.2,251.3z"/>
	<path class="st5" d="M261,219.1c0,0.9,0.1,1.8,0.1,2.7c-0.4,1.6-0.7,3.1-1.2,4.6c-0.7,2.1-2.6,3.2-4.6,2.6
		c-2.1-0.6-3.2-2.4-2.7-4.7c0.3-1.5,0.8-2.9,1.2-4.4c0.4-1.7,1.5-2.9,3.2-3.2C258.9,216.4,260.2,217.3,261,219.1z"/>
	<path class="st6" d="M211.1,75c-10.2,0-18.6-8.4-18.4-18.5c0.1-10.1,8.4-18.3,18.4-18.4c10-0.1,18.6,8.4,18.6,18.5
		C229.7,66.7,221.3,75.1,211.1,75z"/>
	<path class="st6" d="M63.7,173.2c-13.5-0.3-24-11.1-23.7-24.3c0.3-13.2,11.2-24,24.2-23.7c14,0.4,23.9,11.1,23.8,24.3
		C88,162.9,76.8,173.5,63.7,173.2z"/>
</g>
</svg>
