<?xml version="1.0" encoding="utf-8"?>
<!-- Generator: Adobe Illustrator 23.0.0, SVG Export Plug-In . SVG Version: 6.00 Build 0)  -->
<svg version="1.1" id="Layer_1" xmlns="http://www.w3.org/2000/svg" xmlns:xlink="http://www.w3.org/1999/xlink" x="0px" y="0px"
	 width="316px" height="272px" viewBox="0 0 316 272" style="enable-background:new 0 0 316 272;" xml:space="preserve">
<style type="text/css">
	.st0{fill:#E3E2FE;}
	.st1{fill:#5143D9;}
	.st2{fill:#474646;}
	.st3{fill:#CFCFF6;}
	.st4{fill:#5E5EEE;}
	.st5{fill:#2D2C2C;}
	.st6{fill:#F8B838;}
	.st7{fill:#E4A220;}
	.st8{fill:#CED0F4;}
	.st9{fill:#7979F6;}
	.st10{fill:#F3F3FE;}
	.st11{fill:#CFCFF5;}
	.st12{fill:#CECFF5;}
	.st13{fill:#CECFF4;}
	.st14{fill:#CECFF3;}
	.st15{fill:#CFD0F5;}
	.st16{fill:#CDCFF2;}
	.st17{fill:#6C6B6B;}
	.st18{fill:#6B6A6A;}
	.st19{fill:#FACD72;}
</style>
<g>
	<path class="st0" d="M34.1,218.3c-4.6-5.1-8.4-10.8-11.7-16.7c-7.9-14.1-13.5-29-15.8-45.1c-1.1-7.9-2.2-15.8-1.7-23.7
		c0.3-5.4,0.1-10.9,1.8-16.2c1,0.5,1.1,2.7,2.7,2c1.3-0.6,0.8-2.2,0.9-3.3c0-0.2,0-0.4,0-0.6c0-0.5,0.1-0.9,0.3-1.4
		c1.5-3.1,2.4-3.6,5.2-2.3c2.7,1.4,4.6,0.6,6.5-1.4c1.5-1.6,3.1-3.4,5.4-0.9c0.7,3.2-1.1,6.2-0.8,9.3c-0.5,4.4,1.4,7.6,5.4,9.2
		c5.4,2.2,10,5.3,13.6,9.9c1.5,1.9,3.4,2,5.6,0.9c2-1.1,3.7-2.7,5.7-3.7c2-1,3.8-1.1,4.9,1.3c-0.1,2.6-1.1,5-0.8,7.6
		c-0.9,4.3,2.9,8.9,8,10.4c2.8,0.8,5.6,1,8.6,0.6c5.5-0.7,10.5,0.4,14.1,5.1c0.8,1,1.6,1.9,2.8,2.4c2.2,1.1,2.9,0.6,3.2-2
		c0.1-1,0.4-1.9,0.8-2.7c0.6-1,1.5-1.8,2.6-2.1c5-1.3,5.9-5,5.6-9.4c0-2.4-0.2-4.8,0.2-7.2c0.3-1,0.4-2,0.7-3
		c1.1-3.8,3.2-6.6,7.2-7.7c1.6-0.4,3.2-0.8,4.8-1.3c4.2-1.2,4.9-2,5.3-6.4c0-0.3,0.1-0.6,0.2-0.9c0.1-0.4,0.3-0.8,0.3-1.2
		c-0.3-4.2,2-6.2,5.8-7c2.4-0.5,3.9-1.9,3.6-4.5c0.2-2-0.5-3.7-1.8-5.3c-1.1-1.2-2.2-2.4-2.2-4.2c0.5-2.2,2.4-3.3,3.8-4.8
		c1.8-1.9,3.1-3.9,2.7-6.6c0.5-3.9-1.1-6.9-3.9-9.5c-2.2-2.1-4.8-4.3-4.4-8c2.5-4.4,6.6-6.2,12.4-5.1c2.3,0.4,3.7,0.2,3.3-2.6
		c0-1.8-0.2-3.7,0.2-5.5c0.6-1.7,1.7-1.8,3.1-1c0.4,0.2,0.8,0.6,1.2,0.9c1.6,1.3,3.2,2.3,5.3,1.3c2-1,2.1-2.8,2.1-4.7
		c0.3-2.1-0.8-3.4-2.5-4.5c-2.3-1.4-4.4-3.2-4.1-6.3c2.8-7.2,11.9-9.5,18-4.4c3.4,2.8,5.5,6.4,6.6,10.7c0.4,1.4,0.5,2.9,1,4.2
		c0.3,3.2,0.5,6.3,0.7,9.5c-0.7,3.1-2.8,5.5-4.3,8.2c-9.2,17.5-10.5,35.7-4.8,54.5c2.7,8.5,7.1,16.1,12.9,22.9
		c10.3,12.1,23.4,19.7,39,23c3.3,0.7,6.6,1,9.9,1.4c2.4,0.6,2.8,1.9,1.6,4.1c-9,16.8-21,31.1-36.1,42.8c-1.2,0.9-2.4,3-4.5,1.5
		c-2.3-6.3-3.1-12.9-4.8-19.3c-0.5-1.8-0.7-3.7-1.5-5.4c-1.2-2.8-2.5-3.6-5.6-3.4c-9.3,0.7-9.4,0.7-12.4-8.2
		c-2-5.8-4.3-7.1-10.3-6.5c-4.6,0.5-9.3,0.8-13.9,1.6c-5.6,0.9-10.9,2.6-15,7c-3.8,4.2-5.4,9-4.8,14.6c0.5,5.3,1.8,10.4,2.8,15.6
		c0.5,2.4,0.6,4.7,0.4,7.1c-0.5,5.1-3.7,8.7-8.7,8.4c-7.9-0.5-14.4,2-20.6,6.4c-4,2.8-8.4,2.5-12.8,0.7c-0.3-0.1-0.6-0.2-0.9-0.4
		c-4.6-2.4-9.3-3.5-14.1-0.4c-2.9,0.3-5.5-1.2-7.9-2.3c-7-3.3-14-6.7-20.4-11.1C37.9,221.5,35.9,220,34.1,218.3z"/>
	<path class="st1" d="M11.1,113.5c0,0.4-0.1,0.8-0.1,1.2c-0.5,0.8-0.4,2.2-1.7,2.2c-1.5,0.1-2-1.1-2.5-2.3c1.4-9.4,4-18.4,7.4-27.3
		c1.3-1,2.3,0,3.3,0.7c1.7,1.1,3.3,2.5,5.1,3.6c2,1.2,3.9,1.1,5.7-0.6c0.6-0.6,1.2-1.2,1.8-1.7c3.1-2.9,3.9-3.1,7.6-1
		c1.9,1.1,3.6,1.6,5.3-0.2c3.5-3.6,7.8-4,12.4-3.2c2.9,0.5,5.7,1,8.7,0.9c5.5-0.2,9.2-2.9,11.3-7.9c0.5-1.1,0.8-2.4,1.2-3.5
		c1-2.8,2.8-4.4,5.8-4.1c2.9,0.2,4.6-0.8,4.7-3.9c0-1.5,0.9-2.6,2.3-3.1c4.7-1.6,9.2-3.9,14.3-4.2c4-0.3,7.1,1.2,9.5,4.3
		c0.8,1,1.5,2,2.5,2.8c3.2,3,6.5,3,9.5-0.2c1.5-1.5,2.3-3.4,3.1-5.4C133,48,139.3,36,145.5,24c2-3.9,5.3-6.6,9.3-8.5
		c3.8-1.9,7.6-3.8,11-6.5c1.1-0.9,2.2-1.5,3.7-1c17.4,4.6,33.3,12.2,47.6,23.2c0.8,0.6,1.8,1,2.7,1.5c-0.1,1.4-1.3,1.1-2.1,1.3
		c-15.9,3.6-28.8,12-39.1,24.6c-0.8,0.9-1.3,2.2-2.9,2.1c-0.2-3.4-0.5-6.8-0.7-10.1c-0.4-4.5-1.7-8.7-4-12.5
		c-1.9-3.3-4.6-5.7-8.4-6.4c-6.5-1.4-11.2,2.3-12,9.1c0.2,3,2.4,4.6,4.7,5.7c2.1,1,2.6,2.4,2.1,4.5c-1.9,3.7-4.9,4.4-8.3,1.8
		c-3-2.2-3-2.2-3.5,1.6c0,2,0,4,0,6c-0.7,1.1-1.8,0.8-2.8,0.6c-1.3-0.2-2.7-0.2-4-0.2c-5.6,0.1-7.9,1.8-9.4,7.3
		c0.4,3.7,3.1,5.7,5.4,8.1c2.5,2.6,4.1,5.4,3.3,9.2c-0.3,2.1-1.7,3.4-3.1,4.7c-1.9,1.9-3.6,3.8-3.7,6.7c0.3,1.9,1.8,3,2.9,4.3
		c1.2,1.4,1.9,2.9,1.4,4.8c-0.4,1.7-1.8,2.2-3.1,2.7c-5.8,2.1-6.3,3-6.4,9.1c0,0.5,0,1-0.2,1.5c0,0.2-0.1,0.4-0.1,0.7
		c-0.6,2.2-2.1,3.4-4.2,4.1c-0.7,0.2-1.4,0.4-2.1,0.6c-8.6,2.2-10.9,4.8-11.8,13.3c0,2.7-0.1,5.4-0.1,8c-0.1,3.3-1.6,5.5-4.9,6.4
		c-2.5,0.7-3.6,2.5-3.9,4.9c0.1,0.8,0,1.6-0.5,2.3c-2.4,1.1-4.9,0.8-6.8-1.8c-3.3-4.7-7.8-5.7-13.1-5.4c-3.1,0.2-6.2,0.3-9.3-0.7
		c-4.3-1.3-7.7-3.6-8.9-8.2c-0.7-2.9,0.6-5.4,1.2-8.1c-0.2-0.5-0.4-0.9-0.6-1.4c-0.9-2.5-1.5-2.7-3.8-1.4c-1.6,0.9-3.1,2.1-4.7,3
		c-3,1.8-5.9,1.6-8-1.2c-3.3-4.4-7.5-7.3-12.5-9.3c-3-1.2-5.3-3.2-5.8-6.7c-0.4-3.4,1.1-6.5,1.2-9.8c-1.1-3.5-1.6-3.7-4.3-1.1
		c-1.8,1.8-3.6,3-6.3,1.9c-3.8-1.5-4.4-1.1-5.3,3C11.3,112.7,11.4,113.1,11.1,113.5z"/>
	<path class="st0" d="M169.5,8c-0.8,0-1.6,0.1-2.3,0.7c-3.3,3.3-7.4,5.3-11.6,7.3c-4.7,2.3-8.2,5.6-10.5,10.3
		c-5.7,11.8-12.1,23.2-16.6,35.5c-0.8,2.1-1.7,4-3.4,5.5c-3.2,2.9-6.9,2.9-10-0.2c-0.8-0.8-1.5-1.7-2.3-2.6c-3.8-4.8-7-5.9-12.8-4.1
		c-3.1,0.9-6.1,2-9.2,3c-2,0.7-3.5,1.7-3.3,4.2c0.2,3-1.5,3.7-4.1,3.6c-4.8-0.1-5.2,0.2-6.6,4.7c-2.7,8.8-8.7,12.3-17.9,10.6
		c-2.4-0.5-4.9-1-7.4-1c-3.1,0-5.8,0.8-7.8,3.2c-1.9,2.4-3.8,2.3-6.2,0.6c-3.6-2.6-4.5-2.4-7.6,1c-3.4,3.8-5.5,4-9.6,1
		c-2-1.4-3.7-3.4-6.3-3.9c5.1-13,12.2-24.9,21-35.7C44.8,40.2,56,30.6,68.8,22.9C82,15,96.1,9.4,111.2,6.5
		c6.3-1.2,12.6-1.8,19.1-2.2c13.1-0.9,25.9,1.1,38.7,3.4C169.2,7.6,169.3,7.8,169.5,8z"/>
	<path class="st2" d="M175.8,60.6c4.4-5,8.6-10.3,14.1-14.4c9-6.8,18.9-11.5,29.9-13.6c31.2-6,63.6,9.6,77.6,41.4
		c0.2,0.5,0.3,1,0.5,1.4c1.3,5.4,1.7,10.8,1.6,16.3c-0.5,18-7,33.5-19.3,46.7c-10.4,11.1-23.1,18.1-37.9,20.8
		c-21.9,4.1-41.6-1.3-58.9-15.3c-7-5.6-12.1-12.7-16.5-20.4c-3.6-9.8-4.4-19.9-3.3-30.2c1.2-11.2,5-21.5,11.2-30.9
		C175.2,62,175.5,61.3,175.8,60.6z"/>
	<path class="st3" d="M190.9,218.9c4.6-2.3,8.2-5.9,11.9-9.3c11.3-10.4,20.5-22.5,27.8-35.9c1-1.7-0.1-2.1-1.2-2.7
		c0.4-0.7,1.2-0.9,1.9-0.9c6.9,0.3,13.5-1,20.3-2c1.1,0.5,1.3,1.5,1.6,2.5c1.2,5.8,2.9,11.5,4.8,17.1c0.3,1,0.7,2,0.1,3
		c-1.4,0.4-1.6,1.8-2.1,2.9c-6.8,14.1-15.9,26.6-27.2,37.5c-13.8,13.3-29.8,23.2-48,29.5c-1.3-1.9-0.4-3.8-0.1-5.7
		c0.6-4.1,0.4-4.3-3.4-5.3c-2.2-0.6-3.1-2-2.5-4.5c0.6-2.7,2.3-4.6,4.3-6.3c1.9-1.6,4-3,5.8-4.7c4.1-3.9,6.6-8.5,5.7-14.4
		C190.4,219.4,190.6,219.1,190.9,218.9z"/>
	<path class="st4" d="M190.7,219.6c1.8,5.7-0.8,10.1-4.5,14c-1.9,2-4.2,3.7-6.4,5.5c-1.8,1.5-3.6,3.1-4.5,5.5
		c-1,2.8-0.2,4.1,2.6,4.4c3.4,0.3,3.9,1,3.5,4.3c-0.3,2.5-0.6,4.9-0.9,7.4c-11.4,4-23.1,6.2-35.1,7c-26.8,1.8-51.8-4.3-75-17.6
		c-5.3-3-10.5-6.2-14.9-10.5c0.3-0.4,0.8-0.7,1.3-0.7c3.3,0,6.4-0.9,9.2-2.4c0.5-0.3,1.2-0.3,1.8-0.3c1.6-0.1,3.1,0.3,4.6,0.8
		c14.3,4.7,29.1,7.2,44.1,6.7c25.5-0.9,49-8.1,70.3-22.5C188,220.3,189,219.1,190.7,219.6z"/>
	<path class="st5" d="M251.8,168.6c-7.3,2.1-14.8,2.7-22.4,2.4c-30.1-2.6-50.7-18.1-62.2-45.9c-0.2-0.5-0.2-1-0.2-1.5
		c1.6-0.1,1.7,1.4,2.2,2.3c11.8,18.9,28.7,30,50.7,33.1c17.5,2.5,33.6-1.4,48.2-11.3c16.4-11.1,26.4-26.7,29.8-46.2
		c1.4-8,1.5-16.1-0.3-24.1c-0.2-0.7-0.3-1.4,0.4-2c10.3,23.9,4.5,54.4-14.2,73.8c-0.7,0.7-1.4,1.5-2.1,2.3
		c-5.8,6.6-13.1,11-21.1,14.4C257.8,167.2,255.1,168.7,251.8,168.6z"/>
	<path class="st6" d="M290.1,160.2c5.4,5.3,10.3,11.1,14.6,17.3c6.1,9.1,6,20.1-0.2,28.5c-6.2,8.4-16.7,11.9-27.1,9
		c-0.2-0.1-0.3-0.3-0.5-0.4c-2.4-4.8-5.2-9.4-6.9-14.6c-0.8-2.5-1.8-4.9-2.4-7.4c-2.3-10,1.3-17.8,9-23.8c3.8-3,8.3-5.1,12.1-8.3
		C289,160.3,289.5,160.3,290.1,160.2z"/>
	<path class="st7" d="M290.1,160.2c-2.7,2.8-5.9,4.9-9.2,6.8c-12.8,7.2-16.4,18.5-10.5,32.2c2.1,4.8,3.6,10,7.2,14
		c0.8,0.9,0.1,1.3-0.7,1.4c-6.3-1.9-10.6-6-13.8-11.6c-2.2-3.9-3.6-8.1-5.1-12.2c-2.4-7.3-4.6-14.7-6.1-22.2
		c7.1-2.7,14.1-5.3,20.3-9.8c3.3-2.3,6.4-4.8,9.6-7.3C284.3,154.6,287.6,156.9,290.1,160.2z"/>
	<path class="st3" d="M67.7,236.4c-3.7,2.4-7.7,3.8-12.2,3.2c-8.2-6-15.4-13-21.4-21.3c4.3,2.7,8.5,5.8,13,8.2
		c6.7,3.6,13.2,7.7,20.8,9.3C68.1,236.1,68.1,236.3,67.7,236.4z"/>
	<path class="st8" d="M6.8,114.7c1.4,1.6,2.8,3,4.2,0c0,0.6,0,1.2,0,1.8c0,1.5-0.2,3.4-1.7,3.5c-1.7,0.1-2.7-1.5-2.6-3.4
		C6.7,116,6.8,115.3,6.8,114.7z"/>
	<path class="st9" d="M67.7,236.4c0.1-0.2,0.1-0.3,0.2-0.5c4.5-3.3,9.1-2.7,13.7-0.2c5.7,3.1,11.1,2.9,16.3-1.1
		c5.2-4,10.9-5.5,17.5-5.1c6,0.4,9.2-3.1,9.3-9.1c0-5.9-1.8-11.4-2.9-17.1c-2-10.7,1.7-19.4,10-23.6c4.6-2.3,9.5-3,14.4-3.7
		c3.7-0.5,7.4-0.8,11.1-1.2c4.5-0.5,7.6,1.4,9.1,5.8c0.6,1.6,1,3.2,1.5,4.7c1.5,4.5,3.6,5.7,8.3,4.8c6.4-1.2,8-0.2,9.5,6
		c1.8,7.6,3.4,15.2,5.2,22.7c0,0.2-0.1,0.4-0.1,0.7c-6.5,4.3-13,8.5-20,11.8c-13,6.1-26.5,10.3-40.8,11.9c-4.4,0.5-8.8,1.1-13.2,1.2
		c-16.3,0.3-32.1-2.3-47.4-7.7C68.7,236.6,68.2,236.5,67.7,236.4z"/>
	<path class="st10" d="M17.9,145.3c0-3.3,2.1-6,4.8-6.2c3.9-0.3,5.9,1.1,6.4,5c1.2,9.6,2.9,19.2,6.2,28.4c2.1,5.6,4.5,11.1,7.4,16.4
		c1.2,2.2,1.8,4.4,0.1,6.7c-2.8,3.8-7.5,3.5-9.9-0.8c-4.5-8.1-8.1-16.5-10.7-25.4C20,161.5,18.8,153.4,17.9,145.3z"/>
	<path class="st3" d="M60.3,143.5c3.2,5.9,8.4,8.3,15,8c1.9-0.1,3.7,0,5.6-0.1c4.4-0.2,7.9,1.4,10.5,5c1.7,2.3,3.8,3.8,6.9,3.2
		c0,1.1,1.4,2.4,0,3.4c-1.3,0.9-2.6,0.4-3.8-0.2c-1.2-0.6-2.2-1.3-3.1-2.5c-3.4-5-8.3-5.9-13.9-5.2c-5.5,0.7-10.5-0.2-14.6-4.3
		C61,148.8,60,146.4,60.3,143.5z"/>
	<path class="st11" d="M26.1,118.4c1.5,3.7,4.4,5.8,7.9,6.9c4.2,1.4,7.4,4,10,7.4c3.3,4.2,4.9,4.4,9.3,1.3c0.9-0.6,1.8-1.3,2.8-1.9
		c1.3-0.8,2.6-2.1,4.2-1.1c1.8,1,1.4,2.8,1.1,4.4c-2-2.1-3.9-0.8-5.5,0.4c-8.1,6.2-8.5,4.9-13.5-1.1c-2.9-3.5-6.9-4.8-10.7-6.6
		C27.8,126,25.6,123,26.1,118.4z"/>
	<path class="st12" d="M150.7,40.7c-0.9-4.8,2.7-9.6,7.9-10.2c5.8-0.7,10,1.9,13,6.7c2.5,4,3.6,8.5,3.5,13.3c-1-3.2-1.7-6.5-3.4-9.5
		c-3.8-6.6-11.9-8.9-17.8-4.8C152.2,37.3,151.7,39.1,150.7,40.7z"/>
	<path class="st12" d="M107.9,137.8c-0.3-8.5,2.4-12.1,10.7-13.9c2.9-0.6,5.6-1.5,7.3-4.1c0,4.9-1,6.2-5.7,7.4
		c-0.3,0.1-0.6,0.1-0.9,0.1C113,128.2,108.8,131.2,107.9,137.8z"/>
	<path class="st13" d="M11.1,113.5c0-0.9-0.1-1.9,0-2.8c0.4-3.5,1.6-4.2,4.7-2.5c2.6,1.5,4.7,1.3,6.4-1.2c0.2-0.3,0.5-0.6,0.8-0.9
		c0.9-1,2-2.1,3.4-1.3c1.6,0.9,1.5,2.3,0.8,3.8c-2.2-1.2-3.5,0.4-4.6,1.8c-2.1,2.6-4.3,3.3-7.2,1.4
		C13.3,110.2,11.9,111.3,11.1,113.5z"/>
	<path class="st11" d="M129.5,68c-0.6-4.3,2.5-7.6,7.4-8.2c3-0.4,5.9,0.6,8.9,0.5c0.1,4,0.1,4.1-3.7,3.3
		C137,62.5,132.7,63.7,129.5,68z"/>
	<path class="st13" d="M145.8,54.3c-0.2-0.6-0.4-1.2-0.4-1.8c0-0.9-0.4-2,0.6-2.5c1.2-0.6,1.9,0.4,2.6,1.1c3.6,3.4,5.9,3.3,9.1-0.3
		c0.4,2.5,0,4.7-2.6,5.9c-2.6,1.2-4.5-0.1-6.3-1.8C147.9,54.2,147.1,52.8,145.8,54.3z"/>
	<path class="st14" d="M126,119.1c0-0.6,0-1.2,0-1.8c0.1-7.2,0.1-7.3,6.9-9.7c1.1-0.4,2-1,2.9-1.7c0.7,3.1-0.6,5.2-3.6,5.7
		c-4.1,0.6-6.2,2.5-5.7,6.8C126.5,118.6,126.2,118.8,126,119.1z"/>
	<path class="st15" d="M98.9,157.2c-1.5-3.2,0.7-4.6,3.1-5.4c3-1,5.3-2.6,5.8-5.9c0.1,4.4-0.3,8.3-5.6,9.5
		C100.9,155.7,99.9,156.6,98.9,157.2z"/>
	<path class="st16" d="M131.5,96.7c-1.3-2.5,0.4-4.1,1.7-5.7c1.6-2,3.4-3.8,5.1-5.7c0.6,3-0.8,5.1-2.8,7.1
		C134.1,93.8,132.8,95.3,131.5,96.7z"/>
	<path class="st10" d="M88.4,34.9c0.1,3.8-1.5,5.5-3.9,6.7c-9.2,4.8-17,11.4-24.5,18.4c-1.6,1.5-2.4,3.5-4.7,4.4
		c-2.7,1-4.9,0.6-6.7-1.6c-1.7-2-1.7-5.1,0.1-7.1c9-9.8,19-18.2,30.8-24.4C84.2,28.8,88.4,31,88.4,34.9z"/>
	<path class="st10" d="M105.8,32.4c-3.8,0-6-1.7-6.5-4.8c-0.5-2.5,0.7-4.7,2.8-5.7c4.9-2.3,10.3-3,15.5-3.8c2.4-0.4,5.4,2.4,5.6,4.9
		c0.2,2.6-0.8,4.9-3.4,5.7C115,30.3,109.9,31.4,105.8,32.4z"/>
	<path class="st0" d="M273.8,74.8c15.4,23.1,7.8,56.2-18.8,69.8c-22,11.2-50.4,3.6-62.4-16.5c-8.6-17.7-6.3-34.6,4.9-50.2
		c7.6-10.6,18.3-17.1,31.3-19.3c15.2-2.5,28.6,1.5,40.4,11.2C270.9,71.3,272.2,73.2,273.8,74.8z"/>
	<path class="st3" d="M273.8,74.8c-5.1-4.4-10.1-8.8-16.4-11.6c-15.8-6.9-31.2-6.2-45.9,2.9c-12.3,7.6-19.7,18.7-22.4,32.9
		c-1.7,8.8-0.6,17.3,2.5,25.6c0.4,1.2,0.7,2.4,1,3.6c-6-8-8.4-17.3-8.3-27.1c0.1-20.3,12.5-38,31.2-45.3
		c20.8-8.1,44.8-0.9,57.6,17.5C273.3,73.7,273.5,74.3,273.8,74.8z"/>
	<path class="st17" d="M231.9,39.9c4.5,0.1,7.7-0.1,10.9,0.6c1.8,0.4,3.5,1.3,3.2,3.1c-0.3,2-1.9,2.6-4.3,2.3
		c-16.7-2.6-31.5,1.6-44.7,12.3c-6.6,5.4-11.3,12.1-15,19.6c-0.2,0.4-0.4,0.7-0.6,1.1c-0.8,1.9-2.4,2-3.9,1.5
		c-1.7-0.6-1.4-2.1-1-3.4c1.6-4.8,4.3-9,7.3-12.9c9.5-12.2,21.9-20,37.2-23.1C225.2,40.1,229.2,39.7,231.9,39.9z"/>
	<path class="st18" d="M269.4,53c0,2.1-1.7,3.5-3.3,2.6c-2.4-1.3-4.6-2.8-6.8-4.3c-1.2-0.8-1.3-2-0.5-3.3c0.7-1.2,1.8-1.7,2.9-1.2
		c2.6,1.2,5.2,2.5,7.2,4.7C269.3,52,269.4,52.6,269.4,53z"/>
	<path class="st19" d="M298.7,190.9c0-0.2-0.3-1.2-0.4-2.3c-0.1-1.3,0.7-2.2,1.9-2.5c1.1-0.3,1.7,0.6,2.1,1.5
		c1.7,3.7-0.6,12.9-3.7,15.6c-0.9,0.8-1.8,1-2.7,0.1c-0.9-0.8-1-1.6-0.3-2.7C297.3,197.9,298.8,195.1,298.7,190.9z"/>
</g>
</svg>
