<?xml version="1.0" encoding="utf-8"?>
<!-- Generator: Adobe Illustrator 23.0.0, SVG Export Plug-In . SVG Version: 6.00 Build 0)  -->
<svg version="1.1" id="Layer_1" xmlns="http://www.w3.org/2000/svg" xmlns:xlink="http://www.w3.org/1999/xlink" x="0px" y="0px"
	 width="384px" height="377.5px" viewBox="0 0 384 377.5" style="enable-background:new 0 0 384 377.5;" xml:space="preserve">
<style type="text/css">
	.st0{fill:#F7C32E;}
	.st1{fill:#CE9D21;}
	.st2{fill:#5143D9;}
	.st3{opacity:0.8;fill:#5143D9;}
	.st4{opacity:0.8;fill:#0B0A12;}
	.st5{fill:#0B0A12;}
	.st6{fill:#FDD1A3;}
	.st7{fill:#A07515;}
	.st8{fill:#FEBC85;}
	.st9{fill:#FEFEFE;}
	.st10{fill:#FCFEFD;}
</style>
<g>
	<path class="st0" d="M361.6,122.9c2.6,0.1,5.3,0.4,7.8,0.1c6.9-0.6,11.8,2,14.5,8.4c0,40,0,80,0,120c-2.4,6.6-7.3,9.4-14.2,8.9
		c-2.2-0.1-4.5,0.1-6.7,0.1c-1.4,1.1-3,1.1-4.6,1.1c-22.2,0-44.4,0.1-66.6,0c-8.5,0-17,0.1-25.5,0c-1.9,0-3.8,0.2-5.4-0.9
		c-1.8-4.8-1.6-9.7-0.2-14.6c2-1.6,4.3-1.1,6.5-1.1c29.5,0,58.9,0,88.4,0c11.2,0,12.9-1.8,12.9-13.1c0-27.7,0-55.5,0-83.2
		c0-6.4-1.3-8.2-6.6-10.4c-2.2-0.9-4.4-0.6-6.7-0.6c-101.5,0-203,0-304.5,0c-1.6,0-3.3,0-4.9,0c-4.4-0.1-5.8-1.9-4.7-6.2
		c1.1-4.4,4-7.4,8.2-9c1.5-0.4,3-0.3,4.5-0.3c76.7-0.2,153.4-0.3,230.1-0.1c23.9,0,47.7,0,71.6,0.1
		C357.7,122.1,359.7,122,361.6,122.9z"/>
	<path class="st1" d="M49.5,123.1c-3.1,2.1-6,4.3-7.1,8.2c-1.2,4.4-0.6,5.4,3.9,5.4c93.7,0,187.3,0,281,0c10.4,0,20.7,0,31.1,0
		c1.3,0,2.8-0.5,3.9,0.7c-1.5,1.5-3.5,1.2-5.3,1.2c-9.1,0.1-18.2,0-27.4,0c-100.5,0-201,0-301.5,0c-11.2,0-12.7,1.4-12.7,12.8
		c0,26.9,0,53.7,0,80.6c0,1.4,0,2.8,0,4.1c0.3,5.8,2.8,8.4,8.6,8.7c4.2,0.2,8.5,0,12.7,0.1c1.7,0,3.5-0.1,5.1,0.9
		c1,0.9,1.1,2.2,1.3,3.4c1.4,6.9,4.3,9.2,11.4,9.2c29.2,0,58.3,0,87.5,0c2.1,0,4.2-0.3,6.3,0.5c0.6,0.4,1.4,0.8,0.6,1.7
		c-1.6,1.1-3.3,0.9-5.1,0.9c-17.2,0-34.4,0.1-51.5-0.1c-5.6,0.1-11.2,0.1-16.8,0c-16.9,0.2-33.9,0.1-50.8,0.1
		c-1.4,0-2.7-0.2-3.9-1.1c-2.1,0-4.2-0.3-6.3-0.1c-6.8,0.6-11.7-2-14.6-8.3c0-40.5,0-81,0-121.5c3.2-6.1,8.2-8.4,15-7.8
		c2.4,0.2,5,0.4,7.4-0.2c8.3-1,16.7-0.4,25.1-0.4C48.3,122.2,49,122.5,49.5,123.1z"/>
	<path class="st2" d="M291.7,260.5c23.8,0,47.6,0,71.3,0c-11.3,29.4-29.2,54-53.3,74.2c-16.4,13.7-34.5,24.5-54.7,31.5
		c-1.4-1.4-1.1-3.2-1.1-4.9c-0.1-6,0-11.9,0-17.9c-0.1-7-2-8.9-8.8-9c-1.5,0-3,0.1-4.4-0.5c-2.7-2.5-1.6-5.5-0.8-8.2
		c0.8-2.6,2.7-4.4,4.8-6.1c8-6.5,13-14.9,14.7-25.1c0.2-1.1,0.4-2.2,1.1-3.1c3.1-2.7,6.4-5.1,9.6-7.7c7.2-5.9,13-13.1,18.7-20.4
		C289.6,262.1,290.4,261.1,291.7,260.5z"/>
	<path class="st2" d="M75.8,260.5c5.5,0,11,0,16.5,0c1.3,0.6,2.2,1.6,3.1,2.7c19.9,26.7,46.2,42.9,79.1,48.2c0.5,0.1,1,0.2,1.4,0.5
		c3.6,3.5,7,7.1,10.9,10.2c1.6,1.3,2.4,3.2,2.9,5.2c1.1,4.4,0,6-4.6,6.1c-1.4,0.1-2.7,0.2-4,0.7c-4.8,1.8-5.8,3.2-5.8,8.3
		c-0.1,9.6,0,19.2,0,28.7c0,1.8,0.4,3.8-1.1,5.3c-31.4-3.1-60.1-13.6-86.1-31.5c-1.3-1.4-0.9-3-0.6-4.6c5.1-24.2,2.2-47.5-7.9-70.1
		c-0.9-1.9-1.9-3.8-2.9-5.6C75.8,263.4,74.7,262.1,75.8,260.5z"/>
	<path class="st3" d="M75.8,260.5c3.4,7.2,7,14.3,9.5,21.9c4.4,13.7,6.2,27.7,5.4,42c-0.4,6.9-1.9,13.7-2.8,20.6
		c-14.2-9.2-26.4-20.8-37.2-33.8c-12.3-14.6-21.9-30.8-29-48.5c-0.3-0.7-0.4-1.4-0.6-2.1C39.2,260.5,57.5,260.5,75.8,260.5z"/>
	<path class="st4" d="M240,333c2.2,0,4.5,0.1,6.7,0.1c5.4,0.1,8.2,2.8,8.3,8.4c0.1,8.2,0,16.5,0,24.7c-10.7,4.5-21.9,7-33.3,8.9
		c-7.1,1.2-14.2,2-21.5,2.2c2.6-2.6,2.7-5.8,2.7-9.2c-0.1-8.6-0.1-17.2,0-25.8c0-4.2,1.3-7.9,5.4-9.8c1.1-0.4,2.3-0.4,3.5-0.5
		c7.7-0.1,15.4,0,23.1,0C236.7,332,238.5,331.9,240,333z"/>
	<path class="st5" d="M208.5,333.2c-3.3,2.4-4.6,5.5-4.5,9.6c0.2,9.7-0.1,19.5,0.2,29.2c0.1,3.1-0.8,4.8-3.8,5.3
		c-8.8,0.1-17.6,0.6-26.3-0.8c0-11.6,0-23.2,0-34.9c0-5.6,2-7.8,7.6-8.6c7.2-0.2,14.3-1.5,21.5-1C205,332.1,206.9,331.8,208.5,333.2
		z"/>
	<path class="st2" d="M23.2,121.6c7.2-17.9,17.5-33.9,30.2-48.4c27.8-31.7,62.4-51.7,103.7-59.9c16.2-3.2,32.6-4.4,49.2-2.6
		c1.4,0.8,1.9,2.3,2.4,3.7c5.7,15,13.9,28.4,25.3,39.7c0.4,0.4,0.8,1,1,1.5c0.2,1.4-0.8,2.3-1.7,3.2c-5.2,5.3-10.5,10.6-15.8,15.8
		c-1.1,1.1-2.2,2.1-3.8,2.1c-3.5-0.3-6.8-1.1-10.3-1.3c-1.6-0.1-3.2-0.4-4.3-1.8c-0.9-1.8-0.7-3.7-0.7-5.5c0-9.8,0-19.7,0-29.5
		c0-1.7,0.1-3.5-0.4-5.2c-0.9-3.1-3-4.8-5.9-4.8c-2.9,0-5,1.6-6,4.7c-0.5,1.7-0.5,3.5-0.5,5.2c0,10,0,19.9,0,29.9
		c0,1.7,0.2,3.5-0.6,5.1c-1,1.5-2.7,1.8-4.3,1.9c-3.5,0.2-6.9,1-10.3,1.3c-2.1,0-3.3-1.5-4.7-2.8c-7.1-7-14.1-14.1-21.1-21.1
		c-1.5-1.5-3-2.9-5-3.9c-2.7-1.4-5.2-0.9-7.3,1c-2.1,1.9-2.7,4.4-1.6,7.2c0.6,1.7,1.8,3,3.1,4.2c5.2,5.2,10.4,10.4,15.6,15.6
		c1.2,1.2,2.9,2.2,2.2,4.4c-1,1.2-2.5,1.7-3.9,2.2c-8.3,3-15.8,7.4-23,12.3c-1.9,1.3-3.9,1.5-6,1.6c-6.5,0.2-13-0.5-19.4,0.4
		c-4.5,1.5-6.2,3.5-6,6.9c0.2,3.5,2.5,5.6,7.1,6.4c1.4,0.3,3.2-0.2,3.5,2c-1.4,3.7-4.5,6.2-7,9.1c-0.9,1-2.3,0.9-3.5,0.9
		c-22.4,0-44.9,0-67.3,0C25.1,122.8,23.4,123.7,23.2,121.6z"/>
	<path class="st3" d="M169.3,76.1c4.9-1.6,10.2-1.4,15.2-2.4c0.5,0.2,0.8,0.6,1.1,1c4.5,5.8,8.3,5.7,12.8-0.1
		c0.3-0.4,0.7-0.7,1.2-0.8c5,1,10.2,0.8,15.2,2.4c0.6,1.3-0.2,2.4-0.5,3.6c-0.6,2.7-0.1,5,2.1,6.7c2.2,1.7,4.6,1.6,7,0.5
		c2.1-0.9,3.6-2.7,5.2-4.2c1.2-1.2,2.3-2.7,4.3-2.6c9.5,2.6,17.9,7.6,26.1,12.9c2.3,1.5,4.6,2.3,7.4,2.2c5.1-0.1,10.3-0.2,15.4,0.1
		c1.2,0.1,3.5-0.7,2.9,2.1c-1.8,0.9-3.7,0.7-5.5,0.7c-10.5,0-21-0.1-31.4,0.1c-5.2,0.1-7.9,3-7.1,7.4c0.5,3,2.9,4.9,6.9,5.2
		c4,0.3,8,0.1,12,0.1c5.4,0,10.7,0,16.1,0c1.7,0,3.5-0.1,5.1,0.8c1.8,1.7,3.7,3.4,5.1,5.5c2.2,3.2,5,4.3,8.9,4.3
		c20.6-0.1,41.2-0.1,61.8-0.1c1.5,0,3-0.1,4.5,0.3c0.3,0.4,0.5,0.9,0.8,1.3c-1.5,0.1-3,0.2-4.5,0.2c-100.3,0-200.6,0-300.9,0
		c-2.2,0-4.5,0-6.7,0c-7.5-0.1-15.1-0.1-22.6-0.2c-1.5,0-2.9-0.2-4.4-0.3c0.2-0.3,0.5-0.7,0.7-1c1.1,1.3,2.5,0.8,3.8,0.8
		c21.7,0,43.5,0,65.2,0.1c2.2,0,3.8-0.5,5-2.4c1.8-2.9,5-4.8,6.3-8.2c1.5-1.5,3.5-1.1,5.3-1.1c8.5-0.1,17,0,25.4,0
		c1.7,0,3.5,0,5.2-0.7c2.9-1.1,4.3-3.3,4.1-6.4c-0.2-3-2.1-4.7-4.9-5.4c-1.5-0.4-3-0.3-4.5-0.3c-10,0-20,0-29.9,0
		c-1.8,0-3.8,0.4-5.2-1.3c4.5-1.4,9.1-0.6,13.7-0.5c5.7,0.1,10.8-0.4,15.6-4.1c6.6-4.9,14.2-8.2,21.9-11c0.5-0.2,1-0.7,1.5-1
		c2.1,0.1,3.1,1.9,4.4,3.1c1.1,1,2.1,2.1,3.4,2.9c2.6,1.6,5.3,2.2,8,0.3c2.7-1.9,3.1-4.6,2.1-7.6C169.2,78,168.7,77.1,169.3,76.1z"
		/>
	<path class="st3" d="M235,55.7c-7.6-5.8-12.6-13.6-17.6-21.5c-4.7-7.4-8-15.5-11.1-23.6c18.8,0.7,36.8,5.3,54.2,12.3
		c31.7,12.8,57.8,33,78.5,60.2c0.6,0.8,1,1.7,1.5,2.6c-4.5,2.4-9.6,2.6-14.5,3.1c-23.1,2.7-45-1.8-65.6-12.5c-5-2.6-10-5.1-13.9-9.3
		c-0.6-2.1,1-3.1,2.1-4.4c1.6-1.7,3.5-3.2,4.4-5.4c1.2-2.9,0.7-5.5-1.5-7.5c-2.2-2-4.8-2.4-7.5-0.8c-2,1.1-3.5,2.7-5.1,4.3
		C237.7,54.3,236.9,55.8,235,55.7z"/>
	<path class="st2" d="M246.7,66c3.5,3.9,8.1,6.2,12.5,8.6c14.1,7.7,29.3,12.1,45.4,13.5c11.2,1,22-0.2,32.9-2.3c1-0.2,2-0.1,3-0.1
		c8.3,11.1,15.2,23,20.4,35.9c-1,1.3-2.5,0.8-3.8,0.8c-21.7,0-43.5,0-65.2,0.1c-2.2,0-3.8-0.5-5-2.4c-1.8-2.9-5-4.8-6.3-8.2
		c1-1.2,2.5-0.9,3.8-1.1c3.2-0.5,5.6-2,6.3-5.4c0.6-3.4-0.9-5.7-3.9-7.2c-0.7-0.3-1.4-0.6-1.7-1.4c-3.9-1.4-7.9-0.8-11.8-0.5
		c-7.5,0.6-13.9-1.1-20-5.7c-5.6-4.2-12.1-6.7-18.7-9.2c-0.8-0.3-1.7-0.3-2.2-1.2c-0.1-1.3,0.8-2,1.6-2.8c3.3-3.3,6.6-6.7,10-10
		C244.7,66.7,245.4,65.8,246.7,66z"/>
	<path class="st6" d="M240,333c-9.5,0-19,0-28.6,0.1c-0.8-0.4-1.7-0.3-2.6-0.2c-2,0.2-2.8-0.9-2.8-2.6c0-4-2.2-6.6-5.1-9
		c-10.1-8.5-16-19.2-16-32.7c0-5.7-1.8-11-6.4-15c-3.3-2.9-6.2-6.1-9.3-9.2c-5-5.1-4.9-9.2,0.2-14.5c4,0.8,5.5,4.7,8.2,6.7
		c-0.6-3.4-0.1-7.2-0.3-10.9c-0.1-2.9-0.1-5.8,0-8.7c-0.2-8.8-0.1-17.6-0.1-26.5c0.3-5.3-0.4-10.6,0.3-15.9c0.6-2.4,1.5-4.7,3.4-6.5
		c3.2-3.1,6.9-4.5,11.2-3c4.2,1.5,7.3,4.2,7.6,9.1c0.1,13.9-0.2,27.8,0.2,41.6c5.7-8.4,14.5-8.1,19.7,0.7c0.6,1.2,1.1,2.5,0.8,3
		c0.1-0.8,1-1.9,2.2-3c6.3-4,9.5-4,14.8,0.1c1.9,1.9,3.7,3.9,3.3,6.9c-0.1,0.9,0.1,1.9-0.3,2.8c0.3-0.7,0.3-1.6,0.4-2.4
		c2.2-4.8,6.1-6.7,11.2-6.2c4.2,0.4,7.2,2.6,8.6,6.6c0.2,0.6,0.3,1.2,0.1,1.8c0.1,4.7,0.2,9.4,0.3,14.1c1,1.3,1.1,2.7,1.1,4.3
		c0,7.5,0,14.9,0,22.4c0,1.5-0.1,3-1.1,4.2c-1.3,8.7-4.2,16.6-9.9,23.4c-1.4,1.7-2.9,3.5-4.7,4.7C241.4,322.6,239.2,327,240,333z"/>
	<path class="st7" d="M260.8,246.2c-1.9-4.5-4.8-7.8-10.1-7.7c-4.3,0-7.5,2-9.2,6.1c-0.9,0.5-1.1-0.3-1.4-0.8
		c0.2-2.7-1.6-4.6-2.9-6.6c1.8-1.6,4-1.2,6.1-1.2c36.4,0,72.7,0,109.1,0c7.1,0,7.1,0,7.1-7.2c0-24.9,0-49.7,0-74.6
		c0-6.4,0-6.5-6.5-6.5c-102,0-204,0-306,0c-1.6,0-3.2,0.1-4.9-0.1c-4.5,0.2-9,0.1-13.5,0c-3-0.1-4.3,1-4.3,4.1c0,26.7,0,53.4,0,80.2
		c0,3.1,1.2,4.2,4.2,4.2c4.5-0.1,9-0.1,13.5,0c4.6-0.2,9.2-0.1,13.9-0.1c38.6,0,77.1,0,115.7,0c2.3,0,4.8-0.5,6.8,1.2c0,3,0,6,0,9
		c-1.6,1.4-3.5,1.2-5.3,1.2c-41.9,0-83.9,0.1-125.8,0c-1.9,0-3.8,0.2-5.3-1.2c-5.9,0-11.7,0-17.6,0c-6.9,0-10.1-3.2-10.1-10
		c0-29.6,0-59.2,0-88.8c0-7.1,2.9-9.9,10-9.9c111,0,222.1,0,333.1,0c1.6,0,3.2,0,4.9,0c5.2,1,7.5,3.8,7.5,9.5c0,26.7,0,53.5,0,80.2
		c0,3,0,6,0,9c0,6.9-3.1,10.1-10,10.1c-17,0-34,0-51,0C292.8,246.2,276.8,246.2,260.8,246.2z"/>
	<path class="st3" d="M261.1,291.2c0-10.3,0-20.6,0-30.9c10.2,0.1,20.4,0.1,30.7,0.2c-7.9,11.4-17.1,21.5-28.4,29.6
		C262.6,290.6,262,291.2,261.1,291.2z"/>
	<path class="st3" d="M175.4,312.2c-10.5-0.8-20.4-4.2-30.1-8.1c-15.1-6.1-28.1-15.4-39.5-26.9c-5.1-5.1-9.6-10.7-13.6-16.8
		c17.2,0,34.4-0.1,51.6-0.1c1.7,0,3.5-0.1,5.2-0.1c1.4,0.2,2.2,1.2,3,2.1c3.5,3.5,7.1,7,10.6,10.6c3.2,3.3,5.3,7.3,5.5,12
		c0.5,8.8,1.6,17.4,6.8,24.9C175.5,310.5,176,311.3,175.4,312.2z"/>
	<path class="st8" d="M175.4,312.2c-5.9-8-8-17.2-8.2-27c-0.1-4.4-1.9-8.2-4.9-11.4c-4.4-4.6-8.8-9.1-13.3-13.7
		c-0.2-0.2-0.4-0.3-0.6-0.5c-1.6-2.4-1-4.8,0.3-7c3.4-5.5,13.6-7.9,19.1-4.6c0.8,0.5,1.4,1,1.6,2c-0.3,0.7-0.6,1.3-1,2
		c-3.1,5-2.9,7.1,1.2,11.2c3.2,3.2,6.2,6.6,9.6,9.5c5.1,4.4,6.6,10.1,6.7,16.4c0.2,13.5,6.3,23.8,16.5,32c2.3,1.8,4.5,4,4.3,6.6
		c-0.3,3.9,1.6,4.8,4.7,5.3c-1,0.1-2,0.1-3,0.2c-8.9-0.1-17.9-0.2-26.8-0.2c1.3-0.8,2.7-0.6,4-0.4c3.5,0.4,3.8-1.6,3.3-4.1
		c-0.5-2.7-1.7-5.1-4.1-6.8C181.2,319.1,178.1,315.8,175.4,312.2z"/>
	<path class="st0" d="M169.5,250.1c-4.6-3.1-9.5-3.2-14.5-1.2c-4.7,2-7.3,5.4-6.6,10.7c-31,0-62.1,0-93.1,0
		c-9.7,0-13.4-3.7-13.4-13.5c45.5,0,91,0,136.5,0c0,3.8,0,7.7,0,12C175.3,255.3,172.4,252.7,169.5,250.1z"/>
	<path class="st9" d="M246.7,66c-5.1,4.4-9.7,9.3-14.4,14.2c-1.7,1.6-3.4,3.3-5.1,4.9c-4,3.9-7.9,4.7-11.3,2.3
		c-3.5-2.5-3.9-6.1-1.2-11.3c6.9-6.6,13.8-13.3,20.2-20.4c2.1-2,4.1-3.9,6.2-5.9c4.1-3.7,8.4-3.9,11.5-0.5c3,3.2,2.7,7.5-0.9,11.3
		C250.1,62.4,248.4,64.2,246.7,66z"/>
	<path class="st9" d="M169.3,76.1c2.5,5,2.4,8.2-0.7,10.8c-2.8,2.4-5.9,2.5-9,0.6c-0.9-0.6-1.8-1.4-2.6-2.1
		c-1.8-1.7-3.6-3.4-5.4-5.2c-6.6-6.6-13.2-13.3-19.7-20c-2.4-2.4-3.4-5.2-2.1-8.5c1.1-2.8,3.3-4.3,6.2-4.7c3-0.4,5.2,1.2,7.2,3.2
		c7.7,7.7,15.3,15.3,23,23C167.2,74.3,168.3,75.2,169.3,76.1z"/>
	<path class="st9" d="M199.6,73.7c-1.2,3.8-3.4,6.3-7.7,6.2c-4.1-0.1-6.3-2.5-7.4-6.2c0-12.7,0-25.4,0.1-38.2c0-4.9,2.6-8,6.7-8.4
		c4.9-0.4,8.2,2.9,8.2,8.4C199.5,48.2,199.5,61,199.6,73.7z"/>
	<path class="st9" d="M99,96.8c12.7,0,25.4,0,38.2,0.1c5.2,0,8.2,3.3,7.7,8.3c-0.4,4.1-3.5,6.6-8.5,6.6c-11,0.1-22,0.1-32.9,0.1
		c-1,0-2-0.1-3-0.1c-4.8-0.2-7.9-2.8-8.3-6.8C91.8,100.8,94.1,98.1,99,96.8z"/>
	<path class="st9" d="M285,96.8c4.9,1.3,7.1,4,6.7,8.3c-0.4,4.1-3.4,6.6-8.3,6.8c-1,0-2,0.1-3,0.1c-11,0-22,0-32.9-0.1
		c-4.6,0-7.7-2.3-8.4-5.9c-0.9-5.2,2.2-9,7.7-9.1c11.2-0.1,22.5,0,33.7,0C282,96.9,283.5,96.8,285,96.8z"/>
	<path class="st0" d="M178.5,237.2c-45.5,0-91,0-136.5,0c-1-1.1-1.2-2.4-1.2-3.8c0.1-4.8-0.5-9.6,0.5-14.3c1-1.8,2.7-1.6,4.3-1.6
		c3.2-0.1,6.5,0,9.7,0c6.4-0.1,11.4-2.8,14.2-8.6c2.7-5.5,1.8-10.7-2-15.4c-1.7-2-1.2-3.7-0.2-5.8c3.2-7.2,2-13.4-3.4-18
		c-2.6-2.2-5.4-3.5-8.9-3.4c-3.1,0-6.2,0.1-9.4,0c-1.6,0-3.3,0.2-4.3-1.5c-0.6-6.1-1.6-12.2,0.6-18.2c105,0,210,0,314.9-0.1
		c3.3,0,3.9,1.1,3.9,4.1c-0.1,27.6-0.1,55.2,0,82.9c0,3.2-1,3.9-4,3.9c-39.9-0.1-79.7-0.1-119.6-0.1c-4.8-3.6-9.6-3.5-14.3,0.1
		c-1.2,0.7-2.5,1-3.7-0.1c-2.1-4.1-5.2-6.8-9.9-6.6c-4.3,0.2-7.5,2.3-9.1,6.5c-2-0.6-1-2.2-1-3.3c-0.1-12,0-24.1-0.1-36.1
		c0-1.4,0.3-2.7-0.3-4.1c-1.3-4.9-4.5-7.8-9-8.2c-4.7-0.3-8.6,2.1-10.5,6.8c-0.2,0.6-0.5,1.1-0.8,1.6c-5.1-3.4-5.5-6.3-1.3-10.4
		c3.3-3.2,6.3-6.8,9.4-10.2c1.6-1.8,3-3.6,1.1-5.9c-1.3-1.6-4-1.2-6.2,1.3c-3.9,4.4-8,8.6-12.1,12.7c-0.5,0.5-1,1.1-1.6,1.6
		c-1,0.8-1.9,2.4-3.4,1.6c-1.2-0.6-1-2.2-1.1-3.4c-0.1-3.4,0-6.7-0.1-10.1c-0.1-2.3-0.6-4.5-3.4-4.5c-2.8,0-3.5,2.2-3.5,4.5
		c-0.2,13.9-0.1,27.7,0,41.6c0,2.3,0.7,4.4,3.5,4.4c2.8,0,3.3-2.2,3.4-4.5c0.1-3.5,0-7,0-10.5c0-1.6,0.2-3.2,1.1-4.7
		c2.5-3.7,4.6-3.8,6.9,0c2.5,4.3,5.8,8.1,7.2,13.1C178.8,219.3,178.8,228.2,178.5,237.2z"/>
	<path class="st9" d="M178.5,210.4c-3.4-5.2-6.7-10.4-10.1-15.7c-2.9,1.8-4.4,4.1-4.1,7.7c0.3,3.6,0,7.2,0.1,10.9c0,3-1.5,4.9-4.4,5
		c-3,0-4.6-1.9-4.6-4.8c-0.1-14.5-0.1-29,0-43.4c0-2.8,1.4-4.9,4.5-4.9c3.3,0,4.5,2.1,4.5,5.2c0,4.6,0,9.2,0,14.3
		c2.1-1,3.2-2.7,4.5-4c4.3-4.4,8.4-8.9,12.6-13.3c2.5-2.6,5.2-2.9,7.2-1c2,1.9,1.8,4.6-0.7,7.2c-3.5,3.7-6.9,7.6-10.6,11.1
		c-2.3,2.2-2.8,4-0.6,6.5c0.7,0.8,1.2,1.9,1.8,2.8C178.5,199.4,178.5,204.9,178.5,210.4z"/>
	<path class="st0" d="M198.9,193.6c1,1.3,0.6,2.9,0.6,4.3c0,11.8,0,23.6,0,35.4c0,1.3-0.6,2.7,0.7,3.8c0.1,0.9-0.3,1.7-1.3,2.9
		C198.9,224.1,198.9,208.8,198.9,193.6z"/>
	<path class="st0" d="M219.2,237.2c1.2,0,2.5,0,3.7,0.1c-0.9,1.3-1.7,2.6-2.8,4.3C219.7,239.9,219.5,238.5,219.2,237.2z"/>
	<path class="st0" d="M240.1,243.8c0.5,0.3,0.9,0.5,1.4,0.8c0,1-0.2,1.9-1.4,2.5C240.1,245.9,240.1,244.9,240.1,243.8z"/>
	<path class="st1" d="M42,218.5c0,6.2,0,12.4,0,18.6c-5.1,0-10.2-0.1-15.3,0.1c-2.5,0.1-3.5-0.6-3.5-3.3c0.1-28.1,0.1-56.1,0-84.2
		c0-2.7,0.9-3.4,3.5-3.3c5.1,0.2,10.2,0.1,15.3,0.1c0,6.1,0,12.3,0,18.4c-3.4,2.9-3.5,6.8-3.4,10.9c0.1,10.9,0.2,21.7,0,32.6
		C38.5,212.2,39,215.7,42,218.5z"/>
	<path class="st9" d="M300.6,201.6c1.9-4,3.9-8,5.7-12c0.9-2.1,2.2-3.7,4.6-3.7c2.5,0,3.7,1.6,4.7,3.7c1.9,4.2,4,8.3,6.5,13.5
		c0.1-2.1,0.2-3.1,0.2-4.1c0-9.5,0-19,0-28.5c0-3,1-5.3,4.4-5.3c3.3-0.1,4.6,2.2,4.6,5.2c0,13.5,0.1,27,0,40.5c0,4-2.5,6.8-6.1,7.4
		c-3.7,0.6-6.3-1.1-7.9-4.4c-2-4.1-4-8.3-6.3-13c-2.1,4.4-4,8.3-5.8,12.2c-2,4.1-5,5.9-8.5,5.2c-3.9-0.9-5.8-3.5-5.8-8.4
		c0-13,0-26,0-39c0-3.1,0.7-5.5,4.4-5.7c3-0.2,4.6,1.9,4.6,5.9c0,10.1,0,20.2,0,30.4C300.1,201.4,300.3,201.5,300.6,201.6z"/>
	<path class="st9" d="M42,218.5c-3.4-0.7-4.6-2.9-4.5-6.2c0.1-13.7,0.1-27.5,0-41.2c0-3.4,1.1-5.6,4.5-6.2c4.4,0.1,8.7,0,13.1,0.2
		c11.9,0.4,18.9,12.8,13.1,23.2c-1,1.7-1.3,2.7,0.2,4.4c4.3,4.8,5,10.5,2.4,16.4c-2.6,5.9-7.4,8.9-13.8,9.3
		C52,218.5,47,218.4,42,218.5z"/>
	<path class="st9" d="M213.1,185.9c0,9.1-0.1,17.9,0,26.6c0,3.2-1,5.5-4.4,5.8c-2.7,0.2-4.6-2.1-4.6-5.6c0-14,0-28,0-42
		c0-2.4,0.6-4.6,3.1-5.4c2.7-0.9,4.5,0.5,5.9,2.8c5.5,8.6,11,17.3,16.5,25.9c0.7,1.1,1.5,2.2,2.9,4.1c0-8.8,0-16.6,0-24.4
		c0-1.2,0-2.5,0-3.7c0.1-2.9,1.5-4.8,4.6-4.8c3.1,0,4.4,2,4.4,4.9c0,8.2,0,16.5,0,24.7c0,6,0,12,0,18c0,2.5-0.7,4.5-3.2,5.3
		c-2.6,0.8-4.3-0.6-5.6-2.6c-5.6-8.8-11.3-17.7-17-26.5C215.1,187.9,214.8,186.6,213.1,185.9z"/>
	<path class="st9" d="M285.1,191.8c0,3.9,0.1,7.7,0,11.6c-0.1,7.6-5,13.4-12.4,14.7c-4.1,0.7-8.3,0.7-12.3,0
		c-7.4-1.2-12.3-6.8-12.6-14.6c-0.2-7.9-0.2-15.7,0-23.6c0.2-8.8,6.3-14.6,15.1-14.8c2.4-0.1,4.7-0.1,7.1,0c9,0.2,15,6.2,15.1,15.1
		C285.1,184,285.1,187.9,285.1,191.8z"/>
	<path class="st9" d="M116.1,191.6c0-4-0.1-8,0-12c0.3-8,6.5-14.1,14.4-14.5c2.9-0.1,5.8-0.3,8.6,0.4c6.6,1.6,11.4,7.5,11.6,14.4
		c0.2,7.7,0.2,15.5,0,23.2c-0.2,9.3-7.2,15.2-17.7,15.2c-9.9,0-16.6-6-16.9-15.2C116,199.3,116.1,195.4,116.1,191.6
		C116.1,191.6,116.1,191.6,116.1,191.6z"/>
	<path class="st9" d="M111.4,191.6c0,4.2,0.4,8.5-0.1,12.7c-1.1,9.5-7.9,14.4-19.1,14c-8.6-0.3-15.1-6.5-15.4-15.2
		c-0.3-7.6-0.3-15.3,0-22.9c0.3-9,6.7-15,15.7-15.2c13.1-0.4,19.1,5.5,19.1,18.7c0,2.6,0,5.2,0,7.9
		C111.5,191.6,111.4,191.6,111.4,191.6z"/>
	<path class="st9" d="M337.5,183.4c0-4.4,0-8.7,0-13.1c0-3,1.2-5.2,4.5-5.2c3.3,0,4.5,2.2,4.5,5.2c0,8.7,0,17.4,0,26.2
		c0,3.1-1.4,5.2-4.5,5.2c-3.2,0-4.5-2.2-4.5-5.3C337.5,192.1,337.5,187.7,337.5,183.4z"/>
	<path class="st10" d="M337.5,212.2c0.1-3.4,1.9-5.6,4.7-5.5c2.7,0.1,4.3,2.3,4.3,5.9c0,3.5-1.7,5.7-4.5,5.7
		C339.1,218.3,337.4,216.1,337.5,212.2z"/>
	<path class="st0" d="M52.5,209.3c-6,0-6.1,0-6-4.6c0.1-2.8-1.4-7.1,0.6-8.1c3.2-1.6,7.6-1.1,11.3-0.1c3.3,0.8,4.8,3.3,4.6,6.8
		c-0.2,3.2-2.7,5.6-6.1,6C55.5,209.4,54,209.3,52.5,209.3z"/>
	<path class="st0" d="M46.5,180.4c0-6.4,0-6.4,5-6.4c6.6,0,9.8,2.1,9.8,6.5c0,4.5-3.3,6.6-10.5,6.6
		C46.5,187.1,46.5,187.1,46.5,180.4z"/>
	<path class="st0" d="M276.1,191.7c0,3.7,0.1,7.5,0,11.2c-0.1,4.1-2.2,6.3-6.2,6.4c-9.8,0.1-13.8,1.5-13.2-12.3
		c0.2-5.2,0-10.5,0.1-15.7c0.1-5.2,2-7.2,7.3-7.3c11.6-0.2,12.1,0.3,12.1,11.7C276.1,187.7,276.1,189.7,276.1,191.7z"/>
	<path class="st0" d="M125.1,191.5c0-3.6-0.1-7.2,0-10.9c0.2-4.7,2.6-6.6,8.1-6.6c5.7,0,8.4,1.9,8.5,6.6c0.2,7.4,0.2,14.7,0,22.1
		c-0.1,4.6-3,6.7-8.5,6.7c-5.3,0-7.9-2.1-8.1-6.7C125,199,125.1,195.2,125.1,191.5z"/>
	<path class="st0" d="M102.5,191.8c0,3.5,0.1,7,0,10.5c-0.2,4.9-2.8,7.1-8.2,7.1c-5.7,0-8.5-2.1-8.6-7c-0.2-7.1-0.2-14.2,0-21.3
		c0.1-4.9,2.7-7,8.2-7c5.8,0,8.4,1.9,8.6,6.9C102.7,184.5,102.5,188.2,102.5,191.8z"/>
</g>
</svg>
