<?xml version="1.0" encoding="utf-8"?>
<!-- Generator: Adobe Illustrator 23.0.0, SVG Export Plug-In . SVG Version: 6.00 Build 0)  -->
<svg version="1.1" id="Layer_1" xmlns="http://www.w3.org/2000/svg" xmlns:xlink="http://www.w3.org/1999/xlink" x="0px" y="0px"
	 width="300px" height="300px" viewBox="0 0 300 300" style="enable-background:new 0 0 300 300;" xml:space="preserve">
<style type="text/css">
	.st0{fill:#FEE4C3;}
	.st1{fill:#FA6A3B;}
	.st2{fill:#FCD0A6;}
	.st3{fill:#FDE165;}
	.st4{fill:#FCD230;}
	.st5{fill:#22C6DA;}
	.st6{fill:#1B95A2;}
	.st7{fill:#FB7D4B;}
	.st8{fill:#70D8E5;}
	.st9{fill:#FCD0A7;}
	.st10{fill:#F4A871;}
	.st11{fill:#20AAB8;}
	.st12{fill:#F5D238;}
	.st13{fill:#F2EFF2;}
	.st14{fill:#E1DDE1;}
	.st15{fill:#FCE165;}
</style>
<g>
	<path class="st0" d="M46.9,300.6c-4.8-3.2-5.4-5.8-2.9-11.3c4.8-10.4,13.1-17.2,22.6-22.8c14.2-8.5,29.8-13.1,45.9-16.3
		c0.8-1,2-1.2,3.1-1.4c7.6-1.2,15.2-2.3,22.9-2.4c3.3-0.1,6.6-1,9.9-0.4c1.8,0.5,2,2.1,2.5,3.5c0.5,1.3,0.9,2.7,1.4,4
		c0.4,1.5,1.9,2.9,0.5,4.6c-5,0.8-10,0.9-15.1,1.1c-1.8,0.1-3.5-0.1-5.2,0.6c-1.6,0.6-2.7,1.7-2.6,3.5c0.1,1.9,1.3,3,3.1,3.4
		c0.9,0.2,1.7,0.2,2.6,0.1c20.3-1.5,40.3-0.2,60.1,4.3c0.4,0.1,0.8,0.2,1.2,0.2c2.2,0.2,4.1-0.9,4.4-2.9c0.4-2.3-1-3.5-2.9-4.1
		c-2.4-0.8-4.9-1.2-7.4-1.7c-1.2-0.3-2.5-0.3-3.6-1.2c-0.3-3.1,2.3-4.4,4-6.3c3.5,0.3,6.4,2.1,9.4,3.6c10.4,5.4,20,11.8,26.9,21.6
		c3.8,5.3,6.2,11,7,17.5c0.1,1,0.3,1.9-0.5,2.8C171.9,300.6,109.4,300.6,46.9,300.6z"/>
	<path class="st1" d="M96.6,7.6c1.2-2.8,3-5.1,5.3-7c1,0,2,0,2.9,0c14.4,11.2,23.5,26.5,32.6,41.9c10,16.9,18,34.7,24.4,53.2
		c0.1,0.4,0.4,0.7,0.5,1c0.8,1.1,0,2.1-0.4,3c-3.1,6.4-6,13-8.3,19.8c-3.4,9.3-5.9,18.9-7.9,28.5c-0.3,1.3-0.6,2.6-1.3,3.8
		c-2.6,4-5.4,7.8-8.5,11.4c-0.7,0.8-1.2,1.8-2.5,1.7c-1.3-0.8-0.9-2-0.7-3.1c2.4-18.3,6.9-36,13.8-53.1c1.5-3.6,1.3-6.8,0-10.4
		c-5-13.9-10.6-27.5-17.4-40.6c-7.9-15.1-16.6-29.8-27.6-43c-1.2-1.4-2.5-2.7-3.8-4.1C97,9.8,96,8.9,96.6,7.6z"/>
	<path class="st2" d="M234.4,300.6c-0.4-9.5-4.3-17.4-10.6-24.2c-8.9-9.7-20-16.2-32.1-20.9c0-2,0.8-3.6,2.9-4.1
		c17.1,3.7,33.3,9.5,47.5,20c6.6,4.9,12,10.8,15.3,18.4c2.4,5.4,1.9,7.2-2.5,10.8C248,300.6,241.2,300.6,234.4,300.6z"/>
	<path class="st3" d="M153,118.8c2.5-7.6,6.2-14.8,9.3-22.2c4.7-8,9.3-16.1,15.2-23.4c3.6-4.5,7.4-9,11.8-12.9
		c3,2.9,4.4,6.9,6.1,10.6c6.8,15.1,10.7,30.9,12.4,47.3c0.3,2.8,0.6,5.6,0.9,8.4c-0.4,0.3-0.9,0.5-1.4,0.5c-3.8-0.4-7.5-1-11.2-1.5
		c-1.1-0.1-2.1-0.4-2.9-1.2c-0.8-1.7-0.1-3.5,0.1-5.2c1.1-7.2,2-14.5,3-21.7c0.1-1.1,0.3-2.1,0-3.2c-0.5-1.5-1.6-2.4-3.2-2.5
		c-1.5-0.1-2.6,0.6-3.2,2c-0.5,1-0.7,2-0.8,3.1c-1,7.4-2.2,14.8-3.1,22.3c-0.2,1.4-0.2,2.9-1.3,4.1c-1.1,0.7-2.3,0.3-3.4,0.2
		c-8.3-1-16.6-2.3-24.9-3.5C155.1,119.8,153.8,119.9,153,118.8z"/>
	<path class="st4" d="M208.6,126.4c-1.1-0.6-1.1-1.6-1.2-2.7c-1.4-17.2-4.9-33.9-11.7-49.9c-1.9-4.6-4.5-8.8-6.4-13.3
		c0.8-0.8,1.7-1.6,2.5-2.4c4.3-3.8,9.3-3.1,12.4,1.8c9.2,14.4,14.6,30.3,17.8,46.9c1.4,7.3,2.3,14.6,2.8,22c-3.2,1-6.3-0.2-9.4-0.6
		C213.1,127.9,210.5,128.1,208.6,126.4z"/>
	<path class="st4" d="M194.6,251.4c-1,1.4-2,2.7-2.9,4.1c-1.4,1.8-2.7,3.6-4.1,5.4c-0.9,0.8-2,0.8-3,0.6c-9.5-1.6-19.2-2-28.8-2.8
		c-1-0.1-2-0.1-2.7-0.9c-0.4-1.4-0.9-2.7-1.3-4.1c0.9-1,2.2-0.8,3.3-0.8c4.4,0.1,8.8-0.3,13.1,0.5c3.3,0.6,5.6-0.5,7.6-3.5
		c8.6-13,15.3-26.9,20.3-41.6c0.6-1.7,0.8-3.7,2.9-4.5c5.1-0.2,10,1.1,15,1.8c0.6,0.1,1,0.5,1.4,1c-4.5,14.9-10.9,28.9-19.2,42.1
		C195.6,249.7,195.1,250.5,194.6,251.4z"/>
	<path class="st5" d="M208.6,126.4c5.4,0.8,10.8,1.6,16.2,2.3c1.1,14,0.5,28-1.5,42c-0.2,1.3,0.4,2.8-0.6,4c-3.3-2-7.1-1.7-10.6-2.4
		c-1.1-0.2-2.3-0.3-3.4-0.6c-1-0.4-2.3-0.2-3.2-1.2c-0.6-2.9,0.4-5.8,0.6-8.7c0.1-2.6,0.4-5.2,0.7-7.8c0.1-0.5,0.4-0.9,0.6-1.3
		c1.8-3.7,3.2-7.4,0.6-11.4c-0.3-0.4-0.5-0.8-0.6-1.3c-0.3-4.5-0.6-9,0.1-13.5C207.8,126.5,208.2,126.4,208.6,126.4z"/>
	<path class="st6" d="M208.6,171.1c4.1,0.2,8.1,1,12.2,1.6c1.2,0.2,2,0.6,1.9,1.9c-1.5,10.9-3.9,21.6-7.5,32.1
		c-5.5-1-11.1-1.8-16.6-2.3c-0.2-0.2-0.4-0.5-0.5-0.8c-0.2-0.9,0-1.8,0.2-2.6c2.6-9,4.7-18.1,6.2-27.4
		C205,171.1,206.2,170.2,208.6,171.1z"/>
	<path class="st7" d="M96.6,7.6c1.2,3.2,4.2,5,6.2,7.6c7.7,9.5,14.2,19.7,20.3,30.2c8.2,14.2,15.1,29,21,44.3
		c1.2,3.2,2.2,6.5,3.6,9.6c1.4,3.2,1.1,6.1-0.2,9.2c-6.4,15.7-10.9,31.9-13.3,48.7c-0.3,2.5-1.5,4.9-0.6,7.5c0.3,0.6,0,1.1-0.3,1.6
		c-5.5,6.6-11.7,12.6-18.3,18.1c-6.9,5.8-14.3,10.9-21.8,15.7c-1.8,1.1-3.4,2.6-5.7,2.6c-6.9-21-11.6-42.5-13.1-64.6
		C71.5,97.5,77.1,58,91,19.7C92.5,15.5,94.2,11.4,96.6,7.6z"/>
	<path class="st8" d="M87.4,202.6c17.1-9.9,32.4-22,45.5-36.8c1.1,2.7,0.3,5.5,0.1,8.3c-0.7,10.9-0.8,21.7,0,32.6
		c0.7,9.5,2.2,18.9,4.2,28.3c0.7,3.1-0.1,4.1-3.3,4.3c-7.8,0.4-15.5,1.5-23.2,2.9c-1.4,0.3-2.9,0.8-4.2-0.2
		c-6.2-8.3-10.6-17.6-14.5-27.1C90.4,210.9,89,206.7,87.4,202.6z"/>
	<path class="st5" d="M106.6,242c5.6-0.7,11.1-2.1,16.7-2.6c3.8-0.3,7.5-1.1,11.3-1c1.8,0,2.6-0.4,2.1-2.6
		c-3.1-13.4-4.7-26.9-4.9-40.7c-0.1-9.8,0.2-19.6,1.3-29.3c0.2-0.4,0.4-0.8,0.6-1.2c3.8-4,6.8-8.5,10-12.9c1.5,0.4,1,1.7,0.9,2.6
		c-0.3,2.7-0.9,5.3-1.2,7.9c-0.1,4.3-0.8,8.5-1.2,12.8c-0.7,7-0.4,14-0.6,21c0.4,16,2.8,31.7,7.3,47.1c0.4,1.2,1,2.4,0.1,3.6
		c-12.2,0.3-24.4,1.3-36.4,3.5C110.4,247.5,108,245.1,106.6,242z"/>
	<path class="st3" d="M148.9,246.7c-2.5-8.8-4.8-17.6-6.1-26.6c-1.1-7.9-1.9-15.8-2.1-23.8c1.2-1,2.5-0.8,3.9-0.6
		c16.6,2.4,33.1,4.6,49.7,7c1.5,0.2,3.2,0,4.3,1.4c0,0.1,0,0.3,0.1,0.4c-2.2,3.5-2.9,7.6-4.4,11.4c-5,12.9-11.4,25.1-19.3,36.6
		c-1.9,2.7-4.6,2.1-6.9,1.8c-5.5-0.8-10.9-0.3-16.3-0.5C150.8,251.4,149.8,249,148.9,246.7z"/>
	<path class="st2" d="M153.1,257.8c11.5,0.5,23,1.6,34.5,3.1c3.5,0.8,6.9,1.5,10.4,2.3c2.2,0.5,4.1,1.6,4.6,4c0.4,2-0.7,3.5-2.3,4.7
		c-1.2,0.8-2.4,0.8-3.6,0.5c-10-2.4-20.1-3.8-30.4-4.6c-8.9-0.7-17.7-0.2-26.5-0.4c-2,0-4,0.7-6.1,0.6c-2.6-0.2-4.3-1.4-4.6-4
		c-0.4-2.6,1-4.3,3.5-4.9c0.8-0.2,1.7-0.4,2.6-0.5C141,258.2,147.1,258,153.1,257.8z"/>
	<path class="st9" d="M198.4,280.7c3.5,0,5.5,1.7,5.5,4.6c0,2.8-2.1,4.7-5.2,4.7c-3.7,0.1-5.9-1.8-5.9-4.9
		C192.8,282.2,194.8,280.7,198.4,280.7z"/>
	<path class="st9" d="M109.3,271.9c5,0,7.2,2.7,5.5,6.4c-1.2,2.7-3.7,2.4-6,2.4c-2.1,0-3.7-0.7-4.6-2.8c-0.8-2-0.2-3.5,1.2-5
		C106.6,271.6,108,272,109.3,271.9z"/>
	<path class="st10" d="M125.4,277.7c3.6,0,5.8,1.6,5.7,4.3c-0.1,2.9-2.3,4.5-6,4.5c-3.3,0-5.4-1.7-5.5-4.3
		C119.5,279.3,121.7,277.7,125.4,277.7z"/>
	<path class="st8" d="M142.4,161.7c0.4-3.3,1.8-6.5,1.2-10c2-5.1,2.5-10.5,4-15.7c1.7-5.8,3.3-11.5,5.4-17.2
		c9.8,1.3,19.6,2.6,29.4,4c0.7,0.1,1.3,0.1,2,0.2c1.2,1.4,0.4,3,0.2,4.4c-0.6,4.5-1.3,9-1.9,13.6c-0.6,4,0.4,6.3,3,6.6
		c2.3,0.3,3.8-1.5,4.3-5.5c0.7-4.6,1.3-9.2,2-13.8c0.2-1.4,0.2-2.9,1.5-4c4.7,0.8,9.3,1.5,14,2.3c1.2,4.6,0.3,9.3,0.6,13.9
		c-0.1,0.1-0.1,0.2-0.2,0.2c-1.8,0.5-4.1-0.4-5.2,1.7c-1.3,2.4-1.4,5.2-1.4,7.9c0,2.1,1.5,3,3.5,3.2c0.9,0.1,1.9-0.6,2.7,0.3
		c-0.1,5.6-0.6,11.2-1.8,16.8c-1,0.9-2.2,0.7-3.3,0.5c-18.8-2.7-37.7-5.2-56.5-8C144.6,162.9,143.4,162.7,142.4,161.7z"/>
	<path class="st6" d="M193.5,124.3c-1,6.7-2,13.5-3,20.2c-0.4,2.6-2.6,4.5-4.7,4.2c-2.6-0.3-4.4-2.2-4.1-5.1
		c0.8-6.8,1.8-13.7,2.7-20.5c1.3-9.1,2.5-18.1,3.8-27.2c0.3-2.2,0.8-4.3,3.3-5c3.7-1.1,6.4,1.8,5.8,6
		C196,105.9,194.7,115.1,193.5,124.3z"/>
	<path class="st11" d="M142.4,161.7c10.4,1.5,20.9,3,31.3,4.5c10.6,1.5,21.3,2.9,31.9,4.3c1,0.1,2.1-0.3,2.9,0.6
		c-1.9-0.3-2.8,0.3-3.2,2.5c-1.5,10.3-4.4,20.4-6.9,30.4c-15.1-2.1-30.3-4.2-45.5-6.3c-4.1-0.6-8.2-1.5-12.5-1.5
		C140.2,184.7,141.3,173.2,142.4,161.7z"/>
	<path class="st3" d="M207.5,153.7c-5,1.6-7.7-0.7-7-5.9c0.1-0.9,0.3-1.7,0.4-2.6c0.6-4.7,2.5-6,7.1-4.8c0.2,0.2,0.4,0.5,0.6,0.7
		c0.2,4,0.7,7.9-0.6,11.8C207.9,153.2,207.7,153.5,207.5,153.7z"/>
	<path class="st12" d="M208.1,153c0.2-3.9-0.8-7.9,0.6-11.8C210.9,143.8,210.6,149.6,208.1,153z"/>
	<path class="st13" d="M111.7,105c-6.6-1.1-12.2-7-13.3-13.8c-1.2-7.5,2.2-14.5,8.7-17.9c4.1-1.4,7,1.3,9.5,3.6
		c7.3,6.6,7.3,19.3,0.2,26.2C115.5,104.4,113.9,105.6,111.7,105z"/>
	<path class="st14" d="M111.7,105c4.2-0.9,8.8-6.2,9.4-11.5c1.1-8.6-1.7-15.7-10.1-19.6c-1.3-0.6-2.6-0.7-3.9-0.8
		c9.9-6.5,24.5,0.5,25.8,12.3c1.4,12.1-7.9,21.4-19.9,19.9C112.6,105.4,112.2,105.1,111.7,105z"/>
	<path class="st15" d="M171.6,139.9c-0.3,1.7-0.5,3.8-1,5.8c-0.7,2.6-2.6,3.5-5.2,3.2c-2.2-0.3-3.9-2.5-3.6-4.9
		c0.2-1.9,0.5-3.9,0.9-5.8c0.6-2.7,2.6-4.1,5.1-3.6C170.3,135,171.8,137,171.6,139.9z"/>
</g>
</svg>
