<?xml version="1.0" encoding="utf-8"?>
<!-- Generator: Adobe Illustrator 23.0.0, SVG Export Plug-In . SVG Version: 6.00 Build 0)  -->
<svg version="1.1" id="Layer_1" xmlns="http://www.w3.org/2000/svg" xmlns:xlink="http://www.w3.org/1999/xlink" x="0px" y="0px"
	 width="300px" height="300px" viewBox="0 0 300 300" style="enable-background:new 0 0 300 300;" xml:space="preserve">
<style type="text/css">
	.st0{fill:#688A95;}
	.st1{fill:#E6B367;}
	.st2{fill:#F8F9FA;}
	.st3{fill:#9FB5BC;}
	.st4{fill:#F8C26E;}
	.st5{fill:#D6A75F;}
	.st6{fill:#49CA8A;}
	.st7{fill:#13B666;}
	.st8{fill:#C1CFD9;}
	.st9{fill:#C79A58;}
</style>
<g>
	<path class="st0" d="M285.3,279.5c3,0,6,0,8.9,0.1c3,0.1,5.1,1.4,5.8,4.5c0.4,3.7,0.1,7.4,0.2,11.1c0.4,3-1.1,4.6-3.8,5.4
		c-97.3,0-194.5,0-291.8,0c-2.7-0.8-4.2-2.4-3.8-5.4c0.1-3.7-0.2-7.4,0.2-11.1c0.7-3.1,2.8-4.5,5.9-4.5c3-0.1,6,0,9-0.1
		c0.9-0.9,2.1-0.9,3.3-0.9c12.4,0,24.7-0.2,37.1,0.1c14.5-0.2,28.9-0.1,43.4,0c5.3-0.2,10.5-0.1,15.8-0.1c27.5,0,55,0,82.5,0
		c1.2,0,2.3,0,3.5,0.1c7.6-0.1,15.2-0.1,22.8,0c6.9-0.2,13.8,0.2,20.7-0.2c8.2,0.4,16.4,0,24.6,0.2c4.2-0.1,8.3-0.1,12.5,0
		C283.2,278.6,284.4,278.5,285.3,279.5z"/>
	<path class="st1" d="M152.3,0.6c3.8,4.4,5.2,9.7,5.8,15.3c0.2,2.5,0.1,5,0.1,7.5c-0.6,0.7-1.5,0.8-2.4,0.9c-3.5,0.1-7,0.1-10.4,0
		c-0.9,0-1.7-0.2-2.4-0.9c-0.4-6.6,0.2-13.1,3.3-19.2c0.7-1.4,1.4-2.7,2.6-3.7C150,0.6,151.2,0.6,152.3,0.6z"/>
	<path class="st2" d="M1.1,296c0.2,2.3,2.2,3.2,3.6,4.6c-4.1,0-4.1,0-4.1-4.7C0.8,295.6,1,295.7,1.1,296z"/>
	<path class="st2" d="M296.5,300.6c1.4-1.4,3.4-2.2,3.6-4.6c0.1-0.4,0.2-0.4,0.5-0.1c0,0.2,0,0.4,0,0.6
		C300.6,300.6,300.6,300.6,296.5,300.6z"/>
	<path class="st3" d="M1.1,296c-0.2,0-0.3,0-0.5-0.1c0-3.9,0-7.8,0-11.7c0.1-0.1,0.3-0.2,0.5-0.1C1.1,288,1.1,292,1.1,296z"/>
	<path class="st3" d="M300.6,295.9c-0.1,0.1-0.3,0.1-0.5,0.1c0-4,0-8,0-12c0.2,0,0.3,0,0.5,0.1C300.6,288.1,300.6,292,300.6,295.9z"
		/>
	<path class="st4" d="M224.4,279.4c-7.6,0-15.2,0-22.8,0c-1.1-1-1.2-2.4-1.4-3.7c-4.5-20.7-20.5-36.5-41.2-40.2
		c-14.9-2.6-28.2,1.3-39.9,10.8c-9.7,7.9-15.5,18.1-18.1,30.2c-0.2,1.1-0.4,2.1-1.3,2.9c-14.5,0-29,0-43.4,0.1
		c-0.2-0.2-0.3-0.5-0.3-0.8c0.9-2.3,2.7-4,4.1-6c4.6-6.6,9-13.2,13.3-20c0.5-0.7,0.9-1.5,1.8-1.8c5.1-7.4,9.2-15.3,13.4-23.2
		c1.7-3.2,3.7-6.2,4.6-9.7c0.9-1,2.1-1,3.3-1c29.5,0,58.9-0.1,88.4,0c0.2,0,0.4,0,0.6,0.1c0.3,0,0.7,0.1,1,0.2
		c1.4,0.6,1.8,2,2.4,3.2c7.4,14.4,15.6,28.4,24.5,41.9c3.1,4.6,6.3,9.1,9.6,13.7C223.5,277.1,224.6,277.9,224.4,279.4z"/>
	<path class="st1" d="M161.7,38.1c-2.3,0.3-2.6,1.7-2.4,3.7c1.6,15.3,3.5,30.5,6.2,45.6c2.3,12.7,5.2,25.3,8.1,37.9
		c-0.6,0.8-1.5,0.9-2.3,0.9c-5.9,0-11.8,0.4-17.6-0.2c-0.4-0.1-0.7-0.3-1-0.5c-1-0.9-1.2-2.2-1.6-3.4c-4.2-16.9-7.8-33.9-9.5-51.2
		c-0.8-8.7-0.7-17.3,0.1-25.9c0-1.1-0.1-2.3,0.1-3.4c0.3-2-0.3-3.2-2.4-3.5c0.7-0.7,1.5-0.8,2.4-0.7c5.8,0.5,11.6,0.5,17.5,0
		C160.2,37.3,161.1,37.4,161.7,38.1z"/>
	<path class="st4" d="M101.9,200.4c6.6-15.8,12.8-31.7,17.9-48c1.1-3.5,2.1-7.1,3.2-10.6c0.5-0.6,1.1-0.8,1.8-0.8
		c7.6-0.1,15.2-0.5,22.8,0.2c1.6,0.8,1,2.2,0.7,3.3c-3.2,14.2-6.7,28.4-11.1,42.3c-1.3,4.3-2.2,8.7-4.3,12.7
		c-0.4,0.6-0.9,1.1-1.6,1.4c-3.5,0.7-7,0.3-10.4,0.3c-5,0.1-10.1,0-15.1,0C104.4,201.3,103,201.5,101.9,200.4z"/>
	<path class="st5" d="M101.9,200.4c10,0,19.9,0,29.9,0.1c1.4-0.4,2.9-0.3,4.3-0.3c11,0,21.9,0,32.9,0c3,0.1,6-0.2,9,0.2
		c1.1,0.3,1.8,1.2,2.2,2.2c1.7,4.2,4,8.2,5.8,12.4c0.4,0.9,1.1,1.9,0.3,3c-31.1,0-62.1,0-93.2,0.1c-2.9,0-4.2-1.7-4.4-4.4
		c-0.1-2.7-0.2-5.5-0.1-8.2c0.2-3.3,1.6-4.7,5-4.8C96.4,200.4,99.2,200.4,101.9,200.4z"/>
	<path class="st6" d="M56.2,278.9c0,0.2,0,0.4,0,0.6c-13.4,0-26.9,0-40.3,0c-4.2-5.2-6.5-10.8-4.8-17.6c2.3-9.5,11.6-15.4,21.2-13.6
		c0.9,0.2,1.9,0.6,2.8,0C47.5,254.8,53.8,265.5,56.2,278.9z"/>
	<path class="st7" d="M56.2,278.9c-1.8-4.2-2.7-8.7-4.8-12.8c-3.4-6.6-7.9-12.2-14.5-15.9c-0.8-0.4-1.5-1-1.8-1.8
		c9.4-14.9,31.3-13.6,40.1,2.5C69.5,260.6,63.1,269.9,56.2,278.9z"/>
	<path class="st4" d="M141.7,45c0,2.6,0.1,5.3,0,7.9c-0.1,16.6,2.1,32.8,5.5,49c1.7,7.9,3.3,15.7,5.6,23.5c-0.9,1-2.1,0.9-3.3,1
		c-6.2,0-12.5,0.1-18.7,0c-1.2,0-2.4,0-3.3-1c2.1-9.3,4.2-18.6,6.2-27.9c3.1-14.9,5.3-29.9,6.9-45C141,50,140.8,47.4,141.7,45z"/>
	<path class="st5" d="M127.7,125.4c8.4,0,16.8,0,25.3,0c0,0,0,0.1,0,0.1c1.1,1.1,1.3,2.6,1.6,4c1,4.1,2.5,8,3.2,12.1
		c-0.1,0.3-0.3,0.6-0.6,0.7c-1.5,0.5-3,0.3-4.5,0.4c-1.6,0-3.2,0.3-4.5-0.8c-8.4,0-16.8,0-25.2,0c-5.2-0.4-6-1.2-6-6.4
		c0-1.8,0-3.5,0-5.3c0.1-3,1.5-4.4,4.5-4.6C123.6,125.4,125.6,125.4,127.7,125.4z"/>
	<path class="st8" d="M33.6,136.5c2.5,0,4.9,0.6,6.9,2.1c1.5,1.1,2.5,0.9,4.1,0c7.5-4.7,17.8-0.7,20.2,7.9c0.7,2.4-0.1,4.2-2.2,5.4
		c-2.1,1.1-4,0.6-5.4-1.2c-0.5-0.7-0.9-1.5-1.4-2.2c-1.9-3.2-5.5-3.6-8-0.8c-3.2,3.5-6.9,3.6-10.3,0.2c-3.4-3.3-6.5-2.8-8.7,1.6
		c-1.3,2.5-3.8,3.6-6,2.5c-2.5-1.1-3.3-3.6-2.2-6.4C22.7,140.1,27.9,136.5,33.6,136.5z"/>
	<path class="st9" d="M161.7,38.1c-7.4,0.8-14.9,0.8-22.3,0c-5.4-2.5-2.4-7.3-2.7-11.1c-0.3-2.7,2.4-3.4,4.8-3.4
		c0.5,0,1-0.1,1.4-0.2c5.1,0,10.1,0,15.2,0c1.1,0.1,2.1,0.2,3.2,0.4c0.6,0.1,1.2,0.2,1.6,0.6c3.2,2.9,1.3,6.8,1.6,10.2
		C164.8,36.4,163.7,37.8,161.7,38.1z"/>
	<path class="st1" d="M224.4,279.4c-9.4-12.3-17.8-25.3-25.5-38.7c-4.2-7.4-8.7-14.8-12-22.7c0.8-0.9,1.9-0.9,2.9-1
		c5.1-0.1,10.2-0.1,15.4,0c1.1,0,2.1,0.1,2.9,1c0,0.3,0,0.6,0.1,0.9c5.5,10.9,11.2,21.7,17.9,31.9c1.8,1.2,2.6,3.1,3.7,4.8
		c4.3,6.9,8.9,13.6,13.8,20.2c0.7,1,1.8,1.9,1.6,3.3c-2.3,1-4.8,0.4-7.1,0.4C233.5,279.6,228.9,279.4,224.4,279.4z"/>
	<path class="st1" d="M178.7,201c-3.1,0-6.3,0-9.4,0c0-1.3,1.1-1.2,1.9-1.3c1.1-0.2,2.1-0.1,3.2-0.1c2,0.1,2.7-0.5,1.8-2.6
		c-6.2-14.3-11.5-29-16.3-43.8c-0.9-2.7-1.6-5.4-2.5-8.1c-0.4-1.1-0.8-2.3,0.2-3.3l0-0.1c0.8-0.9,1.9-0.9,3-0.9
		c4.9-0.1,9.8-0.1,14.8,0c1.1,0,2.1,0.1,2.9,1c5.7,19.2,12.3,38,20.3,56.3c0.3,0.7,0.5,1.5,0.8,2.2c-0.5,0.6-1.1,0.8-1.8,0.8
		C191.3,201.3,185,201.7,178.7,201z"/>
	<path class="st7" d="M285.3,279.5c-5.2,0-10.5,0-15.7,0c-1.5-2.1-0.7-4.5-0.8-6.8c-0.1-4.7-1.7-8.7-5-12.1
		c-4.1-4.2-9.1-5.6-14.7-4.9c-2.7,0.4-4.5-0.2-6.3-2.4c-2.6-3.3-6.1-5.4-10-6.8c-0.9-0.3-2.6-0.2-1.9-2.1
		c10.3-9.6,25.4-8.5,34.3,2.5c1,1.2,1.7,1.8,3.4,1.4c7.8-1.6,15.3,1.6,19.4,8.2c4.1,6.6,3.6,14.8-1.2,21.1
		C286.3,278.2,285.8,278.8,285.3,279.5z"/>
	<path class="st6" d="M230.9,244.4c0.1,0.9,0.7,1,1.4,1.2c5,1.5,9.2,4.2,12.2,8.5c0.8,1.1,1.6,1.2,3,1c11.8-2,20,4.9,21.8,14.2
		c0.6,3.3,0.3,6.8,0.3,10.2c-7.4,0-14.8,0.1-22.2,0c-0.8,0-1.5-0.3-2.3-0.4c-6.8-9.1-13.3-18.4-19-28.3
		C227.4,248.4,228.9,246.2,230.9,244.4z"/>
	<path class="st9" d="M178.7,201c0.9-0.9,2-0.5,3-0.6c5.9-0.1,11.7-0.1,17.6-0.1c2.7,0,5.5,0,8.2,0.1c3.4,0.1,5,1.6,5.1,5
		c0.1,2.6,0.1,5.3,0,7.9c-0.1,2.8-1.4,4.6-4.5,4.7c-7.1,0-14.2,0-21.2,0c-0.2,0-0.4,0-0.6-0.1C184.4,212,181.1,206.7,178.7,201z"/>
	<path class="st9" d="M178.2,141.9c-6.9,0-13.8-0.1-20.6-0.1c-2.1-5.3-3.5-10.8-4.7-16.4c6.9,0,13.8-0.1,20.6-0.1
		c1.9,0,3.9,0.1,5.8,0.1c3.2,0.1,4.8,1.6,5,4.8c0.1,1.6,0,3.3,0,5C184.4,140.4,183.3,141.5,178.2,141.9z"/>
	<path class="st8" d="M242.4,42.2c2.2-0.2,4.5,0.3,6.4,1.8c1.8,1.4,3.1,0.6,4.7-0.2c7.7-3.9,17-0.3,19.6,7.7c0.9,2.6,0,4.8-2.5,6
		c-2,1-4.2,0.1-5.6-2.2c-0.4-0.6-0.6-1.3-0.9-1.8c-1.9-2.8-4.9-3.1-7.5-0.9c-4.9,4.4-6.6,4.4-11.3,0c-2.9-2.7-5.9-2-7.8,1.6
		c-1.6,3-3.6,4.2-5.9,3.4c-2.8-1-3.8-3.9-2.5-7C231.2,45.4,236.2,42.1,242.4,42.2z"/>
	<path class="st4" d="M132.4,199.2c0.2,1.7,1.5,1.2,2.4,1.2c10.5,0,21.1,0,31.6,0.1c2.4,0,2.5-0.8,1.8-2.7
		c-4.4-13-8.1-26.2-11.4-39.5c-1.4-5.5-2.6-11-3.8-16.5c1.5,0,3.1,0,4.6,0.1c0.2,3.4,1.6,6.4,2.6,9.5c5.1,15.8,10.5,31.5,17.4,46.7
		c0.9,2,0.1,2.3-1.7,2.4c-2.2,0.1-4.5-0.7-6.6,0.5c-11.6,0-23.2,0-34.8,0c-0.9,0-2,0.3-2.8-0.5C131.8,200,131.9,199.5,132.4,199.2z"
		/>
</g>
</svg>
