<svg xmlns="http://www.w3.org/2000/svg" width="183" height="183" viewBox="0 0 183 183">
  <defs>
    <style>
      .cls-1 {
        fill: #5143d9;
      }

      .cls-1, .cls-2 {
        fill-rule: evenodd;
      }

      .cls-2 {
        fill: #fff;
      }
    </style>
  </defs>
  <path class="cls-1" d="M183,91.5A91.5,91.5,0,1,1,91.5,0,91.5,91.5,0,0,1,183,91.5Z"/>
  <path class="cls-2" d="M150.286,91.6l2.191-2.195a1.655,1.655,0,1,0-2.339-2.343l-0.181.181-0.7-9.327,2.2-2.206a1.655,1.655,0,1,0-2.339-2.343l-0.192.192-0.833-11.044c6.042-5.71,10.829-10.255,11.912-11.34,4.282-4.29,2.932-10.791,2.273-11.45S155.129,37.713,150.846,42c-1.082,1.085-5.619,5.88-11.319,11.933L128.5,53.1l0.192-.192a1.655,1.655,0,0,0-2.339-2.343l-2.2,2.206-9.31-.7,0.181-.181a1.655,1.655,0,0,0-2.339-2.343l-2.191,2.195L96.1,50.649l-3.228,3.234,26.286,7.59,7.539,6.113c-6.748,8.076-17.355,20.286-17.355,20.286L95.079,86.188,92.9,88.366,103.182,94.7a2.384,2.384,0,0,0-.725,2.31c-1.976,1.98-1.12,3.762-1.12,3.762s1.779,0.858,3.755-1.122a2.374,2.374,0,0,0,2.306-.726l6.325,10.3,2.174-2.178-1.68-14.289s12.188-10.625,20.25-17.385l6.1,7.552,7.576,26.333,3.229-3.234ZM71.053,124.979c-4.932,3.458-9.955,6.758-15.072,9.839a170.766,170.766,0,0,1-15.63,8.419c-2.647,1.238-5.316,2.37-7.983,3.348a56.035,56.035,0,0,1-7.9,2.309,26.284,26.284,0,0,1-3.685.5,12.122,12.122,0,0,1-3.016-.149,4.515,4.515,0,0,1-.944-0.307,0.834,0.834,0,0,1-.355-0.3,0.1,0.1,0,0,1,.086-0.129,0.131,0.131,0,0,0,.114-0.125c0.025-.158-0.024-0.7.057-1.49,0.031-.31.082-0.658,0.145-1.022A78.921,78.921,0,0,1,6.25,123.661c-0.943,2.294-1.821,4.648-2.611,7.085a56.871,56.871,0,0,0-2.406,10.529,31.557,31.557,0,0,0-.151,6.2,21.624,21.624,0,0,0,.579,3.533,17.13,17.13,0,0,0,1.42,3.8,14.773,14.773,0,0,0,6.237,6.345,16.255,16.255,0,0,0,3.841,1.407,19.691,19.691,0,0,0,3.531.437,26.18,26.18,0,0,0,6.038-.581,39.673,39.673,0,0,0,5.178-1.467A67.877,67.877,0,0,0,37,156.877c2.853-1.521,5.578-3.157,8.222-4.871A179.48,179.48,0,0,0,60.29,140.982c4.8-3.881,9.427-7.931,13.913-12.1a349.407,349.407,0,0,0,25.375-26.344A346.737,346.737,0,0,1,71.053,124.979Z"/>
</svg>
