<svg xmlns="http://www.w3.org/2000/svg" width="340" height="121" viewBox="0 0 340 121">
  <defs>
    <style>
      .cls-1 {
        fill: #5143d9;
      }

      .cls-1, .cls-2, .cls-3 {
        fill-rule: evenodd;
      }

      .cls-2 {
        fill: #fff;
      }

      .cls-3 {
        fill: #fffefe;
      }
    </style>
  </defs>
  <path class="cls-1" d="M120.5,65.5A60.5,60.5,0,1,1,60,5,60.5,60.5,0,0,1,120.5,65.5Z" transform="translate(0 -5)"/>
  <path class="cls-2" d="M89.959,66.634L91.286,65.3a1,1,0,0,0-1.417-1.424l-0.11.11L89.335,58.32l1.333-1.34a1,1,0,0,0-1.417-1.423h0l-0.116.117-0.5-6.71c3.661-3.469,6.561-6.23,7.217-6.89,2.594-2.606,1.776-6.556,1.377-6.957S92.894,33.894,90.3,36.5c-0.656.659-3.405,3.572-6.859,7.25l-6.682-.507,0.116-.117A1,1,0,0,0,75.458,41.7h0l-1.333,1.34-5.641-.425,0.11-.11a1,1,0,0,0-1.417-1.424h0l-1.328,1.334-8.721-.664-1.956,1.965L71.1,48.33l4.568,3.714c-4.088,4.907-10.515,12.325-10.515,12.325L56.51,63.347l-1.32,1.323,6.23,3.848a1.451,1.451,0,0,0-.439,1.4,2.062,2.062,0,0,0-.679,2.286,2.04,2.04,0,0,0,2.276-.682,1.434,1.434,0,0,0,1.394-.441L67.8,77.342l1.317-1.323L68.1,67.337s7.385-6.455,12.269-10.563l3.7,4.588,4.59,16L90.614,75.4ZM41.953,86.914c-2.988,2.1-6.032,4.106-9.132,5.978a103.393,103.393,0,0,1-9.47,5.115c-1.6.752-3.221,1.44-4.837,2.034a33.788,33.788,0,0,1-4.786,1.4,15.981,15.981,0,0,1-2.232.3,7.313,7.313,0,0,1-1.827-.091,2.739,2.739,0,0,1-.572-0.186,0.506,0.506,0,0,1-.215-0.183,0.061,0.061,0,0,1,.04-0.076l0.012,0A0.079,0.079,0,0,0,9,101.134c0.015-.1-0.015-0.425.034-0.905,0.019-.189.05-0.4,0.088-0.621A48.008,48.008,0,0,1,2.69,86.113c-0.571,1.394-1.1,2.824-1.582,4.3a34.64,34.64,0,0,0-1.458,6.4,19.239,19.239,0,0,0-.091,3.767,13.146,13.146,0,0,0,.351,2.146,10.431,10.431,0,0,0,.86,2.309,8.963,8.963,0,0,0,3.779,3.855,9.85,9.85,0,0,0,2.327.855,11.851,11.851,0,0,0,2.139.265,15.781,15.781,0,0,0,3.658-.353,23.891,23.891,0,0,0,3.137-.891,41.035,41.035,0,0,0,5.51-2.474c1.729-.924,3.38-1.918,4.982-2.959a108.922,108.922,0,0,0,9.129-6.7c2.908-2.358,5.712-4.818,8.43-7.352A212.12,212.12,0,0,0,59.236,73.28,210.174,210.174,0,0,1,41.953,86.914Z" transform="translate(0 -5)"/>
  <path class="cls-2" d="M146.112,111.983a9.27,9.27,0,0,0,6.492-2.1,6.908,6.908,0,0,0,2.291-5.325,6.641,6.641,0,0,0-1.489-4.294,6.355,6.355,0,0,0-3.781-2.313,6.741,6.741,0,0,0,3.3-2.079,5.969,5.969,0,0,0,1.356-4.1,6.447,6.447,0,0,0-2.2-5.033q-2.2-1.963-6.358-1.963H135v27.207h11.112Zm-6.224-23.2h5.04a4.708,4.708,0,0,1,3.265.991,3.942,3.942,0,0,1-.019,5.461,4.658,4.658,0,0,1-3.169.972h-5.117V88.78Zm0,11.154h5.384a5.025,5.025,0,0,1,3.4,1.088,3.75,3.75,0,0,1,1.26,2.993,3.606,3.606,0,0,1-1.2,2.9,5.043,5.043,0,0,1-3.38,1.03h-5.46V99.934Zm33.184,11.232a9.3,9.3,0,0,0,3.494-3.556,11.481,11.481,0,0,0,0-10.532,9.354,9.354,0,0,0-3.475-3.556,10.1,10.1,0,0,0-9.852,0,9.464,9.464,0,0,0-3.494,3.556,10.431,10.431,0,0,0-1.3,5.266,10.551,10.551,0,0,0,1.28,5.266,9.31,9.31,0,0,0,3.475,3.556A10.133,10.133,0,0,0,173.072,111.166Zm-8.229-4.489a7.432,7.432,0,0,1,0-8.667,4.491,4.491,0,0,1,6.428-.2c0.067,0.065.133,0.132,0.2,0.2a7.351,7.351,0,0,1,0,8.667,4.482,4.482,0,0,1-3.322,1.458,4.417,4.417,0,0,1-3.3-1.458h0Zm31.446,4.489a9.3,9.3,0,0,0,3.494-3.556,11.481,11.481,0,0,0,0-10.532,9.337,9.337,0,0,0-3.475-3.556,10.1,10.1,0,0,0-9.852,0,9.474,9.474,0,0,0-3.494,3.556,10.43,10.43,0,0,0-1.3,5.266,10.54,10.54,0,0,0,1.279,5.266,9.324,9.324,0,0,0,3.475,3.556A10.133,10.133,0,0,0,196.289,111.166Zm-8.229-4.489a7.432,7.432,0,0,1,0-8.667,4.491,4.491,0,0,1,6.428-.2c0.068,0.065.133,0.132,0.2,0.2a7.351,7.351,0,0,1,0,8.667,4.481,4.481,0,0,1-3.322,1.458,4.417,4.417,0,0,1-3.3-1.458h0Zm22.32,5.306v-9.678l7.675,9.678h6.11l-9.012-10.494,7.752-8.784h-5.8l-6.721,7.812V84h-4.888v27.984h4.888ZM232.089,88.9a2.721,2.721,0,0,0,.859-2.06,2.663,2.663,0,0,0-.859-2.04,3.425,3.425,0,0,0-4.392,0,2.663,2.663,0,0,0-.859,2.04,2.721,2.721,0,0,0,.859,2.06,3.362,3.362,0,0,0,4.39,0h0Zm0.248,23.087V92.705h-4.888v19.278h4.888Zm10.081,0v-9.95a5.976,5.976,0,0,1,1.317-4.12,4.327,4.327,0,0,1,3.38-1.477,3.618,3.618,0,0,1,3.093,1.321,6.257,6.257,0,0,1,.993,3.809v10.416h4.888V101.1q0-4.353-1.948-6.607a6.828,6.828,0,0,0-5.46-2.254,7.389,7.389,0,0,0-3.915,1.011,6.731,6.731,0,0,0-2.539,2.721l-0.382-3.265H237.53v19.278h4.888Zm30.53-6.685a6.559,6.559,0,0,0,2.654-2.527,7.32,7.32,0,0,0,.152-6.8L279,95.737V92.705h-7.179a9.207,9.207,0,0,0-2.978-.466,8.612,8.612,0,0,0-4.162.933,6.723,6.723,0,0,0-3.59,6.063,6.524,6.524,0,0,0,2.215,5.091l-3.322,3.576V108.8a6.954,6.954,0,0,0,.973.816,8.313,8.313,0,0,0,1.318.738,5.572,5.572,0,0,0-2.482,4.509,5.061,5.061,0,0,0,2.482,4.605,12.28,12.28,0,0,0,6.53,1.536,10.947,10.947,0,0,0,4.888-.953,6.6,6.6,0,0,0,2.825-2.487,6.233,6.233,0,0,0,.917-3.245,5.094,5.094,0,0,0-1.719-4.081,9.79,9.79,0,0,0-5.5-1.827,36.02,36.02,0,0,1-3.59-.466,6.69,6.69,0,0,1-1.756-.583l1.412-1.438a10.045,10.045,0,0,0,2.559.31,8.559,8.559,0,0,0,4.1-.932h0Zm-6.626-3.693a3.325,3.325,0,0,1-.019-4.644l0.019-.019a3.744,3.744,0,0,1,2.521-.816,3.7,3.7,0,0,1,2.463.816,3.28,3.28,0,0,1,.082,4.58c-0.027.029-.054,0.057-0.082,0.084a3.706,3.706,0,0,1-2.463.817,3.745,3.745,0,0,1-2.52-.817h0Zm-1.584,11.233a4.383,4.383,0,0,1,1.584-1.361q1.337,0.234,2.9.35a5.018,5.018,0,0,1,2.96.855,2.3,2.3,0,0,1,.745,1.749,2.338,2.338,0,0,1-1.146,2.041,5.317,5.317,0,0,1-2.979.758,6.671,6.671,0,0,1-3.226-.719,2.32,2.32,0,0,1-1.318-2.158,2.757,2.757,0,0,1,.476-1.515h0Z" transform="translate(0 -5)"/>
  <path id="Hotel" class="cls-3" d="M171.01,13.477V37.235H146.491V13.477h-11.48V71.257h11.48V46.672H171.01V71.257h11.48V13.477H171.01ZM213.979,72a24.614,24.614,0,0,0,12.014-2.939,21.958,21.958,0,0,0,8.528-8.319,24.083,24.083,0,0,0,3.157-12.417A24.587,24.587,0,0,0,234.6,35.91a21.473,21.473,0,0,0-8.405-8.319,25.525,25.525,0,0,0-23.781,0,21.469,21.469,0,0,0-8.406,8.319,24.587,24.587,0,0,0-3.075,12.417,25.108,25.108,0,0,0,2.993,12.417,21.049,21.049,0,0,0,8.242,8.319A23.741,23.741,0,0,0,213.979,72h0Zm0-10.1a10.614,10.614,0,0,1-8.159-3.518q-3.24-3.517-3.239-10.058T205.9,38.27a10.875,10.875,0,0,1,8.241-3.518,11.137,11.137,0,0,1,8.323,3.518q3.4,3.519,3.4,10.058a15.6,15.6,0,0,1-1.641,7.45,11.084,11.084,0,0,1-4.387,4.594,11.848,11.848,0,0,1-5.863,1.531h0Zm55.679-26.986V25.4H259.489V14.056H247.927V25.4h-5.412v9.52h5.412v22.1q0,14.239,14.515,14.238h7.216V61.489h-5.33a5.4,5.4,0,0,1-3.732-1.035,4.409,4.409,0,0,1-1.107-3.353V34.917h10.169ZM320.17,47.334a24.36,24.36,0,0,0-2.829-11.879,19.727,19.727,0,0,0-7.954-7.988,25.588,25.588,0,0,0-23.494.083,20.133,20.133,0,0,0-8.036,8.278,26.163,26.163,0,0,0-2.87,12.5A25.681,25.681,0,0,0,277.9,60.744a20.573,20.573,0,0,0,8.118,8.319A23.513,23.513,0,0,0,297.783,72a21.879,21.879,0,0,0,13.695-4.263,20.887,20.887,0,0,0,7.544-10.886H306.64a9.365,9.365,0,0,1-9.1,5.546,10.559,10.559,0,0,1-7.462-2.815,11.445,11.445,0,0,1-3.444-7.781h33.211a27.682,27.682,0,0,0,.328-4.47h0Zm-33.457-3.311a11.5,11.5,0,0,1,3.567-7.243,10.36,10.36,0,0,1,7.175-2.608,11.275,11.275,0,0,1,7.627,2.69,9.231,9.231,0,0,1,3.2,7.16H286.713ZM328.534,10V71.257h11.48V10h-11.48Z" transform="translate(0 -5)"/>
</svg>
