<?xml version="1.0" encoding="utf-8"?>
<!-- Generator: Adobe Illustrator 23.0.0, SVG Export Plug-In . SVG Version: 6.00 Build 0)  -->
<svg version="1.1" id="Layer_1" xmlns="http://www.w3.org/2000/svg" xmlns:xlink="http://www.w3.org/1999/xlink" x="0px" y="0px"
	 width="297.8px" height="98.7px" viewBox="0 0 297.8 98.7" style="enable-background:new 0 0 297.8 98.7;" xml:space="preserve">
<style type="text/css">
	.st0{fill:#D6DBE1;}
	.st1{fill:#010101;}
	.st2{fill:#34353A;}
	.st3{fill:#0F0E14;}
	.st4{fill:#B71F25;}
	.st5{fill:#0B0E0E;}
	.st6{fill:#5555A5;}
	.st7{fill:#FFFFFF;}
	.st8{fill:none;}
	.st9{fill:#C5CAD0;}
	.st10{fill:#75B7E4;}
	.st11{fill:#060606;}
	.st12{fill:#273945;}
	.st13{fill:#3F5B71;}
	.st14{fill:#425376;}
	.st15{fill:#8D251C;}
	.st16{fill:#333333;}
	.st17{fill:#414141;}
	.st18{fill:#C7DDF2;}
	.st19{fill:#ABCAEB;}
	.st20{fill:#DBE8F7;}
</style>
<g>
	<g>
		<path class="st0" d="M201.4,9.2c0,0,4-3.2,5-3.4c1-0.2,1.8-0.4,1.8,0.3s-1.7,3.2-1.5,4.1C207,11.1,201.4,9.2,201.4,9.2z"/>
		<path class="st1" d="M258.2,76l-5.5,4.9l-8.5,0.6l-41.3-0.8L79.9,79.6l-3.3,1.1c0,0-5-0.1-7,0c-2,0.1-30.9,0.8-30.9,0.8
			s-6.1,0.3-7.9,1.6l-5.4-10.4l4.5-24.9c0,0,14.4-6.3,15.6-6.4c1.1-0.1,23.2-0.8,23.2-0.8l37.8,3.6l113.4-6.7l35.2,0.9L258.2,76z"/>
		<path class="st2" d="M286.2,66.3c0,0-0.8,2.2-0.7,2.7c0.1,0.6,1.6,1.5,1.6,2.5c0,1-1.6,4.1-3.3,4.3c0,0-0.5,2.7-2.4,2.7
			c-1.8,0-14,0.4-14,0.4S280.7,64.5,286.2,66.3z"/>
		<path class="st3" d="M82.1,32.9c0,0,6.4-5.7,12.7-8.6c6.3-2.9,28-14.8,36.2-16.1c8.2-1.3,6.1,6.4,6.1,6.6
			C137.1,15.1,84,45.2,82.1,32.9z"/>
		<path class="st4" d="M268.2,35.3h12.2l1,0.6c0,0,4.2,3.2,1,10.3C279.1,53.4,262.8,45.6,268.2,35.3z"/>
		<path class="st3" d="M209.8,11.6l5.7-0.2c0,0,27.7,6.6,45.2,15.7c17.4,9.1-10.5,5.2-10.5,5.2S207.3,16.5,209.8,11.6z"/>
		<path class="st5" d="M79.5,30.3c0,0,3.7-1.1,5.1,0c1.4,1.1,1,2.6,1,2.6L79.5,30.3z"/>
		<path class="st6" d="M30.9,83.1c0,0-26.4-1.9-26.7-6.7c0,0-0.2-1,1.2-1.7c0,0-0.9-15.4,1.2-20.1C8.8,49.8,8.6,44,19.5,40
			c10.8-4,36.7-8.8,60.7-9.7c0,0,5.8,2,8.9,1.9c0,0,34.4-20.8,42.8-21.3c0,0-2.3-1.6-1.8-2.3c0.6-0.7,20.6-4.2,45.8-2.6
			c25.3,1.6,39.6,5.3,39.6,5.3s-3.7,1.8-3.2,2.1c0.5,0.3,38.9,13,38.9,13s5.6,1.2,8.7-0.1c0,0,6.8,1.8,8.7,2
			c1.9,0.1,11.6-0.2,11.7,1c0.1,1.2-0.1,3.3,0.4,3.7c0.5,0.4,3.1,4.5,2.3,5.9l-1.6-3.1c0,0-13.5,0.7-13.7,2.3
			c-0.2,1.7,1.2,6.1,1.9,6.9c0.7,0.8,13.2,0.3,13.2,0.3s0.9,5.9,2,6.7c1.2,0.8,4.7,1.5,4.6,3.6c-0.1,2.1,0.2,10.9-3.3,11.5
			c0,0-4.1-0.5-6.8,2.7c-2.7,3.2-5.8,7.8-11.3,9.1c-5.6,1.3-15.4,2-15.4,2s2.5-31.8-23.9-32.5c-26.4-0.7-25.3,32.3-25.3,32.3H76.7
			c0,0,6.7-32.9-23.1-34.1C23.8,45.5,30.9,83.1,30.9,83.1z"/>
		<g>
			<path class="st7" d="M196.8,13.2c-9.6-2.3-41.3-5-56.4-1.8c-15.1,3.2-30.7,8.9-45.1,20.9l2.8-0.1c3.4-2.8,12-9,25.3-14.2
				c17.6-6.8,29.3-7.4,43.1-6.7c13.8,0.8,27.1,1.2,35.8,5.4C211,21,220.5,27.3,219.9,28c-0.6,0.6-39.3,2.3-48.7,2.7l47.9-1
				c0,0,3-0.1,3-1.4S206.5,15.5,196.8,13.2z"/>
			<path class="st8" d="M96.5,33.6l72.6-2.8c0,0,0.7,0,2.1-0.1l-73,1.5C97,33.1,96.5,33.6,96.5,33.6z"/>
			<path class="st1" d="M202.3,16.7c-8.7-4.2-22-4.6-35.8-5.4c-13.8-0.8-25.4-0.2-43.1,6.7c-13.3,5.2-21.9,11.5-25.3,14.2l73-1.5
				c9.4-0.4,48.2-2.1,48.7-2.7C220.5,27.3,211,21,202.3,16.7z"/>
		</g>
		<path class="st3" d="M112.6,29.8c0,0,17.4-11.9,31-14.2c13.6-2.3,29.4-1.1,29.4-1.1s-3.2,15.7-4.5,16.4
			c-1.3,0.7-58.8,1.1-58.8,1.1L112.6,29.8z"/>
		<path class="st3" d="M181.5,15.1l-2,14.2l30.7-1.1c0,0,3.2,0.1,3.2-1.1C213.4,26,199.2,14.1,181.5,15.1z"/>
		<g>
			<path class="st0" d="M117.9,28.8c0.1-0.5,0.1-1-0.1-1.6c-0.7-2.9-2.5-5.7-6.6-4.2c-4.2,1.4-4.8,3.7-5.3,5.9c0,0-2.3-0.6-2.4,0.4
				c-0.1,0.6,0.3,1.5,0.9,2.1C108.6,32,114.4,30.1,117.9,28.8z"/>
			<path class="st9" d="M104.3,31.3c0.4,0.4,0.9,0.7,1.3,0.8c1.1,0.2,3.2,0.6,3.9,0.3c0.7-0.3,4.3,0.1,5.4-0.2
				c0.9-0.2,2.6-1.5,2.9-3.4C114.4,30.1,108.6,32,104.3,31.3z"/>
		</g>
		<path class="st10" d="M13.2,45.5c0,0-3.2,1-4.6,5.7c-1.5,4.7,0.3,3.6,1,3.4c0.7-0.2,10.5-1.2,12-1.4c1.5-0.2,1.3-1.5,1.8-2.2
			c0.4-0.7,4.5-5.3,3.4-6.5C25.6,43.4,15,44.6,13.2,45.5z"/>
		<path class="st11" d="M6.3,64.4c0,0,0.1,7.1,0.8,8.1c0.6,1,2.1,2.1,4.4,2.4c2.3,0.3,6.6,0.6,7-2.3c0.4-3,1-8.6,1-8.6
			S6.1,63.7,6.3,64.4z"/>
		<path class="st11" d="M77.2,75.7l0-0.3c0.2,0,6.2-0.1,14.7-0.1C89.8,72,90,65.2,90,65c0-0.2-0.6-19.9,0.8-25.5
			c1.3-5.7,5.9-8.1,6-8.1c0.1-0.1,14.4-8.8,18.4-11c9.7-5.3,19.1-8.6,26.4-9.3c10.6-1,33.3-0.6,33.5-0.6c0.9,0.1,20.6,2,24.4,3.6
			c3.8,1.6,17.1,9.7,17.2,9.8c0.2,0.1,5,2.5,5.3,4.3c0,0.3,0,0.6-0.3,0.8c-1.2,1.1-4.5,1.1-8.8,1c-1.8,0-3.7,0-5.6,0
			c-5.9,0.2-32.8,0.8-35.1,0.9c0,0.4,0.1,1.6,0.8,2.6c0.1,0.2,0.3,0.4,0.4,0.6c0.9,1.2,2.1,2.7,1.9,5c0,0.5-0.1,1.3-0.2,2.6
			c-0.3,5.5-0.9,16.9-2.9,21.5c-2.5,5.8-3.9,8-7.1,9.6c-3.3,1.6-9.3,2.3-13.5,2.3C147.7,74.9,77.9,75.6,77.2,75.7z M163.8,10.7
			c-7.3,0-16.5,0.1-22.2,0.7c-7.3,0.7-16.6,4-26.3,9.2c-4.1,2.2-18.3,10.9-18.4,11c-0.1,0-4.5,2.4-5.8,7.9
			c-1.3,5.6-0.8,25.3-0.8,25.5c0,0.1-0.2,7.2,1.9,10.2c21-0.2,56.7-0.6,59.5-0.5c4.2,0.1,10.1-0.7,13.4-2.2c3.2-1.5,4.5-3.7,7-9.4
			c2-4.6,2.6-15.9,2.9-21.4c0.1-1.2,0.1-2.1,0.2-2.6c0.2-2.1-0.9-3.5-1.8-4.7c-0.1-0.2-0.3-0.4-0.4-0.6c-1-1.4-0.9-2.9-0.9-3l0-0.1
			l0.1,0c0.3,0,29.1-0.7,35.2-0.9c1.9-0.1,3.8,0,5.6,0c4,0.1,7.5,0.1,8.6-0.9c0.2-0.2,0.2-0.3,0.2-0.5c-0.2-1.3-3.8-3.4-5.1-4
			c-0.1-0.1-13.4-8.2-17.2-9.8c-3.8-1.6-24.1-3.5-24.3-3.6C175,10.8,170.1,10.7,163.8,10.7z"/>
		<g>
			<g>
				<path class="st12" d="M49.7,57.3l5.3,1.6c0.4,0.1,0.9-0.1,1-0.6l0,0c0.1-0.4-0.1-0.9-0.6-1l-5.3-1.6c-0.4-0.1-0.9,0.1-1,0.6l0,0
					C49,56.7,49.2,57.2,49.7,57.3z"/>
				<path class="st13" d="M55.4,58.9l-5.3,1.6c-0.4,0.1-0.9-0.1-1-0.6l0,0c-0.1-0.4,0.1-0.9,0.6-1l5.3-1.6c0.4-0.1,0.9,0.1,1,0.6v0
					C56.1,58.3,55.9,58.8,55.4,58.9z"/>
				<path class="st12" d="M49.7,54.1l5.3,1.6c0.4,0.1,0.9-0.1,1-0.6l0,0c0.1-0.4-0.1-0.9-0.6-1l-5.3-1.6c-0.4-0.1-0.9,0.1-1,0.6l0,0
					C49,53.5,49.2,53.9,49.7,54.1z"/>
				<path class="st13" d="M55.4,55.7l-5.3,1.6c-0.4,0.1-0.9-0.1-1-0.6l0,0c-0.1-0.4,0.1-0.9,0.6-1l5.3-1.6c0.4-0.1,0.9,0.1,1,0.6
					l0,0C56.1,55.1,55.9,55.5,55.4,55.7z"/>
				<path class="st12" d="M49.7,50.8l5.3,1.6c0.4,0.1,0.9-0.1,1-0.6l0,0c0.1-0.4-0.1-0.9-0.6-1l-5.3-1.6c-0.4-0.1-0.9,0.1-1,0.6l0,0
					C49,50.2,49.2,50.7,49.7,50.8z"/>
				<path class="st13" d="M55.4,52.4L50.2,54c-0.4,0.1-0.9-0.1-1-0.6l0,0c-0.1-0.4,0.1-0.9,0.6-1l5.3-1.6c0.4-0.1,0.9,0.1,1,0.6l0,0
					C56.1,51.8,55.9,52.3,55.4,52.4z"/>
				<path class="st12" d="M49.7,47.6l5.3,1.6c0.4,0.1,0.9-0.1,1-0.6l0,0c0.1-0.4-0.1-0.9-0.6-1L50.2,46c-0.4-0.1-0.9,0.1-1,0.6l0,0
					C49,47,49.2,47.4,49.7,47.6z"/>
				<path class="st13" d="M55.4,49.2l-5.3,1.6c-0.4,0.1-0.9-0.1-1-0.6l0,0c-0.1-0.4,0.1-0.9,0.6-1l5.3-1.6c0.4-0.1,0.9,0.1,1,0.6
					l0,0C56.1,48.6,55.9,49.1,55.4,49.2z"/>
			</g>
			<path class="st14" d="M52.6,59.7c-7.2,0-13,5.8-13,13c0,7.2,5.8,13,13,13c7.2,0,13-5.8,13-13C65.6,65.5,59.7,59.7,52.6,59.7z
				 M52.6,80.3c-4.2,0-7.6-3.4-7.6-7.6s3.4-7.6,7.6-7.6s7.6,3.4,7.6,7.6S56.7,80.3,52.6,80.3z"/>
			<path class="st15" d="M61.9,72.7c0,1.3-0.3,2.5-0.7,3.5c-0.3,0.7,0,1.5,0.7,1.9l2.3,1.1c0.7,0.4,1.7,0,2-0.7
				c0.8-1.8,1.2-3.8,1.2-5.8c0-2.1-0.4-4-1.2-5.8c-0.3-0.8-1.2-1.1-2-0.7l-2.3,1.1c-0.7,0.3-1,1.2-0.7,1.9
				C61.6,70.3,61.9,71.4,61.9,72.7z"/>
		</g>
		<g>
			<path class="st16" d="M52.9,50.4c-11.7,0-21.3,9.5-21.3,21.3s9.5,21.3,21.3,21.3s21.3-9.5,21.3-21.3S64.7,50.4,52.9,50.4z
				 M52.9,87.5c-8.7,0-15.8-7.1-15.8-15.8c0-8.7,7.1-15.8,15.8-15.8S68.7,63,68.7,71.7C68.7,80.4,61.7,87.5,52.9,87.5z"/>
			<path class="st17" d="M52.9,91.5c-11,0-19.9-8.9-19.9-19.9S42,51.8,52.9,51.8s19.9,8.9,19.9,19.9S63.9,91.5,52.9,91.5z
				 M52.9,54.9c-9.3,0-16.8,7.5-16.8,16.8c0,9.3,7.5,16.8,16.8,16.8s16.8-7.5,16.8-16.8C69.7,62.4,62.2,54.9,52.9,54.9z"/>
			<g>
				<path class="st18" d="M52.4,71.4l-5-0.1c-2.7-0.1-6.2-0.7-9.8-1.7c-0.1,0.6-0.1,1.2-0.1,1.8c3.7,1.1,7.2,1.6,9.9,1.7
					c-2.2,1.7-4.7,4.2-7.2,7.4c0.3,0.5,0.7,1,1.1,1.4c2.3-3,4.9-5.7,7.1-7.4L52.4,71.4z"/>
				<path class="st18" d="M54.6,76.6l-1.6-4.8l-1.6,4.8c-0.9,2.7-2.7,5.9-4.9,9.1c0.5,0.3,1.1,0.5,1.7,0.7c2.3-3.3,4-6.6,4.9-9.2
					c0.9,2.6,2.6,5.9,4.9,9.2c0.6-0.2,1.1-0.4,1.7-0.7C57.3,82.5,55.5,79.2,54.6,76.6z"/>
				<path class="st18" d="M68.2,69.6c-3.6,1-7.1,1.7-9.8,1.7l-5,0.1l4,3c2.2,1.7,4.8,4.3,7.1,7.4c0.4-0.5,0.8-0.9,1.1-1.4
					c-2.4-3.1-5-5.7-7.2-7.4c2.7-0.1,6.1-0.6,9.9-1.7C68.4,70.8,68.3,70.2,68.2,69.6z"/>
				<path class="st18" d="M49.6,66.6c-2.2-1.5-5.2-3.1-8.8-4.4c-0.4,0.5-0.7,1-1,1.5c3.5,1.3,6.6,2.8,8.8,4.4l4.2,2.9l-1.5-4.9
					c-0.8-2.5-1.3-5.9-1.4-9.5c-0.6,0.1-1.2,0.3-1.7,0.5C48.3,60.7,48.8,64.1,49.6,66.6z"/>
				<path class="st18" d="M56.5,66.5c0.7-2.5,1.3-5.7,1.4-9.4c-0.6-0.2-1.1-0.4-1.7-0.5c-0.1,3.6-0.6,6.8-1.4,9.4l-1.4,4.8l4.1-2.8
					c2.2-1.5,5.2-3,8.7-4.2c-0.3-0.5-0.7-1-1-1.5C61.6,63.5,58.6,65,56.5,66.5z"/>
			</g>
			
				<ellipse transform="matrix(0.1602 -0.9871 0.9871 0.1602 -26.3122 112.4487)" class="st18" cx="52.9" cy="71.7" rx="5.7" ry="5.7"/>
			
				<ellipse transform="matrix(0.1602 -0.9871 0.9871 0.1602 -26.3122 112.4487)" class="st19" cx="52.9" cy="71.7" rx="3.6" ry="3.6"/>
			<path class="st20" d="M52.9,55.7c-8.8,0-16,7.2-16,16s7.2,16,16,16s16-7.2,16-16S61.8,55.7,52.9,55.7z M52.9,86.7
				c-8.3,0-15-6.7-15-15c0-8.3,6.7-15,15-15c8.3,0,15,6.7,15,15C68,80,61.2,86.7,52.9,86.7z"/>
		</g>
		<g>
			<g>
				<path class="st12" d="M225.3,59.3l5.1,1.5c0.4,0.1,0.9-0.1,1-0.5l0,0c0.1-0.4-0.1-0.9-0.5-1l-5.1-1.5c-0.4-0.1-0.9,0.1-1,0.5
					l0,0C224.6,58.7,224.8,59.1,225.3,59.3z"/>
				<path class="st13" d="M230.8,60.8l-5.1,1.5c-0.4,0.1-0.9-0.1-1-0.5l0,0c-0.1-0.4,0.1-0.9,0.5-1l5.1-1.5c0.4-0.1,0.9,0.1,1,0.5v0
					C231.5,60.2,231.2,60.7,230.8,60.8z"/>
				<path class="st12" d="M225.3,56.1l5.1,1.5c0.4,0.1,0.9-0.1,1-0.5l0,0c0.1-0.4-0.1-0.9-0.5-1l-5.1-1.5c-0.4-0.1-0.9,0.1-1,0.5
					l0,0C224.6,55.6,224.8,56,225.3,56.1z"/>
				<path class="st13" d="M230.8,57.7l-5.1,1.5c-0.4,0.1-0.9-0.1-1-0.5l0,0c-0.1-0.4,0.1-0.9,0.5-1l5.1-1.5c0.4-0.1,0.9,0.1,1,0.5
					l0,0C231.5,57.1,231.2,57.6,230.8,57.7z"/>
				<path class="st12" d="M225.3,53l5.1,1.5c0.4,0.1,0.9-0.1,1-0.5l0,0c0.1-0.4-0.1-0.9-0.5-1l-5.1-1.5c-0.4-0.1-0.9,0.1-1,0.5l0,0
					C224.6,52.4,224.8,52.9,225.3,53z"/>
				<path class="st13" d="M230.8,54.6l-5.1,1.5c-0.4,0.1-0.9-0.1-1-0.5l0,0c-0.1-0.4,0.1-0.9,0.5-1l5.1-1.5c0.4-0.1,0.9,0.1,1,0.5
					l0,0C231.5,54,231.2,54.4,230.8,54.6z"/>
				<path class="st12" d="M225.3,49.9l5.1,1.5c0.4,0.1,0.9-0.1,1-0.5l0,0c0.1-0.4-0.1-0.9-0.5-1l-5.1-1.5c-0.4-0.1-0.9,0.1-1,0.5
					l0,0C224.6,49.3,224.8,49.8,225.3,49.9z"/>
				<path class="st13" d="M230.8,51.5l-5.1,1.5c-0.4,0.1-0.9-0.1-1-0.5l0,0c-0.1-0.4,0.1-0.9,0.5-1l5.1-1.5c0.4-0.1,0.9,0.1,1,0.5
					l0,0C231.5,50.9,231.2,51.3,230.8,51.5z"/>
			</g>
			<path class="st14" d="M228,61.6c-6.9,0-12.5,5.6-12.5,12.5c0,6.9,5.6,12.5,12.5,12.5c6.9,0,12.5-5.6,12.5-12.5
				C240.6,67.2,235,61.6,228,61.6z M228,81.4c-4,0-7.3-3.3-7.3-7.3c0-4,3.3-7.3,7.3-7.3s7.3,3.3,7.3,7.3
				C235.3,78.1,232.1,81.4,228,81.4z"/>
			<path class="st15" d="M237,74.1c0,1.2-0.2,2.4-0.7,3.4c-0.3,0.7,0,1.5,0.7,1.8l2.2,1.1c0.7,0.4,1.6,0,1.9-0.7
				c0.7-1.7,1.1-3.6,1.1-5.6c0-2-0.4-3.9-1.1-5.6c-0.3-0.7-1.2-1.1-1.9-0.7l-2.2,1.1c-0.7,0.3-1,1.1-0.7,1.8
				C236.8,71.7,237,72.9,237,74.1z"/>
		</g>
		<g>
			<path class="st16" d="M228.4,52.6c-11.3,0-20.5,9.2-20.5,20.4s9.2,20.4,20.5,20.4c11.3,0,20.5-9.2,20.5-20.4
				S239.7,52.6,228.4,52.6z M228.4,88.3c-8.4,0-15.2-6.8-15.2-15.2c0-8.4,6.8-15.2,15.2-15.2c8.4,0,15.2,6.8,15.2,15.2
				C243.6,81.5,236.8,88.3,228.4,88.3z"/>
			<path class="st17" d="M228.4,92.2c-10.5,0-19.1-8.6-19.1-19.1S217.9,54,228.4,54c10.5,0,19.1,8.6,19.1,19.1
				S238.9,92.2,228.4,92.2z M228.4,56.9c-8.9,0-16.2,7.2-16.2,16.2c0,8.9,7.2,16.2,16.2,16.2s16.2-7.2,16.2-16.2
				C244.5,64.2,237.3,56.9,228.4,56.9z"/>
			<g>
				<path class="st18" d="M227.9,72.9l-4.8-0.1c-2.6-0.1-6-0.6-9.4-1.6c-0.1,0.6-0.1,1.1-0.1,1.7c3.6,1,6.9,1.6,9.5,1.6
					c-2.1,1.6-4.5,4.1-6.9,7.1c0.3,0.5,0.7,0.9,1.1,1.4c2.2-2.9,4.7-5.5,6.8-7.1L227.9,72.9z"/>
				<path class="st18" d="M230,77.8l-1.6-4.6l-1.6,4.6c-0.9,2.6-2.6,5.7-4.7,8.8c0.5,0.2,1.1,0.5,1.6,0.6c2.2-3.2,3.8-6.3,4.7-8.9
					c0.9,2.5,2.5,5.7,4.7,8.9c0.5-0.2,1.1-0.4,1.6-0.6C232.6,83.5,230.9,80.4,230,77.8z"/>
				<path class="st18" d="M243.1,71.1c-3.4,1-6.8,1.6-9.4,1.6l-4.8,0.1l3.9,2.9c2.1,1.6,4.6,4.2,6.8,7.1c0.4-0.4,0.7-0.9,1.1-1.4
					c-2.3-3-4.8-5.5-6.9-7.1c2.6-0.1,5.9-0.6,9.5-1.6C243.2,72.3,243.2,71.7,243.1,71.1z"/>
				<path class="st18" d="M225.2,68.2c-2.1-1.5-5-3-8.5-4.3c-0.4,0.5-0.7,0.9-1,1.4c3.4,1.2,6.4,2.7,8.5,4.2l4,2.8l-1.4-4.7
					c-0.7-2.4-1.2-5.7-1.3-9.2c-0.6,0.1-1.1,0.3-1.7,0.4C223.9,62.6,224.4,65.8,225.2,68.2z"/>
				<path class="st18" d="M231.8,68.1c0.7-2.4,1.2-5.5,1.4-9c-0.5-0.2-1.1-0.3-1.7-0.5c-0.1,3.4-0.6,6.6-1.3,9l-1.4,4.6l3.9-2.7
					c2.1-1.5,5.1-2.9,8.3-4.1c-0.3-0.5-0.6-1-1-1.4C236.8,65.2,233.9,66.6,231.8,68.1z"/>
			</g>
			
				<ellipse transform="matrix(0.1602 -0.9871 0.9871 0.1602 119.6528 286.832)" class="st18" cx="228.4" cy="73.1" rx="5.5" ry="5.5"/>
			
				<ellipse transform="matrix(0.1602 -0.9871 0.9871 0.1602 119.6528 286.8321)" class="st19" cx="228.4" cy="73.1" rx="3.5" ry="3.5"/>
			<path class="st20" d="M228.4,57.7c-8.5,0-15.4,6.9-15.4,15.4s6.9,15.4,15.4,15.4c8.5,0,15.4-6.9,15.4-15.4S236.9,57.7,228.4,57.7
				z M228.4,87.6c-8,0-14.5-6.5-14.5-14.5c0-8,6.5-14.5,14.5-14.5c8,0,14.5,6.5,14.5,14.5C242.9,81.1,236.4,87.6,228.4,87.6z"/>
		</g>
	</g>
</g>
</svg>
