<?xml version="1.0" encoding="utf-8"?>
<!-- Generator: Adobe Illustrator 23.0.0, SVG Export Plug-In . SVG Version: 6.00 Build 0)  -->
<svg version="1.1" id="Layer_1" xmlns="http://www.w3.org/2000/svg" xmlns:xlink="http://www.w3.org/1999/xlink" x="0px" y="0px"
	 width="552.9px" height="168px" viewBox="0 0 552.9 168" style="enable-background:new 0 0 552.9 168;" xml:space="preserve">
<style type="text/css">
	.st0{fill:#15191B;}
	.st1{fill:#425376;}
	.st2{fill:#8D251C;}
	.st3{fill:#333333;}
	.st4{fill:#414141;}
	.st5{fill:#C7DDF2;}
	.st6{fill:#ABCAEB;}
	.st7{fill:#DBE8F7;}
	.st8{fill:#2F3092;}
	.st9{fill:#5555A5;}
	.st10{opacity:0.5;}
	.st11{fill:#010101;}
	.st12{fill:#9FC0E6;}
	.st13{fill:#B0CDEB;}
	.st14{fill:#D12E34;}
	.st15{opacity:0.3;fill:#FFFFFF;}
	.st16{opacity:0.5;fill:#010101;}
	.st17{opacity:0.5;fill:#FFFFFF;}
	.st18{fill:#0F0E14;}
	.st19{opacity:0.3;fill:#C2D9F1;}
	.st20{opacity:0.6;}
	.st21{fill:#C7DBF1;}
	.st22{opacity:0.2;fill:#FFFFFF;}
</style>
<g>
	<polygon class="st0" points="44.9,149.3 460.8,149.3 494,144.1 498.1,114.3 487.4,68.2 82.5,68.2 41.5,95.1 	"/>
	<g>
		<path class="st1" d="M91,90.1c-15.5,0-28.1,12.6-28.1,28.1s12.6,28.1,28.1,28.1c15.5,0,28.1-12.6,28.1-28.1S106.5,90.1,91,90.1z
			 M91,134.5c-9,0-16.3-7.3-16.3-16.3c0-9,7.3-16.3,16.3-16.3c9,0,16.3,7.3,16.3,16.3C107.3,127.2,100,134.5,91,134.5z"/>
		<path class="st2" d="M111.2,118.2c0,2.5-0.5,4.8-1.4,7c-0.6,1.4,0,3,1.4,3.7l4.5,2.2c1.5,0.7,3.3,0.1,3.9-1.4
			c1.5-3.5,2.3-7.4,2.3-11.5c0-4.1-0.8-7.9-2.3-11.5c-0.6-1.5-2.4-2.2-3.9-1.4l-4.5,2.2c-1.4,0.7-2,2.3-1.4,3.7
			C110.7,113.4,111.2,115.7,111.2,118.2z"/>
	</g>
	<g>
		<path class="st3" d="M91,76.3c-23.1,0-41.9,18.7-41.9,41.9s18.7,41.9,41.9,41.9c23.1,0,41.9-18.7,41.9-41.9S114.1,76.3,91,76.3z
			 M91,153c-19.2,0-34.8-15.6-34.8-34.8C56.2,99,71.7,83.4,91,83.4c19.2,0,34.8,15.6,34.8,34.8C125.8,137.4,110.2,153,91,153z"/>
		<path class="st4" d="M91,158.6c-22.3,0-40.4-18.1-40.4-40.4S68.7,77.8,91,77.8s40.4,18.1,40.4,40.4S113.3,158.6,91,158.6z
			 M91,81.2c-20.4,0-37,16.6-37,37s16.6,37,37,37s37-16.6,37-37S111.4,81.2,91,81.2z"/>
		<path class="st5" d="M111.6,115.1c-1.2-0.3-6.9-0.1-12.7,0.1c4.9-3.8,9.5-6.9,11-7.4c2.4-0.7,9-2,13.4-2.8
			c-0.3-0.8-0.7-1.6-1.1-2.4c-4.4,0.8-10.6,2.1-13,2.7c-2.2,0.6-7.6,4.6-12,7.9c-1-1.3-2.5-2.3-4.1-2.7c1.4-5,3-10.7,3.6-11.5
			c0.6-1,6.6-7.2,10.8-11.5c-0.8-0.4-1.6-0.8-2.5-1.2c-4.5,4.6-9.9,10.2-10.6,11.4c-0.7,1.1-2.3,6.6-3.8,12.1
			c-2.1-5.9-3.7-11.2-3.6-12.7c0.1-2.5,0.9-9.1,1.5-13.6c-0.9,0.1-1.8,0.2-2.7,0.3c-0.6,4.5-1.3,10.7-1.4,13.2
			c-0.1,2.3,2,8.6,3.8,13.8c-1.6,0.6-2.9,1.7-3.9,3.1c-4.3-2.9-9.2-6.2-9.9-7c-0.8-0.9-4.8-8.5-7.6-13.8c-0.7,0.6-1.3,1.3-1.9,2
			c3,5.7,6.6,12.5,7.5,13.6c0.8,1,5.5,4.2,10.3,7.4c-6.2,0.2-11.7,0-13.2-0.5c-2.4-0.9-8.4-3.7-12.5-5.6c-0.2,0.9-0.4,1.7-0.5,2.6
			c4.1,1.9,9.8,4.6,12.1,5.4c2.1,0.8,8.8,0.8,14.3,0.6c0.1,1.7,0.7,3.3,1.7,4.6c-4,3.2-8.7,6.9-9.7,7.2c-1.1,0.5-9.6,2-15.5,3
			c0.4,0.8,0.8,1.6,1.3,2.4c6.4-1.1,14-2.5,15.2-3c1.2-0.5,5.7-4,10.2-7.5c-1.8,6-3.6,11.2-4.5,12.4c-1.5,2-6.1,6.9-9.2,10.1
			c0.8,0.5,1.5,0.9,2.3,1.3c3.1-3.3,7.4-7.9,8.9-9.8c1.4-1.8,3.5-8.2,5-13.4c0.7,0.2,1.4,0.3,2.1,0.3c1,0,1.9-0.2,2.8-0.5
			c1.8,4.8,3.8,10.4,3.9,11.4c0.1,1.2-1.1,9.7-2,15.7c0.9-0.1,1.8-0.3,2.7-0.5c0.9-6.4,2-14,1.9-15.4c-0.1-1.3-2-6.6-4-12
			c5.1,3.5,9.5,6.9,10.4,8.1c1.4,2.1,4.6,7.9,6.8,11.8c0.7-0.6,1.3-1.2,2-1.8c-2.2-3.9-5.2-9.4-6.6-11.5c-1.3-1.9-6.7-5.8-11.2-8.9
			c0.8-1.3,1.3-2.8,1.3-4.4c0-0.1,0-0.2,0-0.4c5.2-0.2,11.1-0.4,12.1-0.2c1.1,0.3,8.9,4.1,14.3,6.7c0.2-0.9,0.3-1.8,0.4-2.7
			C119.8,118.8,112.9,115.5,111.6,115.1z"/>
		<ellipse transform="matrix(0.7071 -0.7071 0.7071 0.7071 -56.9328 98.9575)" class="st5" cx="91" cy="118.2" rx="6.5" ry="6.5"/>
		<circle class="st6" cx="91" cy="118.2" r="5.4"/>
		<path class="st7" d="M91,82.7c-19.6,0-35.5,15.9-35.5,35.5s15.9,35.5,35.5,35.5c19.6,0,35.5-15.9,35.5-35.5S110.6,82.7,91,82.7z
			 M91,152.1c-18.7,0-33.9-15.2-33.9-33.9c0-18.7,15.2-33.9,33.9-33.9c18.7,0,33.9,15.2,33.9,33.9C124.9,136.9,109.7,152.1,91,152.1
			z"/>
	</g>
	<g>
		<path class="st1" d="M450.4,90.1c-15.5,0-28.1,12.6-28.1,28.1s12.6,28.1,28.1,28.1c15.5,0,28.1-12.6,28.1-28.1
			S465.9,90.1,450.4,90.1z M450.4,134.5c-9,0-16.3-7.3-16.3-16.3c0-9,7.3-16.3,16.3-16.3s16.3,7.3,16.3,16.3
			C466.7,127.2,459.4,134.5,450.4,134.5z"/>
		<path class="st2" d="M470.6,118.2c0,2.5-0.5,4.8-1.4,7c-0.6,1.4,0,3,1.4,3.7l4.5,2.2c1.5,0.7,3.3,0.1,3.9-1.4
			c1.5-3.5,2.3-7.4,2.3-11.5c0-4.1-0.8-7.9-2.3-11.5c-0.6-1.5-2.4-2.2-3.9-1.4l-4.5,2.2c-1.4,0.7-2,2.3-1.4,3.7
			C470.1,113.4,470.6,115.7,470.6,118.2z"/>
	</g>
	<g>
		<path class="st3" d="M450.4,76.3c-23.1,0-41.9,18.7-41.9,41.9s18.7,41.9,41.9,41.9s41.9-18.7,41.9-41.9S473.6,76.3,450.4,76.3z
			 M450.4,153c-19.2,0-34.8-15.6-34.8-34.8c0-19.2,15.6-34.8,34.8-34.8c19.2,0,34.8,15.6,34.8,34.8C485.3,137.4,469.7,153,450.4,153
			z"/>
		<path class="st4" d="M450.4,158.6c-22.3,0-40.4-18.1-40.4-40.4s18.1-40.4,40.4-40.4c22.3,0,40.4,18.1,40.4,40.4
			S472.7,158.6,450.4,158.6z M450.4,81.2c-20.4,0-37,16.6-37,37s16.6,37,37,37s37-16.6,37-37S470.8,81.2,450.4,81.2z"/>
		<path class="st5" d="M471,115.1c-1.2-0.3-6.9-0.1-12.7,0.1c4.9-3.8,9.5-6.9,11-7.4c2.4-0.7,9-2,13.4-2.8c-0.3-0.8-0.7-1.6-1.1-2.4
			c-4.4,0.8-10.6,2.1-13,2.7c-2.2,0.6-7.6,4.6-12,7.9c-1-1.3-2.5-2.3-4.1-2.7c1.4-5,3-10.7,3.6-11.5c0.6-1,6.6-7.2,10.8-11.5
			c-0.8-0.4-1.6-0.8-2.5-1.2c-4.5,4.6-9.9,10.2-10.6,11.4c-0.7,1.1-2.3,6.6-3.8,12.1c-2.1-5.9-3.7-11.2-3.6-12.7
			c0.1-2.5,0.9-9.1,1.5-13.6c-0.9,0.1-1.8,0.2-2.7,0.3c-0.6,4.5-1.3,10.7-1.4,13.2c-0.1,2.3,2,8.6,3.8,13.8
			c-1.6,0.6-2.9,1.7-3.9,3.1c-4.3-2.9-9.2-6.2-9.9-7c-0.8-0.9-4.8-8.5-7.6-13.8c-0.7,0.6-1.3,1.3-1.9,2c3,5.7,6.6,12.5,7.5,13.6
			c0.8,1,5.5,4.2,10.3,7.4c-6.2,0.2-11.7,0-13.2-0.5c-2.4-0.9-8.4-3.7-12.5-5.6c-0.2,0.9-0.4,1.7-0.5,2.6c4.1,1.9,9.8,4.6,12.1,5.4
			c2.1,0.8,8.8,0.8,14.3,0.6c0.1,1.7,0.7,3.3,1.7,4.6c-4,3.2-8.7,6.9-9.7,7.2c-1.1,0.5-9.6,2-15.5,3c0.4,0.8,0.8,1.6,1.3,2.4
			c6.4-1.1,14-2.5,15.2-3c1.2-0.5,5.7-4,10.2-7.5c-1.8,6-3.6,11.2-4.5,12.4c-1.5,2-6.1,6.9-9.2,10.1c0.8,0.5,1.5,0.9,2.3,1.3
			c3.1-3.3,7.4-7.9,8.9-9.8c1.4-1.8,3.5-8.2,5-13.4c0.7,0.2,1.4,0.3,2.1,0.3c1,0,1.9-0.2,2.8-0.5c1.8,4.8,3.8,10.4,3.9,11.4
			c0.1,1.2-1.1,9.7-2,15.7c0.9-0.1,1.8-0.3,2.7-0.5c0.9-6.4,2-14,1.9-15.4c-0.1-1.3-2-6.6-4-12c5.1,3.5,9.5,6.9,10.4,8.1
			c1.4,2.1,4.6,7.9,6.8,11.8c0.7-0.6,1.3-1.2,2-1.8c-2.2-3.9-5.2-9.4-6.6-11.5c-1.3-1.9-6.7-5.8-11.2-8.9c0.8-1.3,1.3-2.8,1.3-4.4
			c0-0.1,0-0.2,0-0.4c5.2-0.2,11.1-0.4,12.1-0.2c1.1,0.3,8.9,4.1,14.3,6.7c0.2-0.9,0.3-1.8,0.4-2.7
			C479.3,118.8,472.4,115.5,471,115.1z"/>
		
			<ellipse transform="matrix(0.9239 -0.3827 0.3827 0.9239 -10.9472 181.3702)" class="st5" cx="450.4" cy="118.2" rx="6.5" ry="6.5"/>
		<circle class="st6" cx="450.4" cy="118.2" r="5.4"/>
		<path class="st7" d="M450.4,82.7c-19.6,0-35.5,15.9-35.5,35.5s15.9,35.5,35.5,35.5c19.6,0,35.5-15.9,35.5-35.5
			S470,82.7,450.4,82.7z M450.4,152.1c-18.7,0-33.9-15.2-33.9-33.9c0-18.7,15.2-33.9,33.9-33.9c18.7,0,33.9,15.2,33.9,33.9
			C484.3,136.9,469.1,152.1,450.4,152.1z"/>
	</g>
	<g>
		<path class="st8" d="M511.7,37.2c0,0,35.2-2.9,37.3-3.3c1.1,0,0,3.2-0.3,3.3c-0.3,0.1-8.9,7.2-8.9,7.2L511.7,37.2z"/>
		<path class="st9" d="M535.2,84.9c-0.8-2.1,1.4-32.5,1.9-34.1c0.5-1.6,3.8-6.3,3.3-7.2c-0.5-0.9-62.3-18.9-146.8-29.4
			s-125.1-7.5-161.1,0C196.4,21.7,131.5,53,131.5,53s-27.9-0.3-64.9,14.6c-37,14.9-59.6,42.6-61.9,47c-2.3,4.4,8.2,22.9,8.7,25.1
			c0.5,2.2-5.1,8.3-5.3,9.5c-0.3,1.2,8.6,1.7,12.8,1.7c0,0,11,0,29.6,0c-2.6-14-4-26-4-32.7c0-24.5,19.9-44.4,44.4-44.4
			s44.4,19.9,44.4,44.4c0,6.6-1.4,18.6-4,32.7c87.2,0,206,0,278.7,0c-2.6-14-4-26-4-32.7c0-24.5,19.9-44.4,44.4-44.4
			s44.4,19.9,44.4,44.4c0,6-1.2,16.3-3.3,28.5c19.2-6.9,45.3-20,46.6-21.9c1.8-2.6,6.4-26.3,6.4-28.8C544.6,93.4,536,87,535.2,84.9z
			"/>
		<g class="st10">
			<path class="st11" d="M49.1,142.4C49.1,142.4,49.1,142.4,49.1,142.4c-2.2,0.2-38,7.9-40.9,6.8c-0.3,1.2,8.6,1.7,12.8,1.7
				c0,0,11,0,29.6,0C50,147.9,49.6,145.1,49.1,142.4z"/>
			<path class="st11" d="M406.4,126.1c-16,3-27.8,5.2-30.3,5.3c-9.1,0.6-242.8,7.8-242.8,7.8h0c-0.6,3.7-1.2,7.6-2,11.7
				c87.2,0,206,0,278.7,0C408.3,141.3,407,132.7,406.4,126.1z"/>
			<path class="st11" d="M529.5,101.9c-1.9,0.4-16.3,3.3-35.6,7.1c0.6,3,1,6.1,1,9.2c0,6-1.2,16.3-3.3,28.5
				c19.2-6.9,45.3-20,46.6-21.9c1.8-2.6,6.4-26.3,6.4-28.8c0-0.7-0.6-1.6-1.4-2.6C543.5,93.8,535.8,100.7,529.5,101.9z"/>
		</g>
		<path class="st8" d="M91,70.4c-26.4,0-47.9,21.6-47.9,48.3c0,6.7,1.3,18.4,3.8,32.2c1.2,0,2.4,0,3.7,0c-2.6-14-4-26-4-32.7
			c0-24.5,19.9-44.4,44.4-44.4s44.4,19.9,44.4,44.4c0,6.6-1.4,18.6-4,32.7c1.2,0,2.5,0,3.7,0c2.4-13.8,3.8-25.5,3.8-32.2
			C138.9,92,117.4,70.4,91,70.4z"/>
		<path class="st8" d="M450.4,70.4c-26.4,0-47.9,21.6-47.9,48.3c0,6.7,1.3,18.4,3.8,32.2c1.2,0,2.5,0,3.7,0c-2.6-14-4-26-4-32.7
			c0-24.5,19.9-44.4,44.4-44.4s44.4,19.9,44.4,44.4c0,6-1.2,16.3-3.3,28.5c1.3-0.5,2.6-0.9,3.9-1.4c1.8-11.4,2.8-20.8,2.8-26.6
			C498.3,92,476.9,70.4,450.4,70.4z"/>
		<path class="st12" d="M21,97.6c0,0,18.3-15,23.8-18c5.6-3,11.2-4.8,11.3-4.2s-2.5,5-2.8,5.8c-0.3,0.8-13.1,6.4-19.1,9.4
			C27.2,94.2,19.1,99.2,21,97.6z"/>
		<path class="st13" d="M47.9,78.1c-0.6,1.5-1.3,3.2-1.5,3.6c-0.2,0.8-12.5,7.6-18.1,11.1c-2.6,1.6-5.3,3.5-7.6,5
			c-0.1,0.3,7.1-4,13.6-7.3c6-3,18.8-8.6,19.1-9.4c0.3-0.8,2.9-5.2,2.8-5.8C56.1,74.9,52.3,76.1,47.9,78.1z"/>
		<path class="st14" d="M539.5,46.1c-1.1,0.2-28.7,2.5-29.2,2.6c-0.4,0.1,0.8,3,1.3,3.9c0.5,0.9,24,6.4,24.5,6.5
			c0.5,0.1,3.1-10.1,3.3-10.5C539.7,48.2,539.8,46,539.5,46.1z"/>
		<path class="st15" d="M537.9,52.7c-14.5-3.5-24-1.5-25.4-2.1c-0.2-0.4-0.5-1.1-0.7-1.6c2-0.2,25.2-2.2,27.7-2.4
			C539.5,49.3,538.4,51.1,537.9,52.7z"/>
		<path class="st16" d="M146.6,88.1c0,0,226.7-34.1,228.5-34.1c1.8,0-32.5,71.9-36.5,72.9c-4.1,1-182.5,7.6-182.5,7.6
			s149.9-13.3,157.4-14c7.4-0.7,38.4-50.2,38.4-51.4C351.8,67.9,146.6,88.1,146.6,88.1z"/>
		<path class="st17" d="M58.5,72.3c0,0,27.4-12.3,51.1-14.3c23.7-2,152.5,2,152.5,2s-46,2-65.7,2.7c-19.8,0.7-76.3,0.3-89-0.3
			C84.5,61.3,58.5,72.3,58.5,72.3z"/>
		<path class="st16" d="M265.8,57.8c0,0,15.6-1.2,54.8-9.8c39.2-8.6,56.8-12.6,58-13c1.2-0.5-18.1-20-28.4-20.8
			C339.9,13.4,265.8,57.8,265.8,57.8z"/>
		<path class="st17" d="M324.9,49c0,0,76.9-16.6,104.1-19.4c27.2-2.9,79.3,6.4,79.3,6.4s-58.5-1.4-79.1,0
			C408.6,37.4,324.9,49,324.9,49z"/>
		<path class="st3" d="M233.4,18.6c-32.2,6.7-88.8,33.2-98.5,37.7c0,0,112.8,1.6,128,1.6C278.1,58,365,33,365,33
			s-6.7-15.9-14.8-18.8c-18.2-1.5-34.4-2.3-49-2.3C276.5,11.9,255.6,14,233.4,18.6z"/>
		<path class="st18" d="M262.9,58c13.6,0,84.5-20,99.3-24.2c-1.5-3.2-7.3-15-14-17.4c-17.6-1.5-33.4-2.2-47.6-2.2
			c-23.9,0-44.2,2-65.8,6.5c-29.6,6.2-80.6,29.6-93.8,35.7C164.9,56.8,249.8,58,262.9,58z"/>
		<path class="st19" d="M362.2,33.7c-1.3-2.8-5.9-12.2-11.6-16.1c-64.9,5.2-119.5,12-163.4,18.7c-20.2,8.1-38.9,16.7-46.1,20.1
			c6.6,0.1,18,0.3,31.3,0.4c44.3-3.3,93-6.3,137.8-8.9C332.1,42.3,354.6,35.9,362.2,33.7z"/>
		<path class="st3" d="M164.7,56.8c2.5,0,5.2,0.1,7.9,0.1L183.8,35c-1.9,0.8-3.7,1.5-5.6,2.3L164.7,56.8z"/>
		<g class="st20">
			<path class="st11" d="M341.4,123.5c0.1-0.2,0.3-0.5,0.5-0.7c0.2-0.4,0.5-1,0.8-1.6C341.6,123,341.1,123.9,341.4,123.5z"/>
			<path class="st11" d="M375.1,54c-0.5,0-19.8,2.8-46.9,6.9c5.1,0,35.9-1.1,36.8,0c0.8,1-16.8,48.7-22.3,60.2
				c0.7-1.1,1.6-2.6,2.6-4.3C356.4,96.8,376.5,54,375.1,54z"/>
		</g>
		<g>
			<path class="st16" d="M279.8,144.5h-96c-2.4,0-13.3-11.7-15.5-14c-6.4-6.9-13.1-15-13.9-17.6c-0.9-3.1-9.3-38.9-8.2-40.8
				c0.8-1.6,17.6-13.1,21.2-15.5l12.6-20.1l1.5-0.6l-13.5,21.3l-0.1,0.1c-7.8,5.3-20.4,14.1-21,15.2c-0.6,1.9,6.7,34.7,8.3,40.2
				c1.3,4.6,25.6,30.9,28.5,30.9h96c3.6-0.2,44.6-53.6,58-71.1c4.7-6.1,6.8-8.8,7-9.1c0.8-0.8,5.5-2.9,11.5-5.5
				c2.4-1,4.4-1.9,5.1-2.3c1.7-0.9,3.8-19.7,2.6-22.3L365,33c1.2,2.6-0.6,22.1-3,23.3c-0.8,0.4-2.8,1.3-5.2,2.3
				c-4.2,1.8-10.5,4.6-11.3,5.3c-0.3,0.3-3.1,3.9-7,9C310,110.1,283.2,144.5,279.8,144.5z"/>
		</g>
		<path class="st7" d="M174.1,51.4c-3,2.2-6.9,7.3-7.6,8.4c-0.6,1.1,7.5,1.4,9.1,1c1.6-0.4-0.9-3.9,2.1-5.4
			C180.8,53.9,175.7,50.2,174.1,51.4z"/>
		<path class="st21" d="M194.5,55.7c-6.1,0-16.9,0-20.4-0.6c-7.6-1.3,13.6-13,16.1-11.5C193.2,45.3,196.4,55.7,194.5,55.7z"/>
		<path class="st16" d="M7.5,117c1.2-0.3,25.9-4.1,28-4.2c2-0.1-2.5,25.3-3.5,26.8c-1,1.6-12.4,4.4-13.4,4.3c-1-0.1,4.6-4.9,5.2-5.8
			c0.6-0.9-0.3-15.5-0.6-16.4C22.9,120.8,4.1,117.9,7.5,117z"/>
		<path class="st16" d="M35.5,112.8c-1.7,0.1-20.2,2.9-26.2,3.9c2.1-0.3,20.8-0.4,21.7,0.1c1,0.5-0.3,20.8-0.3,21.7
			c-0.1,1-5.2,3.9-6.1,4.1c0,0,0,0,0,0c3.3-0.9,6.8-2.1,7.3-3C32.9,138,37.5,112.7,35.5,112.8z"/>
		<path class="st22" d="M24.3,94.9c5.6-3.7,14.1-8.5,25.4-12.6c1.4-0.5,2.7-1,3.8-1.4c0.4-0.9,1.5-2.9,2.2-4.2
			c-3,0.8-7.4,2.1-13.3,4.4C37.4,84.4,29,91.2,24.3,94.9z"/>
	</g>
</g>
</svg>
