<?xml version="1.0" encoding="utf-8"?>
<!-- Generator: Adobe Illustrator 23.0.0, SVG Export Plug-In . SVG Version: 6.00 Build 0)  -->
<svg version="1.1" id="Layer_1" xmlns="http://www.w3.org/2000/svg" xmlns:xlink="http://www.w3.org/1999/xlink" x="0px" y="0px"
	 width="374.2px" height="245.3px" viewBox="0 0 374.2 245.3" style="enable-background:new 0 0 374.2 245.3;" xml:space="preserve"
	>
<style type="text/css">
	.st0{fill:#273945;}
	.st1{fill:#3F5B71;}
	.st2{fill:#425376;}
	.st3{fill:#8D251C;}
	.st4{fill:#C7DDF2;}
	.st5{fill:#333333;}
	.st6{fill:#414141;}
	.st7{fill:#ABCAEB;}
	.st8{fill:#DBE8F7;}
	.st9{fill:#5555A5;}
	.st10{fill:#D6E4F5;}
	.st11{fill:#0F0E14;}
	.st12{opacity:0.6;fill:#010101;}
	.st13{fill:#9FC0E6;}
	.st14{fill:#8CB1DE;}
	.st15{opacity:0.2;fill:#FFFFFF;}
	.st16{opacity:0.6;fill:#D8E6F6;}
	.st17{fill:#272626;}
	.st18{fill:#D12E34;}
	.st19{opacity:0.3;fill:#FFFFFF;}
</style>
<g>
	<g>
		<g>
			<path class="st0" d="M59.4,172.2l7.9,2.4c0.6,0.2,1.3-0.2,1.5-0.8l0,0c0.2-0.6-0.2-1.3-0.8-1.5l-7.9-2.4
				c-0.6-0.2-1.3,0.2-1.5,0.8l0,0C58.4,171.4,58.7,172,59.4,172.2z"/>
			<path class="st1" d="M68,174.7l-7.9,2.4c-0.6,0.2-1.3-0.2-1.5-0.8l0,0c-0.2-0.6,0.2-1.3,0.8-1.5l7.9-2.4c0.6-0.2,1.3,0.2,1.5,0.8
				l0,0C69,173.8,68.6,174.5,68,174.7z"/>
			<path class="st0" d="M59.4,167.4l7.9,2.4c0.6,0.2,1.3-0.2,1.5-0.8l0,0c0.2-0.6-0.2-1.3-0.8-1.5l-7.9-2.4
				c-0.6-0.2-1.3,0.2-1.5,0.8l0,0C58.4,166.5,58.7,167.2,59.4,167.4z"/>
			<path class="st1" d="M68,169.8l-7.9,2.4c-0.6,0.2-1.3-0.2-1.5-0.8l0,0c-0.2-0.6,0.2-1.3,0.8-1.5l7.9-2.4c0.6-0.2,1.3,0.2,1.5,0.8
				l0,0C69,169,68.6,169.6,68,169.8z"/>
			<path class="st0" d="M59.4,162.6l7.9,2.4c0.6,0.2,1.3-0.2,1.5-0.8l0,0c0.2-0.6-0.2-1.3-0.8-1.5l-7.9-2.4
				c-0.6-0.2-1.3,0.2-1.5,0.8l0,0C58.4,161.7,58.7,162.4,59.4,162.6z"/>
			<path class="st1" d="M68,165l-7.9,2.4c-0.6,0.2-1.3-0.2-1.5-0.8l0,0c-0.2-0.6,0.2-1.3,0.8-1.5l7.9-2.4c0.6-0.2,1.3,0.2,1.5,0.8
				l0,0C69,164.1,68.6,164.8,68,165z"/>
			<path class="st0" d="M59.4,157.8l7.9,2.4c0.6,0.2,1.3-0.2,1.5-0.8l0,0c0.2-0.6-0.2-1.3-0.8-1.5l-7.9-2.4
				c-0.6-0.2-1.3,0.2-1.5,0.8l0,0C58.4,156.9,58.7,157.6,59.4,157.8z"/>
			<path class="st1" d="M68,160.2l-7.9,2.4c-0.6,0.2-1.3-0.2-1.5-0.8l0,0c-0.2-0.6,0.2-1.3,0.8-1.5l7.9-2.4c0.6-0.2,1.3,0.2,1.5,0.8
				l0,0C69,159.3,68.6,160,68,160.2z"/>
		</g>
		<g>
			<path class="st2" d="M62.1,175.5c-13.1,0-23.7,10.6-23.7,23.7c0,13.1,10.6,23.7,23.7,23.7c13.1,0,23.7-10.6,23.7-23.7
				C85.7,186.1,75.1,175.5,62.1,175.5z M62.1,212.9c-7.6,0-13.8-6.2-13.8-13.8s6.2-13.8,13.8-13.8c7.6,0,13.8,6.2,13.8,13.8
				S69.7,212.9,62.1,212.9z"/>
			<path class="st3" d="M79.1,199.2c0,2.3-0.5,4.5-1.3,6.5c-0.5,1.3,0,2.8,1.3,3.4l4.2,2c1.4,0.7,3,0.1,3.6-1.3
				c1.4-3.3,2.2-6.8,2.2-10.6s-0.8-7.3-2.2-10.6c-0.6-1.4-2.2-2-3.6-1.3l-4.2,2c-1.3,0.6-1.8,2.1-1.3,3.4
				C78.6,194.7,79.1,196.9,79.1,199.2z"/>
		</g>
	</g>
	<g>
		<circle class="st4" cx="62.1" cy="199.2" r="10.4"/>
		<g>
			<path class="st5" d="M62.1,160.5c-21.4,0-38.7,17.3-38.7,38.7s17.3,38.7,38.7,38.7c21.4,0,38.7-17.3,38.7-38.7
				S83.4,160.5,62.1,160.5z M62.1,228c-15.9,0-28.8-12.9-28.8-28.8c0-15.9,12.9-28.8,28.8-28.8c15.9,0,28.8,12.9,28.8,28.8
				C90.9,215.1,78,228,62.1,228z"/>
			<path class="st6" d="M62.1,235.4c-19.9,0-36.2-16.2-36.2-36.2c0-19.9,16.2-36.2,36.2-36.2c19.9,0,36.2,16.2,36.2,36.2
				C98.2,219.1,82,235.4,62.1,235.4z M62.1,168.6c-16.8,0-30.6,13.7-30.6,30.6c0,16.8,13.7,30.6,30.6,30.6
				c16.8,0,30.6-13.7,30.6-30.6C92.6,182.3,78.9,168.6,62.1,168.6z"/>
			<g>
				<path class="st4" d="M61.1,198.7l-9.2-0.2c-4.9-0.1-11.3-1.2-17.8-3.1c-0.1,1.1-0.2,2.1-0.2,3.2c6.8,1.9,13,3,18,3
					c-4,3-8.6,7.7-13,13.4c0.6,0.9,1.3,1.8,2,2.6c4.3-5.6,8.9-10.4,12.9-13.4L61.1,198.7z"/>
				<path class="st4" d="M65.1,208.1l-3-8.7l-3,8.7c-1.7,4.8-4.9,10.8-8.9,16.6c1,0.5,2,0.9,3,1.2c4.1-6.1,7.2-12,8.9-16.8
					c1.7,4.8,4.7,10.7,8.9,16.8c1-0.3,2.1-0.7,3-1.2C69.9,218.9,66.7,212.9,65.1,208.1z"/>
				<path class="st4" d="M89.9,195.5c-6.5,1.9-12.9,3-17.8,3.1l-9.2,0.2l7.3,5.5c4,3.1,8.7,7.9,12.9,13.4c0.7-0.8,1.4-1.7,2-2.6
					c-4.4-5.7-9-10.4-13-13.4c4.9-0.1,11.2-1.1,18-3C90.2,197.6,90.1,196.5,89.9,195.5z"/>
				<path class="st4" d="M55.9,189.9c-3.9-2.8-9.5-5.6-16-8c-0.7,0.9-1.3,1.8-1.9,2.7c6.3,2.3,12.1,5.1,16.1,7.9l7.6,5.3L59,189
					c-1.4-4.6-2.3-10.8-2.6-17.4c-1.1,0.2-2.1,0.5-3.1,0.8C53.6,179.3,54.5,185.3,55.9,189.9z"/>
				<path class="st4" d="M68.5,189.7c1.4-4.5,2.3-10.5,2.6-17.1c-1-0.3-2.1-0.6-3.1-0.9c-0.2,6.5-1.1,12.5-2.5,17.1l-2.6,8.7
					l7.4-5.1c4-2.8,9.6-5.5,15.8-7.7c-0.6-0.9-1.2-1.8-1.9-2.7C77.9,184.2,72.4,187,68.5,189.7z"/>
			</g>
			<path class="st7" d="M68.6,199.2c0,3.6-2.9,6.6-6.6,6.6c-3.6,0-6.6-2.9-6.6-6.6s2.9-6.6,6.6-6.6
				C65.7,192.6,68.6,195.6,68.6,199.2z"/>
			<path class="st8" d="M62.1,170.1c-16.1,0-29.1,13-29.1,29.1s13,29.1,29.1,29.1c16.1,0,29.1-13,29.1-29.1S78.1,170.1,62.1,170.1z
				 M62.1,226.6c-15.1,0-27.4-12.3-27.4-27.4s12.3-27.4,27.4-27.4c15.1,0,27.4,12.3,27.4,27.4S77.2,226.6,62.1,226.6z"/>
		</g>
	</g>
	<g>
		<g>
			<path class="st0" d="M305.7,172.9l7.9,2.4c0.6,0.2,1.3-0.2,1.5-0.8l0,0c0.2-0.6-0.2-1.3-0.8-1.5l-7.9-2.4
				c-0.6-0.2-1.3,0.2-1.5,0.8l0,0C304.7,172,305.1,172.7,305.7,172.9z"/>
			<path class="st1" d="M314.3,175.3l-7.9,2.4c-0.6,0.2-1.3-0.2-1.5-0.8l0,0c-0.2-0.6,0.2-1.3,0.8-1.5l7.9-2.4
				c0.6-0.2,1.3,0.2,1.5,0.8l0,0C315.3,174.4,314.9,175.1,314.3,175.3z"/>
			<path class="st0" d="M305.7,168.1l7.9,2.4c0.6,0.2,1.3-0.2,1.5-0.8l0,0c0.2-0.6-0.2-1.3-0.8-1.5l-7.9-2.4
				c-0.6-0.2-1.3,0.2-1.5,0.8l0,0C304.7,167.2,305.1,167.9,305.7,168.1z"/>
			<path class="st1" d="M314.3,170.5l-7.9,2.4c-0.6,0.2-1.3-0.2-1.5-0.8l0,0c-0.2-0.6,0.2-1.3,0.8-1.5l7.9-2.4
				c0.6-0.2,1.3,0.2,1.5,0.8l0,0C315.3,169.6,314.9,170.3,314.3,170.5z"/>
			<path class="st0" d="M305.7,163.2l7.9,2.4c0.6,0.2,1.3-0.2,1.5-0.8l0,0c0.2-0.6-0.2-1.3-0.8-1.5l-7.9-2.4
				c-0.6-0.2-1.3,0.2-1.5,0.8l0,0C304.7,162.4,305.1,163,305.7,163.2z"/>
			<path class="st1" d="M314.3,165.6l-7.9,2.4c-0.6,0.2-1.3-0.2-1.5-0.8l0,0c-0.2-0.6,0.2-1.3,0.8-1.5l7.9-2.4
				c0.6-0.2,1.3,0.2,1.5,0.8l0,0C315.3,164.8,314.9,165.4,314.3,165.6z"/>
			<path class="st0" d="M305.7,158.4l7.9,2.4c0.6,0.2,1.3-0.2,1.5-0.8v0c0.2-0.6-0.2-1.3-0.8-1.5l-7.9-2.4c-0.6-0.2-1.3,0.2-1.5,0.8
				l0,0C304.7,157.5,305.1,158.2,305.7,158.4z"/>
			<path class="st1" d="M314.3,160.8l-7.9,2.4c-0.6,0.2-1.3-0.2-1.5-0.8l0,0c-0.2-0.6,0.2-1.3,0.8-1.5l7.9-2.4
				c0.6-0.2,1.3,0.2,1.5,0.8l0,0C315.3,159.9,314.9,160.6,314.3,160.8z"/>
		</g>
		<path class="st2" d="M310,175.5c-13.1,0-23.7,10.6-23.7,23.7c0,13.1,10.6,23.7,23.7,23.7s23.7-10.6,23.7-23.7
			C333.7,186.1,323.1,175.5,310,175.5z M310,212.9c-7.6,0-13.8-6.2-13.8-13.8s6.2-13.8,13.8-13.8c7.6,0,13.8,6.2,13.8,13.8
			S317.6,212.9,310,212.9z"/>
		<path class="st3" d="M327,199.2c0,2.3-0.5,4.5-1.3,6.5c-0.5,1.3,0,2.8,1.3,3.4l4.2,2c1.4,0.7,3,0.1,3.6-1.3
			c1.4-3.3,2.2-6.8,2.2-10.6s-0.8-7.3-2.2-10.6c-0.6-1.4-2.2-2-3.6-1.3l-4.2,2c-1.3,0.6-1.8,2.1-1.3,3.4
			C326.5,194.7,327,196.9,327,199.2z"/>
	</g>
	<g>
		<circle class="st4" cx="310" cy="199.2" r="10.4"/>
		<g>
			<path class="st5" d="M310,160.5c-21.4,0-38.7,17.3-38.7,38.7s17.3,38.7,38.7,38.7c21.4,0,38.7-17.3,38.7-38.7
				S331.4,160.5,310,160.5z M310,228c-15.9,0-28.8-12.9-28.8-28.8c0-15.9,12.9-28.8,28.8-28.8s28.8,12.9,28.8,28.8
				C338.8,215.1,325.9,228,310,228z"/>
			<path class="st6" d="M310,235.4c-19.9,0-36.2-16.2-36.2-36.2c0-19.9,16.2-36.2,36.2-36.2s36.2,16.2,36.2,36.2
				C346.2,219.1,329.9,235.4,310,235.4z M310,168.6c-16.8,0-30.6,13.7-30.6,30.6c0,16.8,13.7,30.6,30.6,30.6s30.6-13.7,30.6-30.6
				C340.6,182.3,326.9,168.6,310,168.6z"/>
			<g>
				<path class="st4" d="M309.1,198.7l-9.2-0.2c-4.9-0.1-11.3-1.2-17.8-3.1c-0.1,1.1-0.2,2.1-0.2,3.2c6.8,1.9,13,3,18,3
					c-4,3-8.6,7.7-13,13.4c0.6,0.9,1.3,1.8,2,2.6c4.3-5.6,8.9-10.4,12.9-13.4L309.1,198.7z"/>
				<path class="st4" d="M313,208.1l-3-8.7l-3,8.7c-1.7,4.8-4.9,10.8-8.9,16.6c1,0.5,2,0.9,3,1.2c4.1-6.1,7.2-12,8.9-16.8
					c1.7,4.8,4.7,10.7,8.9,16.8c1-0.3,2.1-0.7,3-1.2C317.9,218.9,314.7,212.9,313,208.1z"/>
				<path class="st4" d="M337.9,195.5c-6.5,1.9-12.9,3-17.8,3.1l-9.2,0.2l7.3,5.5c4,3.1,8.7,7.9,12.9,13.4c0.7-0.8,1.4-1.7,2-2.6
					c-4.4-5.7-9-10.4-13-13.4c4.9-0.1,11.2-1.1,18-3C338.1,197.6,338,196.5,337.9,195.5z"/>
				<path class="st4" d="M303.9,189.9c-3.9-2.8-9.5-5.6-16-8c-0.7,0.9-1.3,1.8-1.9,2.7c6.3,2.3,12.1,5.1,16.1,7.9l7.6,5.3l-2.7-8.9
					c-1.4-4.6-2.3-10.8-2.6-17.4c-1.1,0.2-2.1,0.5-3.1,0.8C301.5,179.3,302.5,185.3,303.9,189.9z"/>
				<path class="st4" d="M316.5,189.7c1.4-4.5,2.3-10.5,2.6-17.1c-1-0.3-2.1-0.6-3.1-0.9c-0.2,6.5-1.1,12.5-2.5,17.1l-2.6,8.7
					l7.4-5.1c4-2.8,9.6-5.5,15.8-7.7c-0.6-0.9-1.2-1.8-1.9-2.7C325.8,184.2,320.4,187,316.5,189.7z"/>
			</g>
			<path class="st7" d="M316.6,199.2c0,3.6-2.9,6.6-6.6,6.6c-3.6,0-6.6-2.9-6.6-6.6s2.9-6.6,6.6-6.6
				C313.6,192.6,316.6,195.6,316.6,199.2z"/>
			<path class="st8" d="M310,170.1c-16.1,0-29.1,13-29.1,29.1s13,29.1,29.1,29.1c16.1,0,29.1-13,29.1-29.1S326.1,170.1,310,170.1z
				 M310,226.6c-15.1,0-27.4-12.3-27.4-27.4s12.3-27.4,27.4-27.4c15.1,0,27.4,12.3,27.4,27.4S325.1,226.6,310,226.6z"/>
		</g>
	</g>
	<g>
		<path class="st9" d="M359.6,112.5c-0.8-3.4-9.5-14.3-10.3-17.7c-8.2-33.2-39.6-79.5-49.1-84.5c-14.7-7.7-110.9-1.7-141.6,1.5
			c-46.3,5-102.5,78.6-102.5,78.6S23.5,110.2,16,130.7c-5,13.4-12.8,19.8-15.5,29.9c-2.6,10.1,5.6,52.1,12.4,52.1c0.5,0,3.5,0,8.6,0
			c-0.2-5.4-0.3-11.4-0.3-18.3c0-22.9,18.6-41.5,41.5-41.5c22.9,0,41.5,18.6,41.5,41.5c0,6.9-0.1,13-0.3,18.3c51.8,0,116,0,165.6,0
			c-0.2-5.4-0.3-11.4-0.3-18.3c0-22.9,18.6-41.5,41.5-41.5c22.9,0,41.5,18.6,41.5,41.5c0,6.1-0.1,11.5-0.3,16.3
			c8.1-7.4,14.8-33.8,14.9-40C366.9,167,368.9,151.7,359.6,112.5z"/>
		<path class="st10" d="M62.1,152.8c-24.9,0-45.1,20.8-45.1,46.4c0,6.8,0.1,12.8,0.3,18.3c1.1,0,2.3,0,3.7,0
			c-0.2-5.4-0.3-11.4-0.3-18.3c0-22.9,18.6-41.5,41.5-41.5c22.9,0,41.5,18.6,41.5,41.5c0,6.9-0.1,13-0.3,18.3c1.2,0,2.4,0,3.7,0
			c0.2-5.4,0.3-11.5,0.3-18.3C107.2,173.6,87,152.8,62.1,152.8z"/>
		<path class="st10" d="M310,152.8c-24.9,0-45.1,20.8-45.1,46.4c0,6.8,0.1,12.8,0.3,18.3c1.2,0,2.5,0,3.7,0
			c-0.2-5.4-0.3-11.4-0.3-18.3c0-22.9,18.6-41.5,41.5-41.5c22.9,0,41.5,18.6,41.5,41.5c0,6.1-0.1,11.5-0.3,16.3
			c1.3-1.2,2.6-2.9,3.8-4.9c0.1-3.6,0.1-7.4,0.1-11.5C355.1,173.6,334.9,152.8,310,152.8z"/>
		<path class="st5" d="M260,17.9c-31.4,0.3-67.1,2.4-82,4.2c-34.5,4.3-77.1,64.2-84.5,74.9l184.4-12C278,84.9,272.3,30,260,17.9z"/>
		<path class="st11" d="M109.9,95.9l165.5-10.8c-0.3-3.2-5.8-53.7-17.5-65c-30.5,0.3-65.2,2.3-79.7,4.1
			c-23.8,2.9-51.7,33.3-68.4,54.3V95.9z"/>
		<path class="st11" d="M146.5,25.5l-15.3,0.3C92.5,46.7,55.5,95.3,55.5,95.3L75.9,97C75.9,97,107.1,55.4,146.5,25.5z"/>
		<path class="st12" d="M276.7,85c-2.8,17.2-24.1,57-42.1,87.4c-11.1,18.7-31.4,30.4-53.2,30.4h-47.8c-6.3,0-11.9-4.1-13.7-10.1
			c-4.6-14.7-12.4-40.9-13.1-50.6c-0.9-11.9,1.3-35.8,2.1-43.7c0.2-1.6,0.2-2.2,0.2-2.3V76.2c-0.4,0.5-0.7,0.9-1.1,1.4V96
			c0,0.1-0.1,1.1-0.2,2.2c-0.7,7.9-2.9,31.9-2.1,43.9c0.7,9.9,8.6,36.1,13.2,50.9c2,6.5,8,10.9,14.8,10.9h47.8
			c22.1,0,42.8-11.8,54.1-30.9c18-30.5,39.6-70.7,42.4-88.1L276.7,85z"/>
		<path class="st13" d="M10.4,145.9c0,0,7.7-1,10.5-1.6c2.8-0.6,13.7-13.2,15.4-14.9c1.7-1.7,5.8-6,6.3-7.6c0.5-1.7-19.8,1.7-22,4.2
			C13.1,134.4,10.4,145.9,10.4,145.9z"/>
		<path class="st14" d="M20.5,126c-0.8,0.9-1.5,1.8-2.1,2.7c6-2.2,19.3-4.9,19-3.8c-0.4,1.3-6,3.9-7.5,5.3
			c-1.5,1.4-9.8,13.2-12.6,13.9c-1.5,0.4-4.4,1-6.8,1.4c-0.1,0.3-0.1,0.4-0.1,0.4s7.7-1,10.5-1.6c2.8-0.6,13.7-13.2,15.4-14.9
			c1.7-1.7,5.8-6,6.3-7.6C43,120.2,22.7,123.6,20.5,126z"/>
		<path class="st15" d="M31.2,119.8c0,0,30.1-10.3,44.6-11.8c14.6-1.4,250.7-14.3,253.4-14c2.8,0.3-5-9.7-8.9-10.1
			S84.5,98.2,77.6,99.6C70.6,101,47.1,109.7,31.2,119.8z"/>
		<path class="st16" d="M30.8,126.9c-1.1-1.3-4.2,0.9-7,4.7c-2.8,3.9-4.2,8-3.1,9.2c1.1,1.3,4.2-0.9,7-4.7
			C30.5,132.3,31.9,128.1,30.8,126.9z M26.3,134.6c-1.7,2.3-3.5,3.5-4.2,2.8c-0.6-0.7,0.2-3.2,1.9-5.5c1.7-2.3,3.5-3.5,4.2-2.8
			C28.8,129.8,28,132.3,26.3,134.6z"/>
		<path class="st16" d="M20.7,132c-0.8-0.8-2.9,0.8-4.7,3.7s-2.6,5.9-1.8,6.7c0.8,0.8,2.9-0.8,4.7-3.7
			C20.7,135.8,21.5,132.8,20.7,132z M17.8,137.6c-1.1,1.7-2.3,2.7-2.8,2.2c-0.5-0.5,0-2.3,1-4c1.1-1.7,2.3-2.7,2.8-2.2
			C19.4,134.1,18.9,135.9,17.8,137.6z"/>
		<g>
			<path class="st5" d="M251,95.9c4.7,2.7,19.1,2.2,21.9,2.1c1.9-5.1,3.2-9.5,3.8-13l-31.5,2.1C246,89.8,247.7,94,251,95.9z"/>
		</g>
		<path class="st17" d="M258.5,97.3c0.1,0.2,0.2,0.4,0.4,0.5c5.7,0.6,12.3,0.3,14.1,0.2c1-2.7,1.8-5.1,2.5-7.4l-14.1,0.9
			C258.5,91.7,256.9,94.9,258.5,97.3z"/>
		<path class="st11" d="M303.2,17.9c-0.2,0-12.5,0-17.2,0c-4.7,0,32.8,58.6,38.6,62.7c5.7,4.1,20.3,7.3,20.5,7.3
			C335,60.1,313.8,28,303.2,17.9z"/>
		<path class="st18" d="M353,115.1c2.4,0.2,8.7,1.5,9.3,2s1.5,19.8,0.9,20c-0.6,0.1-3.6-0.1-4.5-1
			C357.5,134.9,346.6,114.5,353,115.1z"/>
		<path class="st19" d="M362.7,127.5c-0.6-0.1-6.9-2.2-7.1-2.3c-1.8-2.4-3.2-5.2-2.7-8.1c1.9,0.2,7.3,1.1,9,1.5
			C362.3,121.6,362.6,123.8,362.7,127.5z"/>
		<path class="st19" d="M105.2,63c-11.8,4-22.6,8-32.3,11.7C62.2,86.4,55.5,95.3,55.5,95.3L75.9,97C75.9,97,87.4,81.7,105.2,63z"/>
		<path class="st19" d="M273.8,72.8c-2.1-14.6-6.4-38.1-13-49c-50.9,8.9-94.3,19.9-130.1,31c-7.9,8-15,16.4-20.8,23.7v15.5
			C162.9,85.9,223.3,78.5,273.8,72.8z"/>
		<path class="st19" d="M314.9,68.2c7.3-0.8,14.2-1.5,20.6-2.2c-10.7-21-24.4-40.6-32.3-48.2c-0.1,0-2.5,0-5.6,0
			c-4,0.6-7.9,1.2-11.8,1.8C287.9,26.6,303.9,52.4,314.9,68.2z"/>
		<g>
			<path class="st5" d="M125.4,96.4c0,0.8-5,1.5-8.8,1.5c-3.7,0-4.8-0.7-4.8-1.5s3-1.5,6.8-1.5C122.3,94.9,125.4,95.6,125.4,96.4z"
				/>
			<path class="st10" d="M128.3,96c-1.8,0-15,0.4-16.4,0.4c-1.4,0,1.3-7.4,4.8-11.5c4-4.7,6.6-6.3,7.5-5.6
				C126.9,81.2,130.9,96,128.3,96z"/>
		</g>
	</g>
</g>
</svg>
