<?xml version="1.0" encoding="utf-8"?>
<!-- Generator: Adobe Illustrator 23.0.0, SVG Export Plug-In . SVG Version: 6.00 Build 0)  -->
<svg version="1.1" id="Layer_1" xmlns="http://www.w3.org/2000/svg" xmlns:xlink="http://www.w3.org/1999/xlink" x="0px" y="0px"
	 width="487.3px" height="165.3px" viewBox="0 0 487.3 165.3" style="enable-background:new 0 0 487.3 165.3;" xml:space="preserve"
	>
<style type="text/css">
	.st0{fill:#15191B;}
	.st1{fill:#5555A5;}
	.st2{fill:#414141;}
	.st3{fill:#1E2429;}
	.st4{fill:#D12E34;}
	.st5{fill:#F15B27;}
	.st6{fill:#ABCAEB;}
	.st7{fill:#89B3DF;}
	.st8{fill:#333333;}
	.st9{fill:#3B4E8A;}
	.st10{fill:#9FC1E6;}
	.st11{opacity:0.3;fill:#010101;}
	.st12{fill:#C7DDF2;}
	.st13{fill:#DBE8F7;}
	.st14{opacity:0.8;fill:#5555A5;}
	.st15{fill:#FBB03B;}
	.st16{opacity:0.2;fill:#010101;}
	.st17{opacity:0.2;fill:#FFFFFF;}
	.st18{opacity:0.4;fill:#FFFFFF;}
	.st19{fill:#484A64;}
	.st20{fill:#ECF2FA;}
	.st21{fill:#9FC0E6;}
	.st22{fill:#8CB1DE;}
	.st23{fill:#DAE7F6;}
	.st24{fill:#0F0E14;}
	.st25{fill:#C2D9F1;}
	.st26{fill:#434343;}
	.st27{fill:#475474;}
	.st28{opacity:0.3;fill:#FFFFFF;}
</style>
<g>
	<path class="st0" d="M70.8,104.3H30.3c-4.7,7.1-7.6,16.7-7.6,27.2c0,2.9,0,5.6,0,8.2h55.6c0-2.6,0.1-5.3,0.1-8.2
		C78.4,121,75.5,111.4,70.8,104.3z"/>
	<g>
		
			<rect x="155.4" y="109" transform="matrix(-1 -1.224647e-16 1.224647e-16 -1 580.364 239.0228)" class="st0" width="269.6" height="21.1"/>
		
			<rect x="270.6" y="114.4" transform="matrix(-1 -1.224647e-16 1.224647e-16 -1 548.6698 254.6965)" class="st1" width="7.5" height="26"/>
		
			<rect x="158.6" y="135.4" transform="matrix(-1 -1.224647e-16 1.224647e-16 -1 437.9376 275.8329)" class="st1" width="120.7" height="5.1"/>
		
			<rect x="158.6" y="126.4" transform="matrix(-1 -1.224647e-16 1.224647e-16 -1 437.9376 257.8747)" class="st1" width="120.7" height="5.1"/>
		
			<rect x="159.8" y="114.4" transform="matrix(-1 -1.224647e-16 1.224647e-16 -1 327.2054 254.6965)" class="st1" width="7.5" height="26"/>
		<g>
			
				<rect x="280.8" y="114.4" transform="matrix(-1 -1.224647e-16 1.224647e-16 -1 597.915 250.6523)" class="st1" width="36.3" height="21.9"/>
			
				<rect x="280.8" y="133.3" transform="matrix(-1 -1.224647e-16 1.224647e-16 -1 597.915 269.5528)" class="st1" width="36.3" height="3"/>
			<path class="st2" d="M304.2,118.9v1.5c0,0.3-0.2,0.5-0.5,0.5h-1.8c-0.2,0-0.4-0.1-0.5-0.3c-0.2-0.3-0.5-0.5-0.8-0.5h-3
				c-0.4,0-0.7,0.2-0.8,0.5c-0.1,0.2-0.3,0.3-0.5,0.3h-1.8c-0.3,0-0.5-0.2-0.5-0.5v-1.5c0-0.3,0.2-0.5,0.5-0.5h9.3
				C303.9,118.4,304.2,118.6,304.2,118.9z"/>
		</g>
		<g>
			
				<rect x="387.1" y="114.4" transform="matrix(-1 -1.224647e-16 1.224647e-16 -1 810.4763 250.6523)" class="st1" width="36.3" height="21.9"/>
			
				<rect x="387.1" y="133.3" transform="matrix(-1 -1.224647e-16 1.224647e-16 -1 810.4763 269.5528)" class="st1" width="36.3" height="3"/>
			<path class="st2" d="M410.5,118.9v1.5c0,0.3-0.2,0.5-0.5,0.5h-1.8c-0.2,0-0.4-0.1-0.5-0.3c-0.2-0.3-0.5-0.5-0.8-0.5h-3
				c-0.4,0-0.7,0.2-0.8,0.5c-0.1,0.2-0.3,0.3-0.5,0.3h-1.8c-0.3,0-0.5-0.2-0.5-0.5v-1.5c0-0.3,0.2-0.5,0.5-0.5h9.3
				C410.2,118.4,410.5,118.6,410.5,118.9z"/>
		</g>
		<g>
			<path class="st3" d="M325.4,136.2c0.3,0,0.5-0.2,0.5-0.5c0-14.7,10.8-24.9,26.2-24.9c15.4,0,26.2,10.2,26.2,24.9
				c0,0.3,0.2,0.5,0.5,0.5s0.5-0.2,0.5-0.5c0-15.2-11.2-25.9-27.2-25.9c-16,0-27.2,10.6-27.2,25.9
				C324.9,136,325.1,136.2,325.4,136.2z"/>
		</g>
		
			<rect x="425" y="125.8" transform="matrix(-1 -1.224647e-16 1.224647e-16 -1 864.0339 255.8359)" class="st2" width="14.1" height="4.2"/>
		
			<rect x="425" y="115.4" transform="matrix(-1 -1.224647e-16 1.224647e-16 -1 864.0339 235.1228)" class="st2" width="14.1" height="4.2"/>
		<rect x="439" y="115.4" class="st2" width="5.2" height="15"/>
		<path class="st4" d="M441.5,119.2h3.3c1.1,0,2,0.9,2,2v3.4c0,1.1-0.9,2-2,2h-3.3V119.2z"/>
		
			<rect x="403.3" y="128.9" transform="matrix(-1 -1.224647e-16 1.224647e-16 -1 810.4763 259.1331)" class="st5" width="3.9" height="1.3"/>
		
			<rect x="297" y="128.9" transform="matrix(-1 -1.224647e-16 1.224647e-16 -1 597.915 259.1331)" class="st5" width="3.9" height="1.3"/>
		
			<rect x="161.6" y="128.9" transform="matrix(-1 -1.224647e-16 1.224647e-16 -1 327.2054 259.1331)" class="st5" width="3.9" height="1.3"/>
		
			<rect x="272.4" y="128.9" transform="matrix(-1 -1.224647e-16 1.224647e-16 -1 548.6698 259.1331)" class="st5" width="3.9" height="1.3"/>
	</g>
	<g>
		<circle class="st6" cx="352.1" cy="135.7" r="14.7"/>
		<circle class="st7" cx="352.1" cy="135.7" r="13.1"/>
		<path class="st8" d="M328,135.7c0,13.3,10.8,24.1,24.1,24.1s24.1-10.8,24.1-24.1c0-13.3-10.8-24.1-24.1-24.1S328,122.4,328,135.7z
			 M337.4,135.7c0-8.1,6.6-14.7,14.7-14.7c8.1,0,14.7,6.6,14.7,14.7s-6.6,14.7-14.7,14.7C344,150.4,337.4,143.9,337.4,135.7z"/>
		<path class="st2" d="M330.7,135.7c0-11.8,9.6-21.4,21.4-21.4c11.8,0,21.4,9.6,21.4,21.4c0,11.8-9.6,21.4-21.4,21.4
			C340.3,157.1,330.7,147.5,330.7,135.7z M334.7,135.7c0,9.6,7.8,17.3,17.3,17.3c9.6,0,17.3-7.8,17.3-17.3c0-9.6-7.8-17.3-17.3-17.3
			C342.5,118.4,334.7,126.2,334.7,135.7z"/>
		<g>
			<g>
				<g>
					<path class="st9" d="M351,124.4c0,0.6,0.5,0.8,1.1,0.8s1.1-0.1,1.1-0.8s-0.5-1.2-1.1-1.2S351,123.7,351,124.4z"/>
					<path class="st9" d="M353.2,147.1c0-0.6-0.5-0.8-1.1-0.8s-1.1,0.1-1.1,0.8c0,0.6,0.5,1.2,1.1,1.2S353.2,147.7,353.2,147.1z"/>
				</g>
				<g>
					<path class="st9" d="M340.7,136.9c0.6,0,0.8-0.5,0.8-1.1c0-0.6-0.1-1.1-0.8-1.1c-0.6,0-1.2,0.5-1.2,1.1
						C339.6,136.4,340.1,136.9,340.7,136.9z"/>
					<path class="st9" d="M363.5,134.6c-0.6,0-0.8,0.5-0.8,1.1c0,0.6,0.1,1.1,0.8,1.1s1.2-0.5,1.2-1.1
						C364.6,135.1,364.1,134.6,363.5,134.6z"/>
				</g>
			</g>
			<g>
				<g>
					<path class="st9" d="M356.8,125.4c-0.3,0.6,0,0.9,0.6,1.2c0.5,0.3,1,0.5,1.3-0.1c0.3-0.6,0.2-1.3-0.4-1.6
						C357.8,124.6,357.1,124.8,356.8,125.4z"/>
					<path class="st9" d="M347.4,146.1c0.3-0.6,0-0.9-0.6-1.2c-0.5-0.3-1-0.5-1.3,0.1c-0.3,0.6-0.2,1.3,0.4,1.6
						C346.4,146.9,347.1,146.7,347.4,146.1z"/>
				</g>
				<g>
					<path class="st9" d="M341.7,131c0.6,0.3,0.9,0,1.2-0.6c0.3-0.5,0.5-1-0.1-1.3c-0.6-0.3-1.3-0.2-1.6,0.4
						C340.9,130,341.1,130.7,341.7,131z"/>
					<path class="st9" d="M362.5,140.5c-0.6-0.3-0.9,0-1.2,0.6c-0.3,0.5-0.5,1,0.1,1.3c0.6,0.3,1.3,0.2,1.6-0.4
						C363.3,141.5,363,140.8,362.5,140.5z"/>
				</g>
			</g>
			<g>
				<g>
					<path class="st9" d="M361.4,129.1c-0.6,0.3-0.4,0.8-0.1,1.3c0.3,0.5,0.7,0.9,1.2,0.6c0.6-0.3,0.8-1,0.5-1.5
						C362.6,128.9,361.9,128.8,361.4,129.1z"/>
					<path class="st9" d="M342.8,142.4c0.6-0.3,0.4-0.8,0.1-1.3c-0.3-0.5-0.7-0.9-1.2-0.6c-0.6,0.3-0.8,1-0.5,1.5
						C341.6,142.5,342.3,142.7,342.8,142.4z"/>
				</g>
				<g>
					<path class="st9" d="M345.5,126.5c0.3,0.6,0.8,0.4,1.3,0.1c0.5-0.3,0.9-0.7,0.6-1.2c-0.3-0.6-1-0.8-1.5-0.5
						C345.3,125.2,345.1,125.9,345.5,126.5z"/>
					<path class="st9" d="M358.7,145c-0.3-0.6-0.8-0.4-1.3-0.1c-0.5,0.3-0.9,0.7-0.6,1.2c0.3,0.6,1,0.8,1.5,0.5
						C358.9,146.3,359.1,145.6,358.7,145z"/>
				</g>
			</g>
		</g>
		<path class="st10" d="M337.1,135.7c0,8.3,6.7,15,15,15s15-6.7,15-15c0-8.3-6.7-15-15-15S337.1,127.4,337.1,135.7z M338,135.7
			c0-7.8,6.3-14.1,14.1-14.1c7.8,0,14.1,6.3,14.1,14.1s-6.3,14.1-14.1,14.1C344.3,149.9,338,143.5,338,135.7z"/>
		<path class="st11" d="M352.1,130c-6.3,0-11.5,4.9-12,11c-0.7-1.6-1.1-3.4-1.1-5.3c0-7.2,5.9-13.1,13.1-13.1
			c7.2,0,13.1,5.9,13.1,13.1c0,1.9-0.4,3.7-1.1,5.3C363.6,134.9,358.4,130,352.1,130z"/>
		<circle class="st6" cx="352.1" cy="135.7" r="8.9"/>
		<circle class="st12" cx="352.1" cy="135.7" r="8.1"/>
		
			<ellipse transform="matrix(0.9732 -0.2298 0.2298 0.9732 -21.768 84.5263)" class="st7" cx="352.1" cy="135.7" rx="4.1" ry="4.1"/>
	</g>
	<g>
		
			<ellipse transform="matrix(0.3827 -0.9239 0.9239 0.3827 -94.1927 130.5138)" class="st10" cx="50.6" cy="135.7" rx="16.2" ry="16.2"/>
		<path class="st11" d="M38.7,124.7c-0.6,1.8-1,3.8-1,5.9c0,9,6.6,16.2,14.8,16.2c6.8,0,12.6-5.1,14.3-11.9c0,0.3,0,0.6,0,0.9
			c0,9-7.3,16.2-16.2,16.2c-9,0-16.2-7.3-16.2-16.2C34.3,131.5,36,127.6,38.7,124.7z"/>
		<path class="st8" d="M26.5,135.7c0,13.3,10.8,24.1,24.1,24.1s24.1-10.8,24.1-24.1c0-13.3-10.8-24.1-24.1-24.1
			S26.5,122.4,26.5,135.7z M34.6,135.7c0-8.8,7.2-16,16-16s16,7.2,16,16c0,8.8-7.2,16-16,16S34.6,144.6,34.6,135.7z"/>
		<path class="st2" d="M28.6,135.7c0-12.1,9.9-22,22-22s22,9.9,22,22s-9.9,22-22,22S28.6,147.9,28.6,135.7z M32.7,135.7
			c0,9.8,8,17.8,17.8,17.8s17.8-8,17.8-17.8s-8-17.8-17.8-17.8S32.7,125.9,32.7,135.7z"/>
		<circle class="st13" cx="50.6" cy="135.7" r="11.2"/>
		<circle class="st12" cx="50.6" cy="135.7" r="8.7"/>
		<circle class="st7" cx="50.6" cy="135.7" r="4.2"/>
		<g>
			<g>
				<g>
					<path class="st9" d="M49.3,122.3c0,0.8,0.6,0.9,1.3,0.9c0.7,0,1.3-0.1,1.3-0.9c0-0.8-0.6-1.4-1.3-1.4
						C49.8,120.9,49.3,121.5,49.3,122.3z"/>
					<path class="st9" d="M51.9,149.2c0-0.8-0.6-0.9-1.3-0.9c-0.7,0-1.3,0.1-1.3,0.9c0,0.8,0.6,1.4,1.3,1.4
						C51.3,150.6,51.9,149.9,51.9,149.2z"/>
				</g>
				<g>
					<path class="st9" d="M37.1,137.1c0.8,0,0.9-0.6,0.9-1.3c0-0.7-0.1-1.3-0.9-1.3s-1.4,0.6-1.4,1.3
						C35.7,136.5,36.4,137.1,37.1,137.1z"/>
					<path class="st9" d="M64,134.4c-0.8,0-0.9,0.6-0.9,1.3c0,0.7,0.1,1.3,0.9,1.3c0.8,0,1.4-0.6,1.4-1.3
						C65.4,135,64.8,134.4,64,134.4z"/>
				</g>
			</g>
			<g>
				<g>
					<path class="st9" d="M56.1,123.5c-0.4,0.7,0.1,1.1,0.7,1.4c0.6,0.4,1.2,0.5,1.6-0.1c0.4-0.7,0.2-1.5-0.4-1.9
						C57.4,122.5,56.5,122.8,56.1,123.5z"/>
					<path class="st9" d="M45,148c0.4-0.7-0.1-1.1-0.7-1.4c-0.6-0.4-1.2-0.5-1.6,0.1c-0.4,0.7-0.2,1.5,0.4,1.9
						C43.8,148.9,44.6,148.7,45,148z"/>
				</g>
				<g>
					<path class="st9" d="M38.3,130.2c0.7,0.4,1.1-0.1,1.4-0.7c0.4-0.6,0.5-1.2-0.1-1.6c-0.7-0.4-1.5-0.2-1.9,0.4
						C37.4,129,37.6,129.8,38.3,130.2z"/>
					<path class="st9" d="M62.9,141.3c-0.7-0.4-1.1,0.1-1.4,0.7c-0.4,0.6-0.5,1.2,0.1,1.6c0.7,0.4,1.5,0.2,1.9-0.4
						S63.5,141.7,62.9,141.3z"/>
				</g>
			</g>
			<g>
				<g>
					<path class="st9" d="M61.5,127.9c-0.7,0.4-0.5,1-0.1,1.6c0.4,0.6,0.8,1.1,1.4,0.7c0.7-0.4,0.9-1.2,0.5-1.8
						C63,127.7,62.2,127.5,61.5,127.9z"/>
					<path class="st9" d="M39.6,143.6c0.7-0.4,0.5-1,0.1-1.6c-0.4-0.6-0.8-1.1-1.4-0.7c-0.7,0.4-0.9,1.2-0.5,1.8
						S38.9,144,39.6,143.6z"/>
				</g>
				<g>
					<path class="st9" d="M42.7,124.8c0.4,0.7,1,0.5,1.6,0.1c0.6-0.4,1.1-0.8,0.7-1.4c-0.4-0.7-1.2-0.9-1.8-0.5
						C42.5,123.3,42.3,124.1,42.7,124.8z"/>
					<path class="st9" d="M58.4,146.7c-0.4-0.7-1-0.5-1.6-0.1c-0.6,0.4-1.1,0.8-0.7,1.4c0.4,0.7,1.2,0.9,1.8,0.5
						C58.6,148.2,58.8,147.4,58.4,146.7z"/>
				</g>
			</g>
		</g>
		<path class="st13" d="M34.2,135.7c0,9.1,7.3,16.4,16.4,16.4S67,144.8,67,135.7c0-9.1-7.3-16.4-16.4-16.4S34.2,126.7,34.2,135.7z
			 M35.1,135.7c0-8.5,6.9-15.4,15.4-15.4S66,127.2,66,135.7c0,8.5-6.9,15.4-15.4,15.4S35.1,144.3,35.1,135.7z"/>
	</g>
	<g>
		<polygon class="st14" points="430,109 165.6,109 165.6,99.4 487.3,99.4 487.3,100.6 		"/>
		<polygon class="st1" points="165.6,99.4 184,99.4 169.6,59.4 165.6,59.4 		"/>
		<g>
			
				<rect x="272.9" y="100.9" transform="matrix(-1 -1.224647e-16 1.224647e-16 -1 701.9768 208.3642)" class="st15" width="156.1" height="6.7"/>
			<g>
				<polygon class="st3" points="369.4,107.5 375.4,107.5 370.9,100.9 364.8,100.9 				"/>
				<polygon class="st3" points="356.6,107.5 362.7,107.5 358.1,100.9 352.1,100.9 				"/>
				<polygon class="st3" points="343.9,107.5 349.9,107.5 345.3,100.9 339.3,100.9 				"/>
				<polygon class="st3" points="331.1,107.5 337.1,107.5 332.6,100.9 326.6,100.9 				"/>
				<polygon class="st3" points="420.4,107.5 426.5,107.5 421.9,100.9 415.9,100.9 				"/>
				<polygon class="st3" points="407.7,107.5 413.7,107.5 409.2,100.9 403.1,100.9 				"/>
				<polygon class="st3" points="394.9,107.5 400.9,107.5 396.4,100.9 390.4,100.9 				"/>
				<polygon class="st3" points="382.2,107.5 388.2,107.5 383.6,100.9 377.6,100.9 				"/>
				<polygon class="st3" points="318.3,107.5 324.4,107.5 319.8,100.9 313.8,100.9 				"/>
				<polygon class="st3" points="305.6,107.5 311.6,107.5 307.1,100.9 301,100.9 				"/>
				<polygon class="st3" points="292.8,107.5 298.9,107.5 294.3,100.9 288.3,100.9 				"/>
				<polygon class="st3" points="280.1,107.5 286.1,107.5 281.5,100.9 275.5,100.9 				"/>
			</g>
		</g>
	</g>
	<g>
		<g>
			<path class="st8" d="M142,8.7h5.5c0.4,0,0.8,0.2,1,0.6l1.1,1.9h-9.7l1.1-1.9C141.2,8.9,141.6,8.7,142,8.7z"/>
			<path class="st5" d="M143.7,4.5h2.1c0.4,0,0.7,0.3,0.8,0.6l0.6,3.6h-4.8l0.6-3.6C143,4.8,143.3,4.5,143.7,4.5z"/>
			<path class="st16" d="M145,4.5h0.6c0.4,0,0.7,0.3,0.7,0.6l0.6,3.6h-1.4l-0.2-3.6C145.3,4.8,145.2,4.5,145,4.5z"/>
			<path class="st17" d="M143.6,5.1c0-0.4,0.2-0.6,0.4-0.6h0.3c-0.1,0-0.1,0.3-0.1,0.6l-0.1,3.6h-0.7L143.6,5.1z"/>
		</g>
		<path class="st1" d="M152.7,9.8c-9.5,0.8-41.3,3.8-52.5,8.6c-11.7,5.1-39.1,46.1-39.1,46.1S32,71.9,24.4,78.4
			C18.8,83,9.8,101.9,9.8,101.9l2.6,39.2h12.4c0-1.7,0-3.6,0-5.5c0-14.8,11.5-26.8,25.8-26.8c14.2,0,25.8,12,25.8,26.8
			c0,2,0,3.8-0.1,5.5h79.1V12.3C155.4,10.8,154.1,9.7,152.7,9.8z"/>
		<g>
			<polygon class="st15" points="31.9,90.3 38.2,90 44.2,89.8 51,89.5 57,89.2 63.7,88.9 69.7,88.7 76.5,88.4 82.5,88.1 89.2,87.8 
				95.2,87.6 102,87.3 108,87 114.7,86.7 120.7,86.5 127.5,86.2 133.5,85.9 140.2,85.6 153,85.1 155.4,85 155.4,78.3 154.1,78.4 
				148.1,78.6 141.4,78.9 135.4,79.2 128.7,79.5 115.9,80 109.9,80.3 103.2,80.6 97.1,80.8 84.4,81.4 77.7,81.7 71.6,81.9 
				64.9,82.2 58.9,82.5 46.1,83 39.4,83.3 35.5,83.5 35.5,83.5 34.6,85.2 			"/>
			<g>
				<polygon class="st3" points="102,87.3 108,87 103.2,80.6 97.1,80.8 				"/>
				<polygon class="st3" points="89.2,87.8 95.2,87.6 90.4,81.1 84.4,81.4 				"/>
				<polygon class="st3" points="76.5,88.4 82.5,88.1 77.7,81.7 71.6,81.9 				"/>
				<polygon class="st3" points="63.7,88.9 69.7,88.7 64.9,82.2 58.9,82.5 				"/>
				<polygon class="st3" points="148.1,78.6 153,85.1 155.4,85 155.4,80 154.1,78.4 				"/>
				<polygon class="st3" points="140.2,85.6 146.2,85.4 141.4,78.9 135.4,79.2 				"/>
				<polygon class="st3" points="127.5,86.2 133.5,85.9 128.7,79.5 122.6,79.7 				"/>
				<polygon class="st3" points="114.7,86.7 120.7,86.5 115.9,80 109.9,80.3 				"/>
				<polygon class="st3" points="51,89.5 57,89.2 52.2,82.8 46.1,83 				"/>
				<polygon class="st3" points="34.6,85.2 38.2,90 44.2,89.8 39.4,83.3 35.5,83.5 				"/>
			</g>
		</g>
		<path class="st18" d="M30.1,78.5c5.6-4.2,26.7-11.2,32.5-11.8c5.8-0.7,87.5-10.5,87.5-10.5l5.3-0.5v12.2
			C132.6,69.8,47,77.3,35.5,83.5c-13.4,7.2-14.6,5.8-14.6,5.8S24.5,82.7,30.1,78.5z"/>
		<path class="st19" d="M36.7,112.9l0.1-0.6l6-7.4c0,0-19.9,0.2-20.4,0.1c-1.8-0.6-11.3-3.2-12.8-3.2c-1,0-5.2,3.7-5.4,4.5
			c-1.3,3.8,3.5,34.7,4.8,34.7c0.9,0,10,0,15.7,0c0-1.7,0-3.6,0-5.5C24.8,126,29.5,117.6,36.7,112.9z"/>
		<path class="st16" d="M29.1,120.7c-9,0-18.6,0-19.8,0c-1.9,0-4.4-6.8-5.1-8.6c0.7,10.1,3.9,29,4.9,29c0.9,0,10,0,15.7,0
			c0-1.7,0-3.6,0-5.5C24.8,130,26.4,124.9,29.1,120.7z"/>
		<path class="st20" d="M50.6,102.9c-16.4,0-29.7,14.2-29.7,31.6c0,2.3,0,4.5,0.1,6.5h3.9c0-1.7,0-3.6,0-5.5
			c0-14.8,11.5-26.8,25.8-26.8c14.2,0,25.8,12,25.8,26.8c0,2,0,3.8-0.1,5.5h3.9c0-2.1,0.1-4.2,0.1-6.5
			C80.2,117.1,66.9,102.9,50.6,102.9z"/>
		<g>
			<path class="st21" d="M10,101.4c0,0,16.9-3.3,17.7-3.9c0.8-0.6,7.6-13.6,7.8-14.1c0.2-0.6-15.2,0.6-15.9,0.7
				c-0.7,0.2-4.1,5.5-4.7,6.6C14.2,91.8,10,101.4,10,101.4z"/>
			<path class="st22" d="M23.2,95.7c0.7-0.4,5-8.6,6.9-12.3c3-0.2,5.5-0.2,5.4,0c-0.2,0.6-7,13.6-7.8,14.1
				c-0.8,0.6-17.7,3.9-17.7,3.9s0.6-1.3,1.4-3C16.3,97.4,22.7,96.1,23.2,95.7z"/>
			<path class="st23" d="M20.8,89.7c-0.9,2.9-0.2,5.7,1.7,6.3c1.9,0.6,4.1-1.2,5-4.1c0.9-2.9,0.2-5.7-1.7-6.3
				C23.9,85,21.7,86.8,20.8,89.7z M21.2,89.8c0.6-1.9,2.1-3.1,3.3-2.7c1.2,0.4,1.7,2.2,1.1,4.1c-0.6,1.9-2.1,3.1-3.3,2.7
				C21.1,93.5,20.6,91.6,21.2,89.8z"/>
			<path class="st23" d="M14.7,94c-0.6,2-0.1,4,1.2,4.4c1.3,0.4,2.9-0.9,3.5-2.9c0.6-2,0.1-4-1.2-4.4C16.9,90.6,15.3,91.9,14.7,94z
				 M15,94.1c0.4-1.3,1.4-2.2,2.3-1.9c0.9,0.3,1.2,1.6,0.8,2.9c-0.4,1.3-1.4,2.2-2.3,1.9C14.9,96.6,14.5,95.4,15,94.1z"/>
			<path class="st17" d="M35.5,83.5c-0.1,0.3-2.5,4.9-4.6,8.8c-3.1,0.4-11.1,1.9-19.9,6.8c1.3-2.9,3.4-7.6,3.9-8.3
				c0.4-0.7,2-3.1,3.2-4.8c1.9-0.7,3.9-1.5,5.9-2.1C28.8,83.5,35.6,83.1,35.5,83.5z"/>
		</g>
		<path class="st8" d="M77.8,64.8V46c7.3-9.2,15.3-18.1,20.3-20.2c10-4.3,39.8-6.6,52.1-7.4c0,4.1-2.1,19.8-3.5,29.6
			c-0.7,4.8-4.5,8.6-9.3,9.2L77.8,64.8z"/>
		<path class="st24" d="M137.1,55.2c3.9-0.5,7.1-3.6,7.6-7.5c1.9-13.2,3-22.7,3.4-27.2c-13.2,0.9-40,3.1-49.2,7.1
			c-3.8,1.6-10.5,8.4-19.1,19.1v15.9L137.1,55.2z"/>
		<path class="st8" d="M77.8,64.8l-15.2,1.8l0.5-0.8c3-4.4,8.6-12.3,14.6-19.9V64.8z"/>
		<path class="st25" d="M134.1,75c0,1.1,2.4,1.9,5.5,1.9c3,0,5.5-0.9,5.5-1.9c0-1.1-2.4-1.9-5.5-1.9C136.6,73.1,134.1,73.9,134.1,75
			z"/>
		<path class="st2" d="M133.1,75c0,0.5,2.3,0.9,7.6,0.9c5.2,0,5.5-0.4,5.5-0.9c0-0.5-0.2-0.9-5.5-0.9
			C135.4,74.1,133.1,74.5,133.1,75z"/>
		<path class="st26" d="M73.3,63.8h3.8V52.7l0,0c-3.3,0-6,2.7-6,6v2.9C71.1,62.8,72.1,63.8,73.3,63.8z"/>
		<g>
			<path class="st27" d="M138.5,138.8h-50c-0.7,0-1.2-0.5-1.2-1.2v0c0-6.9-1.7-13.7-4.9-19.6c-3.2-5.8-4.8-12.5-4.8-19.3V49.5
				c0-2.4,0.8-4.7,2.3-6.5C88,33.1,94,27.2,97.9,25.5c10-4.3,39.8-6.6,52.1-7.4c0.1,0,0.1,0,0.2,0.1c0,0,0.1,0.1,0.1,0.2v86
				c0,2.2-3,17.2-5.5,29.3C144.2,136.7,141.6,138.8,138.5,138.8z M149.9,18.7c-12.5,0.8-41.8,3-51.7,7.3c-3.8,1.6-10,7.6-17.9,17.3
				c-1.4,1.8-2.2,4-2.2,6.2v49.2c0,6.7,1.6,13.3,4.8,19.1c3.3,6,5,12.9,5,19.9v0c0,0.4,0.3,0.7,0.7,0.7h50c2.8,0,5.2-2,5.8-4.7
				c3.6-17.1,5.5-27.5,5.5-29.2V18.7z"/>
		</g>
		<path class="st28" d="M145.4,42.8c1.5-10.7,2.4-18.3,2.7-22.3c-0.4,0-0.9,0.1-1.3,0.1c-22.6,6.3-42.8,12.5-60.6,18.5
			c-2,2.2-4.1,4.8-6.3,7.6v11.7C101.5,53.1,124.2,47.7,145.4,42.8z"/>
	</g>
</g>
</svg>
