<?xml version="1.0" encoding="utf-8"?>
<!-- Generator: Adobe Illustrator 23.0.0, SVG Export Plug-In . SVG Version: 6.00 Build 0)  -->
<svg version="1.1" id="Layer_1" xmlns="http://www.w3.org/2000/svg" xmlns:xlink="http://www.w3.org/1999/xlink" x="0px" y="0px"
	 width="680.3px" height="237.7px" viewBox="0 0 680.3 237.7" style="enable-background:new 0 0 680.3 237.7;" xml:space="preserve"
	>
<style type="text/css">
	.st0{fill:#15191B;}
	.st1{fill:#273945;}
	.st2{fill:#3F5B71;}
	.st3{fill:#425376;}
	.st4{fill:#8D251C;}
	.st5{fill:#C7DDF2;}
	.st6{fill:#ABCAEB;}
	.st7{fill:#333333;}
	.st8{fill:#414141;}
	.st9{fill:#DBE8F7;}
	.st10{fill:#5555A5;}
	.st11{opacity:0.4;}
	.st12{fill:#010101;}
	.st13{fill:#0F0E14;}
	.st14{opacity:0.3;fill:#C2D9F1;}
	.st15{fill:#D6E4F5;}
	.st16{fill:#9FC0E6;}
	.st17{fill:#8CB1DE;}
	.st18{opacity:0.2;fill:#FFFFFF;}
	.st19{fill:#D12E34;}
	.st20{opacity:0.3;fill:#FFFFFF;}
	.st21{opacity:0.2;fill:#010101;}
	.st22{opacity:0.6;fill:#010101;}
	.st23{opacity:0.6;fill:#D8E6F6;}
</style>
<g>
	<polygon class="st0" points="48,217.5 49.2,219 164.8,219 516.6,219 618.6,215.2 635.1,127.2 48,127.2 	"/>
	<g>
		<g>
			<path class="st1" d="M108.8,151.8l11.6,3.5c1,0.3,2-0.3,2.2-1.2l0,0c0.3-1-0.3-2-1.2-2.2l-11.6-3.5c-1-0.3-2,0.3-2.2,1.2l0,0
				C107.3,150.5,107.9,151.5,108.8,151.8z"/>
			<path class="st2" d="M121.5,155.4l-11.6,3.5c-1,0.3-2-0.3-2.2-1.2l0,0c-0.3-1,0.3-2,1.2-2.2l11.6-3.5c1-0.3,2,0.3,2.2,1.2l0,0
				C122.9,154.1,122.4,155.1,121.5,155.4z"/>
			<path class="st1" d="M108.8,144.7l11.6,3.5c1,0.3,2-0.3,2.2-1.2l0,0c0.3-1-0.3-2-1.2-2.2l-11.6-3.5c-1-0.3-2,0.3-2.2,1.2l0,0
				C107.3,143.4,107.9,144.4,108.8,144.7z"/>
			<path class="st2" d="M121.5,148.3l-11.6,3.5c-1,0.3-2-0.3-2.2-1.2l0,0c-0.3-1,0.3-2,1.2-2.2l11.6-3.5c1-0.3,2,0.3,2.2,1.2l0,0
				C122.9,147,122.4,148,121.5,148.3z"/>
			<path class="st1" d="M108.8,137.6l11.6,3.5c1,0.3,2-0.3,2.2-1.2l0,0c0.3-1-0.3-2-1.2-2.2l-11.6-3.5c-1-0.3-2,0.3-2.2,1.2l0,0
				C107.3,136.3,107.9,137.3,108.8,137.6z"/>
			<path class="st2" d="M121.5,141.2l-11.6,3.5c-1,0.3-2-0.3-2.2-1.2l0,0c-0.3-1,0.3-2,1.2-2.2l11.6-3.5c1-0.3,2,0.3,2.2,1.2l0,0
				C122.9,139.9,122.4,140.9,121.5,141.2z"/>
			<path class="st1" d="M108.8,130.5l11.6,3.5c1,0.3,2-0.3,2.2-1.2l0,0c0.3-1-0.3-2-1.2-2.2l-11.6-3.5c-1-0.3-2,0.3-2.2,1.2l0,0
				C107.3,129.2,107.9,130.2,108.8,130.5z"/>
			<path class="st2" d="M121.5,134.1l-11.6,3.5c-1,0.3-2-0.3-2.2-1.2l0,0c-0.3-1,0.3-2,1.2-2.2l11.6-3.5c1-0.3,2,0.3,2.2,1.2l0,0
				C122.9,132.8,122.4,133.8,121.5,134.1z"/>
		</g>
		<path class="st3" d="M115.1,154.6c-17.4,0-31.5,14.1-31.5,31.5s14.1,31.5,31.5,31.5s31.5-14.1,31.5-31.5S132.6,154.6,115.1,154.6z
			 M115.1,204.5c-10.1,0-18.3-8.2-18.3-18.3c0-10.1,8.2-18.3,18.3-18.3s18.3,8.2,18.3,18.3C133.5,196.3,125.3,204.5,115.1,204.5z"/>
		<path class="st4" d="M137.8,186.2c0,3-0.6,6-1.7,8.6c-0.7,1.7,0,3.7,1.7,4.6l5.5,2.7c1.8,0.9,4,0.1,4.8-1.8
			c1.9-4.3,2.9-9.1,2.9-14.1s-1-9.8-2.9-14.1c-0.8-1.9-3-2.7-4.8-1.8l-5.5,2.7c-1.7,0.8-2.4,2.8-1.7,4.6
			C137.2,180.2,137.8,183.1,137.8,186.2z"/>
	</g>
	<g>
		<path class="st5" d="M153.6,175.7l-27.9,3.8l15.5-23.5c-1.9-1.7-4.1-3.2-6.3-4.5l-17,22.4l-5.6-27.5c-2.6,0.2-5.2,0.6-7.6,1.3
			l3.8,27.9L85,160.1c-1.7,1.9-3.2,4.1-4.5,6.3l22.4,17L75.4,189c0.2,2.6,0.6,5.2,1.3,7.6l27.9-3.8L89,216.3
			c1.9,1.7,4.1,3.2,6.3,4.5l17-22.4l5.6,27.5c2.6-0.2,5.2-0.6,7.6-1.3l-3.8-27.9l23.5,15.5c1.7-1.9,3.2-4.1,4.5-6.3l-22.4-17
			l27.5-5.6C154.7,180.7,154.3,178.1,153.6,175.7z"/>
		<circle class="st5" cx="115.1" cy="186.2" r="15.5"/>
		<circle class="st6" cx="115.1" cy="186.2" r="8.7"/>
		<path class="st7" d="M115.1,134.6c-28.5,0-51.5,23.1-51.5,51.5c0,28.5,23.1,51.5,51.5,51.5s51.5-23.1,51.5-51.5
			C166.7,157.7,143.6,134.6,115.1,134.6z M115.1,226.6c-22.3,0-40.4-18.1-40.4-40.4c0-22.3,18.1-40.4,40.4-40.4
			c22.3,0,40.4,18.1,40.4,40.4C155.6,208.5,137.5,226.6,115.1,226.6z"/>
		<path class="st8" d="M115.1,235.4c-27.2,0-49.2-22.1-49.2-49.2c0-27.2,22.1-49.2,49.2-49.2c27.2,0,49.2,22.1,49.2,49.2
			C164.4,213.3,142.3,235.4,115.1,235.4z M115.1,144.5c-22.9,0-41.6,18.7-41.6,41.6c0,22.9,18.7,41.6,41.6,41.6s41.6-18.7,41.6-41.6
			C156.8,163.2,138.1,144.5,115.1,144.5z"/>
		<path class="st9" d="M115.1,145.4c-22.5,0-40.8,18.3-40.8,40.8s18.3,40.8,40.8,40.8s40.8-18.3,40.8-40.8S137.7,145.4,115.1,145.4z
			 M115.1,225.6c-21.8,0-39.5-17.7-39.5-39.5c0-21.8,17.7-39.5,39.5-39.5s39.5,17.7,39.5,39.5C154.6,208,136.9,225.6,115.1,225.6z"
			/>
	</g>
	<g>
		<g>
			<path class="st1" d="M552.5,150.8l11.6,3.5c1,0.3,2-0.3,2.2-1.2l0,0c0.3-1-0.3-2-1.2-2.2l-11.6-3.5c-1-0.3-2,0.3-2.2,1.2l0,0
				C551,149.5,551.5,150.5,552.5,150.8z"/>
			<path class="st2" d="M565.1,154.4l-11.6,3.5c-1,0.3-2-0.3-2.2-1.2l0,0c-0.3-1,0.3-2,1.2-2.2l11.6-3.5c1-0.3,2,0.3,2.2,1.2l0,0
				C566.6,153.1,566.1,154.1,565.1,154.4z"/>
			<path class="st1" d="M552.5,143.7l11.6,3.5c1,0.3,2-0.3,2.2-1.2l0,0c0.3-1-0.3-2-1.2-2.2l-11.6-3.5c-1-0.3-2,0.3-2.2,1.2l0,0
				C551,142.4,551.5,143.4,552.5,143.7z"/>
			<path class="st2" d="M565.1,147.3l-11.6,3.5c-1,0.3-2-0.3-2.2-1.2v0c-0.3-1,0.3-2,1.2-2.2l11.6-3.5c1-0.3,2,0.3,2.2,1.2l0,0
				C566.6,146,566.1,147,565.1,147.3z"/>
			<path class="st1" d="M552.5,136.6l11.6,3.5c1,0.3,2-0.3,2.2-1.2l0,0c0.3-1-0.3-2-1.2-2.2l-11.6-3.5c-1-0.3-2,0.3-2.2,1.2l0,0
				C551,135.3,551.5,136.3,552.5,136.6z"/>
			<path class="st2" d="M565.1,140.2l-11.6,3.5c-1,0.3-2-0.3-2.2-1.2l0,0c-0.3-1,0.3-2,1.2-2.2l11.6-3.5c1-0.3,2,0.3,2.2,1.2l0,0
				C566.6,138.9,566.1,139.9,565.1,140.2z"/>
			<path class="st1" d="M552.5,129.5l11.6,3.5c1,0.3,2-0.3,2.2-1.2l0,0c0.3-1-0.3-2-1.2-2.2l-11.6-3.5c-1-0.3-2,0.3-2.2,1.2l0,0
				C551,128.2,551.5,129.2,552.5,129.5z"/>
			<path class="st2" d="M565.1,133.1l-11.6,3.5c-1,0.3-2-0.3-2.2-1.2l0,0c-0.3-1,0.3-2,1.2-2.2l11.6-3.5c1-0.3,2,0.3,2.2,1.2l0,0
				C566.6,131.8,566.1,132.8,565.1,133.1z"/>
		</g>
		<path class="st3" d="M558.8,154.6c-17.4,0-31.5,14.1-31.5,31.5s14.1,31.5,31.5,31.5c17.4,0,31.5-14.1,31.5-31.5
			S576.2,154.6,558.8,154.6z M558.8,204.5c-10.1,0-18.3-8.2-18.3-18.3c0-10.1,8.2-18.3,18.3-18.3c10.1,0,18.3,8.2,18.3,18.3
			C577.1,196.3,568.9,204.5,558.8,204.5z"/>
		<path class="st4" d="M581.5,186.2c0,3-0.6,6-1.7,8.6c-0.7,1.7,0,3.7,1.7,4.6l5.5,2.7c1.8,0.9,4,0.1,4.8-1.8
			c1.9-4.3,2.9-9.1,2.9-14.1s-1-9.8-2.9-14.1c-0.8-1.9-3-2.7-4.8-1.8l-5.5,2.7c-1.7,0.8-2.4,2.8-1.7,4.6
			C580.9,180.2,581.5,183.1,581.5,186.2z"/>
	</g>
	<g>
		<path class="st5" d="M597.3,175.7l-27.9,3.8l15.5-23.5c-1.9-1.7-4.1-3.2-6.3-4.5l-17,22.4l-5.6-27.5c-2.6,0.2-5.2,0.6-7.6,1.3
			l3.8,27.9l-23.5-15.5c-1.7,1.9-3.2,4.1-4.5,6.3l22.4,17L519,189c0.2,2.6,0.6,5.2,1.3,7.6l27.9-3.8l-15.5,23.5
			c1.9,1.7,4.1,3.2,6.3,4.5l17-22.4l5.6,27.5c2.6-0.2,5.2-0.6,7.6-1.3l-3.8-27.9l23.5,15.5c1.7-1.9,3.2-4.1,4.5-6.3l-22.4-17
			l27.5-5.6C598.4,180.7,598,178.1,597.3,175.7z"/>
		<circle class="st5" cx="558.8" cy="186.2" r="15.5"/>
		<circle class="st6" cx="558.8" cy="186.2" r="8.7"/>
		<path class="st7" d="M558.8,134.6c-28.5,0-51.5,23.1-51.5,51.5c0,28.5,23.1,51.5,51.5,51.5c28.5,0,51.5-23.1,51.5-51.5
			C610.4,157.7,587.3,134.6,558.8,134.6z M558.8,226.6c-22.3,0-40.4-18.1-40.4-40.4c0-22.3,18.1-40.4,40.4-40.4
			c22.3,0,40.4,18.1,40.4,40.4C599.3,208.5,581.2,226.6,558.8,226.6z"/>
		<path class="st8" d="M558.8,235.4c-27.2,0-49.2-22.1-49.2-49.2c0-27.2,22.1-49.2,49.2-49.2c27.2,0,49.2,22.1,49.2,49.2
			C608.1,213.3,586,235.4,558.8,235.4z M558.8,144.5c-22.9,0-41.6,18.7-41.6,41.6c0,22.9,18.7,41.6,41.6,41.6
			c22.9,0,41.6-18.7,41.6-41.6C600.4,163.2,581.8,144.5,558.8,144.5z"/>
		<path class="st9" d="M558.8,145.4c-22.5,0-40.8,18.3-40.8,40.8s18.3,40.8,40.8,40.8c22.5,0,40.8-18.3,40.8-40.8
			S581.3,145.4,558.8,145.4z M558.8,225.6c-21.8,0-39.5-17.7-39.5-39.5c0-21.8,17.7-39.5,39.5-39.5c21.8,0,39.5,17.7,39.5,39.5
			C598.3,208,580.6,225.6,558.8,225.6z"/>
	</g>
	<g>
		<path class="st10" d="M670,126.7c-1.7-2.9-8.1-49.3-12.7-54.8c-4.7-5.5-59.1-12-59.1-12s-69.2-38.5-130.6-47.6
			c-61.4-9.1-117.2-8.4-172.6,4.9c-55.4,13.3-118.6,64-118.6,64s-50.1,5.3-94.5,15.1c-44.4,9.9-63.5,29.6-64.6,31.7
			c-1.1,2.2-3.9,21.3-4.8,22.7c-1,1.4-6.5,8.1-8,12c-2.1,5.3,1.2,46,4.7,50.1c1.8,2.2,28,7,31.4,7c0.4,0,7.6,0,20,0
			c-0.2-8.7-0.2-19.8-0.2-33.8c0-30.3,24.5-54.8,54.8-54.8c30.3,0,54.8,24.5,54.8,54.8c0,14.3,0,25.3-0.3,33.8
			c102,0,242.1,0,334.5,0c-0.2-8.7-0.2-19.8-0.2-33.8c0-30.3,24.5-54.8,54.8-54.8c30.3,0,54.8,24.5,54.8,54.8
			c0,13.6,0,24.2-0.2,32.5c18.9-3,46.5-10,50.2-12.5c4.8-3.2,11.9-60.1,11.9-63.4C675.5,139.3,671.7,129.5,670,126.7z"/>
		<g class="st11">
			<path class="st12" d="M9.1,212.9c1.8,2.2,28,7,31.4,7c0.4,0,7.6,0,20,0c-0.1-6.1-0.2-13.3-0.2-21.9c-33.9,0-54.6,0-54.6,0
				C6.7,205.5,7.9,211.5,9.1,212.9z"/>
			<path class="st12" d="M504,198.1c-93.9,0-228.4,0-334,0c0,8.7-0.1,16-0.3,21.9c102,0,242.1,0,334.5,0
				C504,213.9,504,206.6,504,198.1z"/>
			<path class="st12" d="M613.6,198.1c0,8.1-0.1,14.9-0.2,20.6c18.9-3,46.5-10,50.2-12.5c1.6-1.1,3.4-7.7,5.1-16.4
				c-5.2,1.4-33.2,8.4-51.4,8.4C616.6,198.1,615.4,198.1,613.6,198.1z"/>
		</g>
		<path class="st7" d="M389.9,10.8c-32.7,0-63.4,3.6-93.9,10.9c-44.8,10.8-95.5,47-111.6,59.1c0,0,331.3-8.3,335-8.3
			c3.7,0,12.2-9.7,13.8-12.4c1.5-2.7-37.9-40.6-99.9-47.3C418.4,11.3,404,10.8,389.9,10.8z"/>
		<path class="st13" d="M388.4,12.5c-31.2,0-60.5,3.4-89.5,10.4c-42.7,10.3-91.1,44.8-106.5,56.4c0,0,316-8,319.5-8
			s11.7-9.3,13.1-11.9c1.5-2.6-36.2-38.7-95.3-45.1C415.6,12.8,401.9,12.5,388.4,12.5z"/>
		<path class="st14" d="M435.3,15.1C360.2,23.7,297,34.3,246,44.6c-24,13.1-44.5,27.9-53.5,34.7c0,0,2.7-0.1,7.7-0.2
			c100.7-10.2,230.3-19.6,320.3-25.7C509.1,42.6,478.3,21.1,435.3,15.1z"/>
		<path class="st15" d="M177.7,220c0.2-8.9,0.2-20,0.2-33.8c0-34.6-28.1-62.7-62.7-62.7c-34.6,0-62.7,28.1-62.7,62.7
			c0,13.5,0,24.7,0.1,33.8c2.3,0,5,0,8,0c-0.2-8.7-0.2-19.8-0.2-33.8c0-30.3,24.5-54.8,54.8-54.8c30.3,0,54.8,24.5,54.8,54.8
			c0,14.3,0,25.3-0.3,33.8C172.3,220,175,220,177.7,220z"/>
		<path class="st15" d="M621.4,217.2c0.1-8.4,0.1-18.7,0.1-31.1c0-34.6-28.1-62.7-62.7-62.7c-34.6,0-62.7,28.1-62.7,62.7
			c0,13.5,0,24.7,0.1,33.8c2.7,0,5.3,0,8,0c-0.2-8.7-0.2-19.8-0.2-33.8c0-30.3,24.5-54.8,54.8-54.8c30.3,0,54.8,24.5,54.8,54.8
			c0,13.6,0,24.2-0.2,32.5C615.9,218.2,618.6,217.7,621.4,217.2z"/>
		<path class="st7" d="M362,76.4c4.3-0.1,8.7-0.2,13-0.3l5.3-65.1c-3,0.1-6.1,0.2-9.1,0.3L362,76.4z"/>
		<path class="st7" d="M493.1,73.2c2.2-0.1,4.3-0.1,6.2-0.2l-7.8-43.4c-1.7-0.8-3.5-1.7-5.3-2.5L493.1,73.2z"/>
		<path class="st16" d="M17,128.5c1.7-0.6,26.5-3.6,31-3.9c1.5-0.1-1.4,12-2.3,14.7c-0.9,2.6-31.3,11.5-33.3,11.5
			C11.8,150.8,15.8,129,17,128.5z"/>
		<path class="st17" d="M48,124.6c-1.1,0.1-3.5,0.3-6.5,0.7c-0.5,3.8-2,9.7-2.6,11.5c-0.6,1.9-16.4,7-26,9.7
			c-0.4,2.6-0.6,4.4-0.5,4.4c2,0,32.4-8.9,33.3-11.5C46.5,136.7,49.5,124.5,48,124.6z"/>
		<path class="st18" d="M657.2,71.9c-0.3-0.4-0.9-0.8-1.7-1.2c-70.6,0.7-398,7.9-474.8,13.3c-113.3,8-156,37.2-156,37.2
			c28.9-12,88.8-21.3,145.7-24.1c31.8-1.5,363-10.1,490.9-13.4C659.9,77.9,658.5,73.4,657.2,71.9z"/>
		<g>
			<path class="st7" d="M207.9,82.7c0,0.8-5,1.5-8.8,1.5c-3.7,0-4.8-0.7-4.8-1.5c0-0.8,3-1.5,6.8-1.5
				C204.8,81.2,207.9,81.9,207.9,82.7z"/>
			<path class="st15" d="M217.7,82.3c-2.5,0-21.2,0.4-23.2,0.4c-2,0,2.1-6.9,7-11c5.6-4.7,12.7-7.5,13.7-6.6
				C217.1,66.8,221.4,82.3,217.7,82.3z"/>
		</g>
		<path class="st19" d="M659.1,75.8c-1.3,0.1-19,2.8-19.8,3.3c-0.9,0.4,3.4,17.5,4.6,19.6c1.2,2.1,21.2,11.1,22.6,11.1
			c1.4,0-1.6-17.1-2.5-21.6S660.7,75.6,659.1,75.8z"/>
		<path class="st20" d="M643.1,89.3c-1-1.9-1.3-4.8-1.9-8.6c3.8-0.7,15.1-2.8,18.2-3.2c0.8,1.4,2.7,6.3,3.8,11.3
			C664.3,93.2,644.8,91,643.1,89.3z"/>
		<g>
			<path class="st21" d="M353.4,89.1c0.1,2.5-5.5,6-12.6,6.3c-7.1,0.4-13.1-2.5-13.2-5c-0.1-2.5,5.6-2.9,12.8-3.3
				C347.5,86.8,353.3,86.6,353.4,89.1z"/>
			<path class="st8" d="M355.9,89c0.1,1.1-2.2,2.2-7.1,3c-1.5,0.3-1.9-0.9-5.3-0.6c-3.1,0.3-3.4,1.6-5.4,1.7
				c-12.4,0.6-13-0.7-13.1-2.5c-0.1-1.7,0.4-3.2,12.7-3.8C350.2,86.1,355.8,87.3,355.9,89z"/>
		</g>
		<g>
			<path class="st21" d="M490.3,89.1c0.1,2.5-5.5,6-12.6,6.3c-7.1,0.4-13.1-2.5-13.2-5c-0.1-2.5,5.6-2.9,12.8-3.3
				C484.4,86.8,490.2,86.6,490.3,89.1z"/>
			<path class="st8" d="M492.8,89c0.1,1.1-2.2,2.2-7.1,3c-1.5,0.3-1.9-0.9-5.3-0.6c-3.1,0.3-3.4,1.6-5.4,1.7
				c-12.4,0.6-13-0.7-13.1-2.5c-0.1-1.7,0.4-3.2,12.7-3.8C487.1,86.1,492.7,87.3,492.8,89z"/>
		</g>
		<path class="st22" d="M497.3,72.6c-0.6-2.1-4.3-26.8-6.8-43.5l-1.3-0.6c1.1,7.2,6.5,43.6,7.1,44.7l0.1,0.2
			c0.2,0.1,15.6,14.3,15.6,25.3c0,13.4-12.8,42.1-23.8,62.7c-13.9,26-27.1,44.1-32.3,44.1h-91.6c0-6.9,0.3-73.3,0-88.1
			c-0.2-11,2.4-26.3,3.8-34.5c0.7-4.2,1-6.1,1-6.6c-0.1-1.7,5.4-47.6,7.5-65.1l-1.2,0c-0.8,6.5-7.7,63.4-7.5,65.2
			c0.1,0.4-0.4,3.2-0.9,6.3c-1.4,8.2-4,23.6-3.8,34.7c0.3,14.8,0,81.1,0,88.1h-161c-1.8-6.3-23.5-80.8-23.6-95.7
			c-0.1-15.4,7.8-28.8,7.8-28.9l-1.9,0c-0.1,0.1-7.3,13.1-7.1,28.9c0.1,15.7,22.9,93.2,23.8,96.4l0.1,0.4h254.6
			c12.8,0,57.3-83.7,57.3-107.9C513.1,87.5,498.8,74,497.3,72.6z"/>
		<path class="st23" d="M34.8,127.3c-1.9-0.7-4.9,2.5-6.8,7.3c-1.9,4.8-1.8,9.2,0.1,10s4.9-2.5,6.8-7.3S36.7,128.1,34.8,127.3z
			 M32.5,136.4c-1.1,2.8-2.9,4.8-4,4.4c-1.1-0.4-1.1-3.1,0-5.9c1.1-2.8,2.9-4.8,4-4.4C33.6,130.9,33.6,133.6,32.5,136.4z"/>
		<path class="st23" d="M24.6,132.2c-1.6-0.6-4.3,2.2-5.9,6.3c-1.6,4.1-1.6,8,0.1,8.6c1.6,0.6,4.3-2.2,5.9-6.3
			S26.2,132.8,24.6,132.2z M22.6,140.1c-1,2.5-2.5,4.1-3.5,3.8c-1-0.4-1-2.7,0-5.1c1-2.5,2.5-4.1,3.5-3.8
			C23.5,135.3,23.5,137.6,22.6,140.1z"/>
		<path class="st18" d="M12.5,148.6c11.5-5.2,23.4-9.3,34.1-12.9c1.1-4.5,2.5-11.2,1.3-11.1c-1.8,0.1-6.8,0.7-12.3,1.3
			c-6.6,1.7-13.3,3.5-19.8,5.4C14.7,135.8,13.1,144.5,12.5,148.6z"/>
	</g>
</g>
</svg>
