<?xml version="1.0" encoding="utf-8"?>
<!-- Generator: Adobe Illustrator 23.0.0, SVG Export Plug-In . SVG Version: 6.00 Build 0)  -->
<svg version="1.1" id="Layer_1" xmlns="http://www.w3.org/2000/svg" xmlns:xlink="http://www.w3.org/1999/xlink" x="0px" y="0px"
	 width="612.4px" height="268.1px" viewBox="0 0 612.4 268.1" style="enable-background:new 0 0 612.4 268.1;" xml:space="preserve"
	>
<style type="text/css">
	.st0{fill:#020202;}
	.st1{fill:#C9CDD6;}
	.st2{fill:#0F0E14;}
	.st3{fill:#2D3133;}
	.st4{fill:#232626;}
	.st5{fill:#BBBBBB;}
	.st6{fill:#252627;}
	.st7{fill:#6D6B6C;}
	.st8{fill:#71A7DA;}
	.st9{fill:#AA3F3E;}
	.st10{fill:#E1E1EA;}
	.st11{fill:#871D1F;}
	.st12{fill:#5555A5;}
	.st13{fill:#C5C3C8;}
	.st14{fill:#81686B;}
	.st15{fill:#171717;}
	.st16{fill:#FFFFFF;}
	.st17{fill:#1C181A;}
	.st18{fill:#2A2426;}
	.st19{fill:#E4E8EB;}
	.st20{fill:#3B4EA2;}
	.st21{fill:#4552A3;}
	.st22{fill:#273945;}
	.st23{fill:#3F5B71;}
	.st24{fill:#425376;}
	.st25{fill:#8D251C;}
	.st26{fill:#333333;}
	.st27{fill:#414141;}
	.st28{fill:#C7DDF2;}
	.st29{fill:#ABCAEB;}
	.st30{fill:#DBE8F7;}
</style>
<g>
	<path class="st0" d="M30,209.9c0,0,14.2,10.7,15.1,10.1c0.9-0.6-0.7-4.3,0-5c0.7-0.7,9.9-2.9,9.9-2.9l94.3,5.6
		c0,0,13.7,1.3,16.3,0.1c2.6-1.2,271.5-8.9,271.5-8.9l3,3.3c0,0,7.9-2.5,12.7,3.7c4.8,6.2,115.5-6.8,117.8-3.7
		c2.3,3.1-6.2-87-6.2-87l-225.6,12L78,124.2C78,124.2,20.8,166.8,30,209.9z"/>
	<path class="st1" d="M264.2,17.7c0,0,11.1-9,24.6-10.3c13.5-1.3,189.1-5.1,229.9,0.3c40.8,5.4-117,46.8-117,46.8L264.2,17.7z"/>
	<path class="st2" d="M146.8,88.7c0,0,97.8-66.6,105-67.8c7.2-1.1,10.9,5.3,10.9,5.3L152.2,97.6L146.8,88.7z"/>
	<path class="st3" d="M162.4,88.6c0,0,56.2-44.4,91.9-67l-8.4,1.8c0,0,14.1-17.1,124.2-13.6c110.1,3.5,156.9,1.1,185,4.2
		c0,0,4.4-0.8,4.8,9.2c0,0-11.2,5.3-10.8,8.3c0.4,2.9-51.6,51-51.6,51L278.8,94.9L162.4,88.6z"/>
	<path class="st4" d="M592.9,171.4l1.4-28.1c0,0,7.6,1.2,8.6,6.5c1,5.3,7,33.7,0,37s-0.4,12-0.4,12l-9.2,11.2
		C593.3,210,583.4,177.3,592.9,171.4z"/>
	<path class="st4" d="M13.2,147.7c0,0-7.9,1-9.2,12.3c-1.3,11.2-2.8,33.2,1.8,45.8c4.6,12.5,8.4,2.5,8.4,2.5L13.2,147.7z"/>
	<path class="st5" d="M5.4,191c0.4,6.8,0.1,12.3-0.8,12.3c-0.9,0.1-1.9-5.4-2.3-12.1c-0.4-6.8-0.1-12.3,0.8-12.3
		C4,178.9,5,184.3,5.4,191z"/>
	<path class="st6" d="M576.1,71.2c0,0,4.2-1.9,4.9,0c0.7,1.9-2.2,4-3.6,4.2C575.9,75.7,576.1,71.2,576.1,71.2z"/>
	<path class="st7" d="M560.2,21.1c0,0-9.8-3-12.7,12c-2.9,15.1-2.1,53.8-2.1,53.8l20.2,29.9l20.1,6.1c0,0-2.1-3.3-3-12.5
		c0,0-1.1-1.5-1.1-4.5s-4.6-27.5-2.5-28.1C579,77.8,572.9,47.1,560.2,21.1z"/>
	<path class="st8" d="M35.8,106c0,0-8.6,4.5-9.5,6.3c-0.9,1.8-8,13.4-6.4,25.2c1.6,11.7,17,5.3,17,5.3l19.9-11.4l29.5-29.2
		C86.3,102.2,43.9,99.6,35.8,106z"/>
	<path class="st9" d="M557.9,28.3l5.6,11.7c0,0-2.9,3.4-1.8,8.1c1,4.7,7,32.9,8.7,35.6c1.7,2.7,6.1,7.3,6.2,9.2
		c0.1,1.9,1.6,15.5,1.6,15.5s-18.1-13.1-20.3-19.1c-2.2-6-6.8-50.4-5.2-54.5C554.3,30.5,557.9,28.3,557.9,28.3z"/>
	<path class="st10" d="M565.3,46.4c0,0-1.5,1.4-0.6,5.1c0.9,3.6,5.7,28.8,7.4,30.6c1.7,1.8,2.3,3.4,2.7,2.5
		C575.2,83.6,568.1,51.1,565.3,46.4z"/>
	<path class="st11" d="M579.5,94.3c0,0-2.5-16.2-1.3-16.9c1.2-0.6,4.2,7.1,5.2,17.1c1.1,10,0.8,15.8-0.6,16.1
		C581.5,110.8,580.2,99.7,579.5,94.3z"/>
	<path class="st12" d="M99.6,128.8c67.2,0,76.7,72.3,76.7,72.3l248.7-2.6c0,0,3.1-73.4,84.1-73.4c56.3,0,71.8,62.7,71.8,62.7
		l12.5-0.7c-0.3,0-0.4,0-0.4,0c-0.4-0.9,0.6-12.1,1.3-14c0.6-1.9,1.3-11.9,1.3-11.9s0.6-3.9,0-17c-0.6-13.1-6.9-16.6-7.5-17.5
		c-0.6-0.9-3.4-5.8-3.4-5.8s-13.6-10.8-23.5-19c-9.9-8.2-10.8-14.2-11.9-23.3c-1.1-9.1-1.4-47.6-1.4-47.6l-35.5-1.7
		c3,3.7-14.9,32.1-19,39c-4.1,6.9-15.1,6.5-15.1,6.5l-137.7,4.7l-156.9,6.2c0,0-30.6,2-37.9,1.2c-7.3-0.9-47.4,5.2-78,9.5
		s-39.4,13.4-39.4,13.4s-6.3,5.8,1.9-0.6c8.2-6.5,38.4-6.2,42-6c3.7,0.2,5.6,3,5.6,3c-4.5,1.3-29.1,20.5-35.8,24.6
		c-6.7,4.1-12.7,6-17.9,6c-5.2,0-4.7-3.6-4.7-3.6c-5.6,8.1-7.3,4.6-10.1,11.9c-2.8,7.3,0.6,50.6,0.6,50.6l20,0.7
		C30.1,196.4,32.4,128.8,99.6,128.8z"/>
	<path class="st13" d="M598.4,187.6c0,6.5,1.3,11.8,2.8,11.8c1.6,0,2.8-5.3,2.8-11.8c0-6.5-1.3-11.8-2.8-11.8
		C599.7,175.8,598.4,181.1,598.4,187.6z"/>
	<path class="st2" d="M216.6,81.8l112-4l13.7-51.9h-74.9c0,0-50,34.9-52.7,40C211.9,70.9,216.6,81.8,216.6,81.8z"/>
	<polygon class="st2" points="361.9,26.3 354.6,76.3 463.1,72.9 466,44.6 458.2,28.3 	"/>
	<path class="st2" d="M466,28.3l18.6,42.1c0,0,0.9,1.9,5.1-3c4.2-4.9,18.2-30,18.2-30s2-2.9,0-5.5c-2-2.5-8.6-2.2-8.6-2.2L466,28.3z
		"/>
	<path class="st14" d="M139.2,101.6c0,0,3.6,9.2,14.4,8.9c10.8-0.3,18.1-1.2,18.1-1.2s1.9-8.9,2.6-10L139.2,101.6z"/>
	<path class="st15" d="M176.5,201.3c-10.3-31.1-5.1-89-4.9-90.8c-0.1-0.9-0.5-12.9,11.3-25.6c11.9-12.8,81.9-63.3,82.6-63.8l0.1-0.1
		l0.2,0l177.5,2.2c2.2,0,55.3-0.3,64.4,1.7c2.9,0.6,4.9,2,6,4c1.8,3.3,0.4,7.2,0.4,7.4l-1-0.4c0,0,1.3-3.6-0.3-6.5
		c-0.9-1.7-2.7-2.9-5.3-3.5c-9-2-63.6-1.7-64.1-1.7L266,22.1c-3.5,2.5-70.7,51.1-82.3,63.5c-11.7,12.5-11.1,24.7-11,24.9l0,0l0,0
		c-0.1,0.6-5.5,59.2,4.9,90.4L176.5,201.3z"/>
	
		<rect x="77.9" y="102.3" transform="matrix(0.9974 -7.222733e-02 7.222733e-02 0.9974 -7.0927 9.3819)" class="st15" width="96.5" height="1"/>
	<path class="st16" d="M169.7,103.3h-23.5c0,0-0.5,4,4.9,5.6c0,0,17.5,0,18.6-1C170.8,106.8,169.7,103.3,169.7,103.3z"/>
	<path class="st17" d="M215.3,60.6l2.4-2.1h3.1c0,0,1.9,0.8,2.1,10.5c0.2,9.6-1.1,12.1-3.8,12.5C216.4,82,215.3,60.6,215.3,60.6z"/>
	<path class="st18" d="M197.9,74.5c0,0,2.3,7.4,6.8,8c4.5,0.6,13.7-0.5,15-1.1c1.3-0.6,1.3-13.8,0.6-16.1
		c-0.7-2.3-12.6-0.5-12.6-0.5l-4.9,3.2l-1.1,4.7C201.6,72.5,198,72.9,197.9,74.5z"/>
	<path class="st19" d="M202.4,72.2c0,0,0.4,0.9,1.6,0c1.2-0.9,4.5-3.2,16.7-2.6l-0.4-3.8C220.3,65.8,200,63.3,202.4,72.2z"/>
	<path class="st12" d="M201,72.9c0,0,0.5-12.7,11-13.8c10.6-1.1,6.1-0.6,6.1-0.6s1.6-1.4,2.2,7.9c0,0-12.3,0-14.7,0.9
		c-2.3,0.9-3.3,2-3.2,4.4C202.5,74,201,72.9,201,72.9z"/>
	<path class="st15" d="M334.1,200.4c-0.8-3-1.4-20.3-1.8-31.8c-0.1-3.3-0.2-6.1-0.3-7.9c-0.3-7.3,1.7-55.3,3.1-63.3
		c1.3-7.4,6.2-19.4,6.6-20.3l10.1-54.6l1,0.2l-10.2,54.7l0,0c0,0.1-5.2,12.6-6.5,20.1c-1.3,7.3-3.4,54.8-3.1,63.1
		c0.1,1.8,0.2,4.6,0.3,7.9c0.4,10.7,1,28.7,1.7,31.5L334.1,200.4z"/>
	<g>
		<path class="st3" d="M176.3,201.2c0,0-9.5-72.3-76.7-72.3c-67.2,0-69.5,67.6-69.5,67.6l-20-0.7c-4.8-0.3-3.8,2.5-3.8,3.4
			c0,0.9-1.3,2.4-2.2,3.4c-0.9,1.1-2.6-1.3-4.1,6.9c-1.5,8.2,26.3,8.8,26.3,8.8c0.6,1.3,3.4,1.7,3.4,1.7c12.1,1.9,15.3,0,15.3,0
			c-16.6-23.5,8.6-84.3,58.4-76.9c63.6,9.4,58.5,74.7,58.5,74.7h281.3c-1.5-4.9-1.8-11.7-0.7-19.2H425L176.3,201.2z"/>
		<path class="st3" d="M605.1,203.6c-1.5-1.5-2.2-9.3-2.2-9.3s-1.7,6.5-3.4,6.2c-1.7-0.2-3.2-7.3-3.6-10.6c-0.3-2.4-1.7-2.8-2.4-2.8
			l-12.5,0.7c0,0-15.5-62.7-71.8-62.7c-81,0-84.1,73.4-84.1,73.4h17.5c3.6-25.4,22.7-59,64.3-54.8c70.1,7,59.7,72.1,59.7,72.1
			s22-1.9,31.2-3.9C607.1,210.1,606.6,205.1,605.1,203.6z"/>
	</g>
	<path class="st15" d="M434.3,199.4l-1-0.1c2.7-36.1,26.9-51.6,41.4-60.9c2.1-1.4,4-2.5,5.5-3.6c10.1-7.2,10.2-28.2,10.3-40.7
		c0-2,0-3.8,0.1-5.3c0.3-10.8-8.7-16.5-8.8-16.5l-0.1-0.1l-0.1-0.1l-21.3-47.8l0.9-0.4l21.3,47.6c1.2,0.8,9.5,6.7,9.1,17.3
		c0,1.5-0.1,3.2-0.1,5.3c-0.1,12.7-0.2,34-10.7,41.5c-1.6,1.1-3.4,2.3-5.5,3.7C461,148.5,437,163.9,434.3,199.4z"/>
	<g>
		<path class="st13" d="M165.6,209.8c0.1,2.3,2.2,4.5,4.8,4.5h262.9c2.6,0,4.7-2.3,4.8-4.5H165.6z"/>
	</g>
	<path class="st20" d="M318.5,107.5c0.3,4.6-2.8,8.3-6.8,8.6l-4.8,0.3c-4,0.2-7.5-3.1-7.8-7.7l0,0c-0.3-4.6,2.8-8.3,6.8-8.6l4.8-0.3
		C314.7,99.6,318.2,102.9,318.5,107.5L318.5,107.5z"/>
	<path class="st13" d="M330.2,105.8c0,1.2-1.1,2.2-2.5,2.2l-35.8,1.1c-1.4,0-2.6-0.9-2.6-2.1l0,0c0-1.2,1.1-2.2,2.5-2.2l35.8-1.1
		C329,103.7,330.1,104.6,330.2,105.8L330.2,105.8z"/>
	<path class="st21" d="M469.3,101.4c0.3,4.6-2.8,8.3-6.8,8.6l-4.8,0.3c-4,0.2-7.5-3.1-7.8-7.7l0,0c-0.3-4.6,2.8-8.3,6.8-8.6l4.8-0.3
		C465.6,93.4,469,96.8,469.3,101.4L469.3,101.4z"/>
	<path class="st13" d="M481,101c0,1.5-1.1,2.7-2.5,2.8l-35.8,1.1c-1.4,0-2.6-1.1-2.6-2.6l0,0c0-1.5,1.1-2.7,2.5-2.8l35.8-1.1
		C479.8,98.3,481,99.5,481,101L481,101z"/>
	<g>
		<g>
			<path class="st22" d="M90.4,173.7l13.6,4.1c1.1,0.3,2.3-0.3,2.6-1.4l0,0c0.3-1.1-0.3-2.3-1.4-2.6l-13.6-4.1
				c-1.1-0.3-2.3,0.3-2.6,1.4l0,0C88.7,172.2,89.3,173.4,90.4,173.7z"/>
			<path class="st23" d="M105.3,177.9L91.6,182c-1.1,0.3-2.3-0.3-2.6-1.4l0,0c-0.3-1.1,0.3-2.3,1.4-2.6l13.6-4.1
				c1.1-0.3,2.3,0.3,2.6,1.4v0C107,176.3,106.4,177.5,105.3,177.9z"/>
			<path class="st22" d="M90.4,165.3l13.6,4.1c1.1,0.3,2.3-0.3,2.6-1.4l0,0c0.3-1.1-0.3-2.3-1.4-2.6l-13.6-4.1
				c-1.1-0.3-2.3,0.3-2.6,1.4l0,0C88.7,163.8,89.3,165,90.4,165.3z"/>
			<path class="st23" d="M105.3,169.5l-13.6,4.1c-1.1,0.3-2.3-0.3-2.6-1.4l0,0c-0.3-1.1,0.3-2.3,1.4-2.6l13.6-4.1
				c1.1-0.3,2.3,0.3,2.6,1.4l0,0C107,168,106.4,169.2,105.3,169.5z"/>
			<path class="st22" d="M90.4,157l13.6,4.1c1.1,0.3,2.3-0.3,2.6-1.4l0,0c0.3-1.1-0.3-2.3-1.4-2.6l-13.6-4.1
				c-1.1-0.3-2.3,0.3-2.6,1.4l0,0C88.7,155.5,89.3,156.7,90.4,157z"/>
			<path class="st23" d="M105.3,161.2l-13.6,4.1c-1.1,0.3-2.3-0.3-2.6-1.4l0,0c-0.3-1.1,0.3-2.3,1.4-2.6l13.6-4.1
				c1.1-0.3,2.3,0.3,2.6,1.4l0,0C107,159.7,106.4,160.8,105.3,161.2z"/>
			<path class="st22" d="M90.4,148.7l13.6,4.1c1.1,0.3,2.3-0.3,2.6-1.4l0,0c0.3-1.1-0.3-2.3-1.4-2.6l-13.6-4.1
				c-1.1-0.3-2.3,0.3-2.6,1.4l0,0C88.7,147.1,89.3,148.3,90.4,148.7z"/>
			<path class="st23" d="M105.3,152.8l-13.6,4.1c-1.1,0.3-2.3-0.3-2.6-1.4l0,0c-0.3-1.1,0.3-2.3,1.4-2.6l13.6-4.1
				c1.1-0.3,2.3,0.3,2.6,1.4l0,0C107,151.3,106.4,152.5,105.3,152.8z"/>
		</g>
		<path class="st24" d="M97.8,179.9c-18.5,0-33.5,15-33.5,33.5c0,18.5,15,33.5,33.5,33.5c18.5,0,33.5-15,33.5-33.5
			C131.3,194.9,116.3,179.9,97.8,179.9z M97.8,232.9c-10.8,0-19.5-8.7-19.5-19.5s8.7-19.5,19.5-19.5s19.5,8.7,19.5,19.5
			S108.6,232.9,97.8,232.9z"/>
		<path class="st25" d="M121.9,213.4c0,3.2-0.7,6.3-1.8,9.1c-0.8,1.9,0,4,1.8,4.9l5.9,2.9c1.9,0.9,4.3,0.1,5.1-1.9
			c2-4.6,3.1-9.7,3.1-15c0-5.3-1.1-10.4-3.1-15c-0.8-2-3.2-2.8-5.1-1.9l-5.9,2.9c-1.8,0.9-2.6,3-1.8,4.9
			C121.3,207.1,121.9,210.2,121.9,213.4z"/>
	</g>
	<g>
		<path class="st26" d="M98.7,158.6c-30.2,0-54.7,24.5-54.7,54.7s24.5,54.7,54.7,54.7s54.7-24.5,54.7-54.7S129,158.6,98.7,158.6z
			 M98.7,254.1c-22.5,0-40.7-18.2-40.7-40.7c0-22.5,18.2-40.7,40.7-40.7s40.7,18.2,40.7,40.7C139.5,235.9,121.3,254.1,98.7,254.1z"
			/>
		<path class="st27" d="M98.7,264.6c-28.2,0-51.2-23-51.2-51.2s23-51.2,51.2-51.2s51.2,23,51.2,51.2S127,264.6,98.7,264.6z
			 M98.7,170.2c-23.8,0-43.2,19.4-43.2,43.2c0,23.8,19.4,43.2,43.2,43.2s43.2-19.4,43.2-43.2C142,189.5,122.6,170.2,98.7,170.2z"/>
		<g>
			<path class="st28" d="M97.4,212.7l-13-0.3c-7-0.1-16-1.7-25.2-4.4c-0.2,1.5-0.3,3-0.3,4.6c9.6,2.7,18.5,4.2,25.4,4.3
				c-5.7,4.3-12.2,10.9-18.4,18.9c0.9,1.3,1.8,2.5,2.9,3.7c6-7.9,12.6-14.7,18.3-19L97.4,212.7z"/>
			<path class="st28" d="M103,226l-4.2-12.2L94.5,226c-2.4,6.9-6.9,15.3-12.6,23.5c1.4,0.6,2.8,1.2,4.3,1.7
				c5.9-8.6,10.2-16.9,12.6-23.7c2.4,6.8,6.7,15.2,12.6,23.7c1.5-0.5,2.9-1.1,4.3-1.7C109.9,241.3,105.4,232.8,103,226z"/>
			<path class="st28" d="M138.2,208.1c-9.2,2.7-18.2,4.3-25.2,4.4l-13,0.3l10.3,7.8c5.7,4.3,12.3,11.2,18.3,19c1-1.2,2-2.4,2.9-3.7
				c-6.3-8.1-12.8-14.7-18.4-18.9c6.9-0.1,15.8-1.6,25.4-4.3C138.5,211.1,138.4,209.6,138.2,208.1z"/>
			<path class="st28" d="M90.1,200.2c-5.6-3.9-13.5-8-22.7-11.4c-1,1.2-1.8,2.5-2.7,3.8c9,3.3,17.1,7.3,22.8,11.2l10.7,7.6
				l-3.9-12.6c-2-6.5-3.3-15.2-3.6-24.6c-1.5,0.3-3,0.7-4.5,1.2C86.7,185.2,88.1,193.8,90.1,200.2z"/>
			<path class="st28" d="M107.9,199.9c1.9-6.4,3.2-14.8,3.7-24.2c-1.5-0.5-2.9-0.9-4.5-1.2c-0.3,9.2-1.6,17.6-3.5,24.2l-3.7,12.3
				l10.5-7.3c5.7-3.9,13.5-7.8,22.3-10.9c-0.8-1.3-1.7-2.6-2.7-3.8C121.1,192.2,113.4,196.1,107.9,199.9z"/>
		</g>
		
			<ellipse transform="matrix(0.1602 -0.9871 0.9871 0.1602 -127.7026 276.6837)" class="st28" cx="98.7" cy="213.4" rx="14.7" ry="14.7"/>
		
			<ellipse transform="matrix(0.1602 -0.9871 0.9871 0.1602 -127.7026 276.6837)" class="st29" cx="98.7" cy="213.4" rx="9.3" ry="9.3"/>
		<path class="st30" d="M98.7,172.2c-22.7,0-41.2,18.4-41.2,41.2s18.4,41.2,41.2,41.2s41.2-18.4,41.2-41.2S121.5,172.2,98.7,172.2z
			 M98.7,252.1c-21.4,0-38.7-17.3-38.7-38.7c0-21.4,17.3-38.7,38.7-38.7c21.4,0,38.7,17.3,38.7,38.7
			C137.5,234.8,120.1,252.1,98.7,252.1z"/>
	</g>
	<g>
		<g>
			<path class="st22" d="M498.8,167.8l13.6,4.1c1.1,0.3,2.3-0.3,2.6-1.4l0,0c0.3-1.1-0.3-2.3-1.4-2.6l-13.6-4.1
				c-1.1-0.3-2.3,0.3-2.6,1.4l0,0C497,166.3,497.6,167.5,498.8,167.8z"/>
			<path class="st23" d="M513.6,172l-13.6,4.1c-1.1,0.3-2.3-0.3-2.6-1.4l0,0c-0.3-1.1,0.3-2.3,1.4-2.6l13.6-4.1
				c1.1-0.3,2.3,0.3,2.6,1.4v0C515.4,170.5,514.7,171.6,513.6,172z"/>
			<path class="st22" d="M498.8,159.5l13.6,4.1c1.1,0.3,2.3-0.3,2.6-1.4l0,0c0.3-1.1-0.3-2.3-1.4-2.6l-13.6-4.1
				c-1.1-0.3-2.3,0.3-2.6,1.4l0,0C497,157.9,497.6,159.1,498.8,159.5z"/>
			<path class="st23" d="M513.6,163.6l-13.6,4.1c-1.1,0.3-2.3-0.3-2.6-1.4l0,0c-0.3-1.1,0.3-2.3,1.4-2.6l13.6-4.1
				c1.1-0.3,2.3,0.3,2.6,1.4l0,0C515.4,162.1,514.7,163.3,513.6,163.6z"/>
			<path class="st22" d="M498.8,151.1l13.6,4.1c1.1,0.3,2.3-0.3,2.6-1.4l0,0c0.3-1.1-0.3-2.3-1.4-2.6l-13.6-4.1
				c-1.1-0.3-2.3,0.3-2.6,1.4l0,0C497,149.6,497.6,150.8,498.8,151.1z"/>
			<path class="st23" d="M513.6,155.3l-13.6,4.1c-1.1,0.3-2.3-0.3-2.6-1.4l0,0c-0.3-1.1,0.3-2.3,1.4-2.6l13.6-4.1
				c1.1-0.3,2.3,0.3,2.6,1.4l0,0C515.4,153.8,514.7,155,513.6,155.3z"/>
			<path class="st22" d="M498.8,142.8l13.6,4.1c1.1,0.3,2.3-0.3,2.6-1.4l0,0c0.3-1.1-0.3-2.3-1.4-2.6l-13.6-4.1
				c-1.1-0.3-2.3,0.3-2.6,1.4l0,0C497,141.3,497.6,142.4,498.8,142.8z"/>
			<path class="st23" d="M513.6,146.9l-13.6,4.1c-1.1,0.3-2.3-0.3-2.6-1.4l0,0c-0.3-1.1,0.3-2.3,1.4-2.6l13.6-4.1
				c1.1-0.3,2.3,0.3,2.6,1.4l0,0C515.4,145.4,514.7,146.6,513.6,146.9z"/>
		</g>
		<path class="st24" d="M506.2,174c-18.5,0-33.5,15-33.5,33.5c0,18.5,15,33.5,33.5,33.5c18.5,0,33.5-15,33.5-33.5
			C539.7,189,524.7,174,506.2,174z M506.2,227c-10.8,0-19.5-8.7-19.5-19.5s8.7-19.5,19.5-19.5c10.8,0,19.5,8.7,19.5,19.5
			S516.9,227,506.2,227z"/>
		<path class="st25" d="M530.3,207.5c0,3.2-0.7,6.3-1.8,9.1c-0.8,1.9,0,4,1.8,4.9l5.9,2.9c1.9,0.9,4.3,0.1,5.1-1.9
			c2-4.6,3.1-9.7,3.1-15c0-5.3-1.1-10.4-3.1-15c-0.8-2-3.2-2.8-5.1-1.9l-5.9,2.9c-1.8,0.9-2.6,3-1.8,4.9
			C529.6,201.2,530.3,204.3,530.3,207.5z"/>
	</g>
	<g>
		<path class="st26" d="M507.1,152.8c-30.2,0-54.7,24.5-54.7,54.7s24.5,54.7,54.7,54.7s54.7-24.5,54.7-54.7S537.3,152.8,507.1,152.8
			z M507.1,248.3c-22.5,0-40.7-18.2-40.7-40.7c0-22.5,18.2-40.7,40.7-40.7c22.5,0,40.7,18.2,40.7,40.7
			C547.9,230,529.6,248.3,507.1,248.3z"/>
		<path class="st27" d="M507.1,258.7c-28.2,0-51.2-23-51.2-51.2s23-51.2,51.2-51.2c28.2,0,51.2,23,51.2,51.2
			S535.3,258.7,507.1,258.7z M507.1,164.3c-23.8,0-43.2,19.4-43.2,43.2c0,23.8,19.4,43.2,43.2,43.2s43.2-19.4,43.2-43.2
			C550.3,183.7,530.9,164.3,507.1,164.3z"/>
		<g>
			<path class="st28" d="M505.8,206.9l-13-0.3c-7-0.1-16-1.7-25.2-4.4c-0.2,1.5-0.3,3-0.3,4.6c9.6,2.7,18.5,4.2,25.4,4.3
				c-5.7,4.3-12.2,10.9-18.4,18.9c0.9,1.3,1.8,2.5,2.9,3.7c6-7.9,12.6-14.7,18.3-19L505.8,206.9z"/>
			<path class="st28" d="M511.4,220.1l-4.2-12.2l-4.2,12.2c-2.4,6.9-6.9,15.3-12.6,23.5c1.4,0.6,2.8,1.2,4.3,1.7
				c5.9-8.6,10.2-16.9,12.6-23.7c2.4,6.8,6.7,15.2,12.6,23.7c1.5-0.5,2.9-1.1,4.3-1.7C518.3,235.4,513.7,226.9,511.4,220.1z"/>
			<path class="st28" d="M546.6,202.2c-9.2,2.7-18.2,4.3-25.2,4.4l-13,0.3l10.3,7.8c5.7,4.3,12.3,11.2,18.3,19c1-1.2,2-2.4,2.9-3.7
				c-6.3-8.1-12.8-14.7-18.4-18.9c6.9-0.1,15.8-1.6,25.4-4.3C546.9,205.2,546.8,203.7,546.6,202.2z"/>
			<path class="st28" d="M498.5,194.4c-5.6-3.9-13.5-8-22.7-11.4c-1,1.2-1.8,2.5-2.7,3.8c9,3.3,17.1,7.3,22.8,11.2l10.7,7.6
				l-3.9-12.6c-2-6.5-3.3-15.2-3.6-24.6c-1.5,0.3-3,0.7-4.5,1.2C495.1,179.3,496.5,187.9,498.5,194.4z"/>
			<path class="st28" d="M516.2,194c1.9-6.4,3.2-14.8,3.7-24.2c-1.5-0.5-2.9-0.9-4.5-1.2c-0.3,9.2-1.6,17.6-3.5,24.2l-3.7,12.3
				l10.5-7.3c5.7-3.9,13.5-7.8,22.3-10.9c-0.8-1.3-1.7-2.6-2.7-3.8C529.5,186.3,521.8,190.2,516.2,194z"/>
		</g>
		
			<ellipse transform="matrix(0.1602 -0.9871 0.9871 0.1602 221.0478 674.8278)" class="st28" cx="507.1" cy="207.5" rx="14.7" ry="14.7"/>
		
			<ellipse transform="matrix(0.1602 -0.9871 0.9871 0.1602 221.0479 674.8278)" class="st29" cx="507.1" cy="207.5" rx="9.3" ry="9.3"/>
		<path class="st30" d="M507.1,166.3c-22.7,0-41.2,18.4-41.2,41.2s18.4,41.2,41.2,41.2c22.7,0,41.2-18.4,41.2-41.2
			S529.8,166.3,507.1,166.3z M507.1,246.3c-21.4,0-38.7-17.3-38.7-38.7c0-21.4,17.3-38.7,38.7-38.7c21.4,0,38.7,17.3,38.7,38.7
			C545.9,228.9,528.5,246.3,507.1,246.3z"/>
	</g>
</g>
</svg>
