<?xml version="1.0" encoding="utf-8"?>
<!-- Generator: Adobe Illustrator 23.0.0, SVG Export Plug-In . SVG Version: 6.00 Build 0)  -->
<svg version="1.1" id="Layer_1" xmlns="http://www.w3.org/2000/svg" xmlns:xlink="http://www.w3.org/1999/xlink" x="0px" y="0px"
	 width="654.7px" height="273.4px" viewBox="0 0 654.7 273.4" style="enable-background:new 0 0 654.7 273.4;" xml:space="preserve"
	>
<style type="text/css">
	.st0{fill:#15191B;}
	.st1{fill:#425376;}
	.st2{fill:#273945;}
	.st3{fill:#3F5B71;}
	.st4{fill:#8D251C;}
	.st5{fill:#333333;}
	.st6{fill:#414141;}
	.st7{fill:#C7DDF2;}
	.st8{fill:#ABCAEB;}
	.st9{fill:#DBE8F7;}
	.st10{fill:#5555A5;}
	.st11{fill:#D6E4F5;}
	.st12{fill:#9FC0E6;}
	.st13{opacity:0.4;fill:#010101;}
	.st14{opacity:0.2;fill:#FFFFFF;}
	.st15{fill:#0F0E14;}
	.st16{opacity:0.3;fill:#C2D9F1;}
	.st17{fill:#C7DBF1;}
	.st18{fill:#8CB1DE;}
	.st19{opacity:0.6;fill:#D8E6F6;}
	.st20{opacity:0.3;fill:#FFFFFF;}
	.st21{fill:#1B1F24;}
	.st22{opacity:0.2;fill:#010101;}
	.st23{opacity:0.6;fill:#010101;}
	.st24{fill:#D12E34;}
</style>
<g>
	<path class="st0" d="M45.6,234.8c0,0,523.1,0,529.2,0c6.1,0,43-7,43-7v-76H45.6V234.8z"/>
	<g>
		<path class="st1" d="M552.5,185.1c-18.5,0-33.5,15-33.5,33.5c0,18.5,15,33.5,33.5,33.5c18.5,0,33.5-15,33.5-33.5
			C586,200.1,571,185.1,552.5,185.1z M552.5,238.1c-10.8,0-19.5-8.7-19.5-19.5s8.7-19.5,19.5-19.5s19.5,8.7,19.5,19.5
			S563.3,238.1,552.5,238.1z"/>
		<g>
			<path class="st2" d="M545.1,179l13.6,4.1c1.1,0.3,2.3-0.3,2.6-1.4l0,0c0.3-1.1-0.3-2.3-1.4-2.6l-13.6-4.1
				c-1.1-0.3-2.3,0.3-2.6,1.4l0,0C543.3,177.4,544,178.6,545.1,179z"/>
			<path class="st3" d="M560,183.1l-13.6,4.1c-1.1,0.3-2.3-0.3-2.6-1.4l0,0c-0.3-1.1,0.3-2.3,1.4-2.6l13.6-4.1
				c1.1-0.3,2.3,0.3,2.6,1.4v0C561.7,181.6,561.1,182.8,560,183.1z"/>
			<path class="st2" d="M545.1,170.6l13.6,4.1c1.1,0.3,2.3-0.3,2.6-1.4l0,0c0.3-1.1-0.3-2.3-1.4-2.6l-13.6-4.1
				c-1.1-0.3-2.3,0.3-2.6,1.4l0,0C543.3,169.1,544,170.3,545.1,170.6z"/>
			<path class="st3" d="M560,174.8l-13.6,4.1c-1.1,0.3-2.3-0.3-2.6-1.4l0,0c-0.3-1.1,0.3-2.3,1.4-2.6l13.6-4.1
				c1.1-0.3,2.3,0.3,2.6,1.4l0,0C561.7,173.3,561.1,174.4,560,174.8z"/>
			<path class="st2" d="M545.1,162.3l13.6,4.1c1.1,0.3,2.3-0.3,2.6-1.4l0,0c0.3-1.1-0.3-2.3-1.4-2.6l-13.6-4.1
				c-1.1-0.3-2.3,0.3-2.6,1.4l0,0C543.3,160.7,544,161.9,545.1,162.3z"/>
			<path class="st3" d="M560,166.4l-13.6,4.1c-1.1,0.3-2.3-0.3-2.6-1.4l0,0c-0.3-1.1,0.3-2.3,1.4-2.6l13.6-4.1
				c1.1-0.3,2.3,0.3,2.6,1.4l0,0C561.7,164.9,561.1,166.1,560,166.4z"/>
			<path class="st2" d="M545.1,153.9l13.6,4.1c1.1,0.3,2.3-0.3,2.6-1.4l0,0c0.3-1.1-0.3-2.3-1.4-2.6l-13.6-4.1
				c-1.1-0.3-2.3,0.3-2.6,1.4l0,0C543.3,152.4,544,153.6,545.1,153.9z"/>
			<path class="st3" d="M560,158.1l-13.6,4.1c-1.1,0.3-2.3-0.3-2.6-1.4l0,0c-0.3-1.1,0.3-2.3,1.4-2.6l13.6-4.1
				c1.1-0.3,2.3,0.3,2.6,1.4l0,0C561.7,156.6,561.1,157.8,560,158.1z"/>
		</g>
		<path class="st4" d="M576.6,218.7c0,3.2-0.7,6.3-1.8,9.1c-0.8,1.9,0,4,1.8,4.9l5.9,2.9c1.9,0.9,4.3,0.1,5.1-1.9
			c2-4.6,3.1-9.7,3.1-15c0-5.3-1.1-10.4-3.1-15c-0.8-2-3.2-2.8-5.1-1.9l-5.9,2.9c-1.8,0.9-2.6,3-1.8,4.9
			C575.9,212.3,576.6,215.4,576.6,218.7z"/>
	</g>
	<g>
		<path class="st5" d="M552.5,163.9c-30.2,0-54.7,24.5-54.7,54.7s24.5,54.7,54.7,54.7c30.2,0,54.7-24.5,54.7-54.7
			S582.8,163.9,552.5,163.9z M552.5,259.4c-22.5,0-40.7-18.2-40.7-40.7c0-22.5,18.2-40.7,40.7-40.7c22.5,0,40.7,18.2,40.7,40.7
			C593.3,241.2,575,259.4,552.5,259.4z"/>
		<path class="st6" d="M552.5,269.8c-28.2,0-51.2-23-51.2-51.2s23-51.2,51.2-51.2c28.2,0,51.2,23,51.2,51.2S580.7,269.8,552.5,269.8
			z M552.5,175.4c-23.8,0-43.2,19.4-43.2,43.2c0,23.8,19.4,43.2,43.2,43.2s43.2-19.4,43.2-43.2C595.8,194.8,576.4,175.4,552.5,175.4
			z"/>
		<g>
			<path class="st7" d="M551.2,218l-13-0.3c-7-0.1-16-1.7-25.2-4.4c-0.2,1.5-0.3,3-0.3,4.6c9.6,2.7,18.5,4.2,25.4,4.3
				c-5.7,4.3-12.2,10.9-18.4,18.9c0.9,1.3,1.8,2.5,2.9,3.7c6-7.9,12.6-14.7,18.3-19L551.2,218z"/>
			<path class="st7" d="M556.8,231.2l-4.2-12.2l-4.2,12.2c-2.4,6.9-6.9,15.3-12.6,23.5c1.4,0.6,2.8,1.2,4.3,1.7
				c5.9-8.6,10.2-16.9,12.6-23.7c2.4,6.8,6.7,15.2,12.6,23.7c1.5-0.5,2.9-1.1,4.3-1.7C563.7,246.5,559.1,238.1,556.8,231.2z"/>
			<path class="st7" d="M592,213.4c-9.2,2.7-18.2,4.3-25.2,4.4l-13,0.3l10.3,7.8c5.7,4.3,12.3,11.2,18.3,19c1-1.2,2-2.4,2.9-3.7
				c-6.3-8.1-12.8-14.7-18.4-18.9c6.9-0.1,15.8-1.6,25.4-4.3C592.3,216.4,592.2,214.9,592,213.4z"/>
			<path class="st7" d="M543.9,205.5c-5.6-3.9-13.5-8-22.7-11.4c-1,1.2-1.8,2.5-2.7,3.8c9,3.3,17.1,7.3,22.8,11.2l10.7,7.6
				l-3.9-12.6c-2-6.5-3.3-15.2-3.6-24.6c-1.5,0.3-3,0.7-4.5,1.2C540.5,190.5,541.9,199,543.9,205.5z"/>
			<path class="st7" d="M561.7,205.2c1.9-6.4,3.2-14.8,3.7-24.2c-1.5-0.5-2.9-0.9-4.5-1.2c-0.3,9.2-1.6,17.6-3.5,24.2l-3.7,12.3
				l10.5-7.3c5.7-3.9,13.5-7.8,22.3-10.9c-0.8-1.3-1.7-2.6-2.7-3.8C574.9,197.4,567.2,201.3,561.7,205.2z"/>
		</g>
		
			<ellipse transform="matrix(0.2298 -0.9732 0.9732 0.2298 212.7831 706.1629)" class="st7" cx="552.5" cy="218.7" rx="14.7" ry="14.7"/>
		
			<ellipse transform="matrix(0.2298 -0.9732 0.9732 0.2298 212.7833 706.163)" class="st8" cx="552.5" cy="218.7" rx="9.3" ry="9.3"/>
		<path class="st9" d="M552.5,177.5c-22.7,0-41.2,18.4-41.2,41.2s18.4,41.2,41.2,41.2s41.2-18.4,41.2-41.2S575.3,177.5,552.5,177.5z
			 M552.5,257.4c-21.4,0-38.7-17.3-38.7-38.7c0-21.4,17.3-38.7,38.7-38.7c21.4,0,38.7,17.3,38.7,38.7
			C591.3,240,573.9,257.4,552.5,257.4z"/>
	</g>
	<g>
		<g>
			<path class="st2" d="M103.1,179l13.6,4.1c1.1,0.3,2.3-0.3,2.6-1.4l0,0c0.3-1.1-0.3-2.3-1.4-2.6l-13.6-4.1
				c-1.1-0.3-2.3,0.3-2.6,1.4l0,0C101.4,177.4,102,178.6,103.1,179z"/>
			<path class="st3" d="M118,183.1l-13.6,4.1c-1.1,0.3-2.3-0.3-2.6-1.4l0,0c-0.3-1.1,0.3-2.3,1.4-2.6l13.6-4.1
				c1.1-0.3,2.3,0.3,2.6,1.4v0C119.7,181.6,119.1,182.8,118,183.1z"/>
			<path class="st2" d="M103.1,170.6l13.6,4.1c1.1,0.3,2.3-0.3,2.6-1.4l0,0c0.3-1.1-0.3-2.3-1.4-2.6l-13.6-4.1
				c-1.1-0.3-2.3,0.3-2.6,1.4l0,0C101.4,169.1,102,170.3,103.1,170.6z"/>
			<path class="st3" d="M118,174.8l-13.6,4.1c-1.1,0.3-2.3-0.3-2.6-1.4l0,0c-0.3-1.1,0.3-2.3,1.4-2.6l13.6-4.1
				c1.1-0.3,2.3,0.3,2.6,1.4l0,0C119.7,173.3,119.1,174.4,118,174.8z"/>
			<path class="st2" d="M103.1,162.3l13.6,4.1c1.1,0.3,2.3-0.3,2.6-1.4l0,0c0.3-1.1-0.3-2.3-1.4-2.6l-13.6-4.1
				c-1.1-0.3-2.3,0.3-2.6,1.4l0,0C101.4,160.7,102,161.9,103.1,162.3z"/>
			<path class="st3" d="M118,166.4l-13.6,4.1c-1.1,0.3-2.3-0.3-2.6-1.4l0,0c-0.3-1.1,0.3-2.3,1.4-2.6l13.6-4.1
				c1.1-0.3,2.3,0.3,2.6,1.4l0,0C119.7,164.9,119.1,166.1,118,166.4z"/>
			<path class="st2" d="M103.1,153.9l13.6,4.1c1.1,0.3,2.3-0.3,2.6-1.4l0,0c0.3-1.1-0.3-2.3-1.4-2.6l-13.6-4.1
				c-1.1-0.3-2.3,0.3-2.6,1.4l0,0C101.4,152.4,102,153.6,103.1,153.9z"/>
			<path class="st3" d="M118,158.1l-13.6,4.1c-1.1,0.3-2.3-0.3-2.6-1.4l0,0c-0.3-1.1,0.3-2.3,1.4-2.6l13.6-4.1
				c1.1-0.3,2.3,0.3,2.6,1.4l0,0C119.7,156.6,119.1,157.8,118,158.1z"/>
		</g>
		<path class="st1" d="M110.5,185.1c-18.5,0-33.5,15-33.5,33.5c0,18.5,15,33.5,33.5,33.5c18.5,0,33.5-15,33.5-33.5
			C144.1,200.1,129.1,185.1,110.5,185.1z M110.5,238.1c-10.8,0-19.5-8.7-19.5-19.5s8.7-19.5,19.5-19.5s19.5,8.7,19.5,19.5
			S121.3,238.1,110.5,238.1z"/>
		<path class="st4" d="M134.6,218.7c0,3.2-0.7,6.3-1.8,9.1c-0.8,1.9,0,4,1.8,4.9l5.9,2.9c1.9,0.9,4.3,0.1,5.1-1.9
			c2-4.6,3.1-9.7,3.1-15c0-5.3-1.1-10.4-3.1-15c-0.8-2-3.2-2.8-5.1-1.9l-5.9,2.9c-1.8,0.9-2.6,3-1.8,4.9
			C134,212.3,134.6,215.4,134.6,218.7z"/>
	</g>
	<g>
		<path class="st5" d="M110.5,163.9c-30.2,0-54.7,24.5-54.7,54.7s24.5,54.7,54.7,54.7s54.7-24.5,54.7-54.7S140.8,163.9,110.5,163.9z
			 M110.5,259.4c-22.5,0-40.7-18.2-40.7-40.7c0-22.5,18.2-40.7,40.7-40.7s40.7,18.2,40.7,40.7C151.3,241.2,133,259.4,110.5,259.4z"
			/>
		<path class="st6" d="M110.5,269.8c-28.2,0-51.2-23-51.2-51.2s23-51.2,51.2-51.2s51.2,23,51.2,51.2S138.8,269.8,110.5,269.8z
			 M110.5,175.4c-23.8,0-43.2,19.4-43.2,43.2c0,23.8,19.4,43.2,43.2,43.2s43.2-19.4,43.2-43.2C153.8,194.8,134.4,175.4,110.5,175.4z
			"/>
		<g>
			<path class="st7" d="M109.2,218l-13-0.3c-7-0.1-16-1.7-25.2-4.4c-0.2,1.5-0.3,3-0.3,4.6c9.6,2.7,18.5,4.2,25.4,4.3
				c-5.7,4.3-12.2,10.9-18.4,18.9c0.9,1.3,1.8,2.5,2.9,3.7c6-7.9,12.6-14.7,18.3-19L109.2,218z"/>
			<path class="st7" d="M114.8,231.2l-4.2-12.2l-4.2,12.2c-2.4,6.9-6.9,15.3-12.6,23.5c1.4,0.6,2.8,1.2,4.3,1.7
				c5.9-8.6,10.2-16.9,12.6-23.7c2.4,6.8,6.7,15.2,12.6,23.7c1.5-0.5,2.9-1.1,4.3-1.7C121.7,246.5,117.2,238.1,114.8,231.2z"/>
			<path class="st7" d="M150,213.4c-9.2,2.7-18.2,4.3-25.2,4.4l-13,0.3l10.3,7.8c5.7,4.3,12.3,11.2,18.3,19c1-1.2,2-2.4,2.9-3.7
				c-6.3-8.1-12.8-14.7-18.4-18.9c6.9-0.1,15.8-1.6,25.4-4.3C150.3,216.4,150.2,214.9,150,213.4z"/>
			<path class="st7" d="M101.9,205.5c-5.6-3.9-13.5-8-22.7-11.4c-1,1.2-1.8,2.5-2.7,3.8c9,3.3,17.1,7.3,22.8,11.2l10.7,7.6
				l-3.9-12.6c-2-6.5-3.3-15.2-3.6-24.6c-1.5,0.3-3,0.7-4.5,1.2C98.5,190.5,99.9,199,101.9,205.5z"/>
			<path class="st7" d="M119.7,205.2c1.9-6.4,3.2-14.8,3.7-24.2c-1.5-0.5-2.9-0.9-4.5-1.2c-0.3,9.2-1.6,17.6-3.5,24.2l-3.7,12.3
				l10.5-7.3c5.7-3.9,13.5-7.8,22.3-10.9c-0.8-1.3-1.7-2.6-2.7-3.8C132.9,197.4,125.2,201.3,119.7,205.2z"/>
		</g>
		
			<ellipse transform="matrix(0.1602 -0.9871 0.9871 0.1602 -122.9881 292.745)" class="st7" cx="110.5" cy="218.7" rx="14.7" ry="14.7"/>
		
			<ellipse transform="matrix(0.1602 -0.9871 0.9871 0.1602 -122.9881 292.745)" class="st8" cx="110.5" cy="218.7" rx="9.3" ry="9.3"/>
		<path class="st9" d="M110.5,177.5c-22.7,0-41.2,18.4-41.2,41.2s18.4,41.2,41.2,41.2s41.2-18.4,41.2-41.2S133.3,177.5,110.5,177.5z
			 M110.5,257.4c-21.4,0-38.7-17.3-38.7-38.7c0-21.4,17.3-38.7,38.7-38.7c21.4,0,38.7,17.3,38.7,38.7
			C149.3,240,131.9,257.4,110.5,257.4z"/>
	</g>
	<g>
		<path class="st10" d="M646.1,147.3c-1.2-3.6-10.7-55.1-13.9-60c-3.2-4.9-54.7-62.1-86.3-73.4C529.7,8,367.3,5.9,313.8,12.3
			C260.3,18.7,170,94,170,94s-68.5,7.3-96.3,16c-27.9,8.6-48.8,24.6-53,31c-4.2,6.4-5.3,27.8-6.2,29.5c-0.9,1.7-6.6,7.2-7.8,10.8
			c-1.3,3.5,4.2,40.6,6.8,46c2,4.1,13.7,11.3,17.8,11.3c1.7,0,9.3,0,17.7,0c-0.3-6.8-0.4-14.4-0.4-22.9c0-34.2,27.8-62,62-62
			s62,27.8,62,62c0,8.5-0.2,16.1-0.4,22.9c91.4,0,227.6,0,318.7,0c-0.3-6.8-0.4-14.4-0.4-22.9c0-34.2,27.8-62,62-62
			c34.2,0,62,27.8,62,62c0,5.3-0.1,10.1-0.2,14.7c13.4-5,26.5-10.6,27.9-11.8C644.7,216.4,647.3,150.9,646.1,147.3z"/>
		<path class="st11" d="M172.5,215.7L172.5,215.7L172.5,215.7c0,1.1,0,2.3,0,3.4c0,0.4,0,0.7,0,1.1c0,0.7,0,1.4,0,2.1
			c0,0.4,0,0.9,0,1.3c0,0.6,0,1.2,0,1.9c0,0.5,0,0.9,0,1.4c0,0.6,0,1.1,0,1.7c0,0.5,0,0.9,0,1.4c0,0.5,0,1.1,0,1.6
			c0,0.5,0,0.9,0,1.3c0,0.5,0,1,0,1.6c0,0.4,0,0.9,0,1.3c0,0.5,0,1-0.1,1.5c0,0.4,0,0.8,0,1.2c0,0,0,0,0,0c2.3,0,4.7,0,7.1,0
			c0.3-7.2,0.4-15.2,0.4-24.1c0-38.8-30.9-70.3-69-70.3c-38.1,0-69,31.5-69,70.3c0,8.9,0.1,16.9,0.4,24.1c2.2,0,4.6,0,7.1,0
			c0-0.4,0-0.9,0-1.3c0-0.5,0-1-0.1-1.5c0-0.4,0-0.9,0-1.3c0-0.5,0-1,0-1.5c0-0.5,0-0.9,0-1.4c0-0.5,0-1.1,0-1.6c0-0.5,0-0.9,0-1.4
			c0-0.6,0-1.1,0-1.7c0-0.5,0-0.9,0-1.4c0-0.6,0-1.2,0-1.9c0-0.4,0-0.9,0-1.3c0-0.7,0-1.4,0-2.2c0-0.4,0-0.7,0-1.1
			c0-1.1,0-2.2,0-3.4l0,0l0,0c0-12.8,3.9-24.8,10.6-34.7c4.5-6.6,10.1-12.3,16.7-16.7c9.9-6.7,21.8-10.6,34.7-10.6
			c12.8,0,24.8,3.9,34.7,10.6c6.6,4.5,12.3,10.1,16.7,16.7C168.6,190.9,172.5,202.8,172.5,215.7z"/>
		<path class="st11" d="M621.6,214.4c0-38.8-30.9-70.3-69-70.3c-38.1,0-69,31.5-69,70.3c0,8.9,0.1,16.9,0.4,24.1c2.4,0,4.7,0,7,0
			c-0.3-6.8-0.4-14.4-0.4-22.9c0-34.2,27.8-62,62-62c0,0,0,0,0,0c0,0,0,0,0,0c34.2,0,62,27.8,62,62c0,5.2-0.1,10.1-0.2,14.7
			c2.4-0.9,4.8-1.8,7.1-2.7C621.5,223.5,621.6,219.1,621.6,214.4z"/>
		<path class="st5" d="M48.6,216.4H10.7c1,5.2,2,9.3,2.7,10.8c2,4.1,13.7,11.3,17.8,11.3c1.7,0,9.3,0,17.7,0
			C48.7,231.9,48.6,224.6,48.6,216.4z"/>
		<path class="st5" d="M614.5,216.4c0,5-0.1,9.6-0.2,14c13.4-5,26.5-10.6,27.9-11.8c0.2-0.2,0.5-1,0.7-2.2H614.5z"/>
		<path class="st5" d="M490.5,216.4H172.5c0,8.2-0.2,15.6-0.4,22.2c91.4,0,227.6,0,318.7,0C490.6,231.9,490.5,224.6,490.5,216.4z"/>
		<path class="st12" d="M14.6,170c2.1,0,23.5-0.9,26.8-1.4c3.3-0.5,22-25.5,25.1-27.8c3.1-2.3-40.9,0.2-46.3,1.1
			C14.7,142.7,12.5,170,14.6,170z"/>
		<path class="st13" d="M150.3,132.5c7.1,0,336.9,0,351.8,0s-17.6,45-24.2,45s-233.7,0-251.9,0S119.4,132.5,150.3,132.5z"/>
		<path class="st14" d="M44.5,131.2c0,0,26-12.9,59.3-21.8c33.3-8.9,84.3-12.1,84.3-12.1s324.9-8,336.5-8c11.7,0,98.4,0,98.4,0v19.3
			c0,0-432.3,2.8-451.2,3.6C153,113.2,80,121.3,44.5,131.2z"/>
		<path class="st5" d="M515.8,26.4c-5.9-7.1-14.6-11.3-23.9-11.6c-17.6-0.4-46.9-1-67.1-1c-46.3,0-83.3,1.3-101.6,3.6
			c-46.9,5.8-126.4,72.6-135,79.9c0,0,334.3-7.7,336.5-8c2.2-0.3,22-16.4,23.8-21C549,66.7,528.4,41.5,515.8,26.4z"/>
		<path class="st15" d="M523.1,89.4c4-2,21.2-15.8,22.8-20c0.6-1.5-19.8-25.8-32.2-40.4c-5.8-6.9-14.4-10.9-23.6-11.1
			c-17.3-0.4-46.3-1-66.2-1c-45.6,0-82.2,1.3-100.2,3.4C277.6,26,199.5,90,190.7,97.3C220.6,96.6,499.7,90.2,523.1,89.4z"/>
		<path class="st16" d="M513.7,29.1c-5.8-6.9-14.4-10.9-23.6-11.1c-10.8-0.2-26.2-0.6-41.1-0.8c-81,10.7-148.2,24.6-201.3,38.1
			c-28.4,18.5-52.4,38.2-57,42.1c0.4,0,0.8,0,1.3,0c110.3-14.5,264.3-28,349.2-34.9C534.6,53.7,522.3,39.1,513.7,29.1z"/>
		<path class="st5" d="M371,93.1c5.2-0.1,10.3-0.2,15.4-0.4l5.1-78.7c-3.7,0.1-7.3,0.1-10.8,0.2L371,93.1z"/>
		<path class="st5" d="M498.1,15.6c-2-0.4-4.1-0.7-6.1-0.8l24,74.8c4.4-0.1,7.3-0.2,8.3-0.2L498.1,15.6z"/>
		<path class="st5" d="M214.1,97.9c0,0.9-5.4,1.5-9.4,1.5c-4-0.1-5.1-0.8-5.1-1.7c0-0.9,3.3-1.6,7.2-1.5
			C210.9,96.3,214.1,97,214.1,97.9z"/>
		<path class="st17" d="M222,97.1c-5.1,0.1-19,1.4-22.3,0.9c-7.1-1-2.7-7.4,4.5-12.3c6.4-4.3,11.4-6.3,12.8-6.2
			C218.5,79.6,224.4,97,222,97.1z"/>
		<path class="st18" d="M39.5,145.7c-1.1,0.6-10.5,18.2-11.8,18.5c-0.9,0.1-8.9,1.9-13.8,2.9c0.1,1.8,0.3,3,0.8,3
			c2.1,0,23.5-0.9,26.8-1.4c2.8-0.4,16.7-18.6,22.8-25.4C57,143.8,40.4,145.2,39.5,145.7z"/>
		<path class="st19" d="M42.7,142.8c-2.7-1.1-7.2,3.4-10.1,10.1c-2.9,6.7-3.1,13.1-0.4,14.3s7.2-3.4,10.1-10.1
			C45.1,150.3,45.3,143.9,42.7,142.8z M38.9,155.6c-1.7,4-4.4,6.7-6,6c-1.6-0.7-1.5-4.5,0.2-8.5c1.7-4,4.4-6.7,6-6
			C40.7,147.8,40.6,151.6,38.9,155.6z"/>
		<path class="st19" d="M26.8,150.5c-1.9-0.8-5.1,2.4-7.1,7.2c-2.1,4.8-2.2,9.3-0.3,10.1c1.9,0.8,5.1-2.4,7.1-7.2
			C28.6,155.8,28.7,151.3,26.8,150.5z M24.1,159.6c-1.2,2.8-3.1,4.8-4.2,4.3c-1.1-0.5-1-3.2,0.2-6c1.2-2.8,3.1-4.8,4.2-4.3
			C25.4,154.1,25.3,156.8,24.1,159.6z"/>
		<path class="st20" d="M13.9,163c13.2-3.7,27.5-5.5,39.1-6.4c5.8-7,11.9-14.6,13.5-15.8c1-0.8-3.1-1-9.3-0.9
			c-15.1,4.3-31.8,9.3-42,12.4C14.5,155.9,14.1,159.8,13.9,163z"/>
		<path class="st5" d="M14.4,211.4c-1.6,0-4.6-22.7-2.8-22.7c3.3,0,6.5,0,8.5,0s12.4,22.7,10.2,22.7
			C28.2,211.4,17.8,211.4,14.4,211.4z"/>
		<g>
			<path class="st21" d="M28.9,205c-7.1,0.1-12.6,0.5-12.6,1.1c0,0.6,5.9,1,13.4,1.1C29.5,206.5,29.2,205.8,28.9,205z"/>
			<path class="st21" d="M24.6,195.5c-0.4-0.7-0.8-1.5-1.1-2.1c-6.2,0.1-10.8,0.5-10.8,1C12.8,195,17.9,195.4,24.6,195.5z"/>
			<path class="st21" d="M27.4,201.3c-0.3-0.7-0.6-1.4-1-2.2c-6.9,0.1-12.2,0.5-12.2,1.1C14.2,200.8,20,201.3,27.4,201.3z"/>
		</g>
		<path class="st22" d="M20.2,188.8c-2,0-5.2,0-8.5,0c-0.3,0-0.5,0.7-0.5,1.8c2,0,3.8,0,5.1,0c1.7,0,9.1,15.5,10.3,20.9
			c1.7,0,3.1,0,3.8,0C32.6,211.4,22.2,188.8,20.2,188.8z"/>
		<g>
			<path class="st22" d="M367.1,109c0,2.2-5,5.1-11.4,5.2c-6.3,0.1-11.5-2.6-11.5-4.8c0-2.2,5.1-2.4,11.4-2.5
				C361.9,106.8,367.1,106.8,367.1,109z"/>
			<path class="st6" d="M369.3,109c0,1-2,1.9-6.3,2.5c-1.3,0.2-1.7-0.9-4.7-0.7c-2.7,0.2-3,1.3-4.8,1.3c-10.9,0.2-11.5-1.1-11.5-2.6
				s0.4-2.8,11.4-3C364.3,106.3,369.2,107.4,369.3,109z"/>
		</g>
		<g>
			<path class="st22" d="M510.9,108.2c0,2.2-5.1,5-11.4,5.1c-6.3,0-11.4-2.7-11.5-5c0-2.2,5.1-2.4,11.4-2.4
				C505.8,105.9,510.9,106,510.9,108.2z"/>
			<path class="st6" d="M513.1,108.2c0,1-2,1.9-6.4,2.4c-1.3,0.2-1.7-0.9-4.7-0.8c-2.7,0.1-3,1.2-4.8,1.2
				c-10.9,0.1-11.4-1.2-11.4-2.7c0-1.5,0.5-2.8,11.4-2.9C508.2,105.4,513.1,106.6,513.1,108.2z"/>
		</g>
		<path class="st23" d="M520.1,89.5c-0.1-3.4-15.8-47.7-25.4-74.5c-0.4,0-0.7-0.1-1.1-0.1c11.3,31.5,25.5,71.5,25.5,74.6
			c0.1,3.8-2.2,47.7-3.3,67.5l0,1c-0.1,1.5-0.8,2.8-1.9,3.7c-17.7,13.5-27.8,34.1-27.8,56.6c0,2,0,4,0,6c0,2-1.6,3.6-3.6,3.7l-0.5,0
			H376.1c0.8-46,2.4-132.6,2.7-134.6c0.3-1.8,4.9-53.1,7.2-79.3c-0.3,0-0.7,0-1,0c-2.3,26.2-6.9,77.4-7.2,79.1
			c-0.4,2.3-2.6,124.6-2.7,134.7H196.5c-1.2-6.4-15.3-83-14.2-98.6c1.1-16.2,7-32,7.1-32.1l-1.3,0.1c-0.1,0.2-5.7,15.6-6.8,32
			c-1.2,16.3,13.7,95.9,14.3,99.3l0.1,0.4h286.2l0.6,0c2.6,0,4.6-2.1,4.6-4.7c0-2,0-4,0-6c0-22.1,10-42.5,27.4-55.8
			c1.4-1.1,2.2-2.7,2.3-4.5l0-1.1C517.9,137.2,520.2,93.3,520.1,89.5z"/>
		<path class="st24" d="M632.2,87.2c-1.7,0-9.7,0-11.6,0c-1.9,0,0.4,31.3,0.9,33.8c0.4,2.5,20,9.1,21,9.1
			C643.4,130.2,634.2,87.2,632.2,87.2z"/>
		<path class="st20" d="M637.9,108.4c-4.9-1.6-15.3-4.6-16.6-8.1c-0.6-3.9-0.2-6.3,0.5-11.3h10.8
			C634.7,93.5,636.7,100.4,637.9,108.4z"/>
	</g>
</g>
</svg>
