<?xml version="1.0" encoding="utf-8"?>
<!-- Generator: Adobe Illustrator 23.0.0, SVG Export Plug-In . SVG Version: 6.00 Build 0)  -->
<svg version="1.1" id="Layer_1" xmlns="http://www.w3.org/2000/svg" xmlns:xlink="http://www.w3.org/1999/xlink" x="0px" y="0px"
	 width="548.4px" height="231.1px" viewBox="0 0 548.4 231.1" style="enable-background:new 0 0 548.4 231.1;" xml:space="preserve"
	>
<style type="text/css">
	.st0{fill:#15191B;}
	.st1{fill:#ABCAEB;}
	.st2{fill:#89B3DF;}
	.st3{fill:#333333;}
	.st4{fill:#414141;}
	.st5{fill:#3B4E8A;}
	.st6{fill:#9FC1E6;}
	.st7{opacity:0.3;fill:#010101;}
	.st8{fill:#C7DDF2;}
	.st9{fill:#DBE8F7;}
	.st10{opacity:0.8;fill:#5555A5;}
	.st11{font-family:'MyriadPro-Regular';}
	.st12{font-size:12px;}
	.st13{fill:#5555A5;}
	.st14{fill:#484A64;}
	.st15{opacity:0.2;fill:#010101;}
	.st16{fill:#565876;}
	.st17{fill:#9FC0E6;}
	.st18{fill:#8CB1DE;}
	.st19{fill:#DAE7F6;}
	.st20{opacity:0.2;fill:#FFFFFF;}
	.st21{fill:#0F0E14;}
	.st22{fill:#434343;}
	.st23{opacity:0.6;}
	.st24{fill:#010101;}
	.st25{opacity:0.5;fill:#33348E;}
	.st26{opacity:0.3;fill:#FFFFFF;}
	.st27{fill:#D12E34;}
	.st28{opacity:0.5;fill:#010101;}
</style>
<g>
	<rect x="31.7" y="153.6" class="st0" width="450.9" height="50.3"/>
	<g>
		<circle class="st1" cx="444.3" cy="198.3" r="20"/>
		<circle class="st2" cx="444.3" cy="198.3" r="17.8"/>
		<path class="st3" d="M411.5,198.3c0,18.1,14.7,32.8,32.8,32.8c18.1,0,32.8-14.7,32.8-32.8c0-18.1-14.7-32.8-32.8-32.8
			C426.2,165.5,411.5,180.2,411.5,198.3z M424.3,198.3c0-11.1,9-20,20-20c11.1,0,20,9,20,20c0,11.1-9,20-20,20
			C433.2,218.3,424.3,209.4,424.3,198.3z"/>
		<path class="st4" d="M415.2,198.3c0-16.1,13.1-29.1,29.1-29.1c16.1,0,29.1,13.1,29.1,29.1c0,16.1-13.1,29.1-29.1,29.1
			C428.2,227.4,415.2,214.4,415.2,198.3z M420.7,198.3c0,13,10.6,23.6,23.6,23.6c13,0,23.6-10.6,23.6-23.6c0-13-10.6-23.6-23.6-23.6
			C431.3,174.7,420.7,185.3,420.7,198.3z"/>
		<g>
			<g>
				<g>
					<path class="st5" d="M442.8,182.9c0,0.9,0.7,1,1.5,1c0.8,0,1.5-0.2,1.5-1c0-0.9-0.7-1.6-1.5-1.6
						C443.5,181.3,442.8,182,442.8,182.9z"/>
					<path class="st5" d="M445.8,213.8c0-0.9-0.7-1-1.5-1c-0.8,0-1.5,0.2-1.5,1c0,0.9,0.7,1.6,1.5,1.6
						C445.1,215.4,445.8,214.7,445.8,213.8z"/>
				</g>
				<g>
					<path class="st5" d="M428.8,199.8c0.9,0,1-0.7,1-1.5c0-0.8-0.2-1.5-1-1.5s-1.6,0.7-1.6,1.5
						C427.2,199.2,427.9,199.8,428.8,199.8z"/>
					<path class="st5" d="M459.7,196.8c-0.9,0-1,0.7-1,1.5c0,0.8,0.2,1.5,1,1.5c0.9,0,1.6-0.7,1.6-1.5
						C461.3,197.5,460.6,196.8,459.7,196.8z"/>
				</g>
			</g>
			<g>
				<g>
					<path class="st5" d="M450.7,184.2c-0.4,0.8,0.1,1.2,0.8,1.7c0.7,0.4,1.4,0.6,1.8-0.1c0.4-0.8,0.2-1.7-0.5-2.1
						C452.1,183.1,451.1,183.4,450.7,184.2z"/>
					<path class="st5" d="M437.9,212.5c0.4-0.8-0.1-1.2-0.8-1.7c-0.7-0.4-1.4-0.6-1.8,0.1c-0.4,0.8-0.2,1.7,0.5,2.1
						C436.5,213.5,437.4,213.2,437.9,212.5z"/>
				</g>
				<g>
					<path class="st5" d="M430.1,191.9c0.8,0.4,1.2-0.1,1.7-0.8c0.4-0.7,0.6-1.4-0.1-1.8c-0.8-0.4-1.7-0.2-2.1,0.5
						C429.1,190.5,429.4,191.5,430.1,191.9z"/>
					<path class="st5" d="M458.4,204.7c-0.8-0.4-1.2,0.1-1.7,0.8c-0.4,0.7-0.6,1.4,0.1,1.8c0.8,0.4,1.7,0.2,2.1-0.5
						C459.5,206.1,459.2,205.2,458.4,204.7z"/>
				</g>
			</g>
			<g>
				<g>
					<path class="st5" d="M456.9,189.3c-0.8,0.4-0.6,1.1-0.1,1.8c0.4,0.7,0.9,1.2,1.7,0.8c0.8-0.4,1-1.4,0.6-2.1
						C458.6,189.1,457.7,188.8,456.9,189.3z"/>
					<path class="st5" d="M431.7,207.4c0.8-0.4,0.6-1.1,0.1-1.8c-0.4-0.7-0.9-1.2-1.7-0.8c-0.8,0.4-1,1.4-0.6,2.1
						C429.9,207.6,430.9,207.8,431.7,207.4z"/>
				</g>
				<g>
					<path class="st5" d="M435.2,185.7c0.4,0.8,1.1,0.6,1.8,0.1c0.7-0.4,1.2-0.9,0.8-1.7c-0.4-0.8-1.4-1-2.1-0.6
						C435,184,434.8,184.9,435.2,185.7z"/>
					<path class="st5" d="M453.3,211c-0.4-0.8-1.1-0.6-1.8-0.1c-0.7,0.4-1.2,0.9-0.8,1.7c0.4,0.8,1.4,1,2.1,0.6
						C453.5,212.7,453.8,211.7,453.3,211z"/>
				</g>
			</g>
		</g>
		<path class="st6" d="M423.8,198.3c0,11.3,9.2,20.4,20.4,20.4c11.3,0,20.4-9.2,20.4-20.4c0-11.3-9.2-20.4-20.4-20.4
			C433,177.9,423.8,187,423.8,198.3z M425,198.3c0-10.6,8.6-19.2,19.2-19.2c10.6,0,19.2,8.6,19.2,19.2c0,10.6-8.6,19.2-19.2,19.2
			C433.7,217.6,425,208.9,425,198.3z"/>
		<path class="st7" d="M444.3,190.5c-8.6,0-15.6,6.6-16.3,15c-1-2.2-1.5-4.7-1.5-7.3c0-9.9,8-17.8,17.8-17.8c9.9,0,17.8,8,17.8,17.8
			c0,2.6-0.6,5-1.5,7.3C459.9,197.2,452.9,190.5,444.3,190.5z"/>
		<circle class="st1" cx="444.3" cy="198.3" r="12.1"/>
		<circle class="st8" cx="444.3" cy="198.3" r="11.1"/>
		
			<ellipse transform="matrix(0.9871 -0.1602 0.1602 0.9871 -26.0299 73.7272)" class="st2" cx="444.3" cy="198.3" rx="5.6" ry="5.6"/>
	</g>
	<g>
		
			<ellipse transform="matrix(0.7071 -0.7071 0.7071 0.7071 -119.7273 107.5865)" class="st6" cx="70" cy="198.3" rx="22.1" ry="22.1"/>
		<path class="st7" d="M53.8,183.3c-0.9,2.5-1.4,5.2-1.4,8c0,12.2,9,22.1,20.2,22.1c9.3,0,17.1-6.9,19.5-16.3c0,0.4,0,0.8,0,1.2
			c0,12.2-9.9,22.1-22.1,22.1c-12.2,0-22.1-9.9-22.1-22.1C47.9,192.5,50.1,187.2,53.8,183.3z"/>
		<path class="st3" d="M37.2,198.3c0,18.1,14.7,32.8,32.8,32.8s32.8-14.7,32.8-32.8c0-18.1-14.7-32.8-32.8-32.8
			S37.2,180.2,37.2,198.3z M48.2,198.3c0-12,9.8-21.8,21.8-21.8c12,0,21.8,9.8,21.8,21.8c0,12-9.8,21.8-21.8,21.8
			C58,220.1,48.2,210.4,48.2,198.3z"/>
		<path class="st4" d="M40.1,198.3c0-16.5,13.4-29.9,29.9-29.9c16.5,0,29.9,13.4,29.9,29.9S86.5,228.2,70,228.2
			C53.5,228.2,40.1,214.8,40.1,198.3z M45.7,198.3c0,13.4,10.9,24.3,24.3,24.3c13.4,0,24.3-10.9,24.3-24.3
			c0-13.4-10.9-24.3-24.3-24.3C56.6,174,45.7,184.9,45.7,198.3z"/>
		<circle class="st9" cx="70" cy="198.3" r="15.2"/>
		<circle class="st8" cx="70" cy="198.3" r="11.9"/>
		<circle class="st2" cx="70" cy="198.3" r="5.8"/>
		<g>
			<g>
				<g>
					<path class="st5" d="M68.2,180c0,1,0.8,1.2,1.8,1.2c1,0,1.8-0.2,1.8-1.2c0-1-0.8-1.9-1.8-1.9C69,178.1,68.2,179,68.2,180z"/>
					<path class="st5" d="M71.8,216.6c0-1-0.8-1.2-1.8-1.2c-1,0-1.8,0.2-1.8,1.2c0,1,0.8,1.9,1.8,1.9
						C71,218.5,71.8,217.7,71.8,216.6z"/>
				</g>
				<g>
					<path class="st5" d="M51.7,200.1c1,0,1.2-0.8,1.2-1.8c0-1-0.2-1.8-1.2-1.8c-1,0-1.9,0.8-1.9,1.8
						C49.8,199.3,50.7,200.1,51.7,200.1z"/>
					<path class="st5" d="M88.3,196.5c-1,0-1.2,0.8-1.2,1.8c0,1,0.2,1.8,1.2,1.8s1.9-0.8,1.9-1.8C90.2,197.3,89.3,196.5,88.3,196.5z
						"/>
				</g>
			</g>
			<g>
				<g>
					<path class="st5" d="M77.6,181.6c-0.5,0.9,0.1,1.5,0.9,2c0.9,0.5,1.6,0.7,2.2-0.2c0.5-0.9,0.3-2-0.6-2.5
						C79.2,180.3,78.1,180.7,77.6,181.6z"/>
					<path class="st5" d="M62.4,215.1c0.5-0.9-0.1-1.5-0.9-2c-0.9-0.5-1.6-0.7-2.2,0.2c-0.5,0.9-0.3,2,0.6,2.5
						C60.8,216.3,61.9,216,62.4,215.1z"/>
				</g>
				<g>
					<path class="st5" d="M53.3,190.7c0.9,0.5,1.5-0.1,2-0.9c0.5-0.9,0.7-1.6-0.2-2.2c-0.9-0.5-2-0.3-2.5,0.6
						C52,189.1,52.4,190.2,53.3,190.7z"/>
					<path class="st5" d="M86.7,205.9c-0.9-0.5-1.5,0.1-2,0.9S84,208.5,85,209c0.9,0.5,2,0.3,2.5-0.6
						C88,207.6,87.6,206.4,86.7,205.9z"/>
				</g>
			</g>
			<g>
				<g>
					<path class="st5" d="M85,187.6c-0.9,0.5-0.7,1.3-0.2,2.2c0.5,0.9,1.1,1.5,2,0.9c0.9-0.5,1.2-1.6,0.7-2.5
						C87,187.4,85.9,187.1,85,187.6z"/>
					<path class="st5" d="M55.1,209c0.9-0.5,0.7-1.3,0.2-2.2s-1.1-1.5-2-0.9c-0.9,0.5-1.2,1.6-0.7,2.5C53,209.3,54.2,209.5,55.1,209
						z"/>
				</g>
				<g>
					<path class="st5" d="M59.3,183.4c0.5,0.9,1.3,0.7,2.2,0.2c0.9-0.5,1.5-1.1,0.9-2c-0.5-0.9-1.6-1.2-2.5-0.7
						C59.1,181.3,58.8,182.5,59.3,183.4z"/>
					<path class="st5" d="M80.7,213.3c-0.5-0.9-1.3-0.7-2.2-0.2c-0.9,0.5-1.5,1.1-0.9,2c0.5,0.9,1.6,1.2,2.5,0.7
						C81,215.3,81.2,214.2,80.7,213.3z"/>
				</g>
			</g>
		</g>
		<path class="st9" d="M47.7,198.3c0,12.3,10,22.3,22.3,22.3c12.3,0,22.3-10,22.3-22.3c0-12.3-10-22.3-22.3-22.3
			C57.7,176,47.7,186,47.7,198.3z M49,198.3c0-11.6,9.4-21,21-21c11.6,0,21,9.4,21,21c0,11.6-9.4,21-21,21
			C58.4,219.3,49,209.9,49,198.3z"/>
	</g>
	<g>
		<path class="st10" d="M537.4,34.8c0,0-3.4-30.8-7-30.8s-294.4,0-319.6,0c-40.1,0-77.8,42.3-77.8,42.3L537.4,34.8z"/>
		<text transform="matrix(1 0 0 1 225.7778 109.5556)" class="st11 st12">5143d9</text>
		<path class="st13" d="M34.3,120.2c10.4-8.7,50-18.9,50-18.9s38.3-57,58.9-66.5c17.8-8.2,69.5-10.7,69.5-10.7h321.4
			c1.8,0,3.2,1.4,3.2,3.2v178.3h-58c0-1.9,0-3.8,0-5.9c0-20.9-15.7-37.9-35.1-37.9c-19.4,0-35.1,17-35.1,37.9c0,2.1,0,4,0,5.9H105.1
			c0-1.9,0-3.8,0-5.9c0-20.9-15.7-37.9-35.1-37.9s-35.1,17-35.1,37.9c0,2.1,0,4,0,5.9H18l-3.6-53.4
			C14.5,152.2,26.8,126.5,34.3,120.2z"/>
		<g>
			<path class="st14" d="M411.6,185.8c-1.6,4.3-2.4,9-2.4,13.8c0,2.1,0,4,0,5.9H105.1c0-1.9,0-3.8,0-5.9c0-4.9-0.9-9.6-2.4-13.8
				H411.6z"/>
		</g>
		<path class="st15" d="M409.6,194c-0.3,1.8-0.4,3.7-0.4,5.6c0,2.1,0,4,0,5.9H105.1c0-1.9,0-3.8,0-5.9c0-1.9-0.1-3.8-0.4-5.6H409.6z
			"/>
		<path class="st14" d="M14.5,152.2c-1.4,0-7.1,5.1-7.4,6.1c-1.7,5.1,4.8,47.3,6.6,47.3s17.7,0,17.7,0L38,174l21.5-17.7
			c0,0-27.1,0.3-27.7,0.1C29.4,155.6,16.5,152.2,14.5,152.2z"/>
		<path class="st14" d="M537.4,152.2c0.8,0,4.8,5.1,5,6.1c1.1,5.1-3.9,47.3-5,47.3c-1.1,0-55.5,0-55.5,0l-5-30.9l-21.5-18.3
			c0,0,71.2,0.3,71.6,0.1C528.5,155.6,536.1,152.2,537.4,152.2z"/>
		<path class="st15" d="M539.4,194c-0.9,6.6-1.7,11.5-2.1,11.5c-1.1,0-55.5,0-55.5,0L480,194H539.4z"/>
		<path class="st15" d="M7.2,169.5c1.5,3.6,3.7,8.3,5.6,8.3c1.5,0,12.9,0,24.4,0l-5.9,27.8c0,0-16,0-17.7,0
			C12.3,205.6,8.6,183.7,7.2,169.5z"/>
		<path class="st16" d="M70,153.6c22.3,0,40.4,20,40.4,44.7c0,2.6,0,5-0.1,7.3h-5.2c0-1.9,0-3.8,0-5.9c0-20.9-15.7-37.9-35.1-37.9
			s-35.1,17-35.1,37.9c0,2.1,0,4,0,5.9h-5.3c0-2.3,0-4.8,0-7.3C29.6,173.6,47.7,153.6,70,153.6z"/>
		<path class="st16" d="M403.9,205.6c0-2.3,0-4.8,0-7.3c0-24.7,18.1-44.7,40.4-44.7c22.3,0,40.4,20,40.4,44.7c0,2.6,0,5-0.1,7.3
			h-5.2c0-1.9,0-3.8,0-5.9c0-20.9-15.7-37.9-35.1-37.9c-19.4,0-35.1,17-35.1,37.9c0,2.1,0,4,0,5.9H403.9z"/>
		<g>
			<path class="st17" d="M14.7,151.6c0,0,23-4.5,24.1-5.3c1.1-0.8,10.3-18.5,10.6-19.2c0.3-0.8-20.7,0.8-21.6,1
				c-0.9,0.3-5.5,7.5-6.4,8.9C20.5,138.5,14.7,151.6,14.7,151.6z"/>
			<path class="st18" d="M32.7,143.8c0.9-0.6,6.8-11.7,9.4-16.7c4.1-0.2,7.5-0.3,7.4,0c-0.3,0.8-9.5,18.5-10.6,19.2
				c-1.1,0.8-24.1,5.3-24.1,5.3s0.8-1.8,1.8-4.1C23.3,146.1,32,144.3,32.7,143.8z"/>
			<path class="st19" d="M29.4,135.6c-1.2,3.9-0.2,7.7,2.3,8.5c2.5,0.8,5.6-1.7,6.8-5.6c1.2-3.9,0.2-7.7-2.3-8.5
				C33.8,129.2,30.7,131.7,29.4,135.6z M30,135.7c0.8-2.5,2.8-4.2,4.4-3.6c1.6,0.5,2.3,3,1.5,5.5c-0.8,2.5-2.8,4.2-4.4,3.6
				C29.8,140.7,29.2,138.3,30,135.7z"/>
			<path class="st19" d="M21.2,141.4c-0.9,2.7-0.1,5.4,1.6,6c1.8,0.6,3.9-1.2,4.8-3.9c0.9-2.7,0.1-5.4-1.6-6
				C24.2,136.9,22,138.7,21.2,141.4z M21.5,141.6c0.6-1.8,2-2.9,3.1-2.6c1.2,0.4,1.6,2.1,1.1,3.9c-0.6,1.8-2,2.9-3.1,2.6
				C21.4,145.1,21,143.3,21.5,141.6z"/>
			<path class="st20" d="M49.5,127.1c-0.2,0.4-3.4,6.7-6.3,12c-4.3,0.6-15.1,2.6-27,9.3c1.8-4,4.7-10.4,5.3-11.4
				c0.6-0.9,2.7-4.3,4.4-6.6c2.5-1,5.3-2,8.1-2.9C40.3,127.1,49.7,126.6,49.5,127.1z"/>
		</g>
		<path class="st3" d="M107,101.8V76.1c10-12.5,20.9-24.6,27.6-27.6c13.6-5.9,54.2-9,70.9-10c0,5.6-2.9,26.9-4.7,40.3
			c-0.9,6.6-6.1,11.7-12.7,12.5L107,101.8z"/>
		<path class="st21" d="M187.8,88.7c5.3-0.7,9.6-4.9,10.4-10.2c2.5-18,4.1-30.9,4.6-37c-18,1.2-54.5,4.2-67,9.6
			c-5.1,2.2-14.3,11.5-26,26v21.6L187.8,88.7z"/>
		<path class="st3" d="M107,101.8l-20.6,2.5l0.7-1.1c4.1-6.1,11.7-16.7,19.9-27.1V101.8z"/>
		<path class="st22" d="M100.9,100.4h5.2V85.3l0,0c-4.5,0-8.1,3.6-8.1,8.1v4C98,99.1,99.3,100.4,100.9,100.4z"/>
		<g class="st23">
			<path class="st24" d="M193.5,194.4h-63.8c-5.4,0-10.3-3.6-11.7-8.8c-1.1-4-2.7-7.8-4.6-11.4c-4.3-7.9-6.6-16.9-6.6-26.2v-67
				c0-3.2,1.1-6.4,3.2-8.9c11-13.5,19.3-21.5,24.6-23.8c13.7-5.9,54.2-9,71-10c0.1,0,0.2,0,0.3,0.1c0.1,0.1,0.1,0.2,0.1,0.2v117.1
				c0,2.2-2.1,13.6-6.3,33.8C199,192.3,196.4,194.4,193.5,194.4z M118.6,185.4c1.4,4.9,5.9,8.3,11.1,8.3h63.8c2.6,0,4.9-1.9,5.5-4.5
				c4.1-19.9,6.3-31.5,6.3-33.6V38.9c-17,1.1-56.9,4.1-70.4,10c-5.1,2.2-13.6,10.4-24.4,23.6c-2,2.4-3,5.4-3,8.5v67
				c0,9.2,2.2,18.1,6.5,25.9C115.8,177.5,117.4,181.4,118.6,185.4L118.6,185.4z"/>
		</g>
		<path class="st25" d="M488.4,98.7H241.8c-5.8,0-10-5.4-8.7-11l10.2-44.1c0.9-4,4.5-6.9,8.7-6.9h246.6c5.8,0,10,5.4,8.7,11
			l-10.2,44.1C496.2,95.9,492.6,98.7,488.4,98.7z"/>
		<path class="st26" d="M524.7,104.3c0,0-407.9,0-417.7,0c-9.8,0-44.1,8.4-63.8,16.2c0,0,43.5-9.5,63.8-9.5c20.3,0,404.8,0,413.5,0
			C529.3,111,530,104.3,524.7,104.3z"/>
		<path class="st27" d="M537.4,149.7c0.8-0.5,3.2-3.2,3.2-4.7c0-1.5,0-27.4,0-28.9c0-1.5-4.8-1.3-5.3-1.3s-0.6,34.9,0,34.9
			S537.4,149.7,537.4,149.7z"/>
		<path class="st26" d="M536.1,127.9c-0.3-4.8-0.1-7.1,0.2-12c2,0,3.7,0.3,4,0.4v8.4C540.3,125.6,536.1,127.9,536.1,127.9z"/>
		<path class="st28" d="M360.3,115.3h128.2c0.9,0,1.7-0.8,1.7-1.7v-1c0-0.9-0.8-1.7-1.7-1.7H360.3V115.3z"/>
		
			<rect x="360.3" y="112.3" transform="matrix(-1 -1.224647e-16 1.224647e-16 -1 848.4042 226.2738)" class="st28" width="127.8" height="1.6"/>
		<g class="st23">
			<path class="st24" d="M358.8,194.4H224.5c-1,0-1.9-0.8-1.9-1.9V30.4c0-1,0.8-1.9,1.9-1.9h134.3c1,0,1.9,0.8,1.9,1.9v162.1
				C360.6,193.5,359.8,194.4,358.8,194.4z M224.5,29.1c-0.7,0-1.2,0.6-1.2,1.2v162.1c0,0.7,0.6,1.2,1.2,1.2h134.3
				c0.7,0,1.2-0.6,1.2-1.2V30.4c0-0.7-0.6-1.2-1.2-1.2H224.5z"/>
		</g>
		<g>
			<path class="st15" d="M184.7,113c0,1.5,3.3,3.3,7.4,3.3c4.1,0,7.5-1.8,7.5-3.2c0-1.5-3.3-1.5-7.4-1.6
				C188,111.5,184.7,111.5,184.7,113z"/>
			<path class="st4" d="M183.2,113c0,0.6,1.3,1.2,4.1,1.6c0.9,0.1,1.1-0.6,3-0.5c1.8,0.1,2,0.8,3.1,0.8c7.1,0,7.5-0.8,7.5-1.8
				c0-1-0.3-1.8-7.4-1.9C186.4,111.2,183.2,112,183.2,113z"/>
		</g>
		<g>
			<path class="st15" d="M227.3,113c0,1.5,3.3,3.3,7.4,3.3c4.1,0,7.5-1.8,7.5-3.2c0-1.5-3.3-1.5-7.4-1.6
				C230.6,111.5,227.3,111.5,227.3,113z"/>
			<path class="st4" d="M225.8,113c0,0.6,1.3,1.2,4.1,1.6c0.9,0.1,1.1-0.6,3-0.5c1.8,0.1,2,0.8,3.1,0.8c7.1,0,7.5-0.8,7.5-1.8
				c0-1-0.3-1.8-7.4-1.9C229,111.2,225.9,112,225.8,113z"/>
		</g>
		<path class="st26" d="M198.7,74.4c1.9-14.1,3.3-24.7,3.8-30.8c-32.6,8.9-61.6,17.9-87,26.5c-1.8,2.2-3.8,4.5-5.8,7v18.5
			C139.3,88.3,170,81.1,198.7,74.4z"/>
	</g>
</g>
</svg>
