<?xml version="1.0" encoding="utf-8"?>
<!-- Generator: Adobe Illustrator 23.0.0, SVG Export Plug-In . SVG Version: 6.00 Build 0)  -->
<svg version="1.1" id="Layer_1" xmlns="http://www.w3.org/2000/svg" xmlns:xlink="http://www.w3.org/1999/xlink" x="0px" y="0px"
	 width="378px" height="110px" viewBox="0 0 378 110" style="enable-background:new 0 0 378 110;" xml:space="preserve">
<style type="text/css">
	.st0{fill:#FF2C2C;}
</style>
<path class="st0" d="M66.5,27c0-9.9,8.1-18,18-18s18,8.1,18,18s-8.1,18-18,18S66.5,36.9,66.5,27z"/>
<path d="M85.6,53v13c0,5.7,0,9.8-0.3,13c-0.3,3.1-0.8,5-1.5,6.5c-1.5,2.9-3.9,5.3-6.8,6.8c-1.5,0.8-3.4,1.3-6.5,1.5
	c-3.2,0.3-7.2,0.3-13,0.3h-12c-5.7,0-9.8,0-13-0.3c-3.1-0.3-5-0.8-6.5-1.5c-2.9-1.5-5.3-3.9-6.8-6.8c-0.8-1.5-1.3-3.4-1.5-6.5
	c-0.3-3.2-0.3-7.2-0.3-13V54c0-5.7,0-9.8,0.3-13c0.3-3.1,0.8-5,1.5-6.5c1.5-2.9,3.9-5.3,6.8-6.8c1.5-0.8,3.4-1.3,6.5-1.5
	c3.2-0.3,7.2-0.3,13-0.3h13c0.1-2.8,0.7-5.5,1.6-8H45.4c-5.5,0-9.9,0-13.5,0.3c-3.6,0.3-6.7,0.9-9.5,2.4c-4.4,2.3-7.9,5.8-10.2,10.2
	c-1.5,2.8-2.1,5.9-2.4,9.5c-0.3,3.5-0.3,7.9-0.3,13.5v12.3c0,5.5,0,9.9,0.3,13.5c0.3,3.6,0.9,6.7,2.4,9.5c2.3,4.4,5.8,7.9,10.2,10.2
	c2.8,1.5,5.9,2.1,9.5,2.4c3.5,0.3,7.9,0.3,13.5,0.3h12.3c5.5,0,9.9,0,13.5-0.3c3.6-0.3,6.7-0.9,9.5-2.4c4.4-2.3,7.9-5.8,10.2-10.2
	c1.5-2.8,2.1-5.9,2.4-9.5c0.3-3.5,0.3-7.9,0.3-13.5V51.4C91.1,52.3,88.4,52.9,85.6,53z"/>
<path d="M154,52.3c0,2.5-0.6,4.8-1.8,6.9c-1.1,2.1-3,3.9-5.5,5.2c-2.5,1.3-5.6,2-9.3,2h-7.7V84h-9.2V38.1h16.9
	c3.6,0,6.6,0.6,9.1,1.8c2.5,1.2,4.4,2.9,5.6,5.1C153.3,47.1,154,49.6,154,52.3z M137,58.9c2.5,0,4.4-0.6,5.7-1.7
	c1.2-1.2,1.8-2.8,1.8-4.9c0-4.5-2.5-6.7-7.5-6.7h-7.3v13.4H137z"/>
<path d="M167.1,53.2c1.2-1.9,2.7-3.4,4.6-4.5c1.9-1.1,4.1-1.6,6.6-1.6v9.7h-2.4c-2.9,0-5.1,0.7-6.6,2c-1.4,1.4-2.2,3.7-2.2,7.1V84
	h-9.2V47.6h9.2V53.2z"/>
<path d="M198,84.6c-3.5,0-6.7-0.8-9.5-2.3c-2.8-1.6-5-3.8-6.6-6.6c-1.6-2.9-2.4-6.1-2.4-9.9s0.8-7,2.4-9.9c1.7-2.9,3.9-5,6.8-6.6
	c2.9-1.6,6-2.4,9.5-2.4c3.5,0,6.7,0.8,9.5,2.4c2.8,1.5,5.1,3.7,6.7,6.6c1.7,2.9,2.5,6.1,2.5,9.9s-0.9,7-2.6,9.9
	c-1.7,2.9-3.9,5.1-6.8,6.6C204.8,83.8,201.6,84.6,198,84.6z M198,76.6c1.7,0,3.2-0.4,4.7-1.2c1.5-0.8,2.7-2.1,3.6-3.7
	s1.3-3.6,1.3-5.9c0-3.5-0.9-6.1-2.8-8c-1.8-1.9-4-2.8-6.6-2.8s-4.8,0.9-6.6,2.8c-1.8,1.8-2.6,4.5-2.6,8c0,3.5,0.9,6.1,2.6,8
	C193.2,75.6,195.4,76.6,198,76.6z"/>
<path d="M218.8,65.6c0-3.7,0.7-7,2.2-9.8c1.5-2.9,3.5-5,6.1-6.6c2.5-1.5,5.4-2.3,8.5-2.3c2.4,0,4.6,0.5,6.8,1.6
	c2.1,1,3.9,2.4,5.1,4.1V35.3h9.3V84h-9.3v-5.4c-1.1,1.8-2.7,3.2-4.8,4.3c-2.1,1.1-4.5,1.6-7.2,1.6c-3.1,0-5.9-0.8-8.4-2.4
	c-2.5-1.6-4.6-3.8-6.1-6.6C219.5,72.7,218.8,69.4,218.8,65.6z M247.5,65.8c0-2.2-0.4-4.1-1.3-5.7c-0.9-1.6-2.1-2.9-3.6-3.7
	c-1.5-0.9-3.1-1.3-4.8-1.3c-1.7,0-3.3,0.4-4.7,1.2c-1.4,0.8-2.6,2.1-3.6,3.7c-0.9,1.6-1.3,3.5-1.3,5.7c0,2.2,0.4,4.1,1.3,5.8
	c0.9,1.6,2.1,2.9,3.6,3.7c1.5,0.9,3.1,1.3,4.7,1.3c1.7,0,3.3-0.4,4.8-1.3c1.5-0.9,2.7-2.1,3.6-3.7C247,69.9,247.5,68,247.5,65.8z"/>
<path d="M297.5,47.6V84h-9.3v-4.6c-1.2,1.6-2.7,2.8-4.7,3.8c-1.9,0.9-3.9,1.3-6.2,1.3c-2.9,0-5.4-0.6-7.6-1.8
	c-2.2-1.2-3.9-3-5.2-5.3c-1.2-2.4-1.8-5.2-1.8-8.4V47.6h9.2v20.1c0,2.9,0.7,5.1,2.2,6.7c1.4,1.5,3.4,2.3,5.9,2.3
	c2.5,0,4.5-0.8,6-2.3c1.4-1.6,2.2-3.8,2.2-6.7V47.6H297.5z"/>
<path d="M301.6,65.8c0-3.8,0.8-7.1,2.3-9.9c1.5-2.9,3.7-5,6.4-6.6c2.7-1.6,5.8-2.4,9.3-2.4c4.5,0,8.2,1.1,11.2,3.4
	c3,2.2,5,5.4,6,9.5h-9.9c-0.5-1.6-1.4-2.8-2.7-3.7c-1.2-0.9-2.8-1.4-4.6-1.4c-2.6,0-4.7,1-6.3,2.9c-1.5,1.9-2.3,4.6-2.3,8.1
	c0,3.5,0.8,6.2,2.3,8.1c1.5,1.9,3.6,2.8,6.3,2.8c3.7,0,6.2-1.7,7.3-5h9.9c-1,3.9-3,7.1-6,9.4c-3,2.3-6.7,3.5-11.2,3.5
	c-3.5,0-6.6-0.8-9.3-2.3c-2.7-1.6-4.8-3.8-6.4-6.6C302.4,72.9,301.6,69.5,301.6,65.8z"/>
<path d="M351.6,55.1v17.6c0,1.2,0.3,2.1,0.9,2.7c0.6,0.5,1.6,0.8,3,0.8h4.3V84H354c-7.8,0-11.6-3.8-11.6-11.3V55.1H338v-7.6h4.3v-9
	h9.3v9h8.2v7.6H351.6z"/>
<path class="st0" d="M367.9,84.5c-1.7,0-3-0.5-4.1-1.5c-1.1-1.1-1.6-2.3-1.6-3.9c0-1.5,0.5-2.8,1.6-3.8c1.1-1.1,2.5-1.6,4.1-1.6
	c1.6,0,3,0.5,4,1.6c1.1,1,1.6,2.3,1.6,3.8c0,1.5-0.5,2.8-1.6,3.9C370.8,84,369.5,84.5,367.9,84.5z"/>
</svg>
