<svg id="_12" data-name="12" xmlns="http://www.w3.org/2000/svg" width="314" height="103" viewBox="0 0 314 103">
  <defs>
    <style>
      .cls-1 {
        fill: #a52ae6;
        opacity: 0.5;
      }

      .cls-1, .cls-2 {
        fill-rule: evenodd;
      }

      .cls-2 {
        fill: #0f1212;
      }
    </style>
  </defs>
  <path class="cls-1" d="M784.6,883.426c-0.053-.072-0.032-0.273-0.154-0.228q-0.086.346-.173,0.7C784.388,883.954,784.492,883.668,784.6,883.426Zm-0.236,36.788a34.474,34.474,0,0,1-4.342-11.192,1.876,1.876,0,0,1-.383-0.91c-0.15-.789.054-0.862-0.15-1.761-0.553-.041.167,2.517-0.456,2.306q0.246,0.76.478,1.513c0.08,0.25.152,0.5,0.234,0.75s0.173,0.493.259,0.739l0.507,1.473c0.175,0.488.373,0.967,0.557,1.452a47.686,47.686,0,0,0,2.658,5.737,0.947,0.947,0,0,0,.818.456C784.4,920.5,784.222,920.183,784.362,920.214Zm20.175,22.741a3.672,3.672,0,0,1-.476-0.4,1.237,1.237,0,0,0,.721.718C804.84,943.2,804.708,943.084,804.537,942.955Zm38.848,3.749a2.865,2.865,0,0,1,.9-0.286,1.117,1.117,0,0,0-.936.136C844,946.4,842.6,946.853,843.385,946.7Zm19.9-9.1c0.4-.306.443-0.453,0.318-0.525C863.208,937.387,863.166,937.534,863.289,937.606Zm16.1-54.471q0.1,0.414.2,0.837t0.214,0.851c0.039,0.142.069,0.287,0.1,0.432s0.06,0.291.091,0.436c0.121,0.583.249,1.168,0.365,1.751,0.08,0.509.161,1.025,0.242,1.545,0.04,0.261.08,0.522,0.12,0.785s0.056,0.529.084,0.795c0.054,0.532.109,1.068,0.164,1.605,0.038,0.538.062,1.078,0.1,1.618l0.048,0.81c0.017,0.269.011,0.54,0.019,0.809q0.016,0.808.034,1.609l0,0.2,0,0.2-0.006.4c0,0.265-.006.528-0.01,0.791s0,0.524,0,.784c0,0.13,0,.259,0,0.388s-0.011.258-.016,0.386c-0.02.516-.01,1.009,0,1.5,0,0.246.012,0.493,0,.738s-0.032.494-.06,0.745c-0.057.507-.137,1.05-0.226,1.61-0.109.556-.24,1.128-0.361,1.7q-0.09.429-.18,0.855t-0.2.833c-0.127.548-.235,1.08-0.31,1.581a1.89,1.89,0,0,0-.205.358,1.108,1.108,0,0,0-.063.277,2.63,2.63,0,0,1-.306.941c0.063,0.172.142,0.519,0.288,0.286a0.729,0.729,0,0,0,.207-0.328c0.05-.278.11-0.537,0.175-0.784s0.138-.481.189-0.717a10.86,10.86,0,0,0,.274-1.43c0.128-.348.263-0.692,0.366-1.042s0.2-.7.288-1.05,0.176-.7.257-1.048l0.059-.263,0.047-.264,0.087-.529q0.084-.53.158-1.061c0.047-.355.1-0.708,0.123-1.067,0.055-.717.1-1.439,0.14-2.169a80.836,80.836,0,0,0-.428-9.546,5.756,5.756,0,0,1-.183-0.563c-0.067-.21-0.131-0.445-0.191-0.707-0.041-.339-0.085-0.7-0.131-1.074q-0.033-.282-0.067-0.575c-0.025-.194-0.061-0.389-0.092-0.586-0.065-.4-0.132-0.8-0.2-1.2q-0.056-.3-0.111-0.6c-0.036-.2-0.091-0.394-0.138-0.588-0.1-.387-0.2-0.764-0.308-1.124q-0.081-.27-0.165-0.524c-0.029-.085-0.058-0.168-0.086-0.251s-0.067-.159-0.1-0.238a5.535,5.535,0,0,0-.861-1.479c0.109,0.493.238,1.008,0.38,1.539C879.261,882.586,879.322,882.859,879.386,883.135ZM870.71,866a60.9,60.9,0,0,1,4.829,8.44,34.628,34.628,0,0,1,2.719,8.239,4.111,4.111,0,0,1,.172.632c0.043,0.2.078,0.4,0.114,0.6a4.129,4.129,0,0,0,.305,1.051c-0.254,0,.034,1.228.222,1.8,0.154,0.161.459,0.287,0.489,0.09-0.108-.48-0.209-0.974-0.3-1.464-0.041-.245-0.1-0.485-0.152-0.723s-0.1-.472-0.143-0.7c-0.092-.457-0.159-0.9-0.226-1.29s-0.129-.745-0.158-1.04c-0.1-.366-0.19-0.744-0.28-1.131s-0.21-.777-0.318-1.174-0.214-.806-0.323-1.215-0.256-.81-0.389-1.218-0.267-.818-0.419-1.219-0.328-.791-0.5-1.179q-0.13-.291-0.267-0.576c-0.09-.19-0.18-0.379-0.286-0.558-0.206-.362-0.42-0.713-0.642-1.049-0.122-.29-0.249-0.567-0.379-0.835s-0.287-.513-0.434-0.758c-0.3-.489-0.6-0.956-0.916-1.415-0.669-.9-1.314-1.816-2.037-2.895C871.132,866.189,870.756,865.654,870.71,866Zm0.407,1.956a8.534,8.534,0,0,0-1.281-1.062c0.24,0.274.464,0.563,0.682,0.86q0.162,0.222.321,0.449c0.1,0.153.2,0.313,0.3,0.47,0.2,0.316.394,0.633,0.6,0.948s0.429,0.622.644,0.94l0.131-.082a5.3,5.3,0,0,0-.593-1.213C871.675,868.862,871.406,868.439,871.117,867.952ZM870.5,865.46a19.584,19.584,0,0,0-1.343-1.507C869.362,864.3,870.391,865.718,870.5,865.46Zm-40.562-19.442c0.138,0.06.105,0.1-.031,0.129a2.4,2.4,0,0,1-.272.034l-0.374.04c-0.544.051-1.226,0.092-1.5,0.159a1.665,1.665,0,0,0-.565-0.226c0,0.082-.5.08-0.536,0.158a2.506,2.506,0,0,1,.523-0.038c0.087,0.012.1,0.037,0.107,0.067,0,0.06-.043.136,0.3,0.152a1.873,1.873,0,0,0-.368.045,2.033,2.033,0,0,1-.352.064c0.666-.2-0.855-0.065-0.906.043a1.312,1.312,0,0,1,.544,0c0,0.066-.223.1-0.163,0.173,0.247-.063.525-0.114,0.826-0.159s0.627-.055.967-0.079c0.681-.041,1.421-0.109,2.171-0.146,0.154-.242-0.469.074-0.548-0.1,0.286-.078,1.444-0.115,1.272.1,0.29-.02.577-0.036,0.859-0.048,0.142-.009.282-0.006,0.422,0l0.415,0.008,1.6,0.04,0.193,0,0.191,0.012,0.377,0.021c0.25,0.012.5,0.021,0.736,0.024s0.478,0,.711-0.007,0.462-.029.686-0.037a2.942,2.942,0,0,0,2.217.013,24.4,24.4,0,0,0-3.433-.247c-0.479-.006-0.938-0.012-1.418-0.036-0.481-.007-0.984-0.02-1.551-0.066a3.793,3.793,0,0,1-1.536-.008A5.613,5.613,0,0,0,829.942,846.018Zm-4.7.653c-0.362.141,0.022,0.218,0.39,0.218C825.642,846.759,825.637,846.636,825.24,846.671Zm-0.843.525a0.868,0.868,0,0,0-.914-0.014A4.313,4.313,0,0,0,824.4,847.2Zm-4.132.494c0.564-.242,1.535-0.226,1.577-0.432A4.64,4.64,0,0,0,820.265,847.69Zm-1.054.262a2.435,2.435,0,0,0-1,.471A2.561,2.561,0,0,0,819.211,847.952ZM799.5,854.99a1.827,1.827,0,0,0,1.1-.43A3.114,3.114,0,0,0,799.5,854.99Zm34.426-5-0.545.016c-0.356.013-.7,0.031-1.007,0.07a3.375,3.375,0,0,0-.44.08,2.559,2.559,0,0,0-.385.138,3.218,3.218,0,0,1-.835-0.047l-0.835.1c-0.278.036-.557,0.1-0.836,0.144l-0.839.153-0.421.077c-0.14.025-.281,0.05-0.422,0.086l-1.7.389c-0.287.057-.572,0.143-0.86,0.219l-0.869.228c-2.33.626-4.764,1.354-7.462,2.192-0.467.035-.93,0.064-1.394,0.092-0.234.009-.46,0.041-0.689,0.064l-0.692.075-0.7.082-0.356.044c-0.118.017-.235,0.04-0.354,0.061-0.473.085-.959,0.18-1.462,0.29-0.446.028-.87,0.081-1.31,0.139s-0.893.126-1.377,0.224a13.177,13.177,0,0,0-1.53.46c-0.275.1-.564,0.21-0.862,0.341s-0.6.295-.921,0.469q-0.456.377-.862,0.748c-0.265.256-.506,0.518-0.738,0.77a13.447,13.447,0,0,0-1.2,1.484c-0.339.487-.634,0.948-0.9,1.377s-0.467.859-.669,1.233a4.761,4.761,0,0,0-.468.562,2.225,2.225,0,0,0-.267.472,3.143,3.143,0,0,0-.192.684l-0.606.736-0.3.356-0.275.365c-0.363.482-.721,0.948-1.08,1.414-0.338.483-.68,0.964-1.037,1.453-0.088.123-.182,0.243-0.268,0.371l-0.258.389-0.539.8-0.279.4c-0.046.066-.092,0.13-0.138,0.195l-0.13.2c-0.173.261-.347,0.512-0.522,0.756s-0.35.479-.526,0.709c-0.091.113-.17,0.232-0.253,0.347l-0.248.344c-0.329.454-.672,0.882-1,1.311s-0.631.866-.949,1.295-0.614.872-.91,1.324l-0.441.69-0.219.353c-0.069.12-.134,0.244-0.2,0.368-0.264.5-.523,1.013-0.774,1.558-0.066.135-.121,0.276-0.175,0.419l-0.161.435q-0.159.441-.31,0.907a2.585,2.585,0,0,0-.375.588,2.158,2.158,0,0,1-.289,1.165,1.38,1.38,0,0,0-.153,1.18,8.894,8.894,0,0,0,.938-1.725c0.148-.364.326-0.738,0.484-1.12s0.3-.768.425-1.14a2.608,2.608,0,0,0,.552-0.892c0.16-.373.313-0.8,0.518-1.187a4.815,4.815,0,0,1,.437-0.68c0.156-.213.316-0.415,0.473-0.612,0.264-.325.506-0.638,0.738-0.948a44.169,44.169,0,0,0-5.241,11.928,0.612,0.612,0,0,0-.729-0.272,7.006,7.006,0,0,1-.381.639c-0.127.2-.271,0.387-0.39,0.6a7.661,7.661,0,0,0-.744,1.669c-0.049-.337-0.124-0.037-0.253-0.033-0.033.183-.077,0.388-0.095,0.6s-0.045.42-.071,0.61a0.963,0.963,0,0,1-.242.7c0.221-1.855-.1-2.145.028-3.574a2.917,2.917,0,0,0-.261-0.9,1.738,1.738,0,0,0-.379-0.472,1.511,1.511,0,0,1-.621-1.076c0.078-.229.132-0.359,0.173-0.5a2.388,2.388,0,0,0,.053-0.235c0.019-.09.036-0.2,0.054-0.333-0.258-.383-0.528.276-0.513-0.695a1.377,1.377,0,0,0-.315.561,8.292,8.292,0,0,0-.218.851,3.524,3.524,0,0,0-.906,1.517,11.793,11.793,0,0,0-.386,1.178l-0.362,1.241c-0.023.153-.046,0.3-0.068,0.454s-0.034.3-.051,0.447q-0.053.442-.1,0.867c-0.038.284-.076,0.562-0.112,0.836-0.02.137-.039,0.272-0.058,0.407s-0.029.269-.045,0.4c-0.055.532-.114,1.049-0.174,1.557-0.029.253-.062,0.5-0.087,0.753s-0.038.5-.056,0.744c-0.037.493-.072,0.982-0.1,1.471-0.007.122-.017,0.244-0.02,0.366l0,0.367v0.737c0,0.494.012,0.993,0.039,1.5q0.066,0.759.17,1.55a1.333,1.333,0,0,0-.139,1.017,8.754,8.754,0,0,0,.322,1.5c-0.072.372-.382,0.2-0.336,0.846,0.222,0.509.184-.211,0.324-0.254,0.1,0.345.271,0.916,0.4,1.471a6.31,6.31,0,0,1,.21,1.374,20.731,20.731,0,0,1,.83,2.451c0.157,0.467.325,0.942,0.493,1.394,0.085,0.226.171,0.445,0.259,0.655a5.559,5.559,0,0,0,.276.59,6.016,6.016,0,0,0,.158,1.188,9.91,9.91,0,0,0,.508,1.649,0.912,0.912,0,0,1,.6.377c0.209,0.41.395,0.8,0.564,1.174s0.352,0.722.507,1.067,0.3,0.68.438,1.01l0.1,0.247c0.038,0.08.075,0.16,0.112,0.24q0.109,0.24.22,0.478c0.146,0.318.292,0.636,0.445,0.956s0.308,0.647.5,0.967,0.383,0.652.6,0.991c0.109,0.169.222,0.341,0.341,0.516l0.183,0.264,0.2,0.26a14.588,14.588,0,0,0,.871,1.573c0.176,0.3.39,0.593,0.608,0.9l0.68,0.933c0.115,0.22.231,0.449,0.364,0.674s0.278,0.451.426,0.682c0.3,0.461.613,0.941,0.958,1.424a30.631,30.631,0,0,0,2.408,2.849A33.54,33.54,0,0,0,796.5,936.2a31.678,31.678,0,0,0,3.093,2.21,4.4,4.4,0,0,0,.763.9,9.9,9.9,0,0,0,1.066.806c0.383,0.261.781,0.516,1.168,0.772,0.4,0.238.783,0.478,1.128,0.726,0.275,0.2.547,0.4,0.819,0.6l0.2,0.152,0.209,0.143,0.419,0.287c0.561,0.381,1.119.774,1.7,1.133s1.186,0.675,1.8.977c0.155,0.075.309,0.152,0.467,0.219s0.32,0.128.481,0.188c0.324,0.121.652,0.233,0.985,0.333a2.273,2.273,0,0,0,.416.008c0.232,0.1.471,0.214,0.725,0.311s0.516,0.188.785,0.283c0.538,0.188,1.1.379,1.672,0.567l1.745,0.49,0.86,0.245,0.847,0.21c0.395,0.1.783,0.211,1.169,0.326l0.578,0.174,0.583,0.148c0.389,0.1.779,0.192,1.174,0.276q0.3,0.063.594,0.117c0.1,0.017.2,0.035,0.3,0.05l0.3,0.031a19.848,19.848,0,0,0,2.522.1,8.907,8.907,0,0,0,1.964-.329c0.181,0.019.365,0.031,0.553,0.032s0.378-.018.57-0.034c0.385-.032.775-0.081,1.165-0.121a8.58,8.58,0,0,1,2.289-.028,1.5,1.5,0,0,1,.754-0.211,1.628,1.628,0,0,1,.572.088c-0.024-.192-0.216-0.136-0.011-0.309-0.262.043-.491,0.053-0.7,0.071l-0.583.046a9.588,9.588,0,0,0-1.168.166c-0.129-.008-0.219-0.026-0.326-0.04a2.324,2.324,0,0,0-.431-0.03c-1.031.111-2.161,0.259-3.378,0.277l-0.931.024-0.479.006-0.484-.019c-0.651-.028-1.325-0.068-2.019-0.125-0.665-.074-1.33-0.2-1.985-0.317l-0.489-.1c-0.162-.031-0.323-0.063-0.48-0.105l-0.934-.236-0.9-.221c-0.292-.072-0.579-0.128-0.85-0.2a12.857,12.857,0,0,0-1.526-.311,1.678,1.678,0,0,1-.474-0.417,2.883,2.883,0,0,1-.368-0.066c-0.118-.031-0.234-0.067-0.349-0.107-0.228-.079-0.452-0.173-0.68-0.272a15.343,15.343,0,0,0-1.5-.6c-0.789-.283-1.539-0.331-2.43-0.693-0.885-.4-1.577-0.8-2.3-1.211-0.356-.216-0.713-0.45-1.107-0.69s-0.825-.49-1.312-0.77a7.7,7.7,0,0,0-1.526-1.213l-0.4-.278a4.138,4.138,0,0,1-.322-0.262,0.59,0.59,0,0,1-.27-0.388,2.167,2.167,0,0,1,.746.52,2.17,2.17,0,0,0,.863.517,2.687,2.687,0,0,1-.7-0.677,14.515,14.515,0,0,0,2.361.667c0.377,0.072.764,0.152,1.194,0.276,0.215,0.062.441,0.134,0.682,0.222,0.12,0.043.245,0.09,0.373,0.142s0.261,0.109.4,0.16c0.447,0.229.867,0.434,1.264,0.618,0.2,0.092.391,0.178,0.578,0.26l0.276,0.118c0.092,0.037.184,0.068,0.274,0.1a20.2,20.2,0,0,0,1.934.587,39.717,39.717,0,0,0,10.469,3.071,42.391,42.391,0,0,0,5.679.466l1.365,0.007c0.224,0,.446-0.014.667-0.023l0.657-.034,1.274-.073c0.416-.038.821-0.089,1.216-0.134,0.393,0.015.77,0.022,1.145,0.022,0.188,0,.373-0.014.56-0.026s0.375-.028.565-0.046c0.38-.036.77-0.081,1.182-0.137l0.314-.044,0.321-.063,0.674-.142a5.413,5.413,0,0,0,.979.038c0.181-.009.372-0.016,0.568-0.044s0.4-.061.6-0.1a20.279,20.279,0,0,0,2.636-.652l1.323-.409c0.428-.147.84-0.3,1.232-0.424s0.761-.243,1.1-0.331a6.872,6.872,0,0,1,.9-0.219,2.947,2.947,0,0,1,.889-0.6c0.194-.1.412-0.182,0.631-0.286s0.452-.194.686-0.284c0.467-.179.945-0.336,1.371-0.457a8.352,8.352,0,0,1,1.033-.283,1.96,1.96,0,0,1,.966-0.716c0.243-.107.494-0.235,0.747-0.34s0.5-.207.713-0.29c0.039,0.064-.611.514,0.073,0.136a1.259,1.259,0,0,0,.439-0.354c0.174-.031.369-0.077,0.545-0.113a0.969,0.969,0,0,1,.438-0.03c0.611-.324.64-0.487,1.249-0.812a1.463,1.463,0,0,1-.5.606,4.453,4.453,0,0,1-1.529.711c0.083,0.1.393-.029-0.064,0.269-0.372-.164-1.021.64-1.576,0.613a1.97,1.97,0,0,0,.609-0.444c-0.312.189-.646,0.414-0.988,0.6l-0.943.54c0.178-.087.438-0.182,0.19-0.033a34.151,34.151,0,0,0,8.327-4.543,47.165,47.165,0,0,0,6.986-6.382,8.232,8.232,0,0,0,1.295-1.113c0.073-.094.148-0.184,0.217-0.275l0.2-.274,0.374-.512c0.236-.327.445-0.626,0.617-0.9,0.085-.137.163-0.265,0.226-0.392a3.15,3.15,0,0,0,.149-0.364,1.324,1.324,0,0,0,.075-0.622l-0.49.668c-0.161.219-.335,0.424-0.5,0.638-0.336.424-.675,0.854-1.041,1.317a40.375,40.375,0,0,1-2.954,3.174,2.073,2.073,0,0,1-1.5.566c0.125-.129.251-0.256,0.38-0.383l0.193-.191,0.187-.2q0.378-.393.77-0.778l0.791-.767q0.383-.4.766-0.793l0.764-.788c0.129-.129.244-0.27,0.363-0.406l0.352-.411c0.232-.274.459-0.548,0.678-0.823,0.109-.139.22-0.274,0.321-0.415s0.2-.286.291-0.429c0.217-.329.255-0.5,0.472-0.8l0.477-.649c0.154-.2.28-0.4,0.413-0.586,0.26-.371.5-0.7,0.727-1.007l0.337-.449c0.112-.146.208-0.3,0.312-0.447,0.205-.3.41-0.6,0.625-0.923,0.1-.157.206-0.316,0.311-0.475s0.209-.319.3-0.487q0.285-.5.566-1.007l0.56-1.024q0.252-.528.506-1.057t0.5-1.058c0.087-.175.156-0.357,0.233-0.536s0.151-.358.226-0.536c0.3-.716.621-1.413,0.881-2.121,0.122-.309.294-0.6,0.442-0.9a3.533,3.533,0,0,0,.2-0.475,1.745,1.745,0,0,0,.091-0.528c-0.072.192-.162,0.38-0.245,0.572s-0.166.385-.248,0.578c-0.163.386-.32,0.771-0.466,1.146-0.036.094-.071,0.187-0.107,0.279l-0.115.269c-0.075.177-.146,0.351-0.213,0.519-0.134.336-.251,0.651-0.345,0.935-0.1.187-.21,0.392-0.321,0.612s-0.25.443-.381,0.682c-0.262.478-.537,1-0.812,1.527-0.3.518-.6,1.047-0.889,1.556-0.147.254-.28,0.509-0.426,0.745l-0.422.681c-0.307.4-.6,0.8-0.87,1.191s-0.573.754-.843,1.129c-0.135.188-.27,0.374-0.4,0.561s-0.262.376-.4,0.556l-0.834,1.1-0.422.566c-0.144.189-.3,0.37-0.453,0.559l-0.956,1.153c-0.162.2-.342,0.392-0.525,0.587l-0.562.6c-0.385.4-.78,0.827-1.238,1.229a2.777,2.777,0,0,0-1.343.972c-0.165-.258-0.691.057-1.381,0.631-0.321.393,0.372-.053,0.035,0.314a1.49,1.49,0,0,1-1.077.4c0.188-.147.369-0.33,0.541-0.475a2.3,2.3,0,0,1,.433-0.321c-0.286-.074-1.077.681-1.272,0.441,0.169-.143.321-0.3,0.477-0.456l0.459-.461c0.3-.308.6-0.611,0.888-0.919l0.823-.951,0.407-.471c0.135-.157.273-0.309,0.4-0.474q0.384-.486.774-0.966l0.394-.477c0.065-.08.134-0.157,0.2-0.238l0.19-.247q0.381-.492.784-0.977,0.2-.243.411-0.485c0.138-.161.267-0.332,0.405-0.5a9.628,9.628,0,0,0,1.111-.713c0.05-.425-0.815.526-1.086,0.508,0.122-.231.274-0.483,0.437-0.744l0.253-.4c0.087-.134.175-0.268,0.253-0.408a12.493,12.493,0,0,0,.791-1.521,1.444,1.444,0,0,1,.241-0.106,0.782,0.782,0,0,0,.312-0.369q0.339-.514.639-1c0.1-.163.2-0.322,0.292-0.479s0.191-.31.269-0.47c0.329-.631.622-1.23,0.9-1.811,0.071-.144.131-0.293,0.19-0.44l0.178-.438,0.349-.867,0.174-.431,0.088-.216,0.078-.221q0.156-.441.323-0.891l0.256-.677c0.084-.225.18-0.444,0.251-0.671,0.154-.451.31-0.9,0.469-1.339l0.24-.664c0.077-.222.141-0.448,0.213-0.672,0.141-.45.283-0.9,0.425-1.353,0.036-.114.071-0.228,0.107-0.341s0.062-.231.093-0.347l0.179-.7c0.118-.47.24-0.945,0.353-1.431q0.138-.735.268-1.5,0.063-.382.127-0.773c0.036-.262.058-0.528,0.085-0.8,0.078-.27.242,0.079,0.278-0.487,0.056-.32.11-0.658,0.163-1.006s0.075-.712.114-1.077c0.069-.732.161-1.478,0.2-2.192,0.028-.356.062-0.7,0.1-1.035s0.091-.647.126-0.942a4.8,4.8,0,0,1,.393-1.452c-0.016-.279-0.007-0.506-0.007-0.7a4.977,4.977,0,0,1,.03-0.511c0.033-.3.083-0.562,0.094-0.93-0.029-.164-0.057-0.326-0.087-0.5l-0.085-.56a2.8,2.8,0,0,0,0-1.059l-0.088-.72c-0.014-.122-0.028-0.244-0.041-0.364s-0.033-.236-0.046-0.349a11.6,11.6,0,0,1-.047-1.429c0-.232.01-0.468,0-0.709s-0.036-.487-0.07-0.747a10.2,10.2,0,0,0-.43-2.03c-0.166-.5-0.331-0.863-0.487-1.253-0.048-.121-0.1-0.249-0.146-0.382s-0.111-.268-0.167-0.407c-0.114-.278-0.232-0.564-0.352-0.837a4.144,4.144,0,0,0-.756-1.289c0.01,0.156.029,0.315,0.035,0.473s0.006,0.31,0,.448c0.259,0.52.581,1.07,0.889,1.686a11.78,11.78,0,0,1,.74,2.089,7.736,7.736,0,0,1,.119,1.33c0.009,0.209.022,0.417,0.053,0.635a6.21,6.21,0,0,0,.152.7l-0.151.027c0.128,0.667.226,1.3,0.3,1.892,0.009,0.074.017,0.149,0.026,0.222s0.01,0.148.014,0.221c0.008,0.146.016,0.29,0.023,0.433,0.013,0.285.021,0.563,0.026,0.835s0,0.539,0,.8-0.03.521-.048,0.775c-0.038.51-.082,1-0.128,1.5s-0.134.982-.195,1.479-0.11,1-.2,1.523-0.135,1.063-.181,1.635c-0.006.071-.011,0.143-0.017,0.216s-0.017.145-.026,0.218c-0.016.147-.031,0.295-0.047,0.446-0.03.3-.055,0.614-0.076,0.937-0.045.163-.091,0.325-0.135,0.485l-0.069.238-0.081.234c-0.108.309-.217,0.61-0.328,0.9a12.353,12.353,0,0,1-.7,1.6c0.047-.217.1-0.415,0.119-0.6s0.043-.364.057-0.53c0.028-.332.039-0.627,0.05-0.921s0.025-.583.038-0.908,0.031-.682.08-1.107c-0.043-.546-0.051-1.111-0.093-1.7s-0.037-1.184-.049-1.8c-0.03-.614-0.048-1.24-0.058-1.876l0-.239c0-.08-0.009-0.16-0.013-0.24l-0.027-.481q-0.024-.483-0.048-0.97a34.93,34.93,0,0,0-1.167-7.6,19.939,19.939,0,0,0-.6-2.56c-0.125-.409-0.254-0.812-0.385-1.212s-0.3-.782-0.457-1.171l-0.235-.58c-0.081-.192-0.153-0.388-0.246-0.576l-0.533-1.141-0.266-.577c-0.088-.193-0.193-0.38-0.289-0.573-0.2-.383-0.389-0.771-0.581-1.168a3.4,3.4,0,0,0-.447-1.375c-0.134-.286-0.284-0.587-0.43-0.885s-0.312-.578-0.441-0.844a0.973,0.973,0,0,1-.519-0.473c-0.158-.273-0.279-0.526-0.394-0.75a6.654,6.654,0,0,1-.282-0.619,6.5,6.5,0,0,1-.3-1.025c-0.035-.157-0.063-0.312-0.1-0.465s-0.082-.3-0.135-0.46a5.175,5.175,0,0,0-.488-1.057,4.042,4.042,0,0,0-.392-0.508c-0.168-.181-0.346-0.37-0.484-0.545-0.2-.252-0.469-0.637-0.732-1.008-0.129-.189-0.271-0.361-0.4-0.516s-0.239-.287-0.328-0.381c-0.323-.338-0.65-0.661-0.988-0.971s-0.7-.589-1.059-0.884l-0.532-.448c-0.177-.152-0.369-0.291-0.553-0.443-0.371-.3-0.741-0.615-1.11-0.96a48.474,48.474,0,0,0-7.481-5.554,20.576,20.576,0,0,0-1.833-1.164c-0.348-.185-0.716-0.361-1.09-0.543s-0.758-.37-1.153-0.545l-1.209-.5c-0.406-.166-0.8-0.355-1.219-0.5s-0.817-.316-1.215-0.482q-0.3-.124-0.592-0.253l-0.586-.233c-0.323-.056-0.665-0.13-1.021-0.218s-0.725-.2-1.113-0.282-0.782-.19-1.182-0.292l-0.6-.155c-0.2-.056-0.408-0.087-0.612-0.131-0.409-.082-0.817-0.161-1.219-0.234l-0.6-.1c-0.2-.025-0.394-0.042-0.586-0.06-0.385-.033-0.756-0.055-1.107-0.062a5.543,5.543,0,0,0-.99.05,3.152,3.152,0,0,0-.656-0.218c-0.369.029-.747,0.034-1.121,0.03C834.293,849.977,834.106,849.986,833.921,849.991ZM794.8,870.939c0.087-.144.173-0.287,0.26-0.434,0.044-.073.087-0.147,0.132-0.223l0.147-.224c0.2-.307.422-0.643,0.687-1.045,0.136-.2.267-0.41,0.408-0.609l0.433-.586,0.849-1.161c0.294-.367.58-0.731,0.852-1.087l0.4-.53c0.132-.172.269-0.333,0.4-0.5a9.831,9.831,0,0,0,1.974-3.273,3.823,3.823,0,0,0,1.069-1.391c0.113-.23.213-0.465,0.341-0.7a3.946,3.946,0,0,1,.507-0.695c0.34-.27.572-0.466,0.751-0.626s0.3-.283.435-0.392a9.379,9.379,0,0,1,1.261-.885c0.218-.057.428-0.116,0.642-0.16s0.428-.082.637-0.119c0.419-.074.827-0.137,1.229-0.2s0.808-.094,1.211-0.134l1.209-.119,0.3-.033,0.311-.023,0.63-.053c0.424-.039.855-0.088,1.3-0.15,0.451-.046.917-0.1,1.4-0.171,0.242-.037.487-0.077,0.738-0.122s0.516-.073.781-0.117c0.465-.19.923-0.375,1.342-0.5a3.89,3.89,0,0,1,1.117-.167c-0.508.263-1.091,0.5-1.707,0.795q-0.467.21-.97,0.418l-0.253.1c-0.085.036-.168,0.077-0.253,0.115l-0.516.234q-0.523.234-1.073,0.466c-0.361.166-.723,0.347-1.094,0.52l-0.559.262-0.282.131-0.276.146-1.114.584a27.8,27.8,0,0,0-6.006,4.183,44.239,44.239,0,0,0-10.814,10.3C794.116,871.993,794.48,871.466,794.8,870.939Zm-2.711,3.895c0.205-.3.425-0.562,0.652-0.846l0.121-.143q-0.474.678-.923,1.375C792.007,875.054,792.047,874.892,792.086,874.834Zm-7.137,16.016a0.884,0.884,0,0,1,.2-0.4c0.158-.167.332-0.117,0.365,0.254-0.022.105-.05,0.144-0.074,0.136a0.143,0.143,0,0,1-.027-0.148,1.072,1.072,0,0,0-.1.5,0.568,0.568,0,0,1-.044-0.348,0.591,0.591,0,0,0-.031-0.349,4.818,4.818,0,0,0-.313,1A1.881,1.881,0,0,1,784.949,890.85Zm-1.618,9.787c-0.036-.163-0.067-0.332-0.1-0.5s-0.036-.331-0.048-0.483a6.7,6.7,0,0,1-.027-0.7c0.022-.559.209-1.5,0.412-0.9a6.94,6.94,0,0,1,.11,1.7,9.313,9.313,0,0,0,.057,1.065,4.8,4.8,0,0,0,.165.909C783.671,901.841,783.472,901.29,783.331,900.637Zm2.546,8.69c-0.017-.075-0.032-0.148-0.048-0.219s-0.023-.144-0.035-0.214c-0.022-.14-0.043-0.277-0.065-0.415-0.043-.276-0.088-0.558-0.149-0.885s-0.149-.7-0.223-1.157a0.156,0.156,0,0,1,.078-0.034q0.29,1.807.721,3.563a1.481,1.481,0,0,1-.025.4C786.023,909.959,785.944,909.627,785.877,909.327Zm0.206,2.713c0.089-.167.215,0.294,0.312,0.263a4.278,4.278,0,0,1,.055.915C786.206,912.657,786.294,912.554,786.083,912.04Zm0.547,1.676,0.144-.056c0.322,0.659.9,1.844,0.664,2.012A8.048,8.048,0,0,1,786.63,913.716Zm0.735,2.181a0.2,0.2,0,0,0,.262.076C787.985,916.664,787.635,916.64,787.365,915.9Zm9.153,18.458a10.183,10.183,0,0,1-1.274-.61,11.264,11.264,0,0,1-1.281-.938c-0.223-.188-0.453-0.393-0.692-0.618s-0.465-.49-0.712-0.769-0.5-.582-0.771-0.91c-0.067-.083-0.136-0.166-0.2-0.253s-0.131-.179-0.2-0.271q-0.2-.277-0.408-0.574a11.016,11.016,0,0,1-.64-1.081c-0.1-.183-0.191-0.377-0.288-0.562s-0.2-.366-0.3-0.539a15.8,15.8,0,0,1-1.97-3.245,1.577,1.577,0,0,1,.826.577c0.162,0.171.334,0.372,0.511,0.591s0.355,0.46.557,0.692c0.393,0.47.8,0.964,1.172,1.389,0.1,0.105.185,0.209,0.279,0.3s0.187,0.179.277,0.259a3.575,3.575,0,0,0,.494.381,2.883,2.883,0,0,1,.425.856q0.149,0.175.273,0.333l0.242,0.294c0.149,0.186.275,0.357,0.39,0.52,0.231,0.328.417,0.627,0.658,0.961,0.077,0.1.157,0.2,0.25,0.3l0.3,0.313c0.208,0.215.435,0.443,0.674,0.678l0.744,0.724,0.795,0.706a18.959,18.959,0,0,1,2.446,2.4C798.26,935.412,797.346,935.335,796.518,934.355Zm6.156,2.424a3.633,3.633,0,0,0-.728-0.268,0.313,0.313,0,0,0-.409.217q-0.668-.463-1.284-0.92l-0.153-.114-0.147-.12c-0.1-.081-0.194-0.16-0.289-0.24l-0.565-.475-0.549-.468c-0.09-.078-0.179-0.155-0.269-0.231s-0.171-.161-0.256-0.24l-1-.947-0.492-.461c-0.161-.155-0.314-0.316-0.471-0.472-0.313-.313-0.628-0.62-0.949-0.922-0.159-.153-0.328-0.3-0.482-0.454s-0.316-.308-0.477-0.461c-0.324-.3-0.658-0.605-1.007-0.9-0.214-.231-0.4-0.482-0.585-0.72s-0.367-.48-0.545-0.719-0.355-.477-0.527-0.72-0.327-.5-0.492-0.751l-0.5-.767-0.258-.394c-0.089-.131-0.167-0.273-0.252-0.411-0.336-.558-0.7-1.138-1.094-1.762-0.384-.659-0.764-1.317-1.114-1.952-0.33-.647-0.616-1.279-0.853-1.859q-0.088-.217-0.165-0.426c-0.047-.141-0.088-0.28-0.125-0.414a6.747,6.747,0,0,1-.17-0.759,2.365,2.365,0,0,1,.04-1.166,3.541,3.541,0,0,0,.491,1.167,6.456,6.456,0,0,1,.258.93,4.463,4.463,0,0,0,.276.83,6.72,6.72,0,0,0,.747,1.208,9.659,9.659,0,0,1,.939,1.378,0.8,0.8,0,0,0,.494.331,63.339,63.339,0,0,0,6.369,7.7,73.725,73.725,0,0,0,8,7.18A2.587,2.587,0,0,1,802.674,936.779Zm29.928,6.763q-1.563.024-3.111-.039,2.151-.039,4.249-0.282C833.342,943.333,832.948,943.441,832.6,943.542Zm26.626-10.335a9.956,9.956,0,0,1-1.084,1.078c-0.118.1-.242,0.211-0.368,0.321s-0.268.208-.408,0.314c-0.281.21-.576,0.424-0.876,0.635a18.694,18.694,0,0,1-1.837,1.14l-0.434.239c-0.14.076-.276,0.149-0.413,0.207-0.27.123-.518,0.228-0.735,0.311a12.839,12.839,0,0,1-3.22,1.544c-0.015.066,0.052,0.067,0.151,0.034s0.231-.1.353-0.156a3.786,3.786,0,0,1-1.092.5c-0.389.12-.795,0.208-1.2,0.293-0.2.047-.412,0.076-0.619,0.111s-0.415.073-.62,0.117a6.527,6.527,0,0,0-1.2.367c-0.147.029-.16-0.033-0.183-0.089q1.078-.452,2.13-0.956l0.052-.021,0.245-.119c0.229-.115.45-0.228,0.667-0.339l0.183-.094c0.325-.166.641-0.325,0.955-0.47,0.541-.275,1.156-0.4,1.877-0.726,0.473-.231.975-0.584,1.429-0.852a5.422,5.422,0,0,1,.632-0.33,0.877,0.877,0,0,1,.489-0.1,4.71,4.71,0,0,1,.694-0.525c0.135-.088.278-0.176,0.426-0.264l0.224-.134,0.221-.144a9.34,9.34,0,0,0,1.573-1.187c0.109,0.238-1.17,1.338-.153.971a0.923,0.923,0,0,0,.239-0.432,1.129,1.129,0,0,1,.2-0.427C858.359,933.386,858.975,933.05,859.228,933.207Zm0.493-.193c-0.434.216-.351-0.053-0.253-0.325,0.291-.2.49-0.261,0.751-0.415A1.049,1.049,0,0,1,859.721,933.014Zm7-62.819c0.133,0.122.266,0.241,0.4,0.355s0.261,0.222.379,0.33a2.492,2.492,0,0,0,1.3.737l0.343,0.508c0.106,0.173.212,0.344,0.317,0.516q0.315,0.513.626,1.019c0.215,0.335.39,0.692,0.574,1.045s0.359,0.714.529,1.081c0.232,0.537.355,0.912,0.543,1.36,0.093,0.224.2,0.467,0.334,0.762s0.271,0.654.465,1.092c0.088,0.2.18,0.389,0.274,0.579l0.142,0.281c0.047,0.094.087,0.19,0.131,0.283,0.171,0.377.339,0.748,0.481,1.125a39.935,39.935,0,0,1,1.541,6.279c0.045,0.22.093,0.44,0.143,0.658s0.082,0.438.125,0.655c0.082,0.435.163,0.864,0.241,1.28,0.018,0.105.036,0.208,0.053,0.311s0.024,0.206.035,0.307q0.031,0.306.049,0.6a8.1,8.1,0,0,1,0,1.114c0.03,0.178.045,0.36,0.059,0.544s0.027,0.372.04,0.561c0.025,0.377.045,0.762,0.063,1.151,0.014,0.2,0,.391,0,0.587l-0.006.589c0,0.394,0,.787-0.007,1.178-0.037.78-.07,1.548-0.064,2.279a14.822,14.822,0,0,0,.031,2.059c-0.043.253-.109,0.506-0.155,0.761s-0.092.512-.13,0.769-0.071.515-.1,0.773l-0.022.192-0.031.191-0.057.381c-0.071.507-.14,1-0.207,1.485-0.028.241-.082,0.473-0.128,0.7s-0.1.449-.147,0.663q-0.163.276-.334,0.577l-0.17.307c-0.056.1-.115,0.212-0.181,0.318-0.254.43-.51,0.895-0.756,1.4s-0.515,1.046-.761,1.636c-0.125.295-.245,0.6-0.359,0.924s-0.255.644-.374,0.989c-0.1.278-.178,0.547-0.247,0.809-0.034.13-.066,0.259-0.094,0.386s-0.064.249-.1,0.37c-0.12.486-.2,0.95-0.275,1.4-0.04.226-.066,0.454-0.113,0.672s-0.092.435-.143,0.653a10.747,10.747,0,0,1-.388,1.314c-0.08.1-.16,0.2-0.233,0.293s-0.138.194-.2,0.291a6.278,6.278,0,0,0-.322.6c-0.1.2-.194,0.411-0.3,0.626-0.054.107-.108,0.218-0.173,0.326s-0.139.216-.218,0.327c-0.238.334-.5,0.668-0.776,1.012-0.141.171-.274,0.352-0.431,0.523l-0.468.531c-0.32.362-.635,0.755-0.97,1.167s-0.689.843-1.029,1.33a4.067,4.067,0,0,1-.491-1.5,3.715,3.715,0,0,0-.651.428q0.864-1.215,1.646-2.49l0.169-.241c0.342-.467.631-0.967,0.936-1.449l0.45-.72c0.15-.239.277-0.489,0.416-0.729q0.293-.52.619-1.069c0.112-.18.207-0.374,0.31-0.565l0.312-.582c0.106-.2.212-0.392,0.32-0.59l0.162-.3c0.055-.1.1-0.2,0.151-0.306q0.294-.618.594-1.242l0.149-.311c0.05-.1.1-0.208,0.14-0.316,0.086-.213.173-0.425,0.259-0.637,0.171-.424.338-0.846,0.5-1.262,0.138-.425.269-0.845,0.391-1.255,0.059-.206.118-0.408,0.175-0.608,0.027-.1.057-0.2,0.08-0.3s0.041-.2.062-0.3c0.114-.277.257-0.643,0.407-1.053,0.075-.2.152-0.419,0.227-0.639s0.128-.451.188-0.678c0.116-.454.215-0.9,0.277-1.3,0.016-.1.029-0.194,0.04-0.286s0.01-.181.011-0.264a2.314,2.314,0,0,0-.032-0.435c0.071-.3.135-0.592,0.194-0.889,0.028-.148.056-0.3,0.085-0.444l0.039-.222,0.026-.224c0.067-.6.118-1.189,0.161-1.773,0.014-.146.015-0.293,0.016-0.439l0.006-.436q0-.433.008-0.861c0.019-.567-0.015-1.127-0.025-1.672,0.034-.368.064-0.741,0.082-1.118,0-.377,0-0.759-0.008-1.144,0-.192-0.008-0.385-0.012-0.58s-0.006-.389-0.026-0.584q-0.048-.585-0.1-1.179l-0.045-.6c-0.014-.2-0.047-0.4-0.068-0.6q-0.072-.6-0.131-1.2c-0.028-.4-0.1-0.807-0.139-1.213s-0.084-.815-0.112-1.227c-0.085-.737.029-1.329-0.058-2.094-0.1-.658-0.368-1.43-0.5-2.178-0.119-.531-0.2-1.068-0.271-1.6-0.019-.134-0.039-0.268-0.058-0.4s-0.052-.263-0.08-0.394c-0.057-.261-0.119-0.521-0.192-0.777-0.067-.236-0.171-0.5-0.274-0.762s-0.228-.514-0.3-0.743c-0.1-.3-0.042-0.542-0.119-0.825a7,7,0,0,0-.219-0.672l-0.29-.669a6.973,6.973,0,0,1-.448-1.253c-0.343-.575-0.669-1.138-0.986-1.706-0.076-.144-0.165-0.28-0.251-0.419l-0.258-.416q-0.255-.42-0.516-0.845c-0.167-.289-0.365-0.563-0.556-0.848s-0.391-.572-0.592-0.868-0.424-.586-0.653-0.884l-0.713-.915Zm-1.865-.5c0.149,0.14.284,0.3,0.422,0.451s0.277,0.316.415,0.48,0.284,0.343.429,0.517l0.214,0.265c0.07,0.09.135,0.185,0.2,0.278,0.267,0.375.535,0.761,0.8,1.154l0.2,0.3c0.062,0.1.123,0.205,0.185,0.308l0.367,0.624c0.241,0.42.5,0.834,0.709,1.277l0.654,1.315c0.056,0.108.1,0.22,0.152,0.333l0.144,0.336c0.1,0.224.19,0.448,0.285,0.67l0.283,0.664c0.087,0.224.166,0.449,0.248,0.671,0.163,0.445.325,0.883,0.483,1.315-0.069.044-.172,0.045-0.037,0.353,0.236,0.864.479,1.71,0.63,2.578,0.083,0.431.176,0.858,0.248,1.289s0.127,0.865.191,1.3c0.034,0.215.067,0.432,0.1,0.649l0.072,0.656q0.075,0.657.166,1.316c0.043,0.443.083,0.89,0.137,1.339,0.026,0.224.054,0.45,0.085,0.676s0.041,0.456.066,0.686c0.045,0.448.132,0.879,0.2,1.31a5.071,5.071,0,0,1,.013,1.309c0.054,0.232.105,0.481,0.153,0.74s0.069,0.531.1,0.808,0.056,0.562.084,0.847,0.062,0.573.068,0.858c-0.059.532-.1,1.143-0.129,1.79-0.058.645-.108,1.326-0.134,2,0,0.168-.024.335-0.036,0.5s-0.024.33-.036,0.493c-0.022.326-.038,0.644-0.047,0.95-0.007.152,0,.3-0.013,0.447s-0.017.285-.023,0.421c-0.01.273-.013,0.527-0.007,0.757a7.824,7.824,0,0,0-.22.888c-0.068.291-.127,0.58-0.178,0.873l-0.151.885c-0.027.15-.055,0.3-0.082,0.453s-0.078.3-.122,0.454q-0.183.636-.373,1.3c-0.031.11-.063,0.22-0.1,0.331s-0.074.219-.111,0.329q-0.114.33-.231,0.663l-0.233.673c-0.081.225-.151,0.456-0.248,0.677q-0.274.672-.554,1.358c-0.164.433-.373,0.849-0.572,1.274a44.291,44.291,0,0,0-41.033-59.79,43.335,43.335,0,0,0-20.588,5.174c0.386-.253.779-0.5,1.19-0.733l0.641-.383c0.107-.064.213-0.131,0.323-0.193l0.334-.178,1.349-.729c0.461-.233.934-0.454,1.407-0.688s0.962-.446,1.454-0.663c0.293-.129.581-0.264,0.867-0.4l0.866-.389c0.288-.132.575-0.268,0.864-0.4l0.217-.1,0.221-.092,0.444-.186a19.015,19.015,0,0,1,1.842-.7q0.48-.153.979-0.293c0.167-.044.334-0.1,0.506-0.13s0.347-.068.523-0.1c0.412-.073.8-0.133,1.185-0.189,0.1-.013.19-0.029,0.286-0.039l0.286-.025,0.574-.05c0.385-.034.775-0.074,1.187-0.123,0.415-.028.85-0.067,1.322-0.125,0.074,0.074.492-.008,0.33,0.172,0.136-.02.272-0.037,0.407-0.05s0.269-.009.4-0.009c0.267,0,.529.013,0.788,0.032s0.513,0.044.765,0.071c0.125,0.011.251,0.032,0.375,0.054l0.372,0.061a11.5,11.5,0,0,0,1.463.16,5.413,5.413,0,0,0,1.481-.065c-0.092.1-.468,0.081-0.164,0.2l0.5,0.071c0.167,0.021.335,0.044,0.5,0.078,0.336,0.061.673,0.117,1.008,0.161,0.167,0.022.334,0.042,0.5,0.057s0.332,0.021.5,0.042a7.519,7.519,0,0,0,.967.039c0.35,0.074.71,0.143,1.075,0.229l1.105,0.3,0.563,0.149,0.284,0.074c0.094,0.026.188,0.059,0.282,0.088q0.564,0.178,1.134.349l0.569,0.166c0.191,0.053.375,0.125,0.563,0.185,0.373,0.124.746,0.243,1.117,0.353,0.185,0.057.372,0.1,0.553,0.163s0.361,0.12.54,0.176c0.359,0.112.714,0.214,1.066,0.3,0.11,0.065.225,0.125,0.343,0.182s0.233,0.123.354,0.181c0.241,0.115.492,0.219,0.745,0.321s0.509,0.2.759,0.307a7,7,0,0,1,.709.374c2.144,1.266,4.314,2.511,6.45,3.853a63.368,63.368,0,0,1,6.154,4.371l0.382,0.39c0.129,0.129.243,0.271,0.366,0.406,0.277,0.258.561,0.508,0.85,0.758,0.143,0.126.294,0.247,0.435,0.378l0.423,0.4C864.279,869.133,864.568,869.407,864.859,869.693ZM831.978,853.6c-0.119-.2.749-0.164,0.62,0.029A1.544,1.544,0,0,1,831.978,853.6Zm4.759-1.929c0.278,0,.578.017,0.926,0.043,0.174,0.013.359,0.03,0.56,0.051s0.418,0.043.649,0.092l1.094,0.219,0.563,0.114c0.193,0.038.39,0.075,0.592,0.129a45.471,45.471,0,0,1,4.8,1.678c0.358,0.124.76,0.158,1.11,0.3,0.1,0.04.207,0.084,0.313,0.132s0.21,0.107.316,0.164c0.213,0.117.429,0.243,0.648,0.369s0.44,0.252.663,0.371,0.449,0.228.666,0.341c0.133,0.067.635,0.186,0.776,0.263a5.912,5.912,0,0,1,.623.41l0.3,0.217c0.1,0.075.194,0.147,0.291,0.211q0.493,0.322,1.034.654l0.549,0.332,0.552,0.366q0.561,0.367,1.153.742c0.389,0.258.772,0.539,1.168,0.811l0.6,0.412c0.1,0.067.2,0.141,0.294,0.216l0.29,0.223,1.169,0.895c0.382,0.31.751,0.636,1.123,0.952l0.554,0.477c0.179,0.164.351,0.335,0.524,0.5,0.561,0.547,1.022,1.093,1.561,1.645,0.185,0.181.395,0.355,0.605,0.533a4.263,4.263,0,0,1,.59.563,14.393,14.393,0,0,1,.886,1.253c0.069,0.1.144,0.2,0.213,0.31s0.14,0.21.217,0.314a4.612,4.612,0,0,0,.521.6c-0.126.036-.309-0.077-0.379,0.1a2.773,2.773,0,0,0-.361-0.55,3.164,3.164,0,0,0-.479-0.475c-0.349-.287-0.717-0.533-1.008-0.75a16.411,16.411,0,0,0-1.21-1.179l-0.591-.534-0.146-.13-0.152-.123-0.3-.244-1.22-.986c-0.429-.317-0.864-0.648-1.318-1.01-0.083-.091-0.156-0.178-0.224-0.263s-0.136-.162-0.2-0.24c-0.129-.157-0.254-0.313-0.41-0.48q-0.48-.372-0.952-0.751l-0.973-.7-0.481-.351-0.239-.174c-0.079-.057-0.163-0.107-0.245-0.161l-0.974-.625q-0.261-.165-0.528-0.327c-0.177-.108-0.366-0.2-0.55-0.3l-1.112-.567c-0.365-.2-0.749-0.346-1.115-0.516s-0.727-.333-1.074-0.5c-0.388-.181-0.778-0.363-1.158-0.563l-0.568-.3c-0.188-.1-0.375-0.2-0.568-0.279-0.382-.168-0.761-0.324-1.136-0.448a4.078,4.078,0,0,0-1.121-.237c-0.4-.144-0.843-0.314-1.3-0.493l-0.345-.136c-0.115-.046-0.234-0.08-0.352-0.121l-0.712-.234c-0.237-.077-0.473-0.151-0.7-0.221a6.371,6.371,0,0,0-.684-0.182,10.112,10.112,0,0,0-1.233-.192c-0.169-.069-0.354-0.136-0.553-0.2s-0.414-.108-0.638-0.161c-0.448-.1-0.936-0.193-1.439-0.287l-0.189-.036-0.192-.026-0.385-.051-0.771-.11c-0.255-.039-0.508-0.08-0.756-0.124s-0.492-.067-0.727-0.108c-0.461,0-.9.017-1.324,0.035-0.212,0-.42.035-0.625,0.055l-0.6.068c-0.4.048-.785,0.09-1.168,0.143s-0.761.13-1.143,0.188l-0.574.083-0.29.037-0.292.049c-0.391.066-.791,0.124-1.208,0.171-0.208.024-.421,0.043-0.638,0.063s-0.437.057-.664,0.081c-0.454.048-.933,0.081-1.442,0.105a7.863,7.863,0,0,1,1.133-.327c0.2-.046.414-0.089,0.624-0.13l0.316-.062,0.317-.044c0.42-.059.828-0.119,1.194-0.2,0.183-.038.356-0.081,0.514-0.129a3.928,3.928,0,0,0,.431-0.147,8.889,8.889,0,0,0,1.12-.074c0.362-.045.714-0.113,1.052-0.156,0.677-.1,1.3-0.233,1.839-0.292,0.462-.031.989-0.032,1.522-0.034l0.4,0,0.2,0,0.2,0.007c0.262,0.01.52,0.015,0.766,0.012,0.3,0,.569-0.016.833-0.03l0.395-.021C836.464,851.664,836.6,851.669,836.737,851.67Zm3.67,95.529-0.227.045-0.225.035-0.445.068-0.87.133-0.852.132c-0.284.039-.568,0.065-0.853,0.1l-1.744.2-1.885.142a4.361,4.361,0,0,0,1.632.008c0.326-.027.655-0.094,0.959-0.128a4.112,4.112,0,0,1,.8-0.038c0.327-.081.534-0.182,0.919-0.254a4.274,4.274,0,0,0,1.276-.076c0.323-.045.656-0.1,0.931-0.163a3.678,3.678,0,0,0,.361-0.1A0.9,0.9,0,0,0,840.407,947.2Zm0.612,0.191c0.619-.128.6-0.3,1.264-0.42-0.278-.062.433-0.289-0.045-0.2C842.066,946.99,841.232,947.17,841.019,947.39ZM824.741,846.643c0.1-.017.2-0.029,0.3-0.044,0.2-.03.387-0.06,0.564-0.092a4.664,4.664,0,0,0,.875-0.227c-0.342.075-.711,0.136-1.09,0.19l-0.574.078c-0.192.03-.383,0.067-0.573,0.1-0.38.07-.753,0.143-1.1,0.228-0.174.042-.341,0.087-0.5,0.137-0.079.024-.156,0.05-0.231,0.077s-0.146.061-.215,0.094c0.07-.026.144-0.052,0.222-0.077l0.248-.063c0.173-.042.358-0.081,0.552-0.12,0.387-.078.806-0.151,1.217-0.226Z" transform="translate(-779 -846)"/>
  <path id="Wonderer" class="cls-2" d="M850.518,894.116l-14.863,24.24,2.218-2.34L835,889.8q-0.24-3.119.48-4.02a3.442,3.442,0,0,1,2.577-1.02l0.3-1.2q-1.438.06-3.536,0.12t-4.674.06q-2.517,0-5.065-.06t-4.165-.12l-0.3,1.2a3.607,3.607,0,0,1,1.857.84,4.4,4.4,0,0,1,1.319,3l4.734,37.74H832.3l18.579-30.66Zm8.451,23.82,2.277-2.16L858.19,889.8q-0.36-3.119.719-4.02t4.015-1.02l0.3-1.2q-1.679.06-4.255,0.12t-5.634.06q-2.337,0-4.734-.06t-3.9-.12l-0.3,1.2a2.471,2.471,0,0,1,1.5.87,5.444,5.444,0,0,1,1.078,2.97l4.975,37.74h3.775l19.238-34.8a19.348,19.348,0,0,1,2.608-3.84,9.607,9.607,0,0,1,2.4-1.95,11.733,11.733,0,0,1,2.487-.99l0.3-1.2q-0.96.06-2.068,0.12t-2.427.06q-1.079,0-2.787-.03t-3.206-.06c-1-.02-1.738-0.05-2.218-0.09l-0.3,1.2a11.645,11.645,0,0,1,3.746.78,2.268,2.268,0,0,1,1.439,2.07,8.57,8.57,0,0,1-1.409,4.17Zm33.981-21.9a7.349,7.349,0,0,1,.419,3.12,36.754,36.754,0,0,1-.749,7.26,54.824,54.824,0,0,1-1.948,7.17,47.434,47.434,0,0,1-2.607,6.18,20.379,20.379,0,0,1-2.846,4.32,3.871,3.871,0,0,1-2.577,1.59,1.285,1.285,0,0,1-1.229-.84,7.492,7.492,0,0,1-.39-2.88,36.376,36.376,0,0,1,.72-7.02,53.66,53.66,0,0,1,1.917-7.14,49.225,49.225,0,0,1,2.637-6.3A22.2,22.2,0,0,1,889.2,897a3.936,3.936,0,0,1,2.667-1.68A1.236,1.236,0,0,1,892.95,896.036ZM874.671,924.3q2.635,2.58,7.551,2.58a17.49,17.49,0,0,0,8.93-2.19,20.147,20.147,0,0,0,6.293-5.67,25.046,25.046,0,0,0,3.715-7.41,25.611,25.611,0,0,0,1.2-7.47q0-4.86-2.637-7.44t-7.551-2.58a17.488,17.488,0,0,0-8.93,2.19,20.171,20.171,0,0,0-6.293,5.67,25.073,25.073,0,0,0-3.716,7.41,25.619,25.619,0,0,0-1.2,7.47Q872.034,921.716,874.671,924.3Zm45.548-21.78a11.6,11.6,0,0,0,.419-3.87,4.911,4.911,0,0,0-1.378-3.24q-1.258-1.29-4.315-1.29a8.027,8.027,0,0,0-4.855,1.44,9.471,9.471,0,0,0-3.116,4.74l-1.678,4.62h1.138l1.259-3.36a11.778,11.778,0,0,1,1.768-3.36,2.411,2.411,0,0,1,1.828-.9,0.891,0.891,0,0,1,.809.33,1.467,1.467,0,0,1,.15.93,7.212,7.212,0,0,1-.36,1.5l-7.311,25.98h9.529Zm-5.814,22.56a99.788,99.788,0,0,1,3.147-9.99q1.827-4.89,3.775-8.88a39.055,39.055,0,0,1,3.746-6.36q1.8-2.37,3.117-2.37a0.743,0.743,0,0,1,.779.48,2.661,2.661,0,0,1,.06,1.29,10.061,10.061,0,0,1-.48,1.83l-5.274,15.84a15.467,15.467,0,0,0-.929,4.8,5.372,5.372,0,0,0,.869,3.06q1.5,2.1,5.094,2.1a10.048,10.048,0,0,0,4.615-1.2q2.337-1.2,3.656-4.98l1.5-4.38H936.94l-1.139,3.12a8.967,8.967,0,0,1-1.918,3.51,2.62,2.62,0,0,1-1.558.75,1.1,1.1,0,0,1-.959-0.54,2.971,2.971,0,0,1,.18-2.22l5.933-17.76a12.974,12.974,0,0,0,.779-4.53,4.489,4.489,0,0,0-1.378-3.3,6.121,6.121,0,0,0-4.255-1.23,10.611,10.611,0,0,0-4.4.93,11.082,11.082,0,0,0-4.016,3.42,35.916,35.916,0,0,0-3.985,6.87,120.839,120.839,0,0,0-4.435,11.34Zm64.486-46.74a44.415,44.415,0,0,1-6.922,1.77,51.99,51.99,0,0,1-8.18.69l-0.42,1.26q2.935,0,3.656.96a3.4,3.4,0,0,1,.12,3l-8.211,30.9a17.35,17.35,0,0,0-.749,4.38,6.085,6.085,0,0,0,.629,3.06q1.318,2.52,5.094,2.52a10.048,10.048,0,0,0,4.615-1.2q2.337-1.2,3.656-4.98l1.438-4.38h-1.138l-1.139,3.12a9.621,9.621,0,0,1-1.888,3.48,2.476,2.476,0,0,1-1.528.78,1.042,1.042,0,0,1-1.019-.63,3.062,3.062,0,0,1,.24-2.13Zm-27.748,44.22a8.445,8.445,0,0,1-.36-2.82,35.3,35.3,0,0,1,1.109-8.82,39.245,39.245,0,0,1,2.847-7.8,23.2,23.2,0,0,1,3.686-5.55q1.947-2.07,3.566-2.07a1.868,1.868,0,0,1,1.678.72,5.578,5.578,0,0,1,.719,2.1l0.479-1.2a3.58,3.58,0,0,0-1.019-2.19,4.3,4.3,0,0,0-3-.81,15.02,15.02,0,0,0-6.982,1.62,19.768,19.768,0,0,0-5.6,4.32,28.339,28.339,0,0,0-4.135,5.88,29.685,29.685,0,0,0-2.517,6.42,23.819,23.819,0,0,0-.839,5.94q0,4.56,2.187,6.57a7.481,7.481,0,0,0,5.244,2.01,8.654,8.654,0,0,0,5.6-1.86,16.128,16.128,0,0,0,4.135-5.64,78.4,78.4,0,0,0,3.686-9.42l0.9-6.48a76.829,76.829,0,0,1-2.577,9,41.236,41.236,0,0,1-2.787,6.24,16.917,16.917,0,0,1-2.607,3.63,3.312,3.312,0,0,1-2.1,1.17A1.319,1.319,0,0,1,951.143,922.556Zm33.621-8.64a43.757,43.757,0,0,0,5.514-1.5,45.163,45.163,0,0,0,5.483-2.28,27.259,27.259,0,0,0,4.8-3,14.728,14.728,0,0,0,3.38-3.69,7.936,7.936,0,0,0,1.26-4.29,4.169,4.169,0,0,0-1.98-3.81,9.016,9.016,0,0,0-4.852-1.23,18.19,18.19,0,0,0-7.251,1.44,22.838,22.838,0,0,0-6.143,3.9,25.642,25.642,0,0,0-4.765,5.61,28.386,28.386,0,0,0-3.056,6.57,22.418,22.418,0,0,0-1.079,6.78,7.343,7.343,0,0,0,2.906,6.33,11.494,11.494,0,0,0,6.982,2.13,16.1,16.1,0,0,0,6.233-1.17,17.4,17.4,0,0,0,4.915-3.03,18.476,18.476,0,0,0,3.36-3.84l-0.963-.48a13.552,13.552,0,0,1-4.735,3.57,10.714,10.714,0,0,1-3.775.99,5.071,5.071,0,0,1-3.506-1.2q-1.349-1.2-1.349-4.62a27.272,27.272,0,0,1,1.079-7.38,36.835,36.835,0,0,1,2.787-7.11,25.213,25.213,0,0,1,3.566-5.31q1.857-2.039,3.476-2.04a0.807,0.807,0,0,1,.719.36,2.733,2.733,0,0,1,.24,1.38,13.5,13.5,0,0,1-1.5,6.27,19.014,19.014,0,0,1-3.835,5.13,22.123,22.123,0,0,1-3.6,2.67,35.556,35.556,0,0,1-4.255,2.19Zm36.436-11.4a13.339,13.339,0,0,0,.39-3.87,5.09,5.09,0,0,0-1.23-3.24,4.9,4.9,0,0,0-3.83-1.29,9.613,9.613,0,0,0-5.13,1.38,8.736,8.736,0,0,0-3.44,4.8l-1.68,4.62h1.14l1.26-3.36a11.029,11.029,0,0,1,1.73-3.33,2.476,2.476,0,0,1,1.86-.93,0.788,0.788,0,0,1,.87.63,4.876,4.876,0,0,1-.27,2.13l-7.31,25.98h9.53Zm9.65-7.08c0.12,0.04.24,0.081,0.36,0.12a7.3,7.3,0,0,0-4.05,2.4,6.368,6.368,0,0,0-1.7,4.32,4,4,0,0,0,1.05,3,4.129,4.129,0,0,0,3.02,1.02,5.664,5.664,0,0,0,4.47-2.04,7.129,7.129,0,0,0,1.76-4.8,5.47,5.47,0,0,0-1.37-3.81,5.058,5.058,0,0,0-3.96-1.53,8.011,8.011,0,0,0-4.13,1.05,9.862,9.862,0,0,0-3.33,3.66,40.386,40.386,0,0,0-3.06,7.02q-1.53,4.41-3.38,11.19l-1.32,8.28q1.86-8.1,3.59-13.53a67.941,67.941,0,0,1,3.33-8.7,23.709,23.709,0,0,1,3.03-4.95,7.709,7.709,0,0,1,2.75-2.22,6.654,6.654,0,0,1,2.52-.54A1.359,1.359,0,0,1,1030.85,895.436Zm11.15,18.48a43.657,43.657,0,0,0,5.51-1.5,45.194,45.194,0,0,0,5.49-2.28,27.36,27.36,0,0,0,4.79-3,14.589,14.589,0,0,0,3.39-3.69,8.011,8.011,0,0,0,1.25-4.29,4.161,4.161,0,0,0-1.97-3.81,9.05,9.05,0,0,0-4.86-1.23,18.185,18.185,0,0,0-7.25,1.44,22.822,22.822,0,0,0-6.14,3.9,25.637,25.637,0,0,0-4.77,5.61,28.322,28.322,0,0,0-3.05,6.57,22.42,22.42,0,0,0-1.08,6.78,7.358,7.358,0,0,0,2.9,6.33,11.516,11.516,0,0,0,6.99,2.13,16.117,16.117,0,0,0,6.23-1.17,17.355,17.355,0,0,0,4.91-3.03,18.331,18.331,0,0,0,3.36-3.84l-0.96-.48a13.628,13.628,0,0,1-4.73,3.57,10.736,10.736,0,0,1-3.78.99,5.081,5.081,0,0,1-3.51-1.2c-0.89-.8-1.34-2.34-1.34-4.62a27.606,27.606,0,0,1,1.07-7.38,36.84,36.84,0,0,1,2.79-7.11,25.216,25.216,0,0,1,3.57-5.31c1.24-1.359,2.39-2.04,3.47-2.04a0.808,0.808,0,0,1,.72.36,2.722,2.722,0,0,1,.24,1.38,13.483,13.483,0,0,1-1.5,6.27,18.772,18.772,0,0,1-3.83,5.13,22.075,22.075,0,0,1-3.6,2.67,35.338,35.338,0,0,1-4.25,2.19Zm36.44-11.4a13.685,13.685,0,0,0,.38-3.87,5.138,5.138,0,0,0-1.22-3.24,4.911,4.911,0,0,0-3.84-1.29,9.553,9.553,0,0,0-5.12,1.38,8.747,8.747,0,0,0-3.45,4.8l-1.68,4.62h1.14l1.26-3.36a11,11,0,0,1,1.74-3.33,2.476,2.476,0,0,1,1.86-.93,0.777,0.777,0,0,1,.86.63,4.876,4.876,0,0,1-.27,2.13l-7.31,25.98h9.53Zm9.64-7.08c0.12,0.04.24,0.081,0.36,0.12a7.31,7.31,0,0,0-4.04,2.4,6.332,6.332,0,0,0-1.71,4.32,4,4,0,0,0,1.05,3,4.171,4.171,0,0,0,3.03,1.02,5.659,5.659,0,0,0,4.46-2.04,7.089,7.089,0,0,0,1.77-4.8,5.477,5.477,0,0,0-1.38-3.81,5.058,5.058,0,0,0-3.96-1.53,8.063,8.063,0,0,0-4.13,1.05,9.862,9.862,0,0,0-3.33,3.66,40.454,40.454,0,0,0-3.05,7.02q-1.53,4.41-3.39,11.19l-1.32,8.28q1.86-8.1,3.6-13.53a69.654,69.654,0,0,1,3.32-8.7,23.709,23.709,0,0,1,3.03-4.95,7.73,7.73,0,0,1,2.76-2.22,6.646,6.646,0,0,1,2.51-.54A1.359,1.359,0,0,1,1088.08,895.436Z" transform="translate(-779 -846)"/>
</svg>
