<svg id="_9" data-name="9" xmlns="http://www.w3.org/2000/svg" width="311" height="74.5" viewBox="0 0 311 74.5">
  <defs>
    <style>
      .cls-1 {
        fill: #f86f00;
      }

      .cls-1, .cls-2 {
        fill-rule: evenodd;
      }
    </style>
  </defs>
  <path class="cls-1" d="M824.482,1410.5a9.916,9.916,0,0,1-7.091-2.96,10.139,10.139,0,0,1,0-14.27,9.983,9.983,0,0,1,14.18-.01,10.172,10.172,0,0,1,0,14.29A9.935,9.935,0,0,1,824.482,1410.5Zm-54.461-53.84a9.924,9.924,0,0,1-7.093-2.96,10.14,10.14,0,0,1,0-14.27,9.982,9.982,0,0,1,14.179-.01,10.155,10.155,0,0,1,0,14.29A9.935,9.935,0,0,1,770.021,1356.66Zm54.014-.3a9.948,9.948,0,0,1-7.092-2.95,10.166,10.166,0,0,1,0-14.28,9.974,9.974,0,0,1,14.182,0,10.164,10.164,0,0,1,0,14.28A9.939,9.939,0,0,1,824.035,1356.36Zm-53.753,54.14a9.932,9.932,0,0,1-7.1-2.96,10.15,10.15,0,0,1,.006-14.28,8.953,8.953,0,0,1,1.412-1.15c0.171-.12.329-0.22,0.493-0.32,0.371-.21.74-0.41,1.085-0.57,0.188-.08.381-0.17,0.584-0.25a11.448,11.448,0,0,1,1.222-.36c0.092-.03.173-0.05,0.255-0.07,0.052-.02.1-0.03,0.154-0.05l2.232-.15c0.282,0.01.585,0.05,0.908,0.09l0.128,0.02a2.216,2.216,0,0,0,.281.02l0.09,0.01,0.1,0.02h0.089c0.163,0,.326.01,0.487,0.01a14.864,14.864,0,0,0,14.6-15.1l0-.11-0.021-.12a2.919,2.919,0,0,1-.035-0.32c-0.009-.13-0.02-0.26-0.036-0.39l-0.025-.23c-0.021-.19-0.043-0.38-0.056-0.58l0.171-2.25a1.392,1.392,0,0,1,.047-0.16l0.04-.14a9.692,9.692,0,0,1,.373-1.27,5.434,5.434,0,0,1,.247-0.59,10.965,10.965,0,0,1,.581-1.12c0.095-.16.186-0.32,0.295-0.48a9.779,9.779,0,0,1,1.156-1.43,9.989,9.989,0,0,1,14.185-.01,10.176,10.176,0,0,1-.009,14.29,9.354,9.354,0,0,1-1.413,1.15c-0.167.12-.325,0.21-0.484,0.31a11.209,11.209,0,0,1-1.085.58c-0.2.08-.392,0.18-0.581,0.25a10.526,10.526,0,0,1-1.218.36l-0.24.07c-0.054.01-.108,0.03-0.162,0.04l-2.253.16c-0.264-.01-0.541-0.04-0.834-0.08l-0.2-.03c-0.067-.01-0.173-0.01-0.278-0.02l-0.08-.01-0.115-.02h-0.09c-0.164-.01-0.326-0.01-0.489-0.01a14.585,14.585,0,0,0-10.416,4.53,14.732,14.732,0,0,0-4.178,10.57l0,0.11,0.021,0.12a2.9,2.9,0,0,1,.035.32c0.009,0.13.02,0.26,0.036,0.39,0,0.08.02,0.22,0.037,0.35a4.4,4.4,0,0,1,.037.46v0.06l-0.161,2.16c-0.011.04-.083,0.29-0.1,0.37a10.255,10.255,0,0,1-.368,1.25,6.171,6.171,0,0,1-.239.57c-0.174.38-.363,0.75-0.578,1.13-0.1.15-.206,0.33-0.32,0.5a10.152,10.152,0,0,1-1.138,1.4,9.9,9.9,0,0,1-7.084,2.96h0Zm27.073,0a9.926,9.926,0,0,1-7.1-2.96,10.031,10.031,0,0,1,1.42-15.44c0.149-.1.309-0.2,0.476-0.3a11.656,11.656,0,0,1,1.091-.58c0.2-.08.387-0.17,0.581-0.25a8.224,8.224,0,0,1,1.208-.35s0.353-.1.4-0.12l2.267-.16c0.267,0.01.556,0.05,0.858,0.09l0.167,0.02c0.112,0.01.205,0.02,0.3,0.02a0.407,0.407,0,0,1,.11.01l0.071,0.01,0.1,0.01c0.166,0,.334.01,0.5,0.01a14.624,14.624,0,0,0,10.4-4.52,14.778,14.778,0,0,0,4.176-10.58l-0.014-.47-0.041-.05c0-.01,0-0.03,0-0.05-0.006-.11-0.012-0.22-0.023-0.33l-0.037-.32c-0.021-.18-0.044-0.36-0.05-0.54l0.155-2.18c0.013-.05.091-0.33,0.109-0.41a10.614,10.614,0,0,1,.367-1.24c0.071-.2.158-0.39,0.246-0.59a12.105,12.105,0,0,1,.578-1.1l0.044-.07a4.1,4.1,0,0,1,.243-0.39,9.714,9.714,0,0,1,1.161-1.45,9.972,9.972,0,0,1,14.181,0,10.011,10.011,0,0,1-1.42,15.44c-0.113.08-.222,0.14-0.331,0.21l-0.175.11c-0.336.2-.7,0.39-1.056,0.56-0.2.09-.39,0.18-0.589,0.25a9.359,9.359,0,0,1-1.225.36c-0.1.03-.177,0.05-0.255,0.07a0.993,0.993,0,0,1-.158.05l-2.229.15c-0.326-.01-0.679-0.06-1.02-0.1-0.117-.02-0.207-0.02-0.3-0.03h-0.1l-0.19-.02c-0.166-.01-0.33-0.01-0.5-0.01a14.557,14.557,0,0,0-10.4,4.52,14.724,14.724,0,0,0-4.17,10.57l0,0.11,0.022,0.11a3.179,3.179,0,0,1,.034.35c0.007,0.12.017,0.23,0.029,0.35,0.008,0.09.022,0.22,0.034,0.34,0.021,0.17.041,0.34,0.045,0.51l-0.164,2.21c-0.012.05-.1,0.35-0.1,0.35a10.606,10.606,0,0,1-.368,1.27c-0.067.18-.146,0.36-0.227,0.54l-0.028.06a11.636,11.636,0,0,1-.561,1.07c-0.1.17-.2,0.34-0.31,0.5a10.318,10.318,0,0,1-1.159,1.43,9.894,9.894,0,0,1-7.072,2.95h0Zm-27.07-27.26a9.914,9.914,0,0,1-7.09-2.96,10.138,10.138,0,0,1-.008-14.27,9.765,9.765,0,0,1,1.422-1.17c0.151-.1.322-0.21,0.493-0.31,0.347-.21.7-0.39,1.078-0.57a6.067,6.067,0,0,1,.592-0.25,9.6,9.6,0,0,1,1.2-.36l0.254-.07c0.047-.01.092-0.03,0.139-0.04l2.269-.16a8.444,8.444,0,0,1,.947.1l0.07,0.01c0.116,0.01.207,0.01,0.3,0.02a0.327,0.327,0,0,1,.1.01l0.1,0.01,0.091,0.01h0.5a14.551,14.551,0,0,0,10.4-4.52,14.75,14.75,0,0,0,4.171-10.57l0-.11-0.021-.11a2.893,2.893,0,0,1-.035-0.37c-0.006-.1-0.012-0.21-0.023-0.31l-0.034-.31c-0.023-.19-0.047-0.38-0.051-0.56l0.151-2.12,0.013-.05v-0.04c0.013-.05.1-0.33,0.1-0.33a10.817,10.817,0,0,1,.368-1.29c0.072-.19.16-0.38,0.25-0.57a10.122,10.122,0,0,1,.575-1.11l0.034-.06c0.087-.14.173-0.29,0.27-0.43a9.784,9.784,0,0,1,1.145-1.42,9.978,9.978,0,0,1,14.186,0,10.163,10.163,0,0,1,0,14.28,9.244,9.244,0,0,1-1.412,1.15c-0.154.11-.286,0.19-0.423,0.27l-0.074.04a9.988,9.988,0,0,1-1.071.57c-0.2.1-.392,0.18-0.584,0.26a9.188,9.188,0,0,1-1.226.36c-0.1.02-.18,0.05-0.265,0.07-0.052.02-.1,0.03-0.157,0.05l-2.223.15c-0.281-.01-0.582-0.05-0.9-0.09l-0.136-.02c-0.1-.01-0.2-0.01-0.289-0.02a0.418,0.418,0,0,1-.111-0.01l-0.075-.01-0.1-.01h-0.5a14.581,14.581,0,0,0-10.4,4.51,14.778,14.778,0,0,0-4.176,10.58l0,0.11,0.02,0.11a2.6,2.6,0,0,1,.036.35c0.007,0.12.017,0.23,0.029,0.35,0.01,0.09.024,0.22,0.038,0.33,0.018,0.17.04,0.34,0.043,0.51l-0.16,2.2c-0.012.05-.031,0.11-0.048,0.17l-0.056.2a10.167,10.167,0,0,1-.363,1.26c-0.072.2-.163,0.39-0.255,0.59a9.773,9.773,0,0,1-.569,1.09c-0.1.18-.2,0.34-0.3,0.5a9.319,9.319,0,0,1-1.152,1.42,9.9,9.9,0,0,1-7.082,2.96h0Z" transform="translate(-760 -1336)"/>
  <path id="wayfarer" class="cls-2" d="M856.618,1391.43h6.887l3.936-12.23c1.447-4.68,1.968-6.69,2.257-8.02a65.149,65.149,0,0,0,2.026,7.9l3.935,12.35h6.6l9.9-28.5h-7.466l-3.82,12.23c-0.521,1.79-1.447,5.19-1.91,7.33-0.347-1.91-1.5-6.18-1.852-7.33l-3.82-12.23H866.11l-3.936,12.23a51.655,51.655,0,0,0-1.967,7.38c-0.521-2.65-1.1-5.13-1.737-7.38l-3.762-12.23h-7.35Zm46.94,0.75c4.456,0,8.334-2.02,9.55-4.96l0.52,4.21h6.193v-17.31c0-7.9-4.746-12.06-12.443-12.06-7.756,0-12.849,4.04-12.849,10.21h6.019c0-3,2.315-4.73,6.483-4.73,3.588,0,5.9,1.56,5.9,5.43v0.63l-8.566.64c-6.771.52-10.591,3.8-10.591,9.05C893.777,1388.66,897.481,1392.18,903.558,1392.18Zm2.315-5.31c-3.183,0-4.919-1.27-4.919-3.87,0-2.3,1.678-3.74,6.077-4.15l5.961-.46v1.5C912.992,1384.27,910.214,1386.87,905.873,1386.87Zm17.595,17.77a21.1,21.1,0,0,0,5.267.63c4.688,0,7.7-2.19,9.839-7.5l14.006-34.84h-7.292l-7.756,20.77-7.35-20.77h-7.466l11.517,29.71-0.81,2.13c-1.215,3.35-2.952,3.98-5.73,3.98h-4.225v5.89Zm30.27-41.71v5.88h4.109v22.62h7v-22.62h6.83v-5.88h-6.83v-3.46c0-2.83.869-4.68,4.457-4.68H971.8v-6a20.257,20.257,0,0,0-3.647-.28c-6.192,0-10.3,3.23-10.3,10.96v3.46h-4.109Zm31.022,29.19c4.746,0,8.566-2.08,10.3-5.6l0.521,4.91h3.356v-18.06c0-7.38-4.745-10.61-11.227-10.61-6.888,0-11.518,3.63-11.518,9.28h3.646c0-3.75,2.894-5.94,7.756-5.94,4.109,0,7.408,1.73,7.408,7.21v0.93l-9.26.75c-6.54.52-10.476,3.75-10.476,8.88C975.268,1388.77,978.8,1392.12,984.76,1392.12Zm0.926-3.23c-3.82,0-6.366-1.73-6.366-5.14,0-3.11,2.141-5.42,7.408-5.88l8.276-.63v1.5C995,1384.79,991.589,1388.89,985.686,1388.89Zm35.884-25.73a10.619,10.619,0,0,0-2.6-.29c-3.94,0-6.89,1.96-7.99,4.96l-0.29-4.32h-3.76v27.92h3.99v-15.92c0-5.31,3.3-8.77,8.45-8.77h2.2v-3.58Zm15.97,28.96c6.6,0,10.94-3.17,12.45-9.06h-3.82c-1.04,3.69-4,5.66-8.57,5.66-6.02,0-9.61-3.93-9.9-10.73h22.29v-1.97c0-7.9-5.15-13.26-12.74-13.26-7.98,0-13.42,6-13.42,14.71C1023.83,1386.24,1029.32,1392.12,1037.54,1392.12Zm-0.29-25.96c5.27,0,8.74,3.58,8.74,8.94h-18.17C1028.51,1369.62,1031.99,1366.16,1037.25,1366.16Zm33.75-3a10.7,10.7,0,0,0-2.61-.29c-3.93,0-6.88,1.96-7.98,4.96l-0.29-4.32h-3.77v27.92h4v-15.92c0-5.31,3.3-8.77,8.45-8.77h2.2v-3.58Z" transform="translate(-760 -1336)"/>
</svg>
