<?xml version="1.0" encoding="utf-8"?>
<!-- Generator: Adobe Illustrator 23.0.0, SVG Export Plug-In . SVG Version: 6.00 Build 0)  -->
<svg version="1.1" id="Layer_1" xmlns="http://www.w3.org/2000/svg" xmlns:xlink="http://www.w3.org/1999/xlink" x="0px" y="0px"
	 width="441.8px" height="99.6px" viewBox="0 0 441.8 99.6" style="enable-background:new 0 0 441.8 99.6;" xml:space="preserve">
<style type="text/css">
	.st0{stroke:#000000;stroke-width:0.6743;}
	.st1{fill-rule:evenodd;clip-rule:evenodd;fill:#8FD5F5;}
</style>
<path class="st0" d="M178,79.2L178,79.2c-1.2-1-1.9-2.1-1.9-3.2L178,79.2z M178,79.2L178,79.2c1.3,1.1,3.1,1.6,5.4,1.6h5h0.3v-0.3
	v-0.7v-0.3h-0.3H186l-0.9-0.2l0,0l0,0c-0.5,0-1.1-0.4-1.7-1.2c-0.5-0.8-0.8-2-0.8-3.5V48.7c0-2.8-0.7-5-2.1-6.8v0l0,0
	c-0.9-1.1-2.4-1.9-4.4-2.5c-1.9-0.6-4.4-0.9-7.5-0.9c-3.1,0-6,1.1-8.6,3.2c-2.1,1.7-3.6,3.5-4.7,5.4v-7.9v-0.3h-0.3h-5.8h-0.3v0.3
	v41.3v0.3h0.3h5.8h0.3v-0.3V51.1c0-2.1,1.3-4.5,4.1-7.2l0,0c2.8-2.8,5.8-4.1,9.3-4.1c1.7,0,3,0.3,4.1,0.8c2.1,1.1,3.2,3.7,3.2,8v26
	v0v0l0.1,1.4L178,79.2z M143.6,26.4l0.3,0.1l0.1-0.3l0.3-0.8l0.1-0.3l-0.3-0.1c-5.7-1.9-11.2-2.8-16.7-2.8c-5.4,0-9.6,1.3-12.4,3.9
	c-2.8,2.6-4.2,5.9-4.2,10c0,5.2,2.1,9.2,6.4,12c1.9,1.3,4,2.4,6.2,3.5v0l0,0c2.3,1,4.5,2,6.7,2.9l0,0c2.2,0.9,4.3,1.9,6.2,3
	c4.1,2.4,6.1,5.8,6.1,10c0,3.9-1.5,6.9-4.6,8.9c-3.1,2-6.8,3-11.2,3c-3,0-5.9-0.4-8.8-1.3c-2.8-0.9-5.1-2.1-6.9-3.5l-0.3-0.2
	l-0.2,0.3l-0.4,0.7l-0.2,0.3l0.3,0.2c4.9,3.4,10.7,5.1,17.6,5.1c3.7,0,6.9-0.4,9.6-1.3l0,0c2.8-0.9,5.2-2.6,7.2-5.1c2-2.5,3-5.5,3-9
	c0-3.5-0.6-6.4-1.8-8.7c-1.2-2.3-2.7-4.1-4.7-5.4c-1.9-1.3-4-2.4-6.3-3.4c-2.3-1-4.5-1.9-6.8-2.7c-2.2-0.8-4.2-1.7-6.1-2.6
	c-4.1-2.2-6.1-5.2-6.1-9c0-3.2,1.2-5.7,3.6-7.5c2.4-1.8,5.8-2.7,10.1-2.7C133.9,23.5,138.6,24.4,143.6,26.4z M190.6,44.2L190.6,44.2
	c-3.8,3.9-5.7,9.3-5.7,16.3c0,6.9,1.8,12.1,5.6,15.5c3.7,3.4,8.5,5,14.4,5c5.9,0,10.8-1.9,14.6-5.8c3.9-3.9,5.8-9.3,5.8-16.3
	c0-6.9-1.8-12.1-5.6-15.5c-3.7-3.4-8.5-5-14.4-5C199.4,38.4,194.5,40.4,190.6,44.2z M195.2,45.3L195.2,45.3
	c2.7-3.7,6.1-5.5,10.1-5.5c4.1,0,7.4,1.6,9.8,4.7c2.5,3.1,3.7,8,3.7,14.6c0,6.6-1.4,11.7-4.1,15.3c-2.7,3.6-6.1,5.4-10.1,5.4
	c-4.1,0-7.4-1.6-9.8-4.7c-2.5-3.1-3.7-7.9-3.7-14.5C191.2,54,192.6,48.9,195.2,45.3z M281.6,39.4l-0.2,0.2l0.3,0.2
	c0.8,0.7,1.2,1.9,1.2,3.4c0,1.6-0.3,2.9-0.9,4l0,0l0,0l-11.6,25.2L257.8,39l-0.1-0.2h-0.2h-5.8h-0.5l0.2,0.5l3,8.2l-11.5,25
	L230.5,39l-0.1-0.2h-0.2h-5.8h-0.5l0.2,0.5l15.4,41.3l0.1,0.2h0.2h0.8h0.2l0.1-0.2l14.2-31.2l11.6,31.2l0.1,0.2h0.2h0.8h0.2l0.1-0.2
	l15-33.1l0,0c0.7-1.6,1-3.1,1-4.7c0-0.4-0.1-0.8-0.2-1.3c-0.1-0.5-0.3-1-0.7-1.6c-0.2-0.3-0.3-0.5-0.5-0.7c-0.1-0.2-0.3-0.3-0.5-0.4
	l-0.2-0.1l-0.2,0.2L281.6,39.4z"/>
<path class="st0" d="M297.1,23.2c1.6-2.4,4.1-4.2,7.6-4.4l-0.7,56.4v0c0,0.5,0.2,1.1,0.4,1.6c1.4,2.7,4.6,4,9.5,4h2.6h0.3v-0.3v-0.7
	v-0.3h-0.3h-2.5l-0.9-0.2l0,0l0,0c-0.5,0-1.1-0.4-1.7-1.2c-0.5-0.8-0.8-2-0.8-3.5v-56v-0.3l-0.3,0l-5.1-0.1l-0.3,0l0,0
	c-5.7,0.1-9.8,1.4-12.5,4.1c-2.7,2.6-4,7-4,13.1v3.5h-1.4h-0.3v0.3v1.3v0.3h0.3h1.4v39.7v0.3h0.3h5.8h0.3v-0.3V40.8h6.2h0.3v-0.3
	v-1.3v-0.3h-0.3h-6.2v-3.5C294.7,29.6,295.5,25.6,297.1,23.2L297.1,23.2z M341.1,60.2c-1.1-0.1-2.4-0.1-3.7-0.1
	c-1.5,0-3.1,0.1-4.9,0.2c-3.6,0.2-6.5,0.6-8.8,1.3c-2.3,0.6-4.1,1.4-5.2,2.5c-1.1,1-1.8,2-2,2.9c-0.2,0.9-0.3,1.7-0.3,2.4
	c0,0.7,0.1,1.4,0.2,2c0.5,3.2,1.7,5.6,3.8,7.3c2,1.6,4.9,2.4,8.4,2.4c3,0,5.7-0.6,7.9-1.9c1.9-1.1,3.5-2.6,4.8-4.6v0.5
	c0,1,0.7,2.2,2,3.4c1.5,1.5,4.2,2.2,7.9,2.2h2.6h0.3v-0.3v-0.7v-0.3h-0.3h-2.5l-0.9-0.2l0,0l0,0c-0.5,0-1.1-0.4-1.7-1.2
	c-0.5-0.8-0.8-2-0.8-3.5V46.9c0-1.9-0.8-3.6-2.2-5.3c-1-1.1-2.4-1.9-4.3-2.4c-1.9-0.5-4.3-0.8-7.2-0.8c-5.1,0-10.2,1.1-15.1,3.4
	l-0.3,0.2l0.2,0.3l0.3,0.6l0.2,0.3l0.3-0.2c1.2-0.7,3.2-1.4,5.9-2.1l0,0l0,0c2.7-0.8,5.1-1.1,7.1-1.1c2,0,3.6,0.3,4.8,0.8v0l0,0
	c1.2,0.5,2,1.1,2.5,1.7c0.5,0.7,0.9,1.4,1.1,2.2l0,0l0,0c0.3,0.7,0.4,1.2,0.3,1.6c-0.1,0.2-0.1,0.4-0.1,0.6c0,0.1,0,0.2,0,0.3
	c0,0,0,0.1,0,0.1V60.2z M322.8,71.3L322.8,71.3c-0.1-0.5-0.1-1-0.1-1.5c0-2.4,0.6-4.2,1.8-5.5c0.6-0.6,1.5-1.2,2.9-1.6
	c1.3-0.5,3-0.8,5.1-1.1c1.5-0.2,3-0.2,4.4-0.2c1.4,0,2.8,0,4.2,0.1v9.7c-0.2,1.7-1.3,3.6-3.7,5.6c-2.3,1.9-4.8,2.9-7.6,2.9
	c-2.1,0-3.7-0.7-4.9-2.1C323.7,76.3,323,74.2,322.8,71.3z M361,18.4v-0.3h-0.3h-5.8h-0.3v0.3v62v0.3h0.3h5.8h0.3v-0.3V60.6l1.9-2.1
	l15,22.1l0.1,0.1h0.2h5.8h0.6l-0.4-0.5l-17.6-25.9l13.3-15l0.5-0.6h-0.7h-0.8h-0.2l-0.1,0.1L361,58.7V18.4z M416.4,77.5l-0.1-0.3
	l-0.3,0.1c-4.3,1.6-9.1,2.5-14.6,2.5c-3.8,0-6.9-1.5-9.2-4.7c-2.3-3.1-3.5-8-3.5-14.8c0-1.5,0.1-2.9,0.2-4.3H418h0.3v-0.3v0v0v0v0v0
	v0v0v0v0v0v0v0v0v0v0v0v0v0v0v0v0v0v0v0v0v0v0v0v0v0v0v0v0v0v0v0v0v0v0v0v0v0v0v0v0v0v0v0v0v0v0v0v0v0v0v0v0v0v0v0v0v0v0v0v0v0v0v0
	v0v0v0v0v0v0v0v0v0v0v0v0v0v0v0v0v0v0v0v0v0v0v0v0v0v0v0v0v0v0v0v0v0v0v0v0v0v0v0v0v0v0v0v0v0v0v0v0v0v0v0v0v0v0v0v0v0v0v0v0v0v0v0
	v0v0v0v0v0v0v0v0v0v0v0v0v0v0v0v0v0v0v0v0v0v0v0v0v0v0v0v0v0v0v0v0v0v0v0v0v0v0v0v0v0v0v0v0v0v0v0v0v0v0v0v0v0v0v0v0v0v0v0v0v0v0v0
	v0v0v0v0v0v0v0v0v0v0v0v0v0v0v0v0v0v0v0v0v0v0v0v0v0v0v0v0v0v0v0v0v0v0v0v0v0v0v0v0v0v0v0v0v0v0v0v0v0v0v0v0v0v0v0v0v0v0v0v0v0v0v0
	v0v0v0v0v0v0v0v0v0v0v0v0v0v0v0v0v0v0v0v0v0v0v0v0v0v0v0v0v0v0v0v0v0v0v0v0v0v0v0v0v0v0v0v0v0v0v0v0v0v0v0v0v0v0v0v0v0v0v0v0v0v0v0
	v0v0v0v0v0v0v0v0v0v0v0v0v0v0v0v0v0v0v0v0v0v0v0v0v0v0v0v0v0v0v0v0v0v0v0v0v0v0v0v0v0v0v0v0v0v0v0v0v0v0v0v0v0v0v0v0v0v0v0v0v0v0v0
	v0v0v0v0v0v0v0v0v0v0v0v0v0v0v0v0v0v0v0v0v0v0v0v0v0v0v0v0v0v0v0v0v0v0v0v0v0v0v0v0v0v0v0v0v0v0v0v0v0v0v0v0v0v0v0v0v0v0v0v0v0v0v0
	v0v0v0v0v0v0v0v0v0v0v0v0v0v0v0v0v0v0v0v0v0v0v0v0v0v0v0v0v0v0v0v0v0v0v0v0v0v0v0v0v0v0v0v0v0v0v0v0v0v0v0v0v0v0v0v0v0v0v0v0v0v0v0
	v0v0v0c0-5.4-1.6-9.5-4.7-12.2c-3.2-2.8-7-4.1-11.6-4.1c-5.7,0-10.4,1.9-14.1,5.8c-3.7,3.9-5.6,9.3-5.6,16.3
	c0,6.9,1.7,12.1,5.3,15.5c3.5,3.4,8.1,5.1,13.7,5.1c5.6,0,10.6-0.9,15.1-2.6l0.3-0.1l-0.1-0.3L416.4,77.5z M409.1,43.5
	c1.9,2.4,2.9,6.1,3,11.2H389c0.7-4.6,2.2-8.2,4.5-10.8c2.4-2.7,5.2-4,8.2-4C404.7,39.8,407.2,41,409.1,43.5z"/>
<path d="M425.7,17.6v2.2h-2.5v6.6h-2.4v-6.6h-2.5v-2.2H425.7z"/>
<path d="M435.3,17.4v9H433v-4.4l-1.7,2.1h-0.7l-1.7-2.1v4.4h-2.4v-9h0.8l3.6,3.8l3.6-3.8H435.3z"/>
<path class="st1" d="M45.8,66.1l0,28.4l6,0l0-28.5l10.9,26.3l5.5-2.3L57.4,63.8l20,20l4.2-4.2L61.6,59.5l26.3,10.9l2.3-5.5
	L63.9,53.9h28.4v-6H64l26.2-10.8l-2.3-5.5L61.8,42.4l20.1-19.9l-4.2-4.3L57.3,38.3l11-26.4l-5.5-2.3L51.9,35.8l0-28.4l-6,0l0,28.5
	L34.9,9.6l-5.5,2.3l10.9,26.1l-20-20L16,22.3l20.1,20.1L9.8,31.5L7.5,37l26.3,10.9H5.3v6h28.4L7.5,64.8l2.3,5.5l26.1-10.8L15.8,79.4
	l4.2,4.3l20.3-20.1L29.4,90l5.5,2.3L45.8,66.1z"/>
</svg>
