<?xml version="1.0" encoding="utf-8"?>
<!-- Generator: Adobe Illustrator 23.0.0, SVG Export Plug-In . SVG Version: 6.00 Build 0)  -->
<svg version="1.1" id="Layer_1" xmlns="http://www.w3.org/2000/svg" xmlns:xlink="http://www.w3.org/1999/xlink" x="0px" y="0px"
	 width="520px" height="107px" viewBox="0 0 520 107" style="enable-background:new 0 0 520 107;" xml:space="preserve">
<style type="text/css">
	.st0{fill:#FF6665;}
	.st1{fill:#FF6665;fill-opacity:0.8;}
</style>
<path class="st0" d="M92,71.7c18.8-10.6,42.7-4,53.5,14.7l-16.3,9.4C110.3,106.7,86.1,100,75.4,81L92,71.7z"/>
<path class="st1" d="M85.1,64.3c10.8-18.6,34.6-25,53.2-14.3l-9.7,16.9c-10.8,18.6-34.6,25-53.2,14.3L85.1,64.3z"/>
<path class="st1" d="M74.6,62.5c0-22.6,18.3-40.9,40.9-40.9v19.1c0,22.6-18.3,40.9-40.9,40.9V62.5z"/>
<path class="st1" d="M64.9,63.2C54.1,44.6,60.5,20.8,79.2,10l9.7,16.9c10.8,18.6,4.4,42.5-14.3,53.2L64.9,63.2z"/>
<path class="st1" d="M74.6,59.7c0-21.1-17.1-38.2-38.2-38.2v21.8c0,21.1,17.1,38.2,38.2,38.2V59.7z"/>
<path class="st1" d="M66.3,64.3C55.6,45.6,31.7,39.2,13.1,50l9.7,16.9c10.8,18.6,34.6,25,53.2,14.3L66.3,64.3z"/>
<path class="st0" d="M59.4,71.7C40.6,61.1,16.8,67.6,6,86.3l16.3,9.4C41.1,106.7,65.3,100,76.1,81L59.4,71.7z"/>
<path d="M214.9,36.2v42.3h-8.5V51l-11.3,27.5h-6.4L177.3,51v27.5h-8.5V36.2h9.6l13.5,31.5l13.5-31.5H214.9z"/>
<path d="M225.2,40.9c-1.5,0-2.7-0.5-3.8-1.4c-1-1-1.5-2.2-1.5-3.6s0.5-2.6,1.5-3.5c1-1,2.3-1.5,3.8-1.5c1.5,0,2.7,0.5,3.7,1.5
	c1,0.9,1.5,2.1,1.5,3.5s-0.5,2.6-1.5,3.6C227.9,40.5,226.7,40.9,225.2,40.9z M229.4,44.9v33.6h-8.5V44.9H229.4z"/>
<path d="M254,44.5c4,0,7.2,1.3,9.7,3.8c2.5,2.5,3.7,6,3.7,10.5v19.7h-8.5V60c0-2.7-0.7-4.7-2-6.1c-1.3-1.5-3.2-2.2-5.5-2.2
	c-2.3,0-4.2,0.7-5.6,2.2c-1.3,1.4-2,3.5-2,6.1v18.5h-8.5V44.9h8.5v4.2c1.1-1.5,2.6-2.6,4.3-3.4C249.9,44.9,251.9,44.5,254,44.5z"/>
<path d="M270.8,61.6c0-3.4,0.7-6.4,2-9c1.4-2.6,3.2-4.6,5.6-6.1c2.3-1.4,5-2.1,7.8-2.1c2.2,0,4.3,0.5,6.2,1.5c2,0.9,3.6,2.2,4.7,3.8
	V33.7h8.6v44.8h-8.6v-5c-1.1,1.7-2.5,3-4.4,4c-1.9,1-4.1,1.5-6.6,1.5c-2.8,0-5.4-0.7-7.8-2.2c-2.3-1.5-4.2-3.5-5.6-6.1
	C271.5,68.1,270.8,65,270.8,61.6z M297.2,61.7c0-2.1-0.4-3.8-1.2-5.3c-0.8-1.5-1.9-2.6-3.3-3.4c-1.4-0.8-2.8-1.2-4.4-1.2
	c-1.6,0-3,0.4-4.4,1.2c-1.3,0.8-2.4,1.9-3.3,3.4c-0.8,1.5-1.2,3.2-1.2,5.2c0,2,0.4,3.8,1.2,5.3c0.8,1.5,1.9,2.6,3.3,3.5
	c1.4,0.8,2.8,1.2,4.4,1.2c1.6,0,3-0.4,4.4-1.2c1.4-0.8,2.5-1.9,3.3-3.4C296.8,65.6,297.2,63.8,297.2,61.7z"/>
<path d="M327,51.9h-5.9v26.6h-8.6V51.9h-3.8v-7h3.8v-1.7c0-4.1,1.2-7.2,3.5-9.1c2.3-1.9,5.9-2.8,10.6-2.7v7.2c-2.1,0-3.5,0.3-4.3,1
	c-0.8,0.7-1.2,2-1.2,3.9v1.4h5.9V51.9z"/>
<path d="M361.8,44.9v33.6h-8.5v-4.2c-1.1,1.5-2.5,2.6-4.3,3.5c-1.7,0.8-3.6,1.2-5.7,1.2c-2.6,0-4.9-0.5-7-1.6
	c-2-1.1-3.6-2.8-4.8-4.9c-1.1-2.2-1.7-4.8-1.7-7.8V44.9h8.5v18.5c0,2.7,0.7,4.7,2,6.2c1.3,1.4,3.2,2.1,5.5,2.1
	c2.3,0,4.2-0.7,5.5-2.1c1.3-1.5,2-3.5,2-6.2V44.9H361.8z"/>
<path d="M376.2,33.7v44.8h-8.5V33.7H376.2z"/>
<path d="M400.8,44.5c4,0,7.2,1.3,9.7,3.8c2.5,2.5,3.7,6,3.7,10.5v19.7h-8.5V60c0-2.7-0.7-4.7-2-6.1c-1.3-1.5-3.2-2.2-5.5-2.2
	c-2.3,0-4.2,0.7-5.6,2.2c-1.3,1.4-2,3.5-2,6.1v18.5h-8.5V44.9h8.5v4.2c1.1-1.5,2.6-2.6,4.3-3.4C396.8,44.9,398.7,44.5,400.8,44.5z"
	/>
<path d="M451,61c0,1.2-0.1,2.3-0.2,3.3h-24.5c0.2,2.4,1.1,4.3,2.5,5.7c1.5,1.4,3.3,2.1,5.5,2.1c3.2,0,5.4-1.4,6.7-4.1h9.2
	c-1,3.2-2.8,5.9-5.6,8c-2.7,2.1-6.1,3.1-10.1,3.1c-3.2,0-6.1-0.7-8.7-2.1c-2.5-1.5-4.5-3.5-6-6.1c-1.4-2.6-2.1-5.7-2.1-9.1
	c0-3.5,0.7-6.5,2.1-9.2c1.4-2.6,3.4-4.6,5.9-6.1c2.5-1.4,5.5-2.1,8.8-2.1c3.2,0,6,0.7,8.5,2.1c2.5,1.4,4.5,3.3,5.9,5.9
	C450.3,54.8,451,57.7,451,61z M442.3,58.6c0-2.2-0.8-3.9-2.4-5.2c-1.5-1.3-3.4-2-5.6-2c-2.1,0-3.9,0.6-5.3,1.9
	c-1.4,1.3-2.3,3-2.6,5.3H442.3z"/>
<path d="M467.7,79.1c-2.7,0-5.2-0.5-7.4-1.5c-2.2-1-3.9-2.4-5.2-4.1c-1.3-1.7-1.9-3.6-2.1-5.6h8.5c0.2,1.3,0.8,2.4,1.9,3.2
	c1.1,0.8,2.5,1.3,4.2,1.3c1.6,0,2.9-0.3,3.8-1c0.9-0.6,1.4-1.5,1.4-2.5c0-1.1-0.6-1.9-1.7-2.4c-1.1-0.6-2.8-1.2-5.3-1.8
	c-2.5-0.6-4.6-1.2-6.2-1.9c-1.6-0.6-3-1.6-4.1-3c-1.1-1.3-1.7-3.1-1.7-5.4c0-1.9,0.5-3.6,1.6-5.1c1.1-1.5,2.6-2.7,4.6-3.6
	c2-0.9,4.4-1.3,7.1-1.3c4,0,7.2,1,9.6,3c2.4,2,3.7,4.7,3.9,8.1h-8.1c-0.1-1.3-0.7-2.4-1.7-3.2c-1-0.8-2.3-1.2-3.9-1.2
	c-1.5,0-2.7,0.3-3.6,0.8c-0.8,0.6-1.2,1.4-1.2,2.4c0,1.1,0.6,2,1.7,2.6c1.1,0.6,2.9,1.2,5.3,1.8c2.4,0.6,4.4,1.2,6,1.9
	c1.6,0.6,2.9,1.7,4.1,3c1.2,1.3,1.8,3.1,1.8,5.3c0,1.9-0.5,3.7-1.6,5.2c-1.1,1.5-2.6,2.7-4.6,3.6C472.6,78.6,470.3,79.1,467.7,79.1z
	"/>
<path d="M498.3,79.1c-2.7,0-5.2-0.5-7.4-1.5c-2.2-1-3.9-2.4-5.2-4.1c-1.3-1.7-1.9-3.6-2.1-5.6h8.5c0.2,1.3,0.8,2.4,1.9,3.2
	c1.1,0.8,2.5,1.3,4.2,1.3c1.6,0,2.9-0.3,3.8-1c0.9-0.6,1.4-1.5,1.4-2.5c0-1.1-0.6-1.9-1.7-2.4c-1.1-0.6-2.8-1.2-5.3-1.8
	c-2.5-0.6-4.6-1.2-6.2-1.9c-1.6-0.6-3-1.6-4.1-3c-1.1-1.3-1.7-3.1-1.7-5.4c0-1.9,0.5-3.6,1.6-5.1c1.1-1.5,2.6-2.7,4.6-3.6
	c2-0.9,4.4-1.3,7.1-1.3c4,0,7.2,1,9.6,3c2.4,2,3.7,4.7,3.9,8.1H503c-0.1-1.3-0.7-2.4-1.7-3.2c-1-0.8-2.3-1.2-3.9-1.2
	c-1.5,0-2.7,0.3-3.6,0.8c-0.8,0.6-1.2,1.4-1.2,2.4c0,1.1,0.6,2,1.7,2.6c1.1,0.6,2.9,1.2,5.3,1.8c2.4,0.6,4.4,1.2,6,1.9
	c1.6,0.6,2.9,1.7,4.1,3c1.2,1.3,1.8,3.1,1.8,5.3c0,1.9-0.5,3.7-1.6,5.2c-1.1,1.5-2.6,2.7-4.6,3.6C503.2,78.6,500.9,79.1,498.3,79.1z
	"/>
</svg>
